<svg width="66" height="66" viewBox="0 0 66 66" fill="none" xmlns="http://www.w3.org/2000/svg">
<g clip-path="url(#clip0_716_15795)">
<path d="M13.3481 57.5708C9.15837 57.5708 7.45835 55.9132 6.08898 54.5782C5.12347 53.6371 4.36086 52.8936 2.55334 52.5634C1.50301 52.3715 0.807177 51.3646 0.999118 50.3144C1.19093 49.2641 2.19807 48.5679 3.24802 48.7601C6.21544 49.3022 7.64166 50.6927 8.78763 51.8098C9.95423 52.9471 10.7314 53.7048 13.3334 53.7048C13.3755 53.7048 13.4181 53.7045 13.4611 53.7041C16.1939 53.6789 16.737 52.6633 17.9267 50.4383C18.7514 48.8958 19.7779 46.9762 21.8253 45.2932C22.6501 44.6155 23.8682 44.7343 24.546 45.5593C25.224 46.3841 25.1048 47.6022 24.2801 48.28C22.8253 49.4756 22.0682 50.8917 21.336 52.2612C20.017 54.7278 18.5222 57.5237 13.4968 57.5699C13.4471 57.5704 13.3972 57.5708 13.3481 57.5708Z" fill="#EDA751"/>
<path d="M13.3481 57.5708C9.15837 57.5708 7.45835 55.9132 6.08898 54.5782C5.12347 53.6371 4.36086 52.8936 2.55334 52.5634C1.50301 52.3715 0.807177 51.3646 0.999118 50.3144C1.19093 49.2641 2.19807 48.5679 3.24802 48.7601C6.21544 49.3022 7.64166 50.6927 8.78763 51.8098C9.95423 52.9471 10.7314 53.7048 13.3334 53.7048C13.3755 53.7048 13.4181 53.7045 13.4611 53.7041C16.1939 53.6789 16.737 52.6633 17.9267 50.4383C18.7514 48.8958 19.7779 46.9762 21.8253 45.2932C22.6501 44.6155 23.8682 44.7343 24.546 45.5593C25.224 46.3841 25.1048 47.6022 24.2801 48.28C22.8253 49.4756 22.0682 50.8917 21.336 52.2612C20.017 54.7278 18.5222 57.5237 13.4968 57.5699C13.4471 57.5704 13.3972 57.5708 13.3481 57.5708Z" fill="#EDA751"/>
<path d="M0.999118 50.3142C0.807177 51.3644 1.50301 52.3713 2.55334 52.5632C3.03158 52.6506 3.43532 52.7677 3.79033 52.9088C4.61146 51.8514 4.91825 50.2341 4.84272 49.175C4.36512 49.0093 3.83738 48.8677 3.24802 48.76C2.19807 48.5676 1.19093 49.2639 0.999118 50.3142Z" fill="#FCD79D"/>
<path d="M24.9641 65.0332C24.8396 65.0332 24.7139 65.0256 24.5871 65.0103C22.8915 64.8043 21.684 63.2624 21.89 61.5669C22.3424 57.8446 22.1588 54.4871 21.4219 53.0137C20.658 51.4858 21.2773 49.6281 22.8051 48.8642C24.3333 48.1005 26.1907 48.7197 26.9546 50.2474C28.7341 53.8066 28.3925 59.3348 28.0306 62.3134C27.8399 63.8821 26.5056 65.0332 24.9641 65.0332Z" fill="#EDA751"/>
<path d="M35.5163 65.0332C35.3917 65.0332 35.2659 65.0256 35.1392 65.0103C33.4436 64.8041 32.2361 63.2624 32.4422 61.5669C32.8948 57.8446 32.711 54.4872 31.9742 53.0137C31.2103 51.4858 31.8295 49.6281 33.3573 48.8642C34.8854 48.1005 36.7429 48.7197 37.5068 50.2474C39.2865 53.8068 38.9448 59.3349 38.5827 62.3134C38.392 63.8821 37.0577 65.0332 35.5163 65.0332Z" fill="#EDA751"/>
<path d="M12.9243 46.7254C9.28764 46.7254 5.42729 44.9628 2.72748 40.4792C1.84627 39.0157 2.3182 37.1153 3.78154 36.2341C5.24488 35.3529 7.14535 35.8248 8.02655 37.2881C8.52529 38.1164 11.2246 42.1353 15.404 39.9231C16.914 39.1244 18.7855 39.7001 19.5844 41.2098C20.3835 42.7196 19.8074 44.5911 18.2978 45.3903C16.7052 46.2332 14.8458 46.7254 12.9243 46.7254Z" fill="#EDA751"/>
<path d="M46.4376 49.0168C46.1112 49.0168 45.8047 48.9953 45.5211 48.9601C42.5194 48.5874 39.8125 46.4707 37.6928 42.8391C36.8317 41.3638 37.3295 39.4699 38.8048 38.6088C40.2803 37.7482 42.1741 38.2455 43.035 39.7209C44.2864 41.865 45.5336 42.7284 46.2835 42.8216C46.8479 42.8899 47.5157 42.5389 48.2665 41.773C49.4622 40.5531 51.4205 40.5337 52.6402 41.7296C53.8601 42.9256 53.8794 44.8836 52.6837 46.1034C50.4104 48.4224 48.1532 49.0168 46.4376 49.0168Z" fill="#EDA751"/>
<path opacity="0.2" d="M46.2835 42.8218C45.5336 42.7286 44.2863 41.8651 43.035 39.7211C42.1741 38.2458 40.2802 37.7485 38.8048 38.609C37.3295 39.4701 36.8317 41.364 37.6928 42.8393C39.731 46.3312 42.3121 48.4216 45.1763 48.9086C45.9845 47.0636 46.4316 45.0445 46.4316 42.9288C46.4316 42.8954 46.4304 42.8623 46.4303 42.829C46.3805 42.8293 46.3315 42.8276 46.2835 42.8218Z" fill="#A35F00"/>
<path opacity="0.2" d="M38.8291 56.1177C38.7127 54.0388 38.3455 51.9245 37.5068 50.2471C36.7429 48.7195 34.8854 48.1002 33.3573 48.864C31.8295 49.6279 31.2103 51.4857 31.9742 53.0135C32.4955 54.0559 32.7395 56.0414 32.6776 58.4315C34.9134 58.0486 36.9953 57.2471 38.8291 56.1177Z" fill="#A35F00"/>
<path opacity="0.2" d="M22.8051 48.8639C21.2773 49.6278 20.658 51.4856 21.4219 53.0134C21.8351 53.8397 22.0743 55.2587 22.125 57.0019C24.0107 57.8977 26.0995 58.4686 28.308 58.6354C28.3832 55.8549 28.1387 52.6154 26.9546 50.2472C26.1908 48.7194 24.3331 48.1003 22.8051 48.8639Z" fill="#A35F00"/>
<path opacity="0.2" d="M21.8257 45.293C19.7783 46.976 18.7518 48.8956 17.9271 50.4381C17.4072 51.4105 17.0107 52.1519 16.501 52.6806C17.3269 53.663 18.2742 54.5515 19.3217 55.325C20.1917 54.3987 20.7803 53.3009 21.3364 52.2612C22.0686 50.8917 22.8258 49.4758 24.2805 48.28C25.1052 47.6021 25.2243 46.384 24.5464 45.5593C23.8685 44.734 22.6504 44.6152 21.8257 45.293Z" fill="#A35F00"/>
<path opacity="0.2" d="M15.4039 39.923C14.569 40.3649 13.7933 40.5576 13.0823 40.5774C12.9596 41.3447 12.8955 42.1298 12.8955 42.9287C12.8955 44.2335 13.0663 45.5015 13.3859 46.7146C15.1427 46.6428 16.8331 46.1653 18.2977 45.3902C19.8075 44.591 20.3834 42.7195 19.5843 41.2098C18.7855 39.7 16.9139 39.1242 15.4039 39.923Z" fill="#A35F00"/>
<path d="M29.6631 56.1834C37.5418 56.1834 43.9288 50.2489 43.9288 42.9284C43.9288 35.6078 37.5418 29.6733 29.6631 29.6733C21.7844 29.6733 15.3975 35.6078 15.3975 42.9284C15.3975 50.2489 21.7844 56.1834 29.6631 56.1834Z" fill="#FCD690"/>
<path opacity="0.15" d="M27.5801 56.0434C21.0612 51.7635 23.0815 42.9917 24.1882 39.1555V30.6853C19.027 32.6805 15.3979 37.4106 15.3979 42.9288C15.3978 49.5921 20.689 55.1063 27.5801 56.0434Z" fill="#C17A00"/>
<path d="M20.982 19.9437C23.7733 17.6013 25.637 13.6694 21.6998 7.85678C17.7315 1.99851 11.8232 0.529881 7.21052 1.07335C6.07331 1.20728 5.11915 2.00792 4.78966 3.10465C3.45355 7.55282 3.87378 13.6265 8.95411 18.5519C13.9946 23.4386 18.1906 22.286 20.982 19.9437Z" fill="#EDA751"/>
<path d="M4.6039 3.78516C3.50845 8.15869 4.12785 13.8727 8.95397 18.5516C13.323 22.7874 17.0565 22.4847 19.7919 20.804C17.9108 8.03352 9.69299 4.64702 4.6039 3.78516Z" fill="#FF91AB"/>
<path d="M38.3446 19.9436C35.5533 17.6012 33.6896 13.6693 37.6267 7.85667C41.5951 1.99827 47.5035 0.529636 52.1161 1.07311C53.2533 1.20704 54.2074 2.00768 54.5369 3.10441C55.873 7.55258 55.4528 13.6261 50.3725 18.5516C45.3319 23.4385 41.136 22.2859 38.3446 19.9436Z" fill="#EDA751"/>
<path d="M54.7227 3.78516C55.8181 8.15869 55.1987 13.8727 50.3726 18.5516C46.0037 22.7874 42.2701 22.4847 39.5347 20.804C41.4159 8.03352 49.6337 4.64702 54.7227 3.78516Z" fill="#FF91AB"/>
<path d="M53.95 23.4787C53.95 34.5832 43.0765 39.4469 29.6635 39.4469C16.2506 39.4469 5.37695 34.5832 5.37695 23.4787C5.37695 12.3742 16.2505 3.37231 29.6634 3.37231C43.0766 3.37231 53.95 12.3745 53.95 23.4787Z" fill="#FFDC9C"/>
<path opacity="0.15" d="M16.6957 6.47681C9.89396 10.0399 5.37695 16.3224 5.37695 23.4789C5.37695 33.0247 13.4121 37.9585 24.1884 39.1557C8.71936 29.9156 10.7367 17.4868 16.6957 6.47681Z" fill="#C17A00"/>
<g opacity="0.2">
<path d="M17.746 27.4498C20.1743 27.4498 22.1428 25.8818 22.1428 23.9476C22.1428 22.0133 20.1743 20.4453 17.746 20.4453C15.3177 20.4453 13.3491 22.0133 13.3491 23.9476C13.3491 25.8818 15.3177 27.4498 17.746 27.4498Z" fill="#151515"/>
<path d="M41.5814 27.4498C44.0098 27.4498 45.9783 25.8818 45.9783 23.9476C45.9783 22.0133 44.0098 20.4453 41.5814 20.4453C39.1531 20.4453 37.1846 22.0133 37.1846 23.9476C37.1846 25.8818 39.1531 27.4498 41.5814 27.4498Z" fill="#151515"/>
</g>
<path d="M63.5942 47.1316H56.6083C55.8138 47.1316 55.1699 46.4876 55.1699 45.6933V36.5857C55.1699 36.184 55.4955 35.8584 55.8972 35.8584H64.3053C64.7069 35.8584 65.0325 36.184 65.0325 36.5857V45.6933C65.0324 46.4876 64.3887 47.1316 63.5942 47.1316Z" fill="#78CFC0"/>
<path d="M62.4314 33.8481C62.4784 33.8481 62.5262 33.8448 62.5742 33.8375C63.1023 33.7594 63.4671 33.2676 63.3889 32.7395C63.2311 31.6742 63.4671 30.8552 63.7171 29.9879C63.9793 29.0782 64.2504 28.1376 63.9592 27.0602C63.8198 26.5447 63.2887 26.2395 62.7736 26.3791C62.2581 26.5185 61.9533 27.0492 62.0925 27.5647C62.2428 28.1209 62.0734 28.7085 61.859 29.4527C61.5906 30.3837 61.2566 31.5425 61.476 33.0228C61.5473 33.503 61.9601 33.8481 62.4314 33.8481ZM57.9711 33.8481C58.0181 33.8481 58.066 33.8448 58.1139 33.8375C58.6422 33.7593 59.0068 33.2676 58.9286 32.7394C58.7708 31.6741 59.0068 30.855 59.2568 29.9879C59.519 29.0781 59.7901 28.1376 59.499 27.0602C59.3597 26.5447 58.8287 26.2395 58.3135 26.3791C57.798 26.5185 57.4931 27.0492 57.6323 27.5647C57.7826 28.1209 57.6132 28.7085 57.3989 29.4525C57.1305 30.3837 56.7966 31.5425 57.0159 33.023C57.087 33.503 57.4998 33.8481 57.9711 33.8481ZM46.956 27.9717C45.9528 27.2311 43.3694 25.9333 42 25.5696C41.4845 25.4331 40.9546 25.7399 40.8175 26.2559C40.6805 26.7721 40.9878 27.3015 41.504 27.4385C42.6156 27.7336 44.9809 28.9169 45.8076 29.5273C45.9804 29.6548 46.1816 29.7163 46.3811 29.7163C46.6775 29.7163 46.9701 29.5804 47.1597 29.3236C47.4767 28.8941 47.3856 28.2889 46.956 27.9717ZM22.3588 20.1691C22.059 20.2683 21.6227 20.3409 21.1907 20.3845C21.2447 20.264 21.2753 20.1307 21.2753 19.99V18.4371C21.2753 18.1811 21.1752 17.9491 21.0128 17.7761C21.5 17.8165 22.0177 17.8949 22.3588 18.0078C22.4596 18.0412 22.562 18.0571 22.6625 18.0571C23.068 18.0571 23.4459 17.7998 23.5803 17.3937C23.748 16.8868 23.4731 16.3399 22.9661 16.1722C22.1032 15.8867 20.8897 15.8105 20.3087 15.8105C19.7276 15.8105 18.514 15.8867 17.6513 16.1722C17.1443 16.3399 16.8693 16.8868 17.037 17.3937C17.2047 17.9006 17.7514 18.1757 18.2586 18.008C18.5996 17.8951 19.1173 17.8168 19.6046 17.7762C19.4422 17.9492 19.342 18.1812 19.342 18.4372V19.9902C19.342 20.1308 19.3727 20.2641 19.4267 20.3846C18.9946 20.3409 18.5584 20.2683 18.2587 20.1692C17.7518 20.0014 17.2049 20.2763 17.037 20.7833C16.8692 21.2902 17.1442 21.8371 17.6511 22.005C18.5139 22.2906 19.7277 22.3668 20.3087 22.3668C20.8898 22.3668 22.1036 22.2906 22.9662 22.005C23.4732 21.8371 23.748 21.2902 23.5803 20.7833C23.4125 20.2762 22.8657 20.001 22.3588 20.1691ZM64.3053 34.8919H55.8972C54.9632 34.8919 54.2032 35.6519 54.2032 36.5859V37.0913H51.8056C50.5389 37.0913 49.5083 38.1219 49.5083 39.3886V39.9954C48.7801 40.1724 48.1136 40.5483 47.5761 41.0968C46.8023 41.8861 46.4381 41.8667 46.4025 41.8629C46.1559 41.8322 45.4878 41.4853 44.6578 40.4129C44.5057 39.6167 44.2807 38.8354 43.9833 38.0728C45.1881 37.6026 46.307 37.0647 47.3292 36.459C52.2929 33.5181 54.9165 29.0296 54.9165 23.4791C54.9165 21.0173 54.4151 18.6218 53.4536 16.3725C56.1245 12.381 56.8595 7.4775 55.4627 2.82656C55.0215 1.3578 53.7521 0.292777 52.2292 0.113468C47.5949 -0.433094 43.0323 1.01684 39.6115 4.09796C36.5086 2.98924 33.139 2.40581 29.6631 2.40581C26.1873 2.40581 22.8177 2.98937 19.7148 4.09796C16.2945 1.01671 11.7323 -0.432965 7.09746 0.11334C5.57443 0.292777 4.30509 1.35767 3.86385 2.82656C2.46702 7.47737 3.20217 12.3811 5.87298 16.3725C4.91147 18.6217 4.41002 21.0172 4.41002 23.4791C4.41002 28.0036 6.09289 31.7493 9.41184 34.6124C11.0393 36.0163 13.0238 37.1725 15.3417 38.0765C15.2175 38.395 15.1065 38.717 15.0077 39.0417C14.9891 39.0512 14.9698 39.0591 14.9515 39.0689C11.6274 40.8283 9.44433 37.7693 8.85458 36.7896C8.29513 35.8607 7.40748 35.2051 6.35509 34.9438C5.3027 34.6825 4.21151 34.8465 3.28261 35.4061C2.35371 35.9655 1.69822 36.8532 1.4368 37.9057C1.17551 38.9582 1.33973 40.0494 1.89906 40.9782C4.50632 45.3079 8.42184 47.6924 12.9243 47.6924C13.6933 47.6924 14.465 47.618 15.2286 47.4731C15.6191 48.5517 16.1451 49.5723 16.7868 50.5181C15.8535 52.2361 15.426 52.7193 13.456 52.7375L13.3339 52.7382C11.1253 52.7382 10.5701 52.1968 9.46302 51.1178C8.28842 49.9726 6.67993 48.4045 3.4226 47.8094C2.66038 47.6693 1.88978 47.8355 1.25246 48.2762C0.615281 48.7167 0.18757 49.3789 0.0484797 50.141C-0.238852 51.7137 0.807093 53.2271 2.38014 53.5147C3.89749 53.7918 4.5009 54.38 5.41472 55.2708C6.82869 56.6494 8.76538 58.5377 13.3483 58.5377L13.506 58.5369C17.5523 58.4995 19.6088 56.7693 20.9549 54.8204C21.2472 56.4724 21.2425 58.8839 20.9305 61.4504C20.6605 63.6726 22.2486 65.7002 24.4711 65.9703C24.635 65.9901 24.8009 66.0002 24.9643 66.0002C27.0122 66.0002 28.7429 64.4653 28.9904 62.4301C29.1519 61.1011 29.3184 59.1853 29.2812 57.1471C29.4083 57.1501 29.5357 57.1516 29.6634 57.1516C30.3573 57.1516 31.0404 57.1072 31.7099 57.0229C31.7487 58.3626 31.6715 59.8959 31.4825 61.4505C31.2125 63.6726 32.8006 65.7001 35.0231 65.9704C35.1869 65.9902 35.3529 66.0003 35.5164 66.0003C37.165 66.0003 38.6801 64.9699 39.2872 63.4365C39.4836 62.9401 39.2405 62.3783 38.7441 62.1818C38.2479 61.9856 37.6859 62.2284 37.4893 62.725C37.14 63.6077 36.2109 64.1683 35.2559 64.051C34.0921 63.9094 33.2603 62.8476 33.4018 61.684C33.6197 59.8922 33.6973 58.1752 33.632 56.661C35.1094 56.2884 36.4984 55.7132 37.7627 54.9689C37.8884 56.1172 37.9323 57.3828 37.8896 58.7555C37.8729 59.2892 38.2921 59.7353 38.8258 59.7518C38.8361 59.7522 38.8463 59.7523 38.8565 59.7523C39.3765 59.7523 39.8059 59.3391 39.8222 58.8156C39.8806 56.943 39.7889 55.2391 39.5504 53.7389C41.0684 52.5266 42.329 51.0418 43.2439 49.3656C43.9463 49.6416 44.6686 49.8289 45.4021 49.92C45.7448 49.9624 46.0931 49.9839 46.4375 49.9839C48.1693 49.9839 50.7784 49.4282 53.3742 46.7805C53.7355 46.412 54.011 45.9911 54.2032 45.5431V45.6933C54.2032 47.0195 55.2821 48.0984 56.6083 48.0984H63.5942C64.9204 48.0984 65.9994 47.0195 65.9994 45.6933V36.5858C65.9991 35.6518 65.2392 34.8919 64.3053 34.8919ZM12.9244 45.7587C9.1267 45.7587 5.79937 43.7066 3.55563 39.9806C3.26263 39.4941 3.17678 38.9226 3.31355 38.3714C3.45044 37.8204 3.79372 37.3553 4.28021 37.0624C4.76658 36.7695 5.33802 36.6837 5.88935 36.8203C6.44055 36.9572 6.90539 37.3006 7.19839 37.7871C8.60605 40.1247 11.2824 42.2451 14.5286 41.3168C14.4647 41.8487 14.4316 42.3863 14.4316 42.929C14.4316 43.8432 14.5256 44.7371 14.7029 45.6036C14.112 45.7061 13.5171 45.7587 12.9244 45.7587ZM52.4368 14.3414C51.2043 12.2047 49.5307 10.2369 47.4531 8.51687C47.312 8.40008 47.1693 8.28509 47.0255 8.1714C49.3714 6.28679 51.9394 5.36472 53.9754 4.91574C54.3809 7.16219 54.484 10.7111 52.4368 14.3414ZM52.0032 2.03353C52.6385 2.10842 53.184 2.49372 53.4732 3.04686C51.1084 3.57898 48.1104 4.69016 45.4106 6.99887C44.2234 6.20635 42.9625 5.51 41.6418 4.9151C44.5509 2.63449 48.2495 1.59048 52.0032 2.03353ZM7.32369 2.03353C11.0778 1.59099 14.776 2.63475 17.6853 4.9151C16.3644 5.51 15.1038 6.20622 13.9165 6.99887C11.2168 4.69016 8.21869 3.57898 5.85403 3.04686C6.14304 2.49359 6.68844 2.10842 7.32369 2.03353ZM5.35168 4.91574C7.3875 5.36472 9.95557 6.28692 12.3015 8.17127C12.1577 8.28496 12.015 8.40008 11.8738 8.51687C9.79624 10.2369 8.12278 12.2047 6.89031 14.3414C4.84289 10.7111 4.94602 7.16219 5.35168 4.91574ZM13.4899 56.6033L13.3483 56.6041C9.55209 56.6041 8.07109 55.16 6.76372 53.8856C5.7665 52.9136 4.82459 51.9954 2.72741 51.6124C2.20315 51.5166 1.85459 51.0124 1.95036 50.4881C1.99677 50.234 2.13921 50.0133 2.35165 49.8666C2.56383 49.7199 2.82074 49.665 3.07443 49.7112C5.75181 50.2004 7.00619 51.4232 8.11337 52.5025C9.35667 53.7142 10.3385 54.6715 13.3336 54.6715L13.4703 54.6708C16.1187 54.6464 17.1547 53.6885 18.0798 52.1537C18.5224 52.6375 18.999 53.0934 19.5062 53.518C18.4572 55.1456 16.9574 56.5713 13.4899 56.6033ZM27.071 62.1967C26.9414 63.2627 26.0356 64.0666 24.9641 64.0666C24.8781 64.0666 24.7905 64.0613 24.7037 64.0507C23.54 63.9093 22.7083 62.8474 22.8497 61.6837C23.1173 59.4819 23.1723 57.4142 23.0203 55.7259C24.3638 56.3364 25.8167 56.7682 27.344 56.9869C27.3948 58.986 27.23 60.8885 27.071 62.1967ZM26.4945 40.3214C27.5248 40.3829 28.591 40.4139 29.6634 40.4139C34.3481 40.4139 38.5733 39.833 42.1573 38.7126C42.4439 39.4359 42.6548 40.1786 42.7884 40.9368C42.7919 40.9639 42.797 40.9908 42.8028 41.0176C42.9086 41.6453 42.9621 42.2831 42.9621 42.929C42.9621 49.7051 36.9964 55.2181 29.6637 55.2181C22.331 55.2181 16.3652 49.7051 16.3652 42.929C16.3652 41.9344 16.4919 40.9587 16.7422 40.0107C16.7462 39.9967 16.7503 39.9828 16.7538 39.9686C16.8673 39.5456 17.0056 39.1281 17.1683 38.717C18.5929 39.1608 20.1259 39.521 21.7642 39.7953C22.2905 39.8831 22.7891 39.5282 22.8774 39.0017C22.9657 38.4751 22.6102 37.9766 22.0836 37.8884C20.2538 37.5819 18.5699 37.1652 17.037 36.641C16.9852 36.6173 16.9324 36.5981 16.879 36.5843C14.4031 35.7196 12.3256 34.5718 10.6751 33.1483C7.80129 30.6691 6.34387 27.4158 6.34387 23.479C6.34387 12.9253 16.8051 4.3394 29.6635 4.3394C42.5221 4.3394 52.9833 12.9253 52.9833 23.479C52.9833 28.3778 50.7494 32.1852 46.3439 34.7956C45.1621 35.4958 43.8359 36.0995 42.3827 36.6045C42.3728 36.6079 42.3627 36.6111 42.3528 36.6148C38.8085 37.8419 34.5059 38.4805 29.6635 38.4805C28.6292 38.4805 27.6017 38.4506 26.6096 38.3915C26.075 38.3584 25.6188 38.7661 25.587 39.299C25.5552 39.8318 25.9615 40.2897 26.4945 40.3214ZM51.9933 45.427C50.2867 47.1677 48.4175 48.0504 46.4375 48.0504C46.1723 48.0504 45.9039 48.0337 45.6402 48.0011C45.1022 47.9342 44.5699 47.8004 44.049 47.6043C44.5571 46.2453 44.8509 44.7933 44.8907 43.2833C45.326 43.5599 45.7562 43.7308 46.1674 43.7819C47.0476 43.8884 47.9863 43.4403 48.9569 42.4501C49.1201 42.2837 49.3068 42.1493 49.5083 42.0462V42.8142C49.5083 44.0809 50.5389 45.1115 51.8056 45.1115H52.2474C52.1739 45.2224 52.09 45.3285 51.9933 45.427ZM51.8056 43.1778C51.6051 43.1778 51.4419 43.0146 51.4419 42.8141V42.0459C51.6312 42.1422 51.807 42.267 51.9634 42.4202C52.1886 42.6411 52.3522 42.9008 52.458 43.1778H51.8056ZM54.2032 42.3336C54.0008 41.8618 53.7058 41.4208 53.3171 41.0397C52.7881 40.5211 52.1432 40.1645 51.4419 39.994V39.3884C51.4419 39.1877 51.6051 39.0246 51.8056 39.0246H54.2032V42.3336V42.3336ZM64.0656 45.6933C64.0656 45.9534 63.8541 46.1648 63.5941 46.1648H56.6082C56.3482 46.1648 56.1366 45.9533 56.1366 45.6933V36.8253H64.0655L64.0656 45.6933ZM17.3269 25.5697C15.9577 25.9333 13.3743 27.2312 12.3709 27.9718C11.9412 28.289 11.8501 28.8942 12.1673 29.3238C12.357 29.5805 12.6495 29.7164 12.9458 29.7164C13.1452 29.7164 13.3464 29.6549 13.5193 29.5274C14.346 28.9171 16.7113 27.7337 17.823 27.4386C18.339 27.3016 18.6463 26.7722 18.5094 26.256C18.3725 25.7402 17.8433 25.4328 17.3269 25.5697ZM35.7466 20.7831C35.5788 21.2899 35.8537 21.8369 36.3606 22.0047C37.2234 22.2904 38.4371 22.3666 39.0183 22.3666C39.5995 22.3666 40.8131 22.2904 41.6758 22.0047C42.1828 21.8369 42.4576 21.2899 42.2899 20.7831C42.1221 20.2761 41.575 20.001 41.0683 20.169C40.7684 20.2682 40.3322 20.3408 39.9002 20.3844C39.9542 20.2638 39.9849 20.1305 39.9849 19.9899V18.4371C39.9849 18.1811 39.8848 17.9491 39.7223 17.7761C40.2096 17.8165 40.7273 17.8949 41.0684 18.0078C41.1692 18.0412 41.2715 18.0571 41.3722 18.0571C41.7778 18.0571 42.1556 17.7998 42.29 17.3937C42.4577 16.8868 42.1826 16.3399 41.6758 16.1722C40.8129 15.8867 39.5994 15.8105 39.0184 15.8105C38.4373 15.8105 37.2236 15.8867 36.361 16.1722C35.854 16.3399 35.579 16.8868 35.7467 17.3937C35.9145 17.9007 36.4606 18.1757 36.9684 18.008C37.3095 17.8951 37.827 17.8168 38.3144 17.7762C38.152 17.9492 38.0518 18.1812 38.0518 18.4372V19.9902C38.0518 20.1308 38.0825 20.2641 38.1365 20.3846C37.7044 20.3409 37.2682 20.2683 36.9685 20.1691C36.461 20.0014 35.9145 20.2762 35.7466 20.7831ZM16.5554 24.1855C17.085 24.2562 17.5706 23.883 17.6406 23.3537C17.7104 22.8243 17.338 22.3386 16.8087 22.2686C15.4044 22.0831 12.5214 22.2986 11.3115 22.601C10.7935 22.7306 10.4785 23.2555 10.6081 23.7736C10.7179 24.2127 11.1121 24.5061 11.5452 24.5061C11.6228 24.5061 11.7017 24.4967 11.7805 24.477C12.7777 24.2274 15.4154 24.0349 16.5554 24.1855ZM41.6862 23.3537C41.7562 23.883 42.2426 24.2559 42.7714 24.1855C43.9115 24.0346 46.5492 24.2276 47.5464 24.477C47.6252 24.4966 47.704 24.5061 47.7817 24.5061C48.2148 24.5061 48.609 24.2129 48.7188 23.7736C48.8484 23.2555 48.5335 22.7306 48.0154 22.601C46.8054 22.2985 43.9222 22.0828 42.5182 22.2686C41.9888 22.3387 41.6164 22.8243 41.6862 23.3537ZM27.1972 22.3767H32.1299C32.6638 22.3767 33.0967 21.944 33.0967 21.4099C33.0967 20.8759 32.6638 20.4431 32.1299 20.4431H27.1972C26.6632 20.4431 26.2304 20.8759 26.2304 21.4099C26.2304 21.9439 26.6632 22.3767 27.1972 22.3767Z" fill="#151515"/>
</g>
<defs>
<clipPath id="clip0_716_15795">
<rect width="66" height="66" fill="white"/>
</clipPath>
</defs>
</svg>
