<svg width="14" height="19" viewBox="0 0 14 19" fill="none" xmlns="http://www.w3.org/2000/svg">
<path d="M0.506836 12.7627C0.506836 16.4233 2.90576 18.5898 6.20117 18.5898C8.84082 18.5898 10.4761 17.4858 11.5635 15.2695C12.2026 14.041 12.6924 12.5635 13.2153 10.8535C13.4312 10.1562 13.7383 9.26807 13.7383 8.86963C13.7383 8.42139 13.4146 8.12256 12.9414 8.12256C12.4185 8.12256 12.103 8.45459 11.7212 9.24316L10.5674 11.667C10.4512 11.9326 10.3184 12.0322 10.1855 12.0322C10.0112 12.0322 9.89502 11.9326 9.89502 11.6421V2.93457C9.89502 2.44482 9.49658 2.04639 9.00684 2.04639C8.51709 2.04639 8.11865 2.44482 8.11865 2.93457V9.16016C7.89453 9.07715 7.64551 9.01074 7.37988 8.96094V1.73926C7.37988 1.24951 6.98145 0.842773 6.4917 0.842773C6.00195 0.842773 5.59521 1.24951 5.59521 1.73926V8.86963C5.33789 8.88623 5.07227 8.92773 4.81494 8.96924V2.44482C4.81494 1.95508 4.4165 1.55664 3.92676 1.55664C3.43701 1.55664 3.03857 1.95508 3.03857 2.44482V9.53369C2.76465 9.6665 2.51562 9.80762 2.2915 9.95703V5.02637C2.2915 4.53662 1.89307 4.13818 1.40332 4.13818C0.913574 4.13818 0.506836 4.53662 0.506836 5.02637V12.7627Z" fill="#9F9F9F"/>
</svg>
