<svg width="13" height="19" viewBox="0 0 13 19" fill="none" xmlns="http://www.w3.org/2000/svg">
<path d="M6.5 12.1816C8.15186 12.1816 9.26416 10.9448 9.26416 9.17676V3.62354C9.26416 1.84717 8.15186 0.618652 6.5 0.618652C4.83984 0.618652 3.72754 1.84717 3.72754 3.62354V9.17676C3.72754 10.9448 4.83984 12.1816 6.5 12.1816ZM0.556641 9.30957C0.556641 12.5635 2.70654 14.8462 5.86914 15.1118V17.0459H2.78955C2.44092 17.0459 2.15869 17.3281 2.15869 17.6768C2.15869 18.0254 2.44092 18.2993 2.78955 18.2993H10.2021C10.5508 18.2993 10.833 18.0254 10.833 17.6768C10.833 17.3281 10.5508 17.0459 10.2021 17.0459H7.12256V15.1118C10.2935 14.8462 12.4351 12.5635 12.4351 9.30957V7.62451C12.4351 7.27588 12.1611 7.00195 11.8125 7.00195C11.4639 7.00195 11.1816 7.27588 11.1816 7.62451V9.25977C11.1816 12.0903 9.33887 13.9663 6.5 13.9663C3.65283 13.9663 1.81006 12.0903 1.81006 9.25977V7.62451C1.81006 7.27588 1.53613 7.00195 1.1792 7.00195C0.830566 7.00195 0.556641 7.27588 0.556641 7.62451V9.30957Z" fill="#9F9F9F"/>
</svg>
