<svg width="18" height="17" viewBox="0 0 18 17" fill="none" xmlns="http://www.w3.org/2000/svg">
<path d="M3.4579 16.8174C3.65401 16.9723 3.87253 17.0277 4.11346 16.9834C4.36 16.9447 4.62054 16.8229 4.89509 16.6182L8.99655 13.6382L13.1064 16.6182C13.3866 16.8229 13.6471 16.9447 13.888 16.9834C14.1346 17.0277 14.3531 16.9723 14.5436 16.8174C14.7397 16.6735 14.8574 16.4826 14.8966 16.2446C14.9414 16.0067 14.9078 15.73 14.7957 15.4146L13.1736 10.6499L17.3171 7.71973C17.5917 7.52051 17.785 7.31299 17.897 7.09717C18.0147 6.88135 18.0315 6.65723 17.9475 6.4248C17.8746 6.19792 17.7261 6.02913 17.502 5.91846C17.2835 5.80778 17.0062 5.75521 16.67 5.76074L11.5936 5.79395L10.0471 0.996094C9.94067 0.67513 9.80059 0.428874 9.62689 0.257324C9.4532 0.0857747 9.24308 0 8.99655 0C8.75562 0 8.5483 0.0857747 8.37461 0.257324C8.20091 0.428874 8.06083 0.67513 7.95438 0.996094L6.41633 5.79395L1.33153 5.76074C0.995347 5.75521 0.717995 5.80778 0.499475 5.91846C0.280955 6.02913 0.132473 6.19792 0.0540297 6.4248C-0.0300165 6.65723 -0.0160088 6.88135 0.0960528 7.09717C0.213718 7.31299 0.412627 7.52051 0.692781 7.71973L4.82786 10.6499L3.20576 15.4146C3.0937 15.73 3.05728 16.0067 3.0965 16.2446C3.14133 16.4826 3.26179 16.6735 3.4579 16.8174ZM4.96233 14.7837C4.95673 14.7671 4.95673 14.745 4.96233 14.7173L6.43314 10.625C6.51158 10.4147 6.53399 10.2432 6.50038 10.1104C6.46676 9.972 6.35189 9.83919 6.15579 9.71191L2.51658 7.25488C2.48857 7.23828 2.47456 7.22168 2.47456 7.20508C2.48016 7.18848 2.50538 7.18018 2.5502 7.18018L6.94582 7.28809C7.16434 7.29915 7.33243 7.26595 7.4501 7.18848C7.57337 7.10547 7.66582 6.95882 7.72745 6.74854L8.96293 2.57324C8.97414 2.53451 8.98534 2.51514 8.99655 2.51514C9.01896 2.51514 9.03577 2.53451 9.04698 2.57324L10.2741 6.74854C10.3357 6.95882 10.4253 7.10547 10.543 7.18848C10.6663 7.26595 10.84 7.29915 11.0641 7.28809L15.4597 7.18018C15.4989 7.18018 15.5213 7.18848 15.5269 7.20508C15.5325 7.21615 15.5213 7.23275 15.4933 7.25488L11.8541 9.71191C11.658 9.83919 11.5403 9.972 11.5011 10.1104C11.4675 10.2432 11.4899 10.4147 11.5684 10.625L13.0392 14.7173C13.0504 14.745 13.0504 14.7671 13.0392 14.7837C13.0336 14.7948 13.0112 14.7892 12.9719 14.7671L9.49242 12.1025C9.31872 11.9642 9.15624 11.895 9.00495 11.895C8.85367 11.895 8.68838 11.9642 8.50908 12.1025L5.02957 14.7671C4.99595 14.7892 4.97354 14.7948 4.96233 14.7837Z" fill="white"/>
</svg>
