<svg width="80" height="120" viewBox="0 0 80 120" fill="none" xmlns="http://www.w3.org/2000/svg">
<g clip-path="url(#clip0_717_20524)">
<rect width="80" height="120" rx="6" fill="#FF91AB"/>
<g clip-path="url(#clip1_717_20524)">
<path d="M27.6104 29.0653C29.5362 33.8331 34.0247 37.0747 39.1562 37.4039V34.9891C38.3639 34.6924 37.8279 33.948 37.7979 33.1025C37.7979 31.8887 38.7818 30.9047 39.9957 30.9047C41.2095 30.9047 42.1935 31.8887 42.1935 33.1025C42.1634 33.948 41.6275 34.6924 40.8352 34.9891V37.3095C45.9435 37.0077 50.4258 33.802 52.3622 29.0652H27.6104V29.0653Z" fill="white" fill-opacity="0.4"/>
<path d="M53.0605 20.8398H26.9315C25.8895 20.8398 25.0449 21.6845 25.0449 22.7264V25.7072C25.1049 26.7046 25.9323 27.4824 26.9315 27.4806H53.0605C54.0598 27.4823 54.8871 26.7046 54.9471 25.7072V22.6698C54.9165 21.65 54.0807 20.8393 53.0605 20.8398Z" fill="white" fill-opacity="0.4"/>
<path d="M34.9259 11.7889C31.5943 13.1477 28.9506 15.7914 27.5918 19.123H52.3625C49.5727 12.2828 41.7661 8.99918 34.9259 11.7889Z" fill="white" fill-opacity="0.4"/>
<path d="M59.7578 -1.1766C59.4054 -1.46056 58.9027 -1.46056 58.5504 -1.1766C54.4377 3.01071 49.0214 5.67228 43.1937 6.36966C42.7598 4.96632 41.4554 4.01487 39.9865 4.03034C38.5308 4.01036 37.2378 4.95703 36.8171 6.35083C30.9836 5.65451 25.5609 2.99311 21.4415 -1.19553C21.1012 -1.47356 20.6122 -1.47356 20.2718 -1.19553C19.928 -0.876726 19.9076 -0.339583 20.2264 0.00424558C20.241 0.0198983 20.2561 0.0351086 20.2718 0.0496117C24.7033 4.45898 30.4929 7.24409 36.7038 7.95439C37.0144 9.79336 38.7571 11.0324 40.596 10.7217C42.0134 10.4823 43.124 9.37179 43.3634 7.95439C49.5672 7.23861 55.3491 4.45394 59.7766 0.0496117C60.0815 -0.305094 60.0733 -0.831536 59.7578 -1.1766ZM39.9865 5.6905C40.5481 5.69572 41.0706 5.97817 41.3826 6.4451C40.4582 6.4451 39.4961 6.4451 38.6282 6.4451C38.9303 5.98657 39.4375 5.70482 39.9865 5.6905ZM39.9865 9.0675C39.3557 9.07979 38.7777 8.71668 38.515 8.1431C39.0244 8.1431 39.5149 8.1431 39.9865 8.1431C40.4582 8.1431 40.9865 8.1431 41.4958 8.1431C41.2198 8.72261 40.6281 9.08501 39.9865 9.0675Z" fill="white" fill-opacity="0.4"/>
</g>
<path d="M46.6709 109.879C47.3739 109.194 47.1734 107.964 46.2925 107.232C45.4533 106.534 44.3039 106.536 43.7301 107.236C43.1564 107.936 43.3724 109.073 44.2116 109.771C45.0294 110.451 46.0823 110.453 46.6709 109.879V109.879Z" fill="white" fill-opacity="0.4"/>
<path d="M42.2486 112.611C42.0207 113.513 42.6088 114.435 43.5213 114.694C44.4417 114.956 45.3792 114.461 45.6053 113.567C45.8331 112.665 45.245 111.743 44.3326 111.484C43.4192 111.224 42.4761 111.711 42.2486 112.611V112.611Z" fill="white" fill-opacity="0.4"/>
<path d="M47.8162 105.884C47.5926 106.769 48.1635 107.704 49.0889 107.967C50.5392 108.395 51.7888 106.888 50.9603 105.551C50.1762 104.271 48.1749 104.457 47.8162 105.884Z" fill="white" fill-opacity="0.4"/>
<path d="M51.4356 109.899C50.2665 109.319 48.6961 109.633 47.8877 110.609L47.786 110.732C46.9781 111.708 46.9533 113.321 47.7311 114.375L47.8754 114.571C48.1729 114.974 48.6262 115.219 49.119 115.243C49.6118 115.268 50.0764 115.063 50.381 114.693C50.6778 114.334 50.7946 113.861 50.7015 113.394L50.6401 113.085C50.6324 113.047 50.6615 113.012 50.7 113.013L51.0123 113.018C52.0048 113.052 52.7777 112.088 52.5335 111.117C52.4211 110.633 52.1001 110.228 51.6527 110.006L51.4356 109.899Z" fill="white" fill-opacity="0.4"/>
<path d="M28.958 90.1156C29.661 89.4304 29.4605 88.2006 28.5796 87.468C27.7404 86.7701 26.5911 86.7719 26.0172 87.472C25.4435 88.1721 25.6595 89.3095 26.4987 90.0074C27.3165 90.6876 28.3694 90.6895 28.958 90.1156V90.1156Z" fill="white" fill-opacity="0.4"/>
<path d="M24.5357 92.8478C24.3079 93.7492 24.8959 94.6711 25.8084 94.9307C26.7288 95.1926 27.6663 94.6976 27.8924 93.8029C28.1202 92.9015 27.5321 91.9797 26.6197 91.72C25.7063 91.4601 24.7632 91.9473 24.5357 92.8478V92.8478Z" fill="white" fill-opacity="0.4"/>
<path d="M30.1029 86.1207C29.8792 87.0059 30.4501 87.9402 31.3755 88.2035C32.8258 88.6313 34.0754 87.1244 33.2469 85.7877C32.4628 84.5076 30.4615 84.6941 30.1029 86.1207Z" fill="white" fill-opacity="0.4"/>
<path d="M33.7227 90.1351C32.5536 89.555 30.9832 89.869 30.1748 90.8458L30.0731 90.9687C29.2652 91.9448 29.2405 93.557 30.0182 94.6113L30.1625 94.8069C30.46 95.2101 30.9133 95.4552 31.4061 95.4793C31.8989 95.5045 32.3635 95.2993 32.6682 94.9294C32.9649 94.5708 33.0818 94.0971 32.9886 93.6299L32.9272 93.3216C32.9195 93.2829 32.9486 93.2485 32.9871 93.2491L33.2994 93.2545C34.2919 93.2882 35.0649 92.3247 34.8206 91.3535C34.7082 90.8696 34.3872 90.4648 33.9398 90.2428L33.7227 90.1351Z" fill="white" fill-opacity="0.4"/>
<path d="M9.95803 73.1156C10.661 72.4304 10.4605 71.2006 9.57958 70.468C8.74039 69.7701 7.59105 69.7719 7.01719 70.472C6.44349 71.1721 6.65951 72.3095 7.49867 73.0074C8.3165 73.6876 9.36941 73.6895 9.95803 73.1156V73.1156Z" fill="white" fill-opacity="0.4"/>
<path d="M5.53572 75.8478C5.30786 76.7492 5.89593 77.6711 6.80839 77.9307C7.72878 78.1926 8.66632 77.6976 8.89237 76.8029C9.12021 75.9015 8.53213 74.9797 7.6197 74.72C6.70629 74.4601 5.76324 74.9473 5.53572 75.8478V75.8478Z" fill="white" fill-opacity="0.4"/>
<path d="M11.1029 69.1207C10.8792 70.0059 11.4501 70.9402 12.3755 71.2035C13.8258 71.6313 15.0754 70.1244 14.2469 68.7877C13.4628 67.5076 11.4615 67.6941 11.1029 69.1207Z" fill="white" fill-opacity="0.4"/>
<path d="M14.7227 73.1351C13.5536 72.555 11.9832 72.869 11.1748 73.8458L11.0731 73.9687C10.2652 74.9448 10.2405 76.557 11.0182 77.6113L11.1625 77.8069C11.46 78.2101 11.9133 78.4552 12.4061 78.4793C12.8989 78.5045 13.3635 78.2993 13.6682 77.9294C13.9649 77.5708 14.0818 77.0971 13.9886 76.6299L13.9272 76.3216C13.9195 76.2829 13.9486 76.2485 13.9871 76.2491L14.2994 76.2545C15.2919 76.2882 16.0649 75.3247 15.8206 74.3535C15.7082 73.8696 15.3872 73.4648 14.9398 73.2428L14.7227 73.1351Z" fill="white" fill-opacity="0.4"/>
<path d="M49.9253 86.6554C50.1148 85.7183 49.5814 84.6618 48.7093 84.2496C47.7509 83.7966 46.7478 84.2935 46.5394 85.3241C46.3499 86.261 46.8834 87.3176 47.7555 87.7298C48.7142 88.1829 49.717 87.6856 49.9253 86.6554V86.6554Z" fill="white" fill-opacity="0.4"/>
<path d="M52.9488 83.9675C52.0136 83.9914 51.3206 84.8035 51.365 85.7489C51.41 86.7077 52.1937 87.4688 53.112 87.4454C54.0475 87.4215 54.7402 86.6096 54.6958 85.6639L54.6958 85.6639C54.6515 84.7177 53.8831 83.9437 52.9488 83.9675Z" fill="white" fill-opacity="0.4"/>
<path d="M45.243 91.3892C46.1615 91.3657 46.8718 90.5664 46.8268 89.6077L46.8268 89.6077C46.6259 87.3022 43.4794 87.3844 43.496 89.6927C43.541 90.6515 44.3247 91.4126 45.243 91.3892Z" fill="white" fill-opacity="0.4"/>
<path d="M53.5727 89.8767C52.7493 88.7664 51.0511 88.3297 49.8345 88.9468C49.7745 88.9905 48.9063 89.2915 48.3946 90.408C48.1107 91.0272 48.0341 91.7052 48.1788 92.3172L48.2343 92.5522C48.3489 93.0366 48.6716 93.4381 49.1197 93.6537C50.0464 94.0996 51.1162 93.5744 51.331 92.59C51.3321 92.5852 51.3987 92.2799 51.3977 92.2847C51.4059 92.2467 51.4466 92.2264 51.4824 92.2423L51.7702 92.3698C52.0741 92.5045 52.4057 92.5406 52.729 92.4743C52.9596 92.427 53.1697 92.3309 53.3488 92.195C54.0368 91.6734 54.2054 90.6092 53.5728 89.8765L53.5727 89.8767Z" fill="white" fill-opacity="0.4"/>
<path d="M68.9253 106.655C69.1148 105.718 68.5814 104.662 67.7093 104.25C66.7509 103.797 65.7478 104.294 65.5394 105.324C65.3499 106.261 65.8834 107.318 66.7555 107.73C67.7142 108.183 68.717 107.686 68.9253 106.655V106.655Z" fill="white" fill-opacity="0.4"/>
<path d="M71.9488 103.967C71.0136 103.991 70.3206 104.804 70.365 105.749C70.41 106.708 71.1937 107.469 72.112 107.445C73.0475 107.421 73.7402 106.61 73.6958 105.664L73.6958 105.664C73.6515 104.718 72.8831 103.944 71.9488 103.967Z" fill="white" fill-opacity="0.4"/>
<path d="M64.243 111.389C65.1615 111.366 65.8718 110.566 65.8268 109.608L65.8268 109.608C65.6259 107.302 62.4794 107.384 62.496 109.693C62.541 110.652 63.3247 111.413 64.243 111.389Z" fill="white" fill-opacity="0.4"/>
<path d="M72.5727 109.877C71.7493 108.766 70.0511 108.33 68.8345 108.947C68.7745 108.99 67.9063 109.292 67.3946 110.408C67.1107 111.027 67.0341 111.705 67.1788 112.317L67.2343 112.552C67.3489 113.037 67.6716 113.438 68.1197 113.654C69.0464 114.1 70.1162 113.574 70.331 112.59C70.3321 112.585 70.3987 112.28 70.3977 112.285C70.4059 112.247 70.4466 112.226 70.4824 112.242L70.7702 112.37C71.0741 112.504 71.4057 112.541 71.729 112.474C71.9596 112.427 72.1697 112.331 72.3488 112.195C73.0368 111.673 73.2054 110.609 72.5728 109.877L72.5727 109.877Z" fill="white" fill-opacity="0.4"/>
<path d="M29.9253 66.6554C30.1148 65.7183 29.5814 64.6618 28.7093 64.2496C27.7509 63.7966 26.7478 64.2935 26.5394 65.3241C26.3499 66.261 26.8834 67.3176 27.7555 67.7298C28.7142 68.1829 29.717 67.6856 29.9253 66.6554V66.6554Z" fill="white" fill-opacity="0.4"/>
<path d="M32.9488 63.9675C32.0136 63.9914 31.3206 64.8035 31.365 65.7489C31.41 66.7077 32.1937 67.4688 33.112 67.4454C34.0475 67.4215 34.7402 66.6096 34.6958 65.6639L34.6958 65.6639C34.6515 64.7177 33.8831 63.9437 32.9488 63.9675Z" fill="white" fill-opacity="0.4"/>
<path d="M25.243 71.3892C26.1615 71.3657 26.8718 70.5664 26.8268 69.6077L26.8268 69.6077C26.6259 67.3022 23.4794 67.3844 23.496 69.6927C23.541 70.6515 24.3247 71.4126 25.243 71.3892Z" fill="white" fill-opacity="0.4"/>
<path d="M33.5727 69.8767C32.7493 68.7664 31.0511 68.3297 29.8345 68.9468C29.7745 68.9905 28.9063 69.2915 28.3946 70.408C28.1107 71.0272 28.0341 71.7052 28.1788 72.3172L28.2343 72.5522C28.3489 73.0366 28.6716 73.4381 29.1197 73.6537C30.0464 74.0996 31.1162 73.5744 31.331 72.59C31.3321 72.5852 31.3987 72.2799 31.3977 72.2847C31.4059 72.2467 31.4466 72.2264 31.4824 72.2423L31.7702 72.3698C32.0741 72.5045 32.4057 72.5406 32.729 72.4743C32.9596 72.427 33.1697 72.3309 33.3488 72.195C34.0368 71.6734 34.2054 70.6092 33.5728 69.8765L33.5727 69.8767Z" fill="white" fill-opacity="0.4"/>
<path d="M10.9253 49.6554C11.1148 48.7183 10.5814 47.6618 9.70929 47.2496C8.75091 46.7966 7.74777 47.2935 7.53944 48.3241C7.34993 49.261 7.8834 50.3176 8.75548 50.7298C9.7142 51.1829 10.717 50.6856 10.9253 49.6554V49.6554Z" fill="white" fill-opacity="0.4"/>
<path d="M13.9488 46.9675C13.0136 46.9914 12.3206 47.8035 12.365 48.7489C12.41 49.7077 13.1937 50.4688 14.112 50.4454C15.0475 50.4215 15.7402 49.6096 15.6958 48.6639L15.6958 48.6639C15.6515 47.7177 14.8831 46.9437 13.9488 46.9675Z" fill="white" fill-opacity="0.4"/>
<path d="M6.24301 54.3892C7.16153 54.3657 7.87177 53.5664 7.82682 52.6077L7.82683 52.6077C7.62589 50.3022 4.47945 50.3844 4.49598 52.6927C4.541 53.6515 5.32473 54.4126 6.24301 54.3892Z" fill="white" fill-opacity="0.4"/>
<path d="M14.5727 52.8767C13.7493 51.7664 12.0511 51.3297 10.8345 51.9468C10.7745 51.9905 9.90634 52.2915 9.39456 53.408C9.11069 54.0272 9.03413 54.7052 9.17882 55.3172L9.23435 55.5522C9.34891 56.0366 9.67161 56.4381 10.1197 56.6537C11.0464 57.0996 12.1162 56.5744 12.331 55.59C12.3321 55.5852 12.3987 55.2799 12.3977 55.2847C12.4059 55.2467 12.4466 55.2264 12.4824 55.2423L12.7702 55.3698C13.0741 55.5045 13.4057 55.5406 13.729 55.4743C13.9596 55.427 14.1697 55.3309 14.3488 55.195C15.0368 54.6734 15.2054 53.6092 14.5728 52.8765L14.5727 52.8767Z" fill="white" fill-opacity="0.4"/>
</g>
<defs>
<clipPath id="clip0_717_20524">
<rect width="80" height="120" fill="white"/>
</clipPath>
<clipPath id="clip1_717_20524">
<rect width="40" height="38" fill="white" transform="translate(20)"/>
</clipPath>
</defs>
</svg>
