<svg width="66" height="66" viewBox="0 0 66 66" fill="none" xmlns="http://www.w3.org/2000/svg">
<g clip-path="url(#clip0_716_17286)">
<path d="M16.7009 51.8169C16.3155 51.8169 15.931 51.664 15.6457 51.3613C15.097 50.7786 15.1244 49.8615 15.7071 49.3127C20.1011 45.1742 24.1612 46.3792 27.1254 47.2592C28.4691 47.6582 29.6296 48.0028 30.4644 47.7773C33.518 46.9531 34.8946 43.8172 34.6393 41.2851C34.5591 40.4888 35.1396 39.7782 35.936 39.698C36.7341 39.6169 37.443 40.1984 37.5232 40.9946C37.7255 43.0034 37.2566 45.0633 36.2028 46.7945C35.0586 48.6742 33.289 50.0172 31.2197 50.5756C29.5919 51.0149 27.9188 50.5181 26.3009 50.0378C23.5104 49.2095 20.8751 48.4271 17.6946 51.4228C17.4143 51.6862 17.0572 51.8169 16.7009 51.8169Z" fill="#EDA751"/>
<path d="M15.6457 51.3612C15.9308 51.664 16.3155 51.8168 16.7009 51.8168C17.0573 51.8168 17.4144 51.6861 17.6942 51.4226C18.0477 51.0898 18.3941 50.8059 18.735 50.5613C18.4349 49.3664 17.5814 48.6924 16.8446 48.3521C16.4683 48.6347 16.089 48.9531 15.7071 49.3128C15.1245 49.8615 15.0969 50.7787 15.6457 51.3612Z" fill="#FCD79D"/>
<path d="M20.8233 27.9388C21.0614 25.2173 19.965 22.1451 14.7965 21.151C9.58726 20.149 5.67675 22.5027 3.51963 25.2359C2.98776 25.9097 2.90642 26.84 3.31312 27.5959C4.96287 30.6622 8.40519 33.659 13.7093 33.5769C18.9719 33.4956 20.5852 30.6603 20.8233 27.9388Z" fill="#EDA751"/>
<path d="M3.57568 28.0551C5.31347 30.9542 8.67071 33.6548 13.7095 33.5768C18.2709 33.5062 20.0896 31.3665 20.6487 29.0257C12.8817 23.2532 6.73028 25.8144 3.57568 28.0551Z" fill="#FF91AB"/>
<path d="M30.0272 18.7345C27.3058 18.9726 24.2335 17.8761 23.2393 12.7079C22.2373 7.49863 24.5911 3.58813 27.3243 1.43101C27.9982 0.899138 28.9284 0.817798 29.6844 1.2245C32.7507 2.87424 35.7475 6.31656 35.6654 11.6207C35.5838 16.8833 32.7486 18.4964 30.0272 18.7345Z" fill="#EDA751"/>
<path d="M30.1436 1.48706C33.0427 3.22485 35.7433 6.58209 35.6653 11.6209C35.5947 16.1823 33.455 18.001 31.1142 18.5601C25.3416 10.7931 27.9027 4.64166 30.1436 1.48706Z" fill="#FF91AB"/>
<path d="M40.1739 12.3364C46.0604 18.2229 42.8746 26.5651 35.7644 33.6755C28.654 40.7858 20.3119 43.9716 14.4253 38.0851C8.53882 32.1986 9.53101 21.6625 16.6412 14.5523C23.7513 7.44209 34.2872 6.45003 40.1739 12.3364Z" fill="#FFDC9C"/>
<path opacity="0.15" d="M11.4119 23.0723C9.69516 28.5666 10.631 34.2915 14.4247 38.0852C19.485 43.1455 26.3599 41.5015 32.707 36.4235C19.6087 39.7256 14.0896 32.0675 11.4119 23.0723Z" fill="#C17A00"/>
<path d="M26.328 24.2393C25.966 24.6013 25.5191 24.8259 25.0513 24.914L27.0685 26.9313C27.6074 27.4701 28.481 27.4701 29.0198 26.9313C29.5586 26.3925 29.5586 25.5189 29.0198 24.9799L27.0025 22.9626C26.9144 23.4303 26.6898 23.8774 26.328 24.2393Z" fill="#FF91AB"/>
<path opacity="0.05" d="M26.328 24.2393C25.966 24.6013 25.5191 24.8259 25.0513 24.914L26.2568 26.1196C26.7245 26.0314 27.1715 25.8068 27.5335 25.4449C27.8955 25.0829 28.12 24.636 28.2082 24.1682L27.0027 22.9626C26.9144 23.4303 26.6898 23.8774 26.328 24.2393Z" fill="#151515"/>
<path d="M23.5611 29.4454C22.5359 28.4202 20.6612 28.6328 19.3738 29.9201C18.0865 31.2075 17.8739 33.0822 18.8991 34.1074C19.9243 35.1325 21.799 34.92 23.0863 33.6326C24.3737 32.3453 24.5862 30.4706 23.5611 29.4454Z" fill="#FF91AB"/>
<path d="M31.5351 21.4723C32.5603 22.4975 34.435 22.285 35.7224 20.9976C37.0097 19.7102 37.2223 17.8356 36.1971 16.8104C35.1719 15.7852 33.2972 15.9977 32.0098 17.2851C30.7225 18.5724 30.51 20.4471 31.5351 21.4723Z" fill="#FF91AB"/>
<path d="M58.5485 23.3927C52.6769 17.5211 43.1572 17.5211 37.2857 23.3927L20.9771 39.7013C19.4275 41.2509 19.4275 43.7634 20.9771 45.3128L36.6283 60.964C38.1779 62.5137 40.6904 62.5137 42.2399 60.964L58.5485 44.6554C64.4202 38.7839 64.4202 29.2642 58.5485 23.3927Z" fill="#78CFC0"/>
<path opacity="0.05" d="M26.5588 34.1196L20.9771 39.7013C19.4275 41.2509 19.4275 43.7634 20.9771 45.3128L36.6283 60.964C38.1779 62.5136 40.6904 62.5136 42.2399 60.964L54.9243 48.2796C40.5556 55.5402 28.1552 39.1626 26.5588 34.1196Z" fill="#151515"/>
<path opacity="0.1" d="M19.9863 41.3515C19.9898 41.355 19.9926 41.3589 19.9961 41.3624L22.0332 43.3994C22.5309 43.8971 23.1833 44.146 23.8357 44.146C24.4881 44.146 25.1405 43.8971 25.6384 43.3994C26.6339 42.4038 26.6338 40.7898 25.6382 39.7942L23.6011 37.7572C23.4847 37.6408 23.3593 37.5394 23.2279 37.4502L20.977 39.7012C20.4994 40.1786 20.1696 40.7475 19.9863 41.3515Z" fill="#151515"/>
<path opacity="0.1" d="M43.4607 24.1372C44.9236 23.9931 45.9928 22.6903 45.8487 21.2274L45.6453 19.1614C43.8493 19.4344 42.0936 20.0333 40.4731 20.9579L40.551 21.749C40.6862 23.1233 41.8441 24.1502 43.1967 24.1502C43.284 24.1502 43.372 24.1459 43.4607 24.1372Z" fill="#151515"/>
<path d="M31.6686 56.0043L25.9373 50.2729L18.0952 58.115C16.5125 59.6977 16.5125 62.2636 18.0952 63.8463C19.678 65.429 22.244 65.429 23.8266 63.8463L31.6686 56.0043Z" fill="#B77866"/>
<g opacity="0.1">
<path d="M29.132 44.8786C28.0243 43.7709 28.0243 41.9751 29.132 40.8674L42.8713 27.1281C43.979 26.0204 45.7748 26.0204 46.8825 27.1281C47.9902 28.2358 47.9902 30.0316 46.8825 31.1393L33.1432 44.8786C32.0355 45.9861 30.2397 45.9861 29.132 44.8786Z" fill="#151515"/>
<path d="M37.0626 52.809C38.1703 53.9167 39.9661 53.9167 41.0738 52.809L54.813 39.0697C55.9207 37.962 55.9207 36.1662 54.813 35.0586C53.7053 33.9509 51.9095 33.9509 50.8018 35.0586L37.0626 48.7979C35.955 49.9056 35.955 51.7013 37.0626 52.809Z" fill="#151515"/>
</g>
<path opacity="0.1" d="M22.8081 53.4011L28.5371 59.1301L31.6653 56.002L25.9362 50.2729L22.8081 53.4011Z" fill="#151515"/>
<path d="M24.0661 42.6363C23.4728 42.6363 22.8794 42.41 22.4266 41.9573L20.5737 40.1045C19.6682 39.1989 19.6681 37.7308 20.5735 36.8254C21.4791 35.9198 22.9471 35.9199 23.8527 36.8254L25.7056 38.6783C26.6111 39.5838 26.6111 41.052 25.7057 41.9574C25.2529 42.41 24.6595 42.6363 24.0661 42.6363Z" fill="#EDA751"/>
<path d="M43.4545 22.7252C42.2763 22.7252 41.2677 21.8307 41.1497 20.6335L40.9361 18.4638C40.8106 17.1893 41.7421 16.0545 43.0164 15.9289C44.29 15.8042 45.4256 16.7347 45.5511 18.0092L45.7647 20.179C45.8903 21.4534 44.9588 22.5883 43.6844 22.7138C43.6073 22.7214 43.5305 22.7252 43.4545 22.7252Z" fill="#EDA751"/>
<path d="M24.4909 23.9865C23.9594 23.9493 23.4967 24.3521 23.4602 24.8847C23.4236 25.4175 23.8258 25.879 24.3585 25.9156C24.437 25.921 24.5155 25.9237 24.5938 25.9237C25.4981 25.9237 26.3684 25.566 27.0116 24.923C27.7102 24.2243 28.0721 23.2573 28.0041 22.27C27.9675 21.7372 27.504 21.3357 26.9733 21.3718C26.4405 21.4084 26.0384 21.87 26.0751 22.4026C26.1046 22.8321 25.9476 23.2524 25.6443 23.5557C25.3407 23.8589 24.9194 24.0155 24.4909 23.9865ZM30.6546 19.6148C30.902 19.6148 31.1495 19.5204 31.3383 19.3316C31.7159 18.954 31.7159 18.3418 31.3383 17.9643L30.5151 17.1411C30.1374 16.7635 29.5254 16.7635 29.1478 17.1411C28.7702 17.5186 28.7702 18.1308 29.1478 18.5082L29.971 19.3314C30.1597 19.5204 30.4072 19.6148 30.6546 19.6148ZM36.4375 14.8093C35.6185 15.3008 33.9402 16.746 33.2798 17.6076C32.9548 18.0314 33.0352 18.6382 33.4589 18.963C33.6344 19.0975 33.8412 19.1626 34.0464 19.1626C34.3369 19.1626 34.6241 19.0322 34.8144 18.7838C35.3152 18.1305 36.8024 16.8453 37.4326 16.4673C37.8905 16.1926 38.0389 15.5987 37.764 15.1408C37.4891 14.6831 36.8957 14.5347 36.4375 14.8093ZM34.4749 20.8915C34.6543 21.2004 34.9785 21.3731 35.3119 21.3731C35.4766 21.3731 35.6435 21.3309 35.7963 21.2422C36.5082 20.8289 38.3729 20.2075 39.0995 20.098C39.6275 20.0185 39.991 19.526 39.9115 18.998C39.8321 18.4698 39.338 18.1068 38.8115 18.186C37.8672 18.3283 35.7646 19.0249 34.8257 19.5699C34.3637 19.838 34.2069 20.4297 34.4749 20.8915ZM20.0529 29.2496C20.2418 29.4383 20.4893 29.5328 20.7367 29.5328C20.984 29.5328 21.2315 29.4385 21.4204 29.2496C21.7979 28.8721 21.7979 28.2599 21.4204 27.8824L20.5972 27.0592C20.2195 26.6817 19.6074 26.6817 19.2299 27.0592C18.8523 27.4368 18.8523 28.049 19.2299 28.4264L20.0529 29.2496ZM59.232 22.7089C55.8953 19.3723 51.2104 17.683 46.5301 18.0841L46.5134 17.9145C46.3453 16.2088 44.8928 14.9339 43.2088 14.9522C42.6513 13.7662 41.8631 12.6588 40.857 11.6527C39.5466 10.3423 38.0198 9.35124 36.357 8.67022C35.6181 5.11717 33.3777 2.11378 30.1423 0.373028C29.0444 -0.217235 27.7035 -0.100059 26.7251 0.672091C23.9591 2.85499 22.2831 6.05175 22.0645 9.51701C19.8891 10.5619 17.8096 12.0159 15.9569 13.8684C14.1328 15.6925 12.6616 17.7663 11.5965 19.9764C8.13475 20.1973 4.94174 21.873 2.76077 24.6365C1.98862 25.6146 1.87131 26.9559 2.46171 28.0536C4.2004 31.2852 7.19863 33.524 10.746 34.2656C11.3979 35.8485 12.3254 37.2888 13.5125 38.5341C13.7025 38.7334 13.9572 38.8338 14.2124 38.8338C14.4521 38.8338 14.6922 38.7453 14.8794 38.5669C15.2659 38.1984 15.2806 37.5865 14.9121 37.1999C13.8011 36.0345 12.9537 34.6654 12.3875 33.1502C12.3754 33.1081 12.361 33.0668 12.3433 33.027C11.6513 31.1144 11.403 28.9747 11.6361 26.7205C11.6719 26.3737 11.7198 26.0277 11.7774 25.6828C11.7782 25.6787 11.7787 25.6745 11.7795 25.6704C12.024 24.2124 12.4602 22.7732 13.0735 21.3858C13.098 21.3416 13.1189 21.2951 13.1363 21.247C14.1191 19.0707 15.5355 17.0244 17.3244 15.2354C24.0462 8.5136 33.9897 7.51947 39.49 13.0195C40.2729 13.8025 40.8948 14.6525 41.3498 15.5536C40.4177 16.2141 39.8545 17.3423 39.9741 18.5583L40.1208 20.0467C38.8342 20.7649 37.6527 21.6579 36.6018 22.7088L23.75 35.5606C23.4162 35.3843 23.0583 35.2693 22.6929 35.2158C22.9025 34.6174 23.139 34.0381 23.3308 33.7075C23.5988 33.2457 23.4418 32.6541 22.9799 32.3861C22.5183 32.1181 21.9265 32.2752 21.6585 32.7369C21.2741 33.3993 20.815 34.6392 20.5274 35.6445C20.3 35.7804 20.0855 35.9458 19.8899 36.1415C19.2693 36.762 18.9276 37.5872 18.9276 38.4648C18.9276 38.9625 19.0379 39.4433 19.2462 39.8795C18.8643 39.7757 18.4903 39.6466 18.1281 39.4914C17.6368 39.2809 17.0689 39.5084 16.8585 39.9991C16.6481 40.4899 16.8755 41.0582 17.3661 41.2686C17.8637 41.4818 18.3788 41.6556 18.9055 41.7895C18.7065 43.1732 19.0953 44.6203 20.0403 45.7221C18.2714 46.1687 16.6227 47.1219 15.0439 48.6091C14.0742 49.5224 14.0284 51.0544 14.9417 52.0242C15.3962 52.5069 16.0374 52.7837 16.7007 52.7837C17.3187 52.7837 17.9069 52.5502 18.357 52.1264C20.5684 50.0435 22.365 50.0277 24.3438 50.4983L17.4111 57.4312C16.463 58.3791 15.9408 59.6397 15.9408 60.9806C15.9408 62.3214 16.463 63.5819 17.411 64.5299C18.359 65.4779 19.6195 66.0001 20.9603 66.0001C22.3011 66.0001 23.5616 65.478 24.5097 64.5299L31.6682 57.3716L35.9444 61.6478C36.9066 62.6099 38.1702 63.0909 39.4339 63.0909C40.6977 63.0909 41.9612 62.6099 42.9234 61.6478L55.4019 49.1693C55.7795 48.7917 55.7795 48.1795 55.4019 47.8021C55.0244 47.4245 54.4123 47.4245 54.0345 47.8021L41.556 60.2805C40.386 61.4507 38.4815 61.4507 37.3116 60.2805L21.6607 44.6291C20.8993 43.8678 20.6294 42.7717 20.877 41.7746L21.7432 42.6407C22.3636 43.2614 23.1886 43.6031 24.0662 43.6031C24.944 43.6031 25.7692 43.2614 26.3895 42.6408C27.6704 41.3599 27.6704 39.2755 26.3893 37.9946L25.2201 36.8255L37.9693 24.0764C38.7625 23.2829 39.6414 22.5935 40.5893 22.0144C41.1523 23.0241 42.2269 23.6921 43.4546 23.6921C43.5625 23.6921 43.672 23.6868 43.7796 23.6761C45.5823 23.4985 46.9047 21.8874 46.7272 20.0845L46.7197 20.0088C50.8277 19.6636 54.937 21.1485 57.8648 24.0765C63.35 29.5617 63.35 38.4868 57.8648 43.9722L57.2385 44.5987C56.8609 44.9762 56.8609 45.5884 57.2386 45.966C57.4273 46.1547 57.6748 46.249 57.9222 46.249C58.1696 46.249 58.4171 46.1547 58.6059 45.9658L59.2323 45.3393C65.4712 39.0998 65.4712 28.948 59.232 22.7089ZM4.91763 28.3277C6.13167 27.5833 7.76131 26.8436 9.70741 26.578C9.51457 28.5011 9.63316 30.3549 10.0449 32.0847C7.48352 31.2563 5.85465 29.6125 4.91763 28.3277ZM10.015 24.5967C7.56602 24.8223 5.52659 25.7043 4.02444 26.607C4.0167 26.333 4.10153 26.0588 4.27851 25.8346C5.09062 24.8054 7.22351 22.5697 10.7445 22.0128C10.4417 22.8618 10.1976 23.725 10.015 24.5967ZM24.0996 8.66842C24.6533 5.13999 26.8928 3.00311 27.9233 2.18996C28.1476 2.01298 28.4217 1.92816 28.6956 1.93589C27.7914 3.44036 26.9081 5.48417 26.6841 7.93842C25.8192 8.11992 24.9554 8.36368 24.0996 8.66842ZM28.6647 7.63201C28.9287 5.67985 29.6703 4.04583 30.4164 2.82921C31.7036 3.76804 33.3509 5.40141 34.178 7.97116C32.4166 7.55312 30.5526 7.4429 28.6647 7.63201ZM30.301 56.004L23.1427 63.1625C22.5598 63.7453 21.7848 64.0664 20.9604 64.0664C20.1361 64.0664 19.3612 63.7454 18.7783 63.1625C18.1955 62.5796 17.8744 61.8046 17.8744 60.9803C17.8744 60.156 18.1954 59.381 18.7784 58.7982L25.9367 51.6399L30.301 56.004ZM21.6908 47.3939L22.6138 48.3168C20.8812 48.2842 19.0373 48.8292 17.0315 50.7186C16.9416 50.8033 16.8242 50.8498 16.701 50.8498C16.6231 50.8498 16.4738 50.8301 16.3496 50.6982C16.2303 50.5717 16.2163 50.4277 16.2185 50.353C16.2208 50.2784 16.2434 50.1354 16.3698 50.0163C18.0495 48.4345 19.7942 47.5741 21.6908 47.3939ZM25.4179 40.3177C25.4179 40.6787 25.2774 41.0183 25.022 41.2736C24.7668 41.5289 24.4272 41.6695 24.066 41.6695C23.705 41.6695 23.3656 41.5289 23.1102 41.2735L21.2573 39.4207C21.0021 39.1655 20.8613 38.826 20.8613 38.4649C20.8613 38.2325 20.9202 38.0095 21.0299 37.8116C21.0487 37.8156 21.0672 37.8201 21.0864 37.8231C21.1352 37.8304 21.1838 37.834 21.2318 37.834C21.6668 37.834 22.0518 37.5395 22.1642 37.116C22.1805 37.1155 22.1968 37.1137 22.2131 37.1137C22.5594 37.1137 22.9055 37.2454 23.169 37.5089L25.0219 39.3618C25.2773 39.6171 25.4179 39.9565 25.4179 40.3177ZM43.59 21.7515C43.545 21.7559 43.4995 21.7582 43.4546 21.7582C42.7577 21.7582 42.1806 21.234 42.1122 20.5386L42.1119 20.5363C42.1119 20.5362 42.1119 20.5361 42.1119 20.5359L42.1114 20.5307L41.8985 18.369C41.8346 17.7209 42.2419 17.1332 42.8401 16.9463C42.8522 16.9433 42.8642 16.9402 42.8763 16.9367C42.952 16.9153 43.03 16.8992 43.111 16.8912C43.1557 16.8869 43.1999 16.8847 43.244 16.8847C43.9307 16.8847 44.5205 17.4072 44.5893 18.1041L44.8029 20.2737C44.8758 21.0155 44.3318 21.6784 43.59 21.7515ZM17.2295 35.6755C17.3852 35.7689 17.5567 35.8133 17.726 35.8133C18.0545 35.8133 18.3747 35.6458 18.5559 35.3437C18.9339 34.7137 20.2188 33.2265 20.8724 32.7256C21.2961 32.4007 21.3764 31.794 21.0516 31.3701C20.7267 30.9464 20.12 30.8659 19.6961 31.191C18.8342 31.8515 17.3892 33.53 16.8978 34.3489C16.6231 34.807 16.7717 35.4008 17.2295 35.6755Z" fill="#151515"/>
</g>
<defs>
<clipPath id="clip0_716_17286">
<rect width="66" height="66" fill="white"/>
</clipPath>
</defs>
</svg>
