<svg width="66" height="66" viewBox="0 0 66 66" fill="none" xmlns="http://www.w3.org/2000/svg">
<g clip-path="url(#clip0_716_16482)">
<path d="M61.8407 54.6378C62.3612 54.6378 62.8806 54.431 63.2652 54.0218C64.0045 53.2353 63.966 51.9984 63.1794 51.2593C59.4168 47.7233 54.4556 47.1977 48.0121 49.6519C44.7436 50.897 43.1489 49.177 40.1335 45.4843L40.0225 45.3484C39.3397 44.5124 38.1085 44.3884 37.2727 45.0712C36.4368 45.7542 36.3127 46.9852 36.9955 47.821L37.1061 47.9563C38.6264 49.818 40.0624 51.5764 41.9156 52.7305C44.2128 54.1609 46.6621 54.3488 49.4038 53.3044C54.4453 51.384 57.8684 51.6316 60.5031 54.1075C60.88 54.4622 61.3608 54.6378 61.8407 54.6378Z" fill="#EDA751"/>
<path opacity="0.2" d="M40.1335 45.4843L40.0225 45.3484C39.3397 44.5124 38.1085 44.3884 37.2727 45.0712C36.4368 45.7542 36.3127 46.9854 36.9955 47.821L37.1061 47.9563C38.6264 49.818 40.0624 51.5764 41.9156 52.7305C42.5754 53.1414 43.2479 53.4492 43.9363 53.6553C45.0362 52.5719 45.9748 51.3429 46.7168 50.0032C44.2645 50.3683 42.722 48.6543 40.1335 45.4843Z" fill="#A35F00"/>
<path d="M63.1796 51.2594C62.7484 50.8542 62.3007 50.4904 61.8377 50.1643C60.7353 50.81 59.7816 52.2258 59.3691 53.2146C59.7632 53.4709 60.1408 53.7675 60.5029 54.1078C60.8802 54.4623 61.361 54.638 61.8409 54.638C62.3614 54.638 62.8808 54.4312 63.2654 54.0219C64.0046 53.2355 63.9662 51.9985 63.1796 51.2594Z" fill="#FCD79D"/>
<path d="M38.573 65.0325C38.919 65.0325 39.2705 64.9746 39.6153 64.8528C41.2435 64.2772 42.0968 62.4906 41.5212 60.8625C40.4593 57.8588 39.487 54.5612 40.3277 52.8802C41.0999 51.3355 40.4739 49.4572 38.9292 48.685C37.3843 47.9128 35.5062 48.5388 34.734 50.0833C32.9561 53.6389 33.8043 57.7973 35.625 62.9468C36.0787 64.2303 37.285 65.0325 38.573 65.0325Z" fill="#EDA751"/>
<path d="M22.5632 63.8389C22.9092 63.8389 23.2607 63.781 23.6055 63.6592C25.2337 63.0837 26.0871 61.297 25.5114 59.669C24.4968 56.7991 26.6817 55.1602 27.0286 55.0282C28.6724 54.4987 29.5707 52.7386 29.0413 51.095C28.5118 49.451 26.7447 48.55 25.1015 49.0789C23.0874 49.7277 21.1429 51.5314 20.0266 53.7862C19.1676 55.5214 18.3989 58.3121 19.6154 61.7531C20.0689 63.0367 21.2754 63.8389 22.5632 63.8389Z" fill="#EDA751"/>
<path d="M18.802 44.2931C19.6657 44.2931 20.4509 44.2198 21.1242 44.0612C22.8051 43.665 23.8464 41.9812 23.4503 40.3003C23.0541 38.6195 21.3701 37.579 19.6895 37.9742C17.8081 38.4173 11.178 37.0715 6.8701 34.6397C5.36616 33.7905 3.45901 34.3217 2.61004 35.8255C1.76107 37.3294 2.29203 39.2366 3.79584 40.0856C7.77926 42.3346 14.3373 44.2931 18.802 44.2931Z" fill="#EDA751"/>
<path opacity="0.2" d="M38.9291 48.6852C37.3842 47.9131 35.5062 48.539 34.7339 50.0836C33.5105 52.5303 33.5307 55.2626 34.2555 58.4066C36.4018 58.099 38.4162 57.4107 40.2195 56.4184C39.9412 54.9907 39.903 53.7293 40.3275 52.8802C41.0998 51.3358 40.4737 49.4574 38.9291 48.6852Z" fill="#A35F00"/>
<path opacity="0.2" d="M25.1012 49.0789C23.0872 49.7277 21.1427 51.5314 20.0263 53.7862C19.9808 53.878 19.9357 53.9735 19.8911 54.0712C21.4452 55.494 23.288 56.6388 25.3287 57.4199C25.647 55.9495 26.7863 55.1203 27.0287 55.0281C28.6725 54.4986 29.5707 52.7385 29.0415 51.0948C28.5117 49.451 26.7446 48.55 25.1012 49.0789Z" fill="#A35F00"/>
<path opacity="0.2" d="M19.6894 37.9744C18.9395 38.151 17.434 38.0426 15.623 37.6953C15.0696 39.2654 14.769 40.9424 14.769 42.6846C14.769 43.0923 14.7855 43.4964 14.8178 43.8966C16.237 44.1495 17.5961 44.2933 18.8018 44.2933C19.6656 44.2933 20.4508 44.22 21.1241 44.0614C22.805 43.6652 23.8463 41.9814 23.4502 40.3005C23.054 38.6198 21.3702 37.579 19.6894 37.9744Z" fill="#A35F00"/>
<path d="M31.6928 56.0865C39.6583 56.0865 46.1157 50.0863 46.1157 42.6846C46.1157 35.2829 39.6583 29.2827 31.6928 29.2827C23.7273 29.2827 17.27 35.2829 17.27 42.6846C17.27 50.0863 23.7273 56.0865 31.6928 56.0865Z" fill="#FCD690"/>
<path opacity="0.15" d="M29.5876 55.9435C22.9971 51.6165 25.0364 42.6847 28.3444 39.5756L26.1583 30.3064C20.9405 32.3235 17.2715 37.1056 17.2715 42.6847C17.2714 49.4212 22.6208 54.9961 29.5876 55.9435Z" fill="#C18F00"/>
<path d="M37.4449 54.1593C39.9451 54.1593 42.155 53.1405 43.6466 51.6547C46.7206 48.5924 46.8439 43.9127 43.9465 40.2742C42.871 38.9231 40.9037 38.7001 39.5527 39.776C38.2017 40.8518 37.9787 42.8189 39.0546 44.17C40.3498 45.7965 39.6108 46.8476 39.233 47.224C37.999 48.4531 35.9988 47.8412 34.5638 46.6892C33.217 45.6083 31.249 45.8236 30.168 47.1706C29.087 48.5173 29.3024 50.4854 30.6493 51.5664C32.9469 53.4109 35.3025 54.1592 37.4449 54.1593Z" fill="#EDA751"/>
<path d="M38.2845 20.1525C35.4625 17.7843 33.5782 13.8092 37.5588 7.93263C41.571 2.00982 47.5442 0.525093 52.2075 1.07449C53.3572 1.20997 54.3219 2.01936 54.655 3.12821C56.0059 7.62532 55.581 13.7657 50.4447 18.7453C45.3487 23.6858 41.1067 22.5205 38.2845 20.1525Z" fill="#EDA751"/>
<path d="M54.8427 3.81616C55.9502 8.23787 55.3241 14.0146 50.4449 18.7451C46.0278 23.0274 42.2532 22.7214 39.4878 21.0222C41.3895 8.11128 49.6976 4.68756 54.8427 3.81616Z" fill="#FF91AB"/>
<path d="M20.7308 20.1525C23.5528 17.7843 25.4371 13.8092 21.4565 7.93263C17.4445 2.00982 11.4712 0.525093 6.80775 1.07449C5.65805 1.20997 4.69332 2.01936 4.36036 3.12821C3.00943 7.62532 3.4343 13.7657 8.57066 18.7453C13.6667 23.6858 17.9087 22.5205 20.7308 20.1525Z" fill="#EDA751"/>
<path d="M4.17245 3.81616C3.06502 8.23787 3.69112 14.0146 8.57044 18.7451C12.9875 23.0274 16.7621 22.7214 19.5275 21.0222C17.6256 8.11128 9.31757 4.68756 4.17245 3.81616Z" fill="#FF91AB"/>
<path d="M4.9541 23.7265C4.9541 34.9531 15.9471 39.8702 29.5077 39.8702C43.0683 39.8702 54.0613 34.9531 54.0613 23.7265C54.0613 12.4999 43.0683 3.39893 29.5077 3.39893C15.9471 3.39893 4.9541 12.5 4.9541 23.7265Z" fill="#FFDC9C"/>
<path opacity="0.15" d="M16.3973 6.53735C9.52083 10.1396 4.9541 16.4912 4.9541 23.7264C4.9541 33.3771 13.0776 38.3652 23.9724 39.5755C8.33335 30.2339 10.373 17.6684 16.3973 6.53735Z" fill="#C18F00"/>
<path d="M26.1299 28.063C28.0996 28.063 29.6963 26.4663 29.6963 24.4966C29.6963 22.5269 28.0996 20.9302 26.1299 20.9302C24.1602 20.9302 22.5635 22.5269 22.5635 24.4966C22.5635 26.4663 24.1602 28.063 26.1299 28.063Z" fill="#FF91AB"/>
<path d="M14.3047 32.8219C17.5808 26.6119 27.4491 24.1533 29.6962 24.4967C29.8883 28.7685 28.1286 41.3507 23.2049 42.6848C19.3946 43.7174 17.6632 40.5895 18.1208 38.8317C16.1177 40.177 10.9034 39.269 14.3047 32.8219Z" fill="#78CFC0"/>
<path d="M6.86816 44.0451C6.86816 45.5138 8.21161 46.7042 9.86882 46.7042C11.526 46.7042 12.8695 45.5136 12.8695 44.0451C12.8695 42.5765 12.0663 41.0022 10.4089 41.0022C8.7516 41.0022 6.86816 42.5766 6.86816 44.0451Z" fill="#78CFC0"/>
<path d="M11.3252 52.7376C11.3252 53.9058 12.3619 54.8529 13.6407 54.8529C14.9195 54.8529 16.1125 53.7496 16.1125 52.5813C16.1125 51.4131 15.148 50.5142 13.8693 50.5142C12.5905 50.5142 11.3252 51.5695 11.3252 52.7376Z" fill="#78CFC0"/>
<g opacity="0.1">
<path d="M17.2711 35.5172C17.7792 35.5172 18.1911 35.1053 18.1911 34.5972C18.1911 34.0891 17.7792 33.6772 17.2711 33.6772C16.763 33.6772 16.3511 34.0891 16.3511 34.5972C16.3511 35.1053 16.763 35.5172 17.2711 35.5172Z" fill="#151515"/>
<path d="M25.6036 32.6376C26.1117 32.6376 26.5236 32.2257 26.5236 31.7176C26.5236 31.2095 26.1117 30.7976 25.6036 30.7976C25.0955 30.7976 24.6836 31.2095 24.6836 31.7176C24.6836 32.2257 25.0955 32.6376 25.6036 32.6376Z" fill="#151515"/>
<path d="M22.6143 39.5353C23.1224 39.5353 23.5343 39.1234 23.5343 38.6153C23.5343 38.1072 23.1224 37.6953 22.6143 37.6953C22.1062 37.6953 21.6943 38.1072 21.6943 38.6153C21.6943 39.1234 22.1062 39.5353 22.6143 39.5353Z" fill="#151515"/>
<path d="M9.77595 45.444C10.2841 45.444 10.6959 45.0321 10.6959 44.524C10.6959 44.0159 10.2841 43.604 9.77595 43.604C9.26785 43.604 8.85596 44.0159 8.85596 44.524C8.85596 45.0321 9.26785 45.444 9.77595 45.444Z" fill="#151515"/>
</g>
<path d="M13.8694 49.5474C12.032 49.5474 10.3587 51.068 10.3587 52.7376C10.3587 54.4371 11.8311 55.8195 13.6408 55.8195C15.4404 55.8195 17.0792 54.276 17.0792 52.5812C17.0793 50.8801 15.6695 49.5474 13.8694 49.5474ZM13.6409 53.8861C12.8972 53.8861 12.2923 53.3709 12.2923 52.7377C12.2923 52.127 13.1031 51.481 13.8696 51.481C14.6091 51.481 15.146 51.9438 15.146 52.5814C15.1458 53.2154 14.3723 53.8861 13.6409 53.8861ZM18.444 20.3009C18.0666 19.9236 17.4544 19.9234 17.0769 20.3009L16.6721 20.7057L16.2673 20.3009C15.8898 19.9235 15.2776 19.9235 14.9002 20.3009C14.5226 20.6786 14.5226 21.2906 14.9002 21.6682L15.3049 22.073L14.9002 22.4777C14.5226 22.8554 14.5226 23.4675 14.9002 23.845C15.0889 24.0338 15.3364 24.1281 15.5837 24.1281C15.8311 24.1281 16.0786 24.0338 16.2673 23.845L16.6721 23.4403L17.0769 23.845C17.2656 24.0338 17.5131 24.1281 17.7604 24.1281C18.0078 24.1281 18.2553 24.0338 18.444 23.845C18.8216 23.4673 18.8216 22.8553 18.444 22.4777L18.0393 22.073L18.444 21.6682C18.8216 21.2905 18.8216 20.6785 18.444 20.3009ZM37.3593 22.4776L36.9546 22.0728L37.3593 21.6681C37.7369 21.2904 37.7369 20.6783 37.3593 20.3008C36.9818 19.9234 36.3696 19.9234 35.9921 20.3008L35.5874 20.7056L35.1826 20.3008C34.8051 19.9234 34.1929 19.9234 33.8155 20.3008C33.4379 20.6785 33.4379 21.2905 33.8155 21.6681L34.2202 22.0728L33.8155 22.4776C33.4379 22.8553 33.4379 23.4673 33.8155 23.8449C34.0042 24.0336 34.2517 24.128 34.499 24.128C34.7464 24.128 34.9939 24.0336 35.1826 23.8449L35.5874 23.4401L35.9921 23.8449C36.1809 24.0336 36.4284 24.128 36.6757 24.128C36.9231 24.128 37.1706 24.0336 37.3593 23.8449C37.7369 23.4673 37.7369 22.8553 37.3593 22.4776ZM63.8416 50.555C59.7823 46.7399 54.492 46.1491 47.6683 48.7485C47.2282 48.9159 46.8295 49.0178 46.4583 49.0602C46.9718 47.6823 47.1276 46.2029 46.9258 44.7257C47.0284 44.0521 47.0828 43.3668 47.0828 42.6845C47.0828 40.9074 46.7412 39.1844 46.0685 37.5486C48.0365 36.5597 49.7028 35.3591 51.0503 33.9558C53.6897 31.2073 55.028 27.7656 55.028 23.7264C55.028 21.237 54.5206 18.8148 53.5476 16.5406C56.2488 12.507 56.9926 7.55064 55.5807 2.84998C55.136 1.36886 53.8562 0.295212 52.3207 0.114358C47.636 -0.438001 43.0243 1.0283 39.5678 4.14432C36.4303 3.02259 33.0228 2.43207 29.5078 2.43207C25.9928 2.43207 22.5852 3.02246 19.4478 4.14432C15.9913 1.0283 11.3796 -0.43813 6.69482 0.114358C5.15917 0.295212 3.8794 1.36899 3.43468 2.85011C2.02252 7.55077 2.76643 12.5072 5.46777 16.5408C4.4948 18.8149 3.98742 21.2372 3.98742 23.7266C3.98742 27.9397 5.47332 31.5264 8.32857 34.3133C7.98323 34.1447 7.65439 33.9726 7.34528 33.7981C6.39305 33.2605 5.28847 33.1257 4.23505 33.4192C3.18177 33.7123 2.3056 34.3984 1.76793 35.3505C1.2304 36.3028 1.09582 37.4073 1.38908 38.4607C1.68234 39.5141 2.36825 40.3903 3.32047 40.9278C4.21494 41.4327 5.25998 41.9352 6.39009 42.4065C6.08175 42.9252 5.90167 43.4868 5.90167 44.0455C5.90167 46.045 7.68146 47.6714 9.86911 47.6714C11.8196 47.6714 13.4446 46.3781 13.7743 44.6809C14.7354 44.8781 15.6554 45.0251 16.5272 45.1221C17.0026 47.7094 18.2214 50.062 19.9704 51.9818C19.6662 52.4238 19.3944 52.884 19.1598 53.358C18.438 54.8163 18.0543 56.3661 18.0198 57.9648C18.0082 58.4988 18.4316 58.9408 18.9654 58.9522C18.9725 58.9524 18.9796 58.9525 18.9867 58.9525C19.511 58.9525 19.9415 58.5333 19.9529 58.0066C19.9812 56.6933 20.2974 55.4181 20.8927 54.2158C21.0398 53.9186 21.2047 53.6276 21.3858 53.3444C22.475 54.2634 23.705 55.0397 25.0419 55.6405C24.3289 56.7343 23.9796 58.2373 24.5999 59.9919C24.9969 61.1149 24.4063 62.3515 23.2834 62.7484C23.0499 62.831 22.8077 62.8728 22.5633 62.8728C21.8132 62.8728 21.1059 62.4752 20.7176 61.8352C20.4408 61.3788 19.8461 61.2334 19.3895 61.5101C18.9331 61.787 18.7876 62.3816 19.0646 62.8382C19.8011 64.0521 21.1417 64.8063 22.5632 64.8063C23.0276 64.8063 23.4868 64.7273 23.9278 64.5715C26.056 63.8191 27.1752 61.4756 26.423 59.3475C25.9002 57.8688 26.4693 56.8667 26.9296 56.348C28.4306 56.8053 30.0316 57.0537 31.6941 57.0537C32.1309 57.0537 32.5655 57.0345 32.9974 57.0006C33.2694 58.7419 33.8134 60.7237 34.7137 63.2703C35.291 64.9033 36.842 66.0004 38.5732 66.0004C39.0374 66.0004 39.4964 65.9214 39.9377 65.7654C40.9687 65.401 41.7958 64.6568 42.2673 63.6702C42.7385 62.6835 42.7973 61.5722 42.4329 60.5414C41.7297 58.5526 40.9612 56.1368 40.9782 54.4795C41.3734 54.3301 41.7581 54.1571 42.1287 53.9595C44.4924 55.1785 46.9909 55.2592 49.7481 54.2089C54.4616 52.4135 57.4801 52.594 59.8412 54.8132C60.3849 55.3242 61.0952 55.6055 61.8411 55.6055C62.6442 55.6055 63.4202 55.2699 63.9703 54.6847C64.5046 54.1161 64.7856 53.3734 64.7613 52.5935C64.7367 51.813 64.4102 51.0892 63.8416 50.555ZM52.5315 14.5095C51.2852 12.3444 49.5907 10.3505 47.4862 8.60805C47.3402 8.48714 47.1926 8.36803 47.0436 8.25034C49.4238 6.33481 52.0313 5.40025 54.0955 4.94624C54.5082 7.22193 54.6155 10.8252 52.5315 14.5095ZM52.0945 2.03466C52.7449 2.11136 53.3028 2.50826 53.5951 3.07699C51.2017 3.61388 48.1635 4.73793 45.4289 7.07859C44.2224 6.27255 42.9405 5.56486 41.5975 4.96107C44.5431 2.64631 48.2904 1.58607 52.0945 2.03466ZM6.92105 2.03466C10.7254 1.58671 14.4726 2.64657 17.4181 4.96107C16.075 5.56486 14.7933 6.27255 13.5867 7.07859C10.8521 4.7378 7.81372 3.61375 5.42059 3.07699C5.71282 2.50813 6.27047 2.11123 6.92105 2.03466ZM4.92005 4.94624C6.98421 5.40012 9.59171 6.33494 11.9719 8.25034C11.8231 8.3679 11.6753 8.48714 11.5293 8.60805C9.42478 10.3503 7.73032 12.3444 6.48406 14.5095C4.40005 10.8252 4.50743 7.22193 4.92005 4.94624ZM9.86911 45.7375C8.74751 45.7375 7.83512 44.9783 7.83512 44.0451C7.83512 43.2065 9.19107 41.969 10.4092 41.969C11.5908 41.969 11.903 43.327 11.903 44.0451C11.903 44.9783 10.9907 45.7375 9.86911 45.7375ZM16.3136 43.1492C15.47 43.0403 14.5783 42.8829 13.6451 42.6764C13.5118 42.214 13.3123 41.7853 13.0505 41.4149C12.4217 40.5254 11.4837 40.0354 10.4094 40.0354C9.50186 40.0354 8.58754 40.3697 7.82171 40.8998C6.49631 40.3797 5.27699 39.8116 4.27089 39.2438C3.76841 38.9602 3.40645 38.4978 3.25176 37.942C3.09708 37.386 3.1681 36.8032 3.45169 36.3009C3.73542 35.7984 4.1978 35.4363 4.75364 35.2816C5.30948 35.1271 5.89226 35.1978 6.39473 35.4817C8.03582 36.4081 10.1639 37.2657 12.4363 37.9207C12.6174 38.439 12.9215 38.9223 13.3872 39.3411C14.2558 40.1222 15.4209 40.4029 16.5134 40.3269C16.376 41.1034 16.305 41.8916 16.305 42.6848C16.3047 42.8401 16.3083 42.9949 16.3136 43.1492ZM17.5818 38.0291C16.8505 38.5204 15.4236 38.5723 14.6801 37.9034C13.834 37.1425 14.0088 35.4548 15.1599 33.273C16.0716 31.5449 18.1313 29.0697 22.7661 27.0909C25.1494 26.0734 27.4399 25.5528 28.7428 25.449C28.7138 27.7291 28.2898 31.2552 27.4354 34.4417C26.9103 36.3999 26.2878 38.0066 25.5971 39.2165C25.5617 39.2658 25.5307 39.3186 25.5048 39.3745C24.7244 40.6902 23.8601 41.5056 22.9522 41.7515C21.285 42.2038 20.3097 41.6796 19.7854 41.1605C19.1286 40.5103 18.9198 39.6007 19.0566 39.0752C19.1578 38.6863 19.008 38.2756 18.6803 38.043C18.513 37.9243 18.317 37.8648 18.121 37.8648C17.9329 37.8649 17.7448 37.9196 17.5818 38.0291ZM23.53 24.4964C23.53 23.0628 24.6962 21.8968 26.1296 21.8968C27.2221 21.8968 28.1575 22.5748 28.5417 23.5315C27.2654 23.6371 25.4721 24.0178 23.5389 24.7023C23.5336 24.6341 23.53 24.5655 23.53 24.4964ZM31.6938 55.1194C24.2744 55.1194 18.2384 49.5411 18.2384 42.6845C18.2384 42.5702 18.2414 42.4561 18.2447 42.342C18.3034 42.4074 18.3623 42.4724 18.4248 42.5344C18.981 43.085 20.0633 43.8582 21.7529 43.8582C22.2646 43.8582 22.8323 43.7872 23.4578 43.6178C24.7597 43.265 25.9139 42.3125 26.9135 40.7751C27.763 40.8155 28.6324 40.8371 29.5077 40.8371C31.9251 40.8371 34.2514 40.6822 36.4226 40.3767C36.9513 40.3024 37.3196 39.8134 37.2452 39.2847C37.1709 38.7559 36.6818 38.3877 36.1531 38.462C34.0711 38.7549 31.8352 38.9035 29.5077 38.9035C28.9802 38.9035 28.4549 38.8956 27.9352 38.8803C28.4431 37.7576 28.8997 36.4454 29.3027 34.9426C30.3322 31.1037 30.7658 26.76 30.6619 24.4531C30.6619 24.4526 30.6618 24.4521 30.6618 24.4515C30.6374 21.9726 28.6143 19.9632 26.1296 19.9632C23.6299 19.9632 21.5964 21.9968 21.5964 24.4964C21.5964 24.8152 21.6298 25.1285 21.6946 25.435C18.453 26.8692 15.1546 29.1388 13.4496 32.3706C13.0746 33.0814 12.6495 34.0305 12.4093 35.0359C11.0357 34.1966 9.87685 33.2394 8.93764 32.1652C9.03174 32.1947 9.12958 32.2112 9.22832 32.2112C9.42774 32.2112 9.62896 32.1498 9.8017 32.0223C10.6382 31.4048 13.0315 30.2075 14.1565 29.9089C14.6726 29.7717 14.9798 29.2423 14.8428 28.7263C14.7058 28.2102 14.1758 27.9034 13.6603 28.04C12.2769 28.4075 9.66699 29.7185 8.65354 30.4666C8.37459 30.6726 8.23936 31 8.26502 31.3221C6.70758 29.1914 5.92113 26.654 5.92113 23.7264C5.92113 13.0509 16.5022 4.36578 29.508 4.36578C42.5137 4.36578 53.0949 13.0509 53.0949 23.7263C53.0949 27.8031 51.4915 32.9803 44.5036 36.1606C44.4579 36.1753 44.4124 36.1924 44.368 36.2144C44.3451 36.2257 44.3233 36.2386 44.3016 36.2515C43.16 36.7573 41.8787 37.211 40.4403 37.5987C40.0086 37.7151 39.7254 38.1063 39.726 38.5331C39.4535 38.6649 39.1933 38.8268 38.9507 39.02C38.0952 39.7012 37.5563 40.6748 37.433 41.7613C37.3099 42.8479 37.6173 43.9174 38.2984 44.7724C38.8932 45.5193 38.978 46.1138 38.5508 46.5393C37.7445 47.3423 36.2324 46.7893 35.169 45.9354C33.4084 44.5225 30.8269 44.8054 29.414 46.5657C28.7295 47.4183 28.4182 48.4866 28.5372 49.5735C28.6561 50.6605 29.1914 51.6361 30.0442 52.3205C31.5421 53.5228 33.157 54.351 34.8109 54.7814C33.7969 55.0037 32.7522 55.1194 31.6938 55.1194ZM44.7781 39.7709C44.7525 39.7381 44.7288 39.7049 44.7029 39.6724C44.3678 39.2514 43.9615 38.9075 43.506 38.6516C43.7769 38.552 44.0428 38.4488 44.3047 38.3426C44.4941 38.8109 44.6521 39.2872 44.7781 39.7709ZM40.5223 62.836C40.2736 63.3567 39.837 63.7493 39.2932 63.9415C39.0593 64.0242 38.8171 64.066 38.573 64.066C37.6595 64.066 36.841 63.4869 36.5364 62.6249C35.6823 60.2089 35.1674 58.3469 34.9127 56.7358C36.3676 56.4465 37.7703 55.9613 39.0808 55.2904C39.2438 57.0995 39.9205 59.2364 40.6094 61.1849C40.802 61.729 40.7709 62.3154 40.5223 62.836ZM41.6216 52.022C41.6211 52.0223 41.6205 52.0227 41.62 52.0229C40.9323 52.4454 40.1741 52.7629 39.3759 52.9589C39.3641 52.9615 39.3523 52.9641 39.3406 52.9672C38.7262 53.1152 38.0894 53.1928 37.445 53.1928C35.3347 53.1926 33.1941 52.3696 31.2542 50.8127C30.8042 50.4515 30.5218 49.9366 30.4591 49.3631C30.3964 48.7895 30.5607 48.2259 30.9218 47.7758C31.3479 47.2448 31.9755 46.9686 32.6086 46.9686C33.0831 46.9686 33.5606 47.1238 33.9587 47.4432C36.4162 49.416 38.7211 49.0986 39.9154 47.9091C40.8193 47.0088 41.2664 45.3954 39.811 43.5678C39.4516 43.1164 39.2894 42.552 39.3544 41.9788C39.4193 41.4054 39.7037 40.8916 40.155 40.5322C40.6066 40.1727 41.1713 40.0104 41.7442 40.0756C42.3175 40.1406 42.8311 40.425 43.1905 40.8764C45.7705 44.1163 45.6777 48.2669 42.9644 50.9698C42.561 51.3716 42.1086 51.7226 41.6216 52.022ZM62.5609 53.3597C62.3722 53.5605 62.1165 53.6711 61.8409 53.6711C61.5889 53.6711 61.3488 53.576 61.165 53.4033C59.6671 51.9956 57.9535 51.2401 55.9257 51.0933C53.9842 50.953 51.7387 51.3807 49.0595 52.4012C47.2376 53.0952 45.5692 53.1783 43.9981 52.6524C44.1107 52.5509 44.2212 52.4469 44.3286 52.3398C44.7586 51.9114 45.1371 51.455 45.4641 50.9765C46.3556 51.0932 47.3089 50.9542 48.3564 50.5552C54.4193 48.2456 59.0514 48.7062 62.5172 51.9638C62.7096 52.1444 62.8199 52.3892 62.8282 52.6528C62.8365 52.9165 62.7415 53.1676 62.5609 53.3597ZM13.1323 24.703C11.7135 24.5157 8.80088 24.7333 7.57847 25.0387C7.06053 25.1682 6.74548 25.693 6.8749 26.2111C6.98473 26.6504 7.37892 26.9438 7.81217 26.9438C7.88977 26.9438 7.96866 26.9344 8.04742 26.9147C9.05624 26.6624 11.7256 26.4672 12.8789 26.62C13.4089 26.6901 13.8942 26.3176 13.964 25.7882C14.034 25.2587 13.6616 24.773 13.1323 24.703ZM39.3805 26.62C40.5343 26.4675 43.2032 26.6624 44.212 26.9147C44.2908 26.9343 44.3696 26.9438 44.4473 26.9438C44.8804 26.9438 45.2746 26.6505 45.3844 26.2111C45.5139 25.693 45.1989 25.1682 44.6809 25.0387C43.4585 24.7331 40.5459 24.5153 39.1271 24.703C38.5977 24.773 38.2254 25.2587 38.2953 25.7882C38.3653 26.3174 38.851 26.6897 39.3805 26.62ZM38.103 29.909C39.2279 30.2077 41.6213 31.4049 42.4578 32.0224C42.6305 32.1499 42.8317 32.2114 43.0311 32.2114C43.3275 32.2114 43.6201 32.0755 43.8097 31.8187C44.1268 31.3892 44.0357 30.7839 43.6061 30.4668C42.5926 29.7186 39.9828 28.4075 38.5994 28.0401C38.0834 27.9035 37.5538 28.2104 37.4168 28.7264C37.2798 29.2424 37.587 29.7718 38.103 29.909Z" fill="#151515"/>
</g>
<defs>
<clipPath id="clip0_716_16482">
<rect width="66" height="66" fill="white"/>
</clipPath>
</defs>
</svg>
