<svg width="375" height="812" viewBox="0 0 375 812" fill="none" xmlns="http://www.w3.org/2000/svg">
<g clip-path="url(#clip0_142_7994)">
<g clip-path="url(#clip1_142_7994)">
<path d="M166.285 735.892C174.92 736.516 181.835 728.292 181.485 718.527C181.152 709.223 174.395 701.888 166.419 702.172C158.445 702.458 152.229 710.259 152.562 719.562C152.887 728.629 159.054 735.369 166.285 735.892Z" fill="#696A69" fill-opacity="0.05"/>
<path d="M122.348 723.049C115.079 726.681 112.465 735.644 116.112 742.941C119.791 750.302 128.55 753.5 135.765 749.893C143.033 746.261 145.647 737.298 142 730.001C138.349 722.696 129.609 719.419 122.348 723.049Z" fill="#696A69" fill-opacity="0.05"/>
<path d="M199.292 720.656C192.155 724.223 189.357 733.147 193.057 740.548C198.754 752.232 216.004 751.711 219.937 738.87C223.758 726.633 210.785 714.895 199.292 720.656Z" fill="#696A69" fill-opacity="0.05"/>
<path d="M194.122 766.453C191.077 755.706 179.793 747.442 168.621 747.79L167.215 747.834C156.051 748.181 145.297 757.124 142.924 768.046L142.484 770.073C141.577 774.25 142.625 778.531 145.359 781.816C148.085 785.108 152.163 786.919 156.385 786.778C160.486 786.651 164.289 784.723 166.816 781.491L168.485 779.357C168.694 779.09 169.091 779.081 169.313 779.331L171.111 781.357C176.714 787.891 187.591 787.392 192.548 780.348C195.072 776.898 195.852 772.561 194.687 768.449L194.122 766.453Z" fill="#696A69" fill-opacity="0.05"/>
<path d="M243.015 658.864C249.665 653.921 252.245 644.121 248.88 636.541C245.181 628.21 235.712 625.724 228.398 631.159C221.748 636.102 219.168 645.902 222.533 653.483C226.233 661.816 235.703 664.298 243.015 658.864Z" fill="#696A69" fill-opacity="0.05"/>
<path d="M278.416 658.717C272.121 653.579 262.876 654.871 257.718 661.19C252.485 667.599 253.257 676.919 259.438 681.965C265.735 687.105 274.977 685.814 280.137 679.492L280.137 679.492C285.301 673.167 284.705 663.851 278.416 658.717Z" fill="#696A69" fill-opacity="0.05"/>
<path d="M184.892 662.755C191.075 667.802 200.36 666.69 205.591 660.282L205.591 660.282C217.561 644.346 196.372 627.07 183.171 641.98C177.939 648.389 178.711 657.709 184.892 662.755Z" fill="#696A69" fill-opacity="0.05"/>
<path d="M248.455 700.179C249.436 688.393 240.773 675.981 229.205 673.058C228.558 672.999 221.106 670.019 211.299 674.29C205.86 676.658 201.447 680.577 198.871 685.324L197.881 687.146C195.843 690.904 195.652 695.307 197.359 699.226C200.889 707.332 210.961 710.014 218.052 704.911C218.086 704.887 220.285 703.304 220.251 703.328C220.524 703.132 220.909 703.232 221.053 703.536L222.213 705.983C223.437 708.567 225.412 710.675 227.923 712.079C229.714 713.081 231.651 713.652 233.614 713.793C241.151 714.338 248.397 708.461 248.457 700.179L248.455 700.179Z" fill="#696A69" fill-opacity="0.05"/>
</g>
<g clip-path="url(#clip2_142_7994)">
<path d="M90.9867 561.735C99.6435 561.636 105.848 552.863 104.683 543.161C103.574 533.918 96.2274 527.172 88.3039 528.122C80.3817 529.073 74.8387 537.366 75.948 546.609C77.0285 555.617 83.7372 561.818 90.9867 561.735Z" fill="#696A69" fill-opacity="0.05"/>
<path d="M46.1301 552.607C39.1902 556.834 37.3339 565.984 41.5781 572.951C45.8586 579.979 54.8548 582.434 61.7429 578.237C68.6824 574.01 70.5387 564.861 66.2949 557.894C62.0465 550.919 53.0626 548.384 46.1301 552.607Z" fill="#696A69" fill-opacity="0.05"/>
<path d="M122.606 543.795C115.791 547.946 113.749 557.072 118.054 564.138C124.707 575.305 141.853 573.346 144.7 560.221C147.485 547.707 133.577 537.094 122.606 543.795Z" fill="#696A69" fill-opacity="0.05"/>
<path d="M121.279 589.864C117.347 579.409 105.412 572.117 94.3085 573.396L92.9114 573.557C81.8149 574.836 71.8456 584.646 70.3938 595.728L70.1244 597.784C69.5693 602.023 70.971 606.201 73.9704 609.247C76.9621 612.299 81.1767 613.764 85.372 613.27C89.4484 612.801 93.0767 610.562 95.3255 607.13L96.8098 604.865C96.996 604.58 97.3907 604.539 97.6333 604.769L99.5942 606.638C105.723 612.681 116.521 611.275 120.871 603.842C123.099 600.193 123.513 595.806 122.009 591.805L121.279 589.864Z" fill="#696A69" fill-opacity="0.05"/>
<path d="M161.014 478.566C167.228 473.086 168.98 463.104 164.993 455.831C160.612 447.839 150.967 446.152 144.134 452.18C137.92 457.66 136.168 467.642 140.154 474.915C144.537 482.91 154.181 484.592 161.014 478.566Z" fill="#696A69" fill-opacity="0.05"/>
<path d="M196.279 475.462C189.577 470.868 180.472 472.928 175.859 479.656C171.181 486.48 172.728 495.703 179.31 500.215C186.013 504.811 195.115 502.752 199.73 496.021L199.729 496.021C204.347 489.287 202.975 480.053 196.279 475.462Z" fill="#696A69" fill-opacity="0.05"/>
<path d="M103.419 487.3C110.002 491.812 119.161 489.929 123.839 483.106L123.84 483.106C134.436 466.226 111.877 450.78 99.9685 466.741C95.2903 473.565 96.8379 482.788 103.419 487.3Z" fill="#696A69" fill-opacity="0.05"/>
<path d="M169.886 519.283C169.879 507.456 160.21 495.811 148.438 493.864C147.788 493.859 140.113 491.512 130.697 496.587C125.475 499.401 121.405 503.675 119.234 508.621L118.4 510.52C116.683 514.434 116.861 518.838 118.889 522.601C123.084 530.384 133.345 532.215 139.985 526.538C140.017 526.51 142.076 524.75 142.044 524.777C142.299 524.558 142.692 524.625 142.861 524.916L144.221 527.259C145.657 529.731 147.801 531.667 150.42 532.856C152.288 533.705 154.267 534.112 156.235 534.089C163.791 534.002 170.52 527.541 169.888 519.282L169.886 519.283Z" fill="#696A69" fill-opacity="0.05"/>
</g>
<g clip-path="url(#clip3_142_7994)">
<path d="M64.5828 354.51C73.1187 355.955 80.7871 348.429 81.3709 338.675C81.927 329.382 75.9004 321.435 67.9344 320.958C59.9696 320.481 53.0371 327.654 52.4811 336.946C51.9386 346.002 57.4345 353.3 64.5828 354.51Z" fill="#696A69" fill-opacity="0.05"/>
<path d="M22.0716 337.533C14.4894 340.455 11.0319 349.127 13.9662 356.739C16.9254 364.417 25.3399 368.437 32.8658 365.535C40.4476 362.613 43.9051 353.941 40.9711 346.329C38.0339 338.709 29.6459 334.613 22.0716 337.533Z" fill="#696A69" fill-opacity="0.05"/>
<path d="M98.8932 342.494C91.448 345.364 87.8119 353.979 90.7879 361.699C95.3441 373.874 112.565 375.002 117.705 362.595C122.677 350.778 110.883 337.855 98.8932 342.494Z" fill="#696A69" fill-opacity="0.05"/>
<path d="M89.3759 387.588C87.3705 376.6 76.9269 367.297 65.7728 366.577L64.3693 366.486C53.2226 365.766 41.6643 373.642 38.2603 384.288L37.6287 386.263C36.3269 390.335 36.9615 394.696 39.3699 398.228C41.7696 401.765 45.6556 403.957 49.8717 404.219C53.9665 404.484 57.9357 402.928 60.7604 399.951L62.6247 397.987C62.8585 397.741 63.2543 397.77 63.4519 398.04L65.0483 400.229C70.0021 407.267 80.8771 407.808 86.4833 401.27C89.3254 398.077 90.5152 393.834 89.7479 389.629L89.3759 387.588Z" fill="#696A69" fill-opacity="0.05"/>
<path d="M148.313 285.156C155.405 280.871 158.908 271.361 156.281 263.494C153.395 254.849 144.206 251.47 136.407 256.183C129.316 260.468 125.812 269.978 128.439 277.845C131.326 286.493 140.516 289.867 148.313 285.156Z" fill="#696A69" fill-opacity="0.05"/>
<path d="M183.567 288.388C177.791 282.672 168.465 283.076 162.727 288.874C156.907 294.755 156.785 304.106 162.457 309.719C168.234 315.436 177.558 315.033 183.298 309.232L183.298 309.232C189.042 303.429 189.338 294.099 183.567 288.388Z" fill="#696A69" fill-opacity="0.05"/>
<path d="M90.0842 283.483C95.757 289.097 105.106 288.876 110.925 282.996L110.925 282.996C124.361 268.276 104.917 249.056 90.3536 262.638C84.5339 268.519 84.4128 277.87 90.0842 283.483Z" fill="#696A69" fill-opacity="0.05"/>
<path d="M149.786 326.802C151.887 315.163 144.448 301.981 133.212 297.967C132.573 297.847 125.44 294.169 115.27 297.485C109.63 299.323 104.863 302.803 101.846 307.282L100.687 309.002C98.2989 312.548 97.6892 316.913 99.0142 320.977C101.755 329.383 111.525 333.014 119.07 328.611C119.106 328.59 121.446 327.224 121.41 327.245C121.7 327.075 122.075 327.212 122.189 327.528L123.11 330.075C124.082 332.764 125.846 335.051 128.212 336.688C129.899 337.856 131.773 338.609 133.714 338.938C141.164 340.199 148.938 335.041 149.788 326.802L149.786 326.802Z" fill="#696A69" fill-opacity="0.05"/>
</g>
<g clip-path="url(#clip4_142_7994)">
<path d="M338.134 807.763C339.789 815.718 347.785 820.536 355.771 818.875C363.872 817.191 369.141 809.465 367.517 801.652C365.862 793.695 357.869 788.878 349.879 790.54L349.879 790.54C341.885 792.202 336.482 799.814 338.134 807.763Z" fill="#696A69" fill-opacity="0.05"/>
<path d="M387.518 794.419C379.335 802.957 378.249 818.054 385.394 827.609C385.86 828.063 389.772 835.07 400.08 837.928C405.797 839.513 411.693 839.248 416.683 837.182L418.599 836.389C422.549 834.754 425.47 831.453 426.612 827.334C428.974 818.813 422.838 810.388 414.116 809.887C414.074 809.885 411.369 809.73 411.411 809.732C411.075 809.713 410.839 809.393 410.919 809.066L411.559 806.434C412.235 803.656 412.028 800.775 410.962 798.103C410.201 796.198 409.055 794.534 407.62 793.188C402.108 788.019 392.778 788.021 387.517 794.418L387.518 794.419Z" fill="#696A69" fill-opacity="0.05"/>
</g>
<g clip-path="url(#clip5_142_7994)">
<path d="M137.131 124.115L140.72 123.443C137.584 98.871 154.182 75.7426 178.837 71.1241C193.878 68.3066 209.504 68.7644 225.403 72.4762C226.105 62.8418 233.209 54.4851 243.139 52.6248C254.958 50.4109 266.374 58.225 268.588 70.0436L271.711 86.7156L297.62 109.255C298.975 110.434 299.724 112.162 299.659 113.957C299.628 114.815 298.563 135.02 269.283 140.505L185.106 156.273C166.067 159.84 150.573 148.952 143.994 134.931L139.321 135.806C128.791 137.779 121.83 147.95 123.802 158.479C125.774 169.009 135.945 175.97 146.475 173.998L199.475 164.07C202.703 163.465 205.81 165.592 206.415 168.82C207.02 172.049 204.893 175.156 201.665 175.761L148.665 185.689C131.689 188.869 115.291 177.645 112.111 160.669C108.931 143.693 120.155 127.295 137.131 124.115ZM262.322 111.958C265.551 111.354 267.678 108.246 267.073 105.018C266.468 101.789 263.361 99.6625 260.132 100.267C256.904 100.872 254.777 103.979 255.382 107.208C255.987 110.436 259.094 112.563 262.322 111.958Z" fill="#696A69" fill-opacity="0.05"/>
</g>
</g>
<defs>
<clipPath id="clip0_142_7994">
<rect width="375" height="812" fill="white"/>
</clipPath>
<clipPath id="clip1_142_7994">
<rect width="164" height="164" fill="white" transform="translate(122.828 620) rotate(4.13574)"/>
</clipPath>
<clipPath id="clip2_142_7994">
<rect width="164" height="164" fill="white" transform="translate(38 449.878) rotate(-0.656188)"/>
</clipPath>
<clipPath id="clip3_142_7994">
<rect width="164" height="164" fill="white" transform="translate(32.3833 235) rotate(9.61178)"/>
</clipPath>
<clipPath id="clip4_142_7994">
<rect width="164" height="164" fill="white" transform="translate(434.624 935.812) rotate(-136.837)"/>
</clipPath>
<clipPath id="clip5_142_7994">
<rect width="203" height="203" fill="white" transform="matrix(-0.982904 0.184119 0.184119 0.982904 271.53 -37)"/>
</clipPath>
</defs>
</svg>
