<svg width="68" height="68" viewBox="0 0 68 68" fill="none" xmlns="http://www.w3.org/2000/svg">
<g clip-path="url(#clip0_19_725)">
<path d="M63.9399 7.09856C65.6251 7.09856 66.9911 5.73248 66.9911 4.04733C66.9911 2.36218 65.6251 0.996094 63.9399 0.996094C62.2548 0.996094 60.8887 2.36218 60.8887 4.04733C60.8887 5.73248 62.2548 7.09856 63.9399 7.09856Z" fill="#82C7E6"/>
<path opacity="0.4" d="M64.9095 4.04791C65.4448 4.04791 65.8787 3.61395 65.8787 3.07864C65.8787 2.54333 65.4448 2.10938 64.9095 2.10938C64.3741 2.10938 63.9402 2.54333 63.9402 3.07864C63.9402 3.61395 64.3741 4.04791 64.9095 4.04791Z" fill="white"/>
<path d="M34.1367 15.1621C38.0485 15.1621 41.2196 11.991 41.2196 8.07923C41.2196 4.16746 38.0485 0.996338 34.1367 0.996338C30.2249 0.996338 27.0538 4.16746 27.0538 8.07923C27.0538 11.991 30.2249 15.1621 34.1367 15.1621Z" fill="#82C7E6"/>
<path opacity="0.4" d="M32.3358 7.5447C33.6237 7.5447 34.6678 6.50067 34.6678 5.21278C34.6678 3.9249 33.6237 2.88086 32.3358 2.88086C31.0479 2.88086 30.0039 3.9249 30.0039 5.21278C30.0039 6.50067 31.0479 7.5447 32.3358 7.5447Z" fill="white"/>
<path d="M3.35205 59.6244C2.73859 59.6244 2.14159 59.3066 1.81195 58.7373C0.403742 56.3063 0.898868 53.5055 3.04392 51.7676C5.33852 49.909 8.57198 50.0827 10.9075 52.1905C11.8356 53.0281 12.7279 53.4021 13.6335 53.3329C15.6917 53.1765 17.8236 50.8402 19.2481 49.0965C19.8693 48.3361 20.9893 48.2232 21.7498 48.8444C22.5103 49.4657 22.623 50.5857 22.0018 51.3462C20.0078 53.787 17.2853 56.6216 13.9028 56.8786C12.0011 57.0235 10.1914 56.3341 8.52523 54.8304C7.26391 53.6922 5.9901 53.9577 5.28234 54.5309C4.99534 54.7633 4.11864 55.6254 4.88895 56.9551C5.38116 57.8049 5.09136 58.8926 4.24163 59.3848C3.96099 59.5471 3.65446 59.6244 3.35205 59.6244Z" fill="#EDA751"/>
<path d="M1.81196 58.7375C2.1416 59.3066 2.73859 59.6245 3.35205 59.6245C3.65446 59.6245 3.96113 59.5472 4.24163 59.3848C5.09136 58.8926 5.38116 57.8048 4.88896 56.9551C4.67832 56.5915 4.59132 56.2632 4.58136 55.9728C3.02095 55.8522 1.8344 56.3836 1.12292 56.9348C1.24458 57.5437 1.47235 58.1514 1.81196 58.7375Z" fill="#FCD79D"/>
<path d="M13.0685 48.7499C9.40949 48.7499 4.64418 47.5112 1.75405 43.6558C0.811743 42.3987 1.06701 40.6157 2.32408 39.6733C3.58128 38.7311 5.36416 38.9864 6.30659 40.2433C8.39733 43.0326 12.8371 43.3489 14.7496 42.8981C16.279 42.5382 17.8107 43.4852 18.171 45.0145C18.5313 46.5437 17.584 48.0754 16.0546 48.4358C15.2238 48.6316 14.1984 48.7499 13.0685 48.7499Z" fill="#EDA751"/>
<path d="M32.0602 67.0041C31.9037 67.0041 31.7454 66.9912 31.5859 66.9643C30.0365 66.7043 28.9913 65.2374 29.2513 63.688C29.8722 59.9885 29.4182 58.032 28.9371 55.9607C28.8853 55.7377 28.8343 55.5175 28.7852 55.2985C28.4416 53.7654 29.4058 52.2441 30.939 51.9005C32.4716 51.557 33.9933 52.5212 34.337 54.0542C34.383 54.2592 34.4308 54.4652 34.4792 54.6739C35.0104 56.9617 35.6715 59.8089 34.8623 64.6296C34.6291 66.0198 33.4243 67.0041 32.0602 67.0041Z" fill="#EDA751"/>
<path d="M22.2373 67.0041C22.0809 67.0041 21.9224 66.9912 21.763 66.9643C20.2137 66.7043 19.1684 65.2374 19.4285 63.688C20.0494 59.9885 19.5953 58.032 19.1142 55.9607C19.0624 55.7377 19.0114 55.5175 18.9623 55.2985C18.6187 53.7654 19.5829 52.2441 21.1161 51.9005C22.649 51.557 24.1704 52.5212 24.5141 54.0542C24.5601 54.2592 24.6079 54.4652 24.6564 54.6739C25.1875 56.9617 25.8486 59.8089 25.0395 64.6296C24.806 66.0198 23.6013 67.0041 22.2373 67.0041Z" fill="#EDA751"/>
<path d="M41.1051 49.2494C39.4472 49.2494 37.7391 48.9372 36.0419 48.226C34.5929 47.6189 33.9105 45.952 34.5176 44.503C35.1247 43.054 36.7919 42.3715 38.2406 42.9787C40.8496 44.0717 44.8285 43.7254 47.8366 40.4865C48.9057 39.3352 50.7057 39.2688 51.8568 40.338C53.008 41.4071 53.0745 43.207 52.0054 44.3582C49.4617 47.0973 45.4569 49.2494 41.1051 49.2494Z" fill="#EDA751"/>
<path opacity="0.2" d="M21.7496 48.8442C20.9891 48.223 19.8691 48.3359 19.2479 49.0962C17.8234 50.8399 15.6916 53.1762 13.6333 53.3327C13.3477 53.3545 13.0635 53.332 12.7792 53.2651C13.4346 54.4964 14.2672 55.6302 15.246 56.6363C18.0121 55.8559 20.2791 53.4546 22.0018 51.3458C22.6228 50.5856 22.5101 49.4655 21.7496 48.8442Z" fill="#A35F00"/>
<path opacity="0.2" d="M42.1531 43.4764C40.7207 43.6483 39.3555 43.4455 38.2408 42.9784C36.7921 42.3712 35.1249 43.0536 34.5178 44.5027C33.9106 45.9517 34.593 47.6186 36.0421 48.2257C37.7393 48.9369 39.4473 49.2491 41.1053 49.2491C41.5049 49.2491 41.9017 49.2307 42.2947 49.1956C42.4453 48.3756 42.5247 47.5329 42.5247 46.673C42.5244 45.5755 42.3955 44.5061 42.1531 43.4764Z" fill="#A35F00"/>
<path opacity="0.2" d="M35.2048 59.158C35.0982 57.3427 34.7696 55.9243 34.4792 54.6739C34.4308 54.4652 34.383 54.2592 34.337 54.0542C33.9933 52.5211 32.4718 51.557 30.939 51.9005C29.4058 52.2441 28.4416 53.7654 28.7852 55.2985C28.8343 55.5175 28.8854 55.7377 28.9371 55.9607C29.2985 57.517 29.6446 59.0086 29.531 61.2233C31.5865 60.8859 33.5055 60.1713 35.2048 59.158Z" fill="#A35F00"/>
<path opacity="0.2" d="M24.514 54.0542C24.1704 52.5211 22.6489 51.557 21.116 51.9005C19.5828 52.2441 18.6186 53.7654 18.9622 55.2985C19.0113 55.5175 19.0624 55.7377 19.1141 55.9607C19.395 57.1702 19.6662 58.3411 19.7201 59.8421C21.4519 60.6725 23.3682 61.2085 25.3944 61.3816C25.5279 58.4294 25.0555 56.3935 24.6561 54.6739C24.6078 54.4652 24.56 54.2591 24.514 54.0542Z" fill="#A35F00"/>
<path opacity="0.2" d="M14.7496 42.8979C13.9992 43.0748 12.8596 43.1326 11.6256 42.9703C11.2997 44.1541 11.126 45.3948 11.126 46.673C11.126 47.344 11.1747 48.0043 11.2673 48.6519C11.8874 48.7188 12.4917 48.7498 13.0685 48.7498C14.1985 48.7498 15.2238 48.6314 16.0548 48.4357C17.584 48.0752 18.5315 46.5434 18.1711 45.0143C17.8106 43.4851 16.279 42.5379 14.7496 42.8979Z" fill="#A35F00"/>
<path d="M26.8254 58.8653C34.0717 58.8653 39.9459 53.4067 39.9459 46.6731C39.9459 39.9396 34.0717 34.481 26.8254 34.481C19.5791 34.481 13.7048 39.9396 13.7048 46.6731C13.7048 53.4067 19.5791 58.8653 26.8254 58.8653Z" fill="#FCD690"/>
<path opacity="0.15" d="M24.9091 58.7353C18.9133 54.7989 20.7714 46.7308 21.7893 43.2025V35.4119C17.0423 37.2469 13.7043 41.5975 13.7043 46.673C13.7043 52.8017 18.571 57.8735 24.9091 58.7353Z" fill="#C17A00"/>
<path d="M18.8404 25.5318C21.4078 23.3775 23.122 19.761 19.5006 14.4148C15.8507 9.02644 10.4164 7.67573 6.17383 8.17551C5.12794 8.29876 4.25031 9.03507 3.94723 10.0438C2.71832 14.1351 3.1048 19.7213 7.77755 24.2515C12.4138 28.7463 16.2729 27.6862 18.8404 25.5318Z" fill="#EDA751"/>
<path d="M3.77655 10.6699C2.76904 14.6925 3.33867 19.9481 7.77766 24.2516C11.7962 28.1475 15.2302 27.8691 17.7459 26.3232C16.0156 14.5774 8.45727 11.4627 3.77655 10.6699Z" fill="#FF91AB"/>
<path d="M34.81 25.5318C32.2426 23.3775 30.5284 19.761 34.1498 14.4148C37.7997 9.02631 43.234 7.67574 47.4766 8.17551C48.5225 8.29876 49.4001 9.03507 49.7032 10.0438C50.9321 14.1351 50.5456 19.7213 45.8729 24.2515C41.2366 28.7463 37.3775 27.6862 34.81 25.5318Z" fill="#EDA751"/>
<path d="M49.8739 10.6699C50.8814 14.6925 50.3118 19.9481 45.8728 24.2516C41.8543 28.1475 38.4203 27.8691 35.9044 26.3232C37.6347 14.5774 45.1931 11.4627 49.8739 10.6699Z" fill="#FF91AB"/>
<path d="M49.163 28.7835C49.163 38.997 39.162 43.4704 26.8252 43.4704C14.4884 43.4704 4.48718 38.997 4.48718 28.7835C4.48718 18.5699 14.4882 10.2903 26.8252 10.2903C39.1621 10.2903 49.163 18.5699 49.163 28.7835Z" fill="#FFDC9C"/>
<path opacity="0.15" d="M14.8978 13.1455C8.64181 16.4228 4.4873 22.2011 4.4873 28.7834C4.4873 37.5632 11.8778 42.1013 21.7895 43.2023C7.56152 34.7038 9.41704 23.2722 14.8978 13.1455Z" fill="#C17A00"/>
<path d="M19.8181 32.4355C22.0518 32.4355 23.8626 30.9936 23.8626 29.2148C23.8626 27.4361 22.0518 25.9941 19.8181 25.9941C17.5844 25.9941 15.7736 27.4361 15.7736 29.2148C15.7736 30.9936 17.5844 32.4355 19.8181 32.4355Z" fill="#FF91AB"/>
<path d="M41.7402 32.4355C43.974 32.4355 45.7848 30.9936 45.7848 29.2148C45.7848 27.4361 43.974 25.9941 41.7402 25.9941C39.5065 25.9941 37.6957 27.4361 37.6957 29.2148C37.6957 30.9936 39.5065 32.4355 41.7402 32.4355Z" fill="#FF91AB"/>
<path d="M53.2243 37.1086H49.7791V42.7066C49.7791 43.6579 50.5503 44.4291 51.5016 44.4291C52.453 44.4291 53.2242 43.6579 53.2242 42.7066V37.1086H53.2243Z" fill="#B77866"/>
<path d="M51.502 38.0018C53.7436 38.0018 55.5607 36.1846 55.5607 33.943C55.5607 31.7014 53.7436 29.8843 51.502 29.8843C49.2604 29.8843 47.4432 31.7014 47.4432 33.943C47.4432 36.1846 49.2604 38.0018 51.502 38.0018Z" fill="#82C7E6"/>
<path d="M60.8879 29.8846C63.8214 29.8846 66.1994 27.5065 66.1994 24.573C66.1994 21.6395 63.8214 19.2615 60.8879 19.2615C57.9544 19.2615 55.5763 21.6395 55.5763 24.573C55.5763 27.5065 57.9544 29.8846 60.8879 29.8846Z" fill="#82C7E6"/>
<path opacity="0.4" d="M62.5002 24.4598C63.4683 24.4598 64.253 23.675 64.253 22.707C64.253 21.7389 63.4683 20.9541 62.5002 20.9541C61.5321 20.9541 60.7473 21.7389 60.7473 22.707C60.7473 23.675 61.5321 24.4598 62.5002 24.4598Z" fill="white"/>
<path d="M52.842 18.5659C56.7538 18.5659 59.9249 15.3948 59.9249 11.483C59.9249 7.57126 56.7538 4.40015 52.842 4.40015C48.9303 4.40015 45.7592 7.57126 45.7592 11.483C45.7592 15.3948 48.9303 18.5659 52.842 18.5659Z" fill="#82C7E6"/>
<path opacity="0.4" d="M54.7041 11.4661C55.992 11.4661 57.036 10.4221 57.036 9.13417C57.036 7.84628 55.992 6.80225 54.7041 6.80225C53.4162 6.80225 52.3722 7.84628 52.3722 9.13417C52.3722 10.4221 53.4162 11.4661 54.7041 11.4661Z" fill="white"/>
<path d="M30.7792 29.5471C31.7793 29.5471 32.5901 28.4505 32.5901 27.0978C32.5901 25.745 31.7793 24.6484 30.7792 24.6484C29.779 24.6484 28.9683 25.745 28.9683 27.0978C28.9683 28.4505 29.779 29.5471 30.7792 29.5471Z" fill="#FF91AB"/>
<path d="M63.9396 8.09481C66.1714 8.09481 67.9869 6.27912 67.9869 4.04734C67.9869 1.81555 66.1712 0 63.9396 0C61.7078 0 59.8921 1.81555 59.8921 4.04734C59.8921 6.27912 61.7078 8.09481 63.9396 8.09481ZM63.9396 1.99219C65.0727 1.99219 65.9947 2.91418 65.9947 4.04734C65.9947 5.18063 65.0727 6.10261 63.9396 6.10261C62.8063 6.10261 61.8843 5.18063 61.8843 4.04734C61.8843 2.91418 62.8063 1.99219 63.9396 1.99219ZM18.7087 29.5396C19.2553 29.6118 19.7548 29.2278 19.8269 28.6825C19.8989 28.1372 19.5153 27.6365 18.9699 27.5645C17.6676 27.3925 14.995 27.5921 13.8737 27.8725C13.3399 28.0058 13.0155 28.5468 13.1489 29.0804C13.2621 29.533 13.6682 29.8352 14.1145 29.8352C14.1944 29.8352 14.2757 29.8255 14.3569 29.8052C15.2455 29.583 17.6906 29.4046 18.7087 29.5396ZM51.5015 28.8885C51.035 28.8885 50.5835 28.9533 50.1544 29.0722C50.1561 28.976 50.1592 28.88 50.1592 28.7836C50.1592 26.524 49.7026 24.3252 48.8276 22.259C49.4755 21.2848 49.9992 20.2546 50.3953 19.1821C51.1675 19.4281 51.9894 19.5619 52.8422 19.5619C57.297 19.5619 60.9213 15.9375 60.9213 11.4827C60.9213 7.02792 57.297 3.40359 52.8422 3.40359C50.0078 3.40359 47.5113 4.87197 46.069 7.08676C45.0172 7.07095 43.6736 7.16153 42.195 7.52517C41.9087 3.32802 38.4051 0 34.1367 0C29.6819 0 26.0575 3.62433 26.0575 8.07927C26.0575 8.49019 26.0897 8.89899 26.1516 9.303C23.203 9.37233 20.3467 9.89707 17.6991 10.8355C14.5354 8.01007 10.3295 6.68327 6.05727 7.18637C4.61399 7.35637 3.41137 8.36561 2.99328 9.75736C1.70473 14.0473 2.37463 18.5694 4.82304 22.2585C3.94793 24.3248 3.49119 26.5238 3.49119 28.7836C3.49119 32.9945 5.06369 36.4777 8.16514 39.1358C9.52302 40.2996 11.1461 41.2782 13.0188 42.0687C12.2822 42.0654 11.4047 41.9761 10.5169 41.74C9.46644 41.4607 8.0217 40.8707 7.10357 39.6457C5.83348 37.9512 3.42133 37.6061 1.72677 38.876C0.0320835 40.1462 -0.31323 42.5584 0.957124 44.2529C3.53529 47.6924 8.06301 49.7458 13.0686 49.7458C13.0777 49.7458 13.0869 49.7454 13.0961 49.7454C13.3195 50.6167 13.6357 51.4545 14.0344 52.2493C13.8683 52.298 13.7091 52.3281 13.5575 52.3397C12.9383 52.3868 12.2899 52.0963 11.5748 51.451C8.86719 49.0075 5.10141 48.8193 2.41687 50.9937C-0.124104 53.0523 -0.71366 56.3648 0.949952 59.2366C1.44441 60.0902 2.36481 60.6205 3.352 60.6205C3.83836 60.6205 4.31861 60.4912 4.74096 60.2465C6.06444 59.4798 6.51746 57.7791 5.75087 56.4557C5.6405 56.2653 5.34752 55.7596 5.90918 55.3048C6.11384 55.1392 6.85892 54.6685 7.85781 55.5698C9.73472 57.2636 11.7937 58.0377 13.9782 57.8717C15.2026 57.7787 16.4334 57.3791 17.6462 56.6844C17.8842 56.8751 18.1288 57.059 18.3802 57.2349C18.7186 58.8337 18.9389 60.5881 18.4462 63.5232C18.2763 64.5349 18.5107 65.5523 19.106 66.3877C19.7014 67.2232 20.5865 67.7769 21.5981 67.9466C21.8093 67.9821 22.0243 68 22.2373 68C24.1185 68 25.7101 66.652 26.0218 64.7946C26.3167 63.0377 26.4412 61.4116 26.4044 59.8549C26.5443 59.8587 26.6844 59.8612 26.8253 59.8612C27.4061 59.8612 27.9787 59.8276 28.5413 59.7636C28.5913 60.9111 28.503 62.1301 28.2691 63.523C28.0993 64.5348 28.3337 65.5521 28.929 66.3875C29.5243 67.2231 30.4094 67.7767 31.421 67.9465C31.6322 67.9819 31.8472 67.9999 32.0603 67.9999C33.5105 67.9999 34.8205 67.1965 35.4794 65.9032C35.7291 65.4131 35.5343 64.8132 35.044 64.5635C34.554 64.3137 33.9541 64.5088 33.7044 64.9988C33.3921 65.6116 32.7468 66.0077 32.0603 66.0077C31.9575 66.0077 31.8535 65.9989 31.751 65.9818C31.2639 65.9001 30.838 65.6335 30.5515 65.2314C30.2649 64.8292 30.1522 64.3397 30.2338 63.8527C30.5097 62.2092 30.5999 60.7726 30.5157 59.403C31.7892 59.0804 32.992 58.5957 34.0964 57.9732C34.1956 58.7752 34.2656 59.7466 34.2385 60.8745C34.2254 61.4244 34.6606 61.8809 35.2106 61.8941C35.2187 61.8942 35.2268 61.8943 35.2349 61.8943C35.774 61.8943 36.2173 61.4639 36.2303 60.922C36.2723 59.171 36.1028 57.764 35.9292 56.7435C38.0581 55.0612 39.6485 52.8025 40.4208 50.2271C40.6499 50.2384 40.8786 50.2451 41.1052 50.2451C45.2847 50.2451 49.5549 48.3634 52.5765 45.2026C53.5423 44.785 54.2205 43.8237 54.2205 42.7063V38.2012C55.6238 37.3021 56.5565 35.73 56.5565 33.9432C56.5564 31.156 54.2887 28.8885 51.5015 28.8885ZM12.7555 47.7496C10.8057 47.7032 5.63466 47.1718 2.55101 43.0582C2.25484 42.663 2.13026 42.1763 2.20025 41.6874C2.27024 41.1985 2.52644 40.7663 2.92142 40.4702C3.73716 39.8588 4.89808 40.025 5.50941 40.8406C7.31567 43.2505 10.5564 44.0476 12.985 44.0621C12.8018 44.9149 12.7083 45.7868 12.7083 46.6731C12.7083 47.0355 12.7246 47.3945 12.7555 47.7496ZM52.8419 5.39565C56.1982 5.39565 58.9288 8.12628 58.9288 11.4826C58.9288 14.8389 56.1982 17.5695 52.8419 17.5695C49.4854 17.5695 46.7548 14.8389 46.7548 11.4826C46.7548 8.12628 49.4856 5.39565 52.8419 5.39565ZM48.5805 18.3421C48.3591 18.9658 48.0896 19.5746 47.7687 20.1635C46.6383 18.2502 45.124 16.4862 43.2557 14.9394C43.1597 14.86 43.0622 14.7823 42.9649 14.7045C43.5956 14.2068 44.2717 13.7619 44.988 13.3716C45.4906 15.4607 46.8058 17.2356 48.5805 18.3421ZM45.1228 9.09621C44.9115 9.77847 44.7905 10.4996 44.7689 11.2453C43.509 11.8537 42.3481 12.6073 41.3022 13.493C40.2725 12.8106 39.1834 12.2066 38.0452 11.6843C40.5469 9.76493 43.1887 9.20034 45.1228 9.09621ZM34.1367 1.99219C37.4931 1.99219 40.2237 4.72282 40.2237 8.07927C40.2237 8.10609 40.2218 8.13425 40.2214 8.16134C38.8119 8.73005 37.3499 9.58085 35.9506 10.8353C33.5075 9.96933 30.8867 9.45614 28.1799 9.32757C28.094 8.91758 28.0497 8.49988 28.0497 8.07913C28.0497 4.72282 30.7804 1.99219 34.1367 1.99219ZM6.29035 9.16488C7.95038 8.96924 11.9429 8.87867 15.6053 11.6842C14.4676 12.2062 13.379 12.8101 12.3495 13.4921C9.91973 11.4356 7.23771 10.4192 5.09039 9.91886C5.35269 9.50661 5.78912 9.22398 6.29035 9.16488ZM4.54971 11.8387C6.36141 12.2505 8.61245 13.0726 10.6849 14.7052C10.5878 14.7829 10.4904 14.8604 10.3947 14.9397C8.52679 16.4862 7.01246 18.2498 5.88222 20.1628C4.14078 16.9671 4.20227 13.8581 4.54971 11.8387ZM13.8269 55.8852C12.2072 56.0087 10.6485 55.4047 9.19231 54.0908C7.57518 52.6316 5.74834 52.8714 4.65529 53.7566C3.78524 54.4611 3.0986 55.852 4.02683 57.4543C4.24291 57.8273 4.11528 58.3067 3.74221 58.5228C3.62122 58.5927 3.49 58.6283 3.352 58.6283C3.0731 58.6283 2.81318 58.4789 2.67386 58.2381C1.50298 56.2169 1.89425 53.981 3.67089 52.5418C5.57569 50.9988 8.27697 51.1584 10.2401 52.93C11.3821 53.9606 12.5163 54.4171 13.7089 54.3261C14.1543 54.2923 14.6149 54.1791 15.0855 53.9891C15.3997 54.4277 15.7414 54.8478 16.1081 55.2473C15.341 55.6172 14.5873 55.8274 13.8269 55.8852ZM24.057 64.4649C23.9069 65.359 23.1416 66.0079 22.2372 66.0079C22.1344 66.0079 22.0304 65.9992 21.9277 65.982C21.4407 65.9004 21.0148 65.6338 20.7283 65.2317C20.4417 64.8295 20.3289 64.34 20.4106 63.8529C20.7922 61.5798 20.7809 59.9075 20.615 58.5146C21.796 59.0575 23.0693 59.4504 24.4067 59.6671C24.4599 61.1669 24.3457 62.7443 24.057 64.4649ZM24.4308 44.4097C25.2126 44.4474 26.0181 44.4665 26.8252 44.4665C31.121 44.4665 34.9549 43.9479 38.2539 42.9262C38.7159 44.1245 38.9498 45.3812 38.9498 46.6729C38.9498 52.8465 33.5107 57.869 26.8251 57.869C20.1395 57.869 14.7003 52.8465 14.7003 46.6729C14.7003 45.5213 14.8869 44.3978 15.2547 43.3185C15.2547 43.3183 15.2548 43.3182 15.2548 43.3179C15.299 43.1882 15.3451 43.0588 15.3947 42.9304C16.7163 43.3369 18.1378 43.6656 19.6561 43.9151C19.7108 43.924 19.7651 43.9284 19.8188 43.9284C20.2978 43.9284 20.7203 43.5817 20.8005 43.0936C20.8897 42.5508 20.5219 42.0384 19.9791 41.9492C18.2544 41.6659 16.6717 41.2756 15.2334 40.7828C15.1932 40.7657 15.1525 40.7511 15.1115 40.7395C12.8593 39.9539 10.9671 38.9133 9.46166 37.6231C6.82187 35.3605 5.48338 32.3864 5.48338 28.7834C5.48338 19.1355 15.0573 11.2863 26.8252 11.2863C38.3301 11.2863 47.7362 18.7889 48.1511 28.1396C48.027 28.0135 47.8686 27.9183 47.6845 27.8724C46.5632 27.5919 43.8904 27.3921 42.5883 27.5644C42.0429 27.6365 41.6593 28.137 41.7313 28.6824C41.8034 29.2278 42.3039 29.6113 42.8493 29.5394C43.8675 29.4045 46.3124 29.5828 47.2012 29.8049C47.2822 29.8252 47.3635 29.8349 47.4436 29.8349C47.71 29.8349 47.9605 29.7255 48.1446 29.5425C48.1321 29.7688 48.1148 29.9935 48.0913 30.2157C47.3696 30.8766 46.8402 31.7437 46.5966 32.7228C45.5801 32.0249 43.3592 30.9235 42.1534 30.6032C41.6216 30.4625 41.0763 30.7787 40.935 31.3103C40.7938 31.842 41.1104 32.3876 41.6421 32.5288C42.6348 32.7923 44.8274 33.8885 45.5645 34.4325C45.7425 34.5639 45.9498 34.6272 46.1553 34.6272C46.2682 34.6272 46.3804 34.6078 46.4871 34.5704C46.5006 34.6793 46.5172 34.7871 46.5377 34.8938C45.054 37.3147 42.5777 39.2033 39.1654 40.5079C35.8005 41.7943 31.5334 42.4743 26.8252 42.4743C26.0501 42.4743 25.2767 42.456 24.527 42.4197C23.9764 42.3941 23.5106 42.8171 23.484 43.3666C23.4575 43.9163 23.8814 44.3832 24.4308 44.4097ZM40.213 42.4804C40.1872 42.4087 40.1613 42.337 40.1341 42.2655C43.332 41.0012 45.7994 39.2411 47.4938 37.0185C47.8513 37.4833 48.2877 37.884 48.7829 38.2013V38.7542C48.1466 38.9503 47.57 39.3095 47.1069 39.8082C45.2163 41.844 42.6752 42.8186 40.213 42.4804ZM41.1051 48.2531C41.0174 48.2531 40.9291 48.2514 40.8408 48.2494C40.9071 47.7324 40.942 47.2064 40.942 46.6731C40.942 45.9478 40.8796 45.2322 40.7566 44.5287C40.8991 44.5353 41.0416 44.5401 41.1841 44.5401C43.8799 44.5401 46.5389 43.3476 48.5665 41.1641C48.6334 41.092 48.7065 41.0276 48.7827 40.9678V42.7065C48.7827 43.6287 49.2453 44.4439 49.9498 44.9357C47.4302 47.036 44.2346 48.2531 41.1051 48.2531ZM52.2282 42.7065C52.2282 43.107 51.9022 43.433 51.5015 43.433C51.101 43.433 50.7751 43.107 50.7751 42.7065V38.9451C51.0124 38.9795 51.2548 38.9981 51.5015 38.9981C51.7483 38.9981 51.9907 38.9795 52.2282 38.9451V42.7065ZM51.5015 37.0059C49.8128 37.0059 48.4389 35.6321 48.4389 33.9434C48.4389 32.2546 49.8127 30.8807 51.5015 30.8807C53.1904 30.8807 54.5642 32.2546 54.5642 33.9434C54.5642 35.6321 53.1903 37.0059 51.5015 37.0059ZM22.1749 23.5769C21.6248 23.5769 21.1788 24.0229 21.1788 24.573V26.0013C21.1788 26.5514 21.6248 26.9974 22.1749 26.9974C22.725 26.9974 23.171 26.5514 23.171 26.0013V24.573C23.171 24.0229 22.725 23.5769 22.1749 23.5769ZM60.8882 18.2653C57.4101 18.2653 54.5805 21.0949 54.5805 24.573C54.5805 28.0511 57.4101 30.8807 60.8882 30.8807C64.3663 30.8807 67.1959 28.0511 67.1959 24.573C67.1959 21.0949 64.3663 18.2653 60.8882 18.2653ZM60.8882 28.8885C58.5086 28.8885 56.5727 26.9526 56.5727 24.573C56.5727 22.1934 58.5086 20.2575 60.8882 20.2575C63.2678 20.2575 65.2037 22.1934 65.2037 24.573C65.2037 26.9526 63.2678 28.8885 60.8882 28.8885ZM39.3833 26.9974C39.9334 26.9974 40.3794 26.5514 40.3794 26.0013V24.573C40.3794 24.0229 39.9334 23.5769 39.3833 23.5769C38.8332 23.5769 38.3872 24.0229 38.3872 24.573V26.0013C38.3872 26.5514 38.8332 26.9974 39.3833 26.9974ZM30.779 30.5435C32.353 30.5435 33.586 29.0301 33.586 27.0981C33.586 25.166 32.353 23.6526 30.779 23.6526C29.2049 23.6526 27.972 25.166 27.972 27.0981C27.972 29.0301 29.2051 30.5435 30.779 30.5435ZM30.779 25.6448C31.1558 25.6448 31.5938 26.2797 31.5938 27.0981C31.5938 27.9164 31.1558 28.5513 30.779 28.5513C30.4022 28.5513 29.9642 27.9164 29.9642 27.0981C29.9642 26.2797 30.4022 25.6448 30.779 25.6448ZM19.4048 30.6032C18.1355 30.9403 15.7405 32.1432 14.8104 32.8297C14.3678 33.1564 14.2739 33.7801 14.6006 34.2227C14.7959 34.4874 15.0973 34.6272 15.4028 34.6272C15.6082 34.6272 15.8156 34.5639 15.9935 34.4325C16.7306 33.8885 18.9232 32.7923 19.916 32.5288C20.4477 32.3876 20.7643 31.8421 20.6231 31.3103C20.4821 30.7787 19.9366 30.4623 19.4048 30.6032Z" fill="#151515"/>
</g>
<defs>
<clipPath id="clip0_19_725">
<rect width="68" height="68" fill="white"/>
</clipPath>
</defs>
</svg>
