<svg width="66" height="66" viewBox="0 0 66 66" fill="none" xmlns="http://www.w3.org/2000/svg">
<g clip-path="url(#clip0_716_17033)">
<path d="M25.2277 7.99813C27.1692 7.99813 28.743 6.42428 28.743 4.48283C28.743 2.54138 27.1692 0.967529 25.2277 0.967529C23.2863 0.967529 21.7124 2.54138 21.7124 4.48283C21.7124 6.42428 23.2863 7.99813 25.2277 7.99813Z" fill="#82C7E6"/>
<path opacity="0.1" d="M27.2239 6.62692C25.3213 7.01081 23.4675 5.77961 23.0836 3.87681C22.9079 3.00643 23.0711 2.14675 23.4811 1.43286C22.203 2.16454 21.4752 3.65509 21.7825 5.17788C22.1664 7.08068 24.0202 8.31187 25.9229 7.92785C26.9552 7.71954 27.7891 7.0781 28.2754 6.23143C27.9564 6.41422 27.6038 6.55022 27.2239 6.62692Z" fill="#151515"/>
<path d="M14.8779 60.6945C14.6388 60.6945 14.3959 60.6421 14.1661 60.5311C13.3502 60.1374 13.008 59.1568 13.4016 58.3408C14.715 55.6189 17.505 54.0397 21.9311 53.5131C24.417 53.2173 25.3009 51.9599 27.0192 48.7062C27.4422 47.905 28.4346 47.5982 29.2357 48.0217C30.0369 48.4447 30.3434 49.4371 29.9203 50.2382C28.0045 53.8661 26.4405 56.2805 22.3187 56.771C19.0942 57.1546 17.144 58.1346 16.3566 59.7665C16.0735 60.3528 15.4878 60.6945 14.8779 60.6945Z" fill="#EDA751"/>
<path d="M17.2089 58.6254C16.4317 57.7371 15.3511 57.1029 14.4867 56.7073C14.0522 57.197 13.691 57.7411 13.4016 58.3408C13.008 59.1568 13.3502 60.1374 14.1661 60.5311C14.3959 60.6419 14.6386 60.6945 14.8779 60.6945C15.4878 60.6945 16.0736 60.3528 16.3565 59.7666C16.5612 59.3423 16.8453 58.9625 17.2089 58.6254Z" fill="#FCD79D"/>
<path opacity="0.2" d="M29.9203 50.2382C30.3433 49.437 30.0368 48.4447 29.2356 48.0216C28.4344 47.5982 27.4422 47.9051 27.0191 48.7061C25.3009 51.9599 24.417 53.2174 21.931 53.5131C21.8506 53.5226 21.7718 53.5333 21.6924 53.5436C22.3914 54.4294 23.2051 55.2355 24.1237 55.9358C24.2597 56.0394 24.3985 56.1393 24.5383 56.2379C27.0895 55.2473 28.3939 53.1284 29.9203 50.2382Z" fill="#A35F00"/>
<path d="M31.0617 65.0337C29.6121 65.0337 28.437 63.8586 28.437 62.409V53.6603C28.437 52.2108 29.6121 51.0356 31.0617 51.0356C32.5113 51.0356 33.6864 52.2108 33.6864 53.6603V62.4091C33.6864 63.8588 32.5114 65.0337 31.0617 65.0337Z" fill="#EDA751"/>
<path d="M43.5945 62.6046C42.3886 62.8129 41.1633 62.1517 40.7035 60.9668L37.5379 52.8109C37.0134 51.4595 37.6837 49.9388 39.0351 49.4143C40.3864 48.89 41.9071 49.5601 42.4315 50.9114L45.5971 59.0675C46.1216 60.4188 45.4513 61.9396 44.1 62.464C43.9333 62.5287 43.764 62.5752 43.5945 62.6046Z" fill="#EDA751"/>
<path d="M42.8302 45.2865C42.7226 45.2865 42.6165 45.2848 42.5109 45.2815C41.0621 45.2345 39.9255 44.0219 39.9726 42.5731C40.0195 41.1243 41.2354 39.9899 42.6808 40.0348C44.3401 40.0889 47.4606 39.2646 50.4512 37.9844C51.784 37.414 53.3266 38.0318 53.897 39.3646C54.4674 40.6973 53.8495 42.2399 52.517 42.8103C51.1338 43.4022 46.4437 45.2865 42.8302 45.2865Z" fill="#EDA751"/>
<path opacity="0.2" d="M47.7395 42.2443C47.5345 41.2279 47.2063 40.2456 46.77 39.3135C45.1195 39.7977 43.6501 40.0666 42.6803 40.035C41.2349 39.9901 40.019 41.1245 39.9721 42.5733C39.9251 44.0221 41.0615 45.2347 42.5104 45.2816C42.616 45.285 42.7221 45.2867 42.8299 45.2867C44.4652 45.2867 46.3203 44.9004 47.9901 44.4231C47.9682 43.7011 47.8866 42.973 47.7395 42.2443Z" fill="#A35F00"/>
<path d="M15.1343 50.3939C15.0626 50.3939 14.9965 50.3937 14.936 50.3933C13.4866 50.3843 12.3187 49.2019 12.3277 47.7524C12.3366 46.3085 13.51 45.144 14.952 45.144C14.9577 45.144 14.9631 45.144 14.9686 45.144C18.2225 45.1642 21.4196 44.7127 22.9263 44.0207C24.2434 43.4157 25.8016 43.993 26.4069 45.3102C27.012 46.6275 26.4347 48.1857 25.1173 48.7908C21.9274 50.2561 16.8971 50.3939 15.1343 50.3939Z" fill="#EDA751"/>
<path opacity="0.2" d="M26.4068 45.3103C25.8015 43.993 24.2433 43.4157 22.9262 44.0207C22.0438 44.426 20.5814 44.7486 18.8677 44.9423C18.8301 45.9638 18.9128 46.9944 19.1196 48.0189C19.265 48.7398 19.4741 49.443 19.7374 50.124C21.574 49.9027 23.5637 49.5045 25.1173 48.7908C26.4346 48.1859 27.0119 46.6275 26.4068 45.3103Z" fill="#A35F00"/>
<path d="M10.0351 54.4201C8.79137 54.4201 7.76914 53.4267 7.74014 52.1767C7.71062 50.9088 8.7148 49.8569 9.98274 49.8275C10.4569 49.8164 10.8984 49.6215 11.2259 49.2785C11.5533 48.9356 11.7276 48.4856 11.7167 48.0116C11.694 47.0329 10.8749 46.2545 9.90062 46.2779C8.62612 46.3086 7.58068 45.3033 7.55142 44.0352C7.5219 42.7673 8.52608 41.7154 9.79402 41.686C9.84403 41.6848 9.89431 41.6843 9.94381 41.6843C13.3877 41.6843 16.2282 44.4444 16.3083 47.905C16.3478 49.6055 15.7227 51.2199 14.548 52.4503C13.3733 53.6807 11.7898 54.38 10.0892 54.4195C10.0712 54.42 10.0531 54.4201 10.0351 54.4201Z" fill="#7694E4"/>
<path opacity="0.2" d="M42.4315 50.9114C41.907 49.5601 40.3864 48.89 39.0351 49.4143C37.6837 49.9388 37.0134 51.4594 37.5379 52.8109L39.3849 57.5695C41.0766 56.8155 42.5787 55.7761 43.836 54.5301L42.4315 50.9114Z" fill="#A35F00"/>
<path opacity="0.2" d="M33.0741 58.9105C33.2779 58.9105 33.4821 58.9052 33.6864 58.8971V53.6603C33.6864 52.2108 32.5113 51.0356 31.0617 51.0356C29.6121 51.0356 28.437 52.2108 28.437 53.6603V58.1781C29.9196 58.6575 31.4873 58.9105 33.0741 58.9105Z" fill="#A35F00"/>
<path d="M45.2923 42.7359C44.0634 36.6462 37.7549 32.7816 31.2018 34.1039C24.6488 35.4263 20.3327 41.435 21.5616 47.5247C22.7904 53.6144 29.0989 57.479 35.652 56.1566C42.205 54.8343 46.5211 48.8256 45.2923 42.7359Z" fill="#FCD690"/>
<path opacity="0.15" d="M33.8983 56.3906C27.7573 53.9246 27.9656 46.2886 28.2422 42.9118L26.8205 35.866C22.862 38.3919 20.6372 42.9356 21.5634 47.526C22.6818 53.069 28.0088 56.7678 33.8983 56.3906Z" fill="#C17A00"/>
<path d="M22.35 27.4686C24.2788 25.0518 25.1692 21.4681 20.9183 17.2939C16.6338 13.0866 11.4726 12.8567 7.72684 14.083C6.80335 14.3853 6.14399 15.2115 6.05401 16.1791C5.68921 20.1035 7.0582 25.0853 12.1109 28.3297C17.1242 31.5486 20.4211 29.8855 22.35 27.4686Z" fill="#EDA751"/>
<path d="M6.014 16.7763C5.83688 20.5982 7.31119 25.2474 12.1111 28.3296C16.4564 31.1198 19.5112 30.2413 21.5045 28.384C17.7963 18.0767 10.3921 16.639 6.014 16.7763Z" fill="#FF91AB"/>
<path d="M36.7931 24.5545C34.0779 23.0746 31.8675 20.1166 34.1671 14.6206C36.4848 9.08123 41.1531 6.86802 45.0813 6.54575C46.0498 6.46635 46.9779 6.97218 47.436 7.82915C49.2941 11.3051 49.964 16.4278 46.5646 21.3778C43.1921 26.2888 39.5084 26.0343 36.7931 24.5545Z" fill="#EDA751"/>
<path d="M47.7049 8.36401C49.3503 11.8183 49.7941 16.6753 46.5648 21.3776C43.6415 25.6345 40.4849 26.0094 37.9275 25.0703C37.3489 14.1315 43.6163 9.93514 47.7049 8.36401Z" fill="#FF91AB"/>
<path d="M50.3675 24.8756C52.2313 34.1128 44.0028 39.9837 32.8452 42.2351C21.6877 44.4864 11.8263 42.2658 9.96238 33.0286C8.09838 23.7914 15.6325 14.4781 26.7899 12.2268C37.9474 9.97539 48.5035 15.6385 50.3675 24.8756Z" fill="#FFDC9C"/>
<path opacity="0.15" d="M16.5243 16.9858C11.4643 21.0915 8.76154 27.0757 9.96282 33.0289C11.5651 40.9694 19.0772 43.7249 28.2423 42.9119C13.8236 37.822 13.4156 27.1446 16.5243 16.9858Z" fill="#C17A00"/>
<path d="M32.6496 30.1501L28.3396 31.0197C27.1508 31.2596 25.9927 30.4903 25.7528 29.3015C25.5129 28.1127 26.2822 26.9546 27.471 26.7147L31.781 25.8451C32.9698 25.6052 34.1279 26.3745 34.3678 27.5633C34.6076 28.7521 33.8384 29.9102 32.6496 30.1501Z" fill="#82C7E6"/>
<g opacity="0.1">
<path d="M30.1152 26.1819L30.9839 30.4866L32.879 30.1042L32.0103 25.7995L30.1152 26.1819Z" fill="#151515"/>
<path d="M27.2436 26.7603L28.1123 31.0649L30.0074 30.6825L29.1387 26.3779L27.2436 26.7603Z" fill="#151515"/>
</g>
<path d="M37.6687 26.3944C38.9835 26.3944 40.0494 25.3285 40.0494 24.0137C40.0494 22.6989 38.9835 21.6331 37.6687 21.6331C36.3539 21.6331 35.2881 22.6989 35.2881 24.0137C35.2881 25.3285 36.3539 26.3944 37.6687 26.3944Z" fill="#7694E4"/>
<path d="M21.3338 29.6905C22.6486 29.6905 23.7144 28.6247 23.7144 27.3099C23.7144 25.9951 22.6486 24.9292 21.3338 24.9292C20.019 24.9292 18.9531 25.9951 18.9531 27.3099C18.9531 28.6247 20.019 29.6905 21.3338 29.6905Z" fill="#7694E4"/>
<path d="M56.2207 45.0847C53.6793 45.0847 51.2732 43.553 50.2875 41.0489C49.6642 39.466 49.6949 37.7353 50.3735 36.1754C51.0522 34.6155 52.2977 33.4133 53.8805 32.7903C55.0613 32.3258 56.3942 32.9059 56.8588 34.0861C57.3234 35.2662 56.7432 36.5996 55.563 37.0642C55.1218 37.238 54.7746 37.573 54.5854 38.0079C54.3961 38.4427 54.3876 38.9252 54.5613 39.3664C54.92 40.2772 55.9523 40.7268 56.8636 40.3681C58.0434 39.9034 59.377 40.4835 59.8417 41.6637C60.3064 42.844 59.7262 44.1773 58.5461 44.642C57.7827 44.9422 56.9953 45.0847 56.2207 45.0847Z" fill="#7694E4"/>
<path d="M40.67 30.4049C41.6115 30.4619 43.785 31.0506 44.5478 31.4065C44.6799 31.4682 44.8191 31.4975 44.956 31.4975C45.3199 31.4975 45.6686 31.2909 45.8327 30.9393C46.0586 30.4555 45.8495 29.8801 45.3656 29.6544C44.3956 29.2015 42.0007 28.5481 40.7868 28.4747C40.2532 28.4423 39.7956 28.8484 39.7634 29.3815C39.731 29.9144 40.1371 30.3726 40.67 30.4049ZM40.9209 27.531C41.025 27.531 41.1308 27.5141 41.2346 27.4784C42.127 27.1723 44.361 26.8887 45.2015 26.927C45.7319 26.9504 46.187 26.5389 46.2116 26.0055C46.2361 25.4721 45.8235 25.0199 45.2902 24.9953C44.2193 24.9464 41.758 25.2546 40.6074 25.6494C40.1023 25.8226 39.8333 26.3725 40.0066 26.8776C40.1441 27.2789 40.5193 27.531 40.9209 27.531ZM16.4258 35.4937C16.0674 35.8895 16.0977 36.501 16.4934 36.8594C16.6787 37.0268 16.9106 37.1095 17.1421 37.1095C17.4056 37.1095 17.6682 37.0024 17.859 36.7916C18.4237 36.1678 20.1988 34.7824 21.0448 34.3648C21.5235 34.1284 21.72 33.5487 21.4836 33.0699C21.2472 32.5911 20.6677 32.3947 20.1887 32.631C19.098 33.1694 17.1442 34.7003 16.4258 35.4937ZM19.2589 29.9572C18.0454 30.0394 15.6555 30.7103 14.6887 31.1702C14.2066 31.3995 14.0017 31.9764 14.231 32.4585C14.3965 32.8067 14.7433 33.0102 15.1046 33.0102C15.2438 33.0102 15.3852 32.9801 15.5193 32.9162C16.2793 32.5547 18.4485 31.9501 19.3895 31.8864C19.9223 31.8503 20.3248 31.3891 20.2887 30.8564C20.2526 30.3235 19.7875 29.9212 19.2589 29.9572ZM60.7406 41.3095C60.4212 40.4984 59.8051 39.8602 59.0059 39.5126C58.2067 39.1648 57.3197 39.1492 56.5086 39.4686C56.0936 39.6318 55.6236 39.4272 55.4603 39.0125C55.38 38.8086 55.3837 38.5947 55.4714 38.3936C55.5588 38.1928 55.7126 38.0443 55.9164 37.964C57.5908 37.3049 58.4168 35.4065 57.7577 33.732C57.0986 32.0582 55.2002 31.2323 53.5258 31.8908C51.7027 32.6084 50.2681 33.9933 49.4864 35.7898C49.239 36.3585 49.0669 36.9467 48.9692 37.543C47.4971 38.1117 46.026 38.5606 44.782 38.8214C44.764 38.7918 44.7459 38.7622 44.7276 38.7328C45.6099 38.1577 46.4153 37.5439 47.1366 36.893C50.8127 33.5769 52.2575 29.3554 51.3149 24.6846C50.9029 22.6429 50.0908 20.7389 48.9265 19.0302C50.4624 15.2398 50.2393 11.0232 48.2883 7.3734C47.6472 6.17418 46.3589 5.47163 45.0019 5.58211C41.0419 5.90695 37.4757 7.87279 35.1214 11.0034C32.6676 10.6567 30.1111 10.6863 27.5498 11.1063L27.0404 8.58139C27.816 8.24005 28.48 7.68523 28.9602 6.96232C29.6225 5.96522 29.8567 4.76986 29.6199 3.59655C29.3833 2.42311 28.7038 1.41209 27.7066 0.749891C26.7093 0.0875655 25.5137 -0.146917 24.3407 0.0900147C21.9184 0.578702 20.3455 2.94711 20.8343 5.36928C21.2573 7.46622 23.0891 8.9257 25.1449 8.96309L25.6546 11.4886C23.1309 12.0948 20.7627 13.0589 18.6354 14.33C15.2516 12.3571 11.2018 11.9282 7.42611 13.1642C6.13369 13.5872 5.21715 14.7356 5.09147 16.0896C4.70823 20.2102 6.13768 24.1834 9.02353 27.0818C8.61296 29.1085 8.60277 31.1783 9.01476 33.22C9.34502 34.8568 9.92549 36.3423 10.7403 37.6353C11.0252 38.0871 11.6222 38.2226 12.0737 37.9378C12.5256 37.6532 12.661 37.0562 12.3764 36.6044C11.6871 35.5108 11.1939 34.2435 10.9102 32.8375C10.5238 30.9224 10.5642 28.9737 11.0081 27.0685C11.0256 27.0146 11.0387 26.9597 11.0465 26.9041C11.5854 24.7082 12.6621 22.5727 14.245 20.6162C15.5883 18.9556 17.2227 17.5131 19.0753 16.3296C19.1305 16.302 19.183 16.269 19.2325 16.2309C21.5313 14.79 24.1585 13.7443 26.9806 13.1747C26.981 13.1747 26.9812 13.1746 26.9816 13.1746C26.982 13.1745 26.9822 13.1745 26.9826 13.1744C37.5994 11.0331 47.6646 16.3675 49.4202 25.067C50.2316 29.0878 49.0277 32.5835 45.842 35.4573C44.9834 36.2319 43.9892 36.9509 42.8735 37.6101C42.8654 37.6149 42.8572 37.6194 42.8492 37.6245C40.1218 39.231 36.6659 40.4781 32.6543 41.2876C25.2073 42.7903 18.9899 42.1492 15.1487 39.4821C14.7103 39.1774 14.1076 39.2865 13.8032 39.7249C13.4985 40.1635 13.6072 40.7659 14.0459 41.0704C15.816 42.2995 18.009 43.1474 20.5355 43.6064C20.5295 43.6433 20.524 43.6801 20.5184 43.717C19.2689 43.9593 17.7377 44.1162 16.1596 44.1628C15.8524 43.6739 15.4856 43.218 15.0624 42.805C13.6828 41.4589 11.8648 40.7176 9.94354 40.7176C9.88669 40.7176 9.82907 40.7182 9.77132 40.7195C8.89991 40.7398 8.08843 41.0981 7.48657 41.7286C6.88457 42.3592 6.56436 43.1864 6.5846 44.0576C6.60471 44.9295 6.96204 45.7408 7.59047 46.3422C8.22056 46.9451 9.04622 47.2641 9.92369 47.2444C10.1393 47.2391 10.341 47.3189 10.4981 47.4687C10.6555 47.6186 10.745 47.8195 10.7499 48.0338C10.7549 48.2529 10.6775 48.4525 10.5266 48.6107C10.3751 48.7693 10.1793 48.8558 9.96017 48.8609C9.08863 48.8812 8.27728 49.2395 7.67529 49.87C7.07342 50.5006 6.75308 51.3277 6.77332 52.1991C6.81393 53.9567 8.27715 55.3868 10.0348 55.3868C10.0607 55.3868 10.0864 55.3866 10.1116 55.3859C12.0701 55.3406 13.8942 54.5352 15.2473 53.1178C15.7596 52.5812 16.1807 51.9811 16.5043 51.3363C17.9616 51.2872 19.8506 51.1488 21.7152 50.8001C22.0066 51.3519 22.3417 51.8758 22.7145 52.3702C22.4484 52.4521 22.154 52.5129 21.8171 52.5529C17.0368 53.1217 13.9995 54.8774 12.5311 57.9205C11.9064 59.2153 12.4516 60.7768 13.746 61.4015C14.1029 61.5737 14.4838 61.661 14.8781 61.661C15.873 61.661 16.7951 61.0822 17.2274 60.1864C17.86 58.8755 19.5629 58.0722 22.4332 57.7306C24.2724 57.5118 25.7387 56.9351 26.9911 55.9304C27.1492 56.011 27.309 56.0885 27.4708 56.1627V62.4087C27.4708 64.389 29.0819 66.0002 31.0622 66.0002C33.0424 66.0002 34.6535 64.3891 34.6535 62.4087V57.2925C35.0498 57.2474 35.4477 57.186 35.8464 57.1056C36.5701 56.9595 37.2681 56.7591 37.9377 56.5113L39.8026 61.3159C40.3441 62.7117 41.6953 63.6087 43.153 63.6087C43.3539 63.6087 43.5566 63.5917 43.7595 63.5566C43.9941 63.516 44.2264 63.4515 44.4502 63.3647C45.8446 62.8235 46.7659 61.4552 46.7423 59.96C46.7339 59.4312 46.3029 59.0084 45.7759 59.0084C45.7709 59.0084 45.7656 59.0084 45.7604 59.0085C45.2265 59.0169 44.8006 59.4564 44.809 59.9904C44.8198 60.6805 44.3944 61.3122 43.7508 61.562C43.6465 61.6025 43.5386 61.6324 43.4302 61.6512C42.6574 61.785 41.8896 61.3496 41.6052 60.6164L39.702 55.713C40.7261 55.1592 41.6591 54.485 42.4832 53.7153L43.453 56.2138C43.6016 56.5966 43.9672 56.831 44.3546 56.831C44.4708 56.831 44.5892 56.8098 44.7042 56.7652C45.2019 56.5721 45.4487 56.0119 45.2556 55.5142L43.9363 52.1148C45.3421 50.2806 46.2263 48.1046 46.4271 45.8134C48.2786 45.4123 50.0713 44.8085 51.4335 44.2888C52.733 45.4057 54.414 46.051 56.2212 46.051C57.1396 46.051 58.041 45.8794 58.9005 45.5409C59.7115 45.2216 60.3498 44.6057 60.6976 43.8063C61.0442 43.0076 61.0599 42.1207 60.7406 41.3095ZM12.7415 19.4002C11.3502 21.1199 10.3092 22.9685 9.63326 24.8813C7.54896 22.3602 7.03655 19.6072 6.97545 17.7417C8.66143 17.7885 10.7974 18.1185 12.9232 19.1808C12.8626 19.2538 12.8013 19.3263 12.7415 19.4002ZM14.2738 17.7053C11.7325 16.3143 9.15669 15.8793 7.13594 15.8113C7.30197 15.4335 7.62153 15.1348 8.02759 15.0017C9.47831 14.527 13.0222 13.7278 16.8037 15.5438C15.902 16.2051 15.0563 16.9272 14.2738 17.7053ZM25.7313 6.98037C24.3547 7.25803 23.0078 6.36406 22.7299 4.98681C22.4521 3.6097 23.3463 2.26326 24.7234 1.98534C24.893 1.95105 25.0635 1.93416 25.2326 1.93416C25.7289 1.93416 26.2142 2.0797 26.6372 2.36046C27.204 2.737 27.5904 3.31166 27.7249 3.97876C27.8595 4.64585 27.7263 5.32545 27.3498 5.89239C26.9732 6.45945 26.3984 6.84579 25.7313 6.98037ZM40.4512 12.4233C39.4282 12.0096 38.3686 11.6718 37.2812 11.4121C40.0629 8.2715 43.6394 7.63392 45.1604 7.50927C45.5856 7.47434 45.9965 7.6258 46.2962 7.90979C44.4601 8.75619 42.2541 10.1559 40.4512 12.4233ZM47.5112 17.2383C46.1465 15.7372 44.4701 14.437 42.5207 13.3912C42.4371 13.3463 42.3522 13.3031 42.2679 13.2594C43.8155 11.4558 45.6559 10.3232 47.1923 9.62632C47.8594 11.3697 48.4547 14.1061 47.5112 17.2383ZM13.8484 51.7827C12.8521 52.8264 11.5089 53.4195 10.0656 53.4528L10.0345 53.4532C9.3186 53.4532 8.72279 52.8706 8.70616 52.1542C8.69791 51.7992 8.82836 51.4621 9.07367 51.2052C9.31898 50.9483 9.64963 50.8023 10.0048 50.794C10.737 50.777 11.4188 50.4759 11.9247 49.9461C12.4304 49.4164 12.6996 48.7214 12.6827 47.9891C12.6657 47.2578 12.3636 46.5759 11.832 46.069C11.3173 45.5784 10.6492 45.3106 9.94405 45.3106C9.92175 45.3106 9.8992 45.3108 9.87689 45.3113C9.52188 45.321 9.18286 45.1899 8.92711 44.9451C8.67135 44.7003 8.52582 44.3693 8.51757 44.0127C8.50932 43.6577 8.63977 43.3206 8.88508 43.0637C9.13026 42.8068 9.46104 42.6609 9.81553 42.6525C9.8582 42.6516 9.90113 42.6511 9.94341 42.6511C12.8525 42.6511 15.2742 45.0181 15.3415 47.9275C15.3748 49.3701 14.8446 50.7391 13.8484 51.7827ZM17.1582 49.3722C17.246 48.8862 17.2861 48.3878 17.2744 47.8828C17.2599 47.2595 17.1667 46.6496 17.002 46.0634C18.2031 46.0006 19.364 45.8777 20.3901 45.7046C20.4058 46.3765 20.4802 47.0483 20.6153 47.7172C20.7019 48.1465 20.8144 48.5643 20.9462 48.9724C19.5881 49.2011 18.235 49.3158 17.1582 49.3722ZM22.2043 55.8108C18.6256 56.2366 16.428 57.393 15.4855 59.3464C15.3721 59.5815 15.1391 59.7277 14.8777 59.7277C14.7768 59.7277 14.6787 59.705 14.5861 59.6602C14.2516 59.4989 14.1107 59.0954 14.2722 58.7609C15.4306 56.3601 17.9732 54.9576 22.0451 54.473C22.8349 54.379 23.4996 54.1908 24.087 53.8969C24.4401 54.228 24.8131 54.5385 25.2042 54.8273C24.3617 55.3515 23.3839 55.6704 22.2043 55.8108ZM32.7193 62.4092C32.7193 63.3233 31.9755 64.0671 31.0615 64.0671C30.1476 64.0671 29.4038 63.3234 29.4038 62.4092V56.8749C30.4649 57.1741 31.578 57.3456 32.7194 57.376V62.4092H32.7193ZM35.4633 55.2105C34.6622 55.3721 33.8656 55.4498 33.0825 55.4496C27.9801 55.4492 23.4829 52.1528 22.5106 47.3348C22.3282 46.4305 22.2774 45.5196 22.3568 44.6125C22.3581 44.5999 22.3598 44.5874 22.3605 44.5746C22.3821 44.3399 22.4117 44.1054 22.4508 43.8714C23.3628 43.9623 24.3087 44.0108 25.2894 44.0108C27.6925 44.0106 30.2922 43.7366 33.0364 43.1829C36.8908 42.4052 40.2784 41.2304 43.0621 39.7218C43.1963 39.9346 43.3242 40.1504 43.4405 40.3716C43.4436 40.3771 43.4465 40.3827 43.4498 40.3881C43.8669 41.1851 44.1682 42.0349 44.3484 42.9285C45.4699 48.4861 41.4839 53.9957 35.4633 55.2105ZM46.4279 43.8306C46.391 43.4035 46.3303 42.9749 46.2437 42.5459C46.1087 41.877 45.9169 41.229 45.671 40.6036C46.6831 40.3654 47.8001 40.0287 48.9313 39.6208C49.0073 40.2243 49.1588 40.8223 49.3875 41.403C49.5732 41.875 49.8039 42.3185 50.0719 42.7309C49.0577 43.0963 47.7671 43.515 46.4279 43.8306ZM58.9234 43.0355C58.7816 43.3611 58.5216 43.6122 58.191 43.7423C57.558 43.9916 56.8948 44.1179 56.2201 44.1179C54.0153 44.1179 51.9923 42.7422 51.1864 40.6946C50.6577 39.3521 50.6836 37.8841 51.2592 36.5611C51.8349 35.238 52.8913 34.2183 54.2336 33.6899C54.3931 33.6273 54.5574 33.5975 54.7192 33.5975C55.2501 33.5975 55.7527 33.9172 55.9584 34.4399C56.2269 35.1222 55.8903 35.8959 55.2079 36.1645C54.5264 36.4328 53.9901 36.9505 53.6983 37.6218C53.4058 38.2932 53.3925 39.0384 53.6609 39.7205C54.2151 41.1274 55.8098 41.8214 57.2169 41.2674C57.5474 41.1372 57.9088 41.1436 58.2344 41.2853C58.56 41.427 58.8113 41.6871 58.9413 42.0176C59.0714 42.3484 59.0652 42.7097 58.9234 43.0355Z" fill="#151515"/>
</g>
<defs>
<clipPath id="clip0_716_17033">
<rect width="66" height="66" fill="white"/>
</clipPath>
</defs>
</svg>
