<svg width="66" height="66" viewBox="0 0 66 66" fill="none" xmlns="http://www.w3.org/2000/svg">
<path d="M13.8415 62.8602C13.1575 62.8602 12.5104 62.4504 12.2409 61.7765C11.448 59.7941 11.5601 57.6285 12.541 55.983C13.2626 54.7723 14.8016 53.2506 18.0347 52.8767C21.736 52.4483 22.8512 51.0488 24.8754 48.5081C25.1253 48.1944 25.3834 47.8706 25.6555 47.5375C26.2576 46.8003 27.3433 46.691 28.0805 47.2931C28.8176 47.8953 28.927 48.981 28.3248 49.7181C28.0619 50.0398 27.8126 50.3528 27.5712 50.6559C25.411 53.3673 23.5454 55.7087 18.431 56.3005C16.9582 56.4709 15.9726 56.958 15.5017 57.7479C14.9899 58.6064 15.135 59.7306 15.4412 60.4963C15.7947 61.3801 15.3649 62.383 14.4811 62.7366C14.2712 62.8205 14.0545 62.8602 13.8415 62.8602Z" fill="#EDA751"/>
<path d="M14.481 62.7365C15.3648 62.3829 15.7945 61.38 15.4411 60.4962C15.3535 60.2774 15.2801 60.0288 15.2304 59.7659C13.9559 59.7034 12.6714 60.0445 11.8633 60.5106C11.9503 60.9363 12.0744 61.3604 12.2407 61.7764C12.5103 62.4503 13.1574 62.8601 13.8413 62.8601C14.0546 62.8601 14.2712 62.8204 14.481 62.7365Z" fill="#FCD79D"/>
<path opacity="0.2" d="M28.0804 47.2931C27.3431 46.691 26.2575 46.8003 25.6554 47.5375C25.3832 47.8706 25.1252 48.1944 24.8752 48.5081C23.2361 50.5655 22.1926 51.8744 19.8896 52.5254C20.5426 53.5546 21.3276 54.5013 22.2239 55.3434C24.6795 54.2821 26.0534 52.5608 27.571 50.6559C27.8125 50.3528 28.0618 50.0399 28.3246 49.7181C28.9267 48.9808 28.8174 47.8953 28.0804 47.2931Z" fill="#A35F00"/>
<path d="M27.3345 36.3314L7.61922 34.6065C5.08686 34.3849 2.78923 36.2189 2.55707 38.7503C2.36823 40.8101 3.57066 42.6728 5.38773 43.4161C5.66358 43.5289 5.80345 43.8452 5.70135 44.1252C5.15801 45.6159 5.40345 47.3475 6.49658 48.6502C7.75728 50.1526 9.77569 50.6437 11.5239 50.034C11.7949 49.9395 12.0894 50.0567 12.2252 50.3095C12.9312 51.6245 14.279 52.5218 15.8799 52.736C21.4268 53.4785 24.5059 52.1628 27.7639 46.3207C31.0219 40.4787 27.3345 36.3314 27.3345 36.3314Z" fill="#82C7E6"/>
<path d="M38.666 36.3314L58.3813 34.6065C60.9137 34.3849 63.2113 36.2189 63.4435 38.7503C63.6323 40.8101 62.4299 42.6728 60.6127 43.4161C60.3368 43.5289 60.197 43.8452 60.299 44.1252C60.8424 45.6159 60.5969 47.3475 59.5038 48.6502C58.2431 50.1526 56.2247 50.6437 54.4765 50.034C54.2055 49.9395 53.911 50.0567 53.7752 50.3095C53.0692 51.6245 51.7214 52.5218 50.1205 52.736C44.5735 53.4785 41.4945 52.1628 38.2365 46.3207C34.9786 40.4787 38.666 36.3314 38.666 36.3314Z" fill="#82C7E6"/>
<path opacity="0.1" d="M56.2043 36.2308C56.5011 35.7436 56.7676 35.2417 57.0062 34.7268L38.6655 36.3314C38.6655 36.3314 34.9781 40.4787 38.2361 46.3208C40.9095 51.1145 43.4635 52.8593 47.3583 52.9213C48.7381 50.6396 49.5276 47.9996 49.5276 45.1885C49.5276 44.2705 49.4427 43.371 49.2814 42.496C49.6131 42.3222 49.9374 42.1428 50.2523 41.9563C52.8113 40.4402 54.8137 38.5138 56.2043 36.2308Z" fill="#151515"/>
<path opacity="0.1" d="M8.99365 34.7268C9.23226 35.2417 9.49884 35.7436 9.79558 36.2308C11.1862 38.5138 13.1888 40.4402 15.7476 41.9561C16.0625 42.1427 16.3868 42.3221 16.7185 42.4959C16.5571 43.3709 16.4723 44.2704 16.4723 45.1883C16.4723 47.9995 17.2618 50.6395 18.6416 52.9212C22.5364 52.8591 25.0904 51.1144 27.7638 46.3206C31.0218 40.4786 27.3344 36.3313 27.3344 36.3313L8.99365 34.7268Z" fill="#151515"/>
<path d="M28.5389 65.0334C27.1648 65.0334 25.9756 64.0078 25.8051 62.6093C25.4099 59.3673 25.7776 55.0586 26.0318 52.7788C26.2006 51.2651 27.5643 50.1747 29.0779 50.344C30.5914 50.5128 31.6815 51.8765 31.5127 53.39C31.131 56.8119 31.0439 60.0089 31.2794 61.9421C31.4636 63.4536 30.3876 64.8287 28.8759 65.0129C28.7628 65.0267 28.6501 65.0334 28.5389 65.0334Z" fill="#EDA751"/>
<path d="M37.4613 65.0332C37.3501 65.0332 37.2375 65.0265 37.1242 65.0127C35.6125 64.8284 34.5366 63.4535 34.7208 61.9419C34.9564 60.0087 34.8691 56.8117 34.4874 53.3899C34.3187 51.8764 35.4087 50.5126 36.9222 50.3439C38.4353 50.174 39.7994 51.265 39.9684 52.7786C40.2226 55.0585 40.5902 59.3672 40.195 62.6092C40.0246 64.0075 38.8352 65.0332 37.4613 65.0332Z" fill="#EDA751"/>
<path d="M19.1739 46.9072C16.3116 46.9072 12.7264 46.2704 10.1021 43.6459C9.02521 42.569 9.02521 40.8232 10.1021 39.7463C11.1788 38.6696 12.9249 38.6694 14.0016 39.7464C14.9175 40.6621 17.8541 42.1099 22.4141 41.0351C23.8964 40.6862 25.3812 41.6042 25.7304 43.0864C26.0798 44.5688 25.1614 46.0536 23.6791 46.403C23.0534 46.5502 21.316 46.9072 19.1739 46.9072Z" fill="#EDA751"/>
<path d="M46.8262 46.9069C44.6836 46.9069 42.9467 46.5501 42.3208 46.4025C40.8385 46.053 39.9201 44.5683 40.2695 43.0859C40.6188 41.6037 42.1034 40.686 43.5858 41.0346C45.58 41.5046 49.9042 41.8401 51.9983 39.7459C53.0751 38.669 54.821 38.669 55.8978 39.7458C56.9747 40.8227 56.9747 42.5684 55.8978 43.6453C53.2739 46.2699 49.6883 46.9069 46.8262 46.9069Z" fill="#EDA751"/>
<path opacity="0.2" d="M40.3417 57.7712C40.2766 55.8399 40.1061 54.012 39.9684 52.7784C39.7995 51.2648 38.4355 50.1736 36.9222 50.3436C35.4087 50.5125 34.3187 51.8762 34.4874 53.3897C34.7331 55.5923 34.8566 57.7011 34.8507 59.4403C36.8205 59.2151 38.6756 58.6355 40.3417 57.7712Z" fill="#A35F00"/>
<path opacity="0.2" d="M29.0777 50.3437C27.5641 50.1745 26.2005 51.2649 26.0315 52.7785C25.894 54.0121 25.7234 55.84 25.6582 57.7713C27.3243 58.6356 29.1794 59.2152 31.1491 59.4404C31.1432 57.7012 31.2667 55.5924 31.5124 53.3898C31.6812 51.8763 30.5912 50.5125 29.0777 50.3437Z" fill="#A35F00"/>
<path opacity="0.2" d="M47.7053 41.3552C46.1302 41.4664 44.5731 41.2674 43.5865 41.0348C42.104 40.6863 40.6194 41.604 40.27 43.0861C39.9206 44.5686 40.8389 46.0533 42.3212 46.4028C42.9472 46.5504 44.6841 46.9072 46.8266 46.9072C47.2549 46.9072 47.6995 46.8925 48.1545 46.8595C48.2223 46.3112 48.2584 45.754 48.2584 45.1888C48.2584 43.8614 48.0652 42.5759 47.7053 41.3552Z" fill="#A35F00"/>
<path opacity="0.2" d="M22.4141 41.0345C20.8408 41.4053 19.461 41.4757 18.2906 41.3714C17.9339 42.5873 17.7422 43.8671 17.7422 45.1882C17.7422 45.7533 17.7783 46.3106 17.8461 46.8588C18.301 46.8918 18.7457 46.9065 19.174 46.9065C21.3161 46.9065 23.0535 46.5496 23.6794 46.4021C25.1616 46.0527 26.08 44.5679 25.7306 43.0855C25.3813 41.6036 23.8964 40.6855 22.4141 41.0345Z" fill="#A35F00"/>
<path d="M33.0001 57.0061C40.024 57.0061 45.718 51.715 45.718 45.188C45.718 38.661 40.024 33.3699 33.0001 33.3699C25.9762 33.3699 20.2822 38.661 20.2822 45.188C20.2822 51.715 25.9762 57.0061 33.0001 57.0061Z" fill="#FCD690"/>
<path opacity="0.15" d="M31.1426 56.8805C25.3307 53.0648 27.1319 45.2444 28.1186 41.8243V34.2727C23.5173 36.0515 20.2817 40.2685 20.2817 45.1882C20.2817 51.129 24.9991 56.0452 31.1426 56.8805Z" fill="#C17A00"/>
<path d="M25.2602 24.6961C27.7489 22.6078 29.4105 19.1023 25.9003 13.9201C22.3623 8.69712 17.0948 7.38782 12.9824 7.87225C11.9686 7.99175 11.1179 8.7055 10.8242 9.68326C9.63294 13.6491 10.0075 19.0639 14.5369 23.4551C19.0307 27.8119 22.7716 26.7842 25.2602 24.6961Z" fill="#EDA751"/>
<path d="M10.6586 10.2903C9.68201 14.1894 10.2342 19.2838 14.5369 23.4552C18.432 27.2315 21.7607 26.9617 24.1993 25.4632C22.5221 14.0778 15.1957 11.0586 10.6586 10.2903Z" fill="#FF91AB"/>
<path d="M40.7397 24.6961C38.2511 22.6078 36.5895 19.1023 40.0997 13.9201C43.6377 8.69712 48.9052 7.38782 53.0175 7.87225C54.0314 7.99175 54.882 8.7055 55.1757 9.68326C56.3669 13.6491 55.9923 19.0639 51.4629 23.4551C46.9693 27.8119 43.2284 26.7842 40.7397 24.6961Z" fill="#EDA751"/>
<path d="M55.3415 10.2903C56.3181 14.1894 55.7658 19.2838 51.4632 23.4552C47.568 27.2315 44.2394 26.9617 41.8008 25.4632C43.478 14.0778 50.8044 11.0586 55.3415 10.2903Z" fill="#FF91AB"/>
<path d="M54.6527 27.8478C54.6527 37.748 44.9585 42.0841 33.0002 42.0841C21.0418 42.0841 11.3477 37.748 11.3477 27.8478C11.3477 17.9477 21.0418 9.92212 33.0002 9.92212C44.9585 9.92212 54.6527 17.9478 54.6527 27.8478Z" fill="#FFDC9C"/>
<path opacity="0.15" d="M21.4388 12.6897C15.3748 15.8665 11.3477 21.4674 11.3477 27.8478C11.3477 36.3582 18.5114 40.757 28.1189 41.8243C14.3276 33.5864 16.1262 22.5057 21.4388 12.6897Z" fill="#C17A00"/>
<path d="M22.374 31.3873C24.5392 31.3873 26.2945 29.9895 26.2945 28.2652C26.2945 26.5409 24.5392 25.1431 22.374 25.1431C20.2088 25.1431 18.4536 26.5409 18.4536 28.2652C18.4536 29.9895 20.2088 31.3873 22.374 31.3873Z" fill="#FF91AB"/>
<path d="M43.6245 31.3873C45.7897 31.3873 47.545 29.9895 47.545 28.2652C47.545 26.5409 45.7897 25.1431 43.6245 25.1431C41.4593 25.1431 39.7041 26.5409 39.7041 28.2652C39.7041 29.9895 41.4593 31.3873 43.6245 31.3873Z" fill="#FF91AB"/>
<path d="M32.9999 29.4744C34.2145 29.4744 35.1991 28.3109 35.1991 26.8756C35.1991 25.4404 34.2145 24.2769 32.9999 24.2769C31.7854 24.2769 30.8008 25.4404 30.8008 26.8756C30.8008 28.3109 31.7854 29.4744 32.9999 29.4744Z" fill="#FF91AB"/>
<path d="M33.0002 7.19697C35.954 7.19697 38.742 6.9135 40.8504 6.39865C43.4706 5.75876 44.7444 4.84288 44.7444 3.59842C44.7444 0.100934 34.2024 0 33.0002 0C30.0465 0 27.2586 0.283465 25.1501 0.798316C22.5298 1.43821 21.2561 2.35409 21.2561 3.59842C21.2561 7.09603 31.7982 7.19697 33.0002 7.19697ZM26.1101 2.5624C28.0085 2.15686 30.4554 1.93359 33.0002 1.93359C35.5451 1.93359 37.992 2.15686 39.8904 2.5624C41.6612 2.94061 42.4554 3.36948 42.7285 3.59842C42.4554 3.82736 41.6613 4.25636 39.8905 4.63457C37.9921 5.04011 35.5451 5.26337 33.0002 5.26337C30.4554 5.26337 28.0083 5.03998 26.1099 4.63457C24.3391 4.25636 23.5451 3.82736 23.2719 3.59842C23.5451 3.36948 24.3393 2.94061 26.1101 2.5624ZM64.4062 38.6621C64.1276 35.6245 61.3873 33.3732 58.2969 33.6434L54.1874 34.0029C55.133 32.1745 55.6194 30.1098 55.6194 27.8479C55.6194 25.6575 55.1767 23.526 54.3285 21.5232C56.7017 17.9471 57.351 13.5638 56.1019 9.40526C55.6965 8.05561 54.5303 7.07721 53.1309 6.91221C48.9898 6.42417 44.9128 7.71053 41.8459 10.4491C39.0847 9.47036 36.0893 8.95538 33.0002 8.95538C29.9111 8.95538 26.9158 9.47036 24.1544 10.4493C21.0875 7.71066 17.0106 6.42456 12.8695 6.91234C11.4699 7.07721 10.3038 8.05574 9.89842 9.40539C8.64932 13.5639 9.29875 17.9472 11.6718 21.5233C10.8236 23.5262 10.3809 25.6576 10.3809 27.848C10.3809 30.1235 10.8553 32.1802 11.796 34.0016L7.7034 33.6435C4.61262 33.3751 1.87284 35.6244 1.59415 38.6622C1.38132 40.9837 2.60864 43.1447 4.67514 44.1557C4.16544 45.9235 4.56505 47.8526 5.75589 49.2718C7.16084 50.9462 9.44751 51.6365 11.5335 51.0444C12.1111 51.9786 12.9755 52.7196 14.0012 53.1889C12.8697 53.8859 12.1556 54.7418 11.7106 55.4881C10.5767 57.3905 10.4393 59.8755 11.3433 62.1355C11.7543 63.1632 12.735 63.827 13.8417 63.827C14.184 63.827 14.5198 63.7622 14.8402 63.6342C16.2174 63.0832 16.8896 61.5146 16.3388 60.1373C16.1283 59.6113 16.0003 58.7994 16.332 58.2431C16.7164 57.5982 17.746 57.3531 18.5418 57.2609C20.9435 56.983 22.8529 56.3191 24.4843 55.1889C24.594 55.2706 24.7045 55.3513 24.8169 55.4298C24.6619 57.572 24.5621 60.4047 24.8452 62.7262C25.0729 64.5926 26.6607 66 28.5388 66C28.6882 66 28.8403 65.9908 28.9929 65.9724C31.0313 65.7238 32.4874 63.8632 32.239 61.8249C32.1213 60.8599 32.0882 59.5067 32.1408 57.9474C32.4252 57.9639 32.7115 57.9733 33.0002 57.9733C33.289 57.9733 33.5753 57.9639 33.8596 57.9474C33.9122 59.5066 33.879 60.8597 33.7614 61.8249C33.5129 63.8632 34.9691 65.7238 37.0095 65.9727C37.1603 65.9908 37.3125 66 37.4617 66C38.9566 66 40.3006 65.1105 40.8858 63.7338C41.0946 63.2426 40.8657 62.6747 40.3743 62.4659C39.8828 62.2571 39.3152 62.4863 39.1064 62.9775C38.8252 63.6391 38.1797 64.0664 37.4618 64.0664C37.3892 64.0664 37.3146 64.0619 37.2418 64.0531C36.2616 63.9335 35.5615 63.0389 35.681 62.0587C35.8167 60.9449 35.8521 59.4523 35.7863 57.7066C37.0334 57.4646 38.2186 57.0633 39.3171 56.5271C39.3777 57.5872 39.4067 58.584 39.4022 59.5011C39.3995 60.0351 39.8302 60.4702 40.3641 60.4728H40.3692C40.9008 60.4728 41.3331 60.0431 41.3358 59.5109C41.342 58.2726 41.2907 56.9017 41.184 55.4296C42.1022 54.7876 42.9308 54.0399 43.6506 53.2071C44.8002 53.6651 46.0766 53.8891 47.5829 53.8891C48.399 53.8891 49.2826 53.8235 50.2492 53.6941C52.0298 53.4557 53.5832 52.4739 54.4674 51.0443C56.5536 51.6362 58.84 50.9458 60.2449 49.2716C61.4359 47.8522 61.8355 45.9232 61.3257 44.1554C63.3919 43.1445 64.619 40.9836 64.4062 38.6621ZM53.3005 19.4891C52.2049 17.6354 50.7375 15.9264 48.9274 14.4278C48.8349 14.3513 48.741 14.2765 48.6473 14.2015C50.655 12.6203 52.8355 11.8237 54.591 11.4244C54.9276 13.3814 54.9869 16.3933 53.3005 19.4891ZM52.9048 8.83253C53.3895 8.88963 53.8118 9.16278 54.066 9.56136C51.9849 10.0464 49.3861 11.0317 47.0315 13.0243C46.0346 12.3638 44.9801 11.7789 43.8782 11.2732C47.4275 8.55512 51.296 8.64316 52.9048 8.83253ZM13.0957 8.83253C14.7039 8.64329 18.5728 8.55499 22.1222 11.2731C21.0203 11.7788 19.9659 12.3637 18.9689 13.0242C16.6144 11.0317 14.0156 10.0463 11.9344 9.56123C12.1887 9.16278 12.611 8.8895 13.0957 8.83253ZM11.4095 11.4244C13.1649 11.8237 15.3456 12.6203 17.3532 14.2015C17.2595 14.2765 17.1655 14.3513 17.0731 14.4278C15.263 15.9264 13.7955 17.6354 12.6999 19.4891C11.0137 16.3933 11.0729 13.3814 11.4095 11.4244ZM13.0769 49.8519C12.7142 49.1767 11.927 48.8694 11.2054 49.121C9.79362 49.6134 8.19866 49.1746 7.23702 48.0287C6.40725 47.0398 6.16684 45.671 6.6095 44.4563C6.89168 43.6827 6.51566 42.8327 5.7537 42.5211C4.27115 41.9146 3.37331 40.4347 3.51962 38.8384C3.70112 36.8582 5.50336 35.3919 7.53479 35.5696L13.1386 36.06C13.6301 36.672 14.1864 37.2504 14.8079 37.7935C15.99 38.826 17.3858 39.7106 18.9824 40.446C16.0324 40.3687 14.7007 39.0781 14.6852 39.0625C13.9818 38.3589 13.0466 37.9714 12.0517 37.9714C11.0569 37.9714 10.1217 38.3589 9.41824 39.0622C7.96624 40.5143 7.96624 42.8769 9.41824 44.3289C11.7369 46.6478 15.1104 47.8735 19.1737 47.8735C19.3195 47.8735 19.4691 47.8696 19.618 47.8664C19.9214 49.1913 20.4448 50.4409 21.1513 51.5796C19.7894 52.0049 18.1514 52.0645 16.0079 51.7778C14.7089 51.6039 13.6406 50.902 13.0769 49.8519ZM19.3394 45.9373C19.2846 45.9378 19.2283 45.94 19.174 45.94C16.706 45.94 13.2471 45.4233 10.7858 42.9619C10.0877 42.2636 10.0877 41.1277 10.7858 40.4295C11.1241 40.0913 11.5737 39.905 12.0519 39.905C12.5302 39.905 12.9799 40.0913 13.3182 40.4296C13.9349 41.0462 14.9566 41.5979 16.1214 41.9431C17.2157 42.2675 18.3971 42.4114 19.6476 42.3759C19.4273 43.2919 19.3153 44.2316 19.3153 45.1883C19.3153 45.4398 19.3239 45.6894 19.3394 45.9373ZM18.3199 55.3401C16.5322 55.547 15.3047 56.1906 14.6713 57.2529C13.8004 58.7141 14.3534 60.3797 14.5437 60.8554C14.6986 61.2427 14.5094 61.684 14.1224 61.8388C14.0317 61.875 13.9372 61.8934 13.8417 61.8934C13.5302 61.8934 13.2542 61.7066 13.1386 61.4175C12.4568 59.713 12.544 57.8664 13.3715 56.4781C13.9538 55.5014 15.2015 54.2627 17.8381 53.8784C18.0351 53.8855 18.2286 53.8894 18.418 53.8894C19.924 53.8894 21.2007 53.6653 22.3502 53.2073C22.5471 53.435 22.752 53.6563 22.9647 53.8708C21.6868 54.6508 20.1831 55.1244 18.3199 55.3401ZM28.7606 64.053C27.7603 64.1729 26.883 63.462 26.7648 62.4923C26.5396 60.6448 26.5763 58.4158 26.6837 56.5275C27.7821 57.0637 28.9673 57.465 30.2143 57.7069C30.1484 59.4526 30.1839 60.9452 30.3196 62.0591C30.4391 63.0389 29.739 63.9336 28.7606 64.053ZM33.0002 56.0397C26.5205 56.0397 21.2489 51.1718 21.2489 45.1883C21.2489 43.9685 21.4647 42.7812 21.8899 41.6464C21.8916 41.642 21.8931 41.6376 21.8948 41.6332C21.9041 41.6086 21.913 41.584 21.9225 41.5594C23.1082 41.9242 24.3746 42.2263 25.7242 42.4611C26.2502 42.5527 26.7508 42.2003 26.8424 41.6742C26.9338 41.1482 26.5815 40.6475 26.0555 40.5561C24.5 40.2855 23.0668 39.9237 21.7573 39.4746C21.7113 39.4554 21.6647 39.439 21.6177 39.4273C19.3997 38.6507 17.546 37.6177 16.0801 36.3371C13.5814 34.1544 12.3145 31.2982 12.3145 27.8477C12.3145 18.4965 21.5941 10.8888 33.0002 10.8888C44.4064 10.8888 53.6859 18.4966 53.6859 27.8477C53.6859 30.41 52.9936 32.6344 51.621 34.5016C51.5935 34.5335 51.5681 34.567 51.5449 34.6022C50.6074 35.8464 49.3647 36.9302 47.818 37.8467C46.7706 38.4673 45.5953 39.0023 44.3071 39.4501C44.2968 39.4536 44.2865 39.4568 44.2763 39.4607C41.1283 40.55 37.3048 41.1172 33.0002 41.1172C32.1179 41.1172 31.2427 41.0929 30.3988 41.0447C29.8648 41.0158 29.4089 41.4218 29.3785 41.9549C29.3481 42.488 29.7557 42.9447 30.2887 42.9752C31.169 43.0253 32.0812 43.0507 33.0001 43.0507C37.1467 43.0507 40.8913 42.5406 44.0771 41.5574C44.0859 41.5801 44.0942 41.6029 44.1028 41.6256C44.1043 41.6298 44.1058 41.6341 44.1074 41.6383C44.5348 42.7753 44.7514 43.9654 44.7514 45.1881C44.7516 51.1719 39.48 56.0397 33.0002 56.0397ZM46.3458 42.3471C47.1076 42.3692 47.9726 42.3389 48.8507 42.1955C50.4883 41.9286 51.7774 41.3343 52.6821 40.4295C53.0204 40.0914 53.47 39.9051 53.9484 39.9051C54.4266 39.9051 54.8763 40.0913 55.2145 40.4295C55.9125 41.1275 55.9125 42.2636 55.2145 42.9619C52.7532 45.4233 49.2944 45.94 46.8263 45.94C46.7722 45.94 46.7157 45.9378 46.6609 45.9373C46.6764 45.6894 46.685 45.4398 46.685 45.1885C46.6852 44.2215 46.5707 43.2723 46.3458 42.3471ZM60.2468 42.5211C59.4847 42.8328 59.1088 43.6828 59.3908 44.4563C59.8335 45.6711 59.5931 47.04 58.7633 48.0288C57.8019 49.1749 56.2072 49.6137 54.795 49.1213C54.0734 48.8691 53.2862 49.177 52.9235 49.8522C52.3598 50.9021 51.2914 51.604 49.9923 51.7778C47.8485 52.0648 46.2107 52.0052 44.8488 51.5798C45.5553 50.441 46.0787 49.1914 46.3822 47.8664C46.5311 47.8697 46.6807 47.8735 46.8264 47.8735C50.8898 47.8735 54.2632 46.6478 56.5819 44.3289C58.0339 42.8768 58.0338 40.5142 56.5818 39.0623C55.8785 38.3589 54.9433 37.9714 53.9484 37.9715C52.9536 37.9715 52.0183 38.3589 51.315 39.0625C50.2759 40.1016 48.5091 40.38 47.0812 40.4129C47.6841 40.1332 48.2594 39.8327 48.8035 39.5103C50.4397 38.5409 51.7915 37.3835 52.8491 36.0611L58.4654 35.5697C60.497 35.3928 62.2989 36.8583 62.4806 38.8386C62.627 40.4349 61.7293 41.9148 60.2468 42.5211ZM39.1842 24.6688C39.5857 24.9796 40.1922 25.4494 41.3405 25.4494C42.4885 25.4494 43.0951 24.9797 43.4967 24.6688C43.9188 24.342 43.9961 23.7347 43.6692 23.3126C43.3422 22.8903 42.7348 22.8131 42.3128 23.1401C42.0101 23.3743 41.8275 23.5159 41.3405 23.5159C40.8535 23.5159 40.6708 23.3743 40.3682 23.1401C39.9459 22.8131 39.3388 22.8901 39.0119 23.3126C38.685 23.7346 38.7621 24.3419 39.1842 24.6688ZM33.0002 30.441C34.7457 30.441 36.1659 28.8415 36.1659 26.8754C36.1659 24.9093 34.7457 23.3099 33.0002 23.3099C31.2547 23.3099 29.8345 24.9093 29.8345 26.8754C29.8345 28.8415 31.2547 30.441 33.0002 30.441ZM33.0002 25.2435C33.6681 25.2435 34.2323 25.9909 34.2323 26.8754C34.2323 27.76 33.6681 28.5074 33.0002 28.5074C32.3324 28.5074 31.7681 27.76 31.7681 26.8754C31.7681 25.9909 32.3324 25.2435 33.0002 25.2435ZM48.4794 31.7689C47.578 31.1035 45.2562 29.9373 44.0257 29.6105C43.5096 29.4739 42.9803 29.7808 42.8431 30.2968C42.7061 30.813 43.0134 31.3423 43.5294 31.4794C44.4917 31.7348 46.6167 32.7974 47.3311 33.3246C47.5039 33.4521 47.7051 33.5137 47.9045 33.5137C48.2008 33.5137 48.4935 33.3777 48.6831 33.1209C49.0003 32.6914 48.9091 32.0861 48.4794 31.7689ZM25.6323 23.1401C25.3297 23.3743 25.147 23.5159 24.6601 23.5159C24.1731 23.5159 23.9904 23.3743 23.6878 23.1401C23.2655 22.8131 22.6583 22.8905 22.3314 23.3126C22.0045 23.7347 22.0817 24.342 22.5039 24.6688C22.9053 24.9797 23.5119 25.4494 24.6601 25.4494C25.8082 25.4494 26.4148 24.9797 26.8162 24.6688C27.2384 24.342 27.3156 23.7347 26.9887 23.3126C26.6618 22.8901 26.0544 22.8131 25.6323 23.1401ZM43.6151 27.75C43.6851 28.2795 44.1703 28.6525 44.7003 28.5819C45.6878 28.4515 48.057 28.624 48.9181 28.8393C48.9968 28.8589 49.0757 28.8684 49.1533 28.8684C49.5865 28.8684 49.9807 28.5752 50.0905 28.1359C50.22 27.6178 49.9051 27.0929 49.387 26.9633C48.3002 26.6916 45.7093 26.4982 44.4467 26.6649C43.9176 26.7349 43.5451 27.2207 43.6151 27.75ZM21.9747 29.6105C20.7443 29.9372 18.4226 31.1034 17.5209 31.7689C17.0913 32.0861 17.0001 32.6913 17.3172 33.1209C17.5069 33.3777 17.7993 33.5137 18.0958 33.5137C18.2952 33.5137 18.4965 33.4521 18.6692 33.3246C19.3836 32.7972 21.5087 31.7348 22.4709 31.4794C22.9869 31.3423 23.2942 30.813 23.1572 30.2968C23.0202 29.7807 22.4908 29.4739 21.9747 29.6105ZM21.3 28.582C21.8292 28.6525 22.3152 28.2796 22.3852 27.7502C22.455 27.2209 22.0828 26.735 21.5533 26.665C20.291 26.4984 17.7 26.6918 16.613 26.9634C16.0949 27.093 15.78 27.6179 15.9096 28.136C16.0194 28.5753 16.4136 28.8686 16.8467 28.8686C16.9245 28.8686 17.0032 28.8591 17.082 28.8394C17.9435 28.6239 20.3131 28.4513 21.3 28.582Z" fill="#151515"/>
</svg>
