<svg width="68" height="68" viewBox="0 0 68 68" fill="none" xmlns="http://www.w3.org/2000/svg">
<g clip-path="url(#clip0_20_660)">
<path d="M17.637 37.7675C18.5579 35.2373 18.2978 32.0325 13.6305 29.7676C8.92658 27.4846 4.603 28.7279 1.85193 30.7799C1.17365 31.2857 0.858886 32.1506 1.05332 32.9742C1.8417 36.3144 4.35464 40.0458 9.42556 41.3208C14.4568 42.5857 16.716 40.2979 17.637 37.7675Z" fill="#EDA751"/>
<path d="M1.18604 33.4784C2.10098 36.6819 4.60848 40.1095 9.42559 41.3208C13.7864 42.4172 16.0638 40.844 17.1933 38.7578C11.2712 31.2806 4.76108 32.1496 1.18604 33.4784Z" fill="#FF91AB"/>
<path d="M28.7478 31.3527C26.0961 30.8851 23.4507 29.0574 23.8229 23.8832C24.1979 18.668 27.4363 15.5452 30.5889 14.1888C31.3661 13.8544 32.2725 14.0142 32.8885 14.5943C35.3871 16.9472 37.3621 20.9891 35.9309 26.0182C34.5106 31.0075 31.3996 31.8202 28.7478 31.3527Z" fill="#EDA751"/>
<path d="M33.2587 14.9614C35.5756 17.3555 37.2905 21.2409 35.9308 26.0183C34.6999 30.3431 32.1987 31.5289 29.8274 31.4639C26.3129 22.5966 30.3204 17.3932 33.2587 14.9614Z" fill="#FF91AB"/>
<path d="M40.0404 27.8499C44.1432 34.956 38.9817 42.0858 30.3982 47.0415C21.8147 51.9973 13.0595 52.9021 8.9568 45.7959C4.8541 38.6896 8.48638 28.9117 17.0699 23.9561C25.6534 19.0003 35.9377 20.7435 40.0404 27.8499Z" fill="#FFDC9C"/>
<path opacity="0.15" d="M9.91831 30.7334C6.88208 35.5266 6.31258 41.2159 8.95675 45.7955C12.4836 51.9042 19.4485 52.0928 26.787 48.8774C13.4738 48.6797 10.1729 39.9807 9.91831 30.7334Z" fill="#C17A00"/>
<path d="M19.8587 39.901C19.1442 38.6634 17.3051 38.3875 15.751 39.2848C14.197 40.182 13.5164 41.9127 14.231 43.1503C14.9455 44.3879 16.7846 44.6637 18.3386 43.7665C19.8927 42.8692 20.5732 41.1386 19.8587 39.901Z" fill="#FF91AB"/>
<path d="M29.4849 34.3436C30.1995 35.5812 32.0385 35.8571 33.5926 34.9599C35.1466 34.0626 35.8272 32.332 35.1126 31.0944C34.3981 29.8568 32.559 29.5809 31.005 30.4781C29.4509 31.3754 28.7704 33.106 29.4849 34.3436Z" fill="#FF91AB"/>
<path d="M49.6754 33.4994C69.7192 34.871 68.985 45.2308 64.1431 50.4329C62.851 51.8212 61.141 52.7505 59.2851 53.1397C49.711 55.1477 33.0488 53.1089 28.5815 51.9258C28.5815 51.9258 28.2163 46.9201 34.476 40.8381C41.37 34.14 45.3125 33.4091 49.6754 33.4994Z" fill="#7694E4"/>
<path d="M21.5479 49.9625C25.007 45.4478 35.3033 33.0942 43.8669 30.9803C44.7241 30.7687 45.6187 30.7424 46.4793 30.9397C47.5175 31.1777 48.3398 31.5571 49.0072 32.036C49.8212 32.6203 49.8177 33.8297 48.9949 34.4017C44.3727 37.6156 33.2905 47.3056 29.8087 51.3703C29.4795 51.7547 29.0474 52.0391 28.5589 52.1713C26.6753 52.6816 24.3779 52.8177 22.3141 52.2618C21.3144 51.9927 20.9182 50.7844 21.5479 49.9625Z" fill="#82C7E6"/>
<path d="M54.6768 18.3041H58.2203L54.3751 21.3397C53.8986 21.7159 53.7122 22.354 53.9113 22.9274C54.1104 23.5009 54.6521 23.8862 55.2591 23.8862H60.431C60.9813 23.8862 61.4271 23.4402 61.4271 22.8901C61.4271 22.34 60.9813 21.894 60.431 21.894H56.8876L60.7328 18.8585C61.2093 18.4824 61.3957 17.8442 61.1966 17.2707C60.9975 16.6972 60.4557 16.3119 59.8488 16.3119H54.6768C54.1266 16.3119 53.6807 16.7579 53.6807 17.308C53.6807 17.8581 54.1266 18.3041 54.6768 18.3041ZM44.913 22.5088H48.4565L44.6113 25.5444C44.1348 25.9206 43.9484 26.5587 44.1475 27.1321C44.3466 27.7056 44.8883 28.0909 45.4953 28.0909H50.6672C51.2175 28.0909 51.6633 27.6449 51.6633 27.0948C51.6633 26.5447 51.2175 26.0987 50.6672 26.0987H47.1238L50.969 23.0632C51.4455 22.6869 51.6319 22.0489 51.4328 21.4754C51.2337 20.9019 50.6919 20.5166 50.085 20.5166H44.913C44.3628 20.5166 43.9169 20.9626 43.9169 21.5127C43.9169 22.0628 44.3631 22.5088 44.913 22.5088ZM18.4986 36.2055C18.0056 35.962 17.4081 36.1643 17.1644 36.6574C17.0729 36.843 16.9064 37.012 16.6959 37.1335C16.4853 37.2552 16.2554 37.3142 16.0491 37.3013C15.4992 37.2645 15.0262 37.6819 14.9908 38.231C14.9552 38.7799 15.3714 39.2538 15.9204 39.2893C15.9834 39.2935 16.0465 39.2955 16.1097 39.2955C16.6512 39.2955 17.1944 39.1462 17.692 38.8589C18.2476 38.5382 18.6828 38.082 18.9507 37.5397C19.1941 37.0464 18.9918 36.449 18.4986 36.2055ZM28.0828 32.3826C28.6243 32.3826 29.1675 32.2332 29.6649 31.946C30.2204 31.6253 30.6557 31.1691 30.9235 30.627C31.1671 30.1338 30.9649 29.5364 30.4716 29.2927C29.9787 29.0491 29.3811 29.2514 29.1374 29.7447C29.0458 29.9301 28.8794 30.0992 28.6688 30.2208C28.4584 30.3423 28.2283 30.4018 28.0223 30.3886C27.4732 30.3523 26.9993 30.7691 26.9638 31.3181C26.9282 31.867 27.3443 32.341 27.8933 32.3766C27.9563 32.3806 28.0195 32.3826 28.0828 32.3826ZM24.7405 37.2419C25.2063 36.973 25.3658 36.3776 25.097 35.9118C24.828 35.446 24.2326 35.2865 23.7668 35.5555C23.3011 35.8244 23.1416 36.4198 23.4105 36.8856C23.6793 37.3512 24.2748 37.5107 24.7405 37.2419ZM32.7133 32.8617C32.925 32.8617 33.1385 32.7944 33.3193 32.6555C33.96 32.1635 35.6956 31.3233 36.3886 31.1251C36.9175 30.9739 37.2236 30.4224 37.0723 29.8936C36.9209 29.3647 36.3702 29.059 35.8408 29.2099C34.9325 29.4696 32.9581 30.4211 32.1058 31.0756C31.6695 31.4107 31.5875 32.036 31.9226 32.4724C32.1187 32.7275 32.4144 32.8617 32.7133 32.8617ZM17.1776 42.5191C16.4162 43.277 15.2119 45.1081 14.834 45.9743C14.6141 46.4785 14.8445 47.0656 15.3488 47.2856C15.4784 47.3421 15.6136 47.3688 15.7466 47.3688C16.1307 47.3688 16.4967 47.1453 16.6602 46.7708C16.9484 46.1099 18.0108 44.5008 18.5832 43.931C18.973 43.5429 18.9746 42.9122 18.5864 42.5223C18.1982 42.1325 17.5676 42.1309 17.1776 42.5191ZM65.1955 37.5243C64.7955 37.1467 64.1651 37.1648 63.7875 37.5649C63.4099 37.965 63.4281 38.5954 63.8281 38.973C65.4666 40.5195 66.1874 42.3677 65.9706 44.4658C65.7828 46.2828 64.851 48.2105 63.4141 49.7541C62.2779 50.9748 60.7794 51.8085 59.0806 52.1647C50.7684 53.908 37.1584 52.5271 31.0797 51.4371C35.0549 47.0651 45.264 38.2091 49.5633 35.2197C49.8279 35.0358 50.0487 34.8032 50.2191 34.5395C54.2672 34.8614 57.6205 35.583 60.1903 36.6885C60.3186 36.7437 60.4522 36.7698 60.5834 36.7698C60.9693 36.7698 61.3367 36.5441 61.499 36.1671C61.7164 35.6617 61.4829 35.0759 60.9776 34.8583C58.2393 33.6803 54.724 32.9099 50.5206 32.5644C50.3727 32.0321 50.0474 31.5569 49.5877 31.2269C48.7659 30.637 47.822 30.2256 46.7017 29.9687C45.7201 29.7439 44.6575 29.7592 43.6282 30.0132C43.1522 30.1308 42.6655 30.2793 42.1687 30.458C41.9105 29.4047 41.4874 28.3641 40.9026 27.3513C39.9991 25.7862 38.8091 24.4423 37.3867 23.3518C37.5792 19.7807 36.2077 16.3523 33.5708 13.869C32.664 13.015 31.3388 12.7814 30.1944 13.2737C27.0039 14.6466 24.5895 17.2584 23.4881 20.4974C21.1172 20.9497 18.7727 21.8221 16.5712 23.0931C14.3445 24.3787 12.4278 25.9833 10.8719 27.7868C7.51397 27.1186 4.04214 27.9034 1.25601 29.9815C0.257526 30.7262 -0.202668 31.9907 0.0834094 33.2031C0.915875 36.7298 3.20091 39.6325 6.39171 41.2511C6.54139 42.3926 6.83012 43.5157 7.26814 44.6009C7.42472 44.9888 7.79793 45.2245 8.19211 45.2245C8.31629 45.2245 8.44246 45.2011 8.56465 45.1518C9.07478 44.9459 9.32141 44.3654 9.11542 43.8553C8.69122 42.8045 8.42971 41.7113 8.31895 40.5987C8.31921 40.5338 8.3131 40.4694 8.30089 40.4063C8.10698 38.0919 8.56438 35.6997 9.58226 33.4335C9.62555 33.3638 9.66048 33.2877 9.68598 33.2064C10.2765 31.9431 11.0417 30.7215 11.9654 29.5773C11.9988 29.5423 12.0293 29.5044 12.0576 29.4645C13.5249 27.6755 15.3816 26.0803 17.5674 24.8183C19.7209 23.575 22.0193 22.7512 24.3306 22.3708C24.3893 22.3664 24.447 22.3572 24.5033 22.3427C26.3755 22.0525 28.2542 22.0538 30.0685 22.3614C32.2035 22.7233 34.1132 23.4878 35.7102 24.5965C35.749 24.6293 35.7911 24.6584 35.8348 24.6849C37.2044 25.6611 38.338 26.894 39.1773 28.3475C39.7269 29.2992 40.1019 30.2729 40.303 31.2504C39.3104 31.7323 38.2817 32.3244 37.2188 33.0254C36.2622 32.9259 34.1162 33.0537 33.0917 33.3306C32.5606 33.4742 32.2465 34.0211 32.3901 34.5522C32.5101 34.9962 32.9121 35.2885 33.3511 35.2885C33.437 35.2885 33.5247 35.2772 33.6117 35.2537C33.8 35.2027 34.056 35.1576 34.3449 35.1192C32.9787 36.2044 31.5637 37.4492 30.1028 38.8529C25.6627 43.1189 22.0878 47.6197 20.7569 49.3568V49.3569C20.6604 49.4829 20.5775 49.6167 20.508 49.7557C16.631 50.36 13.5584 49.5529 11.3706 47.3509C10.9829 46.9606 10.3522 46.9586 9.96196 47.3464C9.57176 47.7341 9.56964 48.3648 9.95745 48.755C12.0491 50.8603 14.8496 51.9364 18.1703 51.9364C18.8985 51.9364 19.6523 51.8834 20.4285 51.7794C20.7146 52.489 21.3134 53.0241 22.055 53.2237C23.0248 53.4848 24.088 53.615 25.1774 53.615C26.3896 53.615 27.6345 53.4539 28.8195 53.1327C28.8955 53.1122 28.9703 53.0881 29.0444 53.0625C31.5822 53.6342 36.7006 54.3842 42.4241 54.7545C44.4082 54.8829 46.728 54.9831 49.1366 54.9831C52.6588 54.9831 56.3695 54.7686 59.4893 54.1142C61.5929 53.673 63.4542 52.6346 64.8721 51.1112C66.6235 49.2294 67.7172 46.942 67.9518 44.6702C68.2319 41.9618 67.2788 39.4907 65.1955 37.5243ZM6.27909 38.8888C4.12408 37.4705 3.01351 35.5466 2.45145 34.1088C3.77332 33.7219 5.4704 33.4459 7.34079 33.6738C6.69984 35.3807 6.33646 37.141 6.27909 38.8888ZM8.17591 31.7812C5.827 31.384 3.6939 31.6883 2.04557 32.152C2.1149 31.9277 2.2513 31.725 2.44773 31.5787C3.47264 30.8142 6.03578 29.2502 9.48198 29.5901C8.9943 30.3005 8.55748 31.0327 8.17591 31.7812ZM28.2965 20.1643C27.4513 20.1186 26.5992 20.1298 25.7457 20.1956C27.1753 17.0456 29.8087 15.6091 30.9824 15.104C31.2074 15.0073 31.4512 14.9906 31.6802 15.0427C30.455 16.2376 29.1271 17.9329 28.2965 20.1643ZM30.4019 20.3976C30.3846 20.3947 30.3673 20.3923 30.3501 20.3895C31.088 18.6555 32.1754 17.3237 33.1715 16.3724C34.1352 17.5775 35.2455 19.5001 35.3972 22.0733C33.8989 21.2743 32.2206 20.7059 30.4019 20.3976ZM28.541 51.1189C28.5296 51.1242 28.5183 51.1299 28.507 51.1356C28.4394 51.1659 28.3698 51.1909 28.2985 51.2102C26.3786 51.7304 24.292 51.7632 22.5731 51.3002C22.374 51.2467 22.2955 51.0951 22.2666 51.0095C22.242 50.9371 22.1999 50.7494 22.3386 50.5684C23.6419 48.8674 27.1416 44.4608 31.4832 40.2894C35.3049 36.6177 38.7482 34.0984 41.7564 32.7675C41.7897 32.7551 41.822 32.7411 41.8533 32.7254C42.6337 32.3857 43.3852 32.1252 44.1055 31.9474C44.8335 31.7678 45.5772 31.7548 46.2566 31.9107C47.1139 32.1073 47.8236 32.413 48.4262 32.8454C48.5951 32.9667 48.6191 33.1326 48.6185 33.2206C48.6184 33.2363 48.6169 33.2552 48.6144 33.2751C48.6108 33.2906 48.6085 33.3067 48.6057 33.3225C48.5865 33.4056 48.5392 33.5054 48.426 33.584C43.8436 36.7702 32.6537 46.5176 29.0521 50.7225C28.9057 50.8938 28.7317 51.0274 28.541 51.1189ZM12.2106 44.2474C12.406 44.4495 12.6663 44.5511 12.9269 44.5511C13.1761 44.5511 13.4257 44.4581 13.6191 44.2711C14.1373 43.77 15.7328 42.6871 16.479 42.3784C16.9875 42.1682 17.229 41.5855 17.0188 41.0773C16.8084 40.5689 16.226 40.3273 15.7176 40.5375C14.7249 40.9482 12.9137 42.1823 12.2344 42.8391C11.8389 43.2212 11.8282 43.8518 12.2106 44.2474Z" fill="#151515"/>
</g>
<defs>
<clipPath id="clip0_20_660">
<rect width="68" height="68" fill="white" transform="translate(0 0.000976562)"/>
</clipPath>
</defs>
</svg>
