<svg width="68" height="68" viewBox="0 0 68 68" fill="none" xmlns="http://www.w3.org/2000/svg">
<g clip-path="url(#clip0_19_723)">
<path d="M23.0411 37.5005C18.7679 39.6375 9.26606 49.1609 5.26203 57.8595C4.83504 58.7872 5.18248 59.891 6.0694 60.3973C12.2595 63.9305 27.7028 63.3768 35.037 62.0736C38.0514 55.3395 35.6174 36.3169 35.6174 36.3169L23.0411 37.5005Z" fill="#BD4568"/>
<path d="M8.94166 61.9236C8.49222 61.9236 8.04013 61.7724 7.66759 61.4623C6.82131 60.758 6.70616 59.501 7.4106 58.6547C10.9758 54.371 14.1354 53.5433 16.9228 52.813C18.9733 52.2758 20.744 51.8118 22.732 49.9024C23.5262 49.1398 24.788 49.1653 25.5507 49.9591C26.3133 50.7532 26.2879 52.0152 25.4939 52.7778C22.758 55.4056 20.1949 56.0772 17.9333 56.6697C15.4056 57.3319 13.2227 57.9039 10.475 61.2053C10.0808 61.679 9.51328 61.9236 8.94166 61.9236Z" fill="#EDA751"/>
<path d="M8.60219 57.3335C8.20999 57.7338 7.81302 58.1711 7.4106 58.6547C6.70616 59.5009 6.82131 60.7579 7.66759 61.4622C8.04013 61.7724 8.49222 61.9236 8.94166 61.9236C9.51328 61.9236 10.0808 61.679 10.475 61.2054C10.8546 60.7493 11.2231 60.347 11.5836 59.9876C10.8439 58.74 9.65858 57.7788 8.60219 57.3335Z" fill="#FCD79D"/>
<path d="M19.9526 66.9564C18.8037 66.9564 17.6937 66.3338 17.124 65.2452C16.3071 63.6846 16.9102 61.7571 18.4708 60.9403C22.1063 59.0375 23.9292 56.6383 25.5373 54.5217C25.7185 54.283 25.8955 54.0502 26.0697 53.8246C27.1463 52.4306 29.1496 52.173 30.5436 53.2498C31.9378 54.3265 32.1951 56.3295 31.1184 57.7238C30.9541 57.9366 30.7875 58.156 30.6164 58.381C28.8052 60.7648 26.3248 64.0296 21.4288 66.5922C20.957 66.8394 20.4512 66.9564 19.9526 66.9564Z" fill="#EDA751"/>
<path d="M35.4237 67.004C34.5074 67.004 33.5983 66.6112 32.9673 65.851C31.8425 64.4954 32.0295 62.4845 33.3852 61.3597C36.0059 59.1852 35.4744 56.2018 35.2613 55.7045C34.5671 54.0856 35.3169 52.2104 36.9359 51.5162C38.555 50.8221 40.4301 51.5719 41.1243 53.1908C42.3513 56.0529 42.4414 62.1343 37.4588 66.2687C36.8633 66.7629 36.1413 67.004 35.4237 67.004Z" fill="#EDA751"/>
<path d="M44.2692 48.0589C42.6882 48.0589 41.3162 46.8846 41.1097 45.2749C40.8854 43.5276 42.1201 41.9295 43.8673 41.7053C46.1002 41.4188 52.9397 37.6998 56.9354 34.5994C58.3272 33.5195 60.3308 33.7724 61.4107 35.1642C62.4905 36.5559 62.2378 38.5595 60.846 39.6394C56.8581 42.7337 48.8064 47.503 44.6793 48.0325C44.5416 48.0503 44.4044 48.0589 44.2692 48.0589Z" fill="#EDA751"/>
<path opacity="0.2" d="M50.1642 46.1464C50.2077 43.9125 49.7655 41.7173 48.8722 39.6694C46.7339 40.7839 44.8522 41.5786 43.8671 41.7051C42.12 41.9292 40.8854 43.5274 41.1095 45.2747C41.3161 46.8842 42.6881 48.0587 44.269 48.0587C44.4042 48.0587 44.5414 48.05 44.6791 48.0324C46.1356 47.8455 48.0814 47.1294 50.1642 46.1464Z" fill="#A35F00"/>
<path opacity="0.2" d="M36.9359 51.5157C35.3168 52.2099 34.5671 54.0851 35.2613 55.7041C35.4745 56.2013 36.0061 59.1847 33.3852 61.3592C33.191 61.5204 33.0216 61.7003 32.8757 61.8932C32.9763 61.895 33.0771 61.898 33.1772 61.898C36.1105 61.898 38.9693 61.188 41.4894 59.862C42.12 57.2407 41.7894 54.7424 41.1242 53.1904C40.4301 51.5715 38.5551 50.8216 36.9359 51.5157Z" fill="#A35F00"/>
<path opacity="0.2" d="M30.5438 53.2498C29.1498 52.173 27.1465 52.4306 26.0699 53.8246C25.8956 54.0502 25.7187 54.283 25.5374 54.5217C24.6145 55.7364 23.6202 57.0441 22.2538 58.2977C24.0437 59.6443 26.0915 60.6449 28.2993 61.2455C29.2149 60.2252 29.9602 59.2452 30.6169 58.381C30.7879 58.156 30.9545 57.9366 31.1188 57.7238C32.1953 56.3294 31.9379 54.3263 30.5438 53.2498Z" fill="#A35F00"/>
<path opacity="0.2" d="M22.7317 49.9024C20.9106 51.6516 19.2714 52.1877 17.4327 52.6784C17.969 53.6915 18.6196 54.6618 19.3824 55.5739C19.5391 55.7611 19.7001 55.9441 19.864 56.124C21.617 55.5599 23.5098 54.6832 25.4937 52.7779C26.2876 52.0153 26.313 50.7533 25.5504 49.9592C24.7878 49.1653 23.5259 49.1398 22.7317 49.9024Z" fill="#A35F00"/>
<path d="M47.4813 47.4738C48.4265 39.9838 42.6584 33.0874 34.5979 32.0701C26.5374 31.0529 19.2368 36.3002 18.2915 43.7902C17.3463 51.2802 23.1144 58.1767 31.175 59.1939C39.2355 60.2111 46.5361 54.9639 47.4813 47.4738Z" fill="#FCD690"/>
<path d="M32.9311 56.3433C32.812 56.3433 32.6927 56.3392 32.5732 56.3307C31.0103 56.22 29.7414 55.3908 29.0915 54.0559C28.8507 53.5612 29.0566 52.9651 29.5513 52.7243C30.0462 52.4833 30.6421 52.6895 30.8829 53.184C31.3118 54.0655 32.1153 54.3011 32.7139 54.3434C33.6267 54.4083 34.5941 54.0386 34.9686 53.4844C35.2766 53.0287 35.8957 52.9089 36.3517 53.2169C36.8075 53.5251 36.9272 54.1442 36.6192 54.6C35.8976 55.6677 34.4472 56.3433 32.9311 56.3433Z" fill="#FF91AB"/>
<path d="M37.6613 55.2307C40.7185 55.2307 43.1968 52.7523 43.1968 49.6952C43.1968 46.638 40.7185 44.1597 37.6613 44.1597C34.6042 44.1597 32.1259 46.638 32.1259 49.6952C32.1259 52.7523 34.6042 55.2307 37.6613 55.2307Z" fill="#FF91AB"/>
<path opacity="0.15" d="M29.0666 58.7805C22.9491 53.5601 26.1486 44.846 27.7759 41.0637L28.8692 32.3975C23.3311 33.7726 19.0074 38.1439 18.2951 43.7899C17.4349 50.6075 22.137 56.9323 29.0666 58.7805Z" fill="#C17A00"/>
<path d="M19.63 36.0396C17.2909 36.317 15.8323 42.1107 20.8128 42.5318C27.6148 43.107 34.5995 43.8775 37.5456 45.7044C38.0625 46.0251 38.707 46.0263 39.2395 45.7322C42.0378 44.1869 47.0114 44.2941 48.6107 44.0468C52.3155 43.474 50.5871 37.6757 48.2309 37.8066C45.8748 37.9374 19.63 36.0396 19.63 36.0396Z" fill="#BD4568"/>
<path d="M26.9809 21.2299C29.9865 18.9741 32.1257 15.0294 28.3964 8.82372C24.6377 2.56892 18.6359 0.726142 13.8556 1.02763C12.677 1.102 11.6497 1.87298 11.2491 2.98382C9.62431 7.48962 9.71728 13.7674 14.6732 19.1237C19.5902 24.4378 23.9754 23.4857 26.9809 21.2299Z" fill="#EDA751"/>
<path d="M11.0198 3.67432C9.6471 8.11676 9.96518 14.0353 14.6731 19.1235C18.9351 23.7297 22.7967 23.6269 25.7073 22.0492C24.4848 8.79357 16.212 4.84652 11.0198 3.67432Z" fill="#FF91AB"/>
<path d="M44.8599 22.2012C42.1165 19.633 40.4173 15.4798 44.797 9.71466C49.2112 3.90398 55.3773 2.72248 60.0968 3.53994C61.2604 3.74155 62.1982 4.61944 62.476 5.76708C63.6031 10.4224 62.8305 16.6531 57.3233 21.4408C51.8595 26.191 47.6034 24.7694 44.8599 22.2012Z" fill="#EDA751"/>
<path d="M62.6292 6.47852C63.5126 11.0435 62.555 16.8927 57.3235 21.4409C52.5875 25.5582 48.7598 25.0376 46.0372 23.1538C48.6888 10.1087 57.3404 7.08135 62.6292 6.47852Z" fill="#FF91AB"/>
<path d="M60.7315 26.7147C60.1102 38.1494 48.6412 42.5493 34.8292 41.7988C21.017 41.0483 10.0924 35.4316 10.7137 23.9968C11.335 12.5621 23.0355 3.90075 36.8475 4.65127C50.6596 5.40179 61.3528 15.28 60.7315 26.7147Z" fill="#FFDC9C"/>
<path opacity="0.15" d="M23.3204 7.12256C16.1169 10.4111 11.1142 16.6275 10.7137 23.997C10.1796 33.8267 18.1778 39.357 29.2076 41.1926C13.7955 30.8122 16.5682 18.1267 23.3204 7.12256Z" fill="#C17A00"/>
<path d="M31.5637 24.1945C31.672 22.2032 29.7323 20.4787 27.2312 20.3426C24.7301 20.2066 22.6148 21.7107 22.5065 23.702C22.3982 25.6933 24.338 27.4179 26.839 27.5539C29.3401 27.6899 31.4554 26.1859 31.5637 24.1945Z" fill="#FF91AB"/>
<path d="M47.0571 25.031C46.9488 27.0224 48.8886 28.7469 51.3897 28.8829C53.8907 29.019 56.0061 27.5149 56.1143 25.5236C56.2226 23.5323 54.2829 21.8077 51.7818 21.6717C49.2807 21.5357 47.1654 23.0397 47.0571 25.031Z" fill="#FF91AB"/>
<path d="M22.1771 53.0387C19.4973 53.0387 17.0563 51.7453 15.798 49.5991C15.0601 48.3405 14.7795 46.8692 14.9868 45.3443C15.1815 43.9107 15.8024 42.4463 16.8325 40.9918C17.8501 39.5541 19.8408 39.2137 21.2788 40.2319C22.7165 41.2498 23.0566 43.2405 22.0386 44.6782C21.3125 45.7037 21.2752 46.2825 21.3049 46.3814C21.3656 46.4729 21.801 46.7104 22.3927 46.648C24.1454 46.4611 25.7156 47.7305 25.9018 49.4822C26.0883 51.2339 24.8193 52.8049 23.0676 52.9912C22.7687 53.0231 22.4713 53.0387 22.1771 53.0387Z" fill="#EDA751"/>
<g opacity="0.07">
<path d="M41.2351 45.4697C37.9709 47.1365 33.9587 47.9228 32.3874 48.0122C32.218 48.543 32.1259 49.1084 32.1259 49.6954C32.1259 49.7774 32.1285 49.8586 32.1321 49.9398C34.033 49.9033 38.7157 49.0399 42.4931 46.9949C42.1674 46.4136 41.7402 45.8973 41.2351 45.4697Z" fill="#151515"/>
<path d="M43.173 50.1994C43.188 50.0333 43.1969 49.8654 43.1969 49.6953C43.1969 49.1319 43.1121 48.5884 42.9557 48.0762C39.3565 50.3849 33.952 51.3418 32.3746 51.3404C32.5877 52.0259 32.9309 52.654 33.3744 53.1965C35.742 52.963 39.8662 52.0574 43.173 50.1994Z" fill="#151515"/>
</g>
<path d="M49.1393 22.536C49.6645 22.536 50.1041 22.1248 50.133 21.594L50.2198 19.9949C50.2497 19.4456 49.8286 18.9761 49.2793 18.9463C48.7334 18.916 48.2603 19.3374 48.2306 19.8868L48.1437 21.4859C48.1138 22.0352 48.535 22.5047 49.0843 22.5344C49.1027 22.5355 49.1211 22.536 49.1393 22.536ZM26.1668 22.1668C24.731 21.8971 21.7501 21.9578 20.4877 22.2015C19.9476 22.3057 19.5941 22.8282 19.6984 23.3684C19.7903 23.8448 20.2076 24.1759 20.6754 24.1759C20.738 24.1759 20.8014 24.1699 20.8652 24.1577C21.9058 23.9569 24.6333 23.9059 25.7989 24.1249C26.3396 24.2263 26.8602 23.8704 26.9618 23.3297C27.0634 22.789 26.7073 22.2684 26.1668 22.1668ZM50.6673 27.6156C50.4975 28.1388 50.784 28.7006 51.3072 28.8705C52.4354 29.2367 54.8053 30.5876 55.6225 31.2623C55.8082 31.4156 56.0329 31.4902 56.2561 31.4902C56.543 31.4902 56.8279 31.3668 57.0247 31.1283C57.3751 30.7041 57.315 30.0763 56.8908 29.7259C55.8991 28.9072 53.3116 27.4264 51.9221 26.9754C51.3989 26.8058 50.8371 27.0923 50.6673 27.6156ZM60.0538 33.1011C61.0348 31.2178 61.5997 29.0963 61.7261 26.7689C61.8639 24.2338 61.4816 21.7389 60.6171 19.369C63.5908 15.4084 64.6222 10.4002 63.4439 5.53304C63.0719 3.99614 61.8249 2.82872 60.2668 2.55872C55.5251 1.73728 50.7459 2.97455 47.0512 5.95605C43.9182 4.64081 40.481 3.85138 36.9018 3.65694C33.322 3.4625 29.8198 3.87488 26.5627 4.84282C23.2126 1.47842 18.5941 -0.268451 13.7931 0.0335633C12.215 0.133039 10.8488 1.15848 10.3122 2.64611C8.61355 7.35695 9.09619 12.4474 11.6235 16.7069C10.5075 18.9692 9.85707 21.4079 9.71921 23.9432C9.52292 27.5574 10.4096 30.7738 12.3546 33.5031C12.6736 33.951 13.2953 34.0557 13.7438 33.7362C14.1918 33.4169 14.2962 32.795 13.9769 32.3469C12.3005 29.9944 11.5374 27.2032 11.7086 24.0511C12.2991 13.1831 23.5516 4.92649 36.7939 5.64606C50.0354 6.36564 60.3277 15.7926 59.7373 26.6609C59.5982 29.2209 58.8813 31.4585 57.5982 33.3615C57.5726 33.3949 57.5481 33.4291 57.5267 33.4654C56.2848 35.2662 54.53 36.7634 52.2667 37.9434C51.5962 38.2931 50.8848 38.6121 50.1355 38.9005C50.1322 38.9017 50.1289 38.9023 50.1257 38.9035C50.1196 38.9058 50.114 38.9087 50.1079 38.9111C46.0291 40.4748 40.8243 41.1273 34.8835 40.8046C28.1773 40.4403 22.5904 38.9597 18.5743 36.5001C18.5488 36.4823 18.5227 36.4654 18.4952 36.4498C18.4932 36.4487 18.491 36.448 18.4892 36.4468C17.9617 36.12 17.4604 35.777 16.9889 35.4164C16.5519 35.0821 15.9268 35.1656 15.5926 35.6026C15.2584 36.0396 15.3417 36.6647 15.7788 36.9989C16.091 37.2375 16.4155 37.4686 16.7495 37.6936C16.5139 38.3913 16.4305 39.1351 16.5102 39.8418C16.3319 40.0169 16.1672 40.2083 16.0199 40.4164C15.3413 41.3749 14.8258 42.3428 14.4753 43.3103C10.0674 47.8966 6.38537 53.0374 4.35733 57.4433C3.70828 58.8536 4.23209 60.4956 5.57575 61.2625C5.88507 61.439 6.22639 61.6104 6.59109 61.7744C6.72019 61.9384 6.86615 62.091 7.03044 62.2278C7.56647 62.6741 8.24527 62.9198 8.942 62.9198C9.19793 62.9198 9.44921 62.8863 9.69132 62.824C11.4249 63.2643 13.4628 63.5922 15.7667 63.8011C15.7709 64.4456 15.9231 65.0984 16.2421 65.7078C16.967 67.0927 18.389 67.9531 19.9532 67.9531C20.624 67.9531 21.2943 67.7879 21.8914 67.4752C23.9678 66.3884 25.6286 65.1859 27.0226 63.9343C28.464 63.8552 29.8965 63.7421 31.245 63.6002C31.1927 64.6129 31.5044 65.6471 32.2015 66.4872C32.9994 67.4487 34.1742 68.0002 35.4244 68.0002C36.3268 68.0002 37.1867 67.7167 37.9112 67.1802C38.3533 66.8529 38.4463 66.229 38.1189 65.7869C37.7915 65.3447 37.1677 65.2518 36.7257 65.5791C36.3468 65.8597 35.8969 66.0079 35.4244 66.0079C34.7686 66.0079 34.1528 65.7189 33.7347 65.215C32.9624 64.2843 33.0912 62.8987 34.0219 62.1262C34.718 61.5487 35.2702 60.8766 35.6747 60.1254C37.478 59.8492 39.1875 59.2786 40.7377 58.463C40.586 59.6357 40.2211 61.0026 39.4416 62.3899C39.1723 62.8694 39.3425 63.4768 39.8221 63.7461C39.9764 63.8328 40.1439 63.874 40.3091 63.874C40.6575 63.874 40.9956 63.691 41.1785 63.3656C42.4802 61.0488 42.8064 58.7845 42.8217 57.1475C45.7595 54.9467 47.8365 51.7416 48.4193 47.9906C52.7551 46.2857 58.292 42.8823 61.4571 40.4266C63.2803 39.0118 63.6127 36.3773 62.1981 34.5538C61.6454 33.842 60.8898 33.3432 60.0538 33.1011ZM18.2415 8.95428C16.0056 10.6094 14.1719 12.5427 12.7831 14.6742C10.8768 10.82 11.1819 7.17008 11.7256 4.87921C13.7973 5.45548 16.3913 6.54905 18.7021 8.62185C18.5472 8.73102 18.3936 8.84165 18.2415 8.95428ZM20.4292 7.50583C17.7777 4.97683 14.7521 3.66464 12.3466 2.98451C12.6753 2.43029 13.2592 2.06346 13.9182 2.02189C17.8104 1.77672 21.5602 3.05849 24.4285 5.57023C23.0344 6.10891 21.6966 6.75571 20.4292 7.50583ZM52.86 9.26798C51.6813 8.38491 50.4213 7.59707 49.0938 6.91043C52.218 4.72422 56.0859 3.85629 59.9267 4.52181C60.5774 4.63444 61.118 5.06249 61.3847 5.64912C58.9199 6.06456 55.7699 7.04112 52.86 9.26798ZM59.6844 17.2226C58.5348 14.9531 56.9213 12.8327 54.8778 10.9449C54.7388 10.8164 54.598 10.6897 54.456 10.5644C56.9778 8.75413 59.675 7.94809 61.7969 7.59973C62.0892 9.93629 61.9969 13.5978 59.6844 17.2226ZM15.9739 45.4785C16.1468 44.2055 16.7091 42.8897 17.6456 41.5673C17.984 41.0892 18.4884 40.7715 19.0657 40.6728C19.1907 40.6515 19.3157 40.641 19.4399 40.641C19.89 40.641 20.3282 40.7795 20.703 41.045C21.1812 41.3835 21.4988 41.8881 21.5975 42.4655C21.6962 43.0431 21.5641 43.6244 21.2255 44.1027C20.4915 45.1396 20.1724 46.0746 20.3508 46.668C20.3788 46.7616 20.4205 46.8504 20.4746 46.9319C20.8049 47.4303 21.6557 47.7277 22.498 47.6384C23.0805 47.5764 23.6528 47.7448 24.1085 48.113C24.5641 48.481 24.8492 49.0048 24.9112 49.5876C24.9732 50.1702 24.8045 50.7421 24.4365 51.1978C24.0682 51.6536 23.5447 51.9387 22.9622 52.0008C22.7011 52.0285 22.4369 52.0426 22.1771 52.0426C19.8383 52.0426 17.7231 50.9133 16.6572 49.0954C16.0331 48.031 15.7967 46.7803 15.9739 45.4785ZM6.64488 58.0174C6.40901 58.3007 6.23356 58.6197 6.11696 58.9581C6.05387 58.7386 6.06529 58.4965 6.16663 58.2761C7.79796 54.7324 10.5671 50.6722 13.9412 46.8338C14.0179 47.9967 14.3542 49.1061 14.9387 50.1031C15.3373 50.7829 15.842 51.3902 16.429 51.9127C13.6843 52.6347 10.3065 53.618 6.64488 58.0174ZM9.70939 60.5679C9.60739 60.6905 9.47909 60.7839 9.33658 60.8451C9.31148 60.8537 9.28678 60.864 9.26247 60.8746C9.16047 60.909 9.05237 60.9273 8.94173 60.9273C8.77771 60.9273 8.53413 60.8872 8.30477 60.6964C8.21618 60.6227 8.1434 60.5354 8.08616 60.4394C8.0847 60.437 8.08337 60.4345 8.08178 60.4321C8.00913 60.3078 7.96304 60.1684 7.9495 60.0207C7.92519 59.7554 8.00567 59.4965 8.17621 59.2917C11.5371 55.2536 14.4032 54.5025 17.175 53.7763C17.706 53.6373 18.2133 53.5031 18.7209 53.3469C19.1246 53.5161 19.5444 53.6563 19.9767 53.7646C20.2219 54.1008 20.4803 54.4259 20.751 54.7397C19.6957 55.1774 18.6757 55.4452 17.6806 55.706C15.0994 56.3824 12.6613 57.0212 9.70939 60.5679ZM16.2359 61.8419C14.5961 61.7019 13.0993 61.5019 11.7611 61.2435C14.0555 58.7164 15.8968 58.2328 18.1854 57.6332C19.4163 57.3107 20.7906 56.9505 22.2488 56.2529C22.3637 56.3539 22.4803 56.4532 22.598 56.5509C21.5626 57.6694 20.1334 58.946 18.0091 60.0578C17.219 60.4715 16.6169 61.104 16.2359 61.8419ZM20.9671 65.7099C20.6494 65.8763 20.3079 65.9606 19.9526 65.9606C19.1323 65.9606 18.3865 65.5096 18.0065 64.7838C17.4457 63.7121 17.8611 62.384 18.9328 61.8231C21.4267 60.5179 23.0557 59.0168 24.2184 57.7312C25.4961 58.5444 26.8967 59.1819 28.3793 59.6207C26.6039 61.7668 24.3899 63.9184 20.9671 65.7099ZM32.7492 60.5929C32.4204 60.8657 32.1444 61.1787 31.9217 61.5189C31.035 61.6239 30.1005 61.7161 29.1415 61.7938C29.6398 61.2325 30.1035 60.6691 30.5441 60.1089C30.7137 60.1356 30.8839 60.1605 31.0549 60.1821C31.7283 60.2671 32.3965 60.3093 33.0575 60.3137C32.9591 60.4092 32.8575 60.5031 32.7492 60.5929ZM46.4982 47.3478C45.6235 54.2814 38.8081 59.1514 31.3045 58.2056C28.8363 57.8942 26.5367 56.9809 24.6106 55.5907C24.6097 55.59 24.6088 55.5892 24.6078 55.5885C24.0834 55.2098 23.5868 54.7957 23.1219 54.3485C23.1121 54.3385 23.1019 54.3291 23.0917 54.3197C22.9875 54.2187 22.8843 54.1169 22.7835 54.0126C22.9136 54.0042 23.0437 53.9953 23.1731 53.9817C24.2848 53.8633 25.284 53.3193 25.9866 52.4495C26.689 51.5798 27.0108 50.4884 26.8925 49.3767C26.7741 48.2648 26.2303 47.2656 25.3607 46.5632C24.573 45.9267 23.6062 45.6028 22.6022 45.6354C22.6698 45.5218 22.7519 45.3946 22.8517 45.2537C23.1725 44.8004 23.3961 44.2986 23.5168 43.7732C28.6812 44.2649 34.5739 45.0334 37.0206 46.5508C37.4423 46.8123 37.9236 46.9436 38.4085 46.9436C38.858 46.9436 39.3106 46.8307 39.721 46.604C41.5221 45.6095 44.458 45.359 46.5714 45.215C46.6108 45.9262 46.5874 46.6402 46.4982 47.3478ZM46.8556 43.1996C44.5511 43.3527 41.0689 43.5842 38.758 44.8601C38.5316 44.9852 38.2745 44.9844 38.0705 44.8579C35.2572 43.1134 29.4587 42.3295 23.4825 41.7691C23.3846 41.3951 23.2371 41.0407 23.0448 40.7133C26.4401 41.8494 30.3878 42.5552 34.775 42.7936C35.795 42.8491 36.7941 42.8766 37.7728 42.8766C42.2805 42.8764 46.3304 42.2896 49.7515 41.1495C49.7908 41.6417 49.7155 42.095 49.525 42.4189C49.3166 42.7733 48.9677 42.9838 48.4585 43.0625C48.1118 43.116 47.5296 43.1548 46.8556 43.1996ZM60.2353 38.8525C57.3643 41.0802 52.4869 44.0792 48.5821 45.7672C48.5804 45.5311 48.5716 45.2951 48.5577 45.0593C48.6293 45.0504 48.6985 45.0413 48.7629 45.0313C50.1601 44.8154 50.8823 44.0408 51.2422 43.4291C51.7268 42.6054 51.8691 41.5299 51.6628 40.4289C52.1894 40.204 52.6984 39.9645 53.1874 39.7097C55.5884 38.4579 57.5064 36.8478 58.915 34.9274C59.5779 34.9352 60.2095 35.2412 60.6237 35.7747C61.365 36.7304 61.1908 38.111 60.2353 38.8525ZM52.7943 25.5916C53.9765 25.5005 56.6826 25.8464 57.6954 26.1587C57.7932 26.189 57.892 26.2034 57.9893 26.2034C58.4149 26.2034 58.8089 25.9286 58.9409 25.5007C59.1031 24.975 58.8084 24.4174 58.2827 24.2553C57.0541 23.8762 54.0965 23.4927 52.6409 23.6054C52.0923 23.6478 51.682 24.1267 51.7245 24.6752C51.7667 25.2236 52.2447 25.6343 52.7943 25.5916ZM26.5158 25.5951C25.0856 25.8929 22.3528 27.0846 21.2784 27.7911C20.8187 28.0933 20.6911 28.711 20.9934 29.1707C21.1846 29.4618 21.5024 29.6197 21.8265 29.6197C22.0143 29.6197 22.2042 29.5667 22.3727 29.4558C23.2583 28.8737 25.7605 27.7874 26.9217 27.5457C27.4604 27.4336 27.8059 26.9061 27.6939 26.3674C27.5818 25.8287 27.0533 25.4838 26.5158 25.5951ZM29.8733 21.4891C30.3986 21.4891 30.8382 21.0779 30.867 20.547L30.9539 18.948C30.9837 18.3987 30.5626 17.9292 30.0133 17.8994C29.4657 17.8694 28.9945 18.2906 28.9646 18.84L28.8777 20.4391C28.8479 20.9884 29.269 21.4579 29.8183 21.4877C29.8366 21.4887 29.855 21.4891 29.8733 21.4891ZM39.3846 23.239C39.4638 23.2434 39.5425 23.2455 39.6214 23.2455C40.798 23.2455 41.9293 22.7696 42.7555 21.9197C43.139 21.5252 43.1298 20.8945 42.7355 20.5112C42.3406 20.1276 41.7102 20.1369 41.3269 20.5312C40.8468 21.0252 40.1777 21.2867 39.4927 21.2499C38.8072 21.2126 38.1709 20.8797 37.7472 20.3367C37.4085 19.9029 36.783 19.826 36.3491 20.1641C35.9153 20.5025 35.8382 21.1285 36.1766 21.5623C36.9544 22.5593 38.1238 23.1705 39.3846 23.239Z" fill="#151515"/>
</g>
<defs>
<clipPath id="clip0_19_723">
<rect width="68" height="68" fill="white"/>
</clipPath>
</defs>
</svg>
