<svg width="68" height="68" viewBox="0 0 68 68" fill="none" xmlns="http://www.w3.org/2000/svg">
<g clip-path="url(#clip0_20_662)">
<path d="M25.3296 47.6663C28.1175 45.3438 29.979 41.4451 26.0465 35.6815C22.0831 29.8726 16.1821 28.4164 11.5753 28.9553C10.4394 29.0881 9.48652 29.882 9.15754 30.9694C7.82304 35.3799 8.24273 41.4022 13.3167 46.2861C18.351 51.1316 22.5416 49.9888 25.3296 47.6663Z" fill="#EDA751"/>
<path d="M8.97217 31.6445C7.8782 35.9811 8.49671 41.6469 13.3169 46.2863C17.6804 50.4862 21.4093 50.1861 24.1412 48.5196C22.2623 35.8569 14.0549 32.499 8.97217 31.6445Z" fill="#FF91AB"/>
<path d="M42.6705 47.6663C39.8827 45.3438 38.0212 41.4451 41.9536 35.6815C45.917 29.8726 51.818 28.4164 56.4249 28.9553C57.5607 29.0881 58.5136 29.882 58.8426 30.9694C60.1771 35.3799 59.7574 41.4022 54.6833 46.2861C49.649 51.1316 45.4584 49.9888 42.6705 47.6663Z" fill="#EDA751"/>
<path d="M59.0278 31.6445C60.1218 35.9811 59.5033 41.6469 54.6831 46.2863C50.3196 50.4862 46.5907 50.1861 43.8588 48.5196C45.7378 35.8569 53.9451 32.499 59.0278 31.6445Z" fill="#FF91AB"/>
<path d="M58.2561 51.1716C58.2561 62.1823 47.3962 67.0048 34 67.0048C20.6037 67.0048 9.7439 62.1823 9.7439 51.1716C9.7439 40.1609 20.6037 31.2351 34 31.2351C47.3962 31.2351 58.2561 40.161 58.2561 51.1716Z" fill="#FFDC9C"/>
<path opacity="0.15" d="M21.0484 34.3132C14.2551 37.8463 9.7439 44.0756 9.7439 51.1717C9.7439 60.6368 17.769 65.529 28.5317 66.7159C13.0821 57.5538 15.097 45.2302 21.0484 34.3132Z" fill="#C17A00"/>
<path d="M22.0973 55.1075C24.523 55.1075 26.4894 53.5532 26.4894 51.6358C26.4894 49.7184 24.523 48.1641 22.0973 48.1641C19.6716 48.1641 17.7052 49.7184 17.7052 51.6358C17.7052 53.5532 19.6716 55.1075 22.0973 55.1075Z" fill="#FF91AB"/>
<path d="M45.9026 55.1075C48.3283 55.1075 50.2947 53.5532 50.2947 51.6358C50.2947 49.7184 48.3283 48.1641 45.9026 48.1641C43.4769 48.1641 41.5105 49.7184 41.5105 51.6358C41.5105 53.5532 43.4769 55.1075 45.9026 55.1075Z" fill="#FF91AB"/>
<path d="M34 55.2027C35.9503 55.2027 37.5313 53.2591 37.5313 50.8615C37.5313 48.4639 35.9503 46.5203 34 46.5203C32.0497 46.5203 30.4686 48.4639 30.4686 50.8615C30.4686 53.2591 32.0497 55.2027 34 55.2027Z" fill="#FF91AB"/>
<path d="M40.0372 12.0356C40.0372 8.64039 37.2343 5.89967 33.8161 6.00127C30.6749 6.09464 28.0969 8.64198 27.9682 11.7818C27.8908 13.6708 28.6822 15.3762 29.9752 16.5333C30.7647 17.2399 31.2362 18.2341 31.2362 19.2937V20.0358H36.764V19.2934C36.764 18.2496 37.2084 17.2534 37.9913 16.5632C39.2456 15.4574 40.0372 13.8393 40.0372 12.0356Z" fill="#F5D141"/>
<path d="M40.0372 12.0356C40.0372 8.64039 37.2343 5.89967 33.8161 6.00127C30.6749 6.09464 28.0969 8.64198 27.9682 11.7818C27.8908 13.6708 28.6822 15.3762 29.9752 16.5333C30.7647 17.2399 31.2362 18.2341 31.2362 19.2937V20.0358H36.764V19.2934C36.764 18.2496 37.2084 17.2534 37.9913 16.5632C39.2456 15.4574 40.0372 13.8393 40.0372 12.0356Z" fill="#F5D141"/>
<path opacity="0.2" d="M33.2625 20.0358C33.4113 18.1873 33.2036 16.1163 31.7774 14.6381C29.5657 12.3456 30.1388 8.47164 31.7703 6.43018C29.6235 7.29346 28.0674 9.36082 27.9681 11.7816C27.8907 13.6706 28.6821 15.376 29.975 16.5332C30.7646 17.2398 31.2361 18.234 31.2361 19.2936V20.0358H33.2625Z" fill="#C18F00"/>
<path d="M33.9999 27.496C35.9659 27.496 37.5596 25.9023 37.5596 23.9363C37.5596 21.9704 35.9659 20.3767 33.9999 20.3767C32.034 20.3767 30.4403 21.9704 30.4403 23.9363C30.4403 25.9023 32.034 27.496 33.9999 27.496Z" fill="#495059"/>
<path d="M37.6431 24.1954H30.3566C29.6968 24.1954 29.162 23.6606 29.162 23.0008V21.2305C29.162 20.5707 29.6968 20.0359 30.3566 20.0359H37.6431C38.3029 20.0359 38.8378 20.5707 38.8378 21.2305V23.0008C38.8379 23.6606 38.3029 24.1954 37.6431 24.1954Z" fill="#DEE2E5"/>
<path opacity="0.1" d="M32.5099 20.0359H30.3569C29.6971 20.0359 29.1622 20.5707 29.1622 21.2305V23.0008C29.1622 23.6606 29.6971 24.1954 30.3569 24.1954H32.5884C31.8551 23.1169 31.9201 20.9275 32.5099 20.0359Z" fill="#151515"/>
<path d="M29.3107 17.2755C29.8364 17.7459 30.1618 18.3806 30.227 19.0463C29.0794 19.1139 28.1658 20.0662 28.1658 21.2305V23.0008C28.1658 23.9366 28.7566 24.7349 29.5839 25.0482C30.085 27.0312 31.8919 28.4916 33.9997 28.4916C36.1075 28.4916 37.9145 27.0312 38.4156 25.0482C39.2429 24.7349 39.8337 23.9366 39.8337 23.0008V21.2305C39.8337 20.066 38.9197 19.1136 37.7718 19.0463C37.834 18.3772 38.1457 17.7547 38.6496 17.3104C38.9345 17.0593 39.2006 16.7834 39.4409 16.4904C39.7898 16.0652 39.7278 15.4375 39.3024 15.0886C38.877 14.7396 38.2493 14.8019 37.9005 15.2271C37.728 15.4374 37.5367 15.6355 37.3321 15.816C36.4011 16.6368 35.8419 17.8004 35.7745 19.0396H32.2245C32.1552 17.8109 31.5862 16.6387 30.639 15.7909C29.5118 14.7822 28.901 13.3359 28.963 11.8225C29.0707 9.19466 31.2153 7.07497 33.8454 6.99687C36.5993 6.91254 38.9256 9.08203 39.0365 11.8275C39.0586 12.3772 39.5216 12.8053 40.0719 12.7826C40.6216 12.7603 41.0491 12.2968 41.0269 11.747C40.8721 7.91554 37.6252 4.89392 33.7861 5.00535C30.1157 5.11452 27.1229 8.07305 26.9724 11.7407C26.8864 13.8512 27.7385 15.8686 29.3107 17.2755ZM33.9999 26.4995C33.0513 26.4995 32.2127 25.9727 31.77 25.1915H36.23C35.7872 25.9726 34.9486 26.4995 33.9999 26.4995ZM37.6433 21.032C37.7527 21.032 37.8418 21.1211 37.8418 21.2305V23.0008C37.8418 23.1102 37.7527 23.1993 37.6433 23.1993H30.3568C30.2473 23.1993 30.1582 23.1102 30.1582 23.0008V21.2305C30.1582 21.1211 30.2473 21.032 30.3568 21.032H37.6433ZM23.8981 7.0836L25.5573 8.08819C25.7186 8.18581 25.8965 8.2323 26.0722 8.2323C26.4092 8.2323 26.738 8.06123 26.9253 7.75205C27.2102 7.28136 27.0597 6.66896 26.589 6.38395L24.9298 5.37948C24.4594 5.09447 23.8466 5.24508 23.5618 5.71563C23.2769 6.18619 23.4275 6.79872 23.8981 7.0836ZM33.9999 3.89916C34.5501 3.89916 34.996 3.4533 34.996 2.90306V0.99707C34.996 0.446828 34.5501 0.000976562 33.9999 0.000976562C33.4498 0.000976562 33.0039 0.446828 33.0039 0.99707V2.90306C33.0039 3.45317 33.4498 3.89916 33.9999 3.89916ZM22.9988 15.1718C23.0619 15.1718 23.1259 15.1658 23.1901 15.1533L25.0939 14.7829C25.634 14.6778 25.9866 14.1548 25.8815 13.6148C25.7765 13.0748 25.2532 12.722 24.7136 12.8272L22.8096 13.1976C22.2695 13.3027 21.9169 13.8257 22.022 14.3657C22.1147 14.8414 22.5316 15.1718 22.9988 15.1718ZM42.1182 13.6148C42.0132 14.1548 42.3658 14.6778 42.9058 14.7829L44.8097 15.1533C44.874 15.1658 44.9378 15.1718 45.0009 15.1718C45.468 15.1718 45.8851 14.8416 45.9775 14.3658C46.0826 13.8258 45.7299 13.3028 45.1899 13.1978L43.2861 12.8273C42.746 12.7227 42.2234 13.0748 42.1182 13.6148ZM41.9277 8.2323C42.1034 8.2323 42.2813 8.18581 42.4426 8.08819L44.1018 7.0836C44.5724 6.79859 44.723 6.18619 44.4379 5.7155C44.1531 5.24508 43.5407 5.0942 43.07 5.37935L41.4109 6.38395C40.9402 6.66896 40.7897 7.28136 41.0746 7.75205C41.2619 8.0611 41.5907 8.2323 41.9277 8.2323ZM47.0946 51.9097C48.2312 51.7607 50.8609 51.9514 51.8547 52.198C51.9353 52.2179 52.016 52.2276 52.0955 52.2276C52.5424 52.2276 52.949 51.9246 53.0615 51.4713C53.1939 50.9372 52.8685 50.3971 52.3346 50.2645C51.1243 49.9641 48.2401 49.7501 46.8353 49.9345C46.2899 50.0061 45.9057 50.5062 45.9772 51.0517C46.049 51.597 46.5486 51.9805 47.0946 51.9097ZM38.5274 50.8621C38.5274 47.9191 36.4964 45.5246 33.9999 45.5246C31.5035 45.5246 29.4725 47.9189 29.4725 50.8621C29.4725 53.8052 31.5035 56.1993 33.9999 56.1993C36.4964 56.1993 38.5274 53.805 38.5274 50.8621ZM31.4647 50.8621C31.4647 49.0174 32.6021 47.5168 33.9999 47.5168C35.3979 47.5168 36.5352 49.0174 36.5352 50.8621C36.5352 52.7066 35.3979 54.2071 33.9999 54.2071C32.602 54.2072 31.4647 52.7066 31.4647 50.8621ZM44.3391 48.1722V46.6325C44.3391 46.0823 43.8931 45.6364 43.343 45.6364C42.7929 45.6364 42.3469 46.0823 42.3469 46.6325V48.1722C42.3469 48.7224 42.7929 49.1683 43.343 49.1683C43.8931 49.1683 44.3391 48.7224 44.3391 48.1722ZM45.1101 53.9174C44.9699 54.4495 45.2875 54.9942 45.8195 55.1345C46.9271 55.4264 49.2845 56.5973 50.1086 57.2012C50.2861 57.3312 50.4922 57.3939 50.6966 57.3939C51.0033 57.3939 51.3057 57.2526 51.5009 56.9864C51.826 56.5427 51.7299 55.9194 51.2862 55.5943C50.2821 54.8585 47.697 53.5693 46.3273 53.2083C45.7952 53.0682 45.2504 53.3856 45.1101 53.9174ZM59.7959 30.6811C59.3511 29.2111 58.0733 28.1453 56.5404 27.9661C51.9092 27.4238 47.3509 28.8602 43.9301 31.9134C40.8322 30.8164 37.469 30.2391 34.0001 30.2391C30.531 30.2391 27.1679 30.8164 24.07 31.9134C20.649 28.8605 16.0903 27.4254 11.4597 27.9661C9.92688 28.1454 8.64896 29.2111 8.20417 30.6811C6.80725 35.298 7.53891 40.1649 10.2033 44.1298C9.24688 46.3589 8.7479 48.7324 8.7479 51.1716C8.7479 57.6111 12.2486 62.5129 18.8717 65.347C19.3776 65.5631 19.9629 65.3289 20.1793 64.8232C20.3958 64.3173 20.1613 63.7319 19.6555 63.5154C16.8218 62.3028 14.6262 60.6806 13.1291 58.6937C11.544 56.5899 10.7402 54.059 10.7402 51.1715C10.7402 40.7277 21.1746 32.2311 34.0002 32.2311C46.8258 32.2311 57.2602 40.7278 57.2602 51.1715C57.2602 56.0135 55.0352 59.7774 50.6468 62.3586C46.587 64.7465 40.8306 66.0088 33.9999 66.0088C30.3524 66.0088 26.9942 65.6477 24.0188 64.9354C23.4841 64.8075 22.9462 65.1374 22.8182 65.6722C22.6902 66.2072 23.0201 66.7448 23.555 66.8729C26.6821 67.6215 30.1963 68.001 33.9999 68.001C41.1855 68.001 47.2912 66.6436 51.6566 64.0758C56.6256 61.1529 59.252 56.6908 59.252 51.1716C59.252 48.7324 58.753 46.3589 57.7966 44.1298C60.461 40.1649 61.1926 35.2979 59.7959 30.6811ZM16.2158 36.305C14.1515 38.0017 12.486 39.9418 11.2553 42.0477C9.25233 38.4927 9.34503 35.0219 9.74214 32.8085C11.7562 33.2527 14.2868 34.1585 16.6036 35.9938C16.4735 36.0965 16.3439 36.1997 16.2158 36.305ZM18.2748 34.787C15.5948 32.5171 12.6238 31.4166 10.2701 30.8853C10.5596 30.3715 11.0838 30.0157 11.6909 29.9446C13.52 29.7307 17.9415 29.632 21.971 32.7547C20.6767 33.3369 19.4404 34.0159 18.2748 34.787ZM46.0289 32.7548C50.0583 29.6325 54.4796 29.7309 56.3089 29.9447C56.9159 30.0158 57.4402 30.3715 57.7297 30.8855C55.3763 31.4166 52.4052 32.5171 49.7249 34.787C48.5595 34.0159 47.3232 33.3369 46.0289 32.7548ZM56.7445 42.0476C55.5137 39.9418 53.8484 38.0017 51.7839 36.3049C51.6559 36.1997 51.5263 36.0964 51.396 35.9937C53.713 34.1582 56.2435 33.2524 58.2575 32.8083C58.6547 35.0219 58.7474 38.4927 56.7445 42.0476ZM20.9053 51.9097C21.4501 51.9803 21.9508 51.5969 22.0225 51.0516C22.0941 50.5061 21.7099 50.0059 21.1644 49.9344C19.7597 49.7505 16.8755 49.9641 15.6652 50.2644C15.1313 50.3969 14.8059 50.9371 14.9383 51.4711C15.0508 51.9244 15.4573 52.2275 15.9042 52.2275C15.9837 52.2275 16.0644 52.2179 16.145 52.1979C17.139 51.9514 19.7688 51.7607 20.9053 51.9097ZM24.6569 49.1683C25.207 49.1683 25.6529 48.7224 25.6529 48.1722V46.6325C25.6529 46.0823 25.207 45.6364 24.6569 45.6364C24.1067 45.6364 23.6608 46.0823 23.6608 46.6325V48.1722C23.6608 48.7224 24.1067 49.1683 24.6569 49.1683ZM22.8898 53.9174C22.7495 53.3855 22.2046 53.0679 21.6727 53.2082C20.303 53.5692 17.7179 54.8584 16.7139 55.5942C16.2701 55.9193 16.174 56.5427 16.4991 56.9863C16.6942 57.2527 16.9968 57.3938 17.3034 57.3938C17.5078 57.3938 17.7139 57.331 17.8914 57.2011C18.7156 56.5972 21.073 55.4264 22.1806 55.1344C22.7125 54.9943 23.03 54.4495 22.8898 53.9174Z" fill="#151515"/>
</g>
<defs>
<clipPath id="clip0_20_662">
<rect width="68" height="68" fill="white" transform="translate(0 0.000976562)"/>
</clipPath>
</defs>
</svg>
