<svg width="66" height="66" viewBox="0 0 66 66" fill="none" xmlns="http://www.w3.org/2000/svg">
<g clip-path="url(#clip0_716_16624)">
<path d="M16.2861 65.0186C15.4311 65.1338 14.6205 64.569 14.4432 63.7113C13.9465 61.31 14.5331 58.9867 16.0524 57.3368C17.6761 55.5738 20.2165 54.7594 23.0223 55.1026C27.0197 55.5918 27.7832 53.5545 28.7881 49.9113C28.9169 49.4444 29.0501 48.9617 29.1943 48.499C29.4669 47.625 30.3964 47.1376 31.2703 47.41C32.1445 47.6827 32.6319 48.6122 32.3594 49.4861C32.2313 49.8962 32.1113 50.3317 31.9841 50.7928C31.494 52.57 30.9384 54.5844 29.6272 56.1311C28.037 58.0068 25.6794 58.768 22.6194 58.3936C20.8614 58.1786 19.3955 58.601 18.4912 59.5829C17.6928 60.4499 17.4083 61.6775 17.6899 63.0397C17.8754 63.9362 17.2989 64.8133 16.4023 64.9988C16.3636 65.0069 16.3248 65.0135 16.2861 65.0186Z" fill="#DEE2E5"/>
<path d="M16.2863 65.0186C16.3248 65.0134 16.3636 65.0067 16.4024 64.9987C17.2989 64.8132 17.8754 63.9361 17.69 63.0396C17.6117 62.6605 17.5787 62.2923 17.5869 61.9389C16.5095 61.7018 15.1915 61.8834 14.2744 62.1477C14.2806 62.661 14.3344 63.1838 14.4434 63.7111C14.6208 64.5689 15.4314 65.1337 16.2863 65.0186Z" fill="#7694E4"/>
<path d="M36.5084 64.7228C36.2175 64.762 35.9154 64.7532 35.6118 64.6898C34.1779 64.3902 33.2584 62.985 33.5578 61.551C34.2181 58.3905 32.7204 55.7964 31.6214 54.9037C30.4843 53.9802 30.3112 52.3097 31.2348 51.1726C32.1583 50.0354 33.8288 49.8626 34.9657 50.786C36.3944 51.9463 37.5717 53.6794 38.2806 55.6658C39.0751 57.8929 39.2378 60.303 38.7506 62.6358C38.5144 63.7662 37.591 64.577 36.5084 64.7228Z" fill="#DEE2E5"/>
<path opacity="0.1" d="M36.5084 64.7228C36.2175 64.762 35.9154 64.7532 35.6118 64.6898C34.1779 64.3902 33.2584 62.985 33.5578 61.551C34.2181 58.3905 32.7204 55.7964 31.6214 54.9037C30.4843 53.9802 30.3112 52.3097 31.2348 51.1726C32.1583 50.0354 33.8288 49.8626 34.9657 50.786C36.3944 51.9463 37.5717 53.6794 38.2806 55.6658C39.0751 57.8929 39.2378 60.303 38.7506 62.6358C38.5144 63.7662 37.591 64.577 36.5084 64.7228Z" fill="#151515"/>
<path d="M14.7787 50.8629C13.8935 50.9823 12.9692 50.6515 12.3643 49.9078C11.44 48.7714 11.612 47.1009 12.7484 46.1765C16.2409 43.3362 22.9373 42.8948 26.3634 43.4907C27.8065 43.7418 28.7729 45.1153 28.5218 46.5585C28.2707 48.0016 26.8974 48.9681 25.4541 48.7169C22.6846 48.235 17.8927 48.8302 16.0955 50.2918C15.7028 50.6114 15.2461 50.7999 14.7787 50.8629Z" fill="#DEE2E5"/>
<path d="M47.9145 61.1691C47.7624 61.1896 47.6066 61.1971 47.4479 61.1905C45.9843 61.1301 44.8468 59.8946 44.9071 58.431C45.0141 55.8416 43.4451 54.7776 41.8287 53.9096L41.7576 53.8714C40.4676 53.1773 39.9844 51.569 40.6783 50.279C41.3724 48.989 42.9809 48.5059 44.2708 49.1999L44.3381 49.236C45.8523 50.0492 50.4604 52.5234 50.2074 58.6499C50.1535 59.9548 49.1654 61.0007 47.9145 61.1691Z" fill="#DEE2E5"/>
<path opacity="0.1" d="M47.9145 61.1691C47.7624 61.1896 47.6066 61.1971 47.4479 61.1905C45.9843 61.1301 44.8468 59.8946 44.9071 58.431C45.0141 55.8416 43.4451 54.7776 41.8287 53.9096L41.7576 53.8714C40.4676 53.1773 39.9844 51.569 40.6783 50.279C41.3724 48.989 42.9809 48.5059 44.2708 49.1999L44.3381 49.236C45.8523 50.0492 50.4604 52.5234 50.2074 58.6499C50.1535 59.9548 49.1654 61.0007 47.9145 61.1691Z" fill="#151515"/>
<path d="M58.2146 45.4225C57.8672 45.4694 57.5048 45.4476 57.1458 45.347C53.1261 44.2202 49.8669 44.482 46.8893 46.1713C45.6148 46.8941 43.9963 46.4469 43.2736 45.1731C42.5508 43.8989 42.9977 42.2801 44.2718 41.5574C48.502 39.1579 53.1813 38.7267 58.5777 40.2392C59.9882 40.6345 60.8112 42.0985 60.4157 43.509C60.1209 44.5605 59.2322 45.2853 58.2146 45.4225Z" fill="#DEE2E5"/>
<path opacity="0.2" d="M29.6274 56.1309C30.9385 54.5843 31.4941 52.57 31.9844 50.7927C32.1115 50.3316 32.2316 49.8961 32.3596 49.4859C32.6321 48.612 32.1446 47.6824 31.2706 47.4098C30.3966 47.1374 29.4671 47.6248 29.1946 48.4988C29.0503 48.9614 28.9172 49.4442 28.7884 49.9111C28.0632 52.5408 27.463 54.3332 25.6821 54.9433C25.896 55.1407 26.1164 55.3326 26.3442 55.518C27.0666 56.1057 27.8463 56.6178 28.6675 57.0556C29.0132 56.7855 29.3335 56.4776 29.6274 56.1309Z" fill="#151515"/>
<path opacity="0.1" d="M47.644 53.3429C47.8876 53.0466 48.1172 52.743 48.3334 52.4334C46.9504 50.6393 45.1736 49.6846 44.3382 49.236L44.2709 49.1999C42.9809 48.5059 41.3724 48.9891 40.6784 50.279C39.9845 51.5689 40.4675 53.1773 41.7576 53.8713L41.8287 53.9096C42.8802 54.4742 43.9111 55.1222 44.4741 56.2187C45.6593 55.4217 46.7278 54.4571 47.644 53.3429Z" fill="#151515"/>
<path opacity="0.1" d="M37.9163 58.6884C38.2611 58.642 38.6026 58.5841 38.9404 58.5159C38.8297 57.5469 38.6104 56.5907 38.2806 55.666C37.5717 53.6796 36.3945 51.9466 34.9657 50.7863C33.8288 49.8628 32.1583 50.0357 31.2348 51.1729C30.3112 52.31 30.4843 53.9805 31.6214 54.904C32.3603 55.5041 33.2785 56.874 33.6007 58.6674C34.3285 58.773 35.0671 58.8301 35.8117 58.8301C36.5105 58.8301 37.2185 58.7824 37.9163 58.6884Z" fill="#151515"/>
<path opacity="0.2" d="M43.2736 45.1732C43.9963 46.4472 45.6148 46.8942 46.8893 46.1714C48.1284 45.4685 49.4166 45.0136 50.7878 44.8022C50.7901 44.1958 50.7514 43.5857 50.6692 42.9749C50.5114 41.8034 50.197 40.6687 49.7407 39.5942C47.8292 39.9168 46.0124 40.5701 44.2718 41.5574C42.9977 42.2803 42.5508 43.8991 43.2736 45.1732Z" fill="#151515"/>
<path opacity="0.2" d="M28.5217 46.5585C28.7728 45.1153 27.8064 43.7419 26.3633 43.4908C25.0787 43.2674 23.3344 43.1896 21.4714 43.3296C21.3071 44.4943 21.2968 45.6948 21.4603 46.9091C21.5382 47.4873 21.655 48.0563 21.8074 48.6139C23.1303 48.5083 24.4303 48.5389 25.454 48.7169C26.8974 48.9683 28.2706 48.0019 28.5217 46.5585Z" fill="#151515"/>
<path d="M48.1834 43.3091C47.3453 37.0873 41.2383 32.7747 34.5431 33.6766C27.8479 34.5785 23.0998 40.3535 23.938 46.5753C24.7761 52.7971 30.8831 57.1097 37.5783 56.2077C44.2735 55.3058 49.0216 49.5309 48.1834 43.3091Z" fill="#DEE2E5"/>
<path opacity="0.1" d="M35.7956 56.3267C29.7653 53.4356 30.4781 45.7489 30.9796 42.362L30.0099 35.1631C25.8519 37.4496 23.3088 41.8853 23.9406 46.5753C24.7034 52.2384 29.8316 56.3192 35.7956 56.3267Z" fill="#151515"/>
<path d="M61.6145 18.4364C63.3041 30.98 51.4124 39.4847 35.6164 41.6125C19.8205 43.7402 6.10197 38.6851 4.41239 26.1415C2.72281 13.5979 12.5241 3.81708 30.2045 1.43554C47.885 -0.946012 59.9249 5.89261 61.6145 18.4364Z" fill="#82C7E6"/>
<path d="M35.6659 41.9827C30.6338 42.6605 25.9144 42.4755 22.1021 41.2464L21.5822 43.601C21.3869 44.4853 21.9397 45.3616 22.8218 45.5669C26.6886 46.4662 31.2347 46.594 36.197 45.9256C41.1592 45.2572 45.5096 43.931 49.0006 42.0406C49.7969 41.6094 50.0981 40.618 49.6758 39.817L48.5514 37.6838C45.2002 39.8778 40.6979 41.305 35.6659 41.9827Z" fill="#7694E4"/>
<path d="M26.0552 26.4005C28.1595 24.0902 29.2933 20.535 25.2816 16.0457C21.2382 11.5209 16.0486 10.9492 12.1904 11.9391C11.2392 12.1831 10.5199 12.9729 10.3655 13.9426C9.73913 17.876 10.7916 22.99 15.6732 26.5945C20.5167 30.1707 23.9509 28.7107 26.0552 26.4005Z" fill="#EDA751"/>
<path d="M10.2854 14.5422C9.85508 18.3847 11.0356 23.1702 15.673 26.5943C19.8711 29.6942 23.0097 29.0094 25.1421 27.2678C22.0812 16.6296 14.7092 14.6923 10.2854 14.5422Z" fill="#FF91AB"/>
<path d="M40.8113 24.4129C38.1708 22.7417 36.1367 19.6133 38.8175 14.2224C41.5195 8.7889 46.373 6.86445 50.3556 6.79819C51.3374 6.78182 52.24 7.35314 52.6455 8.24749C54.2903 11.875 54.6284 17.0852 50.8745 21.8529C47.15 26.5833 43.452 26.084 40.8113 24.4129Z" fill="#EDA751"/>
<path d="M52.8814 8.80469C54.313 12.3964 54.4408 17.3237 50.8747 21.8529C47.6465 25.953 44.4385 26.1231 41.9214 25.0078C42.0582 13.9386 48.6548 10.1198 52.8814 8.80469Z" fill="#FF91AB"/>
<path d="M54.4793 25.6308C55.7505 35.0685 47.0658 40.4469 35.666 41.9824C24.2662 43.518 14.468 40.6292 13.1967 31.1914C11.9254 21.7537 20.1361 12.8581 31.5361 11.3225C42.9361 9.787 53.2079 16.1931 54.4793 25.6308Z" fill="#FFDC9C"/>
<path d="M27.4968 29.6699C27.2754 28.0263 25.423 26.9193 23.3595 27.1973C21.2959 27.4753 19.8025 29.033 20.0239 30.6766C20.2453 32.3202 22.0977 33.4272 24.1613 33.1492C26.2248 32.8713 27.7182 31.3135 27.4968 29.6699Z" fill="#FF91AB"/>
<path d="M40.2869 27.9475C40.5083 29.5911 42.3607 30.6981 44.4242 30.4201C46.4878 30.1422 47.9812 28.5844 47.7598 26.9408C47.5384 25.2972 45.686 24.1902 43.6224 24.4682C41.5588 24.7462 40.0655 26.3039 40.2869 27.9475Z" fill="#FF91AB"/>
<path d="M37.716 53.1294C39.0879 53.1294 40.2 52.0173 40.2 50.6454C40.2 49.2735 39.0879 48.1614 37.716 48.1614C36.3441 48.1614 35.2319 49.2735 35.2319 50.6454C35.2319 52.0173 36.3441 53.1294 37.716 53.1294Z" fill="#BD4568"/>
<path d="M34.4535 53.3243C34.1056 53.3243 33.7693 53.1358 33.5966 52.8062C33.3487 52.3334 33.531 51.7491 34.0038 51.501L40.5311 48.0783C41.0042 47.8303 41.5884 48.0127 41.8364 48.4855C42.0843 48.9584 41.902 49.5428 41.4292 49.7907L34.9019 53.2134C34.7584 53.2887 34.6049 53.3243 34.4535 53.3243Z" fill="#7694E4"/>
<path d="M56.151 54.1225C57.2362 54.1225 58.1159 53.2427 58.1159 52.1575C58.1159 51.0724 57.2362 50.1926 56.151 50.1926C55.0658 50.1926 54.186 51.0724 54.186 52.1575C54.186 53.2427 55.0658 54.1225 56.151 54.1225Z" fill="#82C7E6"/>
<path d="M7.55525 44.3371C8.64045 44.3371 9.52017 43.4573 9.52017 42.3721C9.52017 41.287 8.64045 40.4072 7.55525 40.4072C6.47006 40.4072 5.59033 41.287 5.59033 42.3721C5.59033 43.4573 6.47006 44.3371 7.55525 44.3371Z" fill="#7694E4"/>
<path d="M11.2266 57.7292C12.3118 57.7292 13.1916 56.8494 13.1916 55.7642C13.1916 54.679 12.3118 53.7993 11.2266 53.7993C10.1414 53.7993 9.26172 54.679 9.26172 55.7642C9.26172 56.8494 10.1414 57.7292 11.2266 57.7292Z" fill="#FF91AB"/>
<path opacity="0.1" d="M24.9928 2.40405C10.6268 5.86429 2.89694 14.891 4.41237 26.1414C5.69241 35.6443 13.8769 40.8478 24.6375 41.8877C27.9252 42.5149 31.6984 42.517 35.6661 41.9826C35.6703 41.9821 35.6744 41.9814 35.6785 41.9808C12.3092 38.9017 17.9224 12.4022 24.9928 2.40405Z" fill="#151515"/>
<path d="M44.8416 27.6783C44.9256 27.6783 45.0109 27.6672 45.0958 27.6443C46.0166 27.3941 48.2899 27.255 49.136 27.3491C49.6671 27.4086 50.1447 27.0259 50.204 26.4953C50.2632 25.9646 49.8809 25.4865 49.3503 25.4273C48.276 25.3075 45.774 25.4562 44.5887 25.7782C44.0735 25.9183 43.7694 26.4494 43.9093 26.9648C44.0263 27.3951 44.4161 27.6783 44.8416 27.6783ZM10.487 42.372C10.487 40.7554 9.17179 39.4401 7.55518 39.4401C5.93856 39.4401 4.62345 40.7554 4.62345 42.372C4.62345 43.9885 5.93869 45.3037 7.55518 45.3037C9.17166 45.3037 10.487 43.9886 10.487 42.372ZM7.55505 43.3701C7.00462 43.3701 6.55692 42.9223 6.55692 42.372C6.55692 41.8215 7.00474 41.3737 7.55505 41.3737C8.10548 41.3737 8.5533 41.8215 8.5533 42.372C8.5533 42.9224 8.10548 43.3701 7.55505 43.3701ZM11.2272 52.833C9.61059 52.833 8.29548 54.1482 8.29548 55.7647C8.29548 57.3813 9.61072 58.6966 11.2272 58.6966C12.8438 58.6966 14.1591 57.3813 14.1591 55.7647C14.1591 54.1482 12.8438 52.833 11.2272 52.833ZM11.2272 56.763C10.6768 56.763 10.2291 56.3151 10.2291 55.7647C10.2291 55.2143 10.6769 54.7666 11.2272 54.7666C11.7776 54.7666 12.2255 55.2144 12.2255 55.7647C12.2255 56.3153 11.7776 56.763 11.2272 56.763ZM58.8386 39.3083C55.7003 38.4286 52.8359 38.1841 50.1073 38.5616L50.017 38.3901C53.7693 36.5165 56.8271 34.145 58.973 31.4229C62.0142 27.5654 63.2253 23.1525 62.5726 18.3071C61.6954 11.7948 58.1679 6.6717 52.3711 3.49119C46.6105 0.330663 38.9002 -0.711546 30.0753 0.47723C21.2498 1.66601 14.0907 4.71103 9.37173 9.28335C4.6232 13.8842 2.57681 19.7583 3.45401 26.2705C4.10667 31.1159 6.4422 35.051 10.3958 37.9663C13.1854 40.0234 16.7618 41.5013 20.8761 42.3153L20.8545 42.4134C18.4513 42.645 14.6998 43.343 12.1382 45.4263C10.59 46.6854 10.3549 48.9694 11.6141 50.5177C12.3107 51.3742 13.3311 51.8542 14.4133 51.8542C14.577 51.8542 14.7421 51.8433 14.9076 51.8209C15.5661 51.7321 16.1877 51.4628 16.7053 51.042C17.8498 50.1113 21.0152 49.4467 23.7354 49.5265C24.3306 50.9869 25.2138 52.2965 26.3126 53.407C25.7373 54.0441 24.8689 54.3547 23.1398 54.1429C20.0217 53.761 17.1787 54.6867 15.3414 56.6818C13.6085 58.5634 12.936 61.1967 13.4965 63.9068C13.7506 65.1349 14.8433 66 16.0674 65.9999C16.1825 65.9999 16.299 65.9922 16.416 65.9764C16.4764 65.9682 16.5371 65.9579 16.5982 65.9452C18.0154 65.6521 18.9299 64.2607 18.6368 62.8436C18.4198 61.7947 18.6208 60.8692 19.2024 60.2376C19.8901 59.491 21.0616 59.1774 22.5021 59.353C25.9049 59.7692 28.5507 58.8956 30.3648 56.7559C30.4848 56.6143 30.5994 56.4662 30.7117 56.3133C31.089 56.4647 31.4756 56.5985 31.8693 56.7163C32.3505 57.5319 33.0631 59.1904 32.6112 61.3532C32.2033 63.3066 33.4606 65.2279 35.4141 65.636C35.6598 65.6873 35.908 65.7129 36.1563 65.7129C36.3168 65.7129 36.4774 65.7022 36.6371 65.6807C38.1542 65.4764 39.3837 64.3321 39.6966 62.8333C40.1158 60.8267 40.0843 58.7528 39.614 56.7752C40.6845 56.4776 41.6946 56.0599 42.6288 55.5403C43.476 56.1833 43.9988 56.9803 43.9406 58.3909C43.9006 59.3568 44.2393 60.2804 44.8941 60.9916C45.5489 61.7028 46.4416 62.1163 47.407 62.1563C47.4574 62.1583 47.5078 62.1594 47.5583 62.1594C47.7205 62.1594 47.8829 62.1486 48.043 62.127C49.6551 61.9098 50.9303 60.6318 51.1443 59.019C51.2145 58.4897 50.8422 58.0037 50.3131 57.9334C49.784 57.8634 49.2977 58.2353 49.2276 58.7648C49.128 59.5151 48.5348 60.1096 47.7852 60.2106C47.6874 60.2237 47.5875 60.2285 47.4872 60.2241C47.0374 60.2055 46.6217 60.013 46.3167 59.6817C46.0118 59.3505 45.8541 58.9203 45.8726 58.4705C45.9537 56.5072 45.1905 55.264 44.3109 54.4335C45.2134 53.7382 46.0153 52.9375 46.6967 52.0553C47.6185 52.9444 48.2979 53.9605 48.7195 55.0877C48.8648 55.4762 49.2334 55.716 49.6251 55.716C49.7376 55.716 49.8521 55.6963 49.9637 55.6544C50.4639 55.4673 50.7176 54.9103 50.5305 54.4102C49.9657 52.9 49.0388 51.5594 47.7723 50.4142C48.4876 49.1112 48.9647 47.687 49.1559 46.1995C51.4201 45.4127 53.8935 45.4393 56.8845 46.2776C57.3634 46.4118 57.8542 46.4462 58.3432 46.3803C59.777 46.1871 60.9557 45.1624 61.3461 43.7698C61.607 42.839 61.4899 41.8621 61.0162 41.0195C60.5428 40.177 59.7693 39.5692 58.8386 39.3083ZM17.1266 37.2781C16.7474 36.9021 16.1353 36.9049 15.7594 37.284C15.3834 37.6633 15.3861 38.2753 15.7654 38.6512C15.8459 38.731 15.9284 38.8094 16.0116 38.8872C9.93041 36.4035 6.1702 31.9481 5.37073 26.0126C4.57872 20.1333 6.42763 14.8286 10.7175 10.6722C15.1375 6.38978 21.9206 3.52703 30.3336 2.39381C38.7468 1.26047 46.0455 2.22623 51.4411 5.1867C56.6778 8.0599 59.8647 12.6862 60.6565 18.5655C61.4567 24.5062 59.0043 29.8015 53.7883 33.807C55.2823 31.3685 55.8497 28.5611 55.4376 25.502C55.1566 23.4155 54.4627 21.4417 53.4003 19.6415C55.1997 15.9219 55.2532 11.656 53.5266 7.84823C52.9607 6.60029 51.7051 5.80893 50.34 5.83149C46.3264 5.89826 42.6014 7.64624 40.023 10.6487C37.267 10.0734 34.3485 9.96849 31.4074 10.3646C28.4661 10.7609 25.6796 11.6342 23.1741 12.9183C19.8933 10.7051 15.8387 10.0048 11.9502 11.0027C10.6232 11.3433 9.62632 12.4376 9.41091 13.7907C8.75336 17.9196 9.93363 22.0193 12.6533 25.1302C12.1049 27.1472 11.958 29.2342 12.239 31.3208C12.3926 32.4622 12.6701 33.5465 13.0632 34.5436C13.2592 35.0403 13.8204 35.2839 14.3174 35.0884C14.814 34.8924 15.0579 34.331 14.8621 33.8342C14.5261 32.9822 14.2883 32.0497 14.1554 31.0627C13.8917 29.1047 14.061 27.1408 14.6345 25.247C14.6556 25.194 14.6724 25.1397 14.6838 25.0844C15.3725 22.904 16.5995 20.82 18.3257 18.9497C18.6281 18.622 18.9428 18.3047 19.2684 17.9977C19.2801 17.9878 19.2908 17.9762 19.3022 17.9656C20.545 16.7994 21.9504 15.786 23.4816 14.943C23.5392 14.9188 23.5945 14.889 23.6471 14.8535C26.0614 13.5513 28.7809 12.6695 31.6658 12.2809C34.5505 11.8922 37.4064 12.023 40.0793 12.6399C40.1394 12.6603 40.2009 12.6745 40.2629 12.6825C41.9514 13.0876 43.5647 13.6881 45.0635 14.4762C45.073 14.4816 45.0827 14.486 45.0924 14.491C45.502 14.7073 45.9033 14.9377 46.2951 15.182C48.4545 16.5288 50.1893 18.2137 51.4303 20.1343C51.456 20.1847 51.4865 20.2327 51.5211 20.278C52.5753 21.9525 53.2581 23.8014 53.5218 25.7598C54.0757 29.8716 52.6303 33.3208 49.2256 36.0113C48.8483 36.3095 48.4479 36.5964 48.0268 36.8726C48.02 36.8769 48.0131 36.8815 48.0064 36.8861C47.3473 37.3168 46.6358 37.7201 45.8752 38.0947C45.8541 38.1044 45.8334 38.1147 45.8133 38.1257C42.999 39.5016 39.5184 40.488 35.5379 41.0241C31.5531 41.561 27.9765 41.5325 24.9385 40.969C24.8725 40.9474 24.8033 40.9321 24.7313 40.9251C24.7138 40.9235 24.6965 40.9214 24.6791 40.9197C23.9175 40.7692 23.1914 40.584 22.5018 40.3652C22.4418 40.3381 22.3784 40.3167 22.3117 40.3019C22.3053 40.3004 22.2989 40.2999 22.2923 40.2986C20.1985 39.6067 18.4558 38.5958 17.1266 37.2781ZM52.2882 10.0306C52.8492 11.837 53.2741 14.6496 52.1053 17.7615C50.8268 16.153 49.219 14.7273 47.3177 13.5416C47.2326 13.4887 47.1465 13.4374 47.0606 13.3855C48.7467 11.6581 50.6872 10.6331 52.2882 10.0306ZM45.3021 12.4329C44.2911 11.9446 43.2374 11.5317 42.1501 11.1966C45.1669 8.19924 48.8267 7.79061 50.372 7.76496C50.8078 7.75606 51.2215 7.94246 51.5087 8.25816C49.5983 8.98996 47.2742 10.2576 45.3021 12.4329ZM11.4643 13.652C11.6565 13.2726 12.0041 12.985 12.4304 12.8756C13.9275 12.4914 17.5649 11.9172 21.2675 14.0094C20.3076 14.6203 19.4008 15.2974 18.555 16.0357C16.0773 14.4597 13.5003 13.8523 11.4643 13.652ZM17.111 17.4197C17.0419 17.4924 16.9724 17.5646 16.9044 17.6383C15.3846 19.2848 14.2113 21.0851 13.4041 22.9746C11.4533 20.2829 11.1191 17.4581 11.182 15.5677C12.8855 15.7251 15.0279 16.2001 17.111 17.4197ZM15.4856 49.5419C15.2443 49.7381 14.9552 49.8636 14.6495 49.9049C14.0622 49.9838 13.488 49.7572 13.1144 49.298C12.528 48.5769 12.6374 47.5132 13.3585 46.9268C14.9422 45.6388 17.5477 44.7323 20.6147 44.383C20.785 45.3966 21.546 46.263 22.6032 46.5088C22.7239 46.5369 22.8474 46.5612 22.9692 46.5877C22.9739 46.6263 22.9774 46.6662 22.9826 46.7044C23.0229 47.0036 23.0777 47.2974 23.14 47.5882C20.3427 47.6118 17.0451 48.2736 15.4856 49.5419ZM28.8901 55.5057C27.5236 57.1175 25.4535 57.7659 22.737 57.4339C20.6616 57.18 18.9013 57.7107 17.7802 58.928C16.7652 60.0302 16.3969 61.56 16.7434 63.2355C16.8206 63.6085 16.5797 63.9748 16.207 64.0519C16.1902 64.0553 16.1735 64.0582 16.1574 64.0604C15.8002 64.1082 15.4633 63.8689 15.3901 63.5152C14.9574 61.4228 15.458 59.4095 16.7637 57.9916C18.174 56.4603 20.4126 55.757 22.9051 56.0621C25.1391 56.3353 26.6844 55.9032 27.7715 54.6731C28.1452 54.95 28.5363 55.206 28.9406 55.4431C28.9237 55.464 28.9072 55.4855 28.8901 55.5057ZM37.8042 62.4382C37.6585 63.1365 37.0858 63.6695 36.3794 63.7647C36.1907 63.79 35.9988 63.783 35.8097 63.7435C34.8999 63.5534 34.3142 62.6586 34.5044 61.7488C34.8873 59.9155 34.6191 58.356 34.2116 57.198C34.7399 57.2595 35.2761 57.2937 35.8192 57.2937C36.4425 57.2937 37.075 57.252 37.7113 57.1663C37.7143 57.1659 37.7172 57.1654 37.7202 57.165C38.1384 58.884 38.1694 60.6905 37.8042 62.4382ZM37.4532 55.2499C31.4809 56.0551 26.0043 52.3631 24.9814 46.954C26.6175 47.1946 28.3371 47.318 30.1369 47.318C32.1093 47.318 34.1757 47.1734 36.3262 46.8837C40.4383 46.3298 44.1129 45.3456 47.286 43.952C47.7294 49.4381 43.4241 54.4456 37.4532 55.2499ZM48.5406 41.1904C45.1202 43.0427 40.9238 44.3134 36.0683 44.9675C31.2125 45.6217 26.8294 45.5065 23.041 44.6253C22.6767 44.5406 22.4458 44.1746 22.5265 43.8097L22.5852 43.5442C22.5857 43.5424 22.5859 43.5405 22.5864 43.5387L22.785 42.6393C23.3449 42.7194 23.9132 42.7882 24.4897 42.8447C26.2204 43.1735 28.1018 43.3411 30.1156 43.3411C31.9092 43.3411 33.8081 43.2087 35.7954 42.9411C39.9735 42.3783 43.6516 41.3305 46.6581 39.8624C47.2041 39.6537 47.7387 39.4351 48.262 39.2077L48.7148 40.0666C48.7159 40.0689 48.7172 40.0711 48.7184 40.0734L48.821 40.2682C48.9951 40.5985 48.8695 41.0124 48.5406 41.1904ZM59.4845 43.2482C59.3026 43.8969 58.7535 44.3744 58.0852 44.4644C57.8584 44.4948 57.6303 44.4787 57.4067 44.416C54.3632 43.5631 51.6759 43.4766 49.2364 44.1531C49.2203 43.8302 49.1909 43.5056 49.147 43.1798C49.142 43.1419 49.1347 43.1027 49.1292 43.0646C49.2398 43.0066 49.3521 42.9499 49.4613 42.8907C50.3827 42.3917 50.884 41.408 50.8242 40.4206C53.1529 40.1663 55.6155 40.413 58.3165 41.1702C58.75 41.2917 59.1103 41.5748 59.3309 41.9672C59.5517 42.3596 59.6062 42.8145 59.4845 43.2482ZM56.1516 49.2258C54.535 49.2258 53.2199 50.541 53.2199 52.1577C53.2199 53.7743 54.535 55.0894 56.1516 55.0894C57.7683 55.0894 59.0834 53.7741 59.0834 52.1577C59.0834 50.5409 57.7683 49.2258 56.1516 49.2258ZM56.1516 53.1556C55.6012 53.1556 55.1535 52.7078 55.1535 52.1575C55.1535 51.6071 55.6013 51.1593 56.1516 51.1593C56.7021 51.1593 57.1498 51.6071 57.1498 52.1575C57.1498 52.708 56.7021 53.1556 56.1516 53.1556ZM23.7431 29.681C23.7418 29.1478 23.3092 28.7166 22.7765 28.7166H22.774C21.5458 28.7197 19.0937 29.2385 18.0894 29.6382C17.5934 29.8357 17.3513 30.3978 17.5488 30.894C17.6996 31.2729 18.063 31.5035 18.4474 31.5035C18.5664 31.5035 18.6874 31.4813 18.8046 31.4346C19.5954 31.1199 21.8246 30.6526 22.7789 30.6502C23.3127 30.649 23.7445 30.2149 23.7431 29.681ZM24.5828 27.0403C24.6482 27.5258 25.0631 27.8782 25.5398 27.8782C25.5827 27.8782 25.6263 27.8754 25.67 27.8695C26.1992 27.7982 26.5704 27.3114 26.4991 26.7823L26.3214 25.4625C26.2501 24.9334 25.763 24.5619 25.2342 24.6334C24.705 24.7047 24.3338 25.1914 24.4051 25.7206L24.5828 27.0403ZM44.3375 30.5578C45.2843 30.6774 47.4394 31.4148 48.1855 31.8243C48.3331 31.9053 48.4925 31.9438 48.6498 31.9438C48.9913 31.9438 49.3223 31.7625 49.4983 31.442C49.755 30.9739 49.584 30.3861 49.1158 30.1292C48.1683 29.6092 45.7985 28.7932 44.5797 28.6393C44.0517 28.5734 43.5664 28.9476 43.4995 29.4773C43.4324 30.0073 43.8077 30.4909 44.3375 30.5578ZM24.8033 31.9956C24.5985 31.5026 24.033 31.2686 23.5397 31.4734C22.4051 31.9443 20.3357 33.3583 19.5597 34.1105C19.1764 34.4821 19.1668 35.0942 19.5385 35.4775C19.7281 35.6732 19.9802 35.7714 20.2327 35.7714C20.4751 35.7714 20.7178 35.6808 20.9056 35.4988C21.5167 34.9065 23.3996 33.6252 24.2812 33.2592C24.7741 33.0546 25.008 32.4888 24.8033 31.9956ZM30.7658 26.9081C31.4591 27.5163 32.3447 27.8458 33.2544 27.8458C33.4216 27.8458 33.5896 27.8347 33.7574 27.812C34.8375 27.6664 35.8017 27.0602 36.4028 26.1488C36.6967 25.7031 36.5736 25.1034 36.1278 24.8095C35.6822 24.5156 35.0826 24.6387 34.7883 25.0843C34.4952 25.529 34.0251 25.8249 33.499 25.8957C32.9737 25.9667 32.4413 25.8058 32.0407 25.4544C31.6392 25.1022 31.0284 25.1422 30.6764 25.5436C30.3244 25.9452 30.3645 26.556 30.7658 26.9081ZM40.4843 24.8984C40.5497 25.3839 40.9646 25.7363 41.4412 25.7363C41.4843 25.7363 41.5277 25.7335 41.5715 25.7276C42.1007 25.6563 42.4718 25.1695 42.4007 24.6404L42.2229 23.3206C42.1516 22.7913 41.665 22.4207 41.1357 22.4915C40.6065 22.5628 40.2354 23.0495 40.3066 23.5787L40.4843 24.8984Z" fill="#151515"/>
</g>
<defs>
<clipPath id="clip0_716_16624">
<rect width="66" height="66" fill="white"/>
</clipPath>
</defs>
</svg>
