<svg width="66" height="66" viewBox="0 0 66 66" fill="none" xmlns="http://www.w3.org/2000/svg">
<path d="M18.1448 57.0217C17.3638 57.0217 16.5883 56.9377 15.8343 56.7682C12.079 55.9236 9.45302 53.1666 9.14441 49.7446C9.0632 48.8436 9.72772 48.0472 10.6289 47.966C11.5282 47.8847 12.3262 48.5493 12.4076 49.4504C12.5858 51.4277 14.2132 53.0455 16.5533 53.572C19.3644 54.2045 23.3187 53.2666 25.9866 48.7385C26.4458 47.959 27.4501 47.6994 28.2294 48.1587C29.0089 48.618 29.2686 49.6222 28.8093 50.4017C27.2741 53.0074 25.1683 54.959 22.7196 56.0454C21.2629 56.6915 19.6936 57.0217 18.1448 57.0217Z" fill="#EDA751"/>
<path d="M12.8482 50.9452C12.6074 50.4819 12.4553 49.9795 12.4076 49.4507C12.3262 48.5496 11.5282 47.885 10.6289 47.9662C9.72784 48.0474 9.0632 48.8438 9.14441 49.7448C9.21441 50.5207 9.40467 51.2619 9.6991 51.9549C10.652 51.895 11.9563 51.6286 12.8482 50.9452Z" fill="#FCD79D"/>
<path d="M38.7725 65.0333C38.5966 65.0333 38.4183 65.0156 38.2394 64.9787C36.8218 64.6858 35.9101 63.299 36.203 61.8814C36.7427 59.2699 36.3375 56.2541 35.6342 54.8474C34.9869 53.5526 35.5116 51.9783 36.8064 51.3309C38.1014 50.6837 39.6755 51.2084 40.3228 52.5031C41.6647 55.1871 42.0722 59.3822 41.3367 62.9423C41.0805 64.1808 39.9895 65.0333 38.7725 65.0333Z" fill="#EDA751"/>
<path d="M27.4515 65.0336C26.3719 65.0336 25.3608 64.3614 24.9804 63.2855C23.3382 58.6405 24.6083 55.0833 25.8984 52.5031C26.5459 51.2085 28.1201 50.6836 29.4149 51.331C30.7096 51.9783 31.2344 53.5528 30.587 54.8474C29.6889 56.6436 28.8978 58.6399 29.9225 61.5383C30.405 62.9031 29.6898 64.4006 28.325 64.8831C28.0364 64.9852 27.7414 65.0336 27.4515 65.0336Z" fill="#EDA751"/>
<path d="M21.1996 47.7676C17.9955 47.7676 13.9984 46.9169 10.8302 44.949C9.60061 44.1852 9.22291 42.5692 9.98668 41.3396C10.7503 40.1099 12.3663 39.7321 13.5961 40.496C16.7066 42.4281 21.0837 42.8157 23.0483 42.3528C24.4574 42.0212 25.8685 42.8937 26.2007 44.3026C26.5328 45.7116 25.6598 47.123 24.2509 47.455C23.3841 47.6595 22.3419 47.7676 21.1996 47.7676Z" fill="#EDA751"/>
<path d="M50.8898 53.7897C49.949 53.7897 49.0396 53.2818 48.5698 52.392C46.7957 49.0319 43.6736 47.8566 41.9704 47.4551C40.5615 47.123 39.6885 45.7116 40.0207 44.3027C40.3529 42.8937 41.7645 42.0209 43.1731 42.353C45.7426 42.9586 50.4628 44.7502 53.2054 49.9443C53.8813 51.2243 53.3916 52.8099 52.1114 53.4859C51.7211 53.692 51.3024 53.7897 50.8898 53.7897Z" fill="#EDA751"/>
<path opacity="0.2" d="M28.2295 48.1589C27.45 47.6996 26.4458 47.9593 25.9866 48.7387C24.4603 51.3295 22.5127 52.7435 20.5991 53.362C21.2163 54.3275 21.9555 55.2165 22.7974 56.0091C25.2127 54.9159 27.2905 52.9797 28.8093 50.4019C29.2686 49.6224 29.009 48.6182 28.2295 48.1589Z" fill="#A35F00"/>
<path opacity="0.2" d="M41.6143 57.4566C41.4406 55.6041 41.0014 53.8602 40.3228 52.5031C39.6755 51.2084 38.1012 50.6837 36.8064 51.3309C35.5116 51.9783 34.9869 53.5528 35.6342 54.8474C36.1439 55.8668 36.4966 57.7312 36.4471 59.6743C38.3366 59.2566 40.0856 58.4922 41.6143 57.4566Z" fill="#A35F00"/>
<path opacity="0.2" d="M29.4149 51.3309C28.1202 50.6837 26.5459 51.2085 25.8985 52.5031C25.2371 53.8259 24.582 55.4063 24.3208 57.2577C25.8369 58.3382 27.5828 59.1472 29.4767 59.6058C29.2831 57.6976 29.9036 56.2143 30.5871 54.8474C31.2345 53.5526 30.7097 51.9783 29.4149 51.3309Z" fill="#A35F00"/>
<path opacity="0.2" d="M23.0483 42.3528C22.1375 42.5674 20.7076 42.5987 19.1262 42.3786C18.7319 43.6221 18.519 44.9385 18.519 46.3011C18.519 46.7363 18.5416 47.1664 18.5839 47.5913C19.49 47.7095 20.3716 47.7676 21.1997 47.7676C22.3419 47.7676 23.3841 47.6594 24.2509 47.455C25.6598 47.123 26.5328 45.7116 26.2007 44.3026C25.8687 42.8938 24.4574 42.0212 23.0483 42.3528Z" fill="#A35F00"/>
<path opacity="0.2" d="M40.0207 44.3026C39.6886 45.7116 40.5615 47.1229 41.9704 47.4551C43.2579 47.7585 45.356 48.5051 47.07 50.3026C47.4805 49.036 47.7021 47.6925 47.7021 46.3011C47.7021 45.5367 47.6343 44.7868 47.5062 44.056C45.8787 43.1256 44.3138 42.6218 43.173 42.3529C41.7644 42.021 40.3529 42.8937 40.0207 44.3026Z" fill="#A35F00"/>
<path d="M33.1109 57.5337C39.7874 57.5337 45.1997 52.5046 45.1997 46.3008C45.1997 40.097 39.7874 35.0679 33.1109 35.0679C26.4343 35.0679 21.022 40.097 21.022 46.3008C21.022 52.5046 26.4343 57.5337 33.1109 57.5337Z" fill="#FCD690"/>
<path opacity="0.15" d="M31.3451 57.4148C25.8208 53.7879 27.533 46.3544 28.4706 43.1035V35.9255C24.0969 37.6163 21.0215 41.6248 21.0215 46.3011C21.0215 51.9477 25.5055 56.6207 31.3451 57.4148Z" fill="#C17A00"/>
<path d="M25.7537 26.8224C28.1193 24.8375 29.6986 21.5054 26.362 16.5796C22.9991 11.6149 17.9921 10.3705 14.0832 10.831C13.1195 10.9446 12.3109 11.6231 12.0318 12.5525C10.8995 16.3221 11.2557 21.469 15.5609 25.643C19.8324 29.7841 23.3881 28.8074 25.7537 26.8224Z" fill="#EDA751"/>
<path d="M11.8745 13.1294C10.9462 16.8357 11.4711 21.678 15.561 25.643C19.2634 29.2326 22.4274 28.976 24.7454 27.5517C23.1511 16.7295 16.1871 13.8598 11.8745 13.1294Z" fill="#FF91AB"/>
<path d="M40.4676 26.8224C38.102 24.8375 36.5226 21.5054 39.8592 16.5796C43.2222 11.6149 48.2292 10.3705 52.138 10.831C53.1017 10.9446 53.9103 11.6231 54.1894 12.5525C55.3217 16.3221 54.9656 21.469 50.6603 25.643C46.3889 29.7841 42.8331 28.8074 40.4676 26.8224Z" fill="#EDA751"/>
<path d="M54.3465 13.1294C55.2748 16.8357 54.7499 21.678 50.6601 25.643C46.9576 29.2326 43.7936 28.976 41.4756 27.5517C43.0699 16.7295 50.034 13.8598 54.3465 13.1294Z" fill="#FF91AB"/>
<path d="M53.6918 29.8184C53.6918 39.2288 44.4773 43.3504 33.1106 43.3504C21.7438 43.3504 12.5293 39.2288 12.5293 29.8184C12.5293 20.4081 21.7438 12.7795 33.1106 12.7795C44.4773 12.7794 53.6918 20.408 53.6918 29.8184Z" fill="#FFDC9C"/>
<path opacity="0.15" d="M22.1211 15.4102C16.3571 18.4297 12.5293 23.7536 12.5293 29.8183C12.5293 37.9077 19.3385 42.089 28.4708 43.1033C15.3616 35.273 17.0713 24.7404 22.1211 15.4102Z" fill="#C17A00"/>
<path d="M44.2399 36.4749C44.6723 36.8337 44.8082 37.441 44.564 37.947C44.1403 38.8248 43.1844 40.1839 41.065 41.4076C38.9455 42.6313 37.2906 42.7796 36.3185 42.7076C35.7581 42.6661 35.3002 42.2447 35.2056 41.691L32.8843 28.112L33.6411 27.675L44.2399 36.4749Z" fill="#7694E4"/>
<path d="M44.2401 36.4748L43.2053 35.6157C42.3496 36.689 41.0902 37.8752 39.5418 38.7693C37.9932 39.6633 36.3363 40.1608 34.979 40.3653L35.2056 41.691C35.3002 42.2449 35.7581 42.6662 36.3185 42.7077C37.2907 42.7796 38.9455 42.6313 41.065 41.4076C43.1844 40.1839 44.1403 38.825 44.564 37.947C44.8084 37.4408 44.6724 36.8336 44.2401 36.4748Z" fill="#82C7E6"/>
<path d="M33.6411 27.6748L32.8843 28.1118L34.2841 36.2998C35.1796 33.8088 36.4185 32.0097 37.4032 30.7983L33.6411 27.6748Z" fill="#82C7E6"/>
<path d="M23.0111 33.1832C25.0692 33.1832 26.7375 31.8546 26.7375 30.2157C26.7375 28.5769 25.0692 27.2483 23.0111 27.2483C20.9531 27.2483 19.2847 28.5769 19.2847 30.2157C19.2847 31.8546 20.9531 33.1832 23.0111 33.1832Z" fill="#FF91AB"/>
<path d="M43.2093 33.1832C45.2674 33.1832 46.9358 31.8546 46.9358 30.2157C46.9358 28.5769 45.2674 27.2483 43.2093 27.2483C41.1513 27.2483 39.4829 28.5769 39.4829 30.2157C39.4829 31.8546 41.1513 33.1832 43.2093 33.1832Z" fill="#FF91AB"/>
<path d="M33.1105 19.5695C38.0593 19.5695 40.8845 17.6703 42.0042 16.7011C42.3387 16.4114 42.3898 15.9123 42.1184 15.5627L33.7663 4.80115C33.434 4.37292 32.7871 4.37292 32.4548 4.80115L24.1025 15.5627C23.8312 15.9123 23.8822 16.4114 24.2167 16.7011C25.3366 17.6702 28.1618 19.5695 33.1105 19.5695Z" fill="#82C7E6"/>
<path d="M33.7662 4.80115C33.4339 4.37292 32.787 4.37292 32.4547 4.80115L24.1026 15.5627C23.8875 15.8398 23.8757 16.2107 24.0465 16.497C27.3574 16.4052 33.2288 15.4522 38.3192 10.6674L33.7662 4.80115Z" fill="#7694E4"/>
<path d="M32.884 8.05869C34.8421 8.05869 36.4295 6.47128 36.4295 4.51311C36.4295 2.55494 34.8421 0.967529 32.884 0.967529C30.9258 0.967529 29.3384 2.55494 29.3384 4.51311C29.3384 6.47128 30.9258 8.05869 32.884 8.05869Z" fill="#78CFC0"/>
<path d="M55.1156 12.2744C54.7247 10.9733 53.6005 10.0298 52.2513 9.87103C48.3162 9.40697 44.442 10.6231 41.5204 13.215L36.6695 6.9647C37.1288 6.25817 37.3969 5.41628 37.3969 4.51251C37.3969 2.02422 35.3727 0 32.8846 0C30.3964 0 28.3722 2.02422 28.3722 4.51238C28.3722 5.54995 28.725 6.50605 29.3158 7.26905L24.7012 13.2149C21.7796 10.6231 17.9049 9.40723 13.9703 9.87091C12.6212 10.0298 11.4969 10.9733 11.106 12.2742C9.9166 16.2341 10.532 20.4077 12.7863 23.8158C11.9791 25.7266 11.5627 27.7501 11.5627 29.8183C11.5627 34.8869 14.0848 38.848 18.7805 41.3449C17.1877 41.0724 15.4912 40.5347 14.1065 39.6747C13.2923 39.169 12.3297 39.0107 11.3967 39.2286C10.4635 39.4468 9.67116 40.0154 9.16559 40.8294C8.66001 41.6435 8.50159 42.6057 8.7197 43.5389C8.93768 44.4721 9.50616 45.2644 10.3202 45.7701C13.0729 47.4798 16.7543 48.556 20.3115 48.7122C20.5554 49.8445 20.9678 50.9205 21.5227 51.9166C20.0235 52.7198 18.3324 52.9814 16.7655 52.6288C14.8429 52.1963 13.5103 50.9147 13.3705 49.3636C13.308 48.6707 12.979 48.0434 12.4442 47.5974C11.9098 47.1516 11.2345 46.9409 10.5421 47.0031C9.11157 47.1322 8.0526 48.4009 8.18151 49.8315C8.52866 53.6799 11.4493 56.773 15.6221 57.7114C16.4392 57.8952 17.288 57.9884 18.1448 57.9884C19.832 57.9884 21.5494 57.6221 23.1116 56.929C23.2137 56.8837 23.3156 56.8368 23.417 56.7883C23.0381 59.0514 23.2535 61.3017 24.0688 63.6075C24.5747 65.0385 25.9342 66 27.4514 66C27.8586 66 28.2611 65.9308 28.6474 65.7941C30.5125 65.1347 31.4935 63.0808 30.834 61.2156C30.4636 60.168 30.3361 59.2043 30.4456 58.2451C31.3062 58.4125 32.1976 58.501 33.1107 58.501C33.9077 58.501 34.6881 58.4336 35.4461 58.3052C35.5322 59.4667 35.4689 60.6563 35.2563 61.6855C34.8561 63.623 36.1066 65.5249 38.0443 65.9252C38.2845 65.9747 38.5295 65.9999 38.7726 65.9999C40.4643 65.9999 41.9409 64.7961 42.2835 63.1376C42.815 60.5654 42.7832 57.5857 42.2106 55.0402C43.6851 53.6992 44.8229 52.0364 45.4918 50.1742C46.1448 50.6891 46.7117 51.2863 47.1808 51.9631C47.3687 52.2339 47.6699 52.3791 47.9762 52.3791C48.1662 52.3791 48.3581 52.3231 48.5262 52.2067C48.965 51.9025 49.0741 51.3001 48.7699 50.8613C48.0334 49.7991 47.1074 48.8958 46.0142 48.1651C46.1144 47.5572 46.1665 46.9347 46.1665 46.301C46.1665 45.6455 46.1118 44.9984 46.0033 44.362C48.1993 45.3998 50.6725 47.2178 52.3503 50.3955C52.7762 51.202 52.4664 52.2048 51.66 52.6306C51.4496 52.7416 51.2241 52.8051 50.9899 52.8194C50.457 52.8519 50.0512 53.3103 50.0837 53.8432C50.115 54.3561 50.5407 54.7512 51.0478 54.7512C51.0675 54.7512 51.0875 54.7507 51.1075 54.7494C51.6179 54.7182 52.1076 54.5807 52.5628 54.3404C54.3122 53.4166 54.9839 51.2419 54.0603 49.4925C51.8582 45.3219 48.4685 43.2099 45.7418 42.1445C46.6029 41.7868 47.4102 41.3869 48.1568 40.9445C52.4106 38.4243 54.6588 34.5768 54.6588 29.8179C54.6588 27.7498 54.2423 25.7262 53.4353 23.8154C55.6896 20.4077 56.305 16.2341 55.1156 12.2744ZM52.025 11.7912C52.4478 11.8411 52.8188 12.0697 53.0558 12.4056C51.0913 12.8717 48.656 13.8062 46.4439 15.6691C45.5311 15.0683 44.5605 14.5291 43.539 14.0575C46.8827 11.5306 50.5111 11.6131 52.025 11.7912ZM32.8846 1.9336C34.3065 1.9336 35.4633 3.09054 35.4633 4.51238C35.4633 5.93435 34.3064 7.09116 32.8846 7.09116C31.4626 7.09116 30.3058 5.93422 30.3058 4.51238C30.3058 3.09054 31.4626 1.9336 32.8846 1.9336ZM26.0378 14.6463C26.0381 14.6459 26.0384 14.6455 26.0387 14.6451L30.7988 8.51197C31.4231 8.83888 32.1324 9.02489 32.8846 9.02489C33.7655 9.02489 34.5877 8.77017 35.2831 8.33189L40.1829 14.6451C40.1831 14.6455 40.1835 14.6459 40.1838 14.6463L41.2751 16.0524C38.5353 18.3522 34.6621 18.6027 33.1108 18.6027C31.5597 18.6027 27.6864 18.3523 24.9465 16.0524L26.0378 14.6463ZM14.1966 11.7912C15.7103 11.6132 19.3389 11.5306 22.6826 14.0575C21.661 14.5291 20.6905 15.0682 19.7777 15.6691C17.5655 13.806 15.1302 12.8716 13.1658 12.4056C13.4028 12.0697 13.7737 11.841 14.1966 11.7912ZM12.6265 14.2653C14.2675 14.6441 16.2913 15.3889 18.1612 16.8476C17.1226 17.6843 16.1786 18.6091 15.349 19.6161C14.7761 20.3116 14.2666 21.0351 13.8203 21.7815C12.2762 18.9015 12.318 16.1043 12.6265 14.2653ZM20.055 46.3011C20.055 46.4557 20.0591 46.6092 20.0653 46.7623C16.9342 46.5723 13.7389 45.6175 11.3405 44.1277C10.9651 43.8946 10.7031 43.5292 10.6025 43.0991C10.502 42.6689 10.5749 42.2252 10.8081 41.8498C11.0412 41.4745 11.4065 41.2124 11.8367 41.1118C12.2668 41.0113 12.7105 41.0844 13.086 41.3176C15.3973 42.7532 18.2288 43.3544 20.407 43.4733C20.1735 44.3925 20.055 45.3378 20.055 46.3011ZM22.3276 55.1618C21.0104 55.7461 19.5641 56.0551 18.145 56.0551C17.4306 56.0551 16.7247 55.9778 16.0466 55.8251C12.709 55.0745 10.3777 52.6536 10.1075 49.658C10.0742 49.2893 10.3471 48.9623 10.7161 48.929C10.8941 48.9126 11.0681 48.9674 11.2059 49.0824C11.3439 49.1975 11.4288 49.359 11.4449 49.5373C11.6616 51.9409 13.5836 53.8949 16.3413 54.5152C18.421 54.9832 20.6562 54.6239 22.6022 53.5318C22.882 53.886 23.1817 54.2257 23.5 54.5492C23.1157 54.7805 22.724 54.986 22.3276 55.1618ZM28.0029 63.9714C27.8242 64.0346 27.6386 64.0667 27.4515 64.0667C26.7521 64.0667 26.1253 63.6232 25.8919 62.9632C25.0844 60.6791 24.9592 58.4596 25.5107 56.2152C26.4441 56.8418 27.4692 57.3562 28.5632 57.7372C28.3602 59.0813 28.5086 60.4387 29.0112 61.8604C29.3153 62.7204 28.8629 63.6673 28.0029 63.9714ZM40.39 62.7465C40.232 63.5113 39.5519 64.0664 38.7728 64.0664C38.6605 64.0664 38.5468 64.0547 38.4353 64.0317C37.5421 63.8471 36.9655 62.9702 37.1501 62.0769C37.4217 60.7626 37.4864 59.2864 37.3468 57.8415C38.4749 57.4789 39.5332 56.9756 40.4984 56.3544C40.8397 58.4258 40.8078 60.7249 40.39 62.7465ZM47.1712 39.2815C46.1782 39.8698 45.0635 40.3772 43.8418 40.802C43.8321 40.8052 43.8224 40.8083 43.8128 40.8119C43.6698 40.8614 43.5254 40.9096 43.3795 40.9568C44.4774 40.01 45.0928 39.076 45.4349 38.3673C45.8726 37.4607 45.6352 36.3766 44.8578 35.731L35.7333 28.1553C35.8008 28.0888 35.8668 28.0205 35.9296 27.9485C36.2803 27.5461 36.2385 26.9353 35.8359 26.5846C35.4334 26.2338 34.8225 26.2757 34.4718 26.6783C34.1281 27.0726 33.632 27.2988 33.1105 27.2988C32.5892 27.2988 32.0929 27.0726 31.7493 26.6783C31.3985 26.2756 30.7878 26.2338 30.3853 26.5846C29.9827 26.9353 29.9408 27.5461 30.2916 27.9485C30.7683 28.4956 31.3877 28.8852 32.0695 29.0833L34.2528 41.8538C34.2833 42.033 34.3358 42.2038 34.4058 42.3644C33.9792 42.3767 33.5479 42.3836 33.1107 42.3836C31.8066 42.3836 30.5283 42.3274 29.311 42.2168C28.7791 42.1689 28.3089 42.5604 28.2607 43.0921C28.2123 43.6239 28.6041 44.0941 29.1359 44.1424C30.4112 44.2585 31.7485 44.3172 33.1108 44.3172C37.0384 44.3172 40.5874 43.8362 43.611 42.9088C44.0239 43.9947 44.233 45.1322 44.233 46.3011C44.233 51.9622 39.2435 56.5676 33.1108 56.5676C26.978 56.5676 21.9886 51.9621 21.9886 46.3011C21.9886 45.1319 22.1977 43.9942 22.6107 42.9082C23.2271 43.097 23.865 43.27 24.5293 43.4226C24.6022 43.4394 24.6749 43.4474 24.7467 43.4474C25.1871 43.4474 25.5852 43.1443 25.6881 42.6968C25.8076 42.1764 25.4826 41.6576 24.9622 41.5381C24.0671 41.3325 23.239 41.0982 22.4728 40.8388C22.4149 40.8124 22.3558 40.7918 22.2962 40.7775C15.1024 38.2751 13.4963 33.5417 13.4963 29.8185C13.4963 27.8482 13.9336 25.9415 14.7433 24.1695C14.7652 24.1281 14.7848 24.0857 14.8004 24.0419C15.9354 21.6208 17.7737 19.4591 20.1607 17.7436C20.225 17.7088 20.2859 17.6662 20.3423 17.6159C21.1565 17.045 22.0306 16.5237 22.9629 16.0627C22.9608 16.5704 23.1722 17.0751 23.5843 17.4319C24.9235 18.5913 27.942 20.5363 33.1108 20.5363C38.2798 20.5363 41.2982 18.5913 42.6373 17.4319C43.0494 17.0752 43.2608 16.5706 43.2587 16.0627C44.191 16.5237 45.065 17.0448 45.8791 17.6158C45.9357 17.666 45.9967 17.7088 46.061 17.7436C48.4479 19.4591 50.2861 21.6206 51.4211 24.0415C51.4368 24.0856 51.4564 24.1284 51.4786 24.17C52.2881 25.9418 52.7252 27.8484 52.7252 29.8185C52.7252 33.9141 50.8566 37.0979 47.1712 39.2815ZM40.0255 39.6066C41.2194 38.9173 42.3623 37.9978 43.3181 36.9658L43.6226 37.2186C43.715 37.2953 43.7442 37.422 43.6936 37.5267C43.313 38.3153 42.4641 39.4835 40.5818 40.5703C38.6995 41.6571 37.2635 41.8079 36.39 41.7434C36.274 41.7349 36.1789 41.6462 36.1588 41.528L36.092 41.1378C37.4638 40.8259 38.8315 40.2959 40.0255 39.6066ZM35.7656 39.2276L34.0656 29.2837L41.8273 35.7279C41.2002 36.3936 40.273 37.2308 39.0587 37.932C37.8445 38.6331 36.6557 39.0175 35.7656 39.2276ZM52.4013 21.7815C51.955 21.0351 51.4456 20.3116 50.8726 19.6161C50.0429 18.6091 49.099 17.6843 48.0602 16.8476C49.9302 15.3889 51.9541 14.6441 53.595 14.2653C53.9036 16.1043 53.9453 18.9013 52.4013 21.7815ZM8.04461 33.0696C7.78654 32.8117 7.78654 32.3918 8.04461 32.1339C9.05653 31.122 9.05653 29.4754 8.04461 28.4636C7.66704 28.0861 7.05487 28.0861 6.6773 28.4636C6.29973 28.8412 6.29973 29.4534 6.6773 29.8308C6.93524 30.0888 6.93524 30.5086 6.6773 30.7666C5.66551 31.7785 5.66551 33.4249 6.6773 34.4368C6.86615 34.6255 7.11352 34.72 7.36102 34.72C7.60852 34.72 7.85589 34.6256 8.04461 34.4369C8.42205 34.0594 8.42218 33.4472 8.04461 33.0696ZM58.6522 40.3206C58.6522 39.6274 58.3823 38.9756 57.8921 38.4855C57.5145 38.1079 56.9023 38.1079 56.5249 38.4855C56.1473 38.8631 56.1473 39.4752 56.5249 39.8528C56.6498 39.9779 56.7186 40.144 56.7186 40.3207C56.7186 40.4975 56.6498 40.6636 56.5249 40.7885C56.0347 41.2788 55.7647 41.9304 55.7647 42.6237C55.7647 43.3169 56.0347 43.9687 56.5249 44.4588C56.7137 44.6475 56.9611 44.7419 57.2085 44.7419C57.4559 44.7419 57.7034 44.6475 57.8922 44.4587C58.2698 44.0811 58.2697 43.4689 57.8922 43.0913C57.7672 42.9664 57.6985 42.8003 57.6985 42.6235C57.6985 42.4468 57.7673 42.2806 57.8922 42.1557C58.3823 41.6656 58.6522 41.0139 58.6522 40.3206ZM47.8527 33.507C46.9925 32.872 44.7772 31.7594 43.603 31.4477C43.0869 31.3112 42.5576 31.6181 42.4206 32.1341C42.2835 32.6501 42.5909 33.1796 43.107 33.3166C44.0173 33.5583 46.0283 34.5636 46.7044 35.0626C46.8771 35.1901 47.0784 35.2516 47.2778 35.2516C47.5743 35.2516 47.8667 35.1157 48.0564 34.859C48.3735 34.4293 48.2823 33.8241 47.8527 33.507ZM59.1292 25.3879C59.1292 25.2112 59.198 25.045 59.3229 24.92C60.3349 23.9081 60.3349 22.2617 59.3229 21.2498C58.9454 20.8722 58.3332 20.8722 57.9556 21.2498C57.5781 21.6273 57.5781 22.2395 57.9556 22.6169C58.2136 22.875 58.2136 23.2946 57.9556 23.5527C57.4654 24.0429 57.1955 24.6945 57.1955 25.3878C57.1955 26.0811 57.4654 26.7328 57.9556 27.2229C58.1445 27.4116 58.3919 27.506 58.6392 27.506C58.8866 27.506 59.1341 27.4116 59.3229 27.2228C59.7005 26.8452 59.7004 26.233 59.3228 25.8555C59.198 25.7308 59.1292 25.5647 59.1292 25.3879ZM24.9226 24.2459C23.3885 24.2459 22.1404 25.494 22.1404 27.0281C22.1404 27.5621 22.5733 27.9949 23.1072 27.9949C23.6412 27.9949 24.074 27.5621 24.074 27.0281C24.074 26.5603 24.4547 26.1795 24.9226 26.1795C25.3904 26.1795 25.7711 26.5602 25.7711 27.0281C25.7711 27.5621 26.204 27.9949 26.7379 27.9949C27.2718 27.9949 27.7047 27.5621 27.7047 27.0281C27.7047 25.494 26.4566 24.2459 24.9226 24.2459ZM48.6987 28.9313C47.6617 28.672 45.1896 28.4872 43.985 28.6466C43.4557 28.7166 43.0833 29.2024 43.1531 29.7317C43.2231 30.261 43.7087 30.6333 44.2383 30.5635C45.1723 30.4399 47.4144 30.6034 48.2295 30.8072C48.3082 30.8269 48.3871 30.8363 48.4647 30.8363C48.8979 30.8362 49.2921 30.543 49.4019 30.1037C49.5316 29.5858 49.2167 29.0607 48.6987 28.9313ZM41.0384 24.9722C40.5045 24.9722 40.0716 25.4051 40.0716 25.939V27.2549C40.0716 27.7888 40.5045 28.2217 41.0384 28.2217C41.5724 28.2217 42.0052 27.7888 42.0052 27.2549V25.939C42.0052 25.4051 41.5724 24.9722 41.0384 24.9722ZM22.6186 31.4476C21.4443 31.7593 19.2291 32.872 18.369 33.5069C17.9394 33.824 17.8482 34.4293 18.1653 34.8588C18.355 35.1156 18.6475 35.2515 18.9439 35.2515C19.1434 35.2515 19.3446 35.19 19.5173 35.0625C20.1934 34.5634 22.2042 33.558 23.1147 33.3165C23.6307 33.1794 23.938 32.65 23.8011 32.134C23.6641 31.618 23.1346 31.3108 22.6186 31.4476ZM21.9832 30.5635C22.5123 30.6335 22.9984 30.2611 23.0684 29.7317C23.1383 29.2024 22.766 28.7164 22.2366 28.6466C21.032 28.4874 18.5601 28.6721 17.5229 28.9313C17.0048 29.0607 16.6899 29.5858 16.8194 30.1037C16.9293 30.543 17.3235 30.8363 17.7566 30.8363C17.8343 30.8363 17.9131 30.8269 17.9918 30.8072C18.807 30.6032 21.0492 30.4398 21.9832 30.5635Z" fill="#151515"/>
</svg>
