<svg width="68" height="68" viewBox="0 0 68 68" fill="none" xmlns="http://www.w3.org/2000/svg">
<path d="M5.67547 41.12C7.0978 41.12 8.25083 39.9669 8.25083 38.5446C8.25083 37.1223 7.0978 35.9692 5.67547 35.9692C4.25313 35.9692 3.1001 37.1223 3.1001 38.5446C3.1001 39.9669 4.25313 41.12 5.67547 41.12Z" fill="#82C7E6"/>
<path d="M41.1736 61.9811C39.8605 61.9811 38.6178 61.6093 37.4206 60.8637C35.7468 59.8214 34.4496 58.233 33.0765 56.5515L32.9766 56.4291C32.3598 55.6741 32.4719 54.5621 33.2269 53.9451C33.982 53.3282 35.094 53.4405 35.7108 54.1955L35.8111 54.3183C38.535 57.6541 39.9753 59.208 42.9277 58.0828C48.9426 55.7915 54.3015 55.6704 57.6302 57.7511C58.4569 58.2678 58.7082 59.3568 58.1916 60.1836C57.6749 61.0104 56.5857 61.2616 55.759 60.7449C53.4108 59.2772 49.0839 59.5156 44.1844 61.382C43.1369 61.7812 42.1364 61.9811 41.1736 61.9811Z" fill="#EDA751"/>
<path d="M57.6301 57.7514C57.2062 57.4864 56.7489 57.2576 56.262 57.064C55.7029 57.6668 54.9222 58.7755 54.8666 60.3055C55.1886 60.4297 55.4876 60.5755 55.7591 60.7451C56.5858 61.2619 57.6749 61.0106 58.1917 60.1839C58.7082 59.3571 58.4569 58.268 57.6301 57.7514Z" fill="#FCD79D"/>
<path d="M14.0256 53.5497C11.0937 53.5497 7.42128 52.8975 4.73302 50.2092C3.63001 49.1062 3.63001 47.3178 4.73302 46.2148C5.83603 45.112 7.62435 45.112 8.72735 46.2148C9.66541 47.1529 12.6736 48.6362 17.3444 47.535C18.8625 47.1776 20.3835 48.118 20.7413 49.6363C21.0991 51.1547 20.1584 52.6755 18.6401 53.0333C17.999 53.1842 16.2193 53.5497 14.0256 53.5497Z" fill="#EDA751"/>
<path opacity="0.2" d="M17.3443 47.5348C15.7433 47.9123 14.3377 47.986 13.1437 47.8821C12.7781 49.1269 12.5818 50.4369 12.5818 51.7895C12.5818 52.3688 12.6188 52.9402 12.6886 53.5022C13.1465 53.5349 13.5942 53.5495 14.0256 53.5495C16.2193 53.5495 17.9989 53.184 18.6399 53.033C20.1582 52.6752 21.0991 51.1544 20.7411 49.6359C20.3835 48.1178 18.8626 47.1773 17.3443 47.5348Z" fill="#A35F00"/>
<path d="M28.1869 63.8946C35.3818 63.8946 41.2145 58.4752 41.2145 51.7901C41.2145 45.1049 35.3818 39.6855 28.1869 39.6855C20.9919 39.6855 15.1593 45.1049 15.1593 51.7901C15.1593 58.4752 20.9919 63.8946 28.1869 63.8946Z" fill="#FCD690"/>
<path opacity="0.15" d="M26.2852 63.7662C20.3321 59.8578 22.177 51.8472 23.1876 48.344V40.6089C18.4743 42.4308 15.1603 46.7504 15.1603 51.7897C15.1603 57.8748 19.9923 62.9105 26.2852 63.7662Z" fill="#C17A00"/>
<path d="M20.2596 30.7995C22.8087 28.6606 24.5106 25.0698 20.9151 19.7617C17.2912 14.4118 11.8956 13.0706 7.6833 13.5669C6.64484 13.6893 5.77346 14.4204 5.47264 15.4219C4.25249 19.484 4.63618 25.0305 9.27559 29.5285C13.8787 33.991 17.7104 32.9384 20.2596 30.7995Z" fill="#EDA751"/>
<path d="M5.30305 16.0435C4.30271 20.0374 4.86836 25.2555 9.27561 29.5283C13.2654 33.3965 16.675 33.12 19.1729 31.5852C17.455 19.9232 9.95056 16.8306 5.30305 16.0435Z" fill="#FF91AB"/>
<path d="M36.1153 30.7995C33.5663 28.6606 31.8643 25.0698 35.4598 19.7617C39.0837 14.4118 44.4792 13.0706 48.6916 13.5669C49.7301 13.6893 50.6015 14.4204 50.9023 15.4219C52.1224 19.484 51.7387 25.0305 47.0993 29.5285C42.4963 33.991 38.6645 32.9384 36.1153 30.7995Z" fill="#EDA751"/>
<path d="M51.0719 16.0435C52.0722 20.0374 51.5066 25.2555 47.0993 29.5283C43.1095 33.3965 39.7 33.12 37.2021 31.5852C38.9199 19.9232 46.4245 16.8306 51.0719 16.0435Z" fill="#FF91AB"/>
<path d="M50.366 34.0278C50.366 44.1685 40.4363 48.61 28.1874 48.61C15.9385 48.61 6.00879 44.1685 6.00879 34.0278C6.00879 23.8872 15.9385 15.6665 28.1874 15.6665C40.4363 15.6665 50.366 23.8871 50.366 34.0278Z" fill="#FFDC9C"/>
<path opacity="0.15" d="M16.3452 18.5015C10.1338 21.7554 6.00879 27.4925 6.00879 34.0279C6.00879 42.7452 13.3465 47.2509 23.1876 48.344C9.06109 39.9059 10.9035 28.5558 16.3452 18.5015Z" fill="#C17A00"/>
<path d="M13.9122 35.3479C16.1304 35.3479 17.9285 33.9161 17.9285 32.1498C17.9285 30.3835 16.1304 28.9517 13.9122 28.9517C11.6941 28.9517 9.896 30.3835 9.896 32.1498C9.896 33.9161 11.6941 35.3479 13.9122 35.3479Z" fill="#FF91AB"/>
<path d="M35.6788 35.3479C37.897 35.3479 39.6951 33.9161 39.6951 32.1498C39.6951 30.3835 37.897 28.9517 35.6788 28.9517C33.4607 28.9517 31.6626 30.3835 31.6626 32.1498C31.6626 33.9161 33.4607 35.3479 35.6788 35.3479Z" fill="#FF91AB"/>
<path d="M24.7962 32.9719C25.9846 32.9719 26.9479 31.6631 26.9479 30.0487C26.9479 28.4343 25.9846 27.1255 24.7962 27.1255C23.6079 27.1255 22.6445 28.4343 22.6445 30.0487C22.6445 31.6631 23.6079 32.9719 24.7962 32.9719Z" fill="#FF91AB"/>
<path d="M46.7887 56.9947C46.5229 56.9559 46.3226 56.7388 46.2943 56.4718C45.8766 52.5399 42.5502 49.4766 38.5074 49.4766C38.0124 49.4766 37.5286 49.524 37.0592 49.6123C36.8494 49.6519 36.6338 49.5741 36.5005 49.4073C34.5549 46.9739 31.5612 45.415 28.2034 45.415C24.3433 45.415 20.9661 47.476 19.1076 50.5566C18.9915 50.7491 18.7737 50.8537 18.5501 50.8315C18.2953 50.8062 18.037 50.7929 17.7755 50.7929C14.6669 50.7929 11.982 52.6044 10.7169 55.2291C10.6271 55.4154 10.446 55.54 10.2401 55.5602C7.34613 55.8431 5.08248 58.2754 5.06866 61.2406C5.05392 64.4107 7.73182 67.0041 10.9021 67.0041H45.9628C48.7548 67.0041 51.0854 64.7703 51.0883 61.9784C51.091 59.4458 49.2223 57.3493 46.7887 56.9947Z" fill="#82C7E6"/>
<g opacity="0.1">
<path d="M20.659 61.5324C20.2476 61.5324 19.8626 61.2755 19.7189 60.8653C19.462 60.1317 18.7667 59.6387 17.9887 59.6387C17.2504 59.6387 16.5875 60.0781 16.3 60.7583C16.0856 61.265 15.5014 61.5019 14.9946 61.2875C14.4879 61.0733 14.2508 60.4888 14.4652 59.9821C15.0654 58.5633 16.4485 57.6465 17.9888 57.6465C19.6122 57.6465 21.0631 58.6755 21.5992 60.207C21.781 60.7263 21.5074 61.2944 20.9882 61.4764C20.8794 61.5144 20.7682 61.5324 20.659 61.5324Z" fill="#151515"/>
<path d="M28.2742 54.6056C27.8652 54.6056 27.4817 54.3517 27.3362 53.9442C27.1376 53.3885 26.7003 52.9728 26.1362 52.8035C25.4293 52.5911 24.668 52.8218 24.197 53.3904C23.8463 53.814 23.2182 53.8733 22.7945 53.5222C22.3709 53.1713 22.3117 52.5435 22.6626 52.1197C23.6451 50.9332 25.2332 50.4525 26.7088 50.8952C27.8688 51.2434 28.8046 52.1326 29.2123 53.274C29.3973 53.792 29.1274 54.362 28.6093 54.547C28.4987 54.5867 28.3855 54.6056 28.2742 54.6056Z" fill="#151515"/>
<path d="M34.3861 61.8849C33.9568 61.8849 33.5605 61.6053 33.4318 61.1729C32.9586 59.5838 33.3925 57.8689 34.564 56.6974C36.321 54.9408 39.1798 54.9407 40.9366 56.6974C41.3256 57.0864 41.3256 57.7171 40.9366 58.1061C40.5476 58.4952 39.9169 58.4951 39.5279 58.1062C38.5477 57.1258 36.9527 57.1258 35.9726 58.1062C35.3189 58.7599 35.0769 59.7173 35.3411 60.6044C35.4981 61.1318 35.1979 61.6865 34.6707 61.8435C34.576 61.8713 34.4802 61.8849 34.3861 61.8849Z" fill="#151515"/>
</g>
<path d="M52.871 9.47259L49.8752 6.47687L54.7355 1.61659C55.1328 1.21922 55.6716 0.996094 56.2334 0.996094H64.1918C64.583 0.996094 64.9001 1.31325 64.9001 1.70438V4.52426C64.9001 4.91552 64.5829 5.23255 64.1918 5.23255H57.1109L52.871 9.47259Z" fill="#495059"/>
<path d="M53.7653 15.9916L43.3562 5.58253L44.215 5.09683C47.0951 3.46802 50.7082 3.96009 53.0478 6.29985C55.3876 8.63961 55.8796 12.2525 54.2508 15.1327L53.7653 15.9916Z" fill="#DEE2E5"/>
<path d="M51.7684 18.501L40.8469 7.5797C40.2247 6.95747 40.2247 5.94876 40.8469 5.32653C41.4691 4.70431 42.4779 4.70431 43.1001 5.32653L54.0214 16.248C54.6436 16.8702 54.6436 17.8789 54.0214 18.5011C53.3993 19.1231 52.3904 19.1231 51.7684 18.501Z" fill="#495059"/>
<path d="M40.4257 52.4235C40.216 52.4235 40.0031 52.3999 39.7901 52.351C35.1201 51.277 31.7208 47.5372 30.7902 46.4166C29.7937 45.2166 29.9585 43.4358 31.1586 42.4394C32.3583 41.4427 34.1392 41.6074 35.1359 42.8078C36.4034 44.3341 38.7144 46.3074 41.0563 46.8459C42.5765 47.1955 43.5254 48.7113 43.1757 50.2315C42.875 51.5386 41.7121 52.4235 40.4257 52.4235Z" fill="#EDA751"/>
<path d="M50.4902 49.7621C51.9125 49.7621 53.0655 48.609 53.0655 47.1867C53.0655 45.7644 51.9125 44.6113 50.4902 44.6113C49.0678 44.6113 47.9148 45.7644 47.9148 47.1867C47.9148 48.609 49.0678 49.7621 50.4902 49.7621Z" fill="#82C7E6"/>
<path d="M55.0218 39.4935C56.024 39.4935 56.8364 38.6811 56.8364 37.6789C56.8364 36.6767 56.024 35.8643 55.0218 35.8643C54.0196 35.8643 53.2072 36.6767 53.2072 37.6789C53.2072 38.6811 54.0196 39.4935 55.0218 39.4935Z" fill="#82C7E6"/>
<path d="M35.3282 14.4671C35.5823 14.4671 35.8365 14.3704 36.0308 14.1771C36.4275 13.7824 38.0116 12.6313 38.6852 12.1822C39.1429 11.8772 39.2667 11.2588 38.9616 10.801C38.6565 10.3433 38.0382 10.2195 37.5802 10.5247C37.1467 10.8136 35.2353 12.1585 34.6258 12.7649C34.2357 13.1528 34.2341 13.7835 34.6222 14.1736C34.8167 14.3691 35.0725 14.4671 35.3282 14.4671ZM50.49 43.616C48.5206 43.616 46.9185 45.2183 46.9185 47.1875C46.9185 49.1567 48.5206 50.7589 50.49 50.7589C52.4593 50.7589 54.0614 49.1567 54.0614 47.1875C54.0614 45.2183 52.4593 43.616 50.49 43.616ZM50.49 48.7668C49.6191 48.7668 48.9107 48.0583 48.9107 47.1875C48.9107 46.3166 49.6191 45.6082 50.49 45.6082C51.3608 45.6082 52.0693 46.3166 52.0693 47.1875C52.0693 48.0583 51.3608 48.7668 50.49 48.7668ZM15.2568 27.5412V28.9594C15.2568 29.5096 15.7028 29.9555 16.2529 29.9555C16.803 29.9555 17.249 29.5096 17.249 28.9594V27.5412C17.249 26.991 16.803 26.5451 16.2529 26.5451C15.7028 26.5451 15.2568 26.9911 15.2568 27.5412ZM32.3426 27.5412V28.9594C32.3426 29.5096 32.7886 29.9555 33.3387 29.9555C33.8888 29.9555 34.3348 29.5096 34.3348 28.9594V27.5412C34.3348 26.991 33.8888 26.5451 33.3387 26.5451C32.7886 26.5451 32.3426 26.9911 32.3426 27.5412ZM21.648 30.0483C21.648 32.2458 23.0307 33.9672 24.7958 33.9672C26.5609 33.9672 27.9437 32.2458 27.9437 30.0483C27.9437 27.8508 26.561 26.1294 24.7958 26.1294C23.0306 26.1294 21.648 27.8508 21.648 30.0483ZM25.9514 30.0483C25.9514 31.1837 25.3423 31.975 24.7957 31.975C24.249 31.975 23.6401 31.1837 23.6401 30.0483C23.6401 28.9129 24.249 28.1216 24.7957 28.1216C25.3425 28.1216 25.9514 28.9129 25.9514 30.0483ZM9.52929 37.531C9.73475 37.531 9.94207 37.4676 10.12 37.3363C10.8514 36.7965 13.027 35.7086 14.0121 35.4471C14.5438 35.3058 14.8604 34.7605 14.7193 34.2287C14.5782 33.6971 14.0328 33.3808 13.501 33.5216C12.24 33.8563 9.86079 35.0515 8.93694 35.7333C8.49428 36.0601 8.40038 36.6836 8.7271 37.1263C8.92233 37.391 9.22382 37.531 9.52929 37.531ZM64.1917 0H56.2335C55.4014 0 54.6193 0.324062 54.0312 0.912156L51.1206 3.82274C48.7762 2.82731 46.0331 2.92427 43.7245 4.22981L43.494 4.36023C43.0543 4.03949 42.528 3.86365 41.9734 3.86365C41.2817 3.86365 40.6314 4.13299 40.1424 4.62201C39.1328 5.63165 39.1328 7.27441 40.1424 8.28391L44.5462 12.6877C41.8334 13.1494 39.31 14.3573 37.2459 16.1991C34.4179 15.1973 31.3505 14.6702 28.1875 14.6702C25.0239 14.6702 21.9563 15.1975 19.128 16.1994C15.9858 13.3947 11.8095 12.0774 7.56685 12.5773C6.13114 12.7463 4.93477 13.7503 4.51867 15.135C3.23902 19.3951 3.90375 23.8857 6.33422 27.5498C5.46589 29.6013 5.01273 31.7843 5.01273 34.0276C5.01273 34.3668 5.02415 34.7009 5.04461 35.0306C3.37529 35.3296 2.104 36.7912 2.104 38.5452C2.104 40.5145 3.70625 42.1167 5.67547 42.1167C6.24457 42.1167 6.80118 41.9782 7.30016 41.7223C7.94563 42.6518 8.72577 43.5119 9.64164 44.2988C10.8269 45.3172 12.2161 46.1934 13.7987 46.925C10.8015 46.8377 9.44761 45.5264 9.43167 45.5105C7.94204 44.021 5.51848 44.0212 4.02872 45.5105C3.30715 46.2322 2.90964 47.1915 2.90964 48.212C2.90964 49.2327 3.30715 50.192 4.02859 50.9135C5.63814 52.5232 7.69939 53.606 10.1693 54.1467C10.0826 54.2932 9.99878 54.442 9.92042 54.5943C9.11637 54.6996 8.34672 54.9469 7.62967 55.331C7.14477 55.5907 6.96215 56.1943 7.2218 56.6792C7.40136 57.0145 7.74521 57.2054 8.10075 57.2054C8.25946 57.2053 8.42043 57.1673 8.57011 57.0871C9.12049 56.7924 9.71482 56.6123 10.3369 56.5516C10.8861 56.4979 11.3755 56.1568 11.6143 55.6615C12.7481 53.3089 15.1665 51.7889 17.7756 51.7889C17.9995 51.7889 18.2269 51.8003 18.4519 51.8226C19.0571 51.8824 19.6491 51.5876 19.9606 51.0711C20.4595 50.244 21.0647 49.5118 21.753 48.8867C21.8163 48.8429 21.8741 48.7913 21.9259 48.734C23.6426 47.2486 25.846 46.4112 28.2034 46.4112C28.6893 46.4112 29.1753 46.4477 29.6537 46.52C29.7603 46.7048 29.8829 46.8835 30.0238 47.0531C31.0047 48.2344 34.5918 52.1778 39.5674 53.3221C39.85 53.3869 40.1388 53.4198 40.4257 53.4198C41.4813 53.4198 42.4446 52.9931 43.1412 52.2866C44.3527 53.4042 45.1279 54.9226 45.3038 56.5772C45.3582 57.0889 45.6518 57.5268 46.0714 57.7762C46.0871 57.7861 46.1033 57.795 46.1194 57.8039C46.1316 57.8106 46.1438 57.8175 46.1563 57.8239C46.1656 57.8286 46.1749 57.8328 46.1843 57.8371C46.3271 57.9068 46.4816 57.9566 46.6451 57.9805C48.6123 58.267 50.0942 59.9853 50.0922 61.9774C50.0898 64.1997 48.2374 66.0078 45.9627 66.0078H10.902C9.62305 66.0078 8.36439 65.4801 7.44878 64.5603C6.55057 63.658 6.05916 62.4806 6.06487 61.2452C6.067 60.7797 6.13632 60.3205 6.27086 59.8802C6.4317 59.3542 6.13553 58.7974 5.60946 58.6366C5.08299 58.476 4.5265 58.7721 4.3658 59.2983C4.17442 59.9243 4.07587 60.5763 4.07282 61.236C4.06458 63.0053 4.76211 64.6853 6.03698 65.9658C7.32354 67.2585 9.09685 68 10.902 68H45.9628C49.3348 68 52.0808 65.2991 52.0844 61.9792C52.0848 61.5744 52.0428 61.1776 51.9649 60.7921C53.3206 60.8231 54.4361 61.0928 55.2311 61.5898C55.6757 61.8676 56.1779 62.0106 56.6894 62.0106C56.8977 62.0106 57.1075 61.9868 57.3155 61.9388C58.0343 61.773 58.6453 61.3372 59.0362 60.7118C59.4271 60.0862 59.5511 59.3461 59.3852 58.6273C59.2194 57.9086 58.7836 57.2976 58.1582 56.9068C55.4933 55.241 51.6255 54.8473 47.199 55.7759C46.8368 53.711 45.75 51.8463 44.132 50.5078C44.1364 50.4899 44.1425 50.4727 44.1466 50.4547C44.4704 49.0466 43.967 47.638 42.9565 46.7395C43.6908 46.3824 44.3823 45.9946 45.0234 45.577C45.4844 45.2767 45.6148 44.6597 45.3145 44.1987C45.0143 43.7375 44.3972 43.6075 43.9364 43.9075C42.9271 44.565 41.7723 45.1444 40.5026 45.6348C38.7678 44.973 36.9984 43.491 35.9024 42.1714C35.2504 41.3862 34.3316 40.9019 33.3153 40.8078C32.2989 40.7134 31.3072 41.0211 30.5223 41.6731C29.6565 42.3922 29.1898 43.4157 29.1477 44.4604C28.8337 44.4351 28.5187 44.4189 28.2034 44.4189C25.476 44.4189 22.9196 45.3476 20.8875 47.003C19.3692 46.7305 17.963 46.3741 16.6762 45.9329C16.6413 45.9183 16.6061 45.9057 16.5705 45.8952C14.3238 45.113 12.4381 44.0752 10.9399 42.7878C8.80068 40.9497 7.52607 38.6389 7.13507 35.9011C7.13454 35.8962 7.13375 35.8914 7.13308 35.8865C7.04821 35.2871 7.00492 34.6677 7.00492 34.0278C7.00492 24.4525 16.5074 16.6625 28.1875 16.6625C34.961 16.6625 41.0019 19.2828 44.8821 23.3514C44.3923 24.2323 43.9932 25.1 43.8333 25.5752C43.6578 26.0966 43.9383 26.6616 44.4598 26.8369C44.5651 26.8724 44.6723 26.8892 44.7775 26.8892C45.1934 26.8892 45.5815 26.6265 45.7215 26.2105C45.8324 25.8808 46.0297 25.4451 46.265 24.9855C48.2338 27.6209 49.37 30.7175 49.37 34.0279C49.37 36.7897 48.5732 39.1922 47.0019 41.1682C46.6595 41.5987 46.731 42.2253 47.1617 42.5677C47.5923 42.9103 48.2189 42.8387 48.5614 42.4081C50.4199 40.0707 51.3622 37.2514 51.3622 34.0279C51.3622 31.7847 50.909 29.6018 50.0409 27.5506C51.8465 24.8369 52.4163 22.1236 52.4834 19.9273C52.6196 19.9491 52.757 19.9627 52.8947 19.9627C53.5577 19.9627 54.2208 19.7102 54.7256 19.2055C55.2148 18.7163 55.484 18.0662 55.484 17.3745C55.484 16.8199 55.3082 16.2934 54.9874 15.8538L55.1178 15.6231C56.4234 13.3146 56.5203 10.5716 55.5249 8.22734L57.5232 6.22904H64.1916C65.1315 6.22904 65.896 5.46444 65.896 4.52466V1.70452C65.8962 0.764601 65.1316 0 64.1917 0ZM5.67547 40.1245C4.80461 40.1245 4.09619 39.4161 4.09619 38.5452C4.09619 37.8034 4.61124 37.1809 5.302 37.0123C5.51543 38.0647 5.84732 39.06 6.2957 39.9969C6.10259 40.0803 5.89314 40.1245 5.67547 40.1245ZM57.1023 58.5961C57.2764 58.7049 57.398 58.8751 57.444 59.0751C57.4903 59.2754 57.4557 59.4815 57.3468 59.6558C57.2379 59.83 57.0678 59.9514 56.8676 59.9975C56.6675 60.0437 56.4612 60.0092 56.287 59.9003C55.0194 59.1079 53.2614 58.7347 51.1764 58.8073C50.8382 58.263 50.4155 57.7749 49.9261 57.3619C52.8429 57.0702 55.3287 57.4876 57.1023 58.5961ZM31.7952 43.2056C32.1264 42.9304 32.5345 42.7836 32.9599 42.7836C33.0169 42.7836 33.0743 42.7863 33.1317 42.7917C33.618 42.8367 34.0576 43.0683 34.3696 43.444C35.626 44.957 37.8513 46.8806 40.2098 47.643C40.216 47.645 40.222 47.647 40.2282 47.6489C40.429 47.7133 40.6306 47.7703 40.8329 47.8168C41.8153 48.0427 42.4309 49.0257 42.205 50.0083C42.173 50.1475 42.1248 50.2788 42.0648 50.4025C42.0551 50.4212 42.0455 50.4401 42.0371 50.4592C41.7269 51.0464 41.1169 51.4277 40.4256 51.4277C40.2883 51.4277 40.1493 51.4117 40.0132 51.3805C35.647 50.3762 32.4364 46.8402 31.5564 45.7803C30.9124 45.0046 31.0194 43.8496 31.7952 43.2056ZM16.8469 48.0825C17.5982 48.3133 18.3823 48.5185 19.198 48.6985C18.9109 49.053 18.6414 49.426 18.3928 49.8184C17.6946 49.7691 17.0029 49.8064 16.3299 49.9202C16.4447 49.2943 16.6172 48.6806 16.8469 48.0825ZM14.5046 48.915C14.3757 49.453 14.2826 49.9993 14.2274 50.5524C13.234 50.9915 12.3247 51.6103 11.5508 52.3763C9.02367 52.0006 6.96839 51.0361 5.43733 49.5048C5.09202 49.1595 4.90183 48.7004 4.90183 48.212C4.90183 47.7236 5.09202 47.2645 5.43733 46.9193C6.15027 46.2065 7.31025 46.2067 8.02293 46.9192C8.65525 47.5517 9.70287 48.1173 10.897 48.4714C12.0166 48.8031 13.2255 48.9508 14.5046 48.915ZM11.8696 20.277C10.0179 21.8101 8.51606 23.558 7.39419 25.4539C5.67454 22.2907 5.73337 19.214 6.07669 17.2124C7.87139 17.621 10.0991 18.4354 12.151 20.0498C12.0568 20.1251 11.9624 20.2001 11.8696 20.277ZM13.8155 18.8364C11.4065 16.7989 8.74875 15.7901 6.61883 15.2928C6.87875 14.8897 7.30786 14.6139 7.7998 14.5559C9.44548 14.3621 13.402 14.272 17.0337 17.0489C15.9095 17.5655 14.8334 18.1625 13.8155 18.8364ZM39.3394 17.0481C41.7985 15.1616 44.3919 14.5913 46.346 14.4872L47.7398 15.8811C45.8041 16.5674 44.07 17.5579 42.5605 18.8371C41.5419 18.1625 40.4648 17.565 39.3394 17.0481ZM48.9812 25.4547C48.5056 24.6511 47.9619 23.8741 47.3518 23.1288C47.6021 22.7594 47.8232 22.4816 47.9651 22.3809C48.4139 22.0627 48.5198 21.4411 48.2016 20.9922C47.8834 20.5433 47.2617 20.4376 46.8129 20.7558C46.5548 20.9388 46.2717 21.2468 45.9855 21.6231C45.5199 21.1586 45.0269 20.7091 44.5052 20.2771C44.4124 20.2003 44.3179 20.1252 44.2238 20.0498C45.6978 18.8867 47.4062 18.0195 49.3224 17.4642L50.4697 18.6115C50.5895 20.4294 50.3685 22.9035 48.9812 25.4547ZM53.317 17.7965C53.0842 18.0294 52.7054 18.0294 52.4726 17.7965L52.1419 17.4658C52.1415 17.4654 52.141 17.4648 52.1406 17.4644L41.5513 6.87517C41.3185 6.64235 41.3185 6.2637 41.5514 6.03075C41.6642 5.91786 41.8141 5.85597 41.9736 5.85597C42.1332 5.85597 42.2831 5.91799 42.3959 6.03088L53.3172 16.9522C53.4299 17.0649 53.4921 17.2149 53.4921 17.3744C53.4919 17.5339 53.4298 17.6837 53.317 17.7965ZM53.5363 14.3538L44.9939 5.81148C47.4264 4.59677 50.4051 5.06573 52.3437 7.00427C54.2821 8.94266 54.7511 11.9215 53.5363 14.3538ZM63.904 4.23659H57.1108C56.8467 4.23659 56.5933 4.34151 56.4065 4.52824L54.4911 6.44366C54.2661 6.14762 54.0204 5.86354 53.7523 5.59539C53.4841 5.32724 53.2002 5.08167 52.9041 4.85669L55.44 2.32077C55.6519 2.1088 55.9337 1.99205 56.2335 1.99205H63.904V4.23659ZM12.8108 32.4793C13.3569 32.5511 13.8567 32.1675 13.9288 31.6223C14.0008 31.0768 13.6171 30.5762 13.0717 30.5042C11.7779 30.3334 9.12288 30.5319 8.00925 30.8102C7.47561 30.9437 7.15114 31.4845 7.28462 32.0183C7.39778 32.4709 7.80392 32.7731 8.25017 32.7731C8.33012 32.7731 8.41154 32.7634 8.49255 32.7432C9.37403 32.5225 11.7998 32.3456 12.8108 32.4793ZM35.5795 35.4473C36.5646 35.7088 38.7402 36.7965 39.4716 37.3364C39.6496 37.4677 39.8569 37.5311 40.0623 37.5311C40.3677 37.5311 40.6692 37.3911 40.8645 37.1265C41.1913 36.6839 41.0972 36.0603 40.6547 35.7336C39.7308 35.0516 37.3516 33.8566 36.0907 33.5219C35.5593 33.3812 35.0136 33.6973 34.8724 34.229C34.7313 34.7606 35.0479 35.3059 35.5795 35.4473ZM41.3416 32.7729C41.7878 32.7729 42.194 32.4708 42.3071 32.0182C42.4406 31.4845 42.1162 30.9436 41.5824 30.8101C40.4688 30.5317 37.8138 30.3332 36.52 30.5041C35.9746 30.5761 35.5908 31.0768 35.6628 31.6221C35.7348 32.1675 36.2356 32.5511 36.7807 32.4792C37.7914 32.3456 40.2175 32.5223 41.0989 32.7428C41.1804 32.7632 41.2615 32.7729 41.3416 32.7729ZM57.8319 37.6793C57.8319 36.1295 56.5709 34.8686 55.0212 34.8686C53.4714 34.8686 52.2104 36.1295 52.2104 37.6793C52.2104 39.2291 53.4714 40.4899 55.0212 40.4899C56.5711 40.4899 57.8319 39.2291 57.8319 37.6793ZM54.2026 37.6793C54.2026 37.228 54.5699 36.8608 55.0212 36.8608C55.4725 36.8608 55.8397 37.228 55.8397 37.6793C55.8397 38.1305 55.4725 38.4977 55.0212 38.4977C54.5699 38.4977 54.2026 38.1306 54.2026 37.6793ZM35.1511 22.8508C35.3148 22.9527 35.4968 23.0013 35.6763 23.0013C36.009 23.0013 36.3343 22.8346 36.523 22.5314C36.9034 21.9199 37.5421 21.0605 38.0269 20.6005C38.4258 20.2218 38.4424 19.5913 38.0638 19.1923C37.6851 18.7932 37.0547 18.7765 36.6556 19.1554C35.9266 19.8471 35.1661 20.9413 34.8317 21.4787C34.5409 21.9458 34.684 22.5601 35.1511 22.8508Z" fill="#151515"/>
</svg>
