<svg width="66" height="66" viewBox="0 0 66 66" fill="none" xmlns="http://www.w3.org/2000/svg">
<g clip-path="url(#clip0_716_17431)">
<path d="M11.3023 52.931C10.3666 52.931 9.42259 52.6704 8.50839 52.1529C6.03532 50.7533 5.76488 48.5344 5.56752 46.9146C5.34567 45.094 5.24435 44.263 2.88704 43.8444C2.06011 43.6976 1.50878 42.9082 1.65547 42.0812C1.8023 41.2543 2.59133 40.7032 3.41865 40.8498C7.99122 41.6618 8.34945 44.6015 8.58651 46.5467C8.77187 48.0681 8.91934 48.8908 10.0063 49.5061C10.7235 49.9119 11.3851 49.9934 12.0287 49.755C13.1351 49.3453 14.0205 48.1023 14.3752 47.1207C14.6606 46.3306 15.5324 45.9216 16.322 46.207C17.112 46.4924 17.5211 47.3641 17.2357 48.1539C16.6747 49.7069 15.251 51.8053 13.0847 52.6072C12.5011 52.8235 11.9034 52.931 11.3023 52.931Z" fill="#EDA751"/>
<path d="M4.33521 44.2786C4.7851 43.7337 5.3421 42.9024 5.50181 41.4785C4.92767 41.2123 4.2424 40.9961 3.41869 40.8498C2.59124 40.7032 1.80246 41.2543 1.65551 42.0812C1.50869 42.9082 2.06002 43.6974 2.88708 43.8443C3.51537 43.956 3.9824 44.0974 4.33521 44.2786Z" fill="#FCD79D"/>
<path d="M19.1119 60.2938C18.8427 60.2938 18.5691 60.2488 18.301 60.154C17.034 59.7061 16.3701 58.3161 16.8181 57.0491C17.979 53.7654 18.065 52.7219 17.3589 50.4805C16.9553 49.1987 17.6672 47.8325 18.9489 47.4289C20.2306 47.0253 21.5969 47.7371 22.0005 49.0188C23.1435 52.6487 22.7614 54.837 21.406 58.6711C21.0529 59.6697 20.1141 60.2938 19.1119 60.2938Z" fill="#EDA751"/>
<path d="M29.5955 58.8449C29.3263 58.8449 29.0527 58.7999 28.7846 58.7051C27.5176 58.2572 26.8537 56.8672 27.3017 55.6002C28.1675 53.1509 26.6525 51.4049 26.3184 51.1626C25.2305 50.3737 24.9882 48.8523 25.7771 47.7645C26.566 46.6766 28.0873 46.4341 29.1752 47.2232C31.0982 48.6178 33.5356 52.5656 31.8896 57.2219C31.5364 58.2207 30.5977 58.8449 29.5955 58.8449Z" fill="#EDA751"/>
<path d="M29.5955 58.8449C29.3263 58.8449 29.0527 58.7999 28.7846 58.7051C27.5176 58.2572 26.8537 56.8672 27.3017 55.6002C28.1675 53.1509 26.6525 51.4049 26.3184 51.1626C25.2305 50.3737 24.9882 48.8523 25.7771 47.7645C26.566 46.6766 28.0873 46.4341 29.1752 47.2232C31.0982 48.6178 33.5356 52.5656 31.8896 57.2219C31.5364 58.2207 30.5977 58.8449 29.5955 58.8449Z" fill="#EDA751"/>
<path opacity="0.2" d="M29.1752 47.223C28.0874 46.4339 26.566 46.6763 25.7771 47.7643C24.9882 48.8521 25.2304 50.3734 26.3184 51.1624C26.5879 51.3578 27.625 52.532 27.562 54.264C28.2226 54.0009 28.8572 53.6908 29.4605 53.3376C29.5693 53.274 29.7026 53.2755 29.8107 53.3404C30.035 53.4748 30.2895 53.5657 30.5641 53.5988L32.4274 53.8241C32.3231 50.7161 30.6071 48.2614 29.1752 47.223Z" fill="#A35F00"/>
<path opacity="0.2" d="M16.3223 46.2072C15.5325 45.9216 14.6608 46.3308 14.3754 47.1209C14.0208 48.1025 13.1352 49.3455 12.029 49.7552C11.7197 49.8696 11.4062 49.9096 11.0845 49.876C11.8004 50.8145 12.6462 51.659 13.5971 52.3867C15.4761 51.4676 16.7205 49.5812 17.236 48.1542C17.5213 47.3642 17.1123 46.4926 16.3223 46.2072Z" fill="#A35F00"/>
<path opacity="0.2" d="M18.949 47.4289C17.6673 47.8325 16.9555 49.1988 17.3591 50.4805C17.8439 52.02 17.9552 52.9946 17.601 54.5181C19.0497 55.0094 20.6104 55.2779 22.2364 55.2779C22.2961 55.2779 22.3555 55.2765 22.4149 55.2757C22.846 53.2208 22.763 51.4402 22.0005 49.0188C21.597 47.7372 20.2306 47.0253 18.949 47.4289Z" fill="#A35F00"/>
<path d="M22.2362 52.7757C28.434 52.7757 33.4583 48.1069 33.4583 42.3477C33.4583 36.5885 28.434 31.9197 22.2362 31.9197C16.0384 31.9197 11.0142 36.5885 11.0142 42.3477C11.0142 48.1069 16.0384 52.7757 22.2362 52.7757Z" fill="#FCD690"/>
<path opacity="0.15" d="M20.5972 52.6645C15.4689 49.2976 17.0582 42.3969 17.9288 39.379V32.7156C13.8686 34.2851 11.0137 38.0061 11.0137 42.3473C11.0135 47.5893 15.1762 51.9272 20.5972 52.6645Z" fill="#C18F00"/>
<path d="M15.3259 25.132C17.2971 23.0507 18.4005 19.8103 14.8012 15.6212C11.1734 11.3991 6.42394 10.7822 2.86781 11.6213C1.99098 11.8281 1.31732 12.5396 1.15838 13.4262C0.513719 17.0227 1.3877 21.7316 5.80068 25.1247C10.1791 28.4911 13.3548 27.2134 15.3259 25.132Z" fill="#EDA751"/>
<path d="M1.07481 13.9749C0.611526 17.4914 1.609 21.9014 5.80103 25.1247C9.59616 28.0427 12.4869 27.4707 14.4736 25.9114C11.8561 16.0996 5.12956 14.1913 1.07481 13.9749Z" fill="#FF91AB"/>
<path d="M28.8957 23.5724C26.5037 21.9926 24.694 19.0869 27.2491 14.1904C29.8242 9.25538 34.3099 7.57677 37.9638 7.58721C38.8646 7.58978 39.6822 8.12977 40.0381 8.95735C41.4819 12.3138 41.6991 17.0983 38.171 21.404C34.6705 25.6762 31.2877 25.1522 28.8957 23.5724Z" fill="#EDA751"/>
<path d="M40.2446 9.47266C41.4937 12.7924 41.5228 17.3138 38.1712 21.4041C35.1372 25.1071 32.1921 25.2058 29.9033 24.1379C30.2264 13.9882 36.3446 10.6034 40.2446 9.47266Z" fill="#FF91AB"/>
<path d="M41.4093 24.9335C42.407 33.6122 34.3458 38.3901 23.8628 39.595C13.38 40.8 4.44497 37.9755 3.44736 29.2969C2.45014 20.6182 10.1395 12.606 20.6223 11.4012C31.1051 10.1962 40.4119 16.2549 41.4093 24.9335Z" fill="#FFDC9C"/>
<path opacity="0.15" d="M10.7666 14.9924C5.7708 18.3882 2.80493 23.7039 3.44791 29.297C4.30539 36.7573 11.0284 39.8917 19.558 39.8592C6.63821 34.0272 7.09841 24.1323 10.7666 14.9924Z" fill="#C18F00"/>
<path d="M14.24 27.5328C14.0662 26.0212 12.3866 24.9726 10.4884 25.1908C8.59021 25.409 7.19229 26.8113 7.36604 28.323C7.5398 29.8346 9.21945 30.8832 11.1176 30.665C13.0158 30.4468 14.4137 29.0445 14.24 27.5328Z" fill="#FF91AB"/>
<path d="M25.9885 26.182C26.1623 27.6936 27.8419 28.7422 29.7401 28.524C31.6383 28.3058 33.0362 26.9035 32.8625 25.3919C32.6887 23.8802 31.0091 22.8317 29.1109 23.0499C27.2127 23.268 25.8148 24.6704 25.9885 26.182Z" fill="#FF91AB"/>
<path d="M50.1131 54.4533L31.2299 52.1692C30.2649 52.0525 29.5392 51.2333 29.5396 50.2614L29.5512 16.5103L60.2454 20.223L52.2096 53.0035C51.9783 53.9475 51.0781 54.57 50.1131 54.4533Z" fill="#78CFC0"/>
<path opacity="0.15" d="M29.5408 46.5427L29.5396 50.2615C29.5392 51.2336 30.265 52.0526 31.2299 52.1694L50.1131 54.4534C51.0781 54.5701 51.9781 53.9477 52.2095 53.0038L53.095 49.3918L29.5408 46.5427Z" fill="#151515"/>
<path d="M43.104 41.0908C47.4608 41.0908 50.9927 37.5589 50.9927 33.2022C50.9927 28.8454 47.4608 25.3135 43.104 25.3135C38.7472 25.3135 35.2153 28.8454 35.2153 33.2022C35.2153 37.5589 38.7472 41.0908 43.104 41.0908Z" fill="white"/>
<path d="M63.3175 14.0481L28.0397 9.78115C26.9709 9.65186 25.9999 10.4134 25.8706 11.4821L25.5583 14.0641C25.429 15.1328 26.1905 16.1039 27.2592 16.233L62.5368 20.5001C63.6056 20.6294 64.5766 19.8678 64.7059 18.7992L65.0183 16.2172C65.1478 15.1484 64.3861 14.1774 63.3175 14.0481Z" fill="#B77866"/>
<path opacity="0.15" d="M63.3175 14.0481L28.0397 9.78115C26.9709 9.65186 25.9999 10.4134 25.8706 11.4821L25.5583 14.0641C25.429 15.1328 26.1905 16.1039 27.2592 16.233L62.5368 20.5001C63.6056 20.6294 64.5766 19.8678 64.7059 18.7992L65.0183 16.2172C65.1478 15.1484 64.3861 14.1774 63.3175 14.0481Z" fill="#151515"/>
<path d="M61.0259 13.7709L30.3315 10.0581L32.0857 6.99608C32.5981 6.10173 33.596 5.60093 34.6194 5.72468L57.8949 8.53999C58.9183 8.66374 59.7679 9.38806 60.0523 10.3787L61.0259 13.7709Z" fill="#B77866"/>
<path d="M43.9789 37.8706C43.2302 37.9411 42.6079 37.302 42.6982 36.5555L43.5095 29.8481C43.6099 29.0181 44.5186 28.5535 45.2501 28.9583C46.661 29.7388 47.4575 31.2967 47.2639 32.8975L47.0207 34.9082C46.8295 36.4883 45.5633 37.7214 43.9789 37.8706Z" fill="#B77866"/>
<path d="M41.1412 37.5274C41.8515 37.7744 42.608 37.3021 42.6984 36.5556L43.5097 29.8482C43.6101 29.0182 42.8384 28.3505 42.0314 28.569C40.4753 28.9905 39.3302 30.3137 39.1366 31.9145L38.8933 33.9252C38.7022 35.5053 39.638 37.005 41.1412 37.5274Z" fill="#B77866"/>
<path opacity="0.15" d="M41.1412 37.5274C41.8515 37.7744 42.608 37.3021 42.6984 36.5556L43.5097 29.8482C43.6101 29.0182 42.8384 28.3505 42.0314 28.569C40.4753 28.9905 39.3302 30.3137 39.1366 31.9145L38.8933 33.9252C38.7022 35.5053 39.638 37.005 41.1412 37.5274Z" fill="#151515"/>
<path opacity="0.1" d="M29.5396 50.2614C29.5392 51.2335 30.265 52.0524 31.2299 52.1692L45.0805 53.8445C36.3385 44.369 34.9927 31.561 35.1356 21.9037C35.1514 20.8407 36.0864 20.0272 37.1417 20.1548L59.5962 22.8709L60.2454 20.223L29.5512 16.5103L29.5396 50.2614Z" fill="#151515"/>
<path d="M24.3616 46.8354C22.7404 46.8354 21.2972 46.5723 20.2095 46.0603C18.9936 45.488 18.4721 44.0386 19.0442 42.8227C19.6165 41.6069 21.0659 41.0853 22.2818 41.6574C23.684 42.3175 28.5368 41.9896 31.2297 39.8271C32.2776 38.9857 33.809 39.153 34.6503 40.2008C35.4917 41.2485 35.3245 42.7799 34.2766 43.6214C32.4438 45.0931 29.8891 46.154 27.0828 46.6084C26.1432 46.7604 25.2269 46.8354 24.3616 46.8354Z" fill="#EDA751"/>
<path d="M20.018 26.0191C21.0343 25.9023 21.9502 25.351 22.5308 24.5069C22.8333 24.067 22.722 23.465 22.282 23.1624C21.8418 22.8597 21.24 22.9714 20.9375 23.4112C20.6736 23.795 20.258 24.0453 19.7969 24.0983C19.336 24.1514 18.8742 24.0017 18.5303 23.6878C18.1359 23.3281 17.5243 23.3562 17.1645 23.7505C16.8046 24.1451 16.8327 24.7565 17.2272 25.1162C17.8838 25.7151 18.7359 26.0422 19.6136 26.0422C19.7482 26.0422 19.8832 26.0346 20.018 26.0191ZM27.1106 24.2531C27.1474 24.2531 27.1847 24.251 27.2222 24.2468C27.7527 24.1858 28.1332 23.7064 28.0723 23.1758L27.9329 21.9622C27.8719 21.4317 27.3924 21.0511 26.8619 21.112C26.3315 21.173 25.9509 21.6524 26.0118 22.183L26.1512 23.3966C26.208 23.8896 26.626 24.2531 27.1106 24.2531ZM12.4882 25.9339C12.5251 25.9339 12.5623 25.9318 12.5998 25.9275C13.1303 25.8665 13.5108 25.3871 13.4499 24.8566L13.3104 23.643C13.2494 23.1125 12.7701 22.731 12.2394 22.793C11.709 22.8539 11.3284 23.3333 11.3894 23.8638L11.5289 25.0774C11.5856 25.5704 12.0037 25.9339 12.4882 25.9339ZM42.0409 41.9925C42.4027 42.0362 42.7633 42.0579 43.122 42.0579C45.092 42.0579 46.994 41.4043 48.5684 40.1697C50.4296 38.7102 51.611 36.6131 51.8951 34.265C52.4815 29.4177 49.0148 24.9971 44.1677 24.4109C41.8195 24.1269 39.5014 24.7743 37.6401 26.2337C35.779 27.6932 34.5976 29.7903 34.3135 32.1383C34.0294 34.4864 34.6769 36.8046 36.1363 38.6658C37.5959 40.527 39.6928 41.7085 42.0409 41.9925ZM36.2329 32.3704C36.4549 30.5351 37.3783 28.8959 38.833 27.7552C40.064 26.79 41.5501 26.2794 43.0902 26.2794C43.3703 26.2794 43.6527 26.2963 43.9352 26.3304C47.7241 26.7888 50.4337 30.244 49.9753 34.0328C49.7533 35.8682 48.8299 37.5074 47.3751 38.6481C45.9204 39.7889 44.1085 40.2947 42.2729 40.0729C40.4375 39.8509 38.7984 38.9274 37.6577 37.4727C36.517 36.018 36.0109 34.2059 36.2329 32.3704ZM40.8239 38.4405C41.0549 38.5208 41.2934 38.5604 41.5305 38.5604C41.8587 38.5604 42.1838 38.4833 42.4828 38.3343C42.8703 38.6633 43.3577 38.8427 43.8659 38.8427C43.9335 38.8427 44.0015 38.8395 44.0697 38.833C44.0697 38.833 44.0697 38.833 44.0699 38.833C46.092 38.6426 47.737 37.041 47.981 35.0242L48.2243 33.0136C48.4663 31.0122 47.4828 29.0882 45.7187 28.1124C45.1003 27.7703 44.3571 27.7551 43.7253 28.0692C43.1866 27.6134 42.4612 27.4509 41.7791 27.6359C39.8332 28.1629 38.4194 29.7968 38.1772 31.7984L37.9339 33.809C37.6898 35.8258 38.9052 37.7734 40.8239 38.4405ZM43.6584 36.6718L44.4697 29.9644C44.4809 29.872 44.5378 29.8246 44.5837 29.8012C44.6089 29.7882 44.6422 29.7769 44.6806 29.7769C44.7117 29.7769 44.7462 29.7843 44.7827 29.8044C45.8543 30.3973 46.4517 31.5658 46.3046 32.7817L46.0613 34.7923C45.9259 35.9127 45.0119 36.8025 43.8886 36.9082C43.8059 36.9158 43.7493 36.8782 43.717 36.845C43.6848 36.8119 43.6485 36.7549 43.6585 36.6718C43.6584 36.6718 43.6584 36.6718 43.6584 36.6718ZM39.8532 34.0415L40.0965 32.0309C40.2435 30.8151 41.1024 29.8226 42.2844 29.5024C42.3741 29.4782 42.4396 29.513 42.4785 29.5468C42.5174 29.5804 42.5614 29.64 42.5502 29.7324L41.7389 36.4398C41.7288 36.5229 41.6798 36.5696 41.6406 36.5941C41.6013 36.6184 41.5379 36.642 41.4587 36.6144C40.3929 36.2437 39.7177 35.1617 39.8532 34.0415ZM11.282 28.1805C11.2505 27.6475 10.7928 27.2408 10.2597 27.2726C9.12686 27.3398 6.89291 27.9464 5.98812 28.3678C5.50408 28.5931 5.29435 29.1683 5.51967 29.6522C5.68351 30.0042 6.03246 30.2113 6.39675 30.2113C6.53339 30.2113 6.67222 30.1821 6.8041 30.1206C7.50638 29.7937 9.50739 29.2541 10.3742 29.2027C10.9072 29.171 11.3136 28.7135 11.282 28.1805ZM65.3785 14.1837C64.8978 13.5708 64.2072 13.1817 63.434 13.0883L61.7787 12.8881L60.982 10.1122C60.5896 8.74503 59.4236 7.75129 58.0113 7.58036L34.7359 4.76505C33.3241 4.59437 31.9545 5.28132 31.2473 6.51559L29.8118 9.0214L28.1565 8.82121C27.3833 8.72762 26.62 8.94096 26.007 9.42153C25.6766 9.68076 25.4138 10.0022 25.2247 10.3636C23.6704 10.2345 22.0889 10.2594 20.5125 10.4408C17.7765 10.7553 15.2209 11.5186 12.9412 12.6291C9.95792 10.5434 6.24116 9.83209 2.64661 10.6802C1.39222 10.9761 0.434838 11.987 0.207576 13.2555C-0.471631 17.0448 0.537319 20.8399 2.97816 23.7569C2.44926 25.5694 2.26556 27.4729 2.4878 29.407C2.77371 31.895 3.68212 34.0376 5.18748 35.7752C5.37865 35.9959 5.64794 36.109 5.91864 36.109C6.14294 36.109 6.36839 36.0313 6.55131 35.8728C6.95479 35.5232 6.99862 34.9126 6.64889 34.5091C5.40301 33.0713 4.64943 31.2803 4.40876 29.1862C3.47367 21.0512 10.7968 13.5036 20.7333 12.3616C22.0947 12.205 23.4592 12.1743 24.8024 12.2692L24.5993 13.9479C24.5058 14.7212 24.719 15.4845 25.1997 16.0975C25.6804 16.7103 26.3708 17.0994 27.1441 17.1929L28.5847 17.3672L28.5777 37.7693C27.0694 38.1485 25.4505 38.4394 23.7531 38.6344C19.2027 39.1575 15.2119 38.8899 12.0497 37.8647C12.0493 37.8646 12.049 37.8643 12.0486 37.8642C12.0123 37.8499 11.9756 37.8387 11.9387 37.829C11.2118 37.5878 10.5294 37.3061 9.89475 36.9843C9.4187 36.7429 8.83669 36.933 8.59512 37.4091C8.35368 37.8853 8.54381 38.4672 9.01999 38.7088C9.48251 38.9434 9.96836 39.1568 10.4729 39.3529C10.1903 40.3245 10.0474 41.3278 10.0474 42.3474C10.0474 44.6734 10.7975 46.8385 12.0823 48.6436C11.9515 48.7319 11.821 48.8015 11.6934 48.8488C11.4439 48.9411 11.0811 49.0036 10.4828 48.6651C9.83533 48.2986 9.7273 47.9143 9.54632 46.4299C9.30797 44.4747 8.8644 40.8352 3.5875 39.8982C2.23656 39.6583 0.94376 40.5624 0.703994 41.9125C0.58785 42.5667 0.733385 43.2271 1.11379 43.7716C1.49432 44.3163 2.06408 44.6803 2.71828 44.7965C3.82842 44.9936 4.11911 45.2441 4.24118 45.4152C4.44614 45.7026 4.51408 46.2602 4.60818 47.0319C4.81804 48.7531 5.13502 51.3546 8.03257 52.9945C9.0918 53.594 10.1919 53.8979 11.3027 53.8979C12.02 53.8979 12.7326 53.7688 13.4207 53.514C14.279 53.1963 15.0752 52.6929 15.7985 52.0187C16.1315 52.2131 16.475 52.3929 16.8285 52.5572C16.9027 53.5554 16.6599 54.5966 15.9067 56.727C15.2819 58.4945 16.2115 60.4408 17.9789 61.0655C18.3449 61.1949 18.7262 61.2607 19.1122 61.2607C20.55 61.2607 21.8382 60.3494 22.3177 58.9935C23.0275 56.9857 23.5031 55.3365 23.6149 53.6663C24.5734 53.5642 25.5126 53.3583 26.4129 53.0515C26.6102 53.6116 26.7097 54.3751 26.3905 55.2777C25.7656 57.0452 26.6952 58.9915 28.4629 59.6165C28.829 59.7459 29.2102 59.8115 29.596 59.8115C31.0338 59.8115 32.322 58.9003 32.8015 57.5442C33.2858 56.1744 33.4763 54.7862 33.3734 53.4024L49.9976 55.4132C50.1144 55.4273 50.2307 55.4342 50.3458 55.4342C51.6587 55.4342 52.8297 54.5372 53.1491 53.2338L60.9808 21.2859L62.4215 21.4602C62.5406 21.4746 62.6593 21.4817 62.7775 21.4817C63.4263 21.4817 64.0526 21.2665 64.571 20.8599C65.1838 20.3792 65.573 19.6888 65.6666 18.9156L65.9789 16.3336C66.0721 15.5599 65.859 14.7967 65.3785 14.1837ZM3.78021 21.6168C2.14246 19.2036 1.87756 16.7153 1.95451 15.0197C3.46994 15.1985 5.34797 15.6624 7.16748 16.7575C5.74371 18.2138 4.59387 19.8549 3.78021 21.6168ZM8.63727 15.3996C6.44148 13.953 4.14708 13.3466 2.30449 13.1151C2.48329 12.8423 2.76018 12.6398 3.09031 12.5619C4.44627 12.242 7.71404 11.79 11.0134 13.6913C10.1711 14.2125 9.37655 14.7836 8.63727 15.3996ZM23.9738 40.5551C25.5805 40.3704 27.1226 40.1026 28.5767 39.7587L28.5766 40.1993C26.4646 41.0016 23.9937 41.1397 22.9196 40.8593C22.8025 40.8288 22.7323 40.8008 22.6936 40.7826C22.629 40.7522 22.5637 40.7246 22.4979 40.6986C22.984 40.6595 23.4755 40.6123 23.9738 40.5551ZM12.7495 51.7007C11.5279 52.1529 10.2329 52.0179 8.98493 51.3117C6.93635 50.1522 6.71915 48.3702 6.52746 46.7976C6.27352 44.7135 5.96994 43.4099 3.05628 42.8925C2.75554 42.8391 2.55419 42.5509 2.60755 42.2502C2.66105 41.9495 2.94928 41.7486 3.24989 41.8016C7.11824 42.4886 7.38843 44.7065 7.62703 46.6636C7.80247 48.1033 7.96825 49.4633 9.53033 50.3475C10.497 50.8944 11.4505 51.0001 12.3645 50.6617C12.6999 50.5375 13.0242 50.3562 13.3355 50.1234C13.5998 50.3875 13.8773 50.6399 14.1671 50.8797C13.7211 51.2414 13.2467 51.5165 12.7495 51.7007ZM20.4947 58.3488C20.2879 58.9339 19.7322 59.3271 19.1122 59.3271C18.9464 59.3271 18.7821 59.2986 18.6234 59.2425C17.861 58.9731 17.46 58.1335 17.7295 57.3713C18.3449 55.6305 18.7003 54.4186 18.7638 53.2701C19.6919 53.5285 20.6656 53.6863 21.6711 53.7294C21.5483 55.1303 21.1203 56.5793 20.4947 58.3488ZM22.2364 51.8085C16.5814 51.8085 11.9808 47.5642 11.9808 42.3471C11.9808 41.5339 12.0927 40.7336 12.3119 39.9574C14.4174 40.5339 16.8043 40.8272 19.4168 40.8272C19.5155 40.8272 19.6154 40.8258 19.7148 40.8249C19.551 40.9075 19.3919 41.0023 19.2407 41.1125C18.8093 41.427 18.7144 42.0317 19.0289 42.4633C19.3435 42.8947 19.9482 42.9896 20.3797 42.6751C20.814 42.3586 21.3851 42.3041 21.8698 42.5323C22.0333 42.6093 22.2223 42.676 22.4313 42.7305C24.0973 43.1653 27.2966 42.9182 29.8916 41.7477C29.9332 41.7316 29.9736 41.7132 30.0121 41.6918C30.6737 41.3837 31.2938 41.0155 31.8349 40.5811C32.4655 40.0748 33.3901 40.1758 33.8963 40.8063C34.4027 41.4368 34.3016 42.3615 33.6711 42.8678C32.4901 43.8163 30.9774 44.582 29.2803 45.1057C29.2664 45.1096 29.2526 45.1135 29.2389 45.118C28.4991 45.3442 27.7252 45.5252 26.928 45.6542C26.0483 45.7967 25.1847 45.869 24.3613 45.869C22.8635 45.869 21.5702 45.6328 20.6208 45.1859C20.4716 45.1158 20.3372 45.0229 20.2212 44.9097C19.8388 44.5369 19.2267 44.5446 18.8541 44.9269C18.4813 45.3093 18.4891 45.9213 18.8714 46.294C19.1418 46.5576 19.4534 46.7734 19.7975 46.9353C21.0026 47.5026 22.5807 47.8025 24.3613 47.8025C25.288 47.8025 26.2554 47.7219 27.2372 47.563C27.6895 47.4897 28.1351 47.3995 28.5739 47.2968L28.573 49.7845C26.7714 51.092 24.5397 51.8085 22.2364 51.8085ZM30.9783 56.8995C30.7714 57.4847 30.2158 57.8778 29.5958 57.8778C29.43 57.8778 29.2655 57.8493 29.1069 57.7933C28.3446 57.5238 27.9437 56.6842 28.2131 55.922C28.7378 54.4379 28.5373 53.183 28.1933 52.2857C28.4767 52.1373 28.754 51.9782 29.0247 51.8085C29.4756 52.5173 30.2273 53.0217 31.1139 53.1289L31.4064 53.1642C31.5589 54.4071 31.4163 55.6606 30.9783 56.8995ZM51.2711 52.7732C51.1562 53.2418 50.7084 53.5512 50.2295 53.4934L31.3463 51.2092C30.8683 51.1514 30.5079 50.7454 30.5067 50.2641C30.5067 50.262 30.5066 50.2599 30.5066 50.2579L30.5078 46.7346C32.1744 46.149 33.672 45.3467 34.8821 44.375C36.3436 43.201 36.5778 41.0569 35.4041 39.5954C34.2304 38.1337 32.0861 37.8995 30.6246 39.0732C30.5874 39.103 30.5486 39.1313 30.5105 39.1603L30.5178 17.6008L59.0472 21.0516L51.2711 52.7732ZM64.0591 16.1009L63.7468 18.6829C63.7152 18.9434 63.5842 19.1761 63.3777 19.3382C63.1712 19.5002 62.9145 19.5722 62.6535 19.5404L27.3759 15.2734C26.8381 15.2084 26.4534 14.7179 26.5185 14.1801L26.8293 11.6106C26.8292 11.6113 26.829 11.6125 26.8292 11.6125C26.8292 11.6125 26.8293 11.6124 26.8293 11.6122C26.8328 11.5939 26.8361 11.5754 26.8392 11.557C26.8405 11.5494 26.8408 11.5416 26.8418 11.534C26.8858 11.2997 27.0107 11.0915 27.1999 10.9431C27.4064 10.7812 27.6634 10.7094 27.9241 10.7409L30.2127 11.0178C30.2146 11.018 30.2164 11.0183 30.2184 11.0184L53.0876 13.7846C53.6176 13.8491 54.0994 13.471 54.1635 12.9408C54.2275 12.4107 53.8499 11.929 53.3198 11.8649L31.8956 9.27341L32.925 7.47685C33.2451 6.9183 33.8651 6.60737 34.5037 6.68459L57.7792 9.49977C58.4183 9.57712 58.946 10.0269 59.1234 10.6456L59.6947 12.6359L57.8657 12.4147C57.3364 12.3505 56.8539 12.7284 56.7898 13.2584C56.7258 13.7885 57.1034 14.2702 57.6335 14.3343L63.2019 15.0078C63.4624 15.0394 63.6951 15.1704 63.857 15.3769C64.0189 15.5832 64.0907 15.8404 64.0591 16.1009ZM8.25326 34.0272C8.51404 34.0272 8.77417 33.9222 8.96469 33.7153C9.48947 33.1456 11.1339 31.8842 11.9157 31.5064C12.3964 31.2741 12.5979 30.696 12.3656 30.2153C12.1332 29.7344 11.5551 29.5331 11.0745 29.7654C10.0528 30.2592 8.21858 31.6713 7.54234 32.4055C7.18063 32.7983 7.2059 33.4099 7.59867 33.7715C7.78456 33.9426 8.01929 34.0272 8.25326 34.0272Z" fill="#151515"/>
</g>
<defs>
<clipPath id="clip0_716_17431">
<rect width="66" height="66" fill="white"/>
</clipPath>
</defs>
</svg>
