<svg width="317" height="356" viewBox="0 0 317 356" fill="none" xmlns="http://www.w3.org/2000/svg">
<path d="M59.1099 163.237L75.6292 170.562C77.1879 171.252 78.9292 170.185 79.2066 168.368L80.8719 157.448C83.4812 140.341 74.8979 123.544 60.2232 117.037L43.7039 109.712C42.1452 109.021 40.4039 110.089 40.1266 111.906L38.4612 122.826C35.8519 139.932 44.4352 156.73 59.1099 163.237Z" fill="url(#paint0_linear_147_14592)"/>
<path d="M59.1099 200.182L75.6292 207.507C77.1879 208.198 78.9292 207.13 79.2066 205.313L80.8719 194.393C83.4812 177.287 74.8979 160.489 60.2232 153.982L43.7039 146.658C42.1452 145.967 40.4039 147.034 40.1266 148.852L38.4612 159.771C35.8519 176.878 44.4352 193.675 59.1099 200.182Z" fill="url(#paint1_linear_147_14592)"/>
<path d="M59.1099 237.128L75.6292 244.453C77.1879 245.144 78.9292 244.076 79.2066 242.259L80.8719 231.339C83.4812 214.232 74.8979 197.435 60.2232 190.928L43.7039 183.603C42.1452 182.912 40.4039 183.98 40.1266 185.797L38.4612 196.717C35.8519 213.823 44.4352 230.621 59.1099 237.128Z" fill="url(#paint2_linear_147_14592)"/>
<path d="M59.1099 274.073L75.6292 281.398C77.1879 282.089 78.9292 281.021 79.2066 279.204L80.8719 268.284C83.4812 251.178 74.8979 234.38 60.2232 227.873L43.7039 220.548C42.1452 219.857 40.4039 220.925 40.1266 222.742L38.4612 233.662C35.8519 250.769 44.4352 267.566 59.1099 274.073Z" fill="url(#paint3_linear_147_14592)"/>
<path d="M59.1099 311.018L75.6292 318.343C77.1879 319.033 78.9292 317.966 79.2066 316.149L80.8719 305.229C83.4812 288.122 74.8979 271.325 60.2232 264.818L43.7039 257.493C42.1452 256.802 40.4039 257.87 40.1266 259.687L38.4612 270.607C35.8519 287.714 44.4352 304.512 59.1099 311.018Z" fill="url(#paint4_linear_147_14592)"/>
<path d="M59.1099 347.963L75.6292 355.288C77.1879 355.979 78.9292 354.911 79.2066 353.094L80.8719 342.174C83.4812 325.068 74.8979 308.27 60.2232 301.763L43.7039 294.439C42.1452 293.748 40.4039 294.815 40.1266 296.633L38.4612 307.552C35.8519 324.66 44.4352 341.457 59.1099 347.963Z" fill="url(#paint5_linear_147_14592)"/>
<path d="M79.2066 205.313L80.8719 194.393C82.1486 186.022 80.7399 177.728 77.2532 170.674C78.2212 170.405 79.0259 169.551 79.2066 168.368L80.8719 157.449C83.4812 140.342 74.8979 123.544 60.2232 117.038L43.7039 109.713C42.1452 109.022 40.4039 110.09 40.1266 111.907L38.4612 122.826C37.1846 131.198 38.5932 139.492 42.0799 146.546C41.1119 146.814 40.3072 147.669 40.1266 148.852L38.4612 159.771C37.1846 168.143 38.5932 176.437 42.0799 183.49C41.1119 183.759 40.3072 184.614 40.1266 185.797L38.4612 196.717C37.1846 205.088 38.5932 213.382 42.0799 220.436C41.1119 220.705 40.3072 221.559 40.1266 222.742L38.4612 233.662C37.1846 242.034 38.5932 250.328 42.0799 257.381C41.1119 257.65 40.3072 258.505 40.1266 259.688L38.4612 270.607C37.1846 278.978 38.5932 287.272 42.0799 294.326C41.1119 294.595 40.3072 295.449 40.1266 296.633L38.4612 307.552C35.8519 324.659 44.4352 341.457 59.1099 347.963L75.6292 355.288C77.1879 355.978 78.9292 354.911 79.2066 353.093L80.8719 342.175C82.1486 333.803 80.7399 325.509 77.2532 318.455C78.2212 318.186 79.0259 317.332 79.2066 316.149L80.8719 305.229C82.1486 296.858 80.7399 288.564 77.2532 281.51C78.2212 281.241 79.0259 280.386 79.2066 279.203L80.8719 268.284C82.1486 259.913 80.7399 251.619 77.2532 244.565C78.2212 244.296 79.0259 243.442 79.2066 242.258L80.8719 231.339C82.1486 222.967 80.7399 214.673 77.2532 207.619C78.2212 207.351 79.0259 206.496 79.2066 205.313Z" fill="url(#paint6_linear_147_14592)"/>
<path d="M79.2066 168.368L80.8719 157.449C83.4812 140.342 74.8979 123.544 60.2232 117.038L43.7039 109.713C42.1452 109.022 40.4039 110.09 40.1266 111.907L38.4612 122.826C37.1846 131.198 38.5932 139.492 42.0799 146.546C41.1119 146.814 40.3072 147.669 40.1266 148.852L38.4612 159.771C35.8519 176.878 44.4352 193.675 59.1099 200.182L75.6292 207.507C77.1879 208.198 78.9292 207.13 79.2066 205.313L80.8719 194.393C82.1486 186.022 80.7399 177.728 77.2532 170.674C78.2212 170.405 79.0259 169.551 79.2066 168.368Z" fill="url(#paint7_linear_147_14592)"/>
<path d="M107.007 109.501H12.3266C5.70259 109.501 0.333252 115.384 0.333252 122.64V129.228C0.333252 136.485 5.70259 142.367 12.3266 142.367H107.007C113.631 142.367 119 136.484 119 129.228V122.64C119 115.383 113.631 109.501 107.007 109.501Z" fill="url(#paint8_linear_147_14592)"/>
<path d="M202.365 61.0644L221.208 68.691C222.986 69.4104 224.973 68.2986 225.289 66.4066L227.189 55.0371C230.165 37.2257 220.374 19.7359 203.635 12.961L184.792 5.33519C183.014 4.6158 181.027 5.72759 180.711 7.6196L178.812 18.9892C175.835 36.8006 185.626 54.2903 202.365 61.0644Z" fill="url(#paint9_linear_147_14592)"/>
<path d="M202.365 99.532L221.208 107.159C222.986 107.878 224.973 106.766 225.289 104.874L227.189 93.5046C230.165 75.6932 220.374 58.2035 203.635 51.4286L184.792 43.802C183.014 43.0826 181.027 44.1944 180.711 46.0864L178.812 57.456C175.835 75.2681 185.626 92.7571 202.365 99.532Z" fill="url(#paint10_linear_147_14592)"/>
<path d="M202.365 138L221.208 145.626C222.986 146.346 224.973 145.234 225.289 143.342L227.189 131.972C230.165 114.161 220.374 96.6713 203.635 89.8964L184.792 82.2698C183.014 81.5504 181.027 82.6622 180.711 84.5542L178.812 95.9237C175.835 113.735 185.626 131.225 202.365 138Z" fill="url(#paint11_linear_147_14592)"/>
<path d="M202.365 176.468L221.208 184.094C222.986 184.814 224.973 183.702 225.289 181.81L227.189 170.44C230.165 152.629 220.374 135.139 203.635 128.364L184.792 120.738C183.014 120.018 181.027 121.13 180.711 123.022L178.812 134.392C175.835 152.203 185.626 169.693 202.365 176.468Z" fill="url(#paint12_linear_147_14592)"/>
<path d="M202.365 214.935L221.208 222.561C222.986 223.281 224.973 222.169 225.289 220.277L227.189 208.907C230.165 191.096 220.374 173.606 203.635 166.831L184.792 159.205C183.014 158.485 181.027 159.597 180.711 161.489L178.812 172.859C175.835 190.67 185.626 208.16 202.365 214.935Z" fill="url(#paint13_linear_147_14592)"/>
<path d="M202.365 253.403L221.208 261.029C222.986 261.749 224.973 260.637 225.289 258.745L227.189 247.375C230.165 229.564 220.374 212.074 203.635 205.299L184.792 197.673C183.014 196.953 181.027 198.065 180.711 199.957L178.812 211.327C175.835 229.138 185.626 246.628 202.365 253.403Z" fill="url(#paint14_linear_147_14592)"/>
<path d="M225.289 104.874L227.189 93.5047C228.645 84.7884 227.038 76.1526 223.061 68.8081C224.165 68.5283 225.083 67.6386 225.289 66.4066L227.189 55.0378C230.165 37.2264 220.374 19.7367 203.635 12.9618L184.792 5.33519C183.014 4.6158 181.027 5.72759 180.711 7.6196L178.812 18.9892C177.355 27.7055 178.962 36.3413 182.939 43.6857C181.835 43.9656 180.917 44.8553 180.711 46.0872L178.812 57.4561C177.355 66.1724 178.962 74.8081 182.939 82.1526C181.835 82.4325 180.917 83.3222 180.711 84.5541L178.812 95.9237C177.355 104.64 178.962 113.276 182.939 120.62C181.835 120.9 180.917 121.79 180.711 123.022L178.812 134.391C177.355 143.108 178.962 151.743 182.939 159.088C181.835 159.368 180.917 160.258 180.711 161.489L178.812 172.858C177.355 181.575 178.962 190.21 182.939 197.555C181.835 197.835 180.917 198.724 180.711 199.956L178.812 211.326C175.835 229.137 185.626 246.627 202.365 253.402L221.208 261.028C222.986 261.747 224.973 260.635 225.289 258.743L227.189 247.375C228.645 238.658 227.038 230.022 223.061 222.678C224.165 222.398 225.083 221.508 225.289 220.276L227.189 208.907C228.645 200.191 227.038 191.555 223.061 184.21C224.165 183.93 225.083 183.041 225.289 181.809L227.189 170.44C228.645 161.724 227.038 153.088 223.061 145.743C224.165 145.464 225.083 144.574 225.289 143.342L227.189 131.972C228.645 123.256 227.038 114.62 223.061 107.276C224.165 106.996 225.083 106.106 225.289 104.874Z" fill="url(#paint15_linear_147_14592)"/>
<path d="M225.289 66.4066L227.189 55.0378C230.165 37.2264 220.374 19.7367 203.635 12.9618L184.792 5.33519C183.014 4.6158 181.027 5.72759 180.711 7.6196L178.812 18.9892C177.355 27.7055 178.962 36.3413 182.939 43.6857C181.835 43.9656 180.917 44.8553 180.711 46.0872L178.812 57.4561C175.835 75.2675 185.626 92.7572 202.365 99.5321L221.208 107.159C222.986 107.878 224.973 106.766 225.289 104.874L227.189 93.5047C228.645 84.7884 227.038 76.1526 223.061 68.8081C224.165 68.5291 225.083 67.6393 225.289 66.4066Z" fill="url(#paint16_linear_147_14592)"/>
<path d="M144.24 20.3198L149.905 22.6125C150.439 22.8288 151.036 22.4946 151.132 21.9258L151.703 18.5078C152.597 13.1533 149.654 7.89553 144.622 5.85884L138.957 3.56634C138.423 3.35008 137.826 3.68431 137.73 4.25309L137.159 7.67103C136.265 13.0255 139.208 18.2833 144.24 20.3198Z" fill="url(#paint17_linear_147_14592)"/>
<path d="M144.24 31.884L149.905 34.1767C150.439 34.393 151.036 34.0587 151.132 33.49L151.703 30.072C152.597 24.7175 149.654 19.4597 144.622 17.423L138.957 15.1303C138.423 14.914 137.826 15.2483 137.73 15.8171L137.159 19.235C136.265 24.5897 139.208 29.8473 144.24 31.884Z" fill="url(#paint18_linear_147_14592)"/>
<path d="M144.24 43.4482L149.905 45.7409C150.439 45.9572 151.036 45.6229 151.132 45.0542L151.703 41.6362C152.597 36.2817 149.654 31.0239 144.622 28.9872L138.957 26.6945C138.423 26.4783 137.826 26.8125 137.73 27.3813L137.159 30.7992C136.265 36.1537 139.208 41.4115 144.24 43.4482Z" fill="url(#paint19_linear_147_14592)"/>
<path d="M144.24 55.0124L149.905 57.3051C150.439 57.5214 151.036 57.1872 151.132 56.6184L151.703 53.2004C152.597 47.8459 149.654 42.5881 144.622 40.5515L138.957 38.2587C138.423 38.0425 137.826 38.3767 137.73 38.9455L137.159 42.3634C136.265 47.7179 139.208 52.9757 144.24 55.0124Z" fill="url(#paint20_linear_147_14592)"/>
<path d="M144.24 66.5766L149.905 68.8693C150.439 69.0856 151.036 68.7514 151.132 68.1826L151.703 64.7646C152.597 59.4101 149.654 54.1523 144.622 52.1157L138.957 49.8229C138.423 49.6067 137.826 49.9409 137.73 50.5097L137.159 53.9276C136.265 59.2821 139.208 64.5399 144.24 66.5766Z" fill="url(#paint21_linear_147_14592)"/>
<path d="M144.24 78.1408L149.905 80.4335C150.439 80.6498 151.036 80.3156 151.132 79.7468L151.703 76.3289C152.597 70.9744 149.654 65.7166 144.622 63.6799L138.957 61.3871C138.423 61.1709 137.826 61.5051 137.73 62.0739L137.159 65.4918C136.265 70.8463 139.208 76.1041 144.24 78.1408Z" fill="url(#paint22_linear_147_14592)"/>
<path d="M151.132 33.49L151.703 30.0721C152.14 27.4517 151.657 24.8556 150.462 22.6477C150.794 22.5636 151.07 22.2961 151.132 21.9258L151.703 18.5081C152.597 13.1536 149.654 7.89576 144.622 5.85907L138.957 3.56634C138.423 3.35008 137.826 3.68431 137.73 4.25309L137.159 7.67103C136.722 10.2914 137.205 12.8875 138.4 15.0954C138.068 15.1795 137.792 15.447 137.73 15.8173L137.159 19.235C136.722 21.8554 137.205 24.4515 138.4 26.6594C138.068 26.7435 137.792 27.011 137.73 27.3813L137.159 30.7993C136.722 33.4196 137.205 36.0157 138.4 38.2236C138.068 38.3077 137.792 38.5752 137.73 38.9455L137.159 42.3635C136.722 44.9838 137.205 47.5799 138.4 49.7878C138.068 49.872 137.792 50.1394 137.73 50.5098L137.159 53.9275C136.722 56.5478 137.205 59.1439 138.4 61.3518C138.068 61.436 137.792 61.7034 137.73 62.0738L137.159 65.4917C136.265 70.8462 139.208 76.104 144.24 78.1407L149.905 80.4332C150.439 80.6495 151.036 80.3152 151.132 79.7464L151.703 76.3287C152.14 73.7084 151.657 71.1123 150.462 68.9044C150.794 68.8203 151.07 68.5528 151.132 68.1824L151.703 64.7645C152.14 62.1442 151.657 59.5481 150.462 57.3402C150.794 57.256 151.07 56.9886 151.132 56.6182L151.703 53.2005C152.14 50.5802 151.657 47.9841 150.462 45.7762C150.794 45.692 151.07 45.4246 151.132 45.0542L151.703 41.6363C152.14 39.016 151.657 36.4199 150.462 34.2119C150.794 34.1278 151.07 33.8603 151.132 33.49Z" fill="url(#paint23_linear_147_14592)"/>
<path d="M151.132 21.9258L151.703 18.5081C152.597 13.1536 149.654 7.89576 144.622 5.85907L138.957 3.56634C138.423 3.35008 137.826 3.68431 137.73 4.25309L137.159 7.67103C136.722 10.2914 137.205 12.8875 138.4 15.0954C138.068 15.1795 137.792 15.447 137.73 15.8173L137.159 19.235C136.265 24.5895 139.208 29.8473 144.24 31.884L149.905 34.1767C150.439 34.393 151.036 34.0588 151.132 33.49L151.703 30.0721C152.14 27.4517 151.657 24.8556 150.462 22.6477C150.794 22.5638 151.07 22.2963 151.132 21.9258Z" fill="url(#paint24_linear_147_14592)"/>
<path d="M272.691 0.5H133.309C124.854 0.5 118 7.93272 118 17.1019V20.8981C118 30.0673 124.854 37.5 133.309 37.5H272.691C281.146 37.5 288 30.0673 288 20.8981V17.1019C288 7.93272 281.146 0.5 272.691 0.5V0.5Z" fill="url(#paint25_linear_147_14592)"/>
<path d="M143.811 109.779C157.688 109.779 168.937 98.5299 168.937 84.6535C168.937 70.7771 157.688 59.5281 143.811 59.5281C129.935 59.5281 118.686 70.7771 118.686 84.6535C118.686 98.5299 129.935 109.779 143.811 109.779Z" fill="url(#paint26_linear_147_14592)"/>
<path d="M118.685 84.6534C118.685 98.5294 129.935 109.779 143.811 109.779C157.688 109.779 168.936 98.5294 168.936 84.6534C168.936 81.648 168.407 78.7667 167.439 76.0959H120.182C119.215 78.7667 118.685 81.648 118.685 84.6534Z" fill="url(#paint27_linear_147_14592)"/>
<path d="M126.045 102.42C135.857 112.232 151.766 112.232 161.578 102.42C171.39 92.6078 171.39 76.6991 161.578 66.8869C159.453 64.7622 157.041 63.0991 154.469 61.8945L121.053 95.3105C122.257 97.8831 123.92 100.295 126.045 102.42Z" fill="url(#paint28_linear_147_14592)"/>
<path d="M303 339.5H103V170.143C103 157.085 111.842 146.5 122.75 146.5H283.251C294.158 146.5 303 157.085 303 170.143V339.5Z" fill="url(#paint29_linear_147_14592)"/>
<path d="M283.25 146.5H203V339.5H303V170.143C303 157.085 294.158 146.5 283.25 146.5Z" fill="url(#paint30_linear_147_14592)"/>
<path d="M103 214.778H303V339.5H103V214.778Z" fill="url(#paint31_linear_147_14592)"/>
<path d="M308.463 355.5H29.5366C25.0059 355.5 21.3333 351.827 21.3333 347.297V342.437C21.3333 337.907 25.0059 334.234 29.5366 334.234H308.464C312.995 334.234 316.667 337.907 316.667 342.437V347.297C316.667 351.827 312.994 355.5 308.463 355.5Z" fill="url(#paint32_linear_147_14592)"/>
<defs>
<linearGradient id="paint0_linear_147_14592" x1="64.8792" y1="130.281" x2="53.2373" y2="148.62" gradientUnits="userSpaceOnUse">
<stop stop-color="#F9F5F3"/>
<stop offset="1" stop-color="#EFE2DD"/>
</linearGradient>
<linearGradient id="paint1_linear_147_14592" x1="64.8792" y1="167.227" x2="53.2373" y2="185.566" gradientUnits="userSpaceOnUse">
<stop stop-color="#F9F5F3"/>
<stop offset="1" stop-color="#EFE2DD"/>
</linearGradient>
<linearGradient id="paint2_linear_147_14592" x1="64.8792" y1="204.172" x2="53.2373" y2="222.511" gradientUnits="userSpaceOnUse">
<stop stop-color="#F9F5F3"/>
<stop offset="1" stop-color="#EFE2DD"/>
</linearGradient>
<linearGradient id="paint3_linear_147_14592" x1="64.8792" y1="241.117" x2="53.2373" y2="259.457" gradientUnits="userSpaceOnUse">
<stop stop-color="#F9F5F3"/>
<stop offset="1" stop-color="#EFE2DD"/>
</linearGradient>
<linearGradient id="paint4_linear_147_14592" x1="64.8792" y1="278.062" x2="53.2373" y2="296.402" gradientUnits="userSpaceOnUse">
<stop stop-color="#F9F5F3"/>
<stop offset="1" stop-color="#EFE2DD"/>
</linearGradient>
<linearGradient id="paint5_linear_147_14592" x1="64.8792" y1="315.008" x2="53.2373" y2="333.347" gradientUnits="userSpaceOnUse">
<stop stop-color="#F9F5F3"/>
<stop offset="1" stop-color="#EFE2DD"/>
</linearGradient>
<linearGradient id="paint6_linear_147_14592" x1="58.9999" y1="232.5" x2="83.0206" y2="232.5" gradientUnits="userSpaceOnUse">
<stop stop-color="#E1D3CE" stop-opacity="0"/>
<stop offset="0.2298" stop-color="#DFCECA" stop-opacity="0.23"/>
<stop offset="0.4933" stop-color="#D9C1BD" stop-opacity="0.493"/>
<stop offset="0.7725" stop-color="#CFAAA8" stop-opacity="0.773"/>
<stop offset="1" stop-color="#C59191"/>
</linearGradient>
<linearGradient id="paint7_linear_147_14592" x1="59.6666" y1="172.222" x2="59.6666" y2="142.055" gradientUnits="userSpaceOnUse">
<stop stop-color="#E1D3CE" stop-opacity="0"/>
<stop offset="0.2298" stop-color="#DFCECA" stop-opacity="0.23"/>
<stop offset="0.4933" stop-color="#D9C1BD" stop-opacity="0.493"/>
<stop offset="0.7725" stop-color="#CFAAA8" stop-opacity="0.773"/>
<stop offset="1" stop-color="#C59191"/>
</linearGradient>
<linearGradient id="paint8_linear_147_14592" x1="59.6666" y1="111.935" x2="59.6666" y2="143.598" gradientUnits="userSpaceOnUse">
<stop stop-color="#FEF0AE"/>
<stop offset="1" stop-color="#FCD690"/>
</linearGradient>
<linearGradient id="paint9_linear_147_14592" x1="208.946" y1="26.7511" x2="197.325" y2="46.8074" gradientUnits="userSpaceOnUse">
<stop stop-color="#F9F5F3"/>
<stop offset="1" stop-color="#EFE2DD"/>
</linearGradient>
<linearGradient id="paint10_linear_147_14592" x1="208.946" y1="65.2187" x2="197.325" y2="85.275" gradientUnits="userSpaceOnUse">
<stop stop-color="#F9F5F3"/>
<stop offset="1" stop-color="#EFE2DD"/>
</linearGradient>
<linearGradient id="paint11_linear_147_14592" x1="208.946" y1="103.686" x2="197.325" y2="123.742" gradientUnits="userSpaceOnUse">
<stop stop-color="#F9F5F3"/>
<stop offset="1" stop-color="#EFE2DD"/>
</linearGradient>
<linearGradient id="paint12_linear_147_14592" x1="208.946" y1="142.154" x2="197.325" y2="162.21" gradientUnits="userSpaceOnUse">
<stop stop-color="#F9F5F3"/>
<stop offset="1" stop-color="#EFE2DD"/>
</linearGradient>
<linearGradient id="paint13_linear_147_14592" x1="208.946" y1="180.622" x2="197.325" y2="200.677" gradientUnits="userSpaceOnUse">
<stop stop-color="#F9F5F3"/>
<stop offset="1" stop-color="#EFE2DD"/>
</linearGradient>
<linearGradient id="paint14_linear_147_14592" x1="208.946" y1="219.089" x2="197.325" y2="239.145" gradientUnits="userSpaceOnUse">
<stop stop-color="#F9F5F3"/>
<stop offset="1" stop-color="#EFE2DD"/>
</linearGradient>
<linearGradient id="paint15_linear_147_14592" x1="202.24" y1="133.182" x2="229.64" y2="133.182" gradientUnits="userSpaceOnUse">
<stop stop-color="#E1D3CE" stop-opacity="0"/>
<stop offset="0.2298" stop-color="#DFCECA" stop-opacity="0.23"/>
<stop offset="0.4933" stop-color="#D9C1BD" stop-opacity="0.493"/>
<stop offset="0.7725" stop-color="#CFAAA8" stop-opacity="0.773"/>
<stop offset="1" stop-color="#C59191"/>
</linearGradient>
<linearGradient id="paint16_linear_147_14592" x1="203" y1="70.4203" x2="203" y2="39.0105" gradientUnits="userSpaceOnUse">
<stop stop-color="#E1D3CE" stop-opacity="0"/>
<stop offset="0.2298" stop-color="#DFCECA" stop-opacity="0.23"/>
<stop offset="0.4933" stop-color="#D9C1BD" stop-opacity="0.493"/>
<stop offset="0.7725" stop-color="#CFAAA8" stop-opacity="0.773"/>
<stop offset="1" stop-color="#C59191"/>
</linearGradient>
<linearGradient id="paint17_linear_147_14592" x1="146.218" y1="10.0045" x2="142.725" y2="16.0338" gradientUnits="userSpaceOnUse">
<stop stop-color="#F9F5F3"/>
<stop offset="1" stop-color="#EFE2DD"/>
</linearGradient>
<linearGradient id="paint18_linear_147_14592" x1="146.218" y1="21.5686" x2="142.725" y2="27.598" gradientUnits="userSpaceOnUse">
<stop stop-color="#F9F5F3"/>
<stop offset="1" stop-color="#EFE2DD"/>
</linearGradient>
<linearGradient id="paint19_linear_147_14592" x1="146.218" y1="33.1329" x2="142.725" y2="39.162" gradientUnits="userSpaceOnUse">
<stop stop-color="#F9F5F3"/>
<stop offset="1" stop-color="#EFE2DD"/>
</linearGradient>
<linearGradient id="paint20_linear_147_14592" x1="146.218" y1="44.6971" x2="142.725" y2="50.7262" gradientUnits="userSpaceOnUse">
<stop stop-color="#F9F5F3"/>
<stop offset="1" stop-color="#EFE2DD"/>
</linearGradient>
<linearGradient id="paint21_linear_147_14592" x1="146.218" y1="56.2613" x2="142.725" y2="62.2904" gradientUnits="userSpaceOnUse">
<stop stop-color="#F9F5F3"/>
<stop offset="1" stop-color="#EFE2DD"/>
</linearGradient>
<linearGradient id="paint22_linear_147_14592" x1="146.218" y1="67.8253" x2="142.725" y2="73.8546" gradientUnits="userSpaceOnUse">
<stop stop-color="#F9F5F3"/>
<stop offset="1" stop-color="#EFE2DD"/>
</linearGradient>
<linearGradient id="paint23_linear_147_14592" x1="144.202" y1="42" x2="152.439" y2="42" gradientUnits="userSpaceOnUse">
<stop stop-color="#E1D3CE" stop-opacity="0"/>
<stop offset="0.2298" stop-color="#DFCECA" stop-opacity="0.23"/>
<stop offset="0.4933" stop-color="#D9C1BD" stop-opacity="0.493"/>
<stop offset="0.7725" stop-color="#CFAAA8" stop-opacity="0.773"/>
<stop offset="1" stop-color="#C59191"/>
</linearGradient>
<linearGradient id="paint24_linear_147_14592" x1="144.431" y1="23.1324" x2="144.431" y2="13.6899" gradientUnits="userSpaceOnUse">
<stop stop-color="#E1D3CE" stop-opacity="0"/>
<stop offset="0.2298" stop-color="#DFCECA" stop-opacity="0.23"/>
<stop offset="0.4933" stop-color="#D9C1BD" stop-opacity="0.493"/>
<stop offset="0.7725" stop-color="#CFAAA8" stop-opacity="0.773"/>
<stop offset="1" stop-color="#C59191"/>
</linearGradient>
<linearGradient id="paint25_linear_147_14592" x1="203" y1="3.24041" x2="203" y2="38.8862" gradientUnits="userSpaceOnUse">
<stop stop-color="#FEF0AE"/>
<stop offset="1" stop-color="#FCD690"/>
</linearGradient>
<linearGradient id="paint26_linear_147_14592" x1="134.103" y1="74.9456" x2="149.815" y2="90.6573" gradientUnits="userSpaceOnUse">
<stop stop-color="#BBEC6C"/>
<stop offset="1" stop-color="#81B823"/>
</linearGradient>
<linearGradient id="paint27_linear_147_14592" x1="143.812" y1="84.9712" x2="143.812" y2="106.801" gradientUnits="userSpaceOnUse">
<stop stop-color="#78A91F" stop-opacity="0"/>
<stop offset="0.1632" stop-color="#73A620" stop-opacity="0.163"/>
<stop offset="0.3542" stop-color="#659E24" stop-opacity="0.354"/>
<stop offset="0.5591" stop-color="#4E912B" stop-opacity="0.559"/>
<stop offset="0.7737" stop-color="#2D8034" stop-opacity="0.774"/>
<stop offset="0.994" stop-color="#036941" stop-opacity="0.994"/>
<stop offset="1" stop-color="#026841"/>
</linearGradient>
<linearGradient id="paint28_linear_147_14592" x1="143.953" y1="84.8133" x2="159.386" y2="100.247" gradientUnits="userSpaceOnUse">
<stop stop-color="#78A91F" stop-opacity="0"/>
<stop offset="0.1632" stop-color="#73A620" stop-opacity="0.163"/>
<stop offset="0.3542" stop-color="#659E24" stop-opacity="0.354"/>
<stop offset="0.5591" stop-color="#4E912B" stop-opacity="0.559"/>
<stop offset="0.7737" stop-color="#2D8034" stop-opacity="0.774"/>
<stop offset="0.994" stop-color="#036941" stop-opacity="0.994"/>
<stop offset="1" stop-color="#026841"/>
</linearGradient>
<linearGradient id="paint29_linear_147_14592" x1="140.602" y1="175.225" x2="241.551" y2="259.551" gradientUnits="userSpaceOnUse">
<stop stop-color="#FFDBAF"/>
<stop offset="0.1963" stop-color="#FFCD91"/>
<stop offset="0.5371" stop-color="#FFC681"/>
<stop offset="0.9794" stop-color="#EDA751"/>
<stop offset="1" stop-color="#EDA751"/>
</linearGradient>
<linearGradient id="paint30_linear_147_14592" x1="281.2" y1="243" x2="306.731" y2="243" gradientUnits="userSpaceOnUse">
<stop stop-color="#F09627" stop-opacity="0"/>
<stop offset="0.399" stop-color="#F09627" stop-opacity="0.399"/>
<stop offset="0.9738" stop-color="#F09627" stop-opacity="0.974"/>
<stop offset="1" stop-color="#F09627"/>
</linearGradient>
<linearGradient id="paint31_linear_147_14592" x1="203" y1="302.782" x2="203" y2="333.74" gradientUnits="userSpaceOnUse">
<stop stop-color="#F09627" stop-opacity="0"/>
<stop offset="0.399" stop-color="#F09627" stop-opacity="0.399"/>
<stop offset="0.9738" stop-color="#F09627" stop-opacity="0.974"/>
<stop offset="1" stop-color="#F09627"/>
</linearGradient>
<linearGradient id="paint32_linear_147_14592" x1="169" y1="338.423" x2="169" y2="352.937" gradientUnits="userSpaceOnUse">
<stop stop-color="#F89580"/>
<stop offset="1" stop-color="#C4573A"/>
</linearGradient>
</defs>
</svg>
