<svg width="66" height="66" viewBox="0 0 66 66" fill="none" xmlns="http://www.w3.org/2000/svg">
<path d="M16.3279 58.4636C15.6743 58.4637 15.0307 58.3606 14.4106 58.1525C11.62 57.2158 9.96313 54.3625 10.5566 51.5157C10.7393 50.6393 11.5975 50.0768 12.474 50.2597C13.3503 50.4424 13.9126 51.3008 13.7299 52.1771C13.4714 53.4173 14.2075 54.665 15.4423 55.0795C18.2688 56.0281 21.1397 52.4194 22.7397 49.0405C23.1228 48.2316 24.0891 47.8862 24.8981 48.2694C25.7071 48.6524 26.0523 49.6188 25.6692 50.4278C24.1511 53.6341 22.3292 55.9273 20.2546 57.2439C18.9824 58.0512 17.6356 58.4636 16.3279 58.4636Z" fill="#EDA751"/>
<path d="M13.7807 53.3698C13.6689 52.9909 13.6448 52.5839 13.7297 52.177C13.9123 51.3007 13.35 50.4423 12.4737 50.2596C11.5973 50.0766 10.7392 50.6393 10.5564 51.5156C10.4276 52.1332 10.4052 52.7509 10.4767 53.3495C11.2053 53.5544 12.5743 53.7009 13.7807 53.3698Z" fill="#FCD79D"/>
<path opacity="0.2" d="M24.8976 48.2694C24.0886 47.8862 23.1223 48.2316 22.7392 49.0405C21.4189 51.829 19.2327 54.7714 16.9204 55.1822C16.9378 56.2221 16.9689 57.3035 17.0141 58.4252C18.1025 58.307 19.2037 57.9105 20.2542 57.2439C22.3288 55.9274 24.1506 53.6342 25.6688 50.4279C26.052 49.6187 25.7067 48.6523 24.8976 48.2694Z" fill="#C18F00"/>
<path d="M25.8854 65.0329C25.7784 65.0329 25.6704 65.0263 25.5616 65.0128C24.1404 64.8357 23.1318 63.54 23.3089 62.119C23.6429 59.4381 23.3907 57.3158 23.1468 55.2632C23.0991 54.8621 23.052 54.4663 23.0097 54.073C22.8565 52.6491 23.8867 51.3706 25.3107 51.2174C26.7346 51.0635 28.0131 52.0944 28.1664 53.5183C28.2066 53.8927 28.2515 54.2694 28.297 54.6512C28.5644 56.9019 28.8676 59.4529 28.4555 62.7601C28.2919 64.0724 27.1746 65.0329 25.8854 65.0329Z" fill="#EDA751"/>
<path d="M34.3542 65.033C34.2472 65.033 34.1392 65.0264 34.0303 65.0129C32.6091 64.8358 31.6005 63.5403 31.7777 62.1191C32.1115 59.4385 31.8595 57.316 31.6155 55.2637C31.5679 54.8623 31.5209 54.4664 31.4785 54.073C31.3253 52.649 32.3555 51.3706 33.7796 51.2175C35.2036 51.0643 36.482 52.0946 36.6352 53.5185C36.6755 53.8929 36.7203 54.2697 36.7657 54.6518C37.0332 56.9024 37.3364 59.4533 36.9244 62.7603C36.7607 64.0725 35.6433 65.033 34.3542 65.033Z" fill="#EDA751"/>
<path d="M16.8537 48.1159C14.1619 48.1159 10.7901 47.5169 8.32202 45.0488C7.30933 44.0362 7.30933 42.3943 8.32202 41.3816C9.3347 40.3689 10.9766 40.3689 11.9893 41.3816C12.8504 42.2427 15.6121 43.6042 19.9006 42.5936C21.2945 42.2656 22.6909 43.1288 23.0195 44.5228C23.3481 45.9168 22.4843 47.3131 21.0903 47.6417C20.5019 47.7804 18.8682 48.1159 16.8537 48.1159Z" fill="#7694E4"/>
<path d="M44.3978 48.8563C41.9731 48.8563 39.6241 48.2709 37.9994 47.4072C36.7349 46.735 36.2547 45.1648 36.9271 43.9002C37.5993 42.6356 39.1691 42.1553 40.4341 42.8277C42.4175 43.8823 46.6304 44.1761 48.3852 42.4209C49.3979 41.4082 51.0399 41.4082 52.0526 42.4209C53.0651 43.4336 53.0651 45.0755 52.0526 46.0881C50.0532 48.0876 47.1759 48.8563 44.3978 48.8563Z" fill="#EDA751"/>
<path d="M44.3978 48.8563C41.9731 48.8563 39.6241 48.2709 37.9994 47.4072C36.7349 46.735 36.2547 45.1648 36.9271 43.9002C37.5993 42.6356 39.1691 42.1553 40.4341 42.8277C42.4175 43.8823 46.6304 44.1761 48.3852 42.4209C49.3979 41.4082 51.0399 41.4082 52.0526 42.4209C53.0651 43.4336 53.0651 45.0755 52.0526 46.0881C50.0532 48.0876 47.1759 48.8563 44.3978 48.8563Z" fill="#7694E4"/>
<path d="M48.385 42.4209C48.0112 42.7947 47.5252 43.0748 46.9736 43.2753C47.0186 44.5562 47.5586 46.7559 49.2054 47.9602C50.2571 47.5221 51.2297 46.9108 52.0524 46.0883C53.065 45.0756 53.065 43.4337 52.0524 42.421C51.0397 41.4082 49.3977 41.4082 48.385 42.4209Z" fill="#EDA751"/>
<path opacity="0.2" d="M37.1024 58.384C37.0468 57.0222 36.9019 55.7974 36.7657 54.6513C36.7203 54.2692 36.6756 53.8924 36.6352 53.518C36.4819 52.0939 35.2036 51.0639 33.7795 51.217C32.3555 51.3701 31.3254 52.6486 31.4784 54.0725C31.5209 54.4659 31.5678 54.8618 31.6155 55.2632C31.7937 56.7632 31.9754 58.3015 31.9305 60.0669C33.7901 59.8161 35.5377 59.2337 37.1024 58.384Z" fill="#A35F00"/>
<path opacity="0.2" d="M28.1664 53.5183C28.0131 52.0944 26.7346 51.0636 25.3107 51.2173C23.8868 51.3705 22.8566 52.649 23.0097 54.073C23.052 54.4663 23.099 54.862 23.1467 55.2632C23.2814 56.3963 23.4181 57.5513 23.4578 58.8091C25.0475 59.5451 26.7993 60.0157 28.6482 60.1596C28.6996 58.0541 28.4896 56.2737 28.2969 54.6511C28.2514 54.2693 28.2067 53.8927 28.1664 53.5183Z" fill="#A35F00"/>
<path d="M29.8564 57.6143C36.4617 57.6143 41.8163 52.6383 41.8163 46.5C41.8163 40.3618 36.4617 35.3857 29.8564 35.3857C23.2511 35.3857 17.8965 40.3618 17.8965 46.5C17.8965 52.6383 23.2511 57.6143 29.8564 57.6143Z" fill="#FCD690"/>
<path opacity="0.15" d="M28.1095 57.4955C22.6439 53.9072 24.3379 46.5524 25.2656 43.3361V36.2344C20.9383 37.9072 17.8955 41.873 17.8955 46.4998C17.8955 52.0865 22.3319 56.7098 28.1095 57.4955Z" fill="#C17A00"/>
<path opacity="0.1" d="M43.6457 43.6502C42.4166 43.5597 41.2409 43.2566 40.4341 42.8277C39.1691 42.1552 37.5993 42.6357 36.9271 43.9002C36.2547 45.1648 36.7349 46.7349 37.9994 47.4073C39.5355 48.2239 41.7196 48.7909 44.0026 48.8504C43.9503 46.8803 43.8309 45.1464 43.6457 43.6502Z" fill="#151515"/>
<path d="M34.0378 58.1318C35.6602 58.1308 38.8984 58.0294 41.3489 57.3183C41.7078 57.2141 41.9597 56.8935 41.9749 56.5202C42.2889 48.7688 41.9445 42.8821 40.8854 40.019H33.0195V57.1124C33.0195 57.6753 33.4748 58.1322 34.0378 58.1318Z" fill="#7694E4"/>
<path d="M35.1691 54.4478C35.1691 54.6273 35.2587 54.7965 35.4104 54.8924C35.7332 55.0963 36.3772 55.4035 37.3285 55.4035C38.2798 55.4035 38.9239 55.0963 39.2466 54.8924C39.3985 54.7965 39.4879 54.6273 39.4879 54.4478V50.7301C39.4879 50.5458 39.3385 50.3962 39.1542 50.3962H35.5028C35.3185 50.3962 35.1689 50.5456 35.1689 50.7301L35.1691 54.4478Z" fill="#82C7E6"/>
<path opacity="0.1" d="M19.9006 42.5935C18.4838 42.9273 17.2348 43.0013 16.1648 42.9209C15.9504 44.3857 15.8068 46.1069 15.7344 48.0797C16.1171 48.1045 16.4917 48.1158 16.8537 48.1158C18.8681 48.1158 20.5017 47.7803 21.0903 47.6416C22.4843 47.313 23.348 45.9167 23.0195 44.5227C22.6911 43.1287 21.2945 42.2655 19.9006 42.5935Z" fill="#151515"/>
<path d="M25.6747 58.1318C24.0523 58.1308 20.814 58.0294 18.3635 57.3183C18.0046 57.2141 17.7528 56.8935 17.7375 56.5202C17.4235 48.7688 17.768 42.8821 18.8271 40.019H26.6929V57.1124C26.6929 57.6753 26.2376 58.1322 25.6747 58.1318Z" fill="#7694E4"/>
<path d="M30.6636 19.6191C32.8016 18.5578 36.3942 18.3405 38.7526 18.2287C39.38 18.1989 39.9207 17.7871 40.1261 17.1936C40.9636 14.7725 43.2326 10.5047 44.3271 8.5623C44.551 8.16501 44.1995 7.69012 43.7544 7.78899C42.3485 8.10133 40.0864 8.69392 38.7069 9.33806C38.3863 9.48785 38.0373 9.19433 38.1321 8.85337C38.5116 7.48916 39.3088 5.40397 39.8917 4.12703C40.095 3.68165 39.6977 3.19503 39.2217 3.30937C36.9088 3.8647 35.0998 5.39069 33.6148 6.88781C33.3287 7.17617 32.8416 7.07743 32.6856 6.70231C31.8017 4.57678 30.8535 2.45679 30.31 1.25886C30.133 0.868791 29.5795 0.868791 29.4025 1.25886C28.859 2.45679 27.9108 4.57678 27.0269 6.70231C26.8709 7.0773 26.3838 7.17617 26.0977 6.88781C24.6127 5.39069 22.8035 3.8647 20.4908 3.30937C20.0148 3.19503 19.6175 3.68165 19.8208 4.12703C20.4037 5.4041 21.2008 7.48929 21.5803 8.85337C21.6752 9.19433 21.3262 9.48785 21.0055 9.33806C19.6261 8.69392 17.3639 8.10133 15.9581 7.78899C15.5128 7.69012 15.1614 8.16501 15.3853 8.5623C16.4799 10.5047 18.749 14.7725 19.5864 17.1936C19.7917 17.7872 20.3325 18.1989 20.9599 18.2287C23.3182 18.3405 26.9107 18.5578 29.0489 19.6191C29.5565 19.871 30.1562 19.871 30.6636 19.6191Z" fill="#DEE2E5"/>
<path d="M22.5772 27.228C24.9176 25.2642 26.4803 21.9675 23.1791 17.0941C19.8519 12.1821 14.8982 10.9509 11.0307 11.4065C10.0772 11.5188 9.2772 12.1901 9.00108 13.1096C7.88076 16.8391 8.23318 21.9314 12.4928 26.0611C16.7188 30.1582 20.2368 29.1918 22.5772 27.228Z" fill="#EDA751"/>
<path d="M8.84545 13.6802C7.92699 17.3472 8.44635 22.138 12.4927 26.061C16.1559 29.6123 19.2862 29.3587 21.5796 27.9493C20.0024 17.2421 13.1124 14.4028 8.84545 13.6802Z" fill="#FF91AB"/>
<path d="M37.1351 27.228C34.7947 25.2642 33.2321 21.9675 36.5333 17.0941C39.8605 12.1821 44.8143 10.9509 48.6817 11.4065C49.6352 11.5188 50.4352 12.1901 50.7113 13.1096C51.8316 16.8391 51.4792 21.9314 47.2196 26.0611C42.9936 30.1582 39.4756 29.1918 37.1351 27.228Z" fill="#EDA751"/>
<path d="M50.8669 13.6802C51.7854 17.3472 51.266 22.138 47.2197 26.061C43.5565 29.6123 40.4262 29.3587 38.1328 27.9493C39.7101 17.2421 46.6002 14.4028 50.8669 13.6802Z" fill="#FF91AB"/>
<path d="M50.219 30.1922C50.219 39.5026 41.1022 43.5804 29.8563 43.5804C18.6103 43.5804 9.49365 39.5026 9.49365 30.1922C9.49365 20.8818 18.6103 13.3342 29.8563 13.3342C41.1022 13.3342 50.219 20.8818 50.219 30.1922Z" fill="#FFDC9C"/>
<path opacity="0.15" d="M18.9837 15.937C13.2809 18.9245 9.49365 24.1919 9.49365 30.1922C9.49365 38.1958 16.2307 42.3325 25.2658 43.3362C12.2961 35.5889 13.9876 25.1682 18.9837 15.937Z" fill="#C17A00"/>
<path d="M19.8636 33.5214C21.8998 33.5214 23.5505 32.2068 23.5505 30.5853C23.5505 28.9637 21.8998 27.6492 19.8636 27.6492C17.8274 27.6492 16.1768 28.9637 16.1768 30.5853C16.1768 32.2068 17.8274 33.5214 19.8636 33.5214Z" fill="#FF91AB"/>
<path d="M39.848 33.5214C41.8842 33.5214 43.5348 32.2068 43.5348 30.5853C43.5348 28.9637 41.8842 27.6492 39.848 27.6492C37.8118 27.6492 36.1611 28.9637 36.1611 30.5853C36.1611 32.2068 37.8118 33.5214 39.848 33.5214Z" fill="#FF91AB"/>
<path d="M22.0123 30.9397C24.1852 30.9397 25.9466 29.1783 25.9466 27.0055C25.9466 24.8327 24.1852 23.0713 22.0123 23.0713C19.8395 23.0713 18.0781 24.8327 18.0781 27.0055C18.0781 29.1783 19.8395 30.9397 22.0123 30.9397Z" fill="white"/>
<path d="M37.6989 30.9397C39.8717 30.9397 41.6331 29.1783 41.6331 27.0055C41.6331 24.8327 39.8717 23.0713 37.6989 23.0713C35.5261 23.0713 33.7646 24.8327 33.7646 27.0055C33.7646 29.1783 35.5261 30.9397 37.6989 30.9397Z" fill="white"/>
<path d="M55.6664 47.0135L58.1114 49.399C58.7374 50.0098 58.4094 51.0727 57.5481 51.2246L49.9071 52.5719C49.0458 52.7238 48.3741 51.8371 48.7534 51.049L50.235 47.9711C50.5924 47.2285 50.7078 46.3924 50.5646 45.5808L49.8662 41.6196C49.8011 41.2503 50.0477 40.8982 50.4168 40.8331L53.0539 40.3681C53.4232 40.303 53.7754 40.5496 53.8405 40.9188L54.5389 44.8799C54.6822 45.6917 55.0765 46.4379 55.6664 47.0135Z" fill="#82C7E6"/>
<path d="M58.1114 49.3991L55.6664 47.0135C55.5923 46.9412 55.5213 46.866 55.4533 46.7886C53.9594 47.0731 52.0875 47.8456 50.2415 47.9563C50.2392 47.9612 50.2374 47.9664 50.2351 47.9713L48.7534 51.0492C48.3741 51.8372 49.0458 52.7239 49.9071 52.5721L57.5481 51.2248C58.4094 51.0728 58.7374 50.0098 58.1114 49.3991Z" fill="#F5D141"/>
<path d="M24.5435 54.4478C24.5435 54.6273 24.4539 54.7965 24.3022 54.8924C23.9794 55.0963 23.3354 55.4035 22.384 55.4035C21.4327 55.4035 20.7887 55.0963 20.4659 54.8924C20.3142 54.7965 20.2246 54.6273 20.2246 54.4478V50.7301C20.2246 50.5458 20.374 50.3962 20.5585 50.3962H24.2097C24.3941 50.3962 24.5436 50.5456 24.5436 50.7301L24.5435 54.4478Z" fill="#82C7E6"/>
<path d="M11.9893 41.3816C10.9766 40.3689 9.3347 40.3689 8.32202 41.3816C7.30933 42.3943 7.30933 44.0362 8.32202 45.0488C8.93716 45.664 9.60837 46.1628 10.3113 46.5654C12.4125 45.2352 12.9866 43.3803 13.1292 42.1482C12.61 41.8948 12.2268 41.6192 11.9893 41.3816Z" fill="#EDA751"/>
<path d="M29.8561 29.6224C30.9281 29.6224 31.9475 29.1581 32.6529 28.3488C33.0036 27.9462 32.9617 27.3356 32.5591 26.9847C32.1566 26.634 31.5458 26.6759 31.1951 27.0783C30.8571 27.4663 30.3689 27.6888 29.856 27.6888C29.3431 27.6888 28.855 27.4663 28.517 27.0783C28.1663 26.6759 27.5555 26.634 27.1529 26.9847C26.7504 27.3356 26.7085 27.9462 27.0592 28.3488C27.7649 29.1582 28.7843 29.6224 29.8561 29.6224ZM24.2095 49.4296H20.5581C19.841 49.4296 19.2576 50.013 19.2576 50.7303V54.4478C19.2576 54.9642 19.516 55.436 19.9494 55.7098C20.4265 56.0112 21.236 56.3703 22.3839 56.3703C23.5317 56.3703 24.3414 56.0112 24.8185 55.7097C25.2516 55.436 25.5102 54.9642 25.5102 54.4477V50.7302C25.5102 50.013 24.9267 49.4296 24.2095 49.4296ZM23.5766 54.1892C23.3213 54.3098 22.924 54.4367 22.3839 54.4367C21.8437 54.4367 21.4464 54.3098 21.1913 54.1892V51.3632H23.5766V54.1892V54.1892ZM39.0572 32.4805C38.9202 32.9966 39.2275 33.5259 39.7435 33.663C40.6432 33.9017 42.631 34.8956 43.2994 35.3889C43.4722 35.5164 43.6733 35.5779 43.8727 35.5779C44.1692 35.5779 44.4618 35.442 44.6513 35.1851C44.9684 34.7556 44.8772 34.1502 44.4477 33.8331C43.5958 33.2044 41.4021 32.1027 40.2396 31.7941C39.7231 31.6572 39.1941 31.9645 39.0572 32.4805ZM22.9796 27.6558V26.3539C22.9796 25.8199 22.5467 25.3871 22.0128 25.3871C21.4789 25.3871 21.046 25.8199 21.046 26.3539V27.6558C21.046 28.1897 21.4789 28.6226 22.0128 28.6226C22.5467 28.6226 22.9796 28.1899 22.9796 27.6558ZM40.8669 30.9394C41.7899 30.8175 44.0063 30.9789 44.8121 31.1804C44.8907 31.2 44.9696 31.2095 45.0472 31.2095C45.4803 31.2094 45.8745 30.9162 45.9843 30.4769C46.1138 29.9588 45.7988 29.4341 45.2808 29.3045C44.2538 29.0477 41.806 28.8648 40.6135 29.0225C40.084 29.0925 39.7118 29.5783 39.7816 30.1076C39.8518 30.637 40.3389 31.009 40.8669 30.9394ZM38.6665 27.6558V26.3539C38.6665 25.8199 38.2337 25.3871 37.6997 25.3871C37.1656 25.3871 36.7329 25.8199 36.7329 26.3539V27.6558C36.7329 28.1897 37.1656 28.6226 37.6997 28.6226C38.2337 28.6226 38.6665 28.1899 38.6665 27.6558ZM39.1542 49.4296H35.5028C34.7856 49.4296 34.2023 50.013 34.2023 50.7303V54.4478C34.2023 54.9643 34.4609 55.436 34.8942 55.7098C35.3711 56.0112 36.1806 56.3703 37.3285 56.3703C38.4766 56.3703 39.2861 56.0111 39.7631 55.7097C40.1962 55.436 40.4548 54.9642 40.4548 54.4477V50.7302C40.4548 50.013 39.8714 49.4296 39.1542 49.4296ZM38.5212 54.1892C38.2661 54.3098 37.8688 54.4367 37.3285 54.4367C36.7884 54.4367 36.3911 54.3098 36.1359 54.1892V51.3632H38.5212V54.1892ZM19.4727 31.7941C18.3098 32.1028 16.1164 33.2044 15.2647 33.8331C14.8351 34.1502 14.7439 34.7556 15.061 35.1851C15.2506 35.4419 15.5431 35.5777 15.8396 35.5777C16.039 35.5777 16.2403 35.5163 16.413 35.3888C17.0812 34.8956 19.0688 33.9017 19.9687 33.6628C20.4848 33.5258 20.7921 32.9964 20.6552 32.4804C20.5181 31.9645 19.9889 31.6572 19.4727 31.7941ZM58.7867 48.7071L56.3416 46.3216C55.8939 45.8846 55.5998 45.3282 55.4913 44.7123L54.7928 40.7513C54.7165 40.3184 54.4762 39.941 54.116 39.6888C53.7557 39.4365 53.319 39.34 52.8862 39.4162L50.2492 39.8811C49.8163 39.9576 49.439 40.1979 49.1869 40.5579C49.1086 40.6697 49.0473 40.7894 48.9995 40.9134C48.5145 41.0886 48.0735 41.3655 47.7015 41.7375C46.8913 42.5478 44.782 43.0151 42.4923 42.5173C42.4831 42.4617 42.4735 42.4078 42.4642 42.3532C43.2765 42.0104 44.0393 41.6292 44.7475 41.2097C48.9594 38.7143 51.1856 34.9045 51.1856 30.1924C51.1856 28.1349 50.7717 26.1328 49.979 24.2506C52.2064 20.8779 52.8137 16.7492 51.637 12.8317C51.2491 11.5406 50.1334 10.6043 48.7945 10.4466C47.2627 10.2658 45.7401 10.3425 44.2803 10.6578C44.5879 10.0845 44.892 9.52927 45.1693 9.0371C45.4584 8.52393 45.4186 7.88661 45.0677 7.41353C44.7172 6.94096 44.1198 6.71756 43.5445 6.84557C42.9035 6.98801 41.0123 7.42913 39.4066 8.01075C39.8128 6.80689 40.3609 5.42708 40.7711 4.52886C41.0203 3.98282 40.9379 3.35582 40.5562 2.8924C40.1756 2.4304 39.5781 2.22995 38.9959 2.36968C36.6134 2.94177 34.7531 4.43218 33.3513 5.78905C32.514 3.80029 31.652 1.87752 31.1903 0.859805C30.9496 0.329484 30.4385 0 29.8562 0H29.8561C29.2738 0 28.7627 0.329484 28.5219 0.859805C28.0603 1.87752 27.1982 3.80016 26.3611 5.78905C24.9592 4.43205 23.099 2.94177 20.7164 2.36968C20.1345 2.22982 19.5366 2.4304 19.156 2.8924C18.7743 3.35569 18.6919 3.98282 18.9411 4.52873C19.3512 5.42721 19.8994 6.80702 20.3054 8.01062C18.6999 7.42913 16.8087 6.98788 16.1676 6.84544C15.593 6.71795 14.9949 6.94083 14.6443 7.41366C14.2934 7.88674 14.2537 8.52405 14.5428 9.03723C14.8204 9.52991 15.1244 10.0851 15.4318 10.658C13.9722 10.3428 12.4496 10.2662 10.9176 10.4466C9.57864 10.6043 8.46296 11.5405 8.07508 12.8317C6.89842 16.749 7.5057 20.8778 9.73307 24.2506C8.9403 26.1329 8.52651 28.1351 8.52651 30.1925C8.52651 32.4453 9.03053 34.4989 10.0245 36.2963C10.2829 36.7635 10.8713 36.9329 11.3383 36.6745C11.8056 36.4161 11.9749 35.8278 11.7166 35.3607C10.8828 33.853 10.4601 32.1142 10.4601 30.1927C10.4601 21.4303 19.161 14.3015 29.856 14.3015C40.5509 14.3015 49.2519 21.4303 49.2519 30.1927C49.2519 34.241 47.4048 37.388 43.7617 39.5465C42.9351 40.0362 42.0233 40.4692 41.0349 40.8446C41.0142 40.8521 40.9936 40.8594 40.9739 40.8682C38.6804 41.7309 35.9754 42.2832 32.9523 42.5041C32.9395 42.505 32.9267 42.5053 32.9142 42.5067C31.9274 42.5779 30.9071 42.6141 29.856 42.6141C23.3034 42.6141 17.8504 41.1751 14.5017 38.562C14.0804 38.2335 13.4732 38.3086 13.1447 38.7295C12.8162 39.1505 12.8913 39.758 13.3122 40.0865C14.2221 40.7965 15.2501 41.4243 16.3855 41.969C13.8333 41.8239 12.6863 40.7117 12.6728 40.6982C11.2847 39.3102 9.02628 39.3101 7.63821 40.6982C6.25015 42.0862 6.25015 44.3448 7.63821 45.7327C8.25838 46.3529 8.96079 46.8872 9.73243 47.339C9.78811 47.3807 9.84793 47.4151 9.91032 47.4436C11.7932 48.499 14.0889 49.0569 16.6881 49.0798C16.6488 50.6602 16.6511 52.3851 16.6959 54.2408C16.3675 54.2914 16.0542 54.2658 15.7495 54.1634C14.9788 53.9046 14.5172 53.1357 14.6759 52.3747C14.8169 51.6981 14.686 51.0072 14.3073 50.4289C13.9287 49.8508 13.3473 49.4546 12.6712 49.3137C11.9947 49.1726 11.3033 49.3033 10.725 49.6821C10.147 50.0609 9.75086 50.642 9.60984 51.3186C8.91645 54.6448 10.848 57.9767 14.1027 59.0695C14.8171 59.3092 15.5654 59.4308 16.3269 59.4308H16.3275C17.4749 59.4308 18.6222 59.1604 19.7425 58.6282C20.6577 58.795 21.6029 58.9047 22.4941 58.9756C22.5208 60.0181 22.4742 60.9971 22.3491 61.9998C22.2316 62.9434 22.4885 63.8763 23.0725 64.6266C23.6566 65.377 24.4981 65.855 25.4418 65.9725C25.5888 65.9908 25.7378 66 25.8849 66C27.6754 66 29.1926 64.6586 29.4142 62.88C29.5933 61.4437 29.6545 60.0521 29.6055 58.5771C29.6889 58.5786 29.7722 58.5809 29.8557 58.5809C30.2204 58.5809 30.5843 58.5649 30.9465 58.5366C31.0012 59.7557 30.9602 60.8565 30.8177 61.9997C30.7002 62.9432 30.9571 63.8761 31.5412 64.6265C32.1252 65.3769 32.9666 65.8549 33.9105 65.9724C34.0574 65.9907 34.2066 65.9999 34.3536 65.9999C35.6626 65.9999 36.8623 65.2832 37.4847 64.1292C37.7381 63.6592 37.5625 63.0728 37.0926 62.8194C36.6224 62.5657 36.0361 62.7414 35.7827 63.2114C35.4661 63.7985 34.8153 64.1365 34.1492 64.0535C33.7181 63.9998 33.3339 63.7814 33.0669 63.4386C32.8001 63.0959 32.6828 62.6697 32.7364 62.2385C32.8817 61.072 32.9317 59.9511 32.8902 58.7323C33.2231 58.9695 33.6195 59.0989 34.0364 59.0989H34.0377C34.604 59.0986 35.3362 59.0862 36.1533 59.0445C36.156 59.1901 36.1578 59.3354 36.1581 59.4807C36.159 60.0141 36.5916 60.4458 37.1249 60.4458H37.1265C37.6606 60.4449 38.0926 60.0113 38.0917 59.4773C38.0913 59.2833 38.0884 59.0896 38.0841 58.8951C39.278 58.7682 40.5179 58.5662 41.6178 58.2471C42.3769 58.0268 42.9083 57.3486 42.9402 56.5597C43.0404 54.0862 43.0726 51.8112 43.0379 49.7639C43.4935 49.8022 43.9479 49.8232 44.3972 49.8232C45.881 49.8232 47.285 49.617 48.56 49.221L47.8818 50.63C47.5484 51.323 47.6297 52.1341 48.094 52.747C48.4849 53.263 49.0845 53.5556 49.7163 53.5555C49.8349 53.5555 49.9548 53.5452 50.0745 53.5241L57.7152 52.1767C58.4725 52.0432 59.0838 51.5038 59.3105 50.7691C59.5382 50.0343 59.3371 49.2442 58.7867 48.7071ZM14.841 17.527C13.1622 18.9167 11.7954 20.4984 10.7675 22.2131C9.2565 19.3798 9.29505 16.6298 9.59759 14.8166C11.215 15.1911 13.207 15.9252 15.0489 17.3589C14.9796 17.415 14.9097 17.4703 14.841 17.527ZM16.6645 16.1797C14.4815 14.3435 12.0803 13.4199 10.1402 12.9578C10.3733 12.6346 10.7339 12.415 11.1441 12.3666C12.6377 12.1905 16.2136 12.1093 19.5137 14.5927C18.5197 15.0539 17.5673 15.5841 16.6645 16.1797ZM29.8561 12.3674C26.9565 12.3674 24.1444 12.8489 21.5502 13.7641C20.4997 12.8307 19.3249 12.0775 18.0674 11.5184C17.634 10.6734 17.1579 9.77548 16.7114 8.95976C18.0801 9.30007 19.6186 9.75743 20.5964 10.2141C21.0913 10.4453 21.6577 10.3697 22.0743 10.0169C22.4903 9.66475 22.6579 9.1196 22.5117 8.59444C22.1708 7.36918 21.5543 5.72009 21.0305 4.48014C22.8337 5.13421 24.3014 6.44982 25.4113 7.56873C25.7731 7.93341 26.2903 8.09209 26.7946 7.99309C27.3008 7.8937 27.7213 7.54991 27.9194 7.0736C28.6016 5.43288 29.3284 3.78314 29.8561 2.60494C30.3838 3.78314 31.1105 5.43288 31.7927 7.07347C31.9908 7.55004 32.4113 7.89383 32.9175 7.99309C33.4222 8.09196 33.9391 7.93328 34.3009 7.56873C35.4107 6.44982 36.8784 5.13421 38.6815 4.48014C38.1578 5.71957 37.5414 7.36841 37.2004 8.59444C37.0544 9.11973 37.2219 9.66475 37.6381 10.0169C38.0547 10.3699 38.6208 10.4453 39.1158 10.214C40.0937 9.7573 41.6321 9.29994 43.0008 8.95963C42.5547 9.77444 42.0787 10.6724 41.6448 11.5183C40.3874 12.0774 39.2125 12.8307 38.1621 13.7641C35.5679 12.8489 32.7557 12.3674 29.8561 12.3674ZM40.1988 14.5927C43.4988 12.1093 47.0746 12.1908 48.5683 12.3665C48.9784 12.4148 49.3391 12.6345 49.5723 12.9577C47.6322 13.4198 45.2308 14.3434 43.0479 16.1795C42.145 15.5841 41.1926 15.0541 40.1988 14.5927ZM48.9448 22.2133C47.9169 20.4985 46.5501 18.9169 44.8714 17.5271C44.8028 17.4703 44.7329 17.4151 44.6634 17.3592C46.5054 15.9255 48.4974 15.1912 50.1149 14.8167C50.4173 16.6298 50.4557 19.3799 48.9448 22.2133ZM10.2798 45.4028C9.76646 45.0619 9.34545 44.7048 9.00578 44.365C8.37169 43.7309 8.37169 42.6992 9.00578 42.0649C9.63987 41.4309 10.6718 41.4309 11.3057 42.0649C11.5057 42.2649 11.7577 42.4666 12.0582 42.6598C11.848 43.5355 11.3572 44.5567 10.2798 45.4028ZM12.1301 46.3506C13.0582 45.4285 13.5704 44.4055 13.8445 43.4714C14.7358 43.7481 15.8027 43.924 17.0239 43.9169C16.909 44.8892 16.8215 45.9693 16.7609 47.1478C14.8681 47.1377 13.3454 46.8169 12.1301 46.3506ZM16.3277 57.4967H16.3271C15.7752 57.4967 15.2338 57.4089 14.7181 57.2359C12.3916 56.4549 11.0094 54.0806 11.503 51.7128C11.5385 51.5417 11.6387 51.3948 11.7849 51.299C11.9308 51.2032 12.1053 51.1704 12.2766 51.2061C12.4476 51.2417 12.5944 51.3418 12.6902 51.4879C12.7858 51.6339 12.819 51.8086 12.7832 51.9796C12.4248 53.6989 13.4355 55.4256 15.1345 55.9961C15.6631 56.1736 16.2057 56.2354 16.7572 56.1819C16.7619 56.3074 16.7666 56.4326 16.7717 56.5592C16.7848 56.8825 16.8829 57.1864 17.0449 57.4486C16.8051 57.4805 16.566 57.4967 16.3277 57.4967ZM23.4493 57.1029C22.3068 57.0388 21.0161 56.9134 19.8183 56.6753C19.8084 56.6731 19.7985 56.6712 19.7885 56.6692C19.4141 56.5941 19.0489 56.5081 18.7006 56.4094C18.4724 50.7122 18.6088 46.1321 19.0936 43.0431C21.0757 43.6858 23.2971 44.1269 25.7261 44.3577V57.1126C25.7261 57.1186 25.7261 57.135 25.7106 57.1505C25.696 57.165 25.6829 57.1615 25.6752 57.1652C25.0965 57.1648 24.3356 57.1516 23.4916 57.1052C23.4776 57.1042 23.4635 57.1031 23.4493 57.1029ZM27.496 62.6404C27.3948 63.4532 26.7023 64.066 25.8854 64.066C25.8177 64.066 25.7489 64.0618 25.6811 64.0533C25.25 63.9995 24.8656 63.7811 24.5988 63.4384C24.332 63.0955 24.2145 62.6693 24.2683 62.2383C24.3994 61.1868 24.4529 60.1621 24.432 59.0795C24.8977 59.0935 25.3189 59.0985 25.6741 59.0986H25.6754C26.2059 59.0986 26.7044 58.8919 27.0792 58.5163C27.1375 58.458 27.1902 58.3956 27.2402 58.3315C27.3815 58.3587 27.5232 58.3836 27.6653 58.4064C27.7259 59.8678 27.6715 61.2319 27.496 62.6404ZM32.0525 56.4431C30.6093 56.7123 29.103 56.7123 27.6597 56.4431V44.4947C28.3765 44.5289 29.1082 44.5472 29.8561 44.5472C30.6025 44.5472 31.3348 44.5295 32.0525 44.4946V56.4431V56.4431ZM41.0117 56.4092C39.7896 56.7559 38.3611 56.947 37.0466 57.0503C37.0421 57.0504 37.0376 57.0502 37.0331 57.0503C37.021 57.0509 37.0091 57.053 36.9971 57.054C35.8475 57.1427 34.7888 57.1645 34.0372 57.165C34.0325 57.1646 34.0164 57.165 34.0017 57.1503C33.9863 57.1349 33.9863 57.1185 33.9863 57.1124V44.355C36.406 44.1224 38.6314 43.6796 40.6178 43.0368C41.1033 46.126 41.2399 50.7085 41.0117 56.4092ZM44.3978 47.8894C43.9309 47.8894 43.4571 47.8631 42.9825 47.8162C42.933 46.6211 42.8567 45.5218 42.7546 44.5233C43.2856 44.601 43.8329 44.6433 44.3787 44.6433C44.9791 44.6433 45.5766 44.5922 46.1474 44.4862C46.3424 45.4911 46.7488 46.5945 47.4365 47.5312C46.4956 47.7678 45.4739 47.8894 44.3978 47.8894ZM48.0024 43.8707C48.4031 43.6617 48.7649 43.4087 49.0689 43.1044C49.0905 43.0829 49.1132 43.0631 49.1357 43.0428L49.6128 45.7487C49.6684 46.0639 49.6722 46.3809 49.6271 46.691C49.5423 46.737 49.4566 46.7821 49.3693 46.8256C48.5324 45.9849 48.1421 44.776 48.0024 43.8707ZM57.4637 50.1989C57.4445 50.2612 57.4012 50.2689 57.3803 50.2725L49.7395 51.6199C49.7189 51.6236 49.6754 51.6315 49.6359 51.5793C49.5964 51.5272 49.6156 51.4875 49.6248 51.4685L51.1063 48.3906C51.5544 47.4599 51.6963 46.4304 51.517 45.4132L50.8686 41.7355L52.9388 41.3704L53.5874 45.048C53.7665 46.065 54.252 46.984 54.9914 47.7055C54.9914 47.7055 54.9914 47.7055 54.9915 47.7055L57.4365 50.091C57.4515 50.1057 57.4829 50.1365 57.4637 50.1989ZM19.0989 29.0225C17.9065 28.8651 15.4586 29.0477 14.4314 29.3045C13.9134 29.4339 13.5985 29.9588 13.7279 30.4769C13.8377 30.9162 14.2319 31.2095 14.6652 31.2095C14.7428 31.2095 14.8216 31.2001 14.9004 31.1804C15.7062 30.9789 17.9225 30.8174 18.8456 30.9394C19.3749 31.0096 19.8608 30.6369 19.9307 30.1076C20.0006 29.5783 19.6282 29.0925 19.0989 29.0225Z" fill="#151515"/>
<path d="M22.0128 31.9059C19.3104 31.9059 17.1118 29.7073 17.1118 27.0048C17.1118 24.3024 19.3104 22.1038 22.0128 22.1038C24.7152 22.1038 26.9138 24.3024 26.9138 27.0048C26.9138 29.7073 24.7152 31.9059 22.0128 31.9059ZM22.0128 24.0374C20.3766 24.0374 19.0454 25.3686 19.0454 27.0048C19.0454 28.641 20.3766 29.9723 22.0128 29.9723C23.649 29.9723 24.9803 28.6411 24.9803 27.0048C24.9803 25.3686 23.649 24.0374 22.0128 24.0374Z" fill="#7694E4"/>
<path d="M37.6995 31.9059C34.997 31.9059 32.7983 29.7073 32.7983 27.0048C32.7983 24.3024 34.997 22.1038 37.6995 22.1038C40.4019 22.1038 42.6005 24.3024 42.6005 27.0048C42.6004 29.7073 40.4017 31.9059 37.6995 31.9059ZM37.6995 24.0374C36.0633 24.0374 34.7319 25.3686 34.7319 27.0048C34.7319 28.641 36.0631 29.9723 37.6995 29.9723C39.3357 29.9723 40.6669 28.6411 40.6669 27.0048C40.6668 25.3686 39.3357 24.0374 37.6995 24.0374Z" fill="#7694E4"/>
<path d="M34.1368 26.302C33.9074 26.302 33.6772 26.221 33.4928 26.056C33.4833 26.0475 32.516 25.2101 29.8564 25.2101C27.1968 25.2101 26.2295 26.0475 26.2201 26.056C25.8221 26.4117 25.2108 26.3778 24.855 25.9798C24.4991 25.5817 24.5332 24.9706 24.9312 24.6147C25.6546 23.9678 27.3283 23.2766 29.8564 23.2766C32.3845 23.2766 34.0583 23.9678 34.7817 24.6147C35.1797 24.9706 35.2139 25.5818 34.858 25.9798C34.6668 26.1931 34.4023 26.302 34.1368 26.302Z" fill="#7694E4"/>
</svg>
