<svg width="66" height="66" viewBox="0 0 66 66" fill="none" xmlns="http://www.w3.org/2000/svg">
<g clip-path="url(#clip0_716_16126)">
<path d="M43.4817 60.4096H7.20215C6.03632 60.4096 5.09131 59.4646 5.09131 58.2988V52.3335C5.09131 51.1677 6.03632 50.2227 7.20215 50.2227H43.4815C44.6474 50.2227 45.5924 51.1677 45.5924 52.3335V58.2988C45.5925 59.4645 44.6475 60.4096 43.4817 60.4096Z" fill="#BD4568"/>
<path opacity="0.1" d="M15.1564 50.2227H10.7935V60.4104H15.1564V50.2227Z" fill="#151515"/>
<path d="M2.6377 52.8032C2.1873 52.8032 1.73819 52.6224 1.4087 52.265C0.782865 51.5865 0.825404 50.529 1.50397 49.9031C5.03368 46.647 8.28031 46.173 13.4841 48.1556C16.3079 49.2308 18.1027 47.3617 20.7225 44.1545C21.3065 43.4396 22.3595 43.3338 23.0745 43.9174C23.7894 44.5014 23.8955 45.5544 23.3116 46.2695C21.3415 48.6809 18.7783 51.8178 15.0462 51.8182C14.1922 51.8182 13.2775 51.6541 12.2941 51.2795C7.84216 49.5835 6.06673 50.2421 3.77104 52.36C3.44942 52.6566 3.04298 52.8032 2.6377 52.8032Z" fill="#EDA751"/>
<path d="M2.49098 49.0601C2.16317 49.3167 1.83485 49.5975 1.50395 49.9027C0.825385 50.5286 0.782846 51.5861 1.40881 52.2647C1.7383 52.622 2.18741 52.8028 2.63781 52.8028C3.04296 52.8028 3.44953 52.6563 3.77076 52.3599C4.08903 52.0664 4.39712 51.802 4.70392 51.5669C4.30263 50.4388 3.4231 49.4482 2.49098 49.0601Z" fill="#FCD79D"/>
<path opacity="0.2" d="M23.0742 43.9175C22.3591 43.3338 21.3062 43.4395 20.7221 44.1545C18.5184 46.8523 16.8981 48.603 14.7583 48.451C15.3908 49.5619 16.1779 50.5836 17.0932 51.4898C19.7514 50.6249 21.7241 48.2124 23.3112 46.2695C23.895 45.5546 23.7891 44.5016 23.0742 43.9175Z" fill="#C18F00"/>
<path d="M27.3456 53.3385C34.1581 53.3385 39.6808 48.2065 39.6808 41.8759C39.6808 35.5453 34.1581 30.4133 27.3456 30.4133C20.533 30.4133 15.0103 35.5453 15.0103 41.8759C15.0103 48.2065 20.533 53.3385 27.3456 53.3385Z" fill="#FCD690"/>
<path opacity="0.15" d="M25.544 53.2167C19.9069 49.5156 21.654 41.9304 22.611 38.6133V31.2888C18.148 33.0141 15.0098 37.1043 15.0098 41.8761C15.0098 47.638 19.5852 52.4065 25.544 53.2167Z" fill="#C17A00"/>
<path d="M19.8386 22.0003C22.2523 19.9749 23.864 16.5748 20.4592 11.5484C17.0276 6.48242 11.9186 5.21257 7.92981 5.68243C6.94652 5.79832 6.12139 6.49055 5.83651 7.43891C4.68112 11.2855 5.04451 16.5374 9.43763 20.7966C13.7965 25.0225 17.4249 24.0257 19.8386 22.0003Z" fill="#EDA751"/>
<path d="M5.67596 8.02759C4.72876 11.8096 5.26436 16.7505 9.4377 20.7967C13.2157 24.4595 16.4443 24.1976 18.8094 22.7443C17.1828 11.7013 10.0767 8.77279 5.67596 8.02759Z" fill="#FF91AB"/>
<path d="M34.8524 22.0003C32.4387 19.9749 30.8269 16.5748 34.2317 11.5484C37.6634 6.48242 42.7724 5.21257 46.7612 5.68243C47.7445 5.79832 48.5696 6.49055 48.8545 7.43891C50.0099 11.2855 49.6465 16.5374 45.2532 20.7966C40.8945 25.0225 37.2662 24.0257 34.8524 22.0003Z" fill="#EDA751"/>
<path d="M49.0148 8.02759C49.962 11.8096 49.4264 16.7505 45.2531 20.7967C41.4751 24.4595 38.2465 24.1976 35.8813 22.7443C37.508 11.7013 44.6141 8.77279 49.0148 8.02759Z" fill="#FF91AB"/>
<path d="M48.3469 25.0573C48.3469 34.6596 38.9444 38.8653 27.3456 38.8653C15.7469 38.8653 6.34424 34.6595 6.34424 25.0573C6.34424 15.455 15.7469 7.67065 27.3455 7.67065C38.9442 7.67065 48.3469 15.4549 48.3469 25.0573Z" fill="#FFDC9C"/>
<path opacity="0.15" d="M16.1318 10.355C10.2502 13.4361 6.34424 18.8687 6.34424 25.0571C6.34424 33.3116 13.2925 37.5782 22.6109 38.6133C9.23445 30.6232 10.9789 19.8757 16.1318 10.355Z" fill="#C17A00"/>
<path d="M18.9999 28.4618C21.1 28.4618 22.8025 27.106 22.8025 25.4337C22.8025 23.7613 21.1 22.4055 18.9999 22.4055C16.8998 22.4055 15.1973 23.7613 15.1973 25.4337C15.1973 27.106 16.8998 28.4618 18.9999 28.4618Z" fill="#FF91AB"/>
<path d="M39.6112 28.4618C41.7113 28.4618 43.4138 27.106 43.4138 25.4337C43.4138 23.7613 41.7113 22.4055 39.6112 22.4055C37.5111 22.4055 35.8086 23.7613 35.8086 25.4337C35.8086 27.106 37.5111 28.4618 39.6112 28.4618Z" fill="#FF91AB"/>
<path d="M44.6162 33.7589C44.1813 30.1208 29.623 27.6731 24.8589 33.7589V54.4638H44.6162V33.7589Z" fill="#DEE2E5"/>
<path d="M44.6162 33.7589C44.1813 30.1208 29.623 27.6731 24.8589 33.7589V54.4638H44.6162V33.7589Z" fill="#DEE2E5"/>
<path d="M44.6162 33.7589C44.9929 30.1208 57.6 27.6731 61.7258 33.7589V54.4638H44.6162V33.7589Z" fill="#DEE2E5"/>
<path d="M40.5319 60.4098H24.1995C22.6789 60.4098 21.4463 59.1772 21.4463 57.6566V36.5122C21.4463 34.9916 22.6789 33.759 24.1995 33.759H40.5319V60.4098Z" fill="#78CFC0"/>
<path d="M62.2801 60.4098H48.7007V33.759H62.2801C63.8006 33.759 65.0332 34.9916 65.0332 36.5122V57.6563C65.0332 59.177 63.8006 60.4098 62.2801 60.4098Z" fill="#78CFC0"/>
<path d="M48.7007 33.7585H40.5317V60.4091H48.7007V33.7585Z" fill="#78CFC0"/>
<path opacity="0.1" d="M48.7002 33.7585H40.5312V60.4091H48.7002V33.7585Z" fill="#151515"/>
<path d="M27.7188 56.5168H34.259C34.6583 56.5168 34.9821 56.193 34.9821 55.7936V53.5276C34.9821 53.1283 34.6583 52.8044 34.259 52.8044H27.7188C27.3194 52.8044 26.9956 53.1283 26.9956 53.5276V55.7936C26.9956 56.1931 27.3194 56.5168 27.7188 56.5168Z" fill="white"/>
<path d="M23.0128 48.4622C19.4966 48.8714 15.4115 47.3482 13.3614 43.2172C12.7048 41.8941 13.2451 40.2892 14.5682 39.6325C15.8912 38.9756 17.4962 39.5161 18.1529 40.8394C19.3641 43.2806 21.8957 43.4373 23.2065 42.9626C24.5964 42.4602 26.1289 43.1782 26.6318 44.5669C27.1347 45.9559 26.4163 47.4894 25.0274 47.9922C24.3924 48.2222 23.7136 48.3806 23.0128 48.4622Z" fill="#EDA751"/>
<path d="M44.6162 50.8019C44.0822 50.8019 43.6494 50.3692 43.6494 49.8351V41.5476C43.6494 41.0137 44.0822 40.5808 44.6162 40.5808C45.1503 40.5808 45.583 41.0137 45.583 41.5476V49.8351C45.583 50.3692 45.1501 50.8019 44.6162 50.8019Z" fill="#F5D141"/>
<path d="M44.6162 56.9146C44.0822 56.9146 43.6494 56.4818 43.6494 55.9478V54.0159C43.6494 53.4818 44.0822 53.0491 44.6162 53.0491C45.1503 53.0491 45.583 53.4818 45.583 54.0159V55.9478C45.583 56.4818 45.1501 56.9146 44.6162 56.9146Z" fill="#F5D141"/>
<g opacity="0.1">
<path d="M60.9349 56.9146H52.7983C52.2643 56.9146 51.8315 56.4818 51.8315 55.9478C51.8315 55.4137 52.2643 54.981 52.7983 54.981H60.9349C61.469 54.981 61.9017 55.4137 61.9017 55.9478C61.9017 56.4818 61.4691 56.9146 60.9349 56.9146Z" fill="#151515"/>
<path d="M59.3051 53.7698H54.4287C53.8948 53.7698 53.4619 53.337 53.4619 52.803C53.4619 52.269 53.8948 51.8362 54.4287 51.8362H59.3051C59.839 51.8362 60.2719 52.269 60.2719 52.803C60.2719 53.3369 59.839 53.7698 59.3051 53.7698Z" fill="#151515"/>
</g>
<path d="M19.7865 27.3968C19.6495 26.8808 19.1203 26.5737 18.6039 26.7105C17.4079 27.0281 15.1509 28.1617 14.2743 28.8086C13.8447 29.1256 13.7534 29.7309 14.0705 30.1604C14.2601 30.4173 14.5526 30.5532 14.8491 30.5532C15.0485 30.5532 15.2496 30.4917 15.4225 30.3642C16.1137 29.8541 18.1695 28.8262 19.1001 28.5793C19.6162 28.4422 19.9235 27.9129 19.7865 27.3968ZM17.9533 25.7697C18.4825 25.8399 18.9686 25.4673 19.0386 24.938C19.1086 24.4088 18.736 23.9228 18.2069 23.8528C16.9796 23.6906 14.4609 23.8788 13.4042 24.1429C12.8861 24.2725 12.5712 24.7974 12.7008 25.3155C12.8107 25.7548 13.2048 26.0481 13.638 26.0481C13.7158 26.0481 13.7947 26.0386 13.8733 26.0189C14.7064 25.8106 16.9989 25.6433 17.9533 25.7697ZM29.3054 24.4111C30.4023 24.4111 31.4453 23.9361 32.1669 23.1078C32.5178 22.7054 32.4756 22.0946 32.0731 21.7439C31.6706 21.393 31.0597 21.435 30.7091 21.8377C30.3547 22.2443 29.843 22.4776 29.3053 22.4776C28.7675 22.4776 28.2558 22.2443 27.9014 21.8377C27.5506 21.435 26.9399 21.3931 26.5374 21.7439C26.1349 22.0946 26.0928 22.7054 26.4436 23.1078C27.1655 23.9361 28.2083 24.4111 29.3054 24.4111ZM62.28 32.792H62.2153C59.2902 29.0465 53.37 28.4866 48.9585 29.5958C48.8075 29.6337 48.6601 29.6739 48.5144 29.7152C49.0451 28.2832 49.3135 26.7252 49.3135 25.0572C49.3135 22.9339 48.8854 20.8677 48.0652 18.9257C50.3647 15.4522 50.9929 11.1974 49.7803 7.16058C49.3838 5.84071 48.2431 4.88358 46.8743 4.72219C42.8559 4.24872 38.8983 5.49447 35.9186 8.14865C33.2417 7.20196 30.3389 6.70387 27.3456 6.70387C24.3522 6.70387 21.4494 7.20196 18.7724 8.14865C15.7931 5.4946 11.8362 4.24859 7.81677 4.72219C6.44791 4.88332 5.30722 5.84058 4.91071 7.16071C3.69809 11.1974 4.32625 15.4522 6.6258 18.9257C5.8057 20.8677 5.37761 22.9339 5.37761 25.0572C5.37761 28.4684 6.48388 31.3899 8.666 33.7409C10.2115 35.406 12.2685 36.7486 14.7954 37.7507C14.6893 38.033 14.5938 38.3188 14.5097 38.6076C14.3843 38.6537 14.2604 38.7061 14.139 38.7665C13.2677 39.1988 12.617 39.9445 12.3067 40.8663C11.9963 41.788 12.0635 42.7754 12.4959 43.6467C13.2495 45.1652 14.2333 46.3344 15.3324 47.2146C15.3733 47.2946 15.4126 47.3753 15.4552 47.4545C14.9443 47.5468 14.423 47.4783 13.8282 47.252C8.2887 45.1418 4.64954 45.6858 0.848226 49.1923C-0.221051 50.1785 -0.288469 51.851 0.697664 52.9201C1.19537 53.4601 1.90255 53.7699 2.63744 53.7699C3.17318 53.7699 3.68816 53.6061 4.12425 53.3076V58.2988C4.12425 59.9959 5.50484 61.3765 7.20189 61.3765H62.2798C64.3309 61.3765 65.9999 59.7077 65.9999 57.6564V36.5121C66 34.461 64.3312 32.792 62.28 32.792ZM49.43 31.471C52.7512 30.6362 56.865 30.9136 59.4463 32.792H48.7016C48.7013 32.792 48.7011 32.792 48.7007 32.792C48.7004 32.792 48.7 32.792 48.6998 32.792H46.3808C47.028 32.3034 48.0556 31.8166 49.43 31.471ZM47.034 16.89C45.9726 15.1066 44.5561 13.4618 42.8122 12.0182C42.7318 11.9516 42.6499 11.8867 42.5686 11.8213C44.4927 10.3148 46.578 9.54973 48.2638 9.16301C48.5831 11.0474 48.6316 13.9269 47.034 16.89ZM46.648 6.64251C47.0951 6.69523 47.4868 6.94105 47.7308 7.30148C45.7206 7.77482 43.221 8.72911 40.9528 10.643C40.0032 10.0153 39.0004 9.45808 37.953 8.97481C41.3769 6.37529 45.0975 6.45998 46.648 6.64251ZM8.043 6.64251C9.5931 6.45985 13.3142 6.37529 16.738 8.97481C15.6906 9.45808 14.6877 10.0152 13.7382 10.643C11.4701 8.72924 8.97048 7.77495 6.96032 7.30148C7.20434 6.94093 7.59582 6.69523 8.043 6.64251ZM6.42742 9.16288C8.11325 9.54973 10.1987 10.3148 12.1226 11.8213C12.0412 11.8867 11.9593 11.9516 11.879 12.0182C10.1353 13.4618 8.71873 15.1065 7.65718 16.89C6.05952 13.9267 6.10799 11.0472 6.42742 9.16288ZM7.31107 25.0573C7.31107 16.0035 16.2985 8.63759 27.3456 8.63759C38.3926 8.63759 47.3799 16.0035 47.3799 25.0573C47.3799 27.2344 46.8535 29.1797 45.8176 30.8444C45.3231 31.1445 44.9046 31.4733 44.5714 31.8252C43.7262 31.0253 42.3747 30.3493 40.5841 29.8486C35.2248 28.3508 27.8618 28.9047 24.4079 32.7923H24.1995C22.1483 32.7923 20.4794 34.461 20.4794 36.5123V41.8966C19.916 41.6238 19.3891 41.1551 19.0194 40.4098C18.5869 39.5385 17.8412 38.8876 16.9194 38.5774C16.8097 38.5405 16.6991 38.5093 16.5878 38.483C16.5993 38.4521 16.6117 38.4216 16.6234 38.3908C16.7589 38.4325 16.8933 38.4747 17.0311 38.5147C17.1208 38.5406 17.2115 38.5531 17.3007 38.5531C17.72 38.5531 18.1062 38.2782 18.2288 37.8551C18.3773 37.3422 18.082 36.8061 17.5692 36.6574C12.8894 35.3011 7.31107 32.188 7.31107 25.0573ZM5.05225 50.1723C4.39341 50.5506 3.7655 51.0493 3.11504 51.6495C2.98446 51.7699 2.81495 51.8361 2.63757 51.8361C2.43816 51.8361 2.25421 51.7557 2.11924 51.6093C1.99162 51.4709 1.9255 51.291 1.9331 51.1029C1.94071 50.915 2.02102 50.7411 2.15946 50.6135C5.40919 47.6154 8.28302 47.2087 13.14 49.0589C14.3411 49.5163 15.4674 49.5468 16.5606 49.1492C16.8643 49.541 17.1928 49.9154 17.5426 50.2719C16.7212 50.6601 15.8966 50.8512 15.0461 50.8513C14.2764 50.8513 13.4662 50.6913 12.638 50.3759C9.10377 49.0293 6.99821 49.0969 5.15589 50.1137C5.12031 50.1312 5.08576 50.1504 5.05225 50.1723ZM7.20202 59.4429C6.57128 59.4429 6.05797 58.9297 6.05797 58.2988V52.3336C6.05797 52.0744 6.14073 51.8715 6.23354 51.7251C7.55019 51.0651 9.09926 51.0972 11.9495 52.1832C12.9984 52.5828 14.0402 52.7853 15.046 52.7853C16.4545 52.785 17.7887 52.4059 19.1055 51.6305C19.5426 51.954 20.0011 52.2525 20.4792 52.5227V57.6565C20.4792 58.3036 20.6456 58.9124 20.9374 59.4429H7.20202V59.4429ZM19.1217 49.1156C19.5771 49.2374 20.0315 49.3267 20.4792 49.3877V50.2372C19.9951 49.897 19.5412 49.5216 19.1217 49.1156ZM14.2275 42.7873C14.0249 42.3787 13.9934 41.9156 14.1388 41.4834C14.2844 41.0511 14.5895 40.7013 14.9983 40.4984C15.2376 40.3796 15.4958 40.3195 15.7556 40.3195C15.939 40.3195 16.1232 40.3494 16.302 40.4096C16.7344 40.5552 17.0841 40.8604 17.2869 41.2689C18.2227 43.1553 19.8058 43.9304 21.2568 44.101C21.3158 44.1127 21.3768 44.119 21.4393 44.1194C22.2316 44.1857 22.9737 44.0752 23.5352 43.8719C24.4211 43.5511 25.4022 44.0113 25.7228 44.896C26.0432 45.7814 25.5838 46.7625 24.6985 47.0831C24.1324 47.2879 23.5277 47.4288 22.9011 47.5017C20.1392 47.823 16.21 46.7816 14.2275 42.7873ZM39.5651 59.4429H24.1995C23.2144 59.4429 22.4131 58.6415 22.4131 57.6565V49.4783C22.6559 49.4676 22.8942 49.4496 23.1248 49.4228C23.8996 49.3325 24.6505 49.1572 25.3567 48.9015C27.2445 48.2181 28.2243 46.1262 27.5408 44.2379C26.8578 42.351 24.7656 41.3713 22.8773 42.0538C22.7388 42.104 22.5819 42.1442 22.4127 42.1722V36.5124C22.4127 35.5274 23.2141 34.7262 24.1991 34.7262H39.5647V59.443H39.5651V59.4429ZM40.5319 32.792C40.5314 32.792 40.531 32.7922 40.5305 32.7922H27.3845C30.8742 30.5942 36.5364 30.7248 40.0634 31.7106C41.2157 32.0328 42.0781 32.4164 42.6704 32.792H40.5332C40.5328 32.7922 40.5324 32.792 40.5319 32.792ZM64.0664 57.6564C64.0664 58.6415 63.265 59.4428 62.28 59.4428H49.6675V55.6953C49.6675 55.1614 49.2347 54.7285 48.7007 54.7285C48.1666 54.7285 47.7339 55.1614 47.7339 55.6953V59.4428H41.4988V34.7258H44.6111C44.6146 34.7258 44.6181 34.7258 44.6216 34.7258H47.7338V51.266C47.7338 51.8 48.1665 52.2328 48.7005 52.2328C49.2346 52.2328 49.6673 51.8 49.6673 51.266V34.7258H61.7246C61.7252 34.7258 61.726 34.7259 61.7267 34.7259C61.7272 34.7259 61.7278 34.7258 61.7283 34.7258H62.2799C63.265 34.7258 64.0663 35.5272 64.0663 36.5121L64.0664 57.6564ZM37.3947 23.38C37.9288 23.38 38.3615 22.9471 38.3615 22.4132V21.0703C38.3615 20.5363 37.9288 20.1035 37.3947 20.1035C36.8606 20.1035 36.4279 20.5363 36.4279 21.0703V22.4132C36.4279 22.9471 36.8608 23.38 37.3947 23.38ZM21.2159 23.38C21.75 23.38 22.1827 22.9471 22.1827 22.4132V21.0703C22.1827 20.5363 21.75 20.1035 21.2159 20.1035C20.6819 20.1035 20.2491 20.5363 20.2491 21.0703V22.4132C20.2491 22.9471 20.682 23.38 21.2159 23.38ZM39.5104 28.5794C40.4413 28.8265 42.4969 29.8543 43.188 30.3644C43.3609 30.4918 43.5618 30.5533 43.7614 30.5533C44.0579 30.5533 44.3503 30.4175 44.54 30.1607C44.8571 29.731 44.7659 29.1258 44.3363 28.8087C43.46 28.1617 41.203 27.0281 40.0066 26.7106C39.4897 26.5739 38.9612 26.8809 38.824 27.3969C38.6872 27.9129 38.9944 28.4422 39.5104 28.5794ZM40.6574 25.7697C41.6121 25.6435 43.9042 25.8105 44.7375 26.0189C44.8161 26.0385 44.8951 26.0481 44.9727 26.0481C45.4058 26.0481 45.8 25.7548 45.91 25.3155C46.0395 24.7974 45.7246 24.2725 45.2065 24.1429C44.15 23.8788 41.6317 23.6909 40.4039 23.8528C39.8747 23.9228 39.5022 24.4088 39.5722 24.938C39.6422 25.4673 40.1284 25.8397 40.6574 25.7697Z" fill="#151515"/>
</g>
<defs>
<clipPath id="clip0_716_16126">
<rect width="66" height="66" fill="white"/>
</clipPath>
</defs>
</svg>
