<svg width="68" height="68" viewBox="0 0 68 68" fill="none" xmlns="http://www.w3.org/2000/svg">
<path d="M9.1447 56.459C9.00087 56.459 8.85477 56.4414 8.70908 56.4043C7.76292 56.1644 7.19037 55.2029 7.43023 54.2569C7.92867 52.2912 9.29558 50.5567 11.1805 49.4979C12.773 48.6032 15.4509 47.7768 19.1647 48.9218C22.187 49.8524 23.5254 48.2074 26.0297 44.6973L26.1217 44.5683C26.6888 43.7738 27.7925 43.5896 28.587 44.1566C29.3813 44.7237 29.5658 45.8274 28.9987 46.6217L28.9069 46.7503C27.6444 48.5199 26.4519 50.1911 24.8475 51.3415C22.8587 52.7676 20.6593 53.0812 18.1236 52.2996C15.608 51.5246 13.9006 52.0241 12.9113 52.5797C11.8668 53.1663 11.1178 54.0943 10.8563 55.1256C10.6536 55.9259 9.93427 56.459 9.1447 56.459Z" fill="#EDA751"/>
<path d="M7.94501 52.8682C7.7256 53.3132 7.55175 53.7779 7.43036 54.2569C7.1905 55.203 7.76292 56.1644 8.70908 56.4043C8.8549 56.4414 9.00086 56.459 9.1447 56.459C9.93427 56.459 10.6536 55.9259 10.8565 55.1256C10.9394 54.7989 11.0714 54.4828 11.2461 54.1843C10.3524 53.3632 9.03301 52.9645 7.94501 52.8682Z" fill="#FCD79D"/>
<path d="M38.9862 63.6895C38.9307 63.6895 38.8749 63.6877 38.8189 63.6846C37.2598 63.5936 36.0696 62.2559 36.1606 60.6969C36.4289 56.0995 36.3539 53.5665 35.893 51.6622C35.5256 50.1444 36.4581 48.616 37.9762 48.2487C39.4931 47.8807 41.0223 48.8138 41.3898 50.3318C42.086 53.2075 42.0599 56.6869 41.8066 61.0264C41.7188 62.5293 40.4724 63.6895 38.9862 63.6895Z" fill="#EDA751"/>
<path d="M29.0138 63.6894C27.5275 63.6894 26.2812 62.5293 26.1935 61.0263C25.9401 56.6869 25.9141 53.2074 26.6102 50.3317C26.9775 48.8139 28.5057 47.8809 30.0239 48.2485C31.5418 48.6159 32.4745 50.1442 32.107 51.6621C31.6462 53.5662 31.5711 56.0992 31.8394 60.6968C31.9304 62.2557 30.7404 63.5934 29.1813 63.6844C29.1252 63.6879 29.0693 63.6894 29.0138 63.6894Z" fill="#EDA751"/>
<path d="M50.1975 45.6674C46.8686 45.6674 43.9711 44.6297 43.1309 44.2981C41.6782 43.7246 40.9655 42.0822 41.5387 40.6295C42.112 39.177 43.7542 38.4644 45.2073 39.0374C47.1614 39.8085 51.5001 40.7873 53.9347 38.9714C55.1866 38.0373 56.9583 38.2954 57.8919 39.547C58.8259 40.7988 58.5681 42.5706 57.3163 43.5044C55.1098 45.1506 52.5462 45.6674 50.1975 45.6674Z" fill="#EDA751"/>
<path d="M17.8026 45.6676C15.4534 45.6676 12.8904 45.1511 10.6836 43.5046C9.43184 42.5708 9.17405 40.7991 10.1079 39.5472C11.0418 38.2955 12.8135 38.0377 14.0653 38.9716C15.1298 39.7657 18.3238 40.8014 22.7926 39.0376C24.2453 38.4641 25.8878 39.1771 26.4612 40.6298C27.0345 42.0825 26.3217 43.7248 24.869 44.2983C24.029 44.6298 21.131 45.6676 17.8026 45.6676Z" fill="#EDA751"/>
<path opacity="0.2" d="M22.7927 39.0373C21.1875 39.6708 19.7481 39.9419 18.5115 39.9941C18.3403 40.864 18.25 41.7602 18.25 42.6761C18.25 43.6941 18.3608 44.6882 18.5711 45.6486C21.5694 45.5093 24.0944 44.6037 24.8691 44.298C26.3218 43.7245 27.0346 42.0822 26.4613 40.6295C25.8878 39.1769 24.2453 38.464 22.7927 39.0373Z" fill="#A35F00"/>
<path opacity="0.2" d="M28.5871 44.1566C27.7927 43.5896 26.689 43.7738 26.1219 44.5683L26.0298 44.6973C23.7131 47.9445 22.393 49.5938 19.8157 49.0861C20.4669 50.345 21.3033 51.5039 22.2918 52.5312C23.1846 52.319 24.0342 51.9249 24.8478 51.3415C26.4523 50.1911 27.6447 48.5198 28.9072 46.7503L28.999 46.6217C29.566 45.8274 29.3815 44.7236 28.5871 44.1566Z" fill="#A35F00"/>
<path opacity="0.2" d="M30.0238 48.2486C28.5056 47.8808 26.9775 48.8138 26.6101 50.3318C26.2453 51.839 26.0802 53.5143 26.0409 55.3902C27.7478 56.3245 29.659 56.9627 31.6947 57.2308C31.6456 54.7047 31.7777 53.0227 32.1071 51.6621C32.4743 50.1442 31.5417 48.6159 30.0238 48.2486Z" fill="#A35F00"/>
<path opacity="0.2" d="M41.9563 55.2481C41.9117 53.4294 41.7453 51.8011 41.3896 50.3318C41.0222 48.8138 39.493 47.8807 37.9759 48.2486C36.4579 48.6161 35.5254 50.1444 35.8928 51.6622C36.2205 53.0162 36.3529 54.6891 36.3057 57.1953C38.3463 56.8935 40.2571 56.2192 41.9563 55.2481Z" fill="#A35F00"/>
<path opacity="0.2" d="M41.5386 40.6295C40.9654 42.0822 41.6781 43.7245 43.1308 44.298C43.8834 44.5951 46.2879 45.4584 49.174 45.635C49.3825 44.6791 49.4921 43.6895 49.4921 42.6762C49.4921 41.7487 49.3993 40.8413 49.2238 39.9609C47.6509 39.8298 46.1509 39.4099 45.2073 39.0374C43.7541 38.4644 42.112 39.177 41.5386 40.6295Z" fill="#A35F00"/>
<path d="M34 54.7959C41.203 54.7959 47.0421 49.37 47.0421 42.6768C47.0421 35.9835 41.203 30.5576 34 30.5576C26.7969 30.5576 20.9578 35.9835 20.9578 42.6768C20.9578 49.37 26.7969 54.7959 34 54.7959Z" fill="#FCD690"/>
<path opacity="0.15" d="M32.0953 54.6667C26.1352 50.7537 27.9824 42.7337 28.9942 39.2263V31.4822C24.2755 33.3064 20.9573 37.631 20.9573 42.6763C20.9574 48.7684 25.7951 53.8101 32.0953 54.6667Z" fill="#C17A00"/>
<path d="M26.0627 21.661C28.6148 19.5195 30.3188 15.9245 26.7191 10.6102C23.0908 5.25386 17.6889 3.91126 13.4717 4.40811C12.432 4.53056 11.5596 5.26262 11.2584 6.26522C10.0368 10.3322 10.421 15.8851 15.0658 20.3884C19.6743 24.8563 23.5106 23.8025 26.0627 21.661Z" fill="#EDA751"/>
<path d="M11.0885 6.88745C10.0869 10.8862 10.6532 16.1103 15.0657 20.3884C19.0601 24.2611 22.4738 23.9843 24.9746 22.4476C23.2548 10.7717 15.7414 7.67543 11.0885 6.88745Z" fill="#FF91AB"/>
<path d="M41.9373 21.661C39.3852 19.5195 37.6812 15.9245 41.2809 10.6102C44.9092 5.25386 50.3111 3.91126 54.5284 4.40811C55.5681 4.53056 56.4405 5.26262 56.7418 6.26522C57.9634 10.3322 57.5791 15.8851 52.9343 20.3884C48.3257 24.8563 44.4894 23.8025 41.9373 21.661Z" fill="#EDA751"/>
<path d="M56.9115 6.88745C57.913 10.8862 57.3467 16.1103 52.9343 20.3884C48.9398 24.2611 45.5261 23.9843 43.0254 22.4476C44.7452 10.7717 52.2585 7.67543 56.9115 6.88745Z" fill="#FF91AB"/>
<path d="M56.2049 24.8934C56.2049 35.0461 46.2635 39.4928 34 39.4928C21.7365 39.4928 11.795 35.0459 11.795 24.8934C11.795 14.7406 21.7365 6.51025 34 6.51025C46.2635 6.51025 56.2049 14.7406 56.2049 24.8934Z" fill="#FFDC9C"/>
<path opacity="0.15" d="M22.1437 9.34839C15.925 12.6061 11.795 18.35 11.795 24.8933C11.795 33.6208 19.1416 38.1319 28.9941 39.2264C14.8511 30.7782 16.6956 19.4146 22.1437 9.34839Z" fill="#C17A00"/>
<path d="M26.8732 20.8943C21.1782 11.2405 5.54394 14.1332 2.72088 27.2371C2.40359 28.7099 2.87428 30.2423 3.9664 31.28C6.12128 33.3274 9.63032 32.6238 10.8722 29.9231C13.326 24.5873 18.2075 19.1604 24.0963 20.855L26.8732 20.8943Z" fill="#7694E4"/>
<path d="M41.1267 20.8943C46.8217 11.2405 62.456 14.1332 65.2789 27.2371C65.5962 28.7099 65.1255 30.2423 64.0334 31.28C61.8785 33.3274 58.3694 32.6238 57.1276 29.9231C54.6738 24.5873 49.7923 19.1604 43.9036 20.855L41.1267 20.8943Z" fill="#7694E4"/>
<path d="M34.0001 28.8117C34.7995 28.8117 35.7758 29.0826 36.5989 29.3758C37.5542 29.7162 38.5623 28.9638 38.4936 27.9521C38.2948 25.0253 36.3147 23.0015 34.0002 23.0015C31.6855 23.0015 29.7054 25.0253 29.5067 27.9521C29.4381 28.9638 30.4461 29.7162 31.4014 29.3758C32.2243 29.0826 33.2007 28.8117 34.0001 28.8117Z" fill="#FF91AB"/>
<path d="M7.18476 40.4042C7.18476 42.1131 5.79939 43.4986 4.09036 43.4986C2.38133 43.4986 0.996094 42.1131 0.996094 40.4042C0.996094 36.8095 3.6631 34.5274 4.98392 34.7958C6.5624 35.1165 7.18476 37.7595 7.18476 40.4042Z" fill="#7694E4"/>
<path d="M60.8152 39.4144C60.8152 41.1233 62.2006 42.5088 63.9096 42.5088C65.6186 42.5088 67.004 41.1235 67.004 39.4144C67.004 35.8197 64.337 33.5376 63.0162 33.806C61.4375 34.1268 60.8152 36.7698 60.8152 39.4144Z" fill="#7694E4"/>
<path d="M8.18085 40.4042C8.18085 38.6077 7.88866 34.3696 5.18234 33.8198C4.38016 33.6568 3.44316 33.9717 2.54389 34.7065C0.95107 36.0081 0 38.1381 0 40.4042C0 42.6597 1.83494 44.4947 4.09049 44.4947C6.34591 44.4947 8.18085 42.6597 8.18085 40.4042ZM4.09049 42.5026C2.93356 42.5026 1.99219 41.5613 1.99219 40.4042C1.99219 38.4446 2.92068 36.9793 3.78954 36.2614C4.24973 35.8812 4.61948 35.7698 4.75562 35.7698C4.76744 35.7698 4.7774 35.7705 4.78563 35.772C5.4659 35.9103 6.1888 37.5807 6.1888 40.4042C6.18866 41.5613 5.24742 42.5026 4.09049 42.5026ZM65.4562 33.7167C64.8392 33.2124 64.2046 32.9059 63.6078 32.8159C64.0047 32.5971 64.3787 32.3259 64.7197 32.002C66.0534 30.7347 66.6408 28.8284 66.2529 27.0274C65.507 23.5652 63.8423 20.5424 61.4387 18.286C60.2196 17.1416 58.8452 16.2188 57.3657 15.539C58.5286 12.5141 58.6507 9.15838 57.6956 5.97884C57.2794 4.59295 56.0819 3.58809 54.6449 3.41902C50.3941 2.91765 46.2103 4.23927 43.0638 7.05144C40.212 6.04286 37.1243 5.51413 34 5.51413C30.8757 5.51413 27.788 6.04286 24.9362 7.05131C21.7896 4.239 17.6052 2.91738 13.3551 3.41875C11.9181 3.58809 10.7205 4.59308 10.3044 5.97871C9.34934 9.15824 9.47139 12.514 10.6343 15.5388C9.15477 16.2187 7.78042 17.1413 6.56134 18.2859C4.15783 20.5423 2.49316 23.5651 1.74728 27.0272C1.35934 28.8284 1.94677 30.7346 3.28047 32.002C4.28267 32.9543 5.56445 33.4627 6.90492 33.4627C7.24293 33.4627 7.58505 33.4303 7.92705 33.3645C9.64139 33.0349 11.0448 31.9323 11.7774 30.3393C11.7914 30.3089 11.8058 30.2785 11.82 30.2479C13.2984 33.7979 16.3612 36.5438 20.7642 38.2947C20.7149 38.4241 20.6685 38.5543 20.6238 38.685C16.6997 39.6446 14.6818 38.1885 14.661 38.173C13.8422 37.5622 12.8345 37.3069 11.8242 37.4538C10.8135 37.6008 9.92043 38.1328 9.30962 38.9514C8.04897 40.6414 8.39813 43.0422 10.088 44.3028C12.1877 45.8692 14.7834 46.6633 17.8027 46.6633C18.6922 46.6633 19.6149 46.5928 20.5559 46.454C20.7411 47.0279 20.9668 47.5853 21.2307 48.1233C20.7205 48.2386 20.1591 48.1855 19.4582 47.9698C15.4065 46.7205 12.4552 47.6391 10.6927 48.6295C8.57092 49.8213 7.02977 51.7831 6.46478 54.0119C6.09038 55.4888 6.98727 56.9952 8.46441 57.3698C8.68727 57.4263 8.91623 57.455 9.1448 57.455C10.4098 57.455 11.5109 56.5978 11.8222 55.3704C12.0169 54.6024 12.5917 53.9018 13.3995 53.4482C14.2188 52.9881 15.6526 52.5805 17.8306 53.2515C20.3786 54.037 22.7149 53.8037 24.7893 52.5659C24.9199 52.6721 25.0528 52.7757 25.1875 52.8775C24.9312 55.4681 25.0393 58.344 25.1993 61.0842C25.3171 63.1036 26.9927 64.6854 29.0141 64.6854C29.0893 64.6854 29.1652 64.6832 29.2395 64.6788C30.2591 64.6193 31.1946 64.1663 31.8735 63.4031C32.5525 62.64 32.8935 61.6582 32.834 60.6388C32.7164 58.6217 32.6676 57.0305 32.6849 55.7337C33.1181 55.7716 33.5567 55.7918 34.0003 55.7918C34.4439 55.7918 34.8824 55.7716 35.3156 55.7337C35.3329 57.0302 35.2842 58.6215 35.1665 60.6388C35.1071 61.6584 35.4482 62.6401 36.127 63.4031C36.8059 64.1663 37.7413 64.6193 38.7592 64.6786C38.8352 64.6832 38.9111 64.6856 38.9864 64.6856C40.5765 64.6856 42.0163 63.6838 42.5693 62.1925C42.7606 61.6767 42.4975 61.1035 41.9818 60.9121C41.4655 60.7211 40.8928 60.9839 40.7013 61.4996C40.4366 62.2136 39.7473 62.6932 38.9864 62.6932C38.9507 62.6932 38.9149 62.6922 38.877 62.6899C38.3887 62.6614 37.9405 62.4443 37.6154 62.0788C37.2902 61.7133 37.1267 61.2431 37.1552 60.7547C37.2841 58.546 37.3323 56.8235 37.3029 55.424C38.5826 55.1346 39.7945 54.6813 40.9112 54.0887C40.9737 55.122 40.9885 56.274 40.9575 57.6128C40.9448 58.1629 41.3804 58.6189 41.9302 58.6317C41.9382 58.6318 41.9459 58.632 41.9537 58.632C42.4932 58.632 42.9366 58.2011 42.9492 57.659C42.9926 55.7834 42.9494 54.2452 42.8133 52.8769C44.9823 51.2382 46.62 49.0093 47.4442 46.454C48.3852 46.5928 49.308 46.6633 50.1975 46.6633C53.217 46.6633 55.8126 45.8692 57.9121 44.3028C58.7309 43.692 59.2627 42.7991 59.4097 41.7883C59.5567 40.7776 59.3014 39.7701 58.6905 38.9513C57.4295 37.2612 55.0289 36.9123 53.3392 38.173C53.3185 38.1884 51.2996 39.6439 47.3763 38.6849C47.3321 38.5558 47.2863 38.4272 47.2377 38.2992C47.8311 38.0649 48.4015 37.8129 48.9457 37.5425C52.4422 35.8047 54.9038 33.311 56.1804 30.2485C56.1944 30.2788 56.2088 30.309 56.2227 30.3393C56.9553 31.9323 58.3587 33.0349 60.0731 33.3645C60.4152 33.4303 60.7571 33.4627 61.0952 33.4627C61.2624 33.4627 61.4288 33.4547 61.5938 33.439C60.0181 34.8095 59.8191 37.9367 59.8191 39.4143C59.8191 41.6697 61.6541 43.5048 63.9096 43.5048C66.1652 43.5048 68 41.6699 68 39.4145C68 37.1485 67.0491 35.0184 65.4562 33.7167ZM20.0986 44.5064C19.3121 44.6152 18.5429 44.6712 17.8026 44.6712C15.2218 44.6712 13.027 44.01 11.2791 42.706C10.4696 42.1021 10.3024 40.9522 10.9062 40.1427C11.1987 39.7505 11.6265 39.4958 12.1106 39.4254C12.5947 39.3545 13.0774 39.4772 13.4696 39.7699C14.1889 40.3065 15.3113 40.7164 16.5488 40.8943C17.6796 41.0568 18.8689 41.0331 20.1 40.8262C20.0083 41.4347 19.9612 42.0519 19.9612 42.6763C19.9613 43.2973 20.0089 43.9081 20.0986 44.5064ZM54.5304 39.7697C54.9225 39.4771 55.405 39.3541 55.8891 39.4253C56.3733 39.4957 56.801 39.7504 57.0936 40.1425C57.3862 40.5347 57.5085 41.0173 57.4381 41.5015C57.3677 41.9858 57.113 42.4133 56.7208 42.7059C54.9728 44.0098 52.7781 44.6711 50.1974 44.6711C49.4571 44.6711 48.6879 44.6151 47.9014 44.5063C47.9911 43.908 48.0387 43.2972 48.0387 42.676C48.0387 42.051 47.9914 41.4333 47.8996 40.8242C51.2186 41.3772 53.5779 40.4803 54.5304 39.7697ZM55.5034 14.8307C54.8605 14.6341 54.2037 14.4786 53.5351 14.3705C53.5168 14.3675 53.4986 14.3654 53.4801 14.3625C52.5005 13.1003 51.3489 11.9371 50.0527 10.8995C52.1095 9.2807 54.3432 8.4647 56.1416 8.05577C56.4456 9.7972 56.5118 12.2217 55.5034 14.8307ZM54.412 5.39739C54.9055 5.45556 55.3357 5.73248 55.5961 6.13716C53.4626 6.63507 50.7999 7.64551 48.387 9.68737C47.4568 9.07231 46.4704 8.51543 45.4356 8.02535C45.344 7.98206 45.2509 7.94142 45.1588 7.89918C48.7973 5.11291 52.7632 5.20335 54.412 5.39739ZM13.5882 5.39726C15.2372 5.20349 19.2028 5.11291 22.8414 7.89905C22.7492 7.94128 22.6561 7.98192 22.5646 8.02522C21.5297 8.51543 20.5433 9.07218 19.6131 9.68724C17.2001 7.64551 14.5374 6.63507 12.4039 6.13716C12.6643 5.73248 13.0948 5.45543 13.5882 5.39726ZM11.8584 8.05563C13.6568 8.4647 15.8904 9.28056 17.9474 10.8994C16.6511 11.9371 15.4994 13.1003 14.5197 14.3625C14.5014 14.3654 14.4832 14.3674 14.4649 14.3703C13.7962 14.4786 13.1394 14.6341 12.4966 14.8307C11.4881 12.2217 11.5544 9.7972 11.8584 8.05563ZM9.96731 29.507C9.50672 30.5085 8.62591 31.2015 7.55079 31.4082C6.49188 31.6117 5.43562 31.3018 4.65269 30.5579C3.81902 29.7657 3.45206 28.5737 3.69484 27.4468C4.35505 24.3821 5.81772 21.7165 7.92492 19.7384C9.19873 18.5424 10.666 17.6254 12.2514 17.0199C12.278 17.0113 12.3041 17.0007 12.3303 16.9897C13.122 16.6932 13.9423 16.473 14.7832 16.337C14.9199 16.3148 15.0562 16.2956 15.1922 16.2781C15.2017 16.2769 15.2111 16.2755 15.2206 16.2741C18.9152 15.8082 22.3582 17.05 24.6926 19.6091C24.4603 19.654 24.2331 19.7184 24.0137 19.8032C21.1438 19.0997 18.2334 19.8455 15.5737 21.975C13.3867 23.7259 11.3957 26.4008 9.96731 29.507ZM18.4171 51.3476C15.5638 50.4685 13.583 51.0602 12.4237 51.7112C11.1424 52.431 10.2193 53.586 9.89095 54.8805C9.80409 55.2233 9.49716 55.4628 9.14467 55.4628C9.08105 55.4628 9.01677 55.4547 8.95382 55.4388C8.54157 55.3342 8.29122 54.9137 8.39574 54.5014C8.82738 52.7992 10.02 51.2921 11.6684 50.3661C13.0909 49.5668 15.4951 48.8327 18.8716 49.8735C20.1567 50.2692 21.2605 50.2739 22.2758 49.8816C22.5828 50.3162 22.9167 50.7325 23.2753 51.129C21.8156 51.845 20.2453 51.9111 18.4171 51.3476ZM30.385 62.079C30.0597 62.4445 29.6116 62.6615 29.1214 62.6902C28.1068 62.7506 27.2465 61.9713 27.1879 60.9681C27.0138 57.9861 26.9798 55.8572 27.0879 54.0883C28.205 54.6812 29.4172 55.1347 30.6974 55.4243C30.668 56.824 30.7161 58.5467 30.845 60.755C30.8735 61.2432 30.7101 61.7135 30.385 62.079ZM48.0589 35.7585C44.4545 37.5497 39.5931 38.4965 34 38.4965C33.0986 38.4965 32.203 38.4716 31.338 38.4224C30.7897 38.3936 30.3183 38.8112 30.2871 39.3605C30.2559 39.9096 30.6758 40.3802 31.2251 40.4114C32.1276 40.4627 33.0613 40.4886 34.0001 40.4886C38.2303 40.4886 42.0844 39.9645 45.3568 38.9575C45.4604 39.2266 45.5523 39.4986 45.6326 39.7733C45.6374 39.7904 45.6419 39.8075 45.6475 39.8244C45.9126 40.7482 46.0466 41.702 46.0466 42.6759C46.0466 48.8094 40.6426 53.7993 34.0001 53.7993C27.3576 53.7993 21.9536 48.8094 21.9536 42.6759C21.9536 41.7021 22.0875 40.7485 22.3526 39.8251C22.3586 39.8073 22.3634 39.7891 22.3684 39.7709C22.4486 39.4971 22.5401 39.2261 22.6433 38.9579C23.8343 39.3266 25.1067 39.6314 26.4569 39.8695C26.5154 39.8799 26.5737 39.8848 26.631 39.8848C27.1053 39.8848 27.5257 39.5447 27.6109 39.0615C27.7064 38.5198 27.3446 38.0031 26.8029 37.9076C25.2251 37.6295 23.7681 37.2574 22.4343 36.7964C22.4273 36.7937 22.4201 36.7916 22.413 36.7891C20.5472 36.1423 18.925 35.32 17.5671 34.3262C15.2356 32.6198 13.7442 30.4369 13.1252 27.8354C15.2822 24.3747 18.4916 21.396 22.1968 21.5466C22.1935 21.8284 22.3086 22.11 22.5379 22.3097C22.9525 22.671 23.5817 22.628 23.9433 22.2132C24.323 21.7774 24.8713 21.5275 25.4473 21.5275C26.0233 21.5275 26.5715 21.7774 26.9512 22.2132C27.1482 22.4391 27.4246 22.5548 27.7026 22.5548C27.9347 22.5548 28.1678 22.4742 28.3565 22.3096C28.7713 21.9481 28.8145 21.319 28.4531 20.9042C28.2009 20.6148 27.9108 20.3675 27.5942 20.1649C25.3386 16.5086 21.5548 14.3608 17.2897 14.1958C18.9695 12.4365 21.0533 10.945 23.4175 9.82523C26.6209 8.30838 30.2805 7.50632 34 7.50632C37.7197 7.50632 41.3791 8.30838 44.5828 9.82576C46.947 10.9455 49.0308 12.4369 50.7106 14.1964C46.4455 14.3613 42.6615 16.5091 40.4059 20.1656C40.0895 20.3681 39.7994 20.6154 39.5472 20.9048C39.1857 21.3195 39.229 21.9487 39.6439 22.3101C40.0584 22.6714 40.6876 22.6284 41.0492 22.2134C41.4289 21.7778 41.977 21.5279 42.5531 21.5279C43.1291 21.5279 43.6774 21.7778 44.0571 22.2136C44.2541 22.4395 44.5304 22.5552 44.8084 22.5552C45.0406 22.5552 45.2738 22.4746 45.4625 22.31C45.6916 22.1104 45.8066 21.829 45.8034 21.5473C49.5098 21.397 52.7194 24.3768 54.8764 27.8382C54.0657 31.2485 51.7742 33.9121 48.0589 35.7585ZM60.4492 31.4082C59.374 31.2014 58.4931 30.5085 58.0327 29.507C56.6043 26.4008 54.6133 23.7259 52.4263 21.975C49.7664 19.8455 46.856 19.0994 43.9862 19.8032C43.7668 19.7184 43.5395 19.654 43.3072 19.6091C45.6481 17.0427 49.1033 15.8013 52.8101 16.2783C52.8165 16.2791 52.8226 16.2803 52.829 16.2811C52.9581 16.298 53.0873 16.316 53.2168 16.337C54.0577 16.473 54.878 16.6932 55.6696 16.9897C55.6957 17.0007 55.7218 17.0113 55.7482 17.0199C57.3336 17.6254 58.8009 18.5424 60.0748 19.7384C62.182 21.7166 63.6448 24.3821 64.305 27.4468C64.5478 28.5736 64.1807 29.7657 63.3472 30.5578C62.5641 31.3019 61.5075 31.6117 60.4492 31.4082ZM63.9095 41.5127C62.7524 41.5127 61.8112 40.5715 61.8112 39.4144C61.8112 36.5908 62.5341 34.9204 63.2142 34.7822C63.2223 34.7806 63.2326 34.7798 63.2444 34.7798C63.3804 34.7798 63.7501 34.8912 64.2102 35.2713C65.0792 35.9892 66.0077 37.4546 66.0077 39.4143C66.0078 40.5716 65.0666 41.5127 63.9095 41.5127ZM49.8771 28.9106C48.9524 28.228 46.5707 27.0317 45.3081 26.6964C44.7764 26.5554 44.2309 26.8716 44.0896 27.4035C43.9485 27.9353 44.2651 28.4806 44.7967 28.6219C45.7834 28.884 47.9617 29.973 48.6937 30.5134C48.8718 30.6448 49.079 30.7083 49.2846 30.7083C49.5899 30.7083 49.8914 30.5681 50.0868 30.3037C50.4135 29.8611 50.3196 29.2375 49.8771 28.9106ZM22.6919 26.6964C21.4293 27.0316 19.0476 28.228 18.1229 28.9106C17.6803 29.2375 17.5864 29.8611 17.9132 30.3037C18.1086 30.5681 18.4099 30.7083 18.7154 30.7083C18.9209 30.7083 19.1282 30.6448 19.3063 30.5134C20.0384 29.9729 22.2167 28.8838 23.2033 28.6219C23.7349 28.4807 24.0515 27.9353 23.9104 27.4035C23.7692 26.8717 23.2239 26.5555 22.6919 26.6964ZM50.8062 23.9817C49.6909 23.7029 47.033 23.5042 45.7381 23.6754C45.1928 23.7476 44.8091 24.2483 44.8812 24.7936C44.9533 25.3389 45.4541 25.722 45.9993 25.6505C47.0108 25.5165 49.44 25.6935 50.3231 25.9144C50.4042 25.9346 50.4855 25.9444 50.5654 25.9444C51.0117 25.9443 51.4178 25.6423 51.531 25.1896C51.6643 24.6561 51.34 24.1152 50.8062 23.9817ZM34 22.0055C31.0994 22.0055 28.7402 24.5329 28.5127 27.8847C28.4579 28.6927 28.8131 29.4689 29.4629 29.9609C30.1167 30.4562 30.9666 30.5882 31.7355 30.3142C32.665 29.983 33.448 29.8078 34 29.8078C34.552 29.8078 35.335 29.9828 36.2646 30.3142C36.5289 30.4084 36.8026 30.4546 37.0746 30.4546C37.5944 30.4546 38.108 30.2858 38.5374 29.9608C39.1871 29.4686 39.5423 28.6924 39.4873 27.8845C39.2596 24.5329 36.9008 22.0055 34 22.0055ZM37.3344 28.3726C37.2782 28.4151 37.1268 28.5064 36.9332 28.4376C35.7752 28.0249 34.7884 27.8155 33.9999 27.8155C33.2115 27.8155 32.2246 28.0248 31.0667 28.4374C30.8729 28.5066 30.7217 28.4151 30.6655 28.3726C30.5983 28.3218 30.4874 28.2082 30.5003 28.0195C30.6584 25.689 32.1303 23.9977 34 23.9977C35.8696 23.9977 37.3414 25.689 37.4997 28.0196C37.5125 28.2082 37.4016 28.3218 37.3344 28.3726ZM22.0007 25.6506C22.5469 25.7225 23.0467 25.3391 23.1187 24.7937C23.1909 24.2483 22.8072 23.7477 22.2618 23.6756C20.967 23.5042 18.309 23.7031 17.1936 23.9818C16.6599 24.1153 16.3355 24.6561 16.4689 25.1899C16.582 25.6425 16.9882 25.9447 17.4344 25.9447C17.5145 25.9447 17.5957 25.935 17.6768 25.9147C18.5601 25.6937 20.9893 25.5166 22.0007 25.6506Z" fill="#151515"/>
</svg>
