<svg width="375" height="667" viewBox="0 0 375 667" fill="none" xmlns="http://www.w3.org/2000/svg">
<g clip-path="url(#clip0_806_24640)">
<rect width="375" height="667" fill="white"/>
<g clip-path="url(#clip1_806_24640)">
<path fill-rule="evenodd" clip-rule="evenodd" d="M23.7016 -130.788C23.1794 -130.402 22.623 -129.699 22.4341 -129.187C22.1349 -128.376 22.1656 -128.037 22.7126 -126.128C23.0507 -124.947 23.5254 -123.396 23.7672 -122.681L24.2069 -121.383L23.334 -120.612C20.0514 -117.716 17.6775 -112.757 17.0686 -107.525C16.8693 -105.812 16.9691 -101.903 17.2629 -99.9086L17.3986 -98.9879L16.1713 -99.4609C15.4961 -99.7209 14.1351 -100.01 13.1465 -100.104C10.7418 -100.331 7.80922 -99.5545 5.71765 -98.1373C4.93122 -97.6045 4.20615 -97.1971 4.10629 -97.2319C4.00615 -97.2668 2.98993 -98.2764 1.84799 -99.4758C-0.503043 -101.945 -1.32515 -102.357 -3.11968 -101.966C-5.08063 -101.538 -6.2353 -99.7619 -5.83634 -97.7857C-5.62752 -96.75 -5.31697 -96.3137 -3.13858 -93.9944C-1.78465 -92.5529 -0.629273 -91.3177 -0.570914 -91.2493C-0.512851 -91.181 -0.809395 -90.3778 -1.23023 -89.4645C-1.65076 -88.5511 -2.26789 -86.7147 -2.60151 -85.3837C-4.47804 -77.8974 -3.47356 -70.372 0.276592 -63.8229C0.879792 -62.7697 3.08032 -59.7705 5.16695 -57.1579C16.7795 -42.6177 24.6912 -29.209 31.5268 -12.4836C32.4273 -10.2808 33.4578 -8.14176 33.8711 -7.61885C34.7507 -6.50527 36.2647 -5.62773 37.9383 -5.26104L39.1599 -4.99333L72.3468 -12.2236L105.534 -19.4539L106.698 -20.3132C108.117 -21.3605 109.256 -23.2967 109.426 -24.9481C109.494 -25.6142 109.483 -27.2853 109.401 -28.6617C108.852 -37.9096 109.368 -50.4385 110.701 -60.2082C111.761 -67.986 112.755 -73.0394 114.929 -81.705C117.061 -90.2047 116.998 -94.6305 114.658 -100.748C112.883 -105.387 110.029 -109.305 106.011 -112.622L104.521 -113.852L105.262 -117.48C106.048 -121.334 106.016 -122.325 105.066 -123.547C103.664 -125.35 100.667 -125.243 99.2592 -123.341C98.9865 -122.972 98.5074 -121.474 98.1945 -120.012C97.8746 -118.516 97.4865 -117.343 97.3075 -117.331C97.1325 -117.319 96.1572 -117.433 95.14 -117.585C91.3116 -118.157 87.0934 -116.877 84.7107 -114.421L83.7715 -113.452L82.8967 -115.984C82.4153 -117.377 81.624 -119.273 81.1382 -120.198C78.909 -124.442 75.1375 -128.152 71.395 -129.783C70.4625 -130.189 69.6778 -130.634 69.6512 -130.771C69.6247 -130.908 69.5083 -132.455 69.3925 -134.208C69.2403 -136.514 69.0671 -137.613 68.7661 -138.183C67.7972 -140.017 65.681 -140.724 63.9058 -139.808C62.0406 -138.845 61.674 -137.833 61.9558 -134.424C62.2241 -131.176 62.3834 -131.48 59.9608 -130.607C58.7867 -130.184 57.2895 -129.494 56.6334 -129.074C53.0896 -126.803 50.1762 -122.691 48.8986 -118.158C48.6497 -117.275 48.4114 -116.498 48.3692 -116.433C48.3267 -116.368 47.8699 -116.832 47.3543 -117.466C43.8411 -121.78 38.267 -124.672 33.6804 -124.559C32.7715 -124.537 31.792 -124.513 31.5036 -124.506C31.0344 -124.494 30.889 -124.767 30.1076 -127.128C29.0809 -130.23 28.5176 -130.963 26.8265 -131.397C25.3693 -131.771 24.9059 -131.68 23.7016 -130.788ZM36.5368 -110.359C40.7623 -110.072 44.7728 -106.92 47.4999 -101.743C48.0541 -100.691 48.4795 -99.3589 48.9763 -97.1214C49.5998 -94.3144 49.6494 -93.7419 49.4418 -91.7727C48.8281 -85.9504 45.3653 -81.9229 40.7911 -81.7112C38.5697 -81.6085 36.5536 -82.1746 34.5167 -83.473C32.3782 -84.8363 30.8966 -86.3805 29.4571 -88.7468C27.3765 -92.1671 26.3734 -95.8553 26.5109 -99.5782C26.7562 -106.228 30.9507 -110.738 36.5368 -110.359ZM67.4663 -116.633C69.5119 -116.139 71.6908 -114.681 73.1786 -112.81C74.9544 -110.577 75.7111 -108.945 76.3908 -105.882C77.5389 -100.709 76.8451 -96.041 74.3635 -92.2451C71.8107 -88.3397 68.4124 -86.7327 64.5161 -87.5883C62.6764 -87.9923 60.1976 -89.628 58.8341 -91.3376C56.9607 -93.6861 55.8868 -96.146 55.3711 -99.27C54.8301 -102.547 54.8839 -104.606 55.584 -107.45C56.4554 -110.99 58.4431 -113.978 61.0177 -115.62C62.7089 -116.698 65.4295 -117.126 67.4663 -116.633ZM34.8472 -102.097C33.8521 -100.561 34.0013 -96.8016 35.1601 -94.2132C36.3477 -91.5601 39.0234 -88.9959 40.3111 -89.2765C41.5717 -89.5511 42.1956 -92.5221 41.583 -95.3334C40.4881 -100.358 36.388 -104.474 34.8472 -102.097ZM64.0263 -108.149C63.2427 -107.096 62.6319 -104.833 62.6347 -102.995C62.6359 -102.268 62.8997 -100.68 63.2211 -99.4656C63.6874 -97.7023 63.981 -97.0458 64.6775 -96.2074C66.2559 -94.3074 67.4772 -94.734 68.6354 -97.5889C69.4297 -99.5473 69.5146 -101.433 68.9294 -104.13C68.3834 -106.647 67.803 -107.793 66.6139 -108.702C65.6359 -109.449 64.8731 -109.287 64.0263 -108.149ZM18.6183 -84.255C21.8511 -83.7968 25.4572 -81.4661 28.1027 -78.1247C30.0675 -75.6427 30.903 -74.0199 31.7082 -71.1192C32.8573 -66.9791 32.4825 -63.4826 30.5836 -60.6265C29.1341 -58.4471 27.6637 -57.5447 24.7262 -57.0325C22.821 -56.7003 22.2259 -56.7052 20.7571 -57.0654C15.0945 -58.4538 9.71268 -64.4675 8.28983 -70.9967C7.06032 -76.6387 9.08002 -81.7732 13.2612 -83.6337C14.6168 -84.237 16.8872 -84.5005 18.6183 -84.255ZM95.1116 -101.33C99.0321 -101.18 102.282 -98.5832 103.949 -94.2688C106.173 -88.5112 104.786 -80.3923 100.794 -75.8044C98.8414 -73.5604 98.0554 -73.1017 95.0115 -72.4302C92.0557 -71.7779 91.1395 -71.8725 88.9891 -73.0525C84.3197 -75.615 81.9277 -82.7278 83.4236 -89.6021C84.6951 -95.4453 88.4698 -100.044 92.9639 -101.227C93.3016 -101.316 94.2679 -101.362 95.1116 -101.33ZM15.7993 -75.9581C15.1513 -74.2833 15.9102 -71.0064 17.522 -68.5213C19.2206 -65.9017 22.4982 -63.8231 23.8659 -64.498C24.724 -64.9214 24.9465 -66.428 24.4676 -68.5691C23.5207 -72.8019 19.7517 -76.9005 16.9478 -76.7462C16.2135 -76.7059 16.0439 -76.5895 15.7993 -75.9581ZM93.0218 -92.5863C90.9629 -90.1843 90.1618 -86.5527 90.9223 -83.0655C91.8064 -79.0122 93.4073 -78.4451 95.497 -81.4452C97.2574 -83.9727 97.8256 -87.7683 96.927 -90.9967C96.1203 -93.8951 94.6548 -94.4914 93.0218 -92.5863ZM62.4099 -75.9434C66.1716 -75.865 70.5203 -74.2436 73.3545 -71.8625C75.8945 -69.7289 77.9787 -66.5773 79.1765 -63.0592L79.6546 -61.6549L81.6698 -61.1365C84.0197 -60.5318 87.172 -58.7823 88.888 -57.1302C89.5428 -56.4997 90.6144 -55.1656 91.2691 -54.1658C92.389 -52.4553 92.5038 -52.1475 93.2107 -48.9625C93.8585 -46.044 93.9344 -45.3298 93.7614 -43.781C93.0731 -37.6172 90.0242 -33.1156 84.6366 -30.3094C83.2812 -29.6032 81.7924 -29.2375 68.3813 -26.3157C53.6897 -23.1149 53.6079 -23.0998 51.5527 -23.2338C48.4294 -23.4373 46.5059 -24.0674 43.8117 -25.7697C39.9081 -28.2365 37.7453 -31.1572 36.533 -35.6004C34.9662 -41.3414 36.3945 -46.9832 40.4716 -51.1595C41.2531 -51.9599 42.2428 -52.8585 42.671 -53.1561C43.3874 -53.6539 43.4398 -53.8019 43.3274 -55.0084C43.0834 -57.6283 43.24 -59.9251 43.8325 -62.4131C44.3462 -64.5705 44.686 -65.3345 46.0879 -67.4861C46.9956 -68.8793 48.2688 -70.4886 48.917 -71.0625C50.3366 -72.3188 53.1317 -74.0089 54.9704 -74.7226C56.7217 -75.4022 60.2897 -75.9877 62.4099 -75.9434ZM56.0815 -66.9072C52.6148 -64.8061 50.8386 -61.6652 50.8494 -57.6555C50.8516 -56.9171 50.9426 -55.9024 51.0519 -55.4008C51.373 -53.9274 51.0986 -51.9515 50.3668 -50.4689C49.8382 -49.3973 49.1895 -48.6734 47.4803 -47.248C45.1573 -45.3105 44.2488 -44.0301 43.751 -41.9919C42.5651 -37.1357 45.6996 -32.08 50.554 -31.02L52.2272 -30.6545L66.265 -33.6413C79.9578 -36.5551 80.3419 -36.6502 81.8894 -37.5098C85.6519 -39.6002 87.3208 -44.9906 85.4316 -48.9519C84.0976 -51.7491 82.075 -53.2682 78.597 -54.0856C74.9753 -54.9369 73.1745 -56.6367 71.9456 -60.3639C70.6674 -64.2404 68.8147 -66.3824 65.6245 -67.6724C62.8823 -68.7812 58.608 -68.4386 56.0815 -66.9072Z" fill="#696A69" fill-opacity="0.05"/>
<path fill-rule="evenodd" clip-rule="evenodd" d="M318.685 551.964C318.344 552.037 317.916 552.257 317.71 552.465C317.383 552.795 317.323 552.967 317.165 554.022C317.067 554.675 316.954 555.539 316.913 555.942L316.839 556.674L316.241 556.857C313.995 557.543 311.733 559.439 310.272 561.862C309.794 562.655 308.973 564.588 308.672 565.628L308.534 566.108L308.04 565.604C307.768 565.327 307.168 564.883 306.707 564.617C305.583 563.971 303.979 563.699 302.643 563.926C302.141 564.012 301.696 564.05 301.655 564.01C301.614 563.971 301.343 563.252 301.052 562.411C300.454 560.681 300.144 560.297 299.181 560.089C298.129 559.862 297.17 560.474 296.926 561.528C296.797 562.081 296.852 562.363 297.399 563.982C297.739 564.988 298.028 565.848 298.042 565.895C298.055 565.941 297.731 566.268 297.323 566.621C296.914 566.974 296.204 567.734 295.746 568.311C293.164 571.553 291.98 575.456 292.354 579.491C292.414 580.14 292.821 582.096 293.258 583.837C295.692 593.528 296.571 601.843 296.186 611.539C296.136 612.817 296.163 614.092 296.248 614.439C296.43 615.179 296.974 615.945 297.709 616.496L298.246 616.899L316.053 620.745L333.859 624.591L334.619 624.43C335.544 624.234 336.531 623.541 336.981 622.771C337.163 622.461 337.529 621.641 337.795 620.95C339.585 616.307 342.624 610.297 345.447 605.817C347.695 602.251 349.305 600.001 352.293 596.248C355.225 592.567 356.179 590.39 356.397 586.878C356.563 584.216 356.042 581.666 354.818 579.151L354.365 578.218L355.533 576.609C356.774 574.9 356.979 574.409 356.787 573.6C356.504 572.407 355.018 571.792 353.907 572.409C353.692 572.529 353.125 573.154 352.647 573.8C352.158 574.46 351.708 574.947 351.618 574.913C351.53 574.88 351.079 574.607 350.616 574.307C348.875 573.176 346.531 572.863 344.822 573.534L344.148 573.799L344.284 572.366C344.359 571.578 344.395 570.475 344.363 569.915C344.219 567.345 343.204 564.692 341.74 563.062C341.375 562.656 341.091 562.265 341.109 562.192C341.126 562.119 341.413 561.337 341.747 560.454C342.186 559.293 342.346 558.717 342.325 558.371C342.26 557.26 341.385 556.443 340.315 556.496C339.19 556.552 338.786 556.965 338.165 558.694C337.573 560.342 337.719 560.229 336.342 560.117C335.675 560.062 334.791 560.067 334.377 560.126C332.142 560.448 329.806 561.81 328.173 563.742C327.855 564.119 327.566 564.445 327.531 564.468C327.496 564.49 327.376 564.162 327.266 563.737C326.511 560.847 324.433 558.193 322.17 557.228C321.721 557.037 321.237 556.831 321.095 556.771C320.863 556.672 320.853 556.506 320.997 555.178C321.186 553.433 321.074 552.95 320.345 552.361C319.717 551.855 319.471 551.796 318.685 551.964ZM320.405 564.806C322.403 565.886 323.66 568.318 323.839 571.456C323.876 572.094 323.787 572.839 323.532 574.044C323.212 575.555 323.108 575.846 322.569 576.762C320.974 579.472 318.388 580.671 316.108 579.757C315.001 579.313 314.143 578.588 313.438 577.5C312.697 576.358 312.318 575.274 312.141 573.797C311.887 571.662 312.218 569.636 313.113 567.846C314.712 564.65 317.762 563.378 320.405 564.806ZM336.897 568.617C337.786 569.314 338.525 570.511 338.835 571.757C339.205 573.243 339.211 574.209 338.862 575.858C338.271 578.642 336.894 580.77 334.838 582.074C332.723 583.415 330.707 583.445 328.996 582.16C328.188 581.554 327.342 580.203 327.057 579.064C326.665 577.499 326.688 576.057 327.131 574.416C327.596 572.693 328.08 571.699 329.055 570.464C330.267 568.927 331.902 567.908 333.524 567.678C334.59 567.527 336.013 567.923 336.897 568.617ZM317.742 568.469C316.915 568.998 316.151 570.87 316.141 572.393C316.13 573.954 316.866 575.802 317.557 575.952C318.233 576.098 319.199 574.784 319.525 573.273C320.109 570.574 319.023 567.649 317.742 568.469ZM333.331 572C332.714 572.34 331.912 573.311 331.505 574.21C331.344 574.565 331.119 575.401 331.006 576.066C330.841 577.032 330.839 577.418 330.992 577.983C331.34 579.262 332.031 579.326 333.231 578.187C334.055 577.407 334.515 576.504 334.83 575.055C335.123 573.703 335.095 573.014 334.717 572.305C334.406 571.722 333.997 571.632 333.331 572ZM305.852 573.582C307.328 574.525 308.569 576.466 309.117 578.688C309.524 580.339 309.571 581.318 309.319 582.915C308.959 585.194 307.998 586.82 306.436 587.794C305.243 588.537 304.325 588.651 302.777 588.249C301.773 587.987 301.484 587.852 300.847 587.35C298.392 585.412 297.103 581.275 297.861 577.766C298.516 574.735 300.644 572.674 303.099 572.694C303.895 572.701 305.061 573.077 305.852 573.582ZM346.986 582.247C348.866 583.192 349.875 585.184 349.729 587.664C349.534 590.974 347.051 594.634 344.082 595.989C342.629 596.652 342.144 596.702 340.509 596.353C338.921 596.014 338.495 595.764 337.707 594.709C335.998 592.418 336.413 588.409 338.673 585.381C340.593 582.807 343.459 581.398 345.915 581.82C346.1 581.851 346.582 582.044 346.986 582.247ZM302.63 577.011C301.941 577.686 301.583 579.456 301.817 581.03C302.063 582.688 303.2 584.433 304.018 584.408C304.531 584.391 304.975 583.704 305.217 582.551C305.697 580.271 304.769 577.429 303.366 576.881C302.999 576.738 302.89 576.757 302.63 577.011ZM344.021 586.057C342.482 586.773 341.283 588.37 340.878 590.244C340.408 592.422 341.064 593.056 342.751 592.054C344.172 591.21 345.294 589.48 345.574 587.702C345.825 586.106 345.242 585.489 344.021 586.057ZM325.377 587.385C327.196 588.26 328.958 590.019 329.812 591.814C330.577 593.422 330.893 595.426 330.695 597.412L330.616 598.205L331.484 598.907C332.497 599.725 333.646 601.281 334.116 602.471C334.295 602.924 334.522 603.815 334.619 604.449C334.785 605.535 334.772 605.711 334.409 607.425C334.076 608.996 333.954 609.362 333.525 610.08C331.818 612.941 329.328 614.463 326.074 614.637C325.256 614.681 324.448 614.528 317.252 612.974C309.369 611.271 309.326 611.26 308.352 610.738C306.873 609.944 306.074 609.208 305.138 607.777C303.781 605.702 303.376 603.794 303.772 601.352C304.285 598.197 306.237 595.756 309.156 594.621C309.715 594.404 310.398 594.185 310.674 594.135C311.134 594.051 311.192 593.99 311.406 593.375C311.87 592.04 312.457 590.952 313.3 589.867C314.03 588.927 314.366 588.629 315.529 587.889C316.282 587.41 317.262 586.906 317.706 586.77C318.678 586.471 320.418 586.267 321.475 586.327C322.481 586.384 324.352 586.891 325.377 587.385ZM320.278 590.395C318.119 590.651 316.553 591.791 315.666 593.754C315.503 594.115 315.322 594.632 315.264 594.901C315.093 595.693 314.519 596.598 313.832 597.16C313.336 597.566 312.858 597.776 311.707 598.092C310.142 598.523 309.414 598.947 308.717 599.833C307.058 601.943 307.463 605.112 309.597 606.709L310.332 607.26L317.849 608.922C325.18 610.543 325.389 610.582 326.335 610.506C328.637 610.321 330.651 608.057 330.61 605.7C330.581 604.036 329.931 602.843 328.416 601.67C326.837 600.449 326.337 599.217 326.566 597.122C326.804 594.942 326.377 593.483 325.106 592.143C324.015 590.991 321.852 590.208 320.278 590.395Z" fill="#696A69" fill-opacity="0.05"/>
<path fill-rule="evenodd" clip-rule="evenodd" d="M79.1876 33.313C71.5091 35.7856 67.0617 44.216 69.345 51.9704C69.7689 53.4091 70.0676 54.6371 70.0093 54.6988C69.8488 54.8694 35.3762 80.446 34.4845 81.0566C33.7845 81.5355 33.5347 81.4624 31.9201 80.3038C25.6528 75.8075 16.7354 77.0487 11.6323 83.1279C6.25754 89.5311 7.14873 98.8903 13.6446 104.261C16.0332 106.236 19.4141 107.59 22.038 107.622C23.0119 107.634 23.8228 107.763 23.8401 107.908C23.8575 108.054 23.7206 108.84 23.5359 109.654C21.8907 116.915 26.0852 124.322 33.2687 126.842C36.077 127.827 36.2549 127.842 40.1031 127.383C43.8091 126.941 44.1964 126.823 46.3403 125.484C50.6143 122.816 53.1881 118.456 53.5217 113.32C53.6624 111.153 53.3175 109.276 52.2399 106.345C52.1165 106.009 57.8228 101.552 70.0394 92.4442C79.9292 85.071 88.1615 79.0179 88.3341 78.993C88.5062 78.9678 89.3593 79.4473 90.2291 80.0588C91.0993 80.6698 92.9368 81.5441 94.3122 82.0013C96.6448 82.7767 97.0777 82.801 100.753 82.3629C104.516 81.9144 104.798 81.8252 107.032 80.3836C114.208 75.7516 116.243 66.5111 111.638 59.4686C109.225 55.7783 104.74 53.0991 100.294 52.6929C98.3095 52.5117 98.2485 52.4441 98.6556 50.875C99.1555 48.9489 99.0544 45.6924 98.4273 43.5076C96.0845 35.3458 87.311 30.697 79.1876 33.313ZM83.1662 126.51C79.8326 128.064 77.5854 130.531 76.3629 133.978C75.7136 135.81 75.6603 136.527 75.9809 139.121C76.2656 141.427 76.5806 142.509 77.3191 143.719C78.6733 145.938 81.6803 148.331 84.1932 149.19C85.9971 149.807 86.7811 149.862 89.3587 149.555C91.9363 149.248 92.6854 149.01 94.2936 147.986C96.5341 146.56 98.894 143.527 99.6885 141.052C100.547 138.377 99.9444 133.89 98.3935 131.411C96.9219 129.059 94.2809 126.998 91.6653 126.16C89.2062 125.372 85.2574 125.535 83.1662 126.51ZM50.1382 141.979C48.0336 142.95 46.5384 144.244 44.9747 146.447C40.4701 152.792 43.5341 161.9 51.026 164.433C57.6983 166.689 64.5316 163.252 66.7176 156.541C67.6041 153.819 67.0128 149.365 65.4301 146.841C63.7785 144.207 62.0096 142.774 59.2027 141.794C56.3356 140.793 52.5391 140.87 50.1382 141.979ZM118.623 133.86C113.446 136.215 110.549 141.796 111.658 147.281C112.696 152.422 116.639 156.097 121.938 156.865C129.628 157.979 136.475 151.382 135.592 143.712C135.199 140.296 134.033 138.048 131.555 135.927C128.856 133.617 126.17 132.704 122.794 132.949C121.18 133.066 119.62 133.406 118.623 133.86ZM86.5865 161.276C76.4704 163.862 67.809 171.593 64.316 181.155C62.5675 185.941 62.1242 189.381 62.5698 194.705C63.2166 202.431 65.2985 206.864 70.0067 210.54C76.0093 215.228 83.6483 216.435 97.1417 214.826C105.273 213.857 109.466 212.856 113.84 210.842C121.325 207.393 125.622 201.811 126.464 194.443C126.915 190.495 125.695 183.282 123.932 179.473C119.659 170.24 112.18 163.888 102.599 161.352C97.7923 160.08 91.3835 160.05 86.5865 161.276Z" fill="#696A69" fill-opacity="0.05"/>
<path fill-rule="evenodd" clip-rule="evenodd" d="M304.044 7.05403C307.577 7.88891 310.865 10.0255 312.875 12.7913C313.966 14.2925 315.749 17.8797 316.056 19.1918C316.132 19.5156 316.559 19.9397 317.005 20.1344C317.452 20.329 319.288 21.2494 321.085 22.1796C323.957 23.6658 324.65 24.1804 326.802 26.4221C328.917 28.6262 329.414 29.3494 330.454 31.7332C331.841 34.9127 332.397 37.1551 332.757 41.0281C333.01 43.7409 333 43.8199 332.084 46.2824C327.48 58.6638 315.164 65.1886 299.39 63.6029C297.39 63.4019 294.945 63.0598 293.956 62.8422L292.157 62.4471L293.346 60.1279L294.535 57.809L292.664 57.4497C290.547 57.0436 287.609 55.5795 284.931 53.5953C282.439 51.7499 281.918 51.1875 281.127 49.4875C279.852 46.749 280.476 43.7992 283.133 40.0053C284.179 38.5121 284.812 37.2607 285.059 36.1951C286.106 31.6891 288.336 27.3574 290.99 24.6724C293.255 22.3808 295.234 21.2418 298.385 20.417C300.508 19.8609 300.892 19.6624 301.214 18.9535C301.868 17.5147 301.775 14.3184 301.013 12.0452C300.044 9.15606 299.975 8.36324 300.624 7.61527C301.265 6.87551 302.459 6.67954 304.044 7.05403ZM336.622 52.1871C338.25 54.4738 345.894 62.4502 350.038 66.1869C355.472 71.0865 359.154 74.0465 364.474 77.7921C367.12 79.6546 370.109 81.9664 371.118 82.9298C376.458 88.031 380.013 93.8012 382.01 100.609C383.443 105.492 383.816 108.922 383.495 114.26C383.247 118.378 382.498 122.761 381.949 123.307C381.829 123.426 381.162 123.306 380.467 123.039C377.622 121.948 374.387 122.532 372.498 124.479C371.094 125.926 369.399 129.176 369.367 130.484C369.352 131.096 369.22 131.594 369.075 131.59C368.93 131.587 367.181 130.282 365.189 128.691C355.101 120.634 347.701 116.645 339.344 114.759C335.73 113.944 327.771 113.751 323.854 114.385C321.525 114.761 315.227 116.46 312.959 117.324C312.582 117.467 312.338 116.991 311.687 114.849L310.882 112.197L309.438 115.43C308.644 117.208 307.884 118.935 307.748 119.267C307.613 119.6 306.796 120.249 305.934 120.711C299.287 124.268 290.9 132.993 289.589 137.714C289.277 138.841 289.11 139.038 288.416 139.104C287.16 139.222 285.716 138.821 285.116 138.187C284.161 137.179 284.454 136.134 286.289 134.003C290.156 129.512 293.598 123.663 295.402 118.515C296.861 114.353 297.388 111.195 297.352 106.831C297.313 102.02 296.669 99.3646 294.398 94.648C291.042 87.6766 289.885 82.6244 290.027 75.5559C290.078 73.0253 290.304 70.155 290.547 68.9623C290.942 67.0184 291.026 66.8646 291.589 67.0317C294.389 67.8622 298.859 68.3111 304.121 68.2903C309.955 68.2672 311.831 68.0284 316.091 66.7655C324.116 64.3873 330.898 59.0163 334.563 52.1365C335.003 51.3122 335.398 50.6384 335.442 50.6395C335.486 50.6406 336.017 51.3372 336.622 52.1871ZM335.827 119.093C344.603 120.661 350.276 123.198 357.322 128.704C368.179 137.188 370.006 138.153 373.112 137.048C375.12 136.333 375.419 135.007 374.121 132.567C373.465 131.332 373.595 130.663 374.864 128.761C375.945 127.141 376.758 126.778 378.273 127.237C383.132 128.712 386.705 133.4 386.931 138.598C387.057 141.515 386.552 143.622 385.043 146.474C382.128 151.984 376.134 155.606 368.884 156.237C366.489 156.446 365.445 156.396 362.797 155.944C356.945 154.946 352.434 152.867 344.768 147.635C339.525 144.056 336.657 142.489 333.162 141.29C328.576 139.718 326.123 139.358 318.783 139.181C311.298 139.001 308.937 139.207 300.378 140.789C294.868 141.808 294.228 141.754 293.689 140.226C293.317 139.173 294.206 137.413 296.715 134.233C302.6 126.773 311.905 121.406 322.36 119.442C325.113 118.925 333.649 118.703 335.827 119.093Z" fill="#696A69" fill-opacity="0.05"/>
<path fill-rule="evenodd" clip-rule="evenodd" d="M319.041 192.611C317.306 192.522 314.505 193.249 312.717 194.252C305.087 198.536 304.727 209.589 312.058 214.5C313.173 215.247 313.99 215.572 315.928 216.042C317.278 216.369 318.61 216.608 318.887 216.573C319.36 216.513 319.252 216.983 317.086 224.428L314.782 232.347L311.703 231.931C289.605 228.949 267.988 240.149 257.953 259.779C257.098 261.454 256.129 263.477 255.801 264.275L255.205 265.727L254.074 265.205C252.419 264.441 251.032 263.011 250.138 261.149C248.785 258.329 248.801 258.221 252.345 246.446L255.44 236.159L256.787 234.107C260.798 227.997 266.3 224.348 273.301 223.153C276.747 222.565 278.741 222.573 281.674 223.189L283.826 223.64L284.932 219.837L286.039 216.034L285.081 215.757C281.563 214.739 274.794 214.617 270.696 215.497C261.972 217.37 254.202 222.954 249.705 230.584C247.796 233.822 246.742 236.781 243.964 246.71C241.47 255.62 241.309 256.325 241.372 258.041C241.565 263.313 244.246 268.211 248.538 271.13C250.314 272.338 250.738 272.503 257.292 274.543L264.179 276.685L264.757 275.36C266.478 271.416 268.786 268.757 272.05 266.96C275.761 264.916 279.864 264.511 284.169 265.763C291.694 267.952 296.317 274.561 295.683 282.224C295.588 283.374 295.425 284.608 295.321 284.966L295.132 285.617L310.385 290.054L325.639 294.49L326.766 292.164C330.363 284.737 337.834 281.372 345.666 283.651C353.808 286.019 358.429 293.475 356.976 301.898L356.693 303.534L362.357 305.107L368.022 306.679L368.699 304.654C369.585 302.004 370.67 296.519 370.954 293.254C371.3 289.272 371.048 284.608 370.254 280.302L369.534 276.397L370.281 275.693C371.559 274.487 373.627 271.467 374.574 269.422C377.426 263.267 376.582 255.493 372.459 249.928C365.97 241.167 355.215 238.99 345.832 244.537L343.993 245.623L336.942 241.795C329.454 237.729 324.682 235.329 323.271 234.918L322.41 234.668L324.727 226.702C326.906 219.212 327.068 218.755 327.435 219.06C327.65 219.237 328.901 219.753 330.216 220.204C332.198 220.884 332.909 221.011 334.381 220.947C338.656 220.759 342.13 218.695 344.298 215.055C347.228 210.134 346.293 204.159 341.97 200.184C340.51 198.842 340.037 198.564 338.047 197.88C335.168 196.891 332.91 196.817 330.524 197.633C328.808 198.22 328.787 198.219 328.39 197.582C327.718 196.504 326.575 195.403 325.244 194.55C323.873 193.672 320.766 192.701 319.041 192.611ZM321.693 201.933C323.554 204.307 322.668 207.342 319.803 208.407C317.873 209.125 315.38 207.759 314.804 205.669C314.449 204.38 315.003 202.394 315.942 201.593C317.709 200.086 320.369 200.243 321.693 201.933ZM336.67 206.045C337.862 207.143 338.205 208.235 337.865 209.841C337.342 212.312 335.303 213.527 332.869 212.819C332.029 212.575 331.461 212.23 331.087 211.736C329.337 209.427 329.886 206.672 332.345 205.424C333.943 204.613 335.332 204.812 336.67 206.045ZM279.125 273.096C277.269 273.225 274.393 274.89 273.311 276.463C270.858 280.026 271.652 285.099 275.026 287.431C276.472 288.43 279.68 289.217 281.123 288.926C282.959 288.556 284.873 287.395 285.883 286.038C288.517 282.5 288.135 278.05 284.935 275.004C283.875 273.995 280.788 272.981 279.125 273.096ZM340.78 290.999C338.814 291.135 336.903 292.043 335.367 293.57C334.653 294.28 334.386 294.832 333.832 296.735C333.249 298.743 333.202 299.235 333.469 300.556C334.062 303.489 336.024 305.566 339.03 306.44C341.321 307.107 343.058 306.934 345.034 305.844C349.97 303.121 350.52 296.005 346.052 292.663C344.605 291.58 342.406 290.886 340.78 290.999Z" fill="#696A69" fill-opacity="0.05"/>
<path fill-rule="evenodd" clip-rule="evenodd" d="M176.5 475.235C161.348 473.53 148.374 476.433 140.555 483.278C135.995 487.27 134.172 490.248 133.268 495.18C132.598 498.833 132.855 501.476 134.345 506.281C136.01 511.647 139.627 518.116 146.818 528.586C159.002 546.326 165.549 552.488 173.847 554.024C178.942 554.967 183.955 553.659 189.671 549.894C196.141 545.633 202.639 538.053 207.691 528.874C216.355 513.132 219.251 497.872 214.771 491.567C213.553 489.853 209.521 486.591 206.023 484.49C198.724 480.105 186.934 476.409 176.5 475.235ZM167.983 492.396C173.032 496.24 172.827 503.899 167.582 507.326C165.524 508.671 163.404 509.072 160.836 508.601C157.122 507.921 154.604 505.579 153.656 501.922C151.518 493.68 161.207 487.238 167.983 492.396ZM101.948 511.992C101.402 511.989 99.8826 511.976 98.5723 511.964C88.5783 511.872 80.8422 515.743 83.5808 519.465C84.7067 520.995 86.4755 521.976 94.0688 525.279C101.831 528.656 104.416 529.988 108.672 532.808C111.397 534.614 116.157 538.629 116.078 539.056C116.058 539.169 113.172 541.242 109.667 543.662L103.294 548.062L102.362 547.174C100.274 545.186 95.2532 541.867 91.9841 540.314C88.9447 538.871 87.7351 538.522 82.3511 537.537C75.6356 536.308 72.3327 536.313 67.6748 537.559C64.2954 538.463 62.5863 539.675 62.4519 541.261C62.2883 543.191 63.7865 544.367 69.6135 546.883C72.3943 548.084 76.3065 549.901 78.3069 550.922C82.3262 552.973 88.4684 557.326 88.3391 558.031C88.2937 558.279 85.4179 560.442 81.9482 562.837L75.6399 567.192L73.8646 565.839C70.5896 563.344 66.8294 561.767 61.9699 560.852C56.9709 559.909 53.6225 559.909 50.4123 560.85C47.5874 561.678 46.2189 562.877 46.6305 564.164C47.0007 565.324 47.6859 565.736 53.9306 568.564C58.9919 570.857 64.7141 574.09 64.6198 574.604C64.5925 574.753 62.9511 575.987 60.9725 577.348L57.3743 579.821L59.9185 582.555C62.7773 585.628 65.4868 589.711 66.8477 592.996L67.7592 595.196L71.3263 592.747C74.2128 590.765 74.9429 590.421 75.1542 590.943C75.6174 592.09 76.2321 597.596 76.43 602.369C76.7174 609.302 77.7648 611.136 80.337 609.208C85.2723 605.508 88.2093 593.761 86.3935 584.982L85.9104 582.647L92.4429 578.136C96.036 575.656 99.0333 573.718 99.1039 573.829C99.1745 573.942 99.5777 575.222 99.9998 576.675C101.05 580.292 101.727 585.428 102.005 591.878C102.134 594.861 102.357 598.172 102.502 599.237C102.758 601.12 103.925 602.99 104.962 603.18C106.035 603.377 108.551 601.372 110.229 598.983C116.091 590.637 117.856 577.069 114.471 566.356L113.577 563.525L120.056 559.034L126.536 554.544L127.337 556.574C129.394 561.79 130.514 568.686 130.99 579.055C131.471 589.562 131.97 591.39 134.48 591.85C137.665 592.434 142.286 586.678 145.329 578.333C147.193 573.222 148.445 564.474 148.057 559.266C147.659 553.914 146.732 549.352 145.288 545.631L144.055 542.456L146.149 540.984L148.243 539.512L142.957 531.915L137.672 524.318L135.838 525.559C134.83 526.242 133.869 526.776 133.704 526.745C133.538 526.715 132.717 526.005 131.88 525.168C128.273 521.566 122.39 517.768 116.825 515.45C114.177 514.347 104.11 512.007 101.948 511.992ZM28.4992 574.207C21.2874 574.419 13.9524 577.099 6.52404 582.238C-1.32794 587.67 -4.81533 593.139 -2.16855 595.869C1.32576 599.474 15.1159 604.161 28.0179 606.129L34.2085 607.073L32.42 616.948C31.12 624.127 30.589 628.058 30.4751 631.342C30.2119 638.938 30.7461 643.643 32.0941 645.6C34.1516 648.587 41.3069 646.514 49.1592 640.655C55.2419 636.116 59.2167 631.527 62.1261 625.683C64.1121 621.694 65.85 612.082 65.4496 607.299C64.3527 594.187 57.0965 583.633 45.1479 577.767C41.7967 576.122 32.3169 574.095 28.4992 574.207Z" fill="#696A69" fill-opacity="0.05"/>
<path fill-rule="evenodd" clip-rule="evenodd" d="M352.155 391.188C348.079 391.742 345.466 394.924 344.459 400.561C343.381 406.599 344.971 412.313 348.467 414.963C349.377 415.652 349.849 415.839 351.397 416.121C352.916 416.397 353.457 416.393 354.467 416.095C357.578 415.177 359.89 411.883 360.73 407.175C361.85 400.902 360.187 395.047 356.551 392.457C355.518 391.721 353.186 391.047 352.155 391.188ZM372.919 394.905C369.525 395.293 366.608 397.752 364.343 402.136C363.479 403.807 363.281 404.447 362.773 407.206C362.15 410.585 362.178 412.021 362.909 414.327C363.716 416.874 365.779 418.803 368.153 419.231C372.216 419.963 376.256 417.13 378.757 411.797C379.896 409.366 380.801 404.609 380.533 402.453C380.024 398.352 377.754 395.51 374.585 395.005C374.002 394.912 373.253 394.867 372.919 394.905ZM331.022 402.218C329.409 402.418 328.527 402.774 327.326 403.71C322.77 407.259 323.724 416.053 329.126 420.298C331.461 422.132 334.074 422.76 336.562 422.086C339.048 421.412 340.831 419.534 341.558 416.824C342.46 413.462 341.741 409.922 339.525 406.812C337.197 403.543 334.048 401.842 331.022 402.218ZM387.368 412.393C385.466 412.636 384.052 413.186 382.346 414.349C379.262 416.452 377.846 418.651 377.189 422.36C376.811 424.496 376.798 425.005 377.094 425.994C378.092 429.326 381.211 431.434 384.778 431.187C386.742 431.051 388.222 430.523 390.175 429.262C392.78 427.58 394.32 425.64 395.332 422.766C397.397 416.896 393.354 411.63 387.368 412.393ZM356.225 421.751C346.313 421.419 337.859 427.697 336.098 436.697C335.706 438.7 335.7 439.1 336.037 440.318C336.718 442.776 337.909 444.011 341.882 446.381C348.743 450.475 356.463 452.07 364.394 451.034C370.032 450.298 372.253 449.391 373.868 447.163C374.649 446.087 374.813 445.659 375.127 443.893C376.419 436.626 372.775 428.934 366.105 424.847C363.288 423.121 359.236 421.851 356.225 421.751ZM276.363 437.449C274.708 437.829 275.031 436.486 270.561 461.537C266.655 483.428 266.528 484.222 266.881 484.668C267.21 485.083 267.9 485.239 273.856 486.239C280.255 487.314 280.484 487.337 281.045 486.955C281.481 486.657 283.874 482.007 290.708 468.176C295.704 458.064 299.846 449.499 299.911 449.141C300.121 447.987 299.813 446.587 299.128 445.587C298.401 444.525 297.092 443.677 293.909 442.205C288.501 439.705 278.427 436.974 276.363 437.449ZM306.819 452.501C306.647 452.951 302.898 460.628 298.488 469.562C294.077 478.495 290.542 485.901 290.632 486.02C290.9 486.374 299.029 491.642 303.347 494.259C308.382 497.31 315.547 501.171 319.109 502.752C326.552 506.055 330 506.712 337.38 506.232C355.003 505.087 386.342 495.795 387.111 491.487C387.334 490.239 386.882 488.427 386.028 487.141C384.512 484.858 382.103 483.464 378.595 482.838C374.632 482.131 370.494 482.599 358.881 485.071C348.035 487.379 345.168 487.863 341.178 488.063C334.691 488.387 327.455 485.197 319.152 478.351C318.261 477.617 317.589 476.977 317.659 476.93C317.728 476.883 319.383 477.398 321.335 478.075C328.3 480.489 332.386 481.647 336.821 482.466C341.692 483.364 343.384 483.401 345.426 482.653C346.455 482.276 346.95 481.914 347.628 481.041C348.402 480.046 348.524 479.731 348.687 478.318C349.311 472.908 344.822 469.335 331.87 464.933L328.631 463.832L326.126 461.768C319.765 456.522 316.26 454.527 309.903 452.532C308.464 452.08 307.252 451.705 307.209 451.697C307.166 451.689 306.991 452.051 306.819 452.501Z" fill="#696A69" fill-opacity="0.05"/>
<path fill-rule="evenodd" clip-rule="evenodd" d="M82.413 267.588C81.8805 267.73 80.8486 268.012 80.1198 268.214L78.7947 268.581L82.3073 269.985C86.6321 271.713 89.9353 273.221 93.8902 275.272L96.9227 276.846L101.522 273.981C104.051 272.405 107.816 270.222 109.889 269.129C114.164 266.874 114.164 266.874 108.58 266.286C102.2 265.614 97.5689 265.668 90.4656 266.5C86.5692 266.956 82.9455 267.446 82.413 267.588ZM61.2483 272.783C56.8437 274.932 47.2067 281.498 45.556 283.474C45.1701 283.935 46.2965 284.475 51.8674 286.497C83.2762 297.897 111.942 317.445 133.665 342.279C145.39 355.682 156.606 372.847 164.13 388.9C165.202 391.187 166.155 393.132 166.248 393.222C166.646 393.607 172.548 383.756 173.764 380.679C174.98 377.602 174.792 376.201 172.408 370.548C163.764 350.057 149.562 328.521 133.826 312.041C125.204 303.011 112.058 292.074 102.574 286.039C93.2377 280.099 78.3145 273.103 71.9093 271.663C68.808 270.966 63.9172 271.479 61.2483 272.783ZM119.904 269.581C119.492 269.821 116.726 271.284 113.758 272.831C110.79 274.379 106.861 276.54 105.028 277.633L101.696 279.62L102.857 280.317C107.528 283.122 115.439 288.847 121.373 293.716L128.398 299.481L131.96 297.563C135.373 295.726 146.887 290.467 152.038 288.394L154.492 287.406L150.148 283.89C142.892 278.018 135.816 273.996 127.038 270.757C122.052 268.917 121.268 268.788 119.904 269.581ZM36.6375 292.717C34.6144 295.18 31.7128 299.149 30.1891 301.538C27.6752 305.481 24.2949 311.898 23.8776 313.522C23.7443 314.04 24.8998 314.449 29.7514 315.599C47.5721 319.821 63.0047 325.898 77.8013 334.518C104.721 350.201 126.497 371.787 145.871 401.993C148.625 406.287 150.849 409.377 151.11 409.272C152.932 408.542 162.583 398.71 162.471 397.697C162.43 397.317 161.37 394.801 160.117 392.106C140.87 350.72 108.379 317.913 67.2488 298.335C60.9299 295.327 42.0729 288.048 40.9263 288.174C40.5903 288.21 38.6605 290.255 36.6375 292.717ZM154.549 292.845C147.02 295.707 132.493 302.547 132.564 303.196C132.583 303.374 134.064 305.02 135.855 306.852C140.268 311.366 145.868 317.728 149.423 322.263C151.039 324.326 152.575 325.991 152.836 325.962C153.097 325.933 154.399 325.441 155.73 324.868C158.96 323.477 168.259 320.069 171.386 319.13C172.766 318.716 174.023 318.236 174.179 318.063C174.659 317.531 169.832 307.477 166.836 302.768C163.61 297.697 158.653 291.528 157.914 291.663C157.642 291.713 156.127 292.245 154.549 292.845ZM20.7042 322.322C18.7791 328.862 17.5939 336.396 17.4088 343.269C17.2424 349.466 19.3896 351.904 26.2968 353.36C49.1946 358.186 70.9871 368.813 91.1178 384.968C101.661 393.428 110.749 402.423 118.97 412.534C125.245 420.252 126.11 420.919 129.864 420.931C131.325 420.936 132.485 420.578 135.145 419.303C138.827 417.537 146.601 412.911 146.558 412.512C146.461 411.632 134.354 393.641 130.217 388.229C105.346 355.698 74.8567 333.898 39.4716 323.346C34.3171 321.809 23.0261 319.147 22.0938 319.25C21.8181 319.28 21.1925 320.663 20.7042 322.322ZM169.649 325.087C162.258 327.645 156.51 329.882 156.136 330.347C155.965 330.559 157.187 332.719 158.935 335.289C161.937 339.707 167.41 348.812 169.264 352.473C169.762 353.457 170.264 354.251 170.379 354.238C170.495 354.225 172.453 353.542 174.731 352.718C177.627 351.671 178.909 351.023 178.991 350.562C179.222 349.267 179.242 343.856 179.031 339.579C178.738 333.623 176.551 322.935 175.656 323.086C175.415 323.126 172.711 324.027 169.649 325.087ZM21.0048 360.234C21.6925 363.702 24.0373 371.96 24.4111 372.23C24.5518 372.332 24.7132 372.227 24.7696 371.996C24.8259 371.764 26.0189 368.88 27.4209 365.586C28.8228 362.292 29.8133 359.484 29.622 359.346C29.4307 359.209 27.2808 358.681 24.844 358.174L20.414 357.252L21.0048 360.234ZM33.1759 364.826C32.2151 367.062 30.4871 371.283 29.3362 374.205L27.243 379.518L28.8647 382.602C31.0025 386.668 35.092 392.72 38.2617 396.509L40.8139 399.56L41.9732 397.095C44.2445 392.264 50.4413 380.629 53.7183 375.043C57.6122 368.405 58.0509 369.496 50.1136 366.079C45.945 364.284 35.7701 360.666 35.0981 360.74C35.0016 360.751 34.1366 362.589 33.1759 364.826ZM174.856 357.987C173.701 358.439 172.719 358.855 172.674 358.91C172.554 359.06 175.91 365.874 176.231 366.131C176.452 366.307 178.434 357.905 178.35 357.146C178.314 356.816 177.102 357.108 174.856 357.987ZM57.977 377.614C54.2113 384.091 48.7034 394.513 46.2919 399.726C45.1784 402.133 44.8338 403.304 45.1179 403.717C45.8723 404.815 54.5295 411.286 58.0697 413.399C65.1966 417.651 73.7166 421.097 81.4045 422.834L85.173 423.686L86.1236 422.246C88.6124 418.478 93.4619 412.084 97.6229 407.083L102.212 401.568L100.676 400.016C94.6907 393.969 83.6844 385.161 74.7628 379.276C70.4511 376.433 62.1966 371.669 61.7045 371.741C61.5169 371.768 59.8394 374.411 57.977 377.614ZM-17.2091 394.073C-18.6353 395.562 -18.8568 397.474 -17.7896 399.076C-16.6796 400.741 -15.2656 401.097 -10.5857 400.889C-2.36202 400.524 14.7002 401.324 18.2647 402.242C19.2402 402.493 19.2145 402.526 17.742 402.927C16.8904 403.159 13.0831 404.056 9.28131 404.92C-1.74518 407.428 -6.19747 409.495 -8.1649 413.02C-9.44978 415.321 -9.44674 418.203 -8.15764 420.152C-6.87814 422.087 -5.61887 422.976 -2.87824 423.88C2.30111 425.589 11.6927 426.342 24.4686 426.072C37.3442 425.801 63.7476 423.593 64.1479 422.755C64.2498 422.542 63.2431 421.855 61.911 421.228C60.5792 420.601 57.9545 419.176 56.0782 418.062C53.0834 416.284 52.4501 416.061 50.8941 416.23C42.7819 417.113 25.2101 417.935 15.5967 417.882C7.57 417.837 -0.133178 416.978 0.509566 416.198C1.02384 415.574 6.56116 413.996 14.1868 412.302C24.7965 409.944 28.5378 408.333 30.0466 405.471C32.4927 400.831 29.4023 396.515 22.3581 394.734C15.159 392.913 1.65132 392.12 -12.0904 392.709C-16.003 392.877 -16.085 392.899 -17.2091 394.073ZM101.058 410.824C98.614 413.77 95.2927 418.024 93.6781 420.277L90.7427 424.374L94.3219 424.696C100.451 425.247 118.921 423.323 119.966 422.026C120.065 421.903 117.244 418.397 113.697 414.235C106.582 405.885 106.143 405.398 105.764 405.44C105.621 405.455 103.503 407.878 101.058 410.824Z" fill="#696A69" fill-opacity="0.05"/>
</g>
</g>
<defs>
<clipPath id="clip0_806_24640">
<rect width="375" height="667" fill="white"/>
</clipPath>
<clipPath id="clip1_806_24640">
<rect width="375" height="667" fill="white"/>
</clipPath>
</defs>
</svg>
