<svg width="14" height="18" viewBox="0 0 14 18" fill="none" xmlns="http://www.w3.org/2000/svg">
<path d="M6.99586 18C7.14488 18 7.36842 17.9469 7.58368 17.8231C12.3442 15.0545 14 13.772 14 10.5523V3.8742C14 2.81278 13.6192 2.43243 12.783 2.05209C11.8723 1.63636 8.77587 0.486486 7.88173 0.159214C7.60024 0.0619165 7.28563 0 6.99586 0C6.71437 0 6.39148 0.0796069 6.11827 0.159214C5.22413 0.433415 2.12774 1.64521 1.21703 2.05209C0.38084 2.42359 0 2.81278 0 3.8742V10.5523C0 13.772 1.65583 15.0369 6.41632 17.8231C6.63158 17.9469 6.85512 18 6.99586 18ZM6.99586 16.1248C6.87995 16.1248 6.76404 16.0806 6.52395 15.9214C2.74867 13.4624 1.57303 12.799 1.57303 10.2251V4.15725C1.57303 3.83882 1.63099 3.71499 1.8628 3.60885C3.08811 3.08698 5.46422 2.24668 6.55707 1.78673C6.74749 1.71597 6.87995 1.68943 6.99586 1.68943C7.12005 1.68943 7.25251 1.71597 7.44293 1.78673C8.53578 2.24668 10.8953 3.14005 12.1289 3.60885C12.369 3.70614 12.427 3.83882 12.427 4.15725V10.2251C12.427 12.8167 11.2017 13.5155 7.47605 15.9214C7.23596 16.0806 7.12005 16.1248 6.99586 16.1248ZM4.03193 11.8614C4.03193 12.5337 4.31342 12.8432 4.90124 12.8432H9.09876C9.68658 12.8432 9.96807 12.5337 9.96807 11.8614V8.41179C9.96807 7.81032 9.73625 7.50074 9.27262 7.44767V6.457C9.27262 4.82948 8.35364 3.74152 7.00414 3.74152C5.64636 3.74152 4.73566 4.82948 4.73566 6.457V7.44767C4.26375 7.50074 4.03193 7.81032 4.03193 8.41179V11.8614ZM5.7126 7.42998V6.36855C5.7126 5.39558 6.2259 4.74988 7.00414 4.74988C7.78238 4.74988 8.29568 5.39558 8.29568 6.36855V7.42998H5.7126Z" fill="white"/>
</svg>
