<svg width="68" height="68" viewBox="0 0 68 68" fill="none" xmlns="http://www.w3.org/2000/svg">
<g clip-path="url(#clip0_19_727)">
<path d="M19.1238 58.0468C15.8784 58.0468 13.1157 57.0518 10.9128 55.0895C9.10587 53.48 7.64507 51.2034 6.44696 48.1297C6.04746 47.105 6.55441 45.9502 7.57919 45.5507C8.6041 45.151 9.75878 45.6581 10.1583 46.683C12.1749 51.8565 14.8563 54.0637 19.1239 54.0637C23.5002 54.0637 26.186 50.671 28.7832 47.39C29.1254 46.9578 29.4484 46.5498 29.778 46.1463C30.4738 45.2945 31.7286 45.168 32.5803 45.864C33.4322 46.5598 33.5586 47.8146 32.8627 48.6663C32.5525 49.046 32.2386 49.4425 31.9063 49.8623C29.1718 53.3163 25.4271 58.0468 19.1238 58.0468Z" fill="#EDA751"/>
<path d="M10.1582 46.683C9.75871 45.6581 8.60404 45.151 7.57912 45.5507C6.55434 45.9502 6.04726 47.1048 6.4469 48.1297C6.71624 48.8206 6.99953 49.469 7.29637 50.0808C8.45157 49.8206 9.77478 49.2564 10.9047 48.3966C10.6455 47.8657 10.397 47.2959 10.1582 46.683Z" fill="#FCD79D"/>
<path opacity="0.2" d="M32.5566 45.8451C31.6958 45.1631 30.4314 45.3444 29.7378 46.1956C29.4219 46.583 29.1113 46.9755 28.7831 47.39C26.3326 50.4854 23.8028 53.6788 19.8497 54.0303C20.7279 54.9639 21.8001 55.6966 23.0204 56.1863C23.4326 56.3516 23.8188 56.5737 24.1604 56.8575C24.1774 56.8716 24.1944 56.8857 24.2114 56.8997C27.6121 55.2835 30.0043 52.265 31.9063 49.8624C32.2386 49.4427 32.5524 49.0463 32.8627 48.6664C33.5647 47.8069 33.4295 46.5368 32.5566 45.8451Z" fill="#A35F00"/>
<path d="M27.5684 67.0038C26.8993 67.0038 26.2247 66.794 25.6497 66.3594C24.2454 65.2984 23.9673 63.3002 25.0282 61.896C26.0735 60.5126 26.8266 58.9236 27.149 57.4212C27.4434 56.0485 27.3057 55.0742 27.0786 54.6201C26.2915 53.046 26.9296 51.1319 28.5037 50.3449C30.0779 49.558 31.992 50.1959 32.7789 51.7699C34.6578 55.5277 33.5864 61.1411 30.1131 65.7381C29.4867 66.5672 28.5333 67.0038 27.5684 67.0038Z" fill="#EDA751"/>
<path d="M48.2618 63.766C47.9092 63.7662 47.551 63.7072 47.1996 63.583C45.5402 62.9964 44.6707 61.1756 45.2573 59.5164C45.4729 58.9068 45.4353 58.3875 45.1355 57.8325C44.7229 57.0683 43.967 56.5453 43.5663 56.3612C42.1666 56.5234 40.7799 55.7387 40.2371 54.3675C39.5895 52.7312 40.3911 50.8795 42.0274 50.2319C44.4429 49.2755 47.2572 50.8228 48.9333 52.438C51.5424 54.9523 52.4146 58.3926 51.2663 61.6406C50.8038 62.9487 49.5744 63.7659 48.2618 63.766Z" fill="#EDA751"/>
<path d="M53.9033 51.7303C52.0702 51.7303 50.2532 51.2393 48.6506 50.2576C45.7852 48.5021 44.1198 45.4694 44.3046 42.343C44.4086 40.5862 45.9177 39.249 47.6736 39.3501C49.4305 39.454 50.7704 40.9624 50.6666 42.7192C50.6118 43.6439 51.309 44.4124 51.9797 44.8233C52.4316 45.1001 54.0573 45.9148 56.0034 44.7731C57.5215 43.8826 59.4737 44.3913 60.3643 45.9092C61.2549 47.4272 60.7462 49.3796 59.2282 50.2701C57.5689 51.2436 55.7284 51.7303 53.9033 51.7303Z" fill="#EDA751"/>
<path opacity="0.2" d="M53.8259 45.3621C52.9196 45.3356 52.2459 44.9863 51.9798 44.8233C51.3091 44.4124 50.612 43.6439 50.6667 42.7192C50.7704 40.9623 49.4305 39.454 47.6737 39.3501C45.9177 39.249 44.4087 40.5863 44.3047 42.343C44.1199 45.4694 45.7852 48.5021 48.6507 50.2576C49.7183 50.9116 50.8813 51.3465 52.0805 51.5649C53.0589 49.6678 53.6693 47.5727 53.8259 45.3621Z" fill="#A35F00"/>
<path opacity="0.2" d="M50.3876 54.2008C49.987 53.577 49.5015 52.9856 48.9333 52.438C47.2572 50.8227 44.4429 49.2756 42.0274 50.2318C40.3911 50.8794 39.5895 52.7311 40.2371 54.3675C40.7799 55.7386 42.1668 56.5232 43.5663 56.3611C43.967 56.5452 44.7229 57.0682 45.1355 57.8324C45.2677 58.0771 45.3459 58.3151 45.377 58.5567C47.3277 57.4181 49.0299 55.9361 50.3876 54.2008Z" fill="#A35F00"/>
<path opacity="0.2" d="M28.5038 50.3449C26.9297 51.1319 26.2916 53.046 27.0787 54.6201C27.3058 55.0743 27.4435 56.0486 27.1491 57.4212C27.0606 57.8335 26.9386 58.2524 26.7881 58.6717C28.6082 59.7035 30.6378 60.4393 32.8018 60.8066C33.9734 57.5367 34.0188 54.2493 32.7791 51.7699C31.9921 50.1959 30.0781 49.558 28.5038 50.3449Z" fill="#A35F00"/>
<path d="M35.9836 57.8862C44.1011 57.8862 50.6816 51.7719 50.6816 44.2295C50.6816 36.6871 44.1011 30.5728 35.9836 30.5728C27.8661 30.5728 21.2856 36.6871 21.2856 44.2295C21.2856 51.7719 27.8661 57.8862 35.9836 57.8862Z" fill="#FCD690"/>
<path opacity="0.15" d="M33.8367 57.7417C27.1203 53.3322 29.2018 44.2944 30.342 40.3421V31.6152C25.0245 33.6709 21.2854 38.5443 21.2854 44.2299C21.2853 51.095 26.737 56.7763 33.8367 57.7417Z" fill="#C17A00"/>
<path d="M21.3161 43.9938C19.795 43.406 18.4342 42.592 17.1181 41.8048C14.2075 40.0641 12.2797 39.0267 9.64311 39.5525C8.94996 39.6907 8.26053 39.2972 8.02996 38.629L6.60475 34.4972C6.33249 33.7078 6.80171 32.8582 7.6132 32.6612C13.4349 31.2478 17.653 33.7706 20.7982 35.6516C21.9049 36.3134 22.9501 36.9387 23.9004 37.3059L21.3161 43.9938Z" fill="#7694E4"/>
<path opacity="0.1" d="M20.6219 35.5464L18.0871 41.4504C17.9733 41.7238 17.922 42.0057 17.9221 42.2826C18.9909 42.9114 20.1021 43.5248 21.3161 43.9941L23.9004 37.306C22.9501 36.9388 21.9048 36.3136 20.7982 35.6517C20.7401 35.617 20.6809 35.5816 20.6219 35.5464Z" fill="#151515"/>
<path d="M7.6132 32.6613C6.80171 32.8583 6.33249 33.708 6.60475 34.4973L8.0301 38.6291C8.26066 39.2973 8.94996 39.6908 9.64324 39.5526C10.9949 39.2829 12.1602 39.425 13.367 39.8612C13.7778 36.5024 12.9574 33.9325 12.074 32.295C10.7014 32.1823 9.21864 32.2715 7.6132 32.6613Z" fill="#82C7E6"/>
<path d="M26.7883 55.2959C22.5168 55.2962 19.4345 52.5432 18.931 48.274C18.4961 44.5872 20.1795 40.2709 23.7494 39.4294C25.4624 39.0265 27.1782 40.0871 27.582 41.8001C27.9544 43.38 27.0805 44.9622 25.5987 45.5153C25.2948 46.0076 25.0429 47.3294 25.4429 48.2426C25.5616 48.5136 25.7409 48.9226 26.7867 48.9226C26.7948 48.9228 26.803 48.9228 26.8113 48.9226C28.5664 48.9226 29.9916 50.3421 29.9976 52.0984C30.0034 53.8585 28.5815 55.2898 26.8218 55.2958C26.8107 55.2959 26.7993 55.2959 26.7883 55.2959ZM25.2135 45.6323C25.2129 45.6325 25.2122 45.6326 25.2115 45.6327C25.2122 45.6326 25.2127 45.6325 25.2135 45.6323Z" fill="#EDA751"/>
<path d="M50.0456 36.8225C46.1194 38.4082 41.3318 39.2362 35.9832 39.2362C30.6346 39.2362 25.8469 38.4082 21.9207 36.8225L19.77 41.9879C19.2818 43.1605 19.9029 44.4943 21.1109 44.8866C25.4261 46.2885 30.4582 47.0156 35.9832 47.0156C41.5081 47.0156 46.5403 46.2885 50.8555 44.8866C52.0636 44.4943 52.6848 43.1603 52.1965 41.9879L50.0456 36.8225Z" fill="#7694E4"/>
<path d="M32.7965 39.1326V46.9316C33.839 46.987 34.9013 47.0158 35.9831 47.0158C37.0648 47.0158 38.1273 46.987 39.1697 46.9316V39.1326C38.1319 39.2003 37.0696 39.2363 35.9831 39.2363C34.8965 39.2363 33.8344 39.2003 32.7965 39.1326Z" fill="#82C7E6"/>
<path d="M26.354 38.205C24.7798 37.8384 23.2964 37.3781 21.9206 36.8225L19.7699 41.9879C19.2816 43.1605 19.9028 44.4943 21.1107 44.8866C21.9994 45.1752 22.92 45.4337 23.8674 45.6646L26.354 38.205Z" fill="#82C7E6"/>
<path d="M45.6124 38.205C47.1867 37.8384 48.67 37.3781 50.0458 36.8225L52.1966 41.9879C52.6848 43.1605 52.0637 44.4943 50.8557 44.8866C49.9671 45.1752 49.0464 45.4337 48.0991 45.6646L45.6124 38.205Z" fill="#82C7E6"/>
<path d="M27.0387 20.548C29.9146 18.1346 31.8348 14.0836 27.7783 8.09482C23.6897 2.05889 17.6022 0.545891 12.8498 1.10583C11.6781 1.24382 10.695 2.06885 10.3556 3.19869C8.97883 7.78165 9.41193 14.0394 14.6462 19.114C19.8397 24.1488 24.1627 22.9612 27.0387 20.548Z" fill="#EDA751"/>
<path d="M10.1644 3.89966C9.03581 8.40572 9.67397 14.2929 14.6463 19.1137C19.1478 23.4778 22.9944 23.166 25.8127 21.4344C23.8744 8.27676 15.4078 4.78764 10.1644 3.89966Z" fill="#FF91AB"/>
<path d="M44.9276 20.5479C42.0517 18.1345 40.1315 14.0835 44.1879 8.0947C48.2766 2.05877 54.364 0.545641 59.1163 1.10558C60.288 1.24357 61.2711 2.0686 61.6105 3.19844C62.9873 7.7814 62.5542 14.0391 57.3199 19.1138C52.1267 24.1487 47.8035 22.9611 44.9276 20.5479Z" fill="#EDA751"/>
<path d="M61.8019 3.89966C62.9306 8.40572 62.2924 14.2929 57.32 19.1137C52.8186 23.4778 48.972 23.166 46.1537 21.4344C48.0917 8.27676 56.5586 4.78764 61.8019 3.89966Z" fill="#FF91AB"/>
<path d="M61.0057 24.1903C61.0057 35.6313 49.8027 40.6423 35.9831 40.6423C22.1636 40.6423 10.9604 35.6313 10.9604 24.1903C10.9604 12.7493 22.1635 3.47461 35.9831 3.47461C49.8028 3.47461 61.0057 12.7493 61.0057 24.1903Z" fill="#FFDC9C"/>
<path opacity="0.15" d="M22.6223 6.67285C15.6145 10.3439 10.9606 16.8168 10.9606 24.1903C10.9606 34.0253 19.2392 39.1087 30.342 40.3421C14.4043 30.822 16.4828 18.0165 22.6223 6.67285Z" fill="#C17A00"/>
<path d="M23.7039 28.2817C26.2058 28.2817 28.234 26.6662 28.234 24.6733C28.234 22.6805 26.2058 21.0649 23.7039 21.0649C21.202 21.0649 19.1738 22.6805 19.1738 24.6733C19.1738 26.6662 21.202 28.2817 23.7039 28.2817Z" fill="#FF91AB"/>
<path d="M48.2617 28.2817C50.7636 28.2817 52.7918 26.6662 52.7918 24.6733C52.7918 22.6805 50.7636 21.0649 48.2617 21.0649C45.7598 21.0649 43.7316 22.6805 43.7316 24.6733C43.7316 26.6662 45.7598 28.2817 48.2617 28.2817Z" fill="#FF91AB"/>
<path d="M61.1152 48.6109C61.424 47.6138 61.3011 46.5606 60.7769 45.6672C60.1216 44.5503 58.9094 43.8564 57.6132 43.8564C56.9644 43.8564 56.3242 44.0308 55.7618 44.3607C55.4309 44.5548 55.0937 44.6957 54.7532 44.7823C54.3937 44.8738 54.1343 45.1819 54.1246 45.5527C54.0834 47.128 54.3537 49.7264 55.8124 51.5629C56.0142 51.8171 56.3452 51.9324 56.6592 51.85C57.5939 51.605 58.5002 51.2366 59.3524 50.7506C60.1822 50.2771 60.8325 49.5233 61.1152 48.6109Z" fill="#82C7E6"/>
<path d="M26.8113 48.4445H26.7867C26.5629 48.4445 26.3994 48.4259 26.2777 48.3944C26.0156 48.3268 25.7396 48.3979 25.5448 48.5855C24.1374 49.9416 23.3725 53.0008 24.4608 54.968C24.6847 55.3727 25.0916 55.6384 25.5505 55.6966C25.9512 55.7473 26.364 55.7738 26.7883 55.7738H26.8234C28.8441 55.767 30.4824 54.1175 30.4756 52.0968C30.469 50.083 28.8251 48.4445 26.8113 48.4445Z" fill="#82C7E6"/>
<path d="M57.613 42.8604C56.7871 42.8604 55.9726 43.0821 55.2575 43.5018C55.0089 43.6476 54.7566 43.7537 54.5074 43.8172C54.1561 43.9066 53.8495 44.0954 53.6147 44.3479C53.3945 44.3219 53.1979 44.2726 53.0317 44.2167C53.0444 44.1912 53.0575 44.166 53.0695 44.1401C53.4369 43.3409 53.4538 42.417 53.1157 41.6049L51.9197 38.7329C55.5901 37.0882 58.3045 34.8027 59.9992 31.9228C60.2783 31.4486 60.1201 30.8382 59.6459 30.5591C59.1719 30.2801 58.5613 30.4383 58.2822 30.9123C56.6027 33.7663 53.7253 35.9763 49.7302 37.4808C45.9682 38.8976 41.2145 39.6464 35.9827 39.6464C30.4527 39.6464 25.6048 38.8386 21.748 37.2919C21.7414 37.2889 21.7353 37.2853 21.7286 37.2826C21.7205 37.2792 21.7122 37.2768 21.7039 37.2738C20.66 36.8528 19.6884 36.378 18.7968 35.8496C16.9583 34.7603 15.4872 33.4686 14.387 31.9819C14.3585 31.9345 14.3265 31.8892 14.2903 31.8471C12.7393 29.6909 11.956 27.132 11.956 24.1903C11.956 13.3168 22.7343 4.47069 35.9825 4.47069C49.2306 4.47069 60.0089 13.3168 60.0089 24.1903C60.0089 25.1218 59.9288 26.0279 59.7708 26.8832C59.6708 27.4241 60.0284 27.9437 60.5694 28.0436C61.1093 28.1436 61.6299 27.7861 61.7298 27.245C61.9097 26.2705 62.0011 25.2427 62.0011 24.1903C62.0011 21.6537 61.4845 19.1857 60.4938 16.8683C63.2457 12.7559 64.0031 7.70375 62.5638 2.91201C62.1093 1.39861 60.8015 0.301312 59.2322 0.11657C54.4575 -0.446422 49.7566 1.04719 46.2321 4.22194C43.0352 3.07975 39.5635 2.47851 35.9823 2.47851C32.4012 2.47851 28.9295 3.07975 25.7325 4.22194C22.2089 1.04732 17.5085 -0.445625 12.7332 0.116437C11.1641 0.301312 9.85639 1.39848 9.40177 2.91187C7.96235 7.70362 8.71978 12.7558 11.4717 16.8685C11.0275 17.9073 10.6798 18.9767 10.4303 20.0689H9.39938V18.3788C9.39938 17.8287 8.95339 17.3827 8.40329 17.3827C7.85318 17.3827 7.40719 17.8287 7.40719 18.3788V20.0689H5.71729C5.16718 20.0689 4.72119 20.5148 4.72119 21.065C4.72119 21.6151 5.16718 22.061 5.71729 22.061H7.40732V23.7511C7.40732 24.3012 7.85331 24.7472 8.40342 24.7472C8.95353 24.7472 9.39951 24.3012 9.39951 23.7511V22.061H10.0875C10.0062 22.7642 9.96463 23.4746 9.96463 24.1904C9.96463 26.7917 10.5258 29.1655 11.6167 31.2668C10.2182 31.2032 8.81713 31.3442 7.37837 31.6935C6.71789 31.8538 6.15238 32.2875 5.82686 32.8831C5.50253 33.4765 5.44289 34.1834 5.66336 34.8225L7.08871 38.9543C7.47944 40.0873 8.66174 40.7645 9.83819 40.5298C12.1313 40.0728 13.8199 40.9933 16.607 42.6603C17.1864 43.0069 17.7812 43.3611 18.3997 43.7034C17.9201 45.1902 17.7569 46.8226 17.942 48.3913C18.1544 50.1917 18.7906 51.7727 19.7696 53.0386C19.5577 53.0576 19.3429 53.068 19.124 53.068C15.283 53.068 12.9541 51.1134 11.0864 46.3216C10.7966 45.578 10.2345 44.9918 9.50377 44.6709C8.77304 44.3502 7.96102 44.333 7.21754 44.623C6.47392 44.9128 5.88782 45.4748 5.56694 46.2056C5.24607 46.9363 5.22907 47.7482 5.51886 48.4918C6.7754 51.7154 8.32307 54.1169 10.2503 55.8337C12.6413 57.9635 15.6268 59.0432 19.1238 59.0432C21.6739 59.0432 24.0049 58.344 26.2318 56.9106C26.2148 57.0103 26.1972 57.1101 26.1752 57.2128C26.0363 57.8603 25.8074 58.5294 25.4952 59.2015C25.2634 59.7004 25.4799 60.2927 25.9789 60.5246C26.1148 60.5877 26.2574 60.6176 26.3979 60.6176C26.7735 60.6176 27.1333 60.404 27.302 60.0409C27.6768 59.2342 27.953 58.4232 28.1232 57.6306C28.1708 57.4083 28.2086 57.19 28.2382 56.9756C29.5521 57.6731 30.9596 58.1854 32.4224 58.5024C31.9452 60.7707 30.8625 63.0945 29.3186 65.1381C28.9008 65.6911 28.2629 66.0082 27.5684 66.0082C27.0896 66.0082 26.6338 65.855 26.2502 65.5652C25.6803 65.1347 25.3556 64.4505 25.3815 63.7355C25.4014 63.1858 24.972 62.7239 24.4222 62.7039C23.8685 62.6819 23.4106 63.1134 23.3906 63.6632C23.3411 65.0274 23.9611 66.3325 25.0492 67.1546C25.7815 67.7078 26.6527 68.0002 27.5684 68.0002C28.8931 68.0002 30.1104 67.3946 30.9078 66.3389C32.649 64.0344 33.865 61.394 34.392 58.8071C34.9184 58.8567 35.4491 58.8834 35.983 58.8834C38.478 58.8834 40.8418 58.3393 42.942 57.3691C43.0777 57.3777 43.2134 57.3805 43.3485 57.3758C43.6422 57.5601 44.0378 57.8957 44.2593 58.3061C44.4243 58.6116 44.4398 58.8415 44.3183 59.1847C43.5496 61.3591 44.6934 63.7534 46.8679 64.5224C47.3185 64.6816 47.7874 64.7624 48.2612 64.7624H48.262C50.031 64.7623 51.6156 63.6412 52.2054 61.9731C53.45 58.4529 52.5771 54.7388 49.8744 51.97C51.1511 52.4671 52.5208 52.7268 53.9035 52.7268C54.4384 52.7268 54.9796 52.6863 55.5181 52.6085C55.8009 52.7796 56.1253 52.8725 56.4566 52.8725C56.6082 52.8725 56.7611 52.8532 56.912 52.8138C57.9364 52.5452 58.9236 52.1423 59.8461 51.6161C60.928 50.9989 61.7166 50.0364 62.0667 48.906C62.46 47.6362 62.307 46.3072 61.636 45.1636C60.8026 43.7427 59.2612 42.8604 57.613 42.8604ZM59.4464 14.7757C58.1766 12.5744 56.4523 10.5469 54.3118 8.77475C54.1664 8.65442 54.0195 8.53595 53.8712 8.41881C56.2882 6.47709 58.9342 5.52709 61.0317 5.0645C61.4497 7.37902 61.5559 11.0356 59.4464 14.7757ZM58.9998 2.09495C59.6544 2.17198 60.2164 2.56909 60.5143 3.13898C58.0778 3.68723 54.989 4.83208 52.2074 7.21075C50.9842 6.39422 49.6851 5.67676 48.3243 5.06384C51.3218 2.71425 55.1323 1.63887 58.9998 2.09495ZM12.9663 2.09481C16.8337 1.63913 20.6443 2.71425 23.6419 5.0637C22.281 5.67663 20.9821 6.39395 19.7589 7.21062C16.9773 4.83181 13.8883 3.6871 11.452 3.13885C11.7498 2.56895 12.3118 2.17198 12.9663 2.09481ZM10.9344 5.0645C13.0319 5.52709 15.6778 6.47723 18.0949 8.41881C17.9467 8.53595 17.7996 8.65442 17.6543 8.77475C15.5138 10.5469 13.7896 12.5744 12.5198 14.7756C10.4103 11.0355 10.5165 7.37889 10.9344 5.0645ZM18.8503 41.6049C18.8429 41.6227 18.8366 41.6409 18.8295 41.6589C18.4225 41.4246 18.0225 41.1854 17.6292 40.9502C14.504 39.081 12.3938 37.9883 9.44825 38.5757C9.24399 38.6164 9.03919 38.4998 8.97172 38.3043L7.54638 34.1724C7.49445 34.0217 7.54186 33.8984 7.57467 33.8382C7.60827 33.7767 7.68836 33.6678 7.84813 33.629C9.60086 33.2035 11.2852 33.131 12.9851 33.4085C14.2199 35.0084 15.8233 36.4031 17.7816 37.5634C18.4925 37.9846 19.2485 38.3743 20.0463 38.7321L18.8503 41.6049ZM19.1238 57.0508C16.1302 57.0508 13.5904 56.1406 11.5751 54.3456C9.88826 52.8431 8.51445 50.6917 7.37479 47.7678C7.27823 47.5201 7.28394 47.2496 7.39086 47.006C7.49777 46.7626 7.693 46.5752 7.94096 46.4786C8.18853 46.3821 8.4592 46.3878 8.70264 46.4947C8.94609 46.6016 9.13336 46.7968 9.23004 47.0447C11.3908 52.5877 14.442 55.0596 19.1238 55.0596C19.9492 55.0596 20.7596 54.9468 21.5408 54.7273C22.2398 55.2158 23.0245 55.6004 23.883 55.8663C23.9005 55.8863 23.9178 55.9063 23.9358 55.9257C22.4096 56.6797 20.8215 57.0508 19.1238 57.0508ZM22.9633 53.2825C22.7704 53.1635 22.5855 53.0346 22.4088 52.8967C22.3724 52.8629 22.3333 52.8326 22.2927 52.8049C20.9861 51.7318 20.1529 50.1315 19.9201 48.1574C19.8157 47.2728 19.8516 46.3422 20.0139 45.4489C20.2561 45.6116 20.521 45.7424 20.8029 45.8341C21.9128 46.1947 23.0638 46.5108 24.2534 46.7822C24.2183 47.2912 24.2576 47.84 24.4209 48.3482C23.4382 49.5863 22.8192 51.488 22.9633 53.2825ZM26.8234 54.7778H26.7869C26.412 54.7778 26.0381 54.7546 25.6758 54.7086C25.5326 54.6904 25.4094 54.6114 25.341 54.4976C25.3371 54.4909 25.3325 54.4847 25.3285 54.4782C24.4946 52.9585 25.092 50.5026 26.1526 49.3871C26.3367 49.4232 26.5455 49.4407 26.7869 49.4407H26.8114C28.2777 49.4407 29.4747 50.6338 29.4796 52.1002C29.4845 53.5716 28.2914 54.7728 26.8234 54.7778ZM42.3808 55.4307C42.3448 55.4456 42.3099 55.4626 42.2761 55.4816C40.3889 56.3831 38.2481 56.8913 35.983 56.8913C33.8596 56.8913 31.7925 56.4408 29.9152 55.5817C30.8734 54.7242 31.4763 53.4777 31.4716 52.0938C31.4631 49.5324 29.3723 47.4488 26.8112 47.4488H26.7868C26.6034 47.4488 26.534 47.4322 26.5265 47.4304C26.4339 47.4064 26.3408 47.3928 26.2477 47.3837C26.2412 47.3188 26.2372 47.2529 26.2358 47.1856C29.268 47.734 32.5275 48.0118 35.983 48.0118C40.9172 48.0118 45.4533 47.4476 49.4959 46.3335C49.2656 47.6113 48.8299 48.8218 48.2211 49.9363C48.2057 49.9594 48.1906 49.9829 48.1769 50.0077C48.1647 50.0298 48.1545 50.0523 48.1442 50.0749C47.9356 50.4455 47.7082 50.8055 47.4622 51.1532C47.4526 51.1642 47.4423 51.1746 47.433 51.1863C47.4038 51.2228 47.3788 51.2612 47.3556 51.3004C46.0945 53.0305 44.3838 54.4534 42.3808 55.4307ZM50.327 61.3089C50.0181 62.1828 49.188 62.7701 48.2615 62.7702H48.2611C48.0138 62.7702 47.7684 62.7277 47.5316 62.6442C46.3927 62.2415 45.7939 60.9873 46.1963 59.8489C46.5052 58.9754 46.4449 58.1611 46.0119 57.3594C45.762 56.8966 45.4208 56.5016 45.0655 56.1846C46.3046 55.3634 47.4108 54.3776 48.3477 53.261C50.5849 55.4864 51.3259 58.4837 50.327 61.3089ZM35.9831 46.0195C32.2725 46.0195 28.8038 45.6905 25.6204 45.0395C25.5985 45.0343 25.5767 45.0295 25.5548 45.0259C24.1162 44.7294 22.736 44.367 21.4185 43.9391C21.099 43.8354 20.846 43.6109 20.7064 43.3075C20.6729 43.2345 20.6475 43.1598 20.6296 43.0838C20.6279 43.0732 20.6262 43.0627 20.6242 43.0522C20.6214 43.0356 20.6182 43.019 20.6146 43.0025C20.5805 42.7915 20.6044 42.5747 20.6894 42.3705L21.8945 39.4765C25.8333 40.898 30.6154 41.6384 35.9831 41.6384C41.3671 41.6384 46.1026 40.9094 50.0713 39.4754L51.2769 42.3707C51.4037 42.6753 51.3976 43.008 51.2599 43.3076C51.1888 43.4619 51.0883 43.5954 50.9649 43.7034C50.9433 43.719 50.9224 43.7359 50.902 43.7536C50.7969 43.8334 50.6783 43.8969 50.5477 43.9393C46.2984 45.3196 41.3982 46.0195 35.9831 46.0195ZM53.9033 50.7343C52.6965 50.7343 51.5024 50.4933 50.4002 50.0337C51.016 48.6991 51.4267 47.2604 51.593 45.7503C51.9006 45.9223 52.4375 46.1705 53.1329 46.2902C53.1716 47.4258 53.3753 49.1363 54.1343 50.7289C54.0572 50.7309 53.9799 50.7343 53.9033 50.7343ZM60.1636 48.3164C59.9636 48.9624 59.5001 49.5195 58.8589 49.8854C58.1228 50.3052 57.3379 50.6311 56.5238 50.8551C55.2141 49.127 55.1077 46.6383 55.1178 45.7158C55.5079 45.6049 55.8934 45.4384 56.2656 45.2201C56.6753 44.9797 57.1412 44.8526 57.613 44.8526C58.5573 44.8526 59.4405 45.358 59.9177 46.1714C60.3019 46.8261 60.3892 47.5879 60.1636 48.3164ZM40.6167 20.9102L40.0517 21.8508L39.3636 20.8908C39.0992 20.522 38.6703 20.3004 38.2165 20.2981H38.2093C37.7582 20.2981 37.3302 20.5148 37.0636 20.879L35.9831 22.3538L34.9027 20.879C34.6359 20.5148 34.2081 20.2981 33.7569 20.2981H33.7495C33.2957 20.3005 32.8668 20.5221 32.6025 20.891L31.9146 21.8508L31.3496 20.9102C31.0663 20.4387 30.4545 20.2859 29.9828 20.5693C29.5112 20.8526 29.3586 21.4645 29.6419 21.9361L30.6548 23.6224C30.9019 24.0337 31.3355 24.291 31.8148 24.3104C32.2944 24.3303 32.7473 24.1086 33.0269 23.7185L33.7621 22.6928L34.8374 24.1607C35.1039 24.5245 35.5322 24.7416 35.9831 24.7416C36.434 24.7416 36.8625 24.5245 37.1289 24.1607L38.2043 22.6928L38.9394 23.7184C39.2188 24.1084 39.672 24.33 40.1512 24.3102C40.6306 24.2908 41.0643 24.0337 41.3114 23.6224L42.3244 21.9359C42.6077 21.4643 42.4549 20.8525 41.9835 20.5692C41.5116 20.2859 40.8998 20.4386 40.6167 20.9102ZM25.3487 19.4737V21.0737C25.3487 21.6238 25.7947 22.0698 26.3448 22.0698C26.8949 22.0698 27.3409 21.6238 27.3409 21.0737V19.4737C27.3409 18.9236 26.8949 18.4776 26.3448 18.4776C25.7947 18.4776 25.3487 18.9236 25.3487 19.4737ZM18.7588 30.6167C18.9643 30.6167 19.1716 30.5533 19.3496 30.422C20.2013 29.7933 22.6384 28.574 23.7838 28.2699C24.3154 28.1287 24.632 27.5833 24.4909 27.0515C24.3495 26.5198 23.8041 26.2036 23.2724 26.3444C21.8617 26.719 19.2 28.0562 18.1663 28.8191C17.7237 29.1458 17.6298 29.7695 17.9565 30.212C18.152 30.4767 18.4535 30.6167 18.7588 30.6167ZM22.4778 24.9184C23.0234 24.9904 23.5239 24.6068 23.5958 24.0613C23.668 23.5159 23.2841 23.0154 22.7388 22.9433C21.2919 22.7523 18.3215 22.9741 17.075 23.2858C16.5412 23.4192 16.2168 23.96 16.3503 24.4938C16.4634 24.9464 16.8696 25.2485 17.3158 25.2485C17.3958 25.2485 17.477 25.2389 17.5582 25.2185C18.5852 24.9617 21.303 24.763 22.4778 24.9184ZM44.6254 19.4737V21.0737C44.6254 21.6238 45.0714 22.0698 45.6215 22.0698C46.1716 22.0698 46.6176 21.6238 46.6176 21.0737V19.4737C46.6176 18.9236 46.1716 18.4776 45.6215 18.4776C45.0714 18.4776 44.6254 18.9236 44.6254 19.4737ZM54.6503 25.2484C55.0966 25.2483 55.5027 24.9463 55.6159 24.4936C55.7493 23.96 55.4248 23.4192 54.8911 23.2857C53.6447 22.974 50.6742 22.7521 49.2273 22.9432C48.682 23.0153 48.2982 23.5157 48.3703 24.0612C48.4424 24.6065 48.9435 24.9904 49.4883 24.9182C50.663 24.7633 53.3808 24.9615 54.4079 25.2183C54.4891 25.2387 54.5702 25.2484 54.6503 25.2484ZM48.6936 26.3445C48.1619 26.2039 47.6164 26.52 47.4751 27.0516C47.3339 27.5833 47.6506 28.1287 48.1822 28.27C49.3276 28.5742 51.7647 29.7933 52.6164 30.4221C52.7944 30.5535 53.0017 30.6168 53.2072 30.6168C53.5125 30.6168 53.814 30.4768 54.0094 30.2123C54.3361 29.7696 54.2421 29.1461 53.7995 28.8193C52.766 28.0561 50.1043 26.7192 48.6936 26.3445ZM61.2208 36.3999C60.8318 36.0109 60.2011 36.0109 59.8121 36.3999L58.617 37.5949L57.422 36.3999C57.033 36.0109 56.4023 36.0109 56.0134 36.3999C55.6244 36.7889 55.6244 37.4196 56.0134 37.8085L57.2084 39.0035L56.0134 40.1986C55.6244 40.5876 55.6244 41.2183 56.0134 41.6072C56.2078 41.8016 56.4628 41.899 56.7177 41.899C56.9725 41.899 57.2276 41.8018 57.422 41.6072L58.617 40.4121L59.8121 41.6072C60.0065 41.8016 60.2615 41.899 60.5164 41.899C60.7713 41.899 61.0263 41.8018 61.2207 41.6072C61.6097 41.2182 61.6097 40.5875 61.2207 40.1986L60.0256 39.0035L61.2207 37.8085C61.6098 37.4195 61.6098 36.7888 61.2208 36.3999Z" fill="#151515"/>
</g>
<defs>
<clipPath id="clip0_19_727">
<rect width="68" height="68" fill="white"/>
</clipPath>
</defs>
</svg>
