<svg width="18" height="18" viewBox="0 0 18 18" fill="none" xmlns="http://www.w3.org/2000/svg">
<path d="M4.29346 3.41211C4.29346 5.04736 5.17334 6.30908 6.28564 6.30908C7.41455 6.30908 8.28613 5.03906 8.28613 3.41211C8.28613 1.76855 7.41455 0.506836 6.28564 0.506836C5.17334 0.506836 4.29346 1.76855 4.29346 3.41211ZM9.72217 3.41211C9.72217 5.03906 10.5854 6.30908 11.7144 6.30908C12.8267 6.30908 13.7065 5.04736 13.7065 3.41211C13.7065 1.76855 12.8267 0.506836 11.7144 0.506836C10.5854 0.506836 9.72217 1.76855 9.72217 3.41211ZM0.267578 8.20166C0.267578 9.84521 1.13086 11.1069 2.25146 11.1069C3.37207 11.1069 4.24365 9.84521 4.24365 8.20166C4.24365 6.56641 3.37207 5.29639 2.25146 5.29639C1.13086 5.29639 0.267578 6.56641 0.267578 8.20166ZM13.7563 8.20166C13.7563 9.84521 14.6279 11.1069 15.7485 11.1069C16.8691 11.1069 17.7324 9.84521 17.7324 8.20166C17.7324 6.56641 16.8691 5.29639 15.7485 5.29639C14.6279 5.29639 13.7563 6.56641 13.7563 8.20166ZM2.75781 14.6265C2.75781 16.3032 3.88672 17.4985 5.54688 17.4985C6.36865 17.4985 6.96631 17.2661 7.53906 17.0669C8.00391 16.9009 8.45215 16.7515 9 16.7515C9.53955 16.7515 9.98779 16.9009 10.4609 17.0669C11.0337 17.2661 11.623 17.4985 12.4448 17.4985C14.1133 17.4985 15.2422 16.3032 15.2422 14.6265C15.2422 13.1987 14.3872 12.4766 13.5654 11.8042C13.1089 11.439 12.6689 11.0903 12.3701 10.6255C12.1211 10.252 11.9136 9.84521 11.7393 9.46338C11.1416 8.18506 10.6685 6.98145 9 6.98145C7.32324 6.98145 6.8584 8.18506 6.26074 9.45508C6.07812 9.84521 5.87891 10.2437 5.63818 10.6089C5.33105 11.0737 4.88281 11.439 4.43457 11.8042C3.61279 12.4766 2.75781 13.207 2.75781 14.6265Z" fill="#9F9F9F"/>
</svg>
