<svg width="66" height="66" viewBox="0 0 66 66" fill="none" xmlns="http://www.w3.org/2000/svg">
<path d="M48.3177 54.1418C43.7722 54.1418 41.3823 51.2156 38.8712 48.1417L38.8353 48.0979C38.1587 47.2696 38.2815 46.0495 39.1099 45.3728C39.9384 44.6959 41.1582 44.819 41.835 45.6473L41.8708 45.6912C44.6637 49.1102 46.0656 50.8257 49.9119 50.1076C52.0418 49.7096 52.7364 48.8904 53.6979 47.7565C54.7094 46.5636 55.9685 45.079 58.7611 44.5021C59.8076 44.2848 60.8333 44.9595 61.0494 46.007C61.2658 47.0545 60.5921 48.079 59.5446 48.2953C58.0592 48.6021 57.4994 49.2623 56.6522 50.2617C55.5178 51.5994 54.106 53.2642 50.6233 53.915C49.7964 54.0698 49.0301 54.1418 48.3177 54.1418Z" fill="#EDA751"/>
<path d="M61.0493 46.0072C60.8331 44.9597 59.8074 44.285 58.7609 44.5024C57.9545 44.6689 57.2766 44.9115 56.6948 45.2005C56.787 46.2085 57.2984 47.7787 58.1689 48.8086C58.5363 48.5856 58.9709 48.4139 59.5444 48.2955C60.5919 48.0792 61.2657 47.0547 61.0493 46.0072Z" fill="#FCD79D"/>
<path d="M14.5775 47.3528C11.746 47.3528 8.84931 46.3147 6.16805 44.3332C4.79158 43.3162 4.50038 41.376 5.51746 39.9997C6.53466 38.6231 8.47509 38.332 9.85104 39.3491C12.1757 41.0669 15.6471 42.4261 18.9842 39.146C20.2047 37.9464 22.1667 37.9635 23.3663 39.1838C24.566 40.4044 24.549 42.3661 23.3285 43.5659C20.9489 45.9048 18.0964 47.2102 15.0791 47.3419C14.9121 47.3492 14.7449 47.3528 14.5775 47.3528Z" fill="#EDA751"/>
<path d="M26.9845 65.0332C25.4779 65.0332 24.1571 63.9329 23.9246 62.3982C23.2619 58.0231 23.728 53.3558 24.4416 50.8705C24.9142 49.2256 26.6296 48.2752 28.2752 48.7473C29.9201 49.2197 30.8706 50.936 30.3984 52.5808C29.9699 54.073 29.4971 57.8059 30.0521 61.4701C30.3083 63.1621 29.1444 64.7415 27.4524 64.9978C27.2951 65.0216 27.1386 65.0332 26.9845 65.0332Z" fill="#EDA751"/>
<path d="M37.5704 65.0332C36.0639 65.0332 34.7431 63.9329 34.5105 62.3982C33.8478 58.0231 34.314 53.3558 35.0276 50.8705C35.5 49.2256 37.2156 48.2752 38.8611 48.7473C40.506 49.2197 41.4566 50.936 40.9844 52.5808C40.5559 54.073 40.0831 57.8059 40.638 61.4701C40.8943 63.1621 39.7302 64.7415 38.0383 64.9978C37.8811 65.0216 37.7246 65.0332 37.5704 65.0332Z" fill="#EDA751"/>
<path opacity="0.2" d="M18.984 39.1459C17.8812 40.2298 16.7641 40.8048 15.6784 41.03C15.5917 41.678 15.5469 42.338 15.5469 43.0077C15.5469 44.4743 15.7616 45.8943 16.1618 47.2426C18.7766 46.8797 21.2357 45.6228 23.3285 43.5659C24.5491 42.3661 24.566 40.4044 23.3662 39.1838C22.1665 37.9635 20.2045 37.9465 18.984 39.1459Z" fill="#A35F00"/>
<path opacity="0.2" d="M28.2748 48.7473C26.629 48.2752 24.9138 49.2258 24.4412 50.8705C24.051 52.2297 23.7353 54.2418 23.6372 56.5014C25.4904 57.5611 27.578 58.2931 29.8082 58.6115C29.7425 56.0003 30.082 53.6812 30.3981 52.5808C30.8702 50.9358 29.9196 49.2196 28.2748 48.7473Z" fill="#A35F00"/>
<path opacity="0.2" d="M38.8611 48.7473C37.2155 48.2752 35.5 49.2258 35.0275 50.8705C34.5146 52.6571 34.1294 55.5712 34.1997 58.6937C36.429 58.4621 38.528 57.8191 40.4089 56.847C40.4856 54.9865 40.742 53.4249 40.9844 52.5807C41.4565 50.9358 40.5059 49.2196 38.8611 48.7473Z" fill="#A35F00"/>
<path opacity="0.2" d="M47.3005 50.1782C45.2264 49.7964 43.924 48.2051 41.8703 45.6912L41.8345 45.6474C41.1577 44.8191 39.9379 44.6958 39.1094 45.3728C38.2811 46.0496 38.1582 47.2698 38.8348 48.0979L38.8707 48.1418C40.6626 50.3352 42.3933 52.4527 44.8892 53.4861C45.8338 52.4881 46.6469 51.3777 47.3005 50.1782Z" fill="#A35F00"/>
<path d="M32.3418 56.2881C40.2348 56.2881 46.6333 50.342 46.6333 43.0072C46.6333 35.6724 40.2348 29.7263 32.3418 29.7263C24.4488 29.7263 18.0503 35.6724 18.0503 43.0072C18.0503 50.342 24.4488 56.2881 32.3418 56.2881Z" fill="#FCD690"/>
<path opacity="0.15" d="M30.2543 56.1469C23.7231 51.859 25.7474 43.0708 26.8561 39.2273V30.7412C21.6853 32.7402 18.0493 37.4792 18.0493 43.0078C18.0492 49.6834 23.3503 55.2081 30.2543 56.1469Z" fill="#C17A00"/>
<path d="M23.6436 19.9792C26.4402 17.6324 28.3074 13.693 24.3628 7.86953C20.3869 2.00015 14.4676 0.528806 9.84619 1.07331C8.70679 1.2075 7.75081 2.00969 7.42081 3.10849C6.08212 7.56505 6.50313 13.6501 11.5931 18.5848C16.6432 23.4805 20.847 22.3258 23.6436 19.9792Z" fill="#EDA751"/>
<path d="M7.23515 3.79028C6.13763 8.17208 6.75819 13.8968 11.5934 18.5845C15.9705 22.8283 19.7111 22.525 22.4517 20.8412C20.5669 8.04653 12.3339 4.6537 7.23515 3.79028Z" fill="#FF91AB"/>
<path d="M41.0392 19.9793C38.2426 17.6325 36.3753 13.6932 40.32 7.86966C44.2959 2.00015 50.2153 0.528806 54.8366 1.07331C55.976 1.2075 56.932 2.00969 57.262 3.10849C58.6007 7.56505 58.1797 13.6501 53.0897 18.5848C48.0397 23.4807 43.836 22.3259 41.0392 19.9793Z" fill="#EDA751"/>
<path d="M57.448 3.79028C58.5455 8.17208 57.9249 13.8968 53.0898 18.5845C48.7126 22.8283 44.972 22.525 42.2314 20.8412C44.1162 8.04653 52.3493 4.6537 57.448 3.79028Z" fill="#FF91AB"/>
<path d="M56.6736 23.5212C56.6736 34.6466 45.7797 39.5193 32.3415 39.5193C18.9032 39.5193 8.00928 34.6465 8.00928 23.5212C8.00928 12.3959 18.9032 3.37695 32.3415 3.37695C45.7797 3.37695 56.6736 12.3959 56.6736 23.5212Z" fill="#FFDC9C"/>
<path opacity="0.15" d="M19.3493 6.48706C12.5347 10.0569 8.00928 16.3511 8.00928 23.5212C8.00928 33.0849 16.0595 38.0281 26.8561 39.2274C11.3579 29.9699 13.3791 17.5177 19.3493 6.48706Z" fill="#C17A00"/>
<path d="M17.3141 27.4989C19.7474 27.4989 21.72 25.928 21.72 23.9902C21.72 22.0524 19.7474 20.4814 17.3141 20.4814C14.8808 20.4814 12.9082 22.0524 12.9082 23.9902C12.9082 25.928 14.8808 27.4989 17.3141 27.4989Z" fill="#FF91AB"/>
<path d="M41.1935 27.4989C43.6268 27.4989 45.5994 25.928 45.5994 23.9902C45.5994 22.0524 43.6268 20.4814 41.1935 20.4814C38.7602 20.4814 36.7876 22.0524 36.7876 23.9902C36.7876 25.928 38.7602 27.4989 41.1935 27.4989Z" fill="#FF91AB"/>
<path d="M29.1064 26.8318C27.4637 26.7545 26.2002 25.3395 26.2002 23.6953V21.2192C26.2002 20.7624 26.405 20.3262 26.7652 20.0449C27.4518 19.5088 28.3154 19.189 29.2541 19.189C30.1928 19.189 31.0565 19.5088 31.7431 20.0449C32.1032 20.3261 32.3081 20.7623 32.3081 21.2192V23.7814C32.3078 25.517 30.86 26.9143 29.1064 26.8318Z" fill="#FF91AB"/>
<path d="M55.0626 33.2113L48.3341 32.4713C46.8322 32.3062 45.7486 30.9548 45.9136 29.4529L47.434 15.6258C47.5992 14.1239 48.9506 13.0403 50.4525 13.2053L57.1811 13.9452C58.6829 14.1104 59.7667 15.4618 59.6015 16.9636L58.0811 30.7907C57.9158 32.2928 56.5644 33.3763 55.0626 33.2113Z" fill="#7694E4"/>
<path opacity="0.1" d="M50.6536 17.8696C51.2828 17.8696 51.793 17.3595 51.793 16.7302C51.793 16.1009 51.2828 15.5908 50.6536 15.5908C50.0243 15.5908 49.5142 16.1009 49.5142 16.7302C49.5142 17.3595 50.0243 17.8696 50.6536 17.8696Z" fill="#151515"/>
<path d="M52.912 23.7401C53.9842 23.7401 54.8534 22.8709 54.8534 21.7988C54.8534 20.7266 53.9842 19.8574 52.912 19.8574C51.8399 19.8574 50.9707 20.7266 50.9707 21.7988C50.9707 22.8709 51.8399 23.7401 52.912 23.7401Z" fill="white"/>
<path opacity="0.1" d="M46.0101 28.5786L58.1772 29.9165L58.3886 27.9946L46.2214 26.6567L46.0101 28.5786Z" fill="#151515"/>
<path d="M43.6786 44.4553C42.2409 44.4553 40.9517 43.449 40.6479 41.9858C40.2998 40.3103 41.3763 38.6699 43.052 38.322C47.2028 37.4602 49.3053 34.8562 49.6681 30.1269C49.7991 28.4206 51.2891 27.1428 52.9948 27.2745C54.7013 27.4054 55.9781 28.8949 55.8473 30.6012C55.2743 38.0676 51.1775 42.9646 44.3117 44.3899C44.0992 44.434 43.8874 44.4553 43.6786 44.4553Z" fill="#EDA751"/>
<path d="M29.257 27.8023C30.2956 27.8023 31.2737 27.4117 32.029 26.6909C32.8322 25.9247 33.2746 24.8914 33.2746 23.7817V21.2195C33.2746 20.465 32.9244 19.7412 32.3378 19.2833C31.4492 18.5894 30.3827 18.2225 29.2539 18.2225C28.125 18.2225 27.0587 18.5893 26.1698 19.2833C25.5833 19.7415 25.2331 20.4651 25.2331 21.2195V23.6955C25.2331 25.8951 26.9145 27.6968 29.0606 27.7979C29.1265 27.8007 29.1917 27.8023 29.257 27.8023ZM27.1667 23.6953V21.2192C27.1667 21.0555 27.2391 20.9015 27.3598 20.807C27.9054 20.3811 28.5604 20.1559 29.2539 20.1559C29.9475 20.1559 30.6024 20.381 31.1478 20.807C31.2688 20.9015 31.341 21.0557 31.341 21.2192V23.7814C31.341 24.3576 31.1113 24.894 30.6941 25.2919C30.2775 25.6895 29.7328 25.8926 29.1515 25.8662C29.1515 25.8662 29.1515 25.8662 29.1515 25.8661C28.0574 25.8146 27.1667 24.8408 27.1667 23.6953ZM61.9958 45.8119C61.8389 45.0518 61.3951 44.3984 60.7462 43.9721C60.0979 43.5462 59.3228 43.3986 58.5652 43.5557C55.4458 44.2 54.009 45.8946 52.9602 47.1316C52.0354 48.222 51.5261 48.8226 49.7341 49.1575C48.1194 49.459 47.1143 49.2625 46.2879 48.8001C46.9337 47.4453 47.3596 45.9772 47.5236 44.4337C49.7878 43.5249 51.6842 42.1701 53.1806 40.3814C54.6457 38.6303 55.6812 36.5184 56.2784 34.0776C57.7374 33.6997 58.8721 32.4401 59.0419 30.8965L60.5624 17.0695C60.6705 16.0864 60.3892 15.12 59.7705 14.3486C59.2787 13.7353 58.6201 13.3042 57.877 13.0986C59.5049 8.76943 58.7989 4.86652 58.1874 2.83057C57.7455 1.35987 56.4745 0.293167 54.9492 0.1136C50.3036 -0.434125 45.7298 1.02059 42.3022 4.11151C39.1714 2.99441 35.7808 2.41033 32.3411 2.41033C28.8585 2.41033 25.4824 2.99505 22.3736 4.10597C18.9471 1.01865 14.376 -0.433351 9.73301 0.113342C8.20765 0.293167 6.93676 1.35974 6.49513 2.83031C5.09546 7.48977 5.83203 12.4024 8.50826 16.401C7.54468 18.6545 7.04233 21.0545 7.04233 23.5211C7.04233 28.0027 8.69195 31.7235 11.9453 34.5803C13.4286 35.8828 15.2462 36.9929 17.348 37.8801C17.5606 37.9698 17.7779 38.0561 17.9966 38.1415C17.8866 38.4235 17.7863 38.708 17.6961 38.995C15.5537 40.6965 13.1087 40.5545 10.4252 38.5716C9.55202 37.9262 8.47913 37.6594 7.40585 37.8208C6.3318 37.982 5.38485 38.5518 4.73954 39.4251C4.09411 40.2985 3.82753 41.371 3.98879 42.4448C4.15005 43.5187 4.71982 44.4655 5.59317 45.1107C8.43375 47.2101 11.5405 48.3197 14.5772 48.3197C14.7578 48.3197 14.9407 48.3157 15.1208 48.3078C16.0868 48.2657 17.0474 48.1095 17.9875 47.8424C18.9578 50.3462 20.6594 52.5255 22.8502 54.1552C22.6406 56.0019 22.4518 59.1337 22.9682 62.5429C23.2667 64.5139 24.9932 65.9999 26.984 65.9999C27.1875 65.9999 27.3936 65.9843 27.5965 65.9536C29.8129 65.618 31.3429 63.5415 31.0073 61.3252C30.777 59.8048 30.7434 58.3431 30.7781 57.1809C31.2921 57.23 31.8136 57.2551 32.3412 57.2551C32.6412 57.2551 32.9389 57.2461 33.2348 57.23C33.1964 59.0687 33.3033 60.886 33.5545 62.5429C33.8529 64.5139 35.5795 65.9999 37.5702 65.9999C37.7737 65.9999 37.9798 65.9843 38.1827 65.9536C39.7295 65.7194 40.9825 64.6465 41.4527 63.1539C41.6132 62.6447 41.3305 62.1018 40.8212 61.9413C40.3123 61.7809 39.7691 62.0635 39.6086 62.5728C39.3617 63.356 38.7044 63.919 37.8932 64.0418C37.7858 64.0582 37.677 64.0663 37.57 64.0663C36.527 64.0663 35.6225 63.2868 35.4659 62.2532C35.2193 60.6253 35.1191 58.8271 35.172 57.0089C35.1746 57.0084 35.177 57.0079 35.1796 57.0075C36.7187 56.7368 38.178 56.25 39.5194 55.5814C39.4415 56.4841 39.393 57.5828 39.4322 58.8121C39.4492 59.346 39.899 59.7705 40.4292 59.7477C40.963 59.7307 41.3818 59.2843 41.3648 58.7507C41.3177 57.2716 41.4081 55.6829 41.6132 54.3229C42.0088 54.0401 42.3893 53.7397 42.7532 53.4226C44.4393 54.555 46.267 55.1082 48.317 55.1082C49.102 55.1082 49.9376 55.0263 50.8004 54.8651C54.6205 54.1512 56.2205 52.2645 57.3889 50.8867C58.2071 49.9218 58.5804 49.4814 59.7395 49.2419C60.4991 49.085 61.152 48.6418 61.5781 47.9937C62.0044 47.3465 62.1528 46.5712 61.9958 45.8119ZM15.0364 46.3763C12.2739 46.4977 9.39385 45.5155 6.74224 43.5559C6.28423 43.2176 5.98543 42.721 5.90087 42.1578C5.81643 41.5948 5.95617 41.0325 6.29468 40.5745C6.63319 40.1163 7.12973 39.8175 7.69306 39.7331C8.25638 39.6487 8.81828 39.7884 9.27629 40.1269C11.9945 42.1355 14.724 42.6152 17.1602 41.5627C17.1091 42.0401 17.0825 42.5221 17.0825 43.0081C17.0825 44.0317 17.1997 45.0301 17.4205 45.9931C16.6371 46.2122 15.8385 46.3412 15.0364 46.3763ZM58.2621 15.5582C58.5577 15.9268 58.692 16.3885 58.6405 16.8583L57.1199 30.6854C57.081 31.04 56.9343 31.3624 56.7164 31.6225C56.7533 31.3107 56.7864 30.996 56.811 30.6753C56.9826 28.4401 55.3037 26.4823 53.0691 26.3108C51.9863 26.2262 50.9361 26.5708 50.1116 27.2779C49.2871 27.9848 48.7874 28.9705 48.7042 30.0531C48.6644 30.5713 48.6026 31.0592 48.5191 31.5192L48.4397 31.5104C47.97 31.4588 47.5486 31.2273 47.253 30.8585C46.9574 30.49 46.8231 30.0282 46.8747 29.5584L48.3951 15.7313C48.4467 15.2616 48.6782 14.8402 49.047 14.5446C49.4157 14.249 49.8775 14.1144 50.3471 14.1662L56.3945 14.8311C56.3976 14.8315 56.4007 14.8319 56.4038 14.8322L57.0756 14.906C57.545 14.9579 57.9664 15.1894 58.2621 15.5582ZM55.9041 12.8323L54.0138 12.6245C52.8303 10.9879 51.3886 9.49363 49.7324 8.18535C52.0858 6.29391 54.6628 5.36964 56.7044 4.92015C57.0712 6.91781 57.1675 9.77207 55.9041 12.8323ZM54.7233 2.03367C55.3612 2.10895 55.9088 2.49631 56.1986 3.05203C53.8281 3.58519 50.8219 4.6992 48.1154 7.01501C47.1808 6.39226 46.1942 5.82185 45.1588 5.31344C44.8867 5.17989 44.611 5.05189 44.3335 4.92711C47.2494 2.63811 50.9576 1.59036 54.7233 2.03367ZM9.95924 2.03367C13.7218 1.59113 17.4285 2.63695 20.3441 4.92298C19.0194 5.5193 17.7551 6.21759 16.5645 7.01256C13.8588 4.69817 10.8539 3.58493 8.48441 3.05203C8.77394 2.49618 9.32141 2.10895 9.95924 2.03367ZM7.98232 4.92092C10.0229 5.37068 12.5977 6.29507 14.9496 8.18484C14.8048 8.29918 14.6614 8.41494 14.5193 8.5325C12.4371 10.2562 10.7601 12.2286 9.52521 14.37C7.47159 10.7305 7.57536 7.17241 7.98232 4.92092ZM27.3071 64.0422C27.1997 64.0586 27.0909 64.0667 26.984 64.0667C25.941 64.0667 25.0364 63.2872 24.8798 62.2536C24.5561 60.1165 24.489 57.6609 24.6791 55.3246C25.9639 56.0242 27.3672 56.5536 28.8537 56.8794C28.8041 58.17 28.8283 59.8518 29.0954 61.6149C29.2718 62.7774 28.4693 63.8661 27.3071 64.0422ZM42.0378 51.4557C42.0146 51.4765 41.9922 51.4984 41.9707 51.5216C41.4277 52.0455 40.8351 52.5245 40.2004 52.9531C40.195 52.9566 40.1889 52.9591 40.1835 52.9628C38.5131 54.0888 36.5687 54.8424 34.5362 55.1548C34.5282 55.1561 34.5202 55.1572 34.5122 55.1583C34.3921 55.1766 34.2716 55.1931 34.1509 55.2083C33.5586 55.2827 32.9547 55.322 32.3411 55.322C24.9934 55.322 19.0157 49.798 19.0157 43.0081C19.0157 41.9288 19.1642 40.8719 19.458 39.8485C19.4642 39.829 19.4701 39.8095 19.4751 39.7898C19.5748 39.4496 19.6911 39.1134 19.8228 38.7811C21.1578 39.1983 22.5827 39.5428 24.0863 39.8082C24.1431 39.8183 24.1997 39.8231 24.2555 39.8231C24.7157 39.8231 25.1236 39.4931 25.2065 39.0242C25.2993 38.4984 24.9483 37.9968 24.4224 37.9042C22.6983 37.5998 21.1085 37.1949 19.6533 36.6948C19.6098 36.677 19.5659 36.6616 19.5214 36.6507C16.9951 35.7674 14.8858 34.5897 13.2208 33.1279C10.4038 30.6544 8.97555 27.4224 8.97555 23.5218C8.97555 12.9473 19.4572 4.34432 32.3411 4.34432C39.8842 4.34432 46.9391 7.35816 51.3049 12.3271L50.5578 12.245C48.529 12.0217 46.6959 13.4913 46.4727 15.5207L45.7211 22.3565C44.486 22.2388 43.0383 22.1912 42.1328 22.311C41.6035 22.3808 41.2311 22.8668 41.301 23.3961C41.3708 23.9254 41.8567 24.2973 42.3861 24.2279C43.0909 24.1347 44.3918 24.1762 45.5095 24.2796L45.191 27.176C44.0155 26.5365 42.5309 25.8618 41.6129 25.6182C41.096 25.4815 40.5675 25.7885 40.4303 26.3045C40.2933 26.8206 40.6006 27.3501 41.1166 27.4871C42.0538 27.7359 43.9153 28.6336 44.9605 29.2711L44.9521 29.3477C44.844 30.3308 45.1253 31.297 45.744 32.0686C46.3121 32.7772 47.1027 33.2426 47.9894 33.3978C47.3381 35.0089 46.2572 36.1202 44.6861 36.8069C41.1714 37.9653 37.0187 38.5531 32.3411 38.5531C31.147 38.5531 29.9667 38.5132 28.8331 38.4349C28.298 38.3992 27.8386 38.8001 27.8019 39.3327C27.7651 39.8655 28.1671 40.3271 28.6997 40.364C29.8777 40.4454 31.1029 40.4867 32.3411 40.4867C35.017 40.4867 37.5337 40.2991 39.8739 39.9295C39.7551 40.2482 39.6733 40.5849 39.6369 40.9358C39.5818 41.4669 39.9676 41.9422 40.4988 41.9972C41.0301 42.0523 41.5052 41.6664 41.5602 41.1353C41.6564 40.2088 42.3347 39.4586 43.2481 39.269C44.0315 39.1063 44.75 38.8831 45.4074 38.6012C45.4179 38.5968 45.4283 38.5925 45.4385 38.5879C47.8773 37.532 49.4505 35.6464 50.1913 32.8841C50.2061 32.8399 50.2175 32.794 50.2258 32.747C50.4254 31.9667 50.5613 31.1194 50.6316 30.2015C50.6753 29.6336 50.9375 29.1166 51.3699 28.7459C51.8021 28.3751 52.3514 28.1937 52.9205 28.2389C54.0925 28.3287 54.973 29.3555 54.8831 30.5276C54.8171 31.387 54.7024 32.2092 54.5407 32.994C54.534 33.0212 54.5281 33.0488 54.5237 33.0769C54.0203 35.4624 53.0744 37.4951 51.6974 39.141C50.3109 40.7985 48.5127 42.0297 46.3347 42.819C46.3076 42.8271 46.2812 42.8361 46.2551 42.8464C45.5772 43.0878 44.8644 43.2882 44.1144 43.4439C43.7523 43.519 43.377 43.4995 43.0278 43.3863C42.5198 43.2223 41.9748 43.5004 41.8103 44.0084C41.6459 44.5163 41.9244 45.0615 42.4324 45.2259C42.8355 45.3564 43.2546 45.4225 43.6782 45.4225C43.9557 45.4225 44.2349 45.3936 44.5078 45.3371C44.836 45.2689 45.1562 45.1907 45.4727 45.1077C45.2432 46.3458 44.8147 47.5183 44.2192 48.5976C44.1975 48.6313 44.1783 48.6659 44.1613 48.7013C43.5915 49.7103 42.8747 50.6363 42.0378 51.4557ZM59.9628 46.9319C59.8205 47.1485 59.6023 47.2964 59.3486 47.3489C57.5367 47.723 56.7849 48.6099 55.9142 49.6369C54.8248 50.9214 53.5902 52.3773 50.4452 52.965C49.6993 53.1043 48.9832 53.1751 48.317 53.1751C46.7741 53.1751 45.4287 52.8071 44.1547 52.0272C44.5835 51.5385 44.9783 51.0226 45.3355 50.4824C46.6942 51.2455 48.1729 51.4158 50.0889 51.0582C52.5566 50.5971 53.4269 49.5706 54.4348 48.3822C55.398 47.2462 56.4894 45.9586 58.9571 45.4492C59.2099 45.3965 59.4681 45.446 59.6844 45.5882C59.9015 45.7306 60.0497 45.9491 60.1022 46.2032C60.1548 46.4567 60.1053 46.7156 59.9628 46.9319ZM16.1216 24.2273C16.6512 24.297 17.1368 23.9247 17.2068 23.3954C17.2766 22.8662 16.9042 22.3803 16.3749 22.3103C14.9677 22.1243 12.0799 22.3403 10.8679 22.6433C10.3498 22.7728 10.035 23.2977 10.1645 23.8158C10.2744 24.255 10.6685 24.5484 11.1017 24.5484C11.1795 24.5484 11.2584 24.539 11.337 24.5193C12.3356 24.2696 14.9791 24.0765 16.1216 24.2273ZM38.6264 21.4573C39.1605 21.4573 39.5932 21.0245 39.5932 20.4905V18.9348C39.5932 18.4007 39.1605 17.968 38.6264 17.968C38.0924 17.968 37.6596 18.4007 37.6596 18.9348V20.4905C37.6596 21.0246 38.0924 21.4573 38.6264 21.4573ZM19.8816 17.9681C19.3475 17.9681 18.9148 18.4008 18.9148 18.9349V20.4907C18.9148 21.0246 19.3475 21.4575 19.8816 21.4575C20.4156 21.4575 20.8484 21.0246 20.8484 20.4907V18.9349C20.8482 18.4007 20.4154 17.9681 19.8816 17.9681ZM16.8945 25.6178C15.5234 25.9818 12.9353 27.282 11.93 28.024C11.5004 28.3411 11.4092 28.9463 11.7263 29.3759C11.9159 29.6327 12.2084 29.7686 12.5049 29.7686C12.7043 29.7686 12.9054 29.7071 13.0783 29.5796C13.907 28.968 16.2771 27.7823 17.3907 27.4867C17.9067 27.3497 18.214 26.8202 18.077 26.3041C17.9401 25.7881 17.4108 25.4812 16.8945 25.6178Z" fill="#151515"/>
</svg>
