<svg width="192" height="192" viewBox="0 0 192 192" fill="none" xmlns="http://www.w3.org/2000/svg">
<g clip-path="url(#clip0_684_16881)">
<g filter="url(#filter0_d_684_16881)">
<path d="M98.0046 26.1921C96.0168 24.2392 96.75 22.7266 96.75 21.7501C94.1453 19.0558 92.4773 17.8638 89.25 16.1251C88.1341 16.9621 87.3682 18.3107 82.9044 16.3577C79.4519 14.8233 75.2322 13.5679 70.9079 12.8355C65.084 11.8591 55.9886 11.4389 50.0625 12.8355C22.8011 19.2605 6.47497 43.3126 13.5061 70.5163C16.4355 81.8502 23.3753 91.545 33.384 98.3453C36.8713 100.717 36.8713 100.577 33.9419 109.365C32.5819 113.376 31.5357 116.724 31.6054 116.793C31.6752 116.863 35.5113 114.492 40.1146 111.562C44.7179 108.598 48.7981 106.052 49.1817 105.948C49.5653 105.808 51.2741 105.948 52.9829 106.227C83.288 111.528 111.257 90.5337 112.617 61.4492C113.209 48.5809 107.944 35.8869 98.0046 26.1921Z" fill="#7694E4"/>
<path d="M136.61 71.3532C145.119 72.6784 151.675 75.1544 158.231 79.5136C162.207 82.164 164.683 84.2913 167.821 87.7787C172.355 92.8353 175.284 97.8222 177.377 104.03C181.178 115.468 180.376 127.674 175.075 138.345C171.657 145.18 165.589 152.19 159.382 156.479C157.568 157.735 156.174 158.955 155.929 159.513C155.581 160.316 155.86 161.431 158.057 167.988C159.452 172.138 160.498 175.59 160.463 175.625C160.393 175.695 156.487 173.254 151.78 170.22C142.189 164.012 142.957 164.291 137.307 165.198C133.61 165.791 125.938 165.895 122.381 165.337C111.187 163.663 101.457 158.921 93.7151 151.388C88.519 146.366 84.8573 140.926 82.3464 134.579C79.7309 128.058 78.6498 119.235 79.6262 112.643L80.0098 110.063L82.3115 109.261C86.1476 107.936 90.7858 105.564 94.8311 102.879C99.5739 99.7054 106.095 93.2887 109.164 88.79C111.814 84.8493 114.744 78.9208 115.86 75.1893L116.732 72.3297L119.87 71.7717C124.195 71.0045 124.543 70.9696 129.286 70.9348C131.588 70.8999 134.901 71.1091 136.61 71.3532Z" fill="#FF91AB"/>
<path d="M53.6106 7.22079C34.7789 10.2897 19.5043 21.3446 11.7275 37.5259C9.42588 42.3733 8.27505 45.8606 7.36834 50.987C6.74062 54.4046 6.67087 55.9042 6.81037 61.2747C7.05448 70.0977 8.37968 75.2939 12.1809 82.8265C16.0867 90.5336 21.5619 96.8108 29.1643 102.425L30.1059 103.123L26.758 113.062C24.9446 118.502 23.445 123.489 23.445 124.082C23.445 125.442 24.7005 126.663 26.0954 126.663C26.8278 126.663 30.3849 124.535 38.7894 119.13L50.472 111.597L52.2157 111.841C61.0735 112.992 65.363 112.992 72.4772 111.841L73.9418 111.597L73.7675 115.887C72.9654 133.846 81.3002 150.377 96.4352 161.083C101.527 164.675 108.711 167.988 114.779 169.557C121.684 171.301 131.588 171.824 138.109 170.777L141.352 170.254L153 177.752C162.521 183.855 164.892 185.25 165.903 185.25C167.473 185.25 168.519 184.239 168.519 182.704C168.519 182.077 167.019 177.09 165.206 171.649L161.893 161.71L162.66 161.187C163.079 160.908 164.613 159.723 166.078 158.537C176.191 150.342 182.956 138.554 184.874 125.721C185.746 119.932 185.188 110.69 183.654 105.041C178.144 85.0933 161.021 69.9582 139.574 66.1221C133.785 65.0759 124.474 65.1108 118.964 66.2268L118.022 66.4011L118.196 62.1117C118.789 48.9295 114.535 36.5843 105.886 26.2269C102.573 22.2513 99.7831 19.9496 98.3184 19.9496C96.784 19.9496 95.6332 21.1353 95.6332 22.7395C95.6332 23.716 96.0168 24.2391 98.0046 26.192C107.944 35.8868 113.209 48.5808 112.617 61.4491C111.256 90.5336 83.2879 111.527 52.9829 106.227C51.2741 105.948 49.5653 105.808 49.1817 105.948C48.7981 106.052 44.7179 108.598 40.1146 111.562C35.5113 114.492 31.6752 116.863 31.6054 116.793C31.5357 116.724 32.5819 113.376 33.9419 109.365C36.8713 100.577 36.8713 100.717 33.384 98.3452C23.3753 91.5449 16.4355 81.8501 13.5061 70.5162C12.3553 66.0175 11.9368 58.2058 12.6342 53.4631C15.3544 34.3175 29.8617 18.8337 49.9489 13.6375C55.4938 12.2077 65.084 11.859 70.9079 12.8354C75.2322 13.5678 79.4519 14.8232 82.9043 16.3577C87.3681 18.3106 88.1354 18.4849 89.2513 17.648C90.4719 16.7064 90.7857 14.6488 89.8093 13.6026C88.0656 11.6497 78.1964 8.267 71.152 7.22079C67.002 6.59308 57.5164 6.59308 53.6106 7.22079ZM136.61 71.3532C145.119 72.6784 151.675 75.1544 158.231 79.5136C162.207 82.1639 164.683 84.2912 167.821 87.7786C172.355 92.8352 175.284 97.8221 177.377 104.03C181.178 115.468 180.376 127.674 175.075 138.345C171.657 145.18 165.589 152.19 159.382 156.479C157.568 157.735 156.174 158.955 155.929 159.513C155.581 160.315 155.86 161.431 158.057 167.988C159.452 172.138 160.498 175.59 160.463 175.625C160.393 175.695 156.487 173.254 151.779 170.22C142.189 164.012 142.956 164.291 137.307 165.198C133.61 165.791 125.938 165.895 122.381 165.337C111.187 163.663 101.457 158.921 93.7151 151.388C88.519 146.366 84.8573 140.926 82.3464 134.579C79.7308 128.057 78.6498 119.234 79.6262 112.643L80.0098 110.063L82.3115 109.261C86.1476 107.935 90.7857 105.564 94.8311 102.879C99.5739 99.7053 106.095 93.2886 109.164 88.7899C111.814 84.8492 114.744 78.9207 115.86 75.1892L116.732 72.3296L119.87 71.7716C124.195 71.0044 124.543 70.9696 129.286 70.9347C131.588 70.8998 134.901 71.109 136.61 71.3532Z" fill="#333333"/>
</g>
<g clip-path="url(#clip1_684_16881)">
<path d="M121.11 125.464C124.672 122.496 127.05 117.514 122.026 110.149C116.962 102.725 109.423 100.865 103.537 101.553C102.085 101.723 100.868 102.738 100.448 104.127C98.7426 109.763 99.2788 117.459 105.762 123.7C112.194 129.892 117.548 128.432 121.11 125.464Z" fill="#EDA751"/>
<path d="M100.211 104.989C98.813 110.531 99.6033 117.771 105.762 123.7C111.337 129.067 116.101 128.683 119.591 126.554C117.191 110.372 106.705 106.081 100.211 104.989Z" fill="#FF91AB"/>
<path d="M143.265 125.464C139.703 122.496 137.325 117.514 142.349 110.149C147.413 102.725 154.953 100.865 160.839 101.553C162.29 101.723 163.507 102.738 163.928 104.127C165.633 109.763 165.096 117.459 158.613 123.7C152.181 129.892 146.827 128.432 143.265 125.464Z" fill="#EDA751"/>
<path d="M164.164 104.989C165.562 110.531 164.772 117.771 158.613 123.7C153.038 129.067 148.274 128.683 144.784 126.554C147.184 110.372 157.67 106.081 164.164 104.989Z" fill="#FF91AB"/>
<path d="M163.178 129.943C163.178 144.013 149.303 150.176 132.187 150.176C115.072 150.176 101.197 144.013 101.197 129.943C101.197 115.872 115.072 104.466 132.187 104.466C149.303 104.466 163.178 115.873 163.178 129.943Z" fill="#FFDC9C"/>
<path opacity="0.15" d="M115.64 108.4C106.961 112.915 101.197 120.875 101.197 129.943C101.197 142.039 111.45 148.29 125.201 149.807C105.462 138.099 108.036 122.351 115.64 108.4Z" fill="#C17A00"/>
<path d="M116.98 134.973C120.079 134.973 122.592 132.986 122.592 130.536C122.592 128.086 120.079 126.1 116.98 126.1C113.881 126.1 111.368 128.086 111.368 130.536C111.368 132.986 113.881 134.973 116.98 134.973Z" fill="#FF91AB"/>
<path d="M147.395 134.973C150.494 134.973 153.006 132.986 153.006 130.536C153.006 128.086 150.494 126.1 147.395 126.1C144.296 126.1 141.783 128.086 141.783 130.536C141.783 132.986 144.296 134.973 147.395 134.973Z" fill="#FF91AB"/>
<path d="M148.918 130.886C150.37 130.696 153.73 130.939 155 131.254C155.103 131.28 155.206 131.292 155.307 131.292C155.878 131.292 156.398 130.905 156.541 130.326C156.711 129.643 156.295 128.953 155.613 128.784C154.066 128.4 150.381 128.126 148.587 128.362C147.89 128.453 147.399 129.092 147.49 129.79C147.582 130.486 148.22 130.976 148.918 130.886ZM145.397 126.11V124.142C145.397 123.439 144.827 122.869 144.125 122.869C143.422 122.869 142.852 123.439 142.852 124.142V126.11C142.852 126.813 143.422 127.383 144.125 127.383C144.827 127.383 145.397 126.813 145.397 126.11ZM146.382 133.452C146.203 134.131 146.609 134.828 147.289 135.007C148.704 135.38 151.716 136.876 152.769 137.648C152.995 137.814 153.259 137.894 153.52 137.894C153.912 137.894 154.298 137.714 154.548 137.373C154.963 136.806 154.84 136.01 154.273 135.594C152.99 134.654 149.687 133.007 147.937 132.545C147.258 132.366 146.561 132.772 146.382 133.452ZM165.146 103.758C164.577 101.88 162.945 100.518 160.986 100.289C155.069 99.5957 149.245 101.431 144.875 105.333C140.917 103.931 136.62 103.193 132.188 103.193C127.755 103.193 123.459 103.931 119.5 105.333C115.13 101.432 109.305 99.5977 103.389 100.289C101.431 100.518 99.7978 101.88 99.2295 103.758C97.4448 109.658 98.3796 115.877 101.784 120.944C100.562 123.793 99.9242 126.826 99.9242 129.943C99.9242 138.172 104.397 144.436 112.859 148.057C113.505 148.333 114.253 148.034 114.53 147.388C114.806 146.741 114.507 145.993 113.86 145.717C110.24 144.167 107.435 142.094 105.522 139.555C103.497 136.867 102.47 133.633 102.47 129.943C102.47 116.597 115.801 105.739 132.188 105.739C148.574 105.739 161.906 116.597 161.906 129.943C161.906 136.13 159.063 140.94 153.456 144.238C148.269 147.29 140.915 148.903 132.187 148.903C127.527 148.903 123.237 148.442 119.435 147.531C118.752 147.368 118.065 147.79 117.901 148.473C117.738 149.157 118.159 149.844 118.843 150.007C122.838 150.964 127.328 151.449 132.187 151.449C141.368 151.449 149.169 149.714 154.746 146.433C161.095 142.698 164.451 136.996 164.451 129.943C164.451 126.826 163.813 123.793 162.591 120.944C165.995 115.877 166.93 109.658 165.146 103.758ZM109.466 110.945C106.828 113.113 104.7 115.592 103.128 118.283C100.569 113.74 100.687 109.305 101.195 106.477C103.768 107.044 107.001 108.202 109.961 110.547C109.795 110.678 109.629 110.81 109.466 110.945ZM112.096 109.005C108.672 106.104 104.876 104.698 101.869 104.019C102.239 103.362 102.909 102.908 103.684 102.817C106.021 102.544 111.67 102.417 116.819 106.408C115.165 107.152 113.585 108.02 112.096 109.005ZM147.556 106.408C152.704 102.418 158.353 102.544 160.69 102.817C161.466 102.908 162.136 103.362 162.506 104.019C159.499 104.698 155.703 106.104 152.278 109.005C150.789 108.02 149.21 107.152 147.556 106.408ZM161.247 118.283C159.674 115.592 157.547 113.113 154.909 110.945C154.746 110.81 154.58 110.678 154.413 110.547C157.374 108.202 160.607 107.044 163.18 106.476C163.688 109.305 163.806 113.74 161.247 118.283ZM115.457 130.886C116.153 130.976 116.793 130.486 116.885 129.789C116.976 129.092 116.485 128.453 115.788 128.362C113.993 128.127 110.308 128.4 108.762 128.783C108.08 128.953 107.664 129.643 107.833 130.326C107.977 130.905 108.497 131.292 109.068 131.292C109.169 131.292 109.272 131.28 109.375 131.254C110.645 130.939 114.005 130.696 115.457 130.886ZM120.25 127.383C120.953 127.383 121.523 126.813 121.523 126.11V124.142C121.523 123.439 120.953 122.869 120.25 122.869C119.547 122.869 118.978 123.439 118.978 124.142V126.11C118.978 126.813 119.547 127.383 120.25 127.383ZM117.993 133.452C117.813 132.772 117.117 132.366 116.438 132.545C114.688 133.007 111.385 134.654 110.102 135.594C109.535 136.01 109.412 136.806 109.828 137.373C110.077 137.714 110.463 137.894 110.855 137.894C111.116 137.894 111.38 137.814 111.606 137.648C112.659 136.876 115.671 135.38 117.086 135.007C117.766 134.828 118.172 134.131 117.993 133.452Z" fill="#333333"/>
<path d="M133.234 132.683C133.134 132.688 133.033 132.691 132.932 132.69C131.318 132.685 129.786 131.982 128.729 130.76C128.269 130.229 128.326 129.425 128.857 128.965C129.389 128.505 130.192 128.562 130.653 129.093C131.229 129.759 132.062 130.142 132.94 130.145C133.816 130.147 134.653 129.769 135.233 129.108C135.696 128.579 136.5 128.526 137.029 128.99C137.557 129.453 137.61 130.258 137.147 130.786C136.148 131.925 134.736 132.606 133.234 132.683Z" fill="#333333"/>
</g>
<g clip-path="url(#clip2_684_16881)">
<path d="M91.7102 43.7016C91.7392 43.7513 91.7305 43.8178 91.6882 43.8612C89.2752 46.3357 87.9237 49.6658 87.9237 53.1325V64.7611C87.9237 67.8979 85.3943 70.4507 82.2578 70.4507C82.2578 63.8262 82.2615 60.3645 82.2602 58.5035C82.2593 57.3286 81.1294 56.4843 80.0117 56.8297C76.4985 57.9155 72.4003 58.4751 68.0934 57.5348C60.5142 55.8799 58.3677 52.8961 52.1854 51.4053C45.2774 49.7416 39.0123 55.0568 39.0559 61.8562C39.0689 64.0913 39.106 66.8846 39.1104 70.4507C36.0039 70.4507 33.6624 67.9846 33.6624 65.0786V55.9806C33.5927 52.8129 33.7365 41.6418 41.7689 33.8639C51.108 24.8204 65.9105 25.5608 76.6303 30.3992C76.9792 30.5566 76.9698 31.0581 76.6161 31.2043L73.82 32.3606C73.4021 32.5336 73.4901 33.1524 73.9395 33.2008L75.2975 33.3472C82.6028 34.1318 88.68 38.5107 91.7102 43.7016Z" fill="#DDAF89"/>
<path d="M80.0115 56.8296C81.1292 56.4841 82.2591 57.3276 82.26 58.5023C82.2615 60.4276 82.2576 64.0648 82.2576 71.1357C82.2576 80.1702 76.7552 87.9131 68.9319 91.1662C54.7854 97.0652 39.1099 86.5856 39.1099 71.1357C39.1099 67.1403 39.0698 64.3017 39.0554 61.856C39.0119 55.0566 45.277 49.7414 52.185 51.4052C58.3673 52.8959 60.5138 55.8797 68.0929 57.5347C72.4001 58.4749 76.4985 57.9154 80.0115 56.8296Z" fill="#FFDFBA"/>
<path d="M76.6159 31.2042C74.5614 32.0529 74.1066 32.352 73.163 32.1959C55.8719 29.3365 42.2564 38.4187 40.3937 56.1666C40.361 56.4781 40.2814 56.7839 40.1439 57.065C38.8179 59.7769 39.0537 61.7838 39.0818 65.1205C39.1112 68.6308 33.8455 68.8556 33.669 65.3497C33.6578 65.1308 33.6622 65.7078 33.6622 55.9807C33.5925 52.813 33.7363 41.642 41.7687 33.864C51.1087 24.8207 65.9096 25.5607 76.6312 30.3986C76.9798 30.5562 76.969 31.0576 76.6159 31.2042Z" fill="#CB8B56"/>
<path d="M55.802 85.1331C59.3477 87.3605 56.5494 92.8265 52.6683 91.262C44.6976 88.0486 39.1104 80.2419 39.1104 71.1363C39.1104 67.1361 39.0703 64.3119 39.0559 61.8566C39.0422 59.6585 39.687 57.6158 40.7997 55.914C42.1983 53.775 45.5749 54.7071 45.5934 57.4784C45.6078 59.942 45.6479 62.7537 45.6479 66.758C45.6477 74.7477 49.8291 81.3807 55.802 85.1331Z" fill="#FFEBD2"/>
<path d="M84.0011 71.1359C84.0011 86.699 69.0527 98.0288 54.1094 93.6101C52.716 93.2078 51.9754 92.8802 50.66 92.2819C43.0503 88.6267 37.7096 80.946 37.3847 72.001C34.2525 71.2449 31.9191 68.4292 31.9191 65.0788V56.0001C31.5519 38.8868 41.7406 25.8287 59.1461 25.151C66.0262 24.885 73.2558 26.6901 78.324 29.2617C79.4292 29.8232 79.6171 31.3436 78.6622 32.1619C84.5649 33.608 89.7369 37.2135 93.2127 42.813C93.6252 43.4818 93.5527 44.4533 92.9613 45.0553C90.8368 47.2202 89.6668 50.0888 89.6668 53.1323V65.0784C89.6668 66.0455 88.8862 66.8297 87.9234 66.8297C86.9607 66.8297 86.1801 66.0455 86.1801 65.0784V53.1323C86.1801 49.6216 87.3739 46.2893 89.567 43.6123C86.2254 38.8115 81.0098 35.722 75.1121 35.0876L72.0477 34.7579C70.2538 34.5649 69.906 32.0848 71.5698 31.3972L72.9634 30.821C63.3162 27.443 50.9086 27.4458 42.9784 35.1248C35.8804 41.9982 35.3175 51.9725 35.4049 55.9421C35.4055 55.9819 35.4053 65.0385 35.4053 65.0786C35.4053 66.4656 36.199 67.6714 37.3596 68.2793C37.3474 65.7675 37.323 63.7281 37.3112 61.866C37.2626 53.8595 44.6483 47.7882 52.5918 49.7024C61.3776 51.8191 63.9638 56.5706 73.2942 56.1299C74.2611 56.0896 75.0722 56.8311 75.1173 57.7971C75.1624 58.7634 74.4193 59.5832 73.4576 59.6285C63.1079 60.1128 59.8535 55.0533 51.7788 53.1082C46.0534 51.7295 40.7626 56.0968 40.7979 61.8444C40.8116 64.1353 40.8535 67.1904 40.8535 71.1357C40.8535 82.1202 49.7493 91.0567 60.684 91.0567C71.6186 91.0567 80.5145 82.1202 80.5145 71.1357C80.5145 56.9981 80.5284 56.6507 80.4894 56.2536C80.2578 53.8245 83.7298 53.4962 83.9593 55.9101C84.0192 56.5191 84.0011 56.2827 84.0011 71.1359Z" fill="#333333"/>
<path d="M74.1196 77.3814H70.8822C70.1645 77.3814 69.583 76.6755 69.583 75.8047C69.583 74.934 70.1645 74.228 70.8822 74.228H74.1196C74.8373 74.228 75.4188 74.934 75.4188 75.8047C75.4188 76.6755 74.8373 77.3814 74.1196 77.3814Z" fill="#FF91AB"/>
<path d="M46.6413 77.3814H49.8788C50.5964 77.3814 51.1779 76.6755 51.1779 75.8047C51.1779 74.934 50.5964 74.228 49.8788 74.228H46.6413C45.9237 74.228 45.3422 74.934 45.3422 75.8047C45.3422 76.6755 45.9237 77.3814 46.6413 77.3814Z" fill="#FF91AB"/>
<path d="M64.6589 75.5796C63.9226 75.5796 63.326 76.1603 63.326 76.8766C63.326 78.4571 62.0045 79.7429 60.3805 79.7429C58.7565 79.7429 57.4349 78.4571 57.4349 76.8766C57.4349 76.1603 56.8383 75.5796 56.1021 75.5796C55.3658 75.5796 54.7692 76.1603 54.7692 76.8766C54.7692 79.8874 57.2864 82.3369 60.3805 82.3369C63.4746 82.3369 65.9918 79.8874 65.9918 76.8766C65.9918 76.1601 65.3952 75.5796 64.6589 75.5796Z" fill="#333333"/>
<path d="M50.5046 65.6689C49.6367 65.6689 48.9334 66.2593 48.9334 66.9874V70.6573C48.9334 71.3854 49.6367 71.9758 50.5046 71.9758C51.3725 71.9758 52.0757 71.3854 52.0757 70.6573V66.9874C52.0757 66.2593 51.3725 65.6689 50.5046 65.6689Z" fill="#333333"/>
<path d="M70.0319 65.6689C69.288 65.6689 68.6852 66.2593 68.6852 66.9874V70.6573C68.6852 71.3854 69.288 71.9758 70.0319 71.9758C70.7759 71.9758 71.3786 71.3854 71.3786 70.6573V66.9874C71.3786 66.2593 70.7759 65.6689 70.0319 65.6689Z" fill="#333333"/>
</g>
</g>
<defs>
<filter id="filter0_d_684_16881" x="-3.25" y="0.75" width="198.537" height="198.5" filterUnits="userSpaceOnUse" color-interpolation-filters="sRGB">
<feFlood flood-opacity="0" result="BackgroundImageFix"/>
<feColorMatrix in="SourceAlpha" type="matrix" values="0 0 0 0 0 0 0 0 0 0 0 0 0 0 0 0 0 0 127 0" result="hardAlpha"/>
<feOffset dy="4"/>
<feGaussianBlur stdDeviation="5"/>
<feComposite in2="hardAlpha" operator="out"/>
<feColorMatrix type="matrix" values="0 0 0 0 0 0 0 0 0 0 0 0 0 0 0 0 0 0 0.15 0"/>
<feBlend mode="normal" in2="BackgroundImageFix" result="effect1_dropShadow_684_16881"/>
<feBlend mode="normal" in="SourceGraphic" in2="effect1_dropShadow_684_16881" result="shape"/>
</filter>
<clipPath id="clip0_684_16881">
<rect width="192" height="192" fill="white"/>
</clipPath>
<clipPath id="clip1_684_16881">
<rect width="67.875" height="52.5" fill="white" transform="translate(98.25 99)"/>
</clipPath>
<clipPath id="clip2_684_16881">
<rect width="61.5" height="69.375" fill="white" transform="translate(31.875 25.125)"/>
</clipPath>
</defs>
</svg>
