<svg width="66" height="66" viewBox="0 0 66 66" fill="none" xmlns="http://www.w3.org/2000/svg">
<g clip-path="url(#clip0_716_17481)">
<path d="M52.0121 60.0548C51.1519 60.0548 50.3094 59.9313 49.5418 59.7235C45.6375 58.667 43.9305 55.7982 42.5588 53.493C41.3427 51.4495 40.5161 50.1707 38.9098 49.6516C37.8997 49.3252 37.3454 48.2416 37.6718 47.2315C37.9983 46.2212 39.0816 45.6674 40.092 45.9934C43.1598 46.9847 44.5957 49.3978 45.8627 51.5271C47.0873 53.5853 48.1451 55.3628 50.546 56.0126C52.3803 56.5086 53.9496 56.1058 54.7451 54.9346C55.3829 53.9952 55.3523 52.7963 54.6673 51.8801C54.0317 51.0299 54.2055 49.8252 55.0557 49.1896C55.9064 48.554 57.1105 48.7277 57.7462 49.578C59.4282 51.8274 59.4986 54.7777 57.9255 57.0942C56.4439 59.276 54.1719 60.0548 52.0121 60.0548Z" fill="#EDA751"/>
<path d="M57.7459 49.5779C57.1103 48.7276 55.9061 48.5538 55.0554 49.1895C54.2052 49.8251 54.0314 51.0297 54.667 51.88C54.9359 52.2397 55.1023 52.6429 55.1689 53.0568C56.4107 52.9131 57.4613 52.7943 58.7905 51.6429C58.5738 50.9184 58.2257 50.2196 57.7459 49.5779Z" fill="#FCD79D"/>
<path d="M27.0497 65.0331C25.4759 65.0331 24.1344 63.8313 23.9904 62.2335C23.4994 56.7873 23.8985 53.2685 25.3249 50.4674C26.0958 48.9537 27.9474 48.3517 29.4613 49.1224C30.9749 49.8933 31.577 51.7451 30.8063 53.2586C29.955 54.9305 29.7422 57.5281 30.1165 61.6813C30.2691 63.3731 29.0213 64.868 27.3297 65.0205C27.2356 65.0289 27.1421 65.0331 27.0497 65.0331Z" fill="#EDA751"/>
<path d="M37.5953 65.0331C37.5026 65.0331 37.4096 65.0289 37.3156 65.0205C35.6238 64.868 34.3763 63.3729 34.5288 61.6813C34.9031 57.5281 34.6904 54.9304 33.839 53.2586C33.0681 51.745 33.6704 49.8933 35.184 49.1224C36.6974 48.3517 38.5493 48.9537 39.3203 50.4674C40.7468 53.2685 41.146 56.7874 40.6549 62.2335C40.5108 63.8313 39.169 65.0331 37.5953 65.0331Z" fill="#EDA751"/>
<path d="M17.5273 56.0608C17.272 56.0608 17.0124 56.0287 16.7538 55.9618C15.1095 55.5358 14.1218 53.8576 14.5477 52.2134C15.1701 49.8114 15.6108 47.6477 15.9997 45.7385C16.4715 43.4225 16.8442 41.5934 17.3723 40.1416C17.953 38.5454 19.718 37.7221 21.314 38.3029C22.9102 38.8838 23.7334 40.6485 23.1527 42.2446C22.7804 43.268 22.4312 44.9818 22.027 46.9663C21.6229 48.9496 21.165 51.1975 20.5023 53.756C20.1434 55.1415 18.8952 56.0608 17.5273 56.0608Z" fill="#EDA751"/>
<path opacity="0.2" d="M40.0919 45.9937C39.0815 45.6676 37.9982 46.2215 37.6717 47.2318C37.3454 48.2421 37.8997 49.3255 38.9097 49.6519C40.5161 50.1709 41.3428 51.4498 42.5588 53.4933C42.6637 53.6696 42.7709 53.8495 42.8805 54.0313C43.9216 53.1782 44.8446 52.2017 45.6231 51.1261C44.4101 49.1025 42.9683 46.9231 40.0919 45.9937Z" fill="#A35F00"/>
<path opacity="0.2" d="M39.3198 50.4675C38.5488 48.9536 36.6967 48.3516 35.1835 49.1225C33.6698 49.8933 33.0677 51.7452 33.8385 53.2587C34.3663 54.2952 34.6484 55.6882 34.6976 57.5866C36.8792 57.282 38.9188 56.5646 40.7232 55.5223C40.5144 53.5383 40.0533 51.9075 39.3198 50.4675Z" fill="#A35F00"/>
<path opacity="0.2" d="M29.4606 49.1224C27.9468 48.3517 26.0953 48.9537 25.3244 50.4674C24.591 51.9075 24.1299 53.5383 23.9209 55.5223C25.7253 56.5648 27.7649 57.2821 29.9465 57.5866C29.9956 55.6882 30.2778 54.2954 30.8056 53.2587C31.5765 51.745 30.9742 49.8931 29.4606 49.1224Z" fill="#A35F00"/>
<path opacity="0.2" d="M21.3137 38.3029C19.7177 37.7221 17.9527 38.5454 17.3721 40.1416C16.9736 41.2373 16.6634 42.5484 16.3325 44.1211C16.6799 47.5674 18.2707 50.6795 20.6797 53.0568C21.2482 50.7859 21.6599 48.7666 22.0268 46.9662C22.431 44.9817 22.7803 43.2679 23.1525 42.2445C23.7331 40.6485 22.9098 38.8836 21.3137 38.3029Z" fill="#A35F00"/>
<path d="M32.3224 55.8745C40.1569 55.8745 46.5081 49.9729 46.5081 42.6929C46.5081 35.4129 40.1569 29.5112 32.3224 29.5112C24.4879 29.5112 18.1367 35.4129 18.1367 42.6929C18.1367 49.9729 24.4879 55.8745 32.3224 55.8745Z" fill="#FCD690"/>
<path opacity="0.15" d="M46.4857 43.424C45.6944 43.5875 44.9505 43.6701 44.3431 43.6135C41.572 43.3553 36.8348 40.5646 35.7809 38.1602C35.2293 40.6883 36.6379 47.7662 44.826 48.9229C45.7819 47.2697 46.3692 45.4052 46.4857 43.424Z" fill="#C17A00"/>
<path opacity="0.15" d="M46.2873 40.3671C45.1049 34.1967 39.3024 29.512 32.3224 29.512C24.488 29.512 18.1372 35.4134 18.1372 42.6932C18.1372 49.3191 23.3988 54.8025 30.251 55.7342C29.107 54.9831 28.2282 54.0927 27.5616 53.1149C27.4005 52.8785 27.6443 52.5784 27.9096 52.6856C28.9078 53.0891 29.9985 53.3118 31.1413 53.3118C34.8683 53.3118 38.0426 50.9518 39.2551 47.6451C39.4941 46.9935 40.0065 46.4738 40.6657 46.2567C43.3902 45.3599 45.5149 43.1453 46.2873 40.3671Z" fill="#C17A00"/>
<path d="M23.6895 19.8374C26.4651 17.5082 28.3185 13.5984 24.4034 7.8185C20.4573 1.99287 14.5822 0.532623 9.99548 1.073C8.86459 1.20616 7.91584 2.00241 7.58829 3.09295C6.25966 7.51609 6.67744 13.5556 11.7293 18.4534C16.7416 23.3126 20.9139 22.1664 23.6895 19.8374Z" fill="#EDA751"/>
<path d="M7.40352 3.76953C6.31427 8.11842 6.93018 13.8005 11.7292 18.4531C16.0736 22.6649 19.7863 22.3639 22.5062 20.6928C20.6357 7.9939 12.464 4.6265 7.40352 3.76953Z" fill="#FF91AB"/>
<path d="M40.955 19.8374C38.1792 17.5082 36.3259 13.5984 40.2411 7.8185C44.1873 1.99299 50.0623 0.532617 54.6491 1.07299C55.78 1.20615 56.7288 2.0024 57.0563 3.09294C58.3849 7.51609 57.967 13.5556 52.9153 18.4534C47.903 23.3126 43.7307 22.1664 40.955 19.8374Z" fill="#EDA751"/>
<path d="M57.2409 3.76953C58.3302 8.11842 57.7142 13.8005 52.9152 18.4531C48.5708 22.6649 44.8581 22.3639 42.1382 20.6928C44.0089 7.9939 52.1805 4.6265 57.2409 3.76953Z" fill="#FF91AB"/>
<path d="M56.472 23.3525C56.472 34.3946 45.6596 39.2309 32.3219 39.2309C18.9841 39.2309 8.17188 34.3947 8.17188 23.3525C8.17188 12.3105 18.9842 3.35913 32.3221 3.35913C45.66 3.35913 56.472 12.3105 56.472 23.3525Z" fill="#FFDC9C"/>
<path opacity="0.15" d="M19.427 6.44604C12.6635 9.98915 8.17188 16.2363 8.17188 23.3527C8.17188 32.8448 16.162 37.7509 26.8778 38.9414C11.4955 29.7531 13.5016 17.3941 19.427 6.44604Z" fill="#C17A00"/>
<path d="M20.4712 27.3006C22.8862 27.3006 24.8439 25.7419 24.8439 23.819C24.8439 21.8962 22.8862 20.3374 20.4712 20.3374C18.0563 20.3374 16.0986 21.8962 16.0986 23.819C16.0986 25.7419 18.0563 27.3006 20.4712 27.3006Z" fill="#FF91AB"/>
<path d="M44.1724 27.3006C46.5873 27.3006 48.545 25.7419 48.545 23.819C48.545 21.8962 46.5873 20.3374 44.1724 20.3374C41.7575 20.3374 39.7998 21.8962 39.7998 23.819C39.7998 25.7419 41.7575 27.3006 44.1724 27.3006Z" fill="#FF91AB"/>
<path d="M47.7843 36.7859C47.7843 33.0871 45.4599 29.932 42.1925 28.6992C41.4749 28.4285 40.957 27.7972 40.8179 27.0429C40.0765 23.0238 36.556 19.9788 32.3225 19.9788C28.0888 19.9788 24.5683 23.0236 23.8269 27.0429C23.6878 27.7972 23.1699 28.4285 22.4523 28.6992C19.1848 29.932 16.8604 33.0869 16.8604 36.7859C16.8604 40.6139 19.35 43.8589 22.7981 44.9938C23.4519 45.209 23.965 45.7112 24.2 46.3582C25.4059 49.6775 28.5864 52.049 32.3226 52.049C36.0585 52.049 39.2393 49.6775 40.4452 46.3582C40.6802 45.7113 41.1932 45.2091 41.8471 44.9938C45.2946 43.8588 47.7843 40.6139 47.7843 36.7859Z" fill="#495059"/>
<path opacity="0.15" d="M41.8468 44.9938C42.7898 44.6834 43.6606 44.2142 44.429 43.6192C44.4005 43.6171 44.371 43.6163 44.343 43.6138C41.5719 43.3556 36.8348 40.5649 35.7808 38.1604C35.3605 40.0873 36.0794 44.6567 40.0702 47.2336C40.2104 46.9501 40.3361 46.6581 40.445 46.358C40.6799 45.7112 41.1929 45.209 41.8468 44.9938Z" fill="#151515"/>
<path d="M32.3222 27.3276C31.1028 27.3276 29.9433 26.7995 29.1408 25.8787C28.79 25.4762 28.8319 24.8655 29.2345 24.5146C29.6369 24.1638 30.2475 24.2057 30.5986 24.6082C31.0337 25.1076 31.662 25.394 32.3223 25.394C32.9825 25.394 33.6108 25.1076 34.046 24.6082C34.3969 24.2057 35.0075 24.1638 35.4101 24.5146C35.8127 24.8655 35.8544 25.4762 35.5038 25.8787C34.7008 26.7995 33.5413 27.3276 32.3222 27.3276Z" fill="white"/>
<path d="M45.5187 46.6011C44.4043 46.6011 43.2576 46.3825 42.114 45.942C39.0841 44.7749 36.4205 42.1592 35.7808 39.7224C35.3494 38.0795 36.3316 36.3982 37.9746 35.9669C39.6001 35.5397 41.2645 36.4981 41.7166 38.1107C41.9261 38.5758 43.1239 39.8419 44.6035 40.2991C45.6694 40.6284 46.2709 40.3541 46.6305 40.1191C48.0523 39.1902 49.9583 39.5895 50.8874 41.0115C51.8165 42.4334 51.4169 44.3392 49.9949 45.2683C48.6396 46.1538 47.1124 46.6011 45.5187 46.6011ZM41.7299 38.1593C41.73 38.1597 41.73 38.1599 41.7302 38.1603C41.73 38.1601 41.7299 38.1597 41.7299 38.1593Z" fill="#EDA751"/>
<path d="M42.5914 20.3447V18.8005C42.5914 18.2666 42.1586 17.8338 41.6246 17.8338C41.0906 17.8338 40.6578 18.2666 40.6578 18.8005V20.3447C40.6578 20.8786 41.0906 21.3115 41.6246 21.3115C42.1587 21.3115 42.5914 20.8785 42.5914 20.3447ZM43.4086 26.1127C43.2715 26.6287 43.5788 27.1582 44.095 27.2952C45.1996 27.5883 47.5507 28.7646 48.3727 29.3712C48.5456 29.4987 48.7467 29.5602 48.9461 29.5602C49.2426 29.5602 49.5351 29.4243 49.7247 29.1675C50.0418 28.7379 49.9505 28.1326 49.521 27.8156C48.5228 27.0787 45.9528 25.7878 44.591 25.4263C44.0749 25.2897 43.5455 25.597 43.4086 26.1127ZM45.3574 24.0607C46.4906 23.911 49.1125 24.1024 50.1035 24.3502C50.1822 24.3698 50.2611 24.3793 50.3387 24.3793C50.7718 24.3792 51.166 24.0861 51.2759 23.6468C51.4054 23.1287 51.0904 22.6039 50.5724 22.4744C49.3689 22.1735 46.5009 21.9591 45.1041 22.1437C44.5748 22.2137 44.2024 22.6996 44.2722 23.2288C44.3422 23.7581 44.8285 24.13 45.3574 24.0607ZM20.0538 25.4266C18.6918 25.7881 16.1218 27.0791 15.1238 27.8158C14.6942 28.1329 14.603 28.7383 14.9201 29.1678C15.1098 29.4247 15.4022 29.5604 15.6987 29.5604C15.8981 29.5604 16.0994 29.499 16.2721 29.3715C17.094 28.7647 19.445 27.5886 20.5497 27.2954C21.0658 27.1584 21.3732 26.629 21.2361 26.113C21.0991 25.597 20.5699 25.2897 20.0538 25.4266ZM23.0201 21.3114C23.5541 21.3114 23.9869 20.8785 23.9869 20.3446V18.8004C23.9869 18.2665 23.5541 17.8336 23.0201 17.8336C22.486 17.8336 22.0533 18.2665 22.0533 18.8004V20.3446C22.0534 20.8785 22.486 21.3114 23.0201 21.3114ZM58.5207 48.999C57.5669 47.7235 55.7531 47.4616 54.4772 48.4152C53.8589 48.8774 53.4579 49.5524 53.3476 50.3163C53.2374 51.0801 53.4311 51.841 53.8932 52.459C54.3344 53.0489 54.3543 53.7893 53.9456 54.3914C53.3924 55.2057 52.2158 55.4628 50.7987 55.0795C48.7757 54.5321 47.857 52.9878 46.6937 51.0327C46.3863 50.5163 46.0474 49.9473 45.6715 49.3823C46.0204 48.7782 46.3221 48.1511 46.5727 47.5063C47.9788 47.344 49.3282 46.8587 50.5239 46.0773C51.4278 45.4866 52.0476 44.5794 52.2692 43.5226C52.4909 42.4658 52.2876 41.386 51.6968 40.4822C50.9731 39.3744 49.7944 38.7389 48.5656 38.6604C48.6806 38.0806 48.7422 37.4899 48.7487 36.8922C54.4376 33.9846 57.4392 29.3149 57.4392 23.3522C57.4392 20.9043 56.9408 18.5226 55.9853 16.2861C58.6407 12.3163 59.3713 7.4397 57.982 2.8143C57.5428 1.35161 56.2788 0.291098 54.7622 0.112306C50.1524 -0.430388 45.6158 1.01039 42.2135 4.07371C39.1282 2.97182 35.7781 2.39187 32.3223 2.39187C28.8664 2.39187 25.5163 2.97182 22.4311 4.07371C19.0289 1.01078 14.4922 -0.430388 9.8825 0.112692C8.36567 0.291356 7.10188 1.35199 6.66257 2.81456C5.27322 7.43982 6.00386 12.3165 8.65945 16.2866C7.70387 18.523 7.20552 20.9048 7.20552 23.3527C7.20552 26.9211 8.27247 30.0277 10.377 32.5861C10.7161 32.9985 11.3252 33.0577 11.7378 32.7186C12.1501 32.3795 12.2095 31.7701 11.8702 31.3578C10.0579 29.1544 9.13897 26.4612 9.13897 23.3525C9.13897 12.8611 19.539 4.32572 32.3224 4.32572C45.1059 4.32572 55.5057 12.8611 55.5057 23.3525C55.5057 28.3731 53.163 32.2209 48.5413 34.8094C47.8695 31.6523 45.6238 28.96 42.5338 27.7943C42.1399 27.6458 41.8466 27.2904 41.7685 26.8673C40.9288 22.3155 36.9562 19.0118 32.3223 19.0118C27.6884 19.0118 23.7158 22.3154 22.8761 26.8673C22.7981 27.2905 22.5048 27.6458 22.1109 27.7944C19.0211 28.9601 16.7751 31.6522 16.1034 34.8094C15.5176 34.48 14.965 34.1289 14.4526 33.7584C14.0199 33.4458 13.4156 33.5427 13.1026 33.9755C12.7897 34.4081 12.8869 35.0125 13.3196 35.3254C14.1038 35.8922 14.9686 36.4169 15.8956 36.8911C15.907 37.9479 16.0898 38.9715 16.4214 39.9316C15.892 41.4281 15.5198 43.251 15.051 45.5522C14.6648 47.4479 14.227 49.5963 13.6117 51.9708C13.0529 54.1286 14.3537 56.3385 16.5112 56.8976C16.8441 56.9839 17.1857 57.0275 17.527 57.0275C19.3676 57.0275 20.9759 55.7819 21.4381 53.9984C21.5398 53.6057 21.6391 53.2087 21.7374 52.8064C22.1884 53.218 22.6665 53.6036 23.1692 53.9605C22.761 56.1917 22.7158 58.8713 23.0269 62.3204C23.216 64.4182 24.9453 66 27.0491 66C27.1698 66 27.2928 65.9945 27.4157 65.9835C28.4911 65.8866 29.4644 65.3766 30.1562 64.5477C30.848 63.7187 31.1755 62.6699 31.0786 61.5947C30.9034 59.6495 30.862 58.0645 30.9532 56.7831C31.4042 56.821 31.8607 56.8415 32.322 56.8415C32.782 56.8415 33.2382 56.8207 33.6909 56.783C33.7821 58.0645 33.7408 59.6495 33.5654 61.5947C33.4685 62.67 33.7961 63.7188 34.4879 64.5478C35.1797 65.3768 36.153 65.8867 37.2293 65.9837C37.3514 65.9945 37.4745 66 37.595 66C39.331 66 40.8689 64.8944 41.4224 63.2491C41.5927 62.743 41.3204 62.1947 40.8142 62.0245C40.3084 61.854 39.7599 62.1265 39.5897 62.6325C39.2809 63.5503 38.3814 64.1447 37.4018 64.0578C36.8408 64.0073 36.3332 63.7412 35.9722 63.3089C35.6113 62.8764 35.4404 62.3293 35.491 61.7683C35.6813 59.6568 35.7206 57.9238 35.6092 56.507C37.0377 56.2131 38.4087 55.7271 39.6912 55.0576C39.8325 56.0927 39.8978 57.235 39.8861 58.519C39.8813 59.0529 40.3101 59.4898 40.8441 59.4945C40.8471 59.4945 40.85 59.4945 40.853 59.4945C41.3828 59.4945 41.8148 59.0675 41.8197 58.5366C41.8353 56.8145 41.7222 55.3125 41.4763 53.9663C41.5323 53.9265 41.5875 53.8857 41.6431 53.8453C41.6716 53.8929 41.7003 53.941 41.7284 53.9882C43.1121 56.3137 45.0073 59.4983 49.2891 60.6568C50.1837 60.8988 51.1 61.0217 52.0119 61.0217C54.859 61.0217 57.2431 59.8198 58.725 57.6375C60.5337 54.9745 60.4533 51.5839 58.5207 48.999ZM14.6291 8.47043C12.5653 10.1789 10.9025 12.1335 9.67703 14.2556C7.64831 10.6528 7.74924 7.13174 8.15143 4.89999C10.1727 5.34627 12.7207 6.26214 15.0492 8.13089C14.9079 8.24278 14.7678 8.3557 14.6291 8.47043ZM16.6642 6.95823C13.982 4.66564 11.0045 3.56118 8.65429 3.03151C8.94188 2.48636 9.48109 2.10699 10.1087 2.03287C13.8366 1.59382 17.5101 2.62893 20.4011 4.89162C19.0917 5.482 17.8415 6.17255 16.6642 6.95823ZM44.2436 4.89174C47.1346 2.62893 50.8083 1.59408 54.536 2.033C55.1636 2.10699 55.7028 2.48649 55.9904 3.03163C53.6402 3.56118 50.6629 4.6659 47.9805 6.95836C46.8032 6.17255 45.553 5.482 44.2436 4.89174ZM54.9678 14.2556C53.7423 12.1337 52.0794 10.1789 50.0156 8.47043C49.8771 8.3557 49.7368 8.24278 49.5957 8.13102C51.9241 6.26214 54.472 5.34652 56.4933 4.90012C56.8953 7.13174 56.9964 10.6528 54.9678 14.2556ZM50.0783 41.54C50.3864 42.0116 50.4924 42.5749 50.3767 43.1261C50.2611 43.6774 49.9378 44.1506 49.4661 44.4589C48.3547 45.1851 47.1267 45.5775 45.8121 45.6283C45.807 45.6287 45.8018 45.6287 45.7967 45.6291C45.7044 45.6324 45.6118 45.6343 45.5186 45.6343C44.5142 45.6343 43.4856 45.4343 42.4614 45.0398C39.7436 43.993 37.2736 41.6015 36.7158 39.4769C36.5728 38.932 36.6504 38.3642 36.9345 37.8778C37.2186 37.3915 37.6752 37.0448 38.2204 36.9018C38.3971 36.8552 38.575 36.833 38.7503 36.833C39.6725 36.833 40.5265 37.4464 40.7858 38.3715C40.7874 38.3767 40.7888 38.3818 40.7904 38.3869C40.7985 38.4205 40.8084 38.4538 40.8199 38.4863C40.8578 38.592 40.9123 38.6872 40.9793 38.7697C41.4888 39.5707 42.8036 40.7546 44.3181 41.2227C45.4106 41.5601 46.3399 41.4639 47.1589 40.9281C48.133 40.292 49.4424 40.5665 50.0783 41.54ZM22.7934 29.6036C23.8171 29.2174 24.5775 28.3034 24.7777 27.2182C25.448 23.5836 28.621 20.9455 32.3224 20.9455C36.0237 20.9455 39.1968 23.5836 39.8673 27.2184C40.0676 28.3036 40.8279 29.2176 41.8515 29.6036C44.8219 30.7243 46.8177 33.6105 46.8177 36.7859C46.8177 37.5775 46.6973 38.354 46.4612 39.1004C46.3391 39.1633 46.2192 39.233 46.1019 39.3097C45.9536 39.4068 45.6448 39.6088 44.8894 39.3755C43.7455 39.0219 42.8104 38.0574 42.6176 37.7467C41.9838 35.6978 39.8149 34.4841 37.7295 35.0318C36.685 35.306 35.81 35.9704 35.2653 36.9028C34.7207 37.8352 34.5718 38.9238 34.846 39.968C35.4102 42.1174 37.2632 44.3085 39.6392 45.7821C39.6018 45.8629 39.5667 45.9446 39.5362 46.0281C38.438 49.0511 35.539 51.0823 32.3223 51.0823C29.1056 51.0823 26.2066 49.0511 25.1083 46.0281C24.7697 45.096 24.0376 44.3843 23.1001 44.0756C21.3907 43.5129 19.9864 42.394 19.0576 40.9589C19.0358 40.9181 19.0104 40.8795 18.9831 40.8423C18.7403 40.4517 18.5327 40.0385 18.3628 39.6076C18.3586 39.596 18.3539 39.5847 18.3493 39.5733C18.011 38.7032 17.827 37.7618 17.827 36.786C17.8271 33.6105 19.8229 30.7243 22.7934 29.6036ZM19.5665 53.5134C19.3255 54.4441 18.4868 55.0941 17.5273 55.0941C17.3495 55.0941 17.1708 55.0711 16.9964 55.026C15.8708 54.7344 15.1923 53.5814 15.4837 52.4558C16.1117 50.0321 16.5549 47.8572 16.9476 45.9298C17.0611 45.3725 17.1688 44.8443 17.2741 44.3435C17.5885 46.8589 18.6117 49.175 20.1526 51.1122C19.9605 51.9453 19.7679 52.7368 19.5665 53.5134ZM28.6719 63.3089C28.311 63.7412 27.8034 64.0073 27.2431 64.0578C26.0536 64.1629 25.0572 63.3046 24.9527 62.1468C24.6922 59.2584 24.6903 56.9622 24.9518 55.0509C26.2134 55.7095 27.5854 56.2046 29.0349 56.5052C28.9234 57.9224 28.9626 59.6559 29.153 61.7684C29.2038 62.3293 29.0329 62.8764 28.6719 63.3089ZM40.2661 52.4563C38.534 53.6619 36.5518 54.4402 34.4455 54.7524C34.4354 54.7535 34.4255 54.7537 34.4155 54.7551C34.409 54.756 34.403 54.7576 34.3965 54.7587C33.7164 54.857 33.0237 54.908 32.3222 54.908C25.5219 54.908 19.9053 50.1381 19.1831 44.0288C20.1295 44.8534 21.2476 45.5012 22.4955 45.912C22.8661 46.0339 23.1561 46.3169 23.291 46.6881C24.6658 50.4727 28.2951 53.0156 32.322 53.0156C36.3489 53.0156 39.9784 50.4727 41.3532 46.6881C41.3546 46.6844 41.3566 46.6808 41.3581 46.6771C41.4934 46.7349 41.6293 46.7913 41.7664 46.8441C42.6637 47.1897 43.5692 47.4107 44.4696 47.5085C43.5627 49.4501 42.1043 51.1768 40.2661 52.4563ZM57.1258 56.5512C55.702 58.648 53.5594 59.0882 52.0124 59.0882C51.2812 59.0882 50.5144 58.9852 49.7946 58.7905C46.2687 57.8364 44.7395 55.2668 43.3899 52.999C43.3105 52.8656 43.2285 52.7285 43.1456 52.591C43.6282 52.1294 44.0751 51.6362 44.4865 51.1186C44.6733 51.4208 44.8545 51.7235 45.032 52.0216C46.3086 54.1674 47.5145 56.194 50.2937 56.9461C52.5439 57.5545 54.5073 57.0058 55.545 55.4777C56.4179 54.1919 56.3774 52.5527 55.4417 51.3013C55.2888 51.0969 55.2246 50.8451 55.2612 50.5926C55.2975 50.34 55.4302 50.1169 55.6345 49.9642C56.0568 49.6486 56.6567 49.7353 56.972 50.157C58.4034 52.0711 58.4637 54.581 57.1258 56.5512ZM19.5406 22.1437C18.1436 21.9594 15.2755 22.1736 14.0722 22.4744C13.5541 22.6038 13.2393 23.1288 13.3688 23.6468C13.4787 24.0861 13.8728 24.3793 14.306 24.3793C14.3838 24.3793 14.4627 24.3699 14.5413 24.3502C15.5321 24.1026 18.1539 23.911 19.2873 24.0607C19.8144 24.13 20.3023 23.7583 20.3725 23.2288C20.4423 22.6994 20.0699 22.2136 19.5406 22.1437Z" fill="#151515"/>
</g>
<defs>
<clipPath id="clip0_716_17481">
<rect width="66" height="66" fill="white"/>
</clipPath>
</defs>
</svg>
