<svg width="66" height="66" viewBox="0 0 66 66" fill="none" xmlns="http://www.w3.org/2000/svg">
<path d="M28.5188 60.7909C28.2771 60.7909 28.0314 60.7585 27.7871 60.6906C26.3371 60.2872 25.4886 58.785 25.8918 57.3349L27.2943 52.2918C27.6975 50.842 29.1993 49.9929 30.6501 50.3966C32.1002 50.8 32.9487 52.3023 32.5455 53.7523L31.143 58.7954C30.8075 60.0011 29.7121 60.7909 28.5188 60.7909Z" fill="#EDA751"/>
<path d="M47.366 54.8456C46.0991 54.8456 44.9 54.4868 43.745 53.7676C42.13 52.7619 40.8784 51.2295 39.5535 49.6069L39.457 49.4886C38.8619 48.7602 38.97 47.6871 39.6984 47.092C40.427 46.4968 41.4999 46.6051 42.095 47.3335L42.1918 47.4523C44.8201 50.6704 46.2097 52.17 49.0584 51.0843C54.7391 48.9205 58.4142 48.8865 61.7432 50.967C62.541 51.4655 62.7833 52.5164 62.2847 53.314C61.7862 54.1117 60.7355 54.3544 59.9377 53.8556C57.5982 52.3936 54.8882 52.5087 50.2709 54.2677C49.2603 54.6526 48.2949 54.8456 47.366 54.8456Z" fill="#EDA751"/>
<path d="M61.7436 50.9669C61.3342 50.711 60.9195 50.4875 60.4966 50.2957C59.7932 50.7742 58.9378 51.836 58.812 53.2874C59.2001 53.4384 59.5737 53.6278 59.938 53.8555C60.7359 54.3544 61.7865 54.1117 62.285 53.314C62.7837 52.5162 62.5413 51.4653 61.7436 50.9669Z" fill="#FCD79D"/>
<path d="M40.2619 65.0331C40.2194 65.0331 40.1765 65.0322 40.1334 65.0302C38.63 64.9604 37.4679 63.685 37.5375 62.1815C37.6554 59.641 37.3222 56.1026 36.5603 54.5788C35.8872 53.2325 36.4328 51.5957 37.7789 50.9225C39.1254 50.2495 40.7621 50.7952 41.4352 52.1412C42.8977 55.066 43.0955 59.9874 42.982 62.4341C42.9143 63.8948 41.7088 65.0331 40.2619 65.0331Z" fill="#EDA751"/>
<path d="M17.5291 50.0512C15.5712 50.0512 13.6678 49.3901 11.842 48.0717C10.6218 47.1907 10.3468 45.4872 11.2279 44.2669C12.1089 43.0467 13.8123 42.7717 15.0327 43.6528C17.6143 45.5168 19.5711 44.5349 23.2552 41.4653C24.4112 40.502 26.1298 40.6581 27.0934 41.8147C28.0568 42.971 27.9003 44.6895 26.7439 45.6529C24.9038 47.186 22.9096 48.749 20.5483 49.5397C19.5299 49.8809 18.5225 50.0512 17.5291 50.0512Z" fill="#EDA751"/>
<path d="M48.8764 47.1615C46.7934 47.1615 44.8103 46.718 43.3947 45.9654C42.0658 45.2589 41.5611 43.6089 42.2678 42.2799C42.9743 40.9511 44.6239 40.4462 45.9533 41.153C47.7194 42.092 52.0733 41.9145 53.2476 40.0868C54.0612 38.8205 55.7472 38.4538 57.0135 39.2672C58.2797 40.0809 58.6466 41.7669 57.8331 43.0331C55.9392 45.9804 52.2752 47.1615 48.8764 47.1615Z" fill="#EDA751"/>
<path opacity="0.2" d="M30.6505 50.3966C29.1997 49.9929 27.6979 50.842 27.2947 52.2919L26.106 56.5665C27.6075 57.574 29.3131 58.3286 31.1517 58.765L32.5457 53.7523C32.9491 52.3023 32.1005 50.8 30.6505 50.3966Z" fill="#A35F00"/>
<path opacity="0.2" d="M41.4353 52.1416C40.7623 50.7955 39.1255 50.2497 37.779 50.9228C36.4328 51.5958 35.8872 53.2328 36.5603 54.5791C37.029 55.5163 37.3352 57.216 37.4743 58.9767C39.3805 58.6588 41.1637 58.002 42.7519 57.0761C42.523 55.2992 42.1164 53.5038 41.4353 52.1416Z" fill="#A35F00"/>
<path opacity="0.2" d="M48.3382 51.3105C45.9562 51.8908 44.5891 50.3863 42.1926 47.452L42.0956 47.3333C41.5005 46.6049 40.4276 46.4966 39.699 47.0917C38.9704 47.6869 38.8624 48.76 39.4574 49.4884L39.5541 49.6067C40.879 51.2292 42.1307 52.7617 43.7456 53.7674C44.4344 54.1963 45.139 54.496 45.8641 54.6688C46.8507 53.672 47.6867 52.5419 48.3382 51.3105Z" fill="#A35F00"/>
<path opacity="0.2" d="M49.4894 41.6863C48.1375 41.7817 46.7693 41.5869 45.9533 41.153C44.624 40.4463 42.9744 40.9511 42.2677 42.2799C41.5612 43.6088 42.0657 45.2588 43.3946 45.9655C44.8103 46.7181 46.7934 47.1616 48.8764 47.1616C49.1627 47.1616 49.4509 47.1524 49.7398 47.1353C49.8509 46.4424 49.9088 45.7334 49.9088 45.0118C49.909 43.8669 49.763 42.7535 49.4894 41.6863Z" fill="#A35F00"/>
<path opacity="0.2" d="M23.2553 41.4655C21.9147 42.5825 20.8034 43.4214 19.8069 43.949C19.7792 44.3 19.7646 44.6544 19.7646 45.012C19.7646 46.5942 20.0417 48.1164 20.5519 49.5387C22.9116 48.7474 24.9047 47.1854 26.7439 45.6532C27.9002 44.6897 28.0567 42.9714 27.0934 41.815C26.1299 40.6583 24.4113 40.5022 23.2553 41.4655Z" fill="#A35F00"/>
<path d="M34.8367 56.6917C41.7788 56.6917 47.4064 51.4623 47.4064 45.0115C47.4064 38.5607 41.7788 33.3313 34.8367 33.3313C27.8947 33.3313 22.2671 38.5607 22.2671 45.0115C22.2671 51.4623 27.8947 56.6917 34.8367 56.6917Z" fill="#FCD690"/>
<path opacity="0.15" d="M33.0011 56.5675C27.2572 52.7963 29.0374 45.0673 30.0124 41.6872V34.2239C25.4649 35.9819 22.2671 40.1496 22.2671 45.0119C22.2671 50.8831 26.9292 55.7418 33.0011 56.5675Z" fill="#C17A00"/>
<path d="M27.1873 24.759C29.6468 22.6953 31.2891 19.2306 27.8198 14.1091C24.3232 8.94702 19.1172 7.65306 15.0529 8.13194C14.051 8.25002 13.2102 8.9554 12.9199 9.92168C11.7426 13.8411 12.1128 19.1926 16.5894 23.5325C21.0306 27.8385 24.7276 26.8228 27.1873 24.759Z" fill="#EDA751"/>
<path d="M12.7564 10.5215C11.7911 14.3751 12.3369 19.4098 16.5893 23.5326C20.4389 27.2649 23.7286 26.9982 26.1388 25.5171C24.4813 14.2648 17.2405 11.2809 12.7564 10.5215Z" fill="#FF91AB"/>
<path d="M42.4856 24.759C40.0261 22.6953 38.3838 19.2306 41.8531 14.1091C45.3497 8.94702 50.5557 7.65306 54.62 8.13194C55.6219 8.25002 56.4627 8.9554 56.753 9.92168C57.9303 13.8411 57.5599 19.1926 53.0835 23.5325C48.6423 27.8385 44.9452 26.8228 42.4856 24.759Z" fill="#EDA751"/>
<path d="M56.9167 10.5215C57.8818 14.3751 57.3362 19.4098 53.0837 23.5326C49.2342 27.2649 45.9443 26.9982 43.5342 25.5171C45.1919 14.2648 52.4326 11.2809 56.9167 10.5215Z" fill="#FF91AB"/>
<path d="M56.2357 27.8739C56.2357 37.6583 46.6549 41.9438 34.8364 41.9438C23.0178 41.9438 13.437 37.6583 13.437 27.8739C13.437 18.0896 23.0178 10.1577 34.8364 10.1577C46.6549 10.1577 56.2357 18.0896 56.2357 27.8739Z" fill="#FFDC9C"/>
<path opacity="0.15" d="M23.4102 12.8931C17.4171 16.0326 13.437 21.5682 13.437 27.8739C13.437 36.2849 20.5169 40.6323 30.0122 41.687C16.3821 33.5455 18.1598 22.5943 23.4102 12.8931Z" fill="#C17A00"/>
<path d="M24.3359 31.3727C26.4759 31.3727 28.2108 29.9912 28.2108 28.2872C28.2108 26.5831 26.4759 25.2017 24.3359 25.2017C22.1958 25.2017 20.4609 26.5831 20.4609 28.2872C20.4609 29.9912 22.1958 31.3727 24.3359 31.3727Z" fill="#FF91AB"/>
<path d="M45.3373 31.3727C47.4774 31.3727 49.2122 29.9912 49.2122 28.2872C49.2122 26.5831 47.4774 25.2017 45.3373 25.2017C43.1973 25.2017 41.4624 26.5831 41.4624 28.2872C41.4624 29.9912 43.1973 31.3727 45.3373 31.3727Z" fill="#FF91AB"/>
<path d="M40.4663 21.398C40.1184 21.5145 39.8838 21.8405 39.8838 22.2075V24.4452C39.8838 26.1778 41.2311 27.6535 42.9627 27.7152C44.7805 27.7797 46.2746 26.3253 46.2746 24.5219V22.2076C46.2746 21.8406 46.0401 21.5148 45.692 21.3981C43.9964 20.8299 42.1619 20.8299 40.4663 21.398Z" fill="#495059"/>
<path d="M28.1588 15.7542C26.2905 15.7542 24.5801 14.7059 23.7322 13.0411L22.962 11.529C22.2147 10.0622 23.5567 8.40279 25.1475 8.82676L26.4792 9.18164C27.439 9.43739 28.3793 8.7012 28.3531 7.70824C28.3448 7.39564 28.3575 7.07776 28.3927 6.75588C28.4471 6.25701 28.5551 5.77387 28.7106 5.31226C30.6623 -0.48169 39.0108 -0.48169 40.9626 5.31226C41.118 5.77387 41.2261 6.25688 41.2805 6.75588C41.3155 7.07776 41.3283 7.39564 41.32 7.70824C41.2939 8.7012 42.2341 9.43752 43.1939 9.18164L44.5257 8.82676C46.1164 8.40279 47.4584 10.0621 46.7111 11.529L45.9409 13.0411C45.0929 14.7059 43.3825 15.7542 41.5143 15.7542C41.5143 15.7542 28.1588 15.7542 28.1588 15.7542Z" fill="#495059"/>
<path d="M32.9913 10.9877C32.7439 10.9877 32.4964 10.8933 32.3076 10.7046C31.93 10.3269 31.93 9.71486 32.3076 9.33729L35.9978 5.64709C36.3755 5.26965 36.9875 5.26965 37.3651 5.64709C37.7427 6.02479 37.7427 6.63683 37.3651 7.0144L33.6749 10.7046C33.4862 10.8933 33.2387 10.9877 32.9913 10.9877Z" fill="white"/>
<path d="M36.6815 10.9877C36.4341 10.9877 36.1866 10.8933 35.9978 10.7046L32.3076 7.0144C31.93 6.63671 31.93 6.02466 32.3076 5.64709C32.6853 5.26965 33.2973 5.26965 33.6749 5.64709L37.3651 9.33729C37.7427 9.71499 37.7427 10.327 37.3651 10.7046C37.1764 10.8933 36.9289 10.9877 36.6815 10.9877Z" fill="white"/>
<path d="M13.329 43.2188L9.92822 44.13L11.0537 48.3304C11.3053 49.2695 12.2706 49.8267 13.2097 49.5751C14.1487 49.3235 14.706 48.3582 14.4544 47.4192L13.329 43.2188Z" fill="#B77866"/>
<path d="M4.5257 17.751C2.71199 23.4834 3.24553 29.7012 6.00941 35.0408L9.09504 41.0019L12.4866 40.0931L6.51189 17.7953C6.24415 16.7961 4.83778 16.7647 4.5257 17.751Z" fill="#DEE2E5"/>
<path d="M15.9601 42.5135L7.29666 44.8348C6.84497 44.9559 6.38078 44.6877 6.25973 44.2362L5.86013 42.7452C5.73908 42.2936 6.00708 41.8294 6.45877 41.7083L15.1222 39.387C15.5739 39.2659 16.038 39.5341 16.1591 39.9856L16.5586 41.4765C16.6797 41.9282 16.4117 42.3925 15.9601 42.5135Z" fill="#BD4568"/>
<path d="M62.256 50.147C58.6378 47.8858 54.7147 47.8951 48.7146 50.1808C48.0737 50.4249 47.5474 50.5126 47.0593 50.4433C47.4396 49.6995 47.7441 48.9158 47.9637 48.1009C48.2686 48.119 48.5736 48.1286 48.8763 48.1286C53.154 48.1286 56.8062 46.4191 58.6461 43.556C59.7465 41.8435 59.2486 39.5549 57.5358 38.454C55.8232 37.3539 53.5343 37.8516 52.434 39.5643C51.8382 40.4915 49.6223 40.8915 47.8747 40.6885C48.7985 40.3089 49.6631 39.8828 50.4612 39.41C54.8716 36.7968 57.2028 32.8078 57.2028 27.8742C57.2028 26.0202 56.8728 24.1836 56.2344 22.427C56.2188 22.3725 56.1988 22.32 56.1744 22.2702C56.0946 22.0574 56.0101 21.846 55.9211 21.6358C58.2717 18.0974 58.9155 13.7593 57.6792 9.64373C57.2772 8.30569 56.1209 7.33554 54.7334 7.17196C52.0342 6.85382 49.2702 7.31491 46.8613 8.46811C46.1531 7.86638 45.2053 7.6453 44.2765 7.89267L42.9449 8.24755C42.7232 8.30646 42.5604 8.21288 42.483 8.15203C42.4071 8.09209 42.2805 7.9579 42.2865 7.7336C42.2959 7.37511 42.2808 7.01095 42.2415 6.6513C42.1804 6.09159 42.0584 5.5373 41.8787 5.00375C40.8548 1.96402 38.0906 0 34.8366 0C31.5826 0 28.8182 1.96402 27.7944 5.00363C27.6146 5.53717 27.4927 6.09146 27.4317 6.65092C27.3924 7.0107 27.3773 7.37486 27.3867 7.73347C27.3926 7.95764 27.2659 8.09183 27.1901 8.15177C27.1128 8.21275 26.9498 8.30633 26.7282 8.24729L25.3966 7.89241C24.468 7.64504 23.5199 7.86599 22.8118 8.46785C20.4027 7.31453 17.6379 6.85343 14.9398 7.17157C13.5522 7.33515 12.3961 8.3053 11.994 9.64348C10.7577 13.7589 11.4016 18.097 13.752 21.6354C12.9098 23.6281 12.4704 25.7392 12.4704 27.8738C12.4704 31.8402 13.9275 35.1358 16.801 37.6691C18.2405 38.9381 20.0026 39.9849 22.0687 40.8024C22.0011 40.9808 21.9381 41.1604 21.8793 41.341C19.2305 43.4651 17.8755 44.021 16.4368 43.3686C16.8038 43.2169 17.1099 42.9518 17.3116 42.6021C17.5539 42.1825 17.6182 41.6938 17.4926 41.226L17.0933 39.7354C16.9679 39.2674 16.6678 38.8763 16.2483 38.6341C15.8288 38.3919 15.3402 38.3273 14.8721 38.453L13.1699 38.9091L7.44581 17.545C7.21352 16.678 6.45452 16.082 5.55707 16.062C5.54147 16.0617 5.52613 16.0615 5.51067 16.0615C4.63281 16.0615 3.87008 16.6183 3.60414 17.4593C1.69994 23.4778 2.24921 29.8796 5.15102 35.4852L7.68428 40.3792L6.20895 40.7745C5.74115 40.8999 5.35018 41.2 5.10796 41.6194C4.86562 42.039 4.80129 42.5278 4.92685 42.9956L5.32633 44.4866C5.54328 45.2957 6.27792 45.8307 7.07868 45.8307C7.2335 45.8307 7.39089 45.8107 7.54751 45.7688L9.24495 45.314L10.1202 48.5806C10.3087 49.2842 10.76 49.8724 11.3909 50.2366C11.8111 50.4792 12.2773 50.6032 12.7499 50.6032C12.9868 50.6032 13.2253 50.572 13.4603 50.5091C13.6287 50.464 13.7899 50.4029 13.9436 50.3289C15.1138 50.7862 16.3176 51.0183 17.5292 51.0183C18.6243 51.0183 19.7435 50.8293 20.8554 50.4566C21.3477 50.2919 21.8368 50.0919 22.3324 49.8535C23.1001 51.5776 24.2642 53.1101 25.7188 54.3509L24.9609 57.0759C24.505 58.7149 25.235 60.4078 26.6318 61.2386L26.1077 63.1236C25.9646 63.6379 26.2657 64.171 26.7802 64.3139C26.8668 64.3381 26.954 64.3495 27.0397 64.3495C27.463 64.3495 27.8517 64.0692 27.9706 63.6414L28.4946 61.7568C28.5029 61.7568 28.5111 61.7577 28.5195 61.7577C30.1703 61.7577 31.6324 60.6461 32.075 59.0544L32.5152 57.4718C33.2699 57.5942 34.0456 57.6586 34.8371 57.6586C35.3482 57.6586 35.8526 57.631 36.3492 57.5793C36.5523 59.0012 36.6389 60.6976 36.5722 62.1369C36.4778 64.1706 38.0555 65.9018 40.0914 65.9963C40.1487 65.9988 40.2059 66 40.2624 66C41.6365 66 42.8882 65.2436 43.529 64.0258C43.7776 63.5532 43.5961 62.9686 43.1234 62.72C42.6507 62.4714 42.0663 62.6529 41.8176 63.1255C41.5124 63.7059 40.9163 64.0664 40.2624 64.0664C40.2338 64.0664 40.2051 64.0656 40.1787 64.0645C39.2101 64.0195 38.4588 63.195 38.5038 62.2264C38.5778 60.6322 38.4832 58.8075 38.2554 57.2497C39.4416 56.9603 40.5649 56.524 41.6016 55.9628C41.8443 57.2947 41.9531 58.6074 42.0014 59.5721C42.0272 60.089 42.4544 60.4907 42.9662 60.4907C42.9824 60.4907 42.9988 60.4903 43.0152 60.4894C43.5484 60.4628 43.9591 60.0088 43.9325 59.4757C43.872 58.2639 43.7203 56.5334 43.3474 54.8387C43.3922 54.8046 43.4371 54.7707 43.4814 54.7362C44.7139 55.4504 46.0197 55.8122 47.3669 55.8122C48.4056 55.8122 49.4988 55.5964 50.6161 55.1708C55.5682 53.2843 57.7194 53.6085 59.4262 54.6749C60.031 55.053 60.7466 55.1725 61.4421 55.0127C62.137 54.8523 62.7278 54.4308 63.1057 53.826C63.8853 52.5776 63.5044 50.9271 62.256 50.147ZM54.0606 40.6093C54.5849 39.7937 55.6749 39.5566 56.4906 40.0806C57.3064 40.6047 57.5437 41.6947 57.0195 42.5104C55.5371 44.8175 52.493 46.1947 48.8764 46.1947C48.6899 46.1947 48.5023 46.1893 48.3146 46.1814C48.3527 45.7961 48.373 45.4062 48.373 45.0117C48.373 44.2107 48.294 43.4216 48.1376 42.6486C50.312 42.7859 53.0051 42.2521 54.0606 40.6093ZM6.86792 34.5965C4.20317 29.4485 3.69876 23.5696 5.44737 18.0428C5.45743 18.0113 5.46671 17.9914 5.51376 17.9953C5.56481 17.9965 5.56958 18.014 5.57808 18.0457L11.3026 39.4099L9.59609 39.8671L6.86792 34.5965ZM13.4414 48.2715C13.3354 48.4551 13.1643 48.5863 12.9595 48.6412C12.7549 48.6959 12.541 48.668 12.3574 48.5619C12.1737 48.456 12.0425 48.2849 11.9876 48.0801L11.1123 44.8136L12.6454 44.4028L13.5206 47.6694C13.5756 47.8741 13.5475 48.088 13.4414 48.2715ZM13.3902 42.2015C13.3694 42.2061 13.3492 42.2119 13.3291 42.2178L9.67859 43.196C9.67846 43.196 9.67821 43.1961 9.67808 43.1961C9.67782 43.1961 9.67769 43.1962 9.67756 43.1962L7.16286 43.87L6.82564 42.611L9.32049 41.9425C9.32088 41.9424 9.32126 41.9424 9.32165 41.9422L12.7364 41.0273C12.7366 41.0271 12.7369 41.0271 12.7371 41.0271C12.7374 41.027 12.7377 41.027 12.7379 41.0269L15.2571 40.3518L15.5944 41.6108L13.3902 42.2015ZM20.2409 48.623C19.3272 48.9292 18.4148 49.0844 17.529 49.0844C16.7933 49.0844 16.0585 48.9742 15.3336 48.7605C15.5097 48.251 15.5309 47.701 15.3884 47.1687L14.6995 44.5978C15.7019 45.2674 16.6495 45.5504 17.5671 45.5504C18.8587 45.5504 20.0906 44.9905 21.3312 44.1624C21.3113 44.4439 21.3003 44.727 21.3003 45.0117C21.3003 46.0465 21.435 47.0523 21.6871 48.0155C21.1969 48.2619 20.7189 48.4631 20.2409 48.623ZM54.8949 19.5975C54.6883 19.2479 54.4691 18.9033 54.2361 18.5648C53.1743 17.0231 51.8498 15.6162 50.3173 14.3884C52.2931 12.8353 54.4373 12.0507 56.1661 11.6562C56.4962 13.5866 56.551 16.5504 54.8949 19.5975ZM47.5725 11.9678C47.8695 11.3849 47.9561 10.7477 47.8427 10.1422C49.8895 9.1963 52.2249 8.8235 54.5072 9.09214C54.9774 9.14757 55.3881 9.4099 55.6384 9.79365C53.5841 10.2743 51.0226 11.248 48.7004 13.2117C48.2655 12.9243 47.8169 12.651 47.357 12.391L47.5725 11.9678ZM23.9297 10.0769C24.0043 9.98456 24.2489 9.72623 24.6431 9.72623C24.7222 9.72623 24.8074 9.73668 24.8986 9.76104L26.2302 10.1159C26.9872 10.3177 27.7735 10.1548 28.3882 9.66952C29.0006 9.18599 29.3401 8.46192 29.3195 7.68294C29.3124 7.41121 29.3239 7.13445 29.3539 6.86065C29.3997 6.43951 29.4916 6.02237 29.6268 5.62096C30.5426 2.90232 32.9185 1.93359 34.8366 1.93359C36.7547 1.93359 39.1304 2.90232 40.0463 5.62083C40.1815 6.02237 40.2735 6.43964 40.3192 6.86078C40.3491 7.13445 40.3606 7.41121 40.3536 7.68281C40.333 8.46192 40.6726 9.18599 41.285 9.66952C41.8997 10.155 42.6865 10.3178 43.443 10.1159L44.7746 9.76104C45.3195 9.61563 45.6537 9.96613 45.7435 10.0769C45.8331 10.1876 46.1056 10.5881 45.8497 11.0901L45.0795 12.6021C44.3929 13.95 43.0266 14.7872 41.5142 14.7872H28.159C26.6465 14.7872 25.2804 13.95 24.5938 12.6021L24.4671 12.3533C24.4668 12.3528 24.4667 12.3523 24.4665 12.3518C24.4662 12.3513 24.4659 12.3509 24.4657 12.3505L23.8235 11.0899C23.5677 10.5881 23.8401 10.1876 23.9297 10.0769ZM23.2335 14.0928C24.3272 15.7286 26.1554 16.7209 28.159 16.7209H41.5142C43.5178 16.7209 45.3459 15.7285 46.4398 14.0927C47.0449 14.4351 47.6237 14.8001 48.1736 15.1872C48.21 15.2166 48.2479 15.2429 48.2872 15.2662C50.8091 17.0674 52.7239 19.3219 53.9052 21.8359C53.9085 21.846 53.9112 21.8562 53.915 21.8661C51.7879 22.0623 49.5501 22.13 47.2361 22.068C47.1808 21.3425 46.6979 20.7152 45.9992 20.4814C44.1167 19.8505 42.0426 19.8505 40.1594 20.4814H40.1592C39.7018 20.6347 39.3375 20.9568 39.1244 21.3644C31.1537 20.2214 24.443 18.014 20.3061 16.0978C20.6535 15.8111 21.0131 15.5327 21.3875 15.2653C21.4256 15.2426 21.4623 15.2171 21.4975 15.1889C22.048 14.8011 22.6275 14.4356 23.2335 14.0928ZM45.3079 22.2893V24.5216C45.3079 25.1318 45.0659 25.7015 44.6266 26.1254C44.1874 26.5491 43.6061 26.7691 42.9971 26.7487C41.8135 26.7067 40.8507 25.6731 40.8507 24.445V22.2892C42.2914 21.8251 43.8675 21.8251 45.3079 22.2893ZM15.1659 9.09202C17.4487 8.8235 19.7838 9.19617 21.8305 10.1421C21.717 10.7477 21.8036 11.3847 22.1006 11.9678L22.3163 12.391C21.8562 12.651 21.4078 12.9243 20.9727 13.2117C18.6507 11.248 16.0891 10.2743 14.0348 9.79365C14.2852 9.40977 14.6958 9.14745 15.1659 9.09202ZM13.5071 11.6562C15.2359 12.0507 17.3801 12.8353 19.3558 14.3884C18.8762 14.7727 18.4178 15.1751 17.9807 15.5931C17.9506 15.6179 17.9223 15.6451 17.8951 15.6737C16.97 16.5688 16.145 17.5368 15.437 18.5647C15.2038 18.9032 14.9846 19.2478 14.7781 19.5974C13.1221 16.5503 13.177 13.5866 13.5071 11.6562ZM30.2117 58.5363C30.0008 59.2946 29.3047 59.8241 28.519 59.8241C28.3603 59.8241 28.2016 59.8023 28.0472 59.7595C28.0468 59.7594 28.0466 59.7593 28.0462 59.7591C28.0459 59.759 28.0457 59.759 28.0454 59.759C27.1119 59.4987 26.5638 58.5278 26.8235 57.5942L27.3875 55.5661C28.3843 56.1822 29.4729 56.6784 30.6299 57.0328L30.2117 58.5363ZM34.8366 55.725C28.4388 55.725 23.2339 50.9191 23.2339 45.0119C23.2339 44.0523 23.3691 43.113 23.6363 42.2042C23.6394 42.1946 23.6424 42.1851 23.6451 42.1754C23.7188 41.9275 23.8017 41.6818 23.895 41.4387C25.0193 41.7842 26.2166 42.0732 27.4902 42.3006C27.5477 42.3109 27.6049 42.3158 27.6613 42.3158C28.1207 42.3158 28.5283 41.987 28.6118 41.5188C28.7058 40.9932 28.3558 40.4909 27.8301 40.3972C26.3432 40.1316 24.9716 39.7803 23.7149 39.3485C23.679 39.3342 23.6427 39.3217 23.6061 39.3119C21.3869 38.5367 19.5363 37.5028 18.0797 36.2187C15.6406 34.0686 14.4039 31.2611 14.4039 27.8739C14.4039 25.843 14.8446 23.8736 15.6735 22.0383C15.7131 21.9744 15.7443 21.9065 15.7677 21.8361C16.4993 20.279 17.5115 18.8216 18.7763 17.51C22.9898 19.5698 30.2458 22.0512 38.917 23.2877V24.445C38.917 26.7022 40.7165 28.6025 42.9283 28.681C42.9795 28.6829 43.0305 28.6837 43.0814 28.6837C43.9077 28.6837 44.6965 28.4442 45.372 27.996C45.5281 28.4054 45.9496 28.6697 46.4011 28.6104C47.3757 28.4815 49.7149 28.6519 50.5656 28.8646C50.6442 28.8842 50.7231 28.8937 50.8007 28.8937C51.2338 28.8937 51.628 28.6004 51.738 28.161C51.8674 27.6429 51.5525 27.1181 51.0344 26.9886C50.0902 26.7527 47.9991 26.5766 46.6582 26.6487C47.0381 26.0126 47.2414 25.2843 47.2414 24.5214V24.0012C47.7935 24.0155 48.3429 24.0253 48.8866 24.0253C50.8725 24.0253 52.7989 23.9296 54.6433 23.7392C55.0537 25.0712 55.269 26.4575 55.269 27.8737C55.269 32.1466 53.3197 35.4682 49.4753 37.7461C48.4413 38.3586 47.2812 38.8869 46.0094 39.3292C45.9983 39.3329 45.9872 39.3364 45.9763 39.3405C42.8665 40.4166 39.0892 40.9767 34.8366 40.9767C33.9275 40.9767 33.0242 40.9504 32.1517 40.8985C31.6164 40.8633 31.1608 41.2731 31.1291 41.806C31.0973 42.339 31.5036 42.7969 32.0366 42.8286C32.9473 42.8829 33.8894 42.9104 34.8366 42.9104C38.9315 42.9104 42.63 42.4072 45.7775 41.4372C45.8227 41.5549 45.8649 41.6732 45.9055 41.7919C45.9061 41.7939 45.9068 41.7958 45.9074 41.7976C46.2603 42.8318 46.4392 43.9082 46.4392 45.0115C46.4393 50.9191 41.2343 55.725 34.8366 55.725ZM61.4654 52.8014C61.3611 52.9684 61.1982 53.0845 61.0065 53.1287C60.8152 53.1733 60.6176 53.1401 60.4505 53.0354C57.8172 51.3898 54.8664 51.4823 49.9272 53.364C49.0304 53.7054 48.1688 53.8786 47.3663 53.8786C46.548 53.8786 45.7686 53.7052 45.0033 53.3515C45.3575 52.9749 45.6882 52.5787 45.9933 52.1646C47.0354 52.5285 48.1393 52.4691 49.403 51.9874C54.7646 49.945 58.1916 49.8867 61.2312 51.7865C61.5755 52.0018 61.6807 52.4571 61.4654 52.8014ZM45.2398 31.474C46.1899 31.7261 48.2879 32.7752 48.9933 33.2958C49.1661 33.4233 49.3671 33.4848 49.5667 33.4848C49.8632 33.4848 50.1557 33.3489 50.3453 33.0922C50.6624 32.6627 50.5713 32.0573 50.1416 31.7402C49.2498 31.082 46.9534 29.9283 45.736 29.6051C45.2191 29.4684 44.6904 29.7754 44.5534 30.2914C44.4165 30.8076 44.7238 31.3371 45.2398 31.474ZM23.937 29.6051C22.7202 29.9283 20.4234 31.0817 19.5314 31.7402C19.1019 32.0573 19.0106 32.6625 19.3277 33.0922C19.5174 33.3489 19.8098 33.4848 20.1063 33.4848C20.3058 33.4848 20.507 33.4233 20.6797 33.2958C21.3852 32.7752 23.4833 31.7261 24.4332 31.474C24.9492 31.337 25.2565 30.8076 25.1195 30.2914C24.9826 29.7754 24.454 29.4685 23.937 29.6051ZM34.8366 27.2262C35.949 27.2262 37.0067 26.7444 37.7386 25.9044C38.0895 25.5018 38.0475 24.8912 37.6448 24.5404C37.2422 24.1895 36.6316 24.2315 36.2808 24.6342C35.9163 25.0527 35.3898 25.2926 34.8366 25.2926C34.2834 25.2926 33.757 25.0525 33.3923 24.6341C33.0413 24.2317 32.4307 24.1896 32.0282 24.5404C31.6258 24.8913 31.5838 25.5019 31.9345 25.9045C32.6666 26.7444 33.7244 27.2262 34.8366 27.2262ZM26.5938 22.8735C26.0597 22.8735 25.627 23.3062 25.627 23.8403V25.2085C25.627 25.7426 26.0597 26.1753 26.5938 26.1753C27.1279 26.1753 27.5606 25.7426 27.5606 25.2085V23.8403C27.5606 23.3064 27.1279 22.8735 26.5938 22.8735ZM23.2718 28.6106C23.7998 28.68 24.2869 28.3082 24.3569 27.7788C24.4269 27.2496 24.0543 26.7636 23.5251 26.6936C22.277 26.5289 19.7139 26.7201 18.6386 26.9888C18.1205 27.1184 17.8056 27.6432 17.935 28.1612C18.045 28.6006 18.4391 28.8939 18.8723 28.8939C18.9499 28.8939 19.0288 28.8845 19.1074 28.8648C19.958 28.652 22.297 28.4814 23.2718 28.6106Z" fill="#151515"/>
</svg>
