<svg width="30" height="30" viewBox="0 0 30 30" fill="none" xmlns="http://www.w3.org/2000/svg">
<g clip-path="url(#clip0_235_1016)">
<path d="M13.031 27.2112C12.9248 27.2112 12.8168 27.197 12.7095 27.1671C12.0724 26.9899 11.6996 26.3298 11.8767 25.6926L12.493 23.4767C12.6701 22.8397 13.33 22.4666 13.9675 22.644C14.6046 22.8212 14.9775 23.4813 14.8003 24.1185L14.184 26.3344C14.0367 26.8641 13.5553 27.2112 13.031 27.2112Z" fill="#EDA751"/>
<path d="M21.3125 24.5989C20.7558 24.5989 20.2289 24.4413 19.7214 24.1253C19.0118 23.6834 18.4619 23.01 17.8797 22.2971L17.8373 22.2451C17.5758 21.925 17.6233 21.4535 17.9434 21.192C18.2635 20.9305 18.7349 20.9781 18.9964 21.2982L19.039 21.3503C20.1938 22.7644 20.8044 23.4233 22.0561 22.9462C24.5521 21.9955 26.167 21.9805 27.6297 22.8947C27.9803 23.1137 28.0867 23.5755 27.8677 23.9259C27.6486 24.2764 27.1869 24.3831 26.8364 24.1639C25.8084 23.5215 24.6177 23.5721 22.5889 24.345C22.1448 24.5141 21.7206 24.5989 21.3125 24.5989Z" fill="#EDA751"/>
<path d="M27.6298 22.8945C27.4499 22.7821 27.2677 22.6839 27.0819 22.5996C26.7728 22.8099 26.397 23.2764 26.3417 23.9142C26.5122 23.9805 26.6764 24.0637 26.8364 24.1638C27.187 24.383 27.6487 24.2763 27.8677 23.9259C28.0868 23.5753 27.9803 23.1136 27.6298 22.8945Z" fill="#FCD79D"/>
<path d="M18.1908 29.0753C18.1721 29.0753 18.1532 29.0749 18.1343 29.074C17.4737 29.0434 16.9631 28.483 16.9937 27.8223C17.0455 26.706 16.8991 25.1513 16.5643 24.4817C16.2686 23.8902 16.5083 23.171 17.0998 22.8752C17.6914 22.5795 18.4105 22.8192 18.7063 23.4107C19.3489 24.6958 19.4359 26.8582 19.386 27.9333C19.3562 28.5751 18.8265 29.0753 18.1908 29.0753Z" fill="#EDA751"/>
<path d="M8.20208 22.4922C7.34182 22.4922 6.50547 22.2017 5.70321 21.6225C5.16705 21.2353 5.04623 20.4868 5.43337 19.9507C5.82051 19.4145 6.56896 19.2937 7.10518 19.6808C8.23952 20.4998 9.09932 20.0684 10.7181 18.7196C11.2261 18.2964 11.9812 18.365 12.4046 18.8732C12.8279 19.3813 12.7592 20.1363 12.251 20.5597C11.4425 21.2333 10.5663 21.9201 9.52872 22.2675C9.08126 22.4174 8.63861 22.4922 8.20208 22.4922Z" fill="#EDA751"/>
<path d="M21.9758 21.2226C21.0606 21.2226 20.1892 21.0277 19.5672 20.697C18.9833 20.3866 18.7615 19.6616 19.072 19.0776C19.3825 18.4938 20.1073 18.2719 20.6915 18.5825C21.4674 18.9951 23.3805 18.9171 23.8965 18.114C24.254 17.5576 24.9948 17.3965 25.5512 17.7539C26.1076 18.1114 26.2688 18.8522 25.9113 19.4086C25.0792 20.7036 23.4692 21.2226 21.9758 21.2226Z" fill="#EDA751"/>
<path opacity="0.2" d="M13.9676 22.644C13.3301 22.4666 12.6702 22.8397 12.493 23.4768L11.9707 25.355C12.6305 25.7977 13.3799 26.1293 14.1878 26.321L14.8003 24.1185C14.9775 23.4813 14.6047 22.8212 13.9676 22.644Z" fill="#A35F00"/>
<path opacity="0.2" d="M18.7064 23.4107C18.4106 22.8193 17.6915 22.5795 17.0998 22.8752C16.5083 23.1709 16.2685 23.8902 16.5643 24.4817C16.7703 24.8936 16.9048 25.6404 16.9659 26.414C17.8035 26.2744 18.587 25.9858 19.2849 25.5789C19.1843 24.7982 19.0056 24.0093 18.7064 23.4107Z" fill="#A35F00"/>
<path opacity="0.2" d="M21.7393 23.0454C20.6927 23.3004 20.092 22.6394 19.039 21.3501L18.9964 21.2979C18.7348 20.9778 18.2634 20.9303 17.9433 21.1918C17.6232 21.4533 17.5757 21.9248 17.8372 22.2448L17.8796 22.2968C18.4618 23.0098 19.0118 23.6831 19.7214 24.125C20.024 24.3135 20.3336 24.4452 20.6522 24.5211C21.0857 24.0831 21.453 23.5865 21.7393 23.0454Z" fill="#A35F00"/>
<path opacity="0.2" d="M22.2452 18.8166C21.6511 18.8585 21.05 18.7729 20.6914 18.5823C20.1074 18.2718 19.3825 18.4936 19.072 19.0774C18.7616 19.6613 18.9833 20.3863 19.5672 20.6968C20.1892 21.0276 21.0606 21.2224 21.9758 21.2224C22.1016 21.2224 22.2283 21.2184 22.3552 21.2109C22.404 20.9064 22.4294 20.5949 22.4294 20.2778C22.4296 19.7747 22.3654 19.2855 22.2452 18.8166Z" fill="#A35F00"/>
<path opacity="0.2" d="M10.7181 18.7199C10.129 19.2107 9.64074 19.5793 9.2029 19.8111C9.19073 19.9654 9.18433 20.1211 9.18433 20.2782C9.18433 20.9734 9.30605 21.6423 9.53023 22.2672C10.5671 21.9195 11.4428 21.2331 12.251 20.5599C12.759 20.1366 12.8278 19.3816 12.4045 18.8734C11.9812 18.3652 11.2261 18.2966 10.7181 18.7199Z" fill="#A35F00"/>
<path d="M15.8071 25.4099C18.8574 25.4099 21.3301 23.1122 21.3301 20.2777C21.3301 17.4433 18.8574 15.1455 15.8071 15.1455C12.7568 15.1455 10.2841 17.4433 10.2841 20.2777C10.2841 23.1122 12.7568 25.4099 15.8071 25.4099Z" fill="#FCD690"/>
<path opacity="0.15" d="M15.0004 25.3555C12.4766 23.6985 13.2588 20.3024 13.6872 18.8172V15.5378C11.689 16.3103 10.2839 18.1416 10.2839 20.278C10.2839 22.8578 12.3325 24.9927 15.0004 25.3555Z" fill="#C17A00"/>
<path d="M12.4459 11.3789C13.5266 10.4721 14.2483 8.94977 12.7239 6.69938C11.1875 4.43121 8.90002 3.86265 7.11419 4.07307C6.67393 4.12495 6.30452 4.43489 6.17696 4.85947C5.65966 6.58162 5.82233 8.93306 7.78929 10.84C9.74073 12.732 11.3652 12.2857 12.4459 11.3789Z" fill="#EDA751"/>
<path d="M6.10503 5.12305C5.6809 6.81632 5.92072 9.02853 7.78918 10.8401C9.48069 12.48 10.9262 12.3628 11.9852 11.7121C11.2569 6.76783 8.07533 5.45672 6.10503 5.12305Z" fill="#FF91AB"/>
<path d="M19.168 11.3789C18.0873 10.4721 17.3657 8.94977 18.8901 6.69938C20.4265 4.43121 22.7139 3.86265 24.4998 4.07307C24.94 4.12495 25.3094 4.43489 25.437 4.85947C25.9543 6.58162 25.7916 8.93306 23.8247 10.84C21.8732 12.732 20.2487 12.2857 19.168 11.3789Z" fill="#EDA751"/>
<path d="M25.5089 5.12305C25.9329 6.81632 25.6932 9.02853 23.8247 10.8401C22.1332 12.48 20.6877 12.3628 19.6287 11.7121C20.3571 6.76783 23.5386 5.45672 25.5089 5.12305Z" fill="#FF91AB"/>
<path d="M25.2097 12.7478C25.2097 17.047 20.9999 18.93 15.8069 18.93C10.6139 18.93 6.40417 17.047 6.40417 12.7478C6.40417 8.44859 10.6139 4.96338 15.8069 4.96338C20.9999 4.96338 25.2097 8.44859 25.2097 12.7478Z" fill="#FFDC9C"/>
<path opacity="0.15" d="M10.7863 6.16504C8.15301 7.54452 6.40417 9.97684 6.40417 12.7475C6.40417 16.4433 9.51505 18.3535 13.6872 18.8169C7.69824 15.2396 8.47932 10.4277 10.7863 6.16504Z" fill="#C17A00"/>
<path d="M11.1931 14.285C12.1334 14.285 12.8957 13.678 12.8957 12.9292C12.8957 12.1805 12.1334 11.5735 11.1931 11.5735C10.2528 11.5735 9.49048 12.1805 9.49048 12.9292C9.49048 13.678 10.2528 14.285 11.1931 14.285Z" fill="#FF91AB"/>
<path d="M20.421 14.285C21.3613 14.285 22.1236 13.678 22.1236 12.9292C22.1236 12.1805 21.3613 11.5735 20.421 11.5735C19.4807 11.5735 18.7184 12.1805 18.7184 12.9292C18.7184 13.678 19.4807 14.285 20.421 14.285Z" fill="#FF91AB"/>
<path d="M18.2807 9.90205C18.1279 9.95325 18.0248 10.0965 18.0248 10.2578V11.241C18.0248 12.0023 18.6168 12.6507 19.3776 12.6778C20.1764 12.7062 20.8329 12.0671 20.8329 11.2747V10.2578C20.8329 10.0966 20.7298 9.95336 20.5769 9.9021C19.8318 9.65243 19.0258 9.65243 18.2807 9.90205Z" fill="#495059"/>
<path d="M12.8729 7.42229C12.052 7.42229 11.3005 6.96169 10.9279 6.23018L10.5894 5.56578C10.2611 4.92127 10.8508 4.19213 11.5497 4.37842L12.1349 4.53436C12.5566 4.64673 12.9698 4.32326 12.9583 3.88695C12.9546 3.7496 12.9602 3.60992 12.9757 3.46849C12.9996 3.24929 13.047 3.037 13.1153 2.83417C13.9729 0.288348 17.6412 0.288348 18.4988 2.83417C18.5671 3.037 18.6146 3.24924 18.6385 3.46849C18.6539 3.60992 18.6595 3.7496 18.6559 3.88695C18.6444 4.32326 19.0575 4.64679 19.4793 4.53436L20.0644 4.37842C20.7634 4.19213 21.353 4.92121 21.0247 5.56578L20.6863 6.23018C20.3136 6.96169 19.5621 7.42229 18.7412 7.42229H12.8729Z" fill="#495059"/>
<path d="M14.9963 5.32794C14.8876 5.32794 14.7788 5.28648 14.6958 5.20355C14.5299 5.0376 14.5299 4.76867 14.6958 4.60277L16.3173 2.98132C16.4832 2.81547 16.7522 2.81547 16.9181 2.98132C17.084 3.14727 17.084 3.4162 16.9181 3.5821L15.2966 5.20355C15.2137 5.28648 15.105 5.32794 14.9963 5.32794Z" fill="white"/>
<path d="M16.6177 5.32794C16.509 5.32794 16.4003 5.28648 16.3173 5.20355L14.6958 3.5821C14.5299 3.41615 14.5299 3.14722 14.6958 2.98132C14.8618 2.81547 15.1307 2.81547 15.2966 2.98132L16.9181 4.60277C17.084 4.76872 17.084 5.03765 16.9181 5.20355C16.8352 5.28648 16.7264 5.32794 16.6177 5.32794Z" fill="white"/>
<path d="M6.3566 19.49L4.8623 19.8904L5.35683 21.736C5.4674 22.1486 5.89152 22.3935 6.30415 22.2829C6.71678 22.1724 6.96163 21.7483 6.85107 21.3356L6.3566 19.49Z" fill="#B77866"/>
<path d="M2.48853 8.2997C1.69159 10.8185 1.92603 13.5506 3.14046 15.8967L4.49627 18.516L5.98648 18.1167L3.36125 8.31918C3.2436 7.88016 2.62565 7.86634 2.48853 8.2997Z" fill="#DEE2E5"/>
<path d="M7.51288 19.1802L3.70623 20.2002C3.50776 20.2534 3.3038 20.1356 3.25062 19.9372L3.07503 19.2821C3.02184 19.0836 3.1396 18.8796 3.33807 18.8265L7.14471 17.8065C7.34318 17.7533 7.54715 17.8711 7.60033 18.0695L7.77586 18.7246C7.8291 18.9231 7.71135 19.1271 7.51288 19.1802Z" fill="#BD4568"/>
<path d="M27.8549 22.5343C26.2651 21.5407 24.5413 21.5448 21.9049 22.5491C21.6233 22.6564 21.392 22.6949 21.1776 22.6645C21.3447 22.3377 21.4785 21.9933 21.575 21.6352C21.709 21.6432 21.843 21.6474 21.976 21.6474C23.8556 21.6474 25.4603 20.8963 26.2687 19.6382C26.7523 18.8858 26.5335 17.8802 25.7809 17.3965C25.0284 16.9131 24.0227 17.1318 23.5392 17.8843C23.2774 18.2917 22.3037 18.4675 21.5359 18.3783C21.9418 18.2115 22.3217 18.0243 22.6723 17.8165C24.6103 16.6683 25.6346 14.9155 25.6346 12.7477C25.6346 11.9331 25.4896 11.1261 25.2091 10.3543C25.2022 10.3303 25.1934 10.3073 25.1827 10.2854C25.1477 10.1919 25.1105 10.099 25.0714 10.0066C26.1043 8.45189 26.3871 6.54576 25.8439 4.7374C25.6673 4.14947 25.1592 3.72319 24.5495 3.65131C23.3635 3.51153 22.149 3.71413 21.0906 4.22084C20.7794 3.95644 20.3629 3.8593 19.9548 3.96799L19.3697 4.12392C19.2723 4.14981 19.2008 4.10869 19.1668 4.08195C19.1334 4.05562 19.0778 3.99665 19.0804 3.8981C19.0846 3.74058 19.0779 3.58057 19.0607 3.42254C19.0338 3.17661 18.9802 2.93305 18.9013 2.69862C18.4514 1.36298 17.2368 0.5 15.807 0.5C14.3772 0.5 13.1626 1.36298 12.7127 2.69856C12.6337 2.933 12.5801 3.17655 12.5533 3.42237C12.5361 3.58046 12.5294 3.74047 12.5336 3.89804C12.5362 3.99654 12.4805 4.0555 12.4472 4.08184C12.4132 4.10863 12.3416 4.14975 12.2442 4.12381L11.6591 3.96788C11.2511 3.85919 10.8345 3.95627 10.5234 4.22072C9.46483 3.71396 8.25 3.51136 7.06446 3.65114C6.45478 3.72302 5.94677 4.1493 5.77011 4.73729C5.22687 6.54559 5.50979 8.45172 6.54257 10.0064C6.17248 10.8821 5.97945 11.8097 5.97945 12.7476C5.97945 14.4904 6.61966 15.9385 7.88229 17.0516C8.5148 17.6091 9.28902 18.0691 10.1969 18.4283C10.1672 18.5067 10.1395 18.5856 10.1137 18.665C8.9498 19.5983 8.35439 19.8425 7.72223 19.5559C7.88348 19.4892 8.018 19.3728 8.10665 19.2191C8.21308 19.0347 8.24134 18.82 8.18617 18.6145L8.0107 17.9595C7.95559 17.7539 7.82373 17.582 7.63942 17.4756C7.45511 17.3692 7.24039 17.3408 7.03472 17.396L6.28678 17.5964L3.77166 8.20919C3.66959 7.82822 3.33609 7.56631 2.94176 7.55754C2.93491 7.55742 2.92816 7.55731 2.92137 7.55731C2.53565 7.55731 2.2005 7.802 2.08365 8.17152C1.24696 10.816 1.4883 13.6289 2.76334 16.092L3.87644 18.2424L3.22819 18.4161C3.02264 18.4712 2.85085 18.603 2.74442 18.7873C2.63794 18.9717 2.60967 19.1865 2.66484 19.392L2.84037 20.0471C2.9357 20.4027 3.25849 20.6377 3.61034 20.6377C3.67837 20.6377 3.74753 20.6289 3.81635 20.6105L4.56219 20.4107L4.94678 21.846C5.02959 22.1552 5.22789 22.4136 5.50509 22.5736C5.68973 22.6802 5.8946 22.7347 6.10225 22.7347C6.20635 22.7347 6.31114 22.721 6.4144 22.6934C6.48837 22.6736 6.55923 22.6467 6.62674 22.6142C7.14092 22.8152 7.66989 22.9171 8.20226 22.9171C8.68342 22.9171 9.17517 22.8341 9.66375 22.6703C9.88006 22.5979 10.095 22.5101 10.3127 22.4053C10.65 23.1629 11.1616 23.8363 11.8007 24.3814L11.4677 25.5788C11.2674 26.299 11.5881 27.0428 12.2019 27.4079L11.9716 28.2361C11.9087 28.4621 12.041 28.6963 12.2671 28.7591C12.3051 28.7698 12.3434 28.7748 12.3811 28.7748C12.5671 28.7748 12.7379 28.6516 12.7901 28.4636L13.0204 27.6356C13.024 27.6356 13.0276 27.636 13.0313 27.636C13.7567 27.636 14.3991 27.1475 14.5936 26.4481L14.787 25.7528C15.1186 25.8065 15.4594 25.8348 15.8072 25.8348C16.0318 25.8348 16.2534 25.8227 16.4716 25.8C16.5609 26.4248 16.5989 27.1701 16.5696 27.8026C16.5281 28.6962 17.2214 29.4568 18.116 29.4984C18.1411 29.4995 18.1662 29.5 18.1911 29.5C18.7948 29.5 19.3448 29.1676 19.6264 28.6325C19.7356 28.4249 19.6559 28.168 19.4482 28.0588C19.2405 27.9496 18.9837 28.0293 18.8744 28.237C18.7403 28.492 18.4784 28.6504 18.1911 28.6504C18.1785 28.6504 18.1659 28.65 18.1543 28.6495C17.7287 28.6298 17.3986 28.2675 17.4184 27.8419C17.4509 27.1414 17.4093 26.3397 17.3092 25.6552C17.8304 25.528 18.324 25.3363 18.7795 25.0897C18.8862 25.6749 18.934 26.2517 18.9552 26.6756C18.9665 26.9027 19.1542 27.0792 19.3791 27.0792C19.3862 27.0792 19.3934 27.0791 19.4006 27.0787C19.6349 27.067 19.8154 26.8675 19.8037 26.6332C19.7771 26.1008 19.7104 25.3404 19.5466 24.5958C19.5663 24.5808 19.586 24.5659 19.6055 24.5507C20.147 24.8646 20.7208 25.0235 21.3127 25.0235C21.7692 25.0235 22.2495 24.9287 22.7404 24.7417C24.9163 23.9128 25.8616 24.0553 26.6115 24.5238C26.8773 24.69 27.1917 24.7425 27.4973 24.6722C27.8026 24.6018 28.0622 24.4166 28.2283 24.1508C28.5708 23.6023 28.4035 22.8771 27.8549 22.5343ZM24.2539 18.3435C24.4843 17.9851 24.9632 17.8809 25.3217 18.1112C25.6801 18.3415 25.7844 18.8204 25.5541 19.1788C24.9027 20.1925 23.5651 20.7977 21.976 20.7977C21.8941 20.7977 21.8116 20.7953 21.7292 20.7918C21.7459 20.6225 21.7548 20.4512 21.7548 20.2779C21.7548 19.9259 21.7201 19.5792 21.6514 19.2396C22.6068 19.2999 23.7902 19.0653 24.2539 18.3435ZM3.51774 15.7015C2.34686 13.4395 2.12523 10.8563 2.89356 8.42788C2.89798 8.41405 2.90205 8.40533 2.92273 8.40703C2.94516 8.40754 2.94725 8.41524 2.95099 8.42918L5.46629 17.8165L4.71648 18.0174L3.51774 15.7015ZM6.40607 21.7102C6.35951 21.7909 6.28435 21.8485 6.19435 21.8727C6.10446 21.8967 6.01043 21.8844 5.92978 21.8378C5.84907 21.7913 5.79141 21.7161 5.76728 21.6261L5.38269 20.1908L6.05631 20.0103L6.4409 21.4456C6.46503 21.5356 6.45268 21.6296 6.40607 21.7102ZM6.38358 19.0431C6.37446 19.0451 6.36557 19.0477 6.35674 19.0503L4.75273 19.48C4.75267 19.48 4.75256 19.4801 4.7525 19.4801C4.75239 19.4801 4.75233 19.4802 4.75228 19.4802L3.64733 19.7762L3.49916 19.223L4.59538 18.9293C4.59555 18.9292 4.59572 18.9292 4.59589 18.9292L6.0963 18.5271C6.09642 18.5271 6.09653 18.5271 6.09664 18.5271C6.09675 18.527 6.09687 18.527 6.09698 18.527L7.20391 18.2303L7.35208 18.7835L6.38358 19.0431ZM9.39375 21.8647C8.99228 21.9992 8.59138 22.0674 8.20214 22.0674C7.87889 22.0674 7.55604 22.019 7.2375 21.9251C7.31487 21.7012 7.32421 21.4595 7.26157 21.2257L6.95888 20.096C7.39932 20.3902 7.81568 20.5146 8.21891 20.5146C8.78639 20.5146 9.32771 20.2685 9.87281 19.9047C9.86409 20.0284 9.85922 20.1528 9.85922 20.2779C9.85922 20.7325 9.91841 21.1745 10.0292 21.5977C9.8138 21.706 9.60377 21.7944 9.39375 21.8647ZM24.6205 9.11102C24.5297 8.95741 24.4334 8.80601 24.331 8.65727C23.8645 7.97985 23.2825 7.36167 22.6091 6.82217C23.4773 6.13976 24.4194 5.79499 25.179 5.62167C25.3241 6.46987 25.3482 7.77215 24.6205 9.11102ZM21.4031 5.75857C21.5336 5.50244 21.5717 5.22247 21.5218 4.95643C22.4211 4.5408 23.4473 4.37699 24.4501 4.49503C24.6568 4.51939 24.8372 4.63465 24.9472 4.80327C24.0445 5.01448 22.919 5.44229 21.8987 6.30515C21.7076 6.17885 21.5105 6.05877 21.3084 5.94452L21.4031 5.75857ZM11.0146 4.92771C11.0474 4.88716 11.1548 4.77365 11.328 4.77365C11.3628 4.77365 11.4002 4.77824 11.4403 4.78894L12.0254 4.94487C12.358 5.03352 12.7035 4.96198 12.9736 4.74873C13.2427 4.53627 13.3919 4.21812 13.3828 3.87584C13.3797 3.75644 13.3848 3.63483 13.398 3.51453C13.4181 3.32948 13.4584 3.14619 13.5179 2.96981C13.9202 1.77526 14.9642 1.34961 15.807 1.34961C16.6498 1.34961 17.6937 1.77526 18.0961 2.96976C18.1555 3.14619 18.1959 3.32954 18.216 3.51458C18.2292 3.63483 18.2342 3.75644 18.2312 3.87578C18.2221 4.21812 18.3713 4.53627 18.6404 4.74873C18.9105 4.96204 19.2562 5.03357 19.5886 4.94487L20.1737 4.78894C20.4131 4.72505 20.56 4.87906 20.5994 4.92771C20.6388 4.97637 20.7585 5.15235 20.6461 5.37291L20.3077 6.0373C20.006 6.62954 19.4057 6.99742 18.7411 6.99742H12.8729C12.2083 6.99742 11.6081 6.62954 11.3064 6.0373L11.2507 5.92798C11.2506 5.92776 11.2505 5.92753 11.2504 5.9273C11.2503 5.92708 11.2502 5.92691 11.2501 5.92674L10.9679 5.37285C10.8555 5.15235 10.9752 4.97637 11.0146 4.92771ZM10.7087 6.69229C11.1893 7.41106 11.9925 7.84708 12.8729 7.84708H18.7411C19.6215 7.84708 20.4247 7.41101 20.9054 6.69224C21.1713 6.84267 21.4256 7.00308 21.6672 7.17317C21.6832 7.18609 21.6998 7.19764 21.7171 7.20789C22.8252 7.99933 23.6666 8.98992 24.1856 10.0946C24.1871 10.099 24.1883 10.1035 24.1899 10.1078C23.2553 10.194 22.272 10.2238 21.2553 10.1965C21.231 9.87776 21.0188 9.60215 20.7118 9.4994C19.8846 9.2222 18.9733 9.2222 18.1458 9.4994H18.1457C17.9447 9.56675 17.7847 9.70829 17.691 9.88739C14.1888 9.38516 11.2401 8.41524 9.42241 7.57328C9.57506 7.44731 9.73303 7.32497 9.89757 7.2075C9.91428 7.19753 9.93042 7.18631 9.94588 7.17391C10.1878 7.00353 10.4424 6.8429 10.7087 6.69229ZM20.408 10.2938V11.2746C20.408 11.5428 20.3017 11.7931 20.1087 11.9794C19.9157 12.1655 19.6603 12.2622 19.3927 12.2532C18.8726 12.2347 18.4496 11.7806 18.4496 11.241V10.2937C19.0826 10.0898 19.7751 10.0898 20.408 10.2938ZM7.16381 4.49498C8.16686 4.37699 9.1929 4.54074 10.0922 4.95637C10.0423 5.22247 10.0804 5.50239 10.2109 5.75857L10.3057 5.94452C10.1035 6.05877 9.90646 6.17885 9.7153 6.30515C8.69503 5.44229 7.56947 5.01448 6.66684 4.80327C6.77684 4.6346 6.95724 4.51933 7.16381 4.49498ZM6.43496 5.62167C7.19456 5.79499 8.13672 6.13976 9.00485 6.82217C8.79409 6.99102 8.59268 7.16785 8.40061 7.35153C8.38741 7.36241 8.37495 7.37436 8.363 7.38693C7.95655 7.78025 7.59405 8.20556 7.28292 8.65721C7.18046 8.80595 7.08417 8.95735 6.99343 9.11096C6.26577 7.77209 6.2899 6.46987 6.43496 5.62167ZM13.7748 26.2205C13.6822 26.5537 13.3763 26.7863 13.0311 26.7863C12.9614 26.7863 12.8916 26.7768 12.8238 26.758C12.8236 26.7579 12.8235 26.7579 12.8233 26.7578C12.8232 26.7577 12.8231 26.7577 12.823 26.7577C12.4128 26.6434 12.172 26.2168 12.2861 25.8065L12.5339 24.9154C12.9719 25.1861 13.4502 25.4041 13.9586 25.5599L13.7748 26.2205ZM15.807 24.9852C12.9959 24.9852 10.7088 22.8736 10.7088 20.2779C10.7088 19.8563 10.7682 19.4436 10.8857 19.0443C10.887 19.0401 10.8883 19.0359 10.8895 19.0316C10.9219 18.9227 10.9583 18.8147 10.9993 18.7079C11.4934 18.8597 12.0194 18.9867 12.579 19.0866C12.6043 19.0912 12.6295 19.0933 12.6542 19.0933C12.8561 19.0933 13.0352 18.9488 13.0719 18.7431C13.1132 18.5122 12.9594 18.2914 12.7284 18.2503C12.0751 18.1336 11.4724 17.9792 10.9202 17.7895C10.9044 17.7832 10.8885 17.7777 10.8724 17.7734C9.89728 17.4328 9.08415 16.9785 8.44411 16.4143C7.37241 15.4696 6.829 14.2359 6.829 12.7476C6.829 11.8553 7.02266 10.9899 7.38686 10.1835C7.40425 10.1554 7.41795 10.1256 7.42826 10.0946C7.7497 9.41048 8.19444 8.7701 8.7502 8.19378C10.6016 9.09884 13.7899 10.1892 17.5999 10.7325V11.241C17.5999 12.2328 18.3906 13.0678 19.3624 13.1023C19.3849 13.1031 19.4074 13.1034 19.4297 13.1034C19.7928 13.1034 20.1394 12.9982 20.4362 12.8013C20.5048 12.9812 20.69 13.0973 20.8884 13.0712C21.3166 13.0146 22.3445 13.0895 22.7182 13.1829C22.7528 13.1915 22.7874 13.1957 22.8215 13.1957C23.0119 13.1957 23.1851 13.0669 23.2334 12.8738C23.2902 12.6461 23.1519 12.4155 22.9242 12.3586C22.5093 12.255 21.5905 12.1776 21.0013 12.2093C21.1683 11.9298 21.2576 11.6098 21.2576 11.2746V11.046C21.5002 11.0523 21.7416 11.0566 21.9805 11.0566C22.8531 11.0566 23.6995 11.0145 24.5099 10.9309C24.6903 11.5161 24.7849 12.1253 24.7849 12.7475C24.7849 14.625 23.9284 16.0845 22.2392 17.0854C21.7848 17.3546 21.2751 17.5867 20.7163 17.781C20.7114 17.7826 20.7065 17.7842 20.7017 17.786C19.3353 18.2588 17.6756 18.5049 15.807 18.5049C15.4076 18.5049 15.0106 18.4934 14.6273 18.4705C14.3921 18.4551 14.1919 18.6351 14.178 18.8693C14.164 19.1035 14.3425 19.3047 14.5767 19.3186C14.9769 19.3425 15.3908 19.3546 15.807 19.3546C17.6063 19.3546 19.2314 19.1335 20.6144 18.7072C20.6343 18.759 20.6528 18.811 20.6706 18.8631C20.6709 18.864 20.6712 18.8648 20.6715 18.8656C20.8265 19.32 20.9051 19.793 20.9051 20.2778C20.9052 22.8736 18.6181 24.9852 15.807 24.9852ZM27.5075 23.7006C27.4617 23.774 27.3901 23.825 27.3059 23.8444C27.2218 23.864 27.135 23.8494 27.0616 23.8034C25.9045 23.0804 24.608 23.121 22.4377 23.9478C22.0437 24.0978 21.6651 24.1739 21.3125 24.1739C20.9529 24.1739 20.6105 24.0977 20.2742 23.9423C20.4298 23.7769 20.5751 23.6027 20.7092 23.4208C21.1671 23.5807 21.6521 23.5546 22.2074 23.3429C24.5632 22.4455 26.069 22.4199 27.4046 23.2547C27.5559 23.3493 27.6021 23.5493 27.5075 23.7006ZM20.3781 14.3295C20.7956 14.4403 21.7174 14.9012 22.0274 15.13C22.1033 15.186 22.1916 15.213 22.2793 15.213C22.4096 15.213 22.5381 15.1533 22.6214 15.0405C22.7608 14.8518 22.7207 14.5858 22.5319 14.4465C22.1401 14.1572 21.131 13.6503 20.5961 13.5083C20.369 13.4482 20.1367 13.5831 20.0765 13.8099C20.0164 14.0367 20.1514 14.2693 20.3781 14.3295ZM11.0178 13.5083C10.4831 13.6503 9.47395 14.1571 9.082 14.4465C8.89327 14.5858 8.85317 14.8517 8.99251 15.0405C9.07582 15.1533 9.20434 15.213 9.33462 15.213C9.42224 15.213 9.51065 15.186 9.58655 15.13C9.89655 14.9012 10.8184 14.4403 11.2358 14.3295C11.4625 14.2693 11.5976 14.0367 11.5374 13.8099C11.4772 13.5831 11.2449 13.4483 11.0178 13.5083ZM15.807 12.463C16.2958 12.463 16.7605 12.2513 17.0821 11.8822C17.2363 11.7053 17.2179 11.437 17.0409 11.2829C16.864 11.1287 16.5957 11.1472 16.4416 11.3241C16.2814 11.508 16.0501 11.6134 15.807 11.6134C15.564 11.6134 15.3326 11.5079 15.1724 11.3241C15.0182 11.1472 14.7499 11.1288 14.573 11.2829C14.3962 11.4371 14.3777 11.7054 14.5318 11.8823C14.8535 12.2513 15.3183 12.463 15.807 12.463ZM12.1852 10.5505C11.9505 10.5505 11.7604 10.7406 11.7604 10.9753V11.5765C11.7604 11.8111 11.9505 12.0013 12.1852 12.0013C12.4198 12.0013 12.61 11.8111 12.61 11.5765V10.9753C12.61 10.7407 12.4198 10.5505 12.1852 10.5505ZM10.7255 13.0713C10.9575 13.1018 11.1715 12.9385 11.2023 12.7058C11.233 12.4733 11.0693 12.2598 10.8368 12.229C10.2884 12.1566 9.1622 12.2406 8.68971 12.3587C8.46207 12.4157 8.32369 12.6462 8.38056 12.8739C8.42888 13.0669 8.60203 13.1958 8.7924 13.1958C8.82649 13.1958 8.86116 13.1917 8.89571 13.183C9.26942 13.0895 10.2972 13.0146 10.7255 13.0713Z" fill="#151515"/>
</g>
<defs>
<clipPath id="clip0_235_1016">
<rect width="29" height="29" fill="white" transform="translate(0.5 0.5)"/>
</clipPath>
</defs>
</svg>
