<svg width="375" height="812" viewBox="0 0 375 812" fill="none" xmlns="http://www.w3.org/2000/svg">
<g clip-path="url(#clip0_142_8650)">
<g clip-path="url(#clip1_142_8650)">
<path d="M13.504 799.098C21.704 801.875 30.466 795.656 32.5848 786.117C34.6033 777.029 29.9091 768.229 22.1189 766.498C14.3296 764.768 6.35023 770.754 4.33191 779.841C2.36421 788.698 6.63704 796.773 13.504 799.098Z" fill="#696A69" fill-opacity="0.05"/>
<path d="M49.2828 792.658C41.4775 794.315 36.5248 802.247 38.2427 810.341C40.8165 823.082 57.6422 826.919 64.6799 815.481C71.4577 804.599 61.8553 789.974 49.2828 792.658Z" fill="#696A69" fill-opacity="0.05"/>
<path d="M32.7549 835.68C32.5122 824.513 23.671 813.676 12.7711 811.201L11.3996 810.889C0.506928 808.416 -12.1513 814.365 -17.1958 824.339L-18.1319 826.19C-20.0611 830.004 -20.1241 834.411 -18.3045 838.279C-16.4942 842.151 -13.0036 844.93 -8.882 845.855C-4.8806 846.764 -0.715306 845.856 2.54448 843.363L4.69594 841.718C4.9658 841.512 5.35189 841.604 5.50442 841.901L6.73462 844.315C10.5131 852.048 21.1658 854.302 27.7353 848.732C31.0466 846.029 32.8924 842.027 32.7996 837.754L32.7549 835.68Z" fill="#696A69" fill-opacity="0.05"/>
<path d="M107.147 743.856C114.827 740.746 119.79 731.91 118.441 723.727C116.957 714.734 108.418 709.944 99.9723 713.365C92.2924 716.475 87.3297 725.311 88.679 733.494C90.1628 742.49 98.7036 747.275 107.147 743.856Z" fill="#696A69" fill-opacity="0.05"/>
<path d="M141.447 752.621C136.647 746.065 127.374 744.989 120.792 749.807C114.115 754.693 112.517 763.907 117.229 770.346C122.03 776.905 131.3 777.981 137.885 773.161L137.885 773.161C144.474 768.339 146.242 759.173 141.447 752.621Z" fill="#696A69" fill-opacity="0.05"/>
<path d="M49.9155 732.996C54.6293 739.437 63.8953 740.697 70.5709 735.812L70.5713 735.811C86.1659 723.401 70.0052 701.348 53.4774 712.457C46.8011 717.344 45.2028 726.558 49.9155 732.996Z" fill="#696A69" fill-opacity="0.05"/>
<path d="M102.017 785.211C105.931 774.051 100.671 759.858 90.2106 754.118C89.599 753.898 83.1368 749.139 72.5705 750.805C66.7109 751.728 61.4532 754.41 57.7657 758.356L56.3495 759.871C53.4311 762.995 52.1388 767.209 52.8046 771.431C54.1813 780.165 63.2546 785.295 71.4008 782.14C71.4403 782.125 73.9666 781.146 73.9275 781.162C74.2411 781.04 74.589 781.234 74.6518 781.564L75.1584 784.225C75.6932 787.034 77.0738 789.571 79.1505 791.561C80.6319 792.981 82.3635 794.022 84.2277 794.653C91.3847 797.076 99.8764 793.212 102.018 785.211L102.017 785.211Z" fill="#696A69" fill-opacity="0.05"/>
</g>
<g clip-path="url(#clip2_142_8650)">
<path d="M20.1164 617.386C27.1243 622.47 37.3362 619.129 42.1882 610.646C46.8103 602.566 44.9365 592.77 38.0098 588.806C31.0838 584.845 21.6883 588.196 17.0663 596.276C12.5611 604.151 14.2476 613.13 20.1164 617.386Z" fill="#696A69" fill-opacity="0.05"/>
<path d="M-10.4454 583.307C-18.5368 582.561 -25.4836 588.798 -26.2321 596.921C-26.9878 605.116 -21.2309 612.451 -13.1991 613.191C-5.10795 613.937 1.83889 607.7 2.58766 599.577C3.33713 591.445 -2.36186 584.052 -10.4454 583.307Z" fill="#696A69" fill-opacity="0.05"/>
<path d="M56.1957 621.845C48.2503 621.113 41.1683 627.22 40.4092 635.459C39.0894 648.391 54.0209 657.044 64.1335 648.207C73.8331 639.823 68.9987 623.009 56.1957 621.845Z" fill="#696A69" fill-opacity="0.05"/>
<path d="M27.655 658.032C30.7342 647.295 25.5038 634.324 15.8279 628.728L14.6104 628.024C4.94082 622.432 -8.91215 624.361 -16.687 632.39L-18.1297 633.88C-21.1032 636.952 -22.4699 641.141 -21.879 645.375C-21.2981 649.609 -18.7885 653.298 -15.1266 655.404C-11.5746 657.459 -7.32718 657.826 -3.47495 656.412L-0.932523 655.479C-0.613609 655.362 -0.272174 655.564 -0.214697 655.894L0.244532 658.563C1.56026 667.069 11.0657 672.38 18.9912 669.009C22.9552 667.409 25.9044 664.134 27.0828 660.026L27.655 658.032Z" fill="#696A69" fill-opacity="0.05"/>
<path d="M125.928 592.394C134.185 591.701 141.544 584.734 142.682 576.518C143.932 567.49 137.196 560.384 128.116 561.147C119.86 561.839 112.5 568.807 111.362 577.022C110.112 586.054 116.85 593.156 125.928 592.394Z" fill="#696A69" fill-opacity="0.05"/>
<path d="M156.086 610.935C153.446 603.25 144.91 599.473 137.195 602.123C129.369 604.81 125.111 613.135 127.702 620.683C130.343 628.37 138.876 632.146 146.595 629.495L146.594 629.495C154.317 626.844 158.723 618.614 156.086 610.935Z" fill="#696A69" fill-opacity="0.05"/>
<path d="M74.4895 565.054C77.0818 572.602 85.5575 576.553 93.3814 573.866L93.3819 573.866C111.955 566.637 103.06 540.785 83.9811 546.494C76.1562 549.181 71.8978 557.507 74.4895 565.054Z" fill="#696A69" fill-opacity="0.05"/>
<path d="M108.766 630.368C115.814 620.87 114.998 605.756 106.71 597.173C106.191 596.782 101.431 590.32 90.8457 588.778C84.9758 587.922 79.1593 588.925 74.4676 591.601L72.6658 592.628C68.9526 594.745 66.469 598.386 65.8529 602.616C64.5781 611.366 71.7225 618.955 80.4377 618.358C80.4799 618.355 83.1827 618.169 83.1408 618.172C83.4765 618.149 83.7512 618.437 83.7133 618.772L83.4082 621.463C83.0861 624.304 83.6524 627.136 85.0456 629.653C86.0393 631.448 87.3846 632.955 88.9779 634.111C95.0944 638.548 104.35 637.375 108.768 630.369L108.766 630.368Z" fill="#696A69" fill-opacity="0.05"/>
</g>
<g clip-path="url(#clip3_142_8650)">
<path d="M102.456 438.025C107.792 444.843 118.529 444.444 125.531 437.627C132.2 431.133 133.098 421.2 127.532 415.482C121.965 409.765 112.01 410.397 105.341 416.891C98.8401 423.22 97.9872 432.316 102.456 438.025Z" fill="#696A69" fill-opacity="0.05"/>
<path d="M82.4675 396.844C74.895 393.897 66.4985 397.978 63.5406 405.581C60.5564 413.25 64.0691 421.888 71.5863 424.812C79.1586 427.759 87.5551 423.678 90.5131 416.075C93.4742 408.464 90.033 399.787 82.4675 396.844Z" fill="#696A69" fill-opacity="0.05"/>
<path d="M135.91 452.252C128.474 449.359 119.984 453.278 116.984 460.989C112.152 473.057 124.121 485.489 136.277 479.78C147.911 474.394 147.897 456.898 135.91 452.252Z" fill="#696A69" fill-opacity="0.05"/>
<path d="M98.5036 479.174C104.422 469.701 102.968 455.791 95.2086 447.746L94.2323 446.734C86.4777 438.694 72.6296 436.731 62.9433 442.307L61.1459 443.342C57.4413 445.475 54.973 449.126 54.3745 453.359C53.7662 457.589 55.1623 461.827 58.102 464.86C60.9506 467.814 64.9324 469.337 69.0251 469.039L71.7262 468.843C72.065 468.818 72.3374 469.107 72.3019 469.439L72.0077 472.132C70.9289 480.671 78.603 488.396 87.1507 487.339C91.4021 486.893 95.1394 484.558 97.4043 480.933L98.5036 479.174Z" fill="#696A69" fill-opacity="0.05"/>
<path d="M211.058 443.155C219.186 444.763 228.18 440.094 231.538 432.51C235.227 424.175 230.71 415.489 221.771 413.72C213.644 412.111 204.649 416.781 201.292 424.365C197.601 432.702 202.122 441.386 211.058 443.155Z" fill="#696A69" fill-opacity="0.05"/>
<path d="M234.94 469.288C234.52 461.173 227.355 455.19 219.208 455.611C210.945 456.038 204.558 462.868 204.969 470.837C205.389 478.954 212.552 484.936 220.702 484.514L220.702 484.514C228.856 484.093 235.359 477.396 234.94 469.288Z" fill="#696A69" fill-opacity="0.05"/>
<path d="M169.144 402.7C169.556 410.67 176.615 416.803 184.876 416.377L184.877 416.377C204.723 414.545 203.295 387.242 183.382 387.474C175.12 387.901 168.732 394.731 169.144 402.7Z" fill="#696A69" fill-opacity="0.05"/>
<path d="M184.098 474.93C193.49 467.742 196.869 452.988 191.267 442.454C190.876 441.934 188.081 434.412 178.33 430.013C172.923 427.573 167.056 426.934 161.808 428.213L159.793 428.704C155.64 429.716 152.25 432.532 150.492 436.429C146.856 444.488 151.632 453.752 160.175 455.579C160.216 455.588 162.865 456.155 162.824 456.146C163.153 456.216 163.338 456.569 163.21 456.88L162.175 459.383C161.082 462.025 160.846 464.904 161.492 467.707C161.953 469.707 162.831 471.526 164.044 473.076C168.701 479.026 177.922 480.449 184.099 474.931L184.098 474.93Z" fill="#696A69" fill-opacity="0.05"/>
</g>
<g clip-path="url(#clip4_142_8650)">
<path d="M142.701 292.121C149.873 296.969 159.969 293.292 164.537 284.653C168.889 276.424 166.692 266.695 159.638 262.964C152.584 259.234 143.305 262.894 138.953 271.123C134.711 279.143 136.694 288.061 142.701 292.121Z" fill="#696A69" fill-opacity="0.05"/>
<path d="M111.027 259.072C102.915 258.594 96.1788 265.058 95.6997 273.202C95.2158 281.417 101.212 288.558 109.264 289.031C117.376 289.509 124.112 283.045 124.592 274.902C125.071 266.749 119.131 259.549 111.027 259.072Z" fill="#696A69" fill-opacity="0.05"/>
<path d="M178.908 295.382C170.942 294.913 164.067 301.251 163.581 309.511C162.69 322.479 177.9 330.633 187.714 321.466C197.131 312.766 191.742 296.121 178.908 295.382Z" fill="#696A69" fill-opacity="0.05"/>
<path d="M151.581 332.494C154.303 321.661 148.646 308.87 138.79 303.598L137.55 302.935C127.7 297.666 113.919 300.053 106.414 308.335L105.022 309.872C102.151 313.04 100.924 317.273 101.655 321.485C102.376 325.697 105.006 329.301 108.736 331.285C112.354 333.22 116.611 333.447 120.414 331.906L122.925 330.889C123.239 330.762 123.587 330.953 123.656 331.28L124.203 333.933C125.8 342.391 135.476 347.384 143.285 343.752C147.194 342.021 150.033 338.651 151.075 334.506L151.581 332.494Z" fill="#696A69" fill-opacity="0.05"/>
<path d="M247.626 263.638C255.856 262.672 262.98 255.465 263.845 247.216C264.796 238.151 257.829 231.272 248.779 232.335C240.55 233.301 233.425 240.508 232.56 248.757C231.609 257.825 238.579 264.7 247.626 263.638Z" fill="#696A69" fill-opacity="0.05"/>
<path d="M278.382 281.17C275.489 273.577 266.832 270.085 259.209 272.988C251.477 275.933 247.497 284.395 250.337 291.852C253.23 299.448 261.884 302.939 269.51 300.034L269.51 300.034C277.141 297.129 281.272 288.757 278.382 281.17Z" fill="#696A69" fill-opacity="0.05"/>
<path d="M195.311 238.016C198.152 245.474 206.753 249.142 214.484 246.198L214.485 246.198C232.808 238.358 223.061 212.814 204.183 219.152C196.451 222.097 192.471 230.559 195.311 238.016Z" fill="#696A69" fill-opacity="0.05"/>
<path d="M231.732 302.159C238.461 292.433 237.145 277.355 228.577 269.051C228.046 268.677 223.074 262.377 212.444 261.186C206.549 260.525 200.769 261.72 196.168 264.549L194.401 265.635C190.76 267.875 188.399 271.596 187.923 275.844C186.939 284.631 194.33 291.979 203.021 291.094C203.063 291.09 205.758 290.815 205.716 290.819C206.051 290.785 206.335 291.064 206.308 291.399L206.093 294.099C205.865 296.949 206.525 299.761 208 302.23C209.053 303.992 210.447 305.453 212.078 306.555C218.338 310.787 227.55 309.308 231.733 302.16L231.732 302.159Z" fill="#696A69" fill-opacity="0.05"/>
</g>
<g clip-path="url(#clip5_142_8650)">
<path d="M132.884 140.421C139.358 146.168 149.849 143.847 155.512 135.883C160.906 128.296 160.005 118.363 153.501 113.738C146.998 109.115 137.319 111.526 131.925 119.113C126.667 126.507 127.462 135.608 132.884 140.421Z" fill="#696A69" fill-opacity="0.05"/>
<path d="M105.821 103.502C97.8426 101.964 90.3162 107.487 88.7726 115.498C87.2149 123.578 92.2226 131.444 100.143 132.97C108.121 134.508 115.648 128.984 117.192 120.974C118.737 112.955 113.793 105.037 105.821 103.502Z" fill="#696A69" fill-opacity="0.05"/>
<path d="M168.351 148.405C160.516 146.895 152.867 152.276 151.302 160.401C148.717 173.14 162.725 183.219 173.658 175.419C184.135 168.03 180.977 150.822 168.351 148.405Z" fill="#696A69" fill-opacity="0.05"/>
<path d="M136.39 181.61C140.51 171.228 136.58 157.805 127.502 151.286L126.359 150.465C117.286 143.95 103.311 144.507 94.7842 151.733L93.2019 153.074C89.9408 155.838 88.1688 159.873 88.3406 164.145C88.5023 168.416 90.6371 172.333 94.0741 174.789C97.407 177.183 101.598 177.966 105.57 176.938L108.192 176.259C108.521 176.174 108.841 176.409 108.866 176.742L109.06 179.444C109.533 188.038 118.47 194.258 126.689 191.682C130.791 190.479 134.048 187.511 135.625 183.538L136.39 181.61Z" fill="#696A69" fill-opacity="0.05"/>
<path d="M240.641 125.953C248.925 126.075 256.934 119.865 258.874 111.801C261.006 102.94 255.002 95.2058 245.89 95.072C237.606 94.9497 229.597 101.16 227.657 109.223C225.525 118.088 231.532 125.819 240.641 125.953Z" fill="#696A69" fill-opacity="0.05"/>
<path d="M268.83 147.369C266.958 139.462 258.834 134.864 250.896 136.742C242.844 138.647 237.788 146.513 239.625 154.279C241.497 162.188 249.618 166.785 257.559 164.906L257.559 164.906C265.505 163.027 270.699 155.27 268.83 147.369Z" fill="#696A69" fill-opacity="0.05"/>
<path d="M192.14 93.6875C193.977 101.454 202.023 106.219 210.073 104.315L210.074 104.315C229.268 98.9475 222.957 72.3454 203.41 76.151C195.359 78.0558 190.302 85.9229 192.14 93.6875Z" fill="#696A69" fill-opacity="0.05"/>
<path d="M219.828 162.056C227.776 153.297 228.45 138.176 221.046 128.82C220.568 128.379 216.466 121.481 206.084 118.906C200.327 117.477 194.44 117.903 189.508 120.104L187.614 120.949C183.71 122.691 180.881 126.07 179.851 130.22C177.723 138.801 184.086 147.056 192.818 147.318C192.86 147.32 195.568 147.401 195.526 147.4C195.862 147.41 196.108 147.723 196.037 148.052L195.469 150.701C194.869 153.496 195.154 156.37 196.293 159.012C197.105 160.896 198.296 162.528 199.768 163.835C205.418 168.852 214.745 168.594 219.83 162.057L219.828 162.056Z" fill="#696A69" fill-opacity="0.05"/>
</g>
<g clip-path="url(#clip6_142_8650)">
<path d="M166.884 -8.57939C173.358 -2.83153 183.849 -5.15258 189.512 -13.1168C194.906 -20.7037 194.005 -30.6367 187.501 -35.2616C180.998 -39.8852 171.319 -37.4741 165.925 -29.8874C160.667 -22.4935 161.462 -13.3923 166.884 -8.57939Z" fill="#696A69" fill-opacity="0.05"/>
<path d="M202.351 -0.595128C194.516 -2.10498 186.867 3.27629 185.302 11.4007C182.717 24.1403 196.725 34.2195 207.658 26.4194C218.135 19.0304 214.977 1.82228 202.351 -0.595128Z" fill="#696A69" fill-opacity="0.05"/>
<path d="M170.39 32.6104C174.51 22.2283 170.58 8.80539 161.502 2.28566L160.359 1.46538C151.286 -5.04993 137.311 -4.49289 128.784 2.73328L127.202 4.07421C123.941 6.83811 122.169 10.8732 122.341 15.1445C122.502 19.4155 124.637 23.3333 128.074 25.7892C131.407 28.1827 135.598 28.9658 139.57 27.9376L142.192 27.259C142.521 27.1739 142.841 27.4088 142.866 27.7422L143.06 30.4443C143.533 39.0382 152.47 45.258 160.689 42.6822C164.791 41.4795 168.048 38.511 169.625 34.5381L170.39 32.6104Z" fill="#696A69" fill-opacity="0.05"/>
<path d="M302.83 -1.63079C300.958 -9.53823 292.834 -14.1361 284.896 -12.2579C276.844 -10.3533 271.788 -2.48661 273.625 5.27867C275.497 13.1881 283.618 17.7851 291.559 15.9059L291.559 15.9057C299.505 14.0268 304.699 6.26995 302.83 -1.63079Z" fill="#696A69" fill-opacity="0.05"/>
<path d="M253.828 13.0558C261.776 4.29708 262.45 -10.8239 255.046 -20.1803C254.568 -20.6209 250.466 -27.5191 240.084 -30.0944C234.327 -31.5232 228.44 -31.0971 223.508 -28.8961L221.614 -28.0512C217.71 -26.3088 214.881 -22.9295 213.851 -18.7805C211.723 -10.1989 218.086 -1.94408 226.818 -1.68157C226.86 -1.68021 229.568 -1.59897 229.526 -1.60012C229.862 -1.59049 230.108 -1.27658 230.037 -0.947559L229.469 1.70053C228.869 4.49629 229.154 7.37045 230.293 10.0119C231.105 11.8964 232.296 13.5284 233.768 14.8347C239.418 19.8516 248.745 19.5943 253.83 13.0566L253.828 13.0558Z" fill="#696A69" fill-opacity="0.05"/>
</g>
</g>
<defs>
<clipPath id="clip0_142_8650">
<rect width="375" height="812" fill="white"/>
</clipPath>
<clipPath id="clip1_142_8650">
<rect width="164" height="164" fill="white" transform="translate(0.606628 676) rotate(18.7096)"/>
</clipPath>
<clipPath id="clip2_142_8650">
<rect width="164" height="164" fill="white" transform="translate(44.2973 496) rotate(35.957)"/>
</clipPath>
<clipPath id="clip3_142_8650">
<rect width="164" height="164" fill="white" transform="translate(159.147 328) rotate(51.9511)"/>
</clipPath>
<clipPath id="clip4_142_8650">
<rect width="164" height="164" fill="white" transform="translate(162.848 170) rotate(34.0593)"/>
</clipPath>
<clipPath id="clip5_142_8650">
<rect width="164" height="164" fill="white" transform="translate(168.883 22) rotate(41.5997)"/>
</clipPath>
<clipPath id="clip6_142_8650">
<rect width="164" height="164" fill="white" transform="translate(202.883 -127) rotate(41.5997)"/>
</clipPath>
</defs>
</svg>
