<svg width="66" height="66" viewBox="0 0 66 66" fill="none" xmlns="http://www.w3.org/2000/svg">
<g clip-path="url(#clip0_716_15691)">
<path d="M36.2027 62.4967L54.2889 59.4389C55.4943 59.2351 55.9244 57.7245 55.0069 56.9164L53.8009 55.8541C53.4436 55.5394 53.4558 54.9787 53.8264 54.6797L62.9544 47.3175C63.9133 46.5441 63.5347 45.003 62.3265 44.7621L55.845 43.4693C55.2904 43.3587 55.0415 42.7071 55.3809 42.2549L64.7399 29.7862C65.4384 28.8556 64.8141 27.5226 63.652 27.4633L55.3469 27.0395C54.7825 27.0107 54.4413 26.4028 54.7108 25.906L63.0405 10.5534C63.626 9.47421 62.6918 8.20049 61.4867 8.43458L42.1967 12.1817C41.8984 12.2398 41.5939 12.1163 41.42 11.867L34.2915 1.64085C33.665 0.742114 32.3348 0.742114 31.7083 1.64085L24.5798 11.867C24.4061 12.1163 24.1016 12.2396 23.8033 12.1817L4.51305 8.43484C3.30778 8.20074 2.37373 9.47459 2.95922 10.5537L11.2889 25.9062C11.5584 26.403 11.2173 27.0108 10.6528 27.0397L2.34769 27.4636C1.18573 27.5229 0.561436 28.856 1.25985 29.7864L10.6188 42.2551C10.9582 42.7073 10.7093 43.359 10.1547 43.4696L3.67323 44.7624C2.46499 45.0033 2.08639 46.5444 3.04533 47.3178L12.1733 54.68C12.5439 54.9789 12.5561 55.5395 12.1988 55.8543L10.9928 56.9166C10.0755 57.7246 10.5055 59.2354 11.7108 59.4392L29.7971 62.497C31.9173 62.8552 34.0825 62.8552 36.2027 62.4967Z" fill="#78CFC0"/>
<path d="M6.20862 56.0455C5.88146 56.0455 5.55056 55.9552 5.25446 55.7658C4.42869 55.2379 4.18738 54.1407 4.71512 53.3149C5.96847 51.3546 7.84173 50.1195 10.1325 49.7428C12.2546 49.3941 14.7716 49.7661 17.6144 50.8491C20.5822 51.9789 22.03 50.4177 24.7681 47.0648L24.8688 46.9414C25.4888 46.1825 26.6068 46.0699 27.3657 46.6898C28.1247 47.3099 28.2372 48.4277 27.6172 49.1867L27.5169 49.3095C26.1365 51 24.8326 52.5966 23.1501 53.6445C21.0643 54.9434 18.8404 55.1139 16.3509 54.1657C14.1021 53.3088 12.2037 52.9988 10.7082 53.2449C9.40291 53.4595 8.42065 54.1078 7.70522 55.2268C7.36671 55.7563 6.79373 56.0455 6.20862 56.0455Z" fill="#EDA751"/>
<path d="M5.5296 52.2407C5.23531 52.5703 4.96267 52.9279 4.71517 53.315C4.1873 54.1407 4.42874 55.238 5.25452 55.7659C5.55061 55.9553 5.88151 56.0456 6.20868 56.0456C6.79391 56.0456 7.36677 55.7562 7.70541 55.2267C7.88742 54.9418 8.0871 54.6879 8.30469 54.4635C7.74408 53.3462 6.64567 52.6106 5.5296 52.2407Z" fill="#FCD79D"/>
<path d="M40.5439 65.0332C40.2297 65.0332 39.9106 64.9806 39.5976 64.87C38.1191 64.3474 37.3444 62.7252 37.867 61.2468C39.0743 57.832 36.7062 55.9919 36.6048 55.9154C35.3539 54.9699 35.1065 53.1893 36.052 51.9385C36.9977 50.6876 38.7782 50.4402 40.0289 51.3857C42.9146 53.5671 45.0206 58.0475 43.2206 63.1394C42.8087 64.3048 41.7133 65.0332 40.5439 65.0332Z" fill="#EDA751"/>
<path d="M25.4571 65.0331C24.2877 65.0331 23.1924 64.3049 22.7803 63.1396C20.9801 58.0476 23.0862 53.5672 25.972 51.3859C27.2228 50.4401 29.0033 50.6877 29.949 51.9386C30.8945 53.1895 30.647 54.9701 29.3962 55.9155C29.2948 55.9922 26.9267 57.8321 28.134 61.2468C28.6566 62.7252 27.8819 64.3474 26.4036 64.8701C26.0907 64.9805 25.7712 65.0331 25.4571 65.0331Z" fill="#EDA751"/>
<path d="M47.9421 47.1078C45.9968 47.1078 43.9495 46.6968 41.9172 45.89C40.4599 45.3114 39.7476 43.6608 40.3261 42.2034C40.9049 40.7463 42.5554 40.0343 44.0127 40.6123C45.436 41.1776 50.2633 42.7363 52.6219 39.0651C53.4696 37.7459 55.2258 37.3637 56.5453 38.211C57.8645 39.0585 58.2469 40.8151 57.3994 42.1343C55.7164 44.7537 53.1859 46.4132 50.0812 46.9336C49.3866 47.05 48.6715 47.1078 47.9421 47.1078Z" fill="#EDA751"/>
<path d="M18.0587 47.1078C17.3291 47.1078 16.6142 47.0501 15.9195 46.9337C12.8147 46.4134 10.2841 44.7539 8.60123 42.1343C7.75368 40.815 8.13601 39.0586 9.45537 38.211C10.7746 37.3636 12.5311 37.7459 13.3786 39.0653C15.7371 42.7364 20.5645 41.1778 21.988 40.6124C23.4454 40.0342 25.0959 40.7462 25.6744 42.2035C26.2531 43.6609 25.5408 45.3114 24.0834 45.8901C22.0514 46.697 20.0037 47.1078 18.0587 47.1078Z" fill="#EDA751"/>
<path opacity="0.2" d="M44.0127 40.6125C42.5554 40.0344 40.9049 40.7465 40.3261 42.2036C39.7476 43.661 40.4599 45.3115 41.9172 45.8902C43.9495 46.697 45.9968 47.108 47.9421 47.108C48.2119 47.108 48.4791 47.0974 48.7447 47.0816C48.8695 46.3262 48.9347 45.5526 48.9347 44.7649C48.9347 43.6105 48.7953 42.4863 48.5321 41.4061C46.6462 41.5465 44.8038 40.9267 44.0127 40.6125Z" fill="#A35F00"/>
<path opacity="0.2" d="M40.0289 51.3858C38.7782 50.4402 36.9976 50.6876 36.0521 51.9386C35.1064 53.1895 35.3539 54.97 36.6048 55.9154C36.6805 55.9727 38.0175 57.012 38.1902 58.9544C40.1098 58.33 41.8642 57.3694 43.3737 56.1472C42.7094 54.1289 41.4661 52.4722 40.0289 51.3858Z" fill="#A35F00"/>
<path opacity="0.2" d="M25.9717 51.3858C24.5345 52.4721 23.2912 54.1289 22.627 56.1472C24.1366 57.3692 25.891 58.3298 27.8105 58.9544C27.9833 57.012 29.3203 55.9727 29.3959 55.9154C30.6468 54.9699 30.8942 53.1893 29.9487 51.9386C29.0029 50.6876 27.2225 50.4402 25.9717 51.3858Z" fill="#A35F00"/>
<path opacity="0.2" d="M27.3663 46.69C26.6075 46.0701 25.4896 46.1828 24.8694 46.9416L24.7688 47.065C22.3424 50.0364 20.9284 51.5989 18.5728 51.1302C19.1987 52.3837 20.0025 53.5433 20.9549 54.5789C21.7063 54.3983 22.4368 54.0892 23.1507 53.6448C24.8333 52.5969 26.1372 51.0003 27.5175 49.3098L27.6178 49.1869C28.2379 48.4279 28.1252 47.3101 27.3663 46.69Z" fill="#A35F00"/>
<path opacity="0.2" d="M21.9879 40.6126C21.1968 40.9268 19.3543 41.5465 17.4685 41.4061C17.2053 42.4863 17.0659 43.6105 17.0659 44.7649C17.0659 45.5526 17.1311 46.3262 17.2559 47.0816C17.5216 47.0974 17.7887 47.108 18.0586 47.108C20.0038 47.108 22.0514 46.6971 24.0834 45.8902C25.5408 45.3116 26.2532 43.6611 25.6745 42.2037C25.0959 40.7462 23.4453 40.0344 21.9879 40.6126Z" fill="#A35F00"/>
<path d="M32.9999 56.9339C40.2323 56.9339 46.0954 51.4858 46.0954 44.7652C46.0954 38.0446 40.2323 32.5964 32.9999 32.5964C25.7674 32.5964 19.9043 38.0446 19.9043 44.7652C19.9043 51.4858 25.7674 56.9339 32.9999 56.9339Z" fill="#FCD690"/>
<path opacity="0.15" d="M31.0876 56.8034C25.1036 52.8746 26.9581 44.8222 27.9739 41.3007V33.5254C23.2361 35.3569 19.9048 39.699 19.9048 44.7646C19.9047 50.8813 24.7618 55.9433 31.0876 56.8034Z" fill="#C17A00"/>
<path d="M21.0483 49.7437C23.096 53.9816 27.6771 56.9331 33.0002 56.9331C38.3234 56.9331 42.9045 53.9816 44.9522 49.7437H21.0483Z" fill="#82C7E6"/>
<path opacity="0.1" d="M31.0879 56.8036C28.3817 55.0269 27.2788 52.4067 26.9763 49.7437H21.0483C22.8462 53.4644 26.5968 56.1928 31.0879 56.8036Z" fill="#151515"/>
<path d="M25.031 23.6647C27.5934 21.5146 29.3043 17.9051 25.69 12.5694C22.0471 7.19144 16.6235 5.84347 12.3892 6.34234C11.3453 6.46531 10.4694 7.20034 10.167 8.20696C8.94047 12.2903 9.32629 17.8656 13.9898 22.387C18.6169 26.8729 22.4686 25.8149 25.031 23.6647Z" fill="#EDA751"/>
<path d="M9.99656 8.83179C8.99097 12.8466 9.55957 18.0919 13.9898 22.387C18.0005 26.2753 21.4278 25.9974 23.9387 24.4546C22.2118 12.7316 14.6681 9.62301 9.99656 8.83179Z" fill="#FF91AB"/>
<path d="M40.9691 23.6647C38.4067 21.5146 36.6959 17.9051 40.3101 12.5694C43.953 7.19144 49.3767 5.84347 53.6109 6.34234C54.6548 6.46531 55.5307 7.20034 55.8331 8.20696C57.0596 12.2903 56.6738 17.8656 52.0103 22.387C47.3832 26.8729 43.5315 25.8149 40.9691 23.6647Z" fill="#EDA751"/>
<path d="M56.0041 8.83179C57.0097 12.8466 56.4411 18.0919 52.0108 22.387C48.0003 26.2753 44.5728 25.9974 42.062 24.4546C43.7888 12.7316 51.3324 9.62301 56.0041 8.83179Z" fill="#FF91AB"/>
<path d="M55.2942 26.9103C55.2942 37.1039 45.3127 41.5686 32.9999 41.5686C20.687 41.5686 10.7056 37.1039 10.7056 26.9103C10.7056 16.7166 20.687 8.45312 32.9999 8.45312C45.3127 8.45312 55.2942 16.7166 55.2942 26.9103Z" fill="#7694E4"/>
<path d="M12.0663 20.5466C11.1863 22.5304 10.7056 24.6737 10.7056 26.9099C10.7056 29.3135 11.261 31.3982 12.2705 33.1812C14.1324 32.2786 15.4692 29.8127 15.4692 26.9099C15.4693 23.9022 14.034 21.3629 12.0663 20.5466Z" fill="#F5D141"/>
<path d="M53.9337 20.5466C54.8138 22.5304 55.2945 24.6737 55.2945 26.9099C55.2945 29.3135 54.739 31.3982 53.7294 33.1812C51.8675 32.2786 50.5308 29.8127 50.5308 26.9099C50.5306 23.9022 51.966 21.3629 53.9337 20.5466Z" fill="#F5D141"/>
<path opacity="0.1" d="M21.0958 11.3027C14.852 14.5736 10.7056 20.3407 10.7056 26.9102C10.7056 35.6729 18.0816 40.202 27.9739 41.301C13.7738 32.8188 15.6258 21.4095 21.0958 11.3027Z" fill="#151515"/>
<path d="M22.0598 30.5543C24.2896 30.5543 26.0971 29.1151 26.0971 27.3397C26.0971 25.5643 24.2896 24.125 22.0598 24.125C19.83 24.125 18.0225 25.5643 18.0225 27.3397C18.0225 29.1151 19.83 30.5543 22.0598 30.5543Z" fill="#FF91AB"/>
<path d="M43.9402 30.5543C46.1699 30.5543 47.9775 29.1151 47.9775 27.3397C47.9775 25.5643 46.1699 24.125 43.9402 24.125C41.7104 24.125 39.9028 25.5643 39.9028 27.3397C39.9028 29.1151 41.7104 30.5543 43.9402 30.5543Z" fill="#FF91AB"/>
<path d="M21.1214 22.8198C20.7769 24.7069 22.0887 26.5132 24.0232 26.7434C25.6808 26.9407 27.2582 25.8502 27.659 24.2297C28.1268 22.3385 26.9003 20.4734 25.0132 20.129L22.6129 19.6909C22.1291 19.6026 21.6649 19.9218 21.5742 20.4052L21.1214 22.8198Z" fill="#FFDC9C"/>
<path d="M44.8787 22.8198C45.2232 24.7069 43.9114 26.5132 41.9769 26.7434C40.3193 26.9407 38.7419 25.8502 38.341 24.2297C37.8732 22.3385 39.0996 20.4734 40.9868 20.129L43.387 19.6909C43.8708 19.6026 44.335 19.9218 44.4257 20.4052L44.8787 22.8198Z" fill="#FFDC9C"/>
<path d="M29.6152 28.0972C29.6152 29.9668 31.1308 30.7251 33.0003 30.7251C34.8698 30.7251 36.3854 29.9668 36.3854 28.0972C36.3854 26.2277 34.8698 24.7122 33.0003 24.7122C31.1308 24.7122 29.6152 26.2277 29.6152 28.0972Z" fill="#FF91AB"/>
<path d="M21.5273 51.7071H44.4729C45.1095 51.7071 45.7022 51.3637 46.0011 50.8018C46.2941 50.2513 46.5483 49.6796 46.7605 49.0898C46.99 48.4519 46.5089 47.7803 45.831 47.7803H20.1691C19.4912 47.7803 19.0101 48.4519 19.2396 49.0898C19.4516 49.6794 19.706 50.2511 19.999 50.8018C20.298 51.3637 20.8907 51.7071 21.5273 51.7071Z" fill="#495059"/>
<path d="M33 54.5126C36.5514 54.5126 39.4303 52.3774 39.4303 49.7435C39.4303 47.1096 36.5514 44.9744 33 44.9744C29.4487 44.9744 26.5698 47.1096 26.5698 49.7435C26.5698 52.3774 29.4487 54.5126 33 54.5126Z" fill="#B77866"/>
<path opacity="0.1" d="M33.0002 51.5279C34.8337 51.5279 36.3201 50.729 36.3201 49.7435C36.3201 48.7581 34.8337 47.9592 33.0002 47.9592C31.1666 47.9592 29.6802 48.7581 29.6802 49.7435C29.6802 50.729 31.1666 51.5279 33.0002 51.5279Z" fill="#151515"/>
<path d="M21.2255 5.55018C21.4054 5.85813 21.7289 6.02971 22.0614 6.02971C22.2269 6.02971 22.3947 5.98717 22.5479 5.89771C23.009 5.62855 23.1645 5.03649 22.8954 4.57539L21.4438 2.08892C21.1745 1.6277 20.5823 1.47236 20.1215 1.74152C19.6604 2.01068 19.5048 2.60274 19.7739 3.06384L21.2255 5.55018ZM43.4531 5.89771C43.6063 5.98704 43.774 6.02958 43.9396 6.02958C44.272 6.02958 44.5957 5.85788 44.7753 5.55005L46.227 3.06358C46.4961 2.60248 46.3406 2.01042 45.8795 1.74113C45.4182 1.47224 44.8263 1.62757 44.5571 2.08866L43.1054 4.57513C42.8364 5.03636 42.992 5.62842 43.4531 5.89771ZM4.72557 23.3975C4.91377 23.5826 5.15844 23.6746 5.4031 23.6746C5.65331 23.6746 5.90352 23.5781 6.09288 23.3854C6.46709 23.0046 6.46168 22.3924 6.08076 22.0183L3.88124 19.8572C3.50032 19.4829 2.88827 19.4884 2.51406 19.8693C2.13985 20.2501 2.14526 20.8623 2.52618 21.2364L4.72557 23.3975ZM65.7698 27.8883C65.3896 27.0764 64.5971 26.5437 63.7019 26.498L56.2411 26.1173C56.227 25.8221 56.2051 25.528 56.1754 25.2354L63.8909 11.0149C64.342 10.1834 64.2749 9.19293 63.7154 8.4302C63.156 7.66733 62.2317 7.30549 61.3029 7.48596L56.8782 8.34538C56.8407 8.20641 56.8012 8.06771 56.7596 7.92914C56.3456 6.55062 55.1544 5.55095 53.7248 5.38247C49.4634 4.88077 45.2682 6.20631 42.1149 9.02845C41.4889 8.80609 40.8517 8.60641 40.2039 8.4311L35.0851 1.08797C34.9071 0.832475 34.6862 0.615655 34.4358 0.444339C34.0186 0.158812 33.5196 0 33.0005 0C32.1699 0 31.3907 0.406698 30.9158 1.08797L25.7969 8.43097C25.1492 8.60628 24.5119 8.80596 23.886 9.02832C20.733 6.20605 16.5381 4.87999 12.2762 5.38234C10.8467 5.55082 9.65532 6.55036 9.24115 7.92901C9.19951 8.06745 9.16007 8.20629 9.12256 8.34525L4.69799 7.48583C3.76935 7.30497 2.84483 7.66733 2.28551 8.4302C1.72619 9.19306 1.6589 10.1834 2.10994 11.0148L9.82548 25.2357C9.79583 25.5279 9.77392 25.8216 9.75987 26.1164L2.29905 26.498C1.40379 26.5437 0.611408 27.0762 0.231135 27.888C-0.149138 28.7 -0.0510401 29.6498 0.487143 30.3668L1.83782 32.1663C2.02783 32.4195 2.31799 32.5529 2.61177 32.5528C2.81364 32.5528 3.01744 32.4897 3.19146 32.3591C3.61853 32.0387 3.70477 31.4326 3.38431 31.0056L2.0335 29.2061C1.87533 28.9953 1.94494 28.7878 1.98207 28.7083C2.01932 28.6289 2.1343 28.4425 2.3974 28.4292L9.78217 28.0523C10.1186 32.6514 12.5067 36.3839 16.7431 38.8938C17.627 39.4175 18.5885 39.8869 19.6208 40.3007C17.7443 40.6622 15.4838 40.5538 14.192 38.543C13.0578 36.7775 10.6988 36.2636 8.93281 37.398C8.76149 37.508 8.60229 37.6299 8.45495 37.7613L6.07625 34.5919C5.75566 34.1647 5.14967 34.0788 4.72274 34.3991C4.29567 34.7195 4.20943 35.3257 4.52989 35.7526L7.34752 39.5063C7.03969 40.5344 7.16396 41.6855 7.78799 42.6571C7.84574 42.7469 7.90697 42.8326 7.96653 42.9203L3.48472 43.8141C2.55376 43.9997 1.83485 44.6877 1.60824 45.6097C1.38175 46.5313 1.70002 47.4743 2.43891 48.0702L5.71634 50.7137C5.02554 51.2935 4.4162 51.9888 3.90096 52.7945C3.08692 54.0681 3.46075 55.7665 4.73395 56.5806C5.17597 56.8631 5.68592 57.0127 6.20889 57.0127C7.14978 57.0127 8.01384 56.5399 8.52018 55.7477C8.96387 55.0534 9.51791 54.6021 10.2331 54.3568L11.3832 55.2846L10.354 56.191C9.6472 56.8137 9.36838 57.7632 9.62619 58.6691C9.88413 59.5751 10.6212 60.2353 11.5499 60.3925L21.4627 62.0684C21.5701 62.5344 21.7051 62.9996 21.8685 63.4618C22.4054 64.98 23.8474 66 25.4568 66C25.8882 66 26.315 65.9265 26.7253 65.7816C27.6839 65.4427 28.4529 64.7509 28.8911 63.8335C28.9656 63.6775 29.0281 63.5181 29.0803 63.3563L29.636 63.4501C30.7522 63.639 31.8759 63.7332 32.9999 63.7332C34.1237 63.7332 35.2478 63.639 36.3639 63.4502L36.9196 63.3563C36.9718 63.5181 37.0343 63.6775 37.1088 63.8335C37.547 64.7508 38.3162 65.4426 39.2746 65.7814C39.6845 65.9264 40.1113 65.9999 40.5433 65.9999C42.1528 65.9999 43.5949 64.98 44.1316 63.4617C44.2951 62.9993 44.43 62.5342 44.5374 62.0682L54.4503 60.3923C55.3791 60.2352 56.1161 59.5749 56.3741 58.669C56.6319 57.7632 56.3531 56.8135 55.6462 56.1909L54.6171 55.2844L57.7031 52.7954C58.1187 52.4601 58.1839 51.8515 57.8486 51.4358C57.5132 51.0204 56.9049 50.955 56.4891 51.2903L53.2196 53.9274C52.8207 54.2492 52.5854 54.7277 52.5743 55.2402C52.5632 55.7528 52.7774 56.2409 53.1621 56.5797L54.3682 57.642C54.5758 57.825 54.5395 58.051 54.5144 58.1397C54.4891 58.2285 54.4009 58.4397 54.128 58.4858L44.8278 60.0581C44.9609 57.8113 44.4472 55.6126 43.3157 53.6885C43.6356 53.3662 43.9398 53.0281 44.2262 52.6738H44.473C45.4765 52.6738 46.3892 52.1305 46.8545 51.256C47.1702 50.6626 47.4446 50.0441 47.6702 49.4169C47.8285 48.9767 47.819 48.4983 47.6553 48.0694C47.7508 48.0714 47.847 48.0747 47.9417 48.0747C48.7245 48.0747 49.498 48.0117 50.2406 47.8873C52.7679 47.4638 54.9459 46.3458 56.651 44.6162L62.1376 45.7105C62.4111 45.765 62.4924 45.9808 62.5145 46.071C62.5367 46.1612 62.5648 46.3902 62.3476 46.5652L60.0145 48.447C59.5989 48.7823 59.5337 49.3909 59.869 49.8066C60.06 50.0434 60.3398 50.1664 60.6222 50.1664C60.8351 50.1664 61.0498 50.0962 61.2286 49.9521L63.5615 48.0703C64.3004 47.4744 64.6187 46.5315 64.3922 45.6097C64.1657 44.6878 63.4466 43.9999 62.5157 43.8141L58.034 42.9203C58.0936 42.8325 58.1548 42.7468 58.2125 42.6571C58.8366 41.6855 58.9608 40.5345 58.653 39.5065L65.5133 30.367C66.052 29.6499 66.1499 28.7001 65.7698 27.8883ZM57.2611 10.2406L61.6716 9.38397C61.9445 9.33099 62.1014 9.49908 62.1562 9.57359C62.2109 9.64823 62.324 9.84842 62.1914 10.0927L55.5932 22.2541C55.4088 21.624 55.1873 21.0037 54.9288 20.3949C56.9371 17.3751 57.7472 13.794 57.2611 10.2406ZM53.9037 18.3621C52.7746 16.4394 51.2569 14.6669 49.3815 13.1144C49.2772 13.028 49.1713 12.9435 49.0654 12.859C51.1555 11.2043 53.4304 10.3767 55.2543 9.96534C55.6077 11.9932 55.6779 15.1358 53.9037 18.3621ZM53.4985 7.30253C54.02 7.36401 54.4723 7.66436 54.736 8.10032C52.5853 8.59687 49.8888 9.61252 47.4497 11.6825C46.4058 10.9896 45.3007 10.3774 44.145 9.84984C47.8185 7.01468 51.8331 7.10659 53.4985 7.30253ZM32.5021 2.19385C32.6657 1.95886 32.9051 1.93359 33.0005 1.93359C33.0839 1.93359 33.2776 1.95293 33.4345 2.11522C33.4569 2.13842 33.4786 2.16446 33.4991 2.19385L37.4329 7.8371C35.9871 7.60558 34.5047 7.48622 33.0006 7.48622C31.4964 7.48622 30.014 7.60558 28.5682 7.8371L32.5021 2.19385ZM12.5025 7.30253C14.1682 7.10646 18.1826 7.01468 21.856 9.84984C20.7004 10.3774 19.5951 10.9895 18.5514 11.6825C16.1121 9.61252 13.4156 8.59687 11.2651 8.10032C11.5286 7.66436 11.9809 7.36401 12.5025 7.30253ZM10.7466 9.96521C12.5705 10.3765 14.8455 11.2041 16.9356 12.859C16.8296 12.9435 16.7238 13.028 16.6195 13.1144C14.744 14.6671 13.2263 16.4395 12.0972 18.3623C10.3231 15.1359 10.3932 11.9932 10.7466 9.96521ZM10.4077 22.2539L3.80957 10.0926C3.67705 9.84829 3.7901 9.64823 3.84489 9.57359C3.89954 9.49883 4.05616 9.32996 4.32944 9.38384L8.73983 10.2406C8.25386 13.7941 9.06378 17.3752 11.0721 20.395C10.8137 21.0037 10.5921 21.624 10.4077 22.2539ZM17.7288 37.23C13.7432 34.8686 11.7075 31.4331 11.6745 27.0187C11.6744 27.0151 11.6745 27.0115 11.6744 27.0079C11.6741 26.9751 11.673 26.943 11.673 26.9102C11.673 17.2661 21.2405 9.41981 33.0005 9.41981C44.7604 9.41981 54.328 17.2659 54.328 26.9102C54.328 26.9367 54.3269 26.9628 54.3268 26.9893C54.3258 27.0101 54.3255 27.0307 54.3259 27.0512C54.2831 31.45 52.2479 34.8744 48.272 37.23C47.1916 37.8701 45.9794 38.422 44.6505 38.8839C44.6407 38.8872 44.631 38.8902 44.6213 38.8939C41.3766 40.0171 37.4361 40.6017 33.0003 40.6017C28.5645 40.6017 24.6241 40.0171 21.3795 38.894C21.3695 38.8903 21.3596 38.8872 21.3497 38.8839C20.0213 38.4219 18.8091 37.87 17.7288 37.23ZM33.0005 44.0077C30.3016 44.0077 27.9366 45.1349 26.6448 46.8135H21.0754C20.9407 46.1402 20.8721 45.4539 20.8721 44.7647C20.8721 43.4634 21.1097 42.1978 21.5782 40.9913C24.8611 42.0079 28.7227 42.5352 33.0006 42.5352C37.2783 42.5352 41.1401 42.0079 44.423 40.9913C44.8915 42.1978 45.129 43.4634 45.129 44.7647C45.129 45.4539 45.0604 46.1402 44.9258 46.8135H39.3563C38.0642 45.1348 35.6994 44.0077 33.0005 44.0077ZM38.4639 49.7437C38.4639 50.2313 38.3298 50.6973 38.0884 51.1262C38.0487 51.1789 38.0143 51.2356 37.9859 51.296C37.1309 52.6206 35.2187 53.5459 33.0005 53.5459C30.782 53.5459 28.8697 52.6205 28.0148 51.2956C27.9865 51.2356 27.9522 51.1792 27.9128 51.1267C27.6712 50.6977 27.537 50.2316 27.537 49.7437C27.537 49.2556 27.6712 48.7892 27.9131 48.3602C27.9524 48.308 27.9864 48.2518 28.0146 48.1922C28.8694 46.8671 30.7819 45.9415 33.0005 45.9415C35.2188 45.9415 37.1311 46.8669 37.986 48.1918C38.0144 48.2518 38.0485 48.3083 38.0881 48.3608C38.3297 48.7896 38.4639 49.2558 38.4639 49.7437ZM9.31733 39.7643C9.31888 39.7611 9.32043 39.758 9.32197 39.7549C9.46738 39.4665 9.68729 39.2114 9.97811 39.0245C10.8467 38.4665 12.0073 38.7192 12.5654 39.5878C13.9413 41.7295 16.2569 42.6742 19.1798 42.3251C19.0194 43.1231 18.9385 43.9376 18.9385 44.7645C18.9385 45.2129 18.964 45.6602 19.0124 46.1045C17.9939 46.1781 17.0103 46.1358 16.0794 45.9801C13.2508 45.506 10.9461 43.9956 9.41466 41.6116C9.0456 41.0372 9.03322 40.3355 9.31733 39.7643ZM3.65282 46.565C3.43574 46.3899 3.46384 46.1611 3.48601 46.0709C3.50818 45.9806 3.58927 45.7649 3.8628 45.7103L9.34943 44.616C11.0545 46.3457 13.2325 47.4637 15.7598 47.8873C16.5023 48.0116 17.2757 48.0746 18.0586 48.0746C18.1532 48.0746 18.2495 48.0711 18.345 48.0693C18.1813 48.4983 18.1718 48.9767 18.3302 49.417C18.4187 49.6632 18.5171 49.9076 18.6202 50.1504C18.4113 50.1011 18.1925 50.0346 17.9589 49.9457C14.9549 48.8014 12.2692 48.4122 9.97604 48.7889C9.06042 48.9394 8.20565 49.2145 7.41919 49.6028L3.65282 46.565ZM21.1726 60.058L11.8725 58.4857C11.5996 58.4397 11.5114 58.2284 11.4862 58.1396C11.4609 58.0509 11.4246 57.8249 11.6324 57.6419L12.8383 56.5796C13.2229 56.2408 13.4372 55.7525 13.4261 55.24C13.4181 54.8755 13.2951 54.5294 13.0822 54.2435C13.9589 54.3858 14.9356 54.6608 16.0073 55.0692C18.114 55.8716 20.0571 55.9553 21.8983 55.3163C21.3214 56.8133 21.0758 58.4228 21.1726 60.058ZM16.6958 53.2622C14.2847 52.3436 12.2177 52.0164 10.552 52.2909C8.98244 52.5489 7.75087 53.3615 6.89132 54.7059C6.74205 54.9395 6.48707 55.0788 6.20915 55.0788C6.05601 55.0788 5.90622 55.0347 5.77577 54.9515C5.40052 54.7116 5.29044 54.211 5.5302 53.8358C6.63158 52.1133 8.27745 51.028 10.2898 50.6968C12.2414 50.3763 14.5901 50.7315 17.2708 51.7525C18.2285 52.1173 19.0988 52.2468 19.9146 52.1445C20.3712 52.4818 20.9329 52.6737 21.5276 52.6737H21.7742C21.893 52.8208 22.0153 52.9648 22.1403 53.1063C20.4586 53.9821 18.7137 54.0308 16.6958 53.2622ZM21.5276 50.7401C21.2402 50.7401 20.9818 50.5897 20.8529 50.3475C20.5805 49.8356 20.344 49.3024 20.1487 48.763C20.1488 48.7627 20.1529 48.747 20.1695 48.747H20.3072C20.3082 48.747 20.3093 48.7472 20.3103 48.7472C20.3116 48.7472 20.3129 48.747 20.314 48.747H25.7175C25.6441 49.0709 25.6034 49.4035 25.6034 49.7435C25.6034 50.0836 25.6439 50.4162 25.7175 50.74L21.5276 50.7401ZM27.2225 61.569C27.3892 62.0404 27.3622 62.5487 27.1467 63C26.9312 63.4513 26.5528 63.7917 26.0814 63.9584C25.8787 64.0301 25.6685 64.0663 25.4571 64.0663C24.6654 64.0663 23.956 63.5642 23.6919 62.8172C22.7393 60.1227 22.9225 57.3246 24.1735 54.9858C25.173 55.7382 26.2762 56.3581 27.4507 56.8299C26.9008 57.8868 26.4897 59.4962 27.2225 61.569ZM36.9554 60.9245C36.8986 61.0851 36.8539 61.248 36.8192 61.4121L36.042 61.5435C34.0238 61.8848 31.9772 61.8848 29.9589 61.5435L29.1819 61.4121C29.1472 61.2481 29.1023 61.0852 29.0456 60.9245C28.4755 59.3117 28.8679 58.151 29.3244 57.4408C30.51 57.7414 31.7448 57.8998 33.0006 57.8998C34.2564 57.8998 35.4911 57.7415 36.6766 57.4408C37.1332 58.151 37.5256 59.3117 36.9554 60.9245ZM33.0005 55.9662C29.7532 55.9662 26.6722 54.7621 24.4151 52.6737H26.6448C27.9366 54.3523 30.3016 55.4795 33.0005 55.4795C35.6994 55.4795 38.0641 54.3523 39.3562 52.6737H41.5859C39.3287 54.7621 36.2477 55.9662 33.0005 55.9662ZM42.309 62.8172C42.0449 63.5643 41.3354 64.0663 40.5438 64.0663C40.332 64.0663 40.1221 64.0301 39.9198 63.9584C39.4482 63.7917 39.0697 63.4513 38.8542 63C38.6386 62.5485 38.6117 62.0404 38.7784 61.569C39.5112 59.4962 39.1 57.8868 38.5503 56.8299C39.7247 56.3581 40.8279 55.7382 41.8274 54.9858C43.0785 57.3248 43.2616 60.1228 42.309 62.8172ZM45.8512 48.7624C45.657 49.3026 45.4204 49.8357 45.148 50.3475C45.0191 50.5897 44.7607 50.7401 44.4735 50.7401H40.2835C40.357 50.4162 40.3976 50.0836 40.3976 49.7437C40.3976 49.4036 40.357 49.0709 40.2835 48.7471H45.6869C45.6882 48.7471 45.6895 48.7474 45.6906 48.7474C45.6917 48.7474 45.6927 48.7471 45.6937 48.7471H45.8315C45.8479 48.7471 45.8523 48.7626 45.8512 48.7624ZM56.5861 41.6119C55.0547 43.9958 52.7502 45.5063 49.9217 45.9803C48.9906 46.1361 48.0069 46.1783 46.9886 46.1047C47.0369 45.6603 47.0624 45.213 47.0624 44.7647C47.0624 43.9379 46.9815 43.1233 46.8213 42.3254C49.7439 42.6747 52.0596 41.73 53.4355 39.5879C53.9937 38.7192 55.1541 38.4667 56.0229 39.0245C56.3138 39.2113 56.5337 39.4665 56.6791 39.7547C56.6806 39.7581 56.6823 39.7613 56.6838 39.7647C56.9677 40.3358 56.9552 41.0374 56.5861 41.6119ZM63.9674 29.2061L57.546 37.7611C57.3985 37.6296 57.2394 37.5077 57.0681 37.3976C55.3022 36.2636 52.943 36.7774 51.8088 38.5428C50.517 40.5537 48.2567 40.6617 46.3803 40.3004C47.4124 39.8867 48.3739 39.4174 49.2578 38.8937C53.4942 36.3837 55.8823 32.6514 56.2188 28.0521L63.6035 28.4291C63.8666 28.4425 63.9816 28.6289 64.0189 28.7083C64.056 28.7878 64.1255 28.9955 63.9674 29.2061ZM62.1199 19.8572L59.9203 22.0183C59.5394 22.3924 59.534 23.0046 59.9082 23.3854C60.0974 23.5781 60.3475 23.6746 60.5978 23.6746C60.8424 23.6746 61.0872 23.5823 61.2754 23.3975L63.475 21.2364C63.8559 20.8623 63.8613 20.2501 63.4871 19.8693C63.1129 19.4884 62.5007 19.4831 62.1199 19.8572ZM33.0005 13.3254C33.5345 13.3254 33.9673 12.8927 33.9673 12.3586V11.298C33.9673 10.7639 33.5345 10.3312 33.0005 10.3312C32.4665 10.3312 32.0337 10.7639 32.0337 11.298V12.3586C32.0337 12.8927 32.4665 13.3254 33.0005 13.3254ZM24.4131 25.1001C24.9471 25.1001 25.3799 24.6673 25.3799 24.1333V22.7078C25.3799 22.1738 24.9471 21.741 24.4131 21.741C23.8792 21.741 23.4463 22.1738 23.4463 22.7078V24.1333C23.4463 24.6672 23.8791 25.1001 24.4131 25.1001ZM20.9573 27.6373C21.4873 27.7072 21.9726 27.3348 22.0424 26.8055C22.1124 26.2761 21.7399 25.7904 21.2106 25.7204C19.9138 25.5489 17.2518 25.7479 16.1348 26.0272C15.6167 26.1567 15.3018 26.6815 15.4312 27.1996C15.541 27.6389 15.9352 27.9323 16.3685 27.9323C16.4461 27.9323 16.525 27.9228 16.6036 27.9031C17.4928 27.6808 19.9388 27.5026 20.9573 27.6373ZM33.0005 21.8559C33.5345 21.8559 33.9673 21.4231 33.9673 20.8891V19.8286C33.9673 19.2945 33.5345 18.8618 33.0005 18.8618C32.4665 18.8618 32.0337 19.2945 32.0337 19.8286V20.8891C32.0337 21.423 32.4665 21.8559 33.0005 21.8559ZM22.838 29.439C22.701 28.923 22.1717 28.616 21.6554 28.7527C20.3911 29.0884 18.0057 30.2866 17.0794 30.9704C16.6498 31.2876 16.5586 31.8928 16.8757 32.3224C17.0654 32.5792 17.3578 32.7152 17.6543 32.7152C17.8537 32.7152 18.055 32.6537 18.2277 32.5261C18.965 31.9818 21.1586 30.8852 22.1519 30.6216C22.6679 30.4845 22.9751 29.9551 22.838 29.439ZM45.0436 27.6373C46.0621 27.5024 48.5081 27.6808 49.3973 27.9031C49.4759 27.9227 49.5548 27.9323 49.6324 27.9323C50.0656 27.9323 50.4599 27.639 50.5696 27.1996C50.699 26.6816 50.3841 26.1566 49.866 26.0272C48.7489 25.7479 46.087 25.549 44.7902 25.7204C44.2609 25.7904 43.8885 26.2761 43.9584 26.8055C44.0285 27.3349 44.5146 27.7064 45.0436 27.6373ZM33.0005 17.5906C33.5345 17.5906 33.9673 17.1579 33.9673 16.6238V15.5632C33.9673 15.0292 33.5345 14.5964 33.0005 14.5964C32.4665 14.5964 32.0337 15.0292 32.0337 15.5632V16.6238C32.0337 17.1579 32.4665 17.5906 33.0005 17.5906ZM43.8492 30.6216C44.8424 30.8854 47.036 31.982 47.7732 32.5261C47.9461 32.6536 48.1472 32.7152 48.3466 32.7152C48.6431 32.7152 48.9356 32.5792 49.1252 32.3224C49.4423 31.8928 49.351 31.2876 48.9215 30.9704C47.9949 30.2866 45.6097 29.0884 44.3454 28.7527C43.8291 28.6156 43.2999 28.9228 43.1628 29.439C43.026 29.9552 43.3332 30.4845 43.8492 30.6216ZM41.5879 25.1001C42.122 25.1001 42.5547 24.6673 42.5547 24.1333V22.7078C42.5547 22.1738 42.122 21.741 41.5879 21.741C41.0539 21.741 40.6211 22.1738 40.6211 22.7078V24.1333C40.6211 24.6672 41.054 25.1001 41.5879 25.1001Z" fill="#151515"/>
<path d="M24.419 27.7338C24.2502 27.7338 24.0803 27.7238 23.909 27.7035C22.7108 27.5608 21.6577 26.9494 20.9435 25.9819C20.2395 25.028 19.9577 23.8122 20.1705 22.6461L20.1713 22.6415L20.6242 20.2271C20.8126 19.2236 21.7825 18.5559 22.7869 18.74L25.1869 19.1779C26.353 19.3906 27.3909 20.0837 28.0347 21.0795C28.6874 22.0894 28.8874 23.2905 28.5976 24.4617C28.1187 26.3989 26.3724 27.7338 24.419 27.7338ZM22.0722 22.9954C21.9538 23.6474 22.1054 24.3002 22.4993 24.8338C22.8932 25.3673 23.475 25.7047 24.1377 25.7835C25.3047 25.9215 26.4388 25.1379 26.7207 23.9977C26.8811 23.3499 26.771 22.6863 26.411 22.1294C26.0505 21.5721 25.4926 21.1993 24.8399 21.0802L22.5113 20.6553L22.0722 22.9954Z" fill="white"/>
<path d="M41.5816 27.7339C39.6282 27.7339 37.8821 26.3991 37.403 24.462C37.1132 23.2908 37.3133 22.0896 37.9659 21.0798C38.6097 20.084 39.6476 19.3909 40.8136 19.1782L43.2138 18.7403C44.2184 18.5561 45.1883 19.2241 45.3762 20.2275L45.8301 22.6464C46.0429 23.8125 45.7611 25.0283 45.0569 25.9822C44.3429 26.9496 43.2896 27.561 42.0914 27.7037C41.9204 27.724 41.7502 27.7339 41.5816 27.7339ZM43.4892 20.6554L41.1606 21.0803C40.5079 21.1994 39.95 21.5719 39.5897 22.1296C39.2297 22.6865 39.1196 23.3501 39.2799 23.9978C39.5619 25.1381 40.6962 25.9215 41.8629 25.7837C42.5256 25.7048 43.1075 25.3673 43.5014 24.8339C43.8952 24.3004 44.0467 23.6478 43.9285 22.9958L43.4892 20.6554Z" fill="white"/>
<path d="M33.0003 31.692C30.316 31.692 28.6484 30.3145 28.6484 28.0974C28.6484 25.6976 30.6007 23.7454 33.0003 23.7454C35.4 23.7454 37.3523 25.6976 37.3523 28.0974C37.3523 30.3145 35.6846 31.692 33.0003 31.692ZM33.0003 25.679C31.6669 25.679 30.582 26.7638 30.582 28.0974C30.582 29.1996 31.3957 29.7584 33.0003 29.7584C34.6049 29.7584 35.4187 29.1996 35.4187 28.0974C35.4187 26.7638 34.3338 25.679 33.0003 25.679Z" fill="white"/>
</g>
<defs>
<clipPath id="clip0_716_15691">
<rect width="66" height="66" fill="white"/>
</clipPath>
</defs>
</svg>
