<svg width="68" height="68" viewBox="0 0 68 68" fill="none" xmlns="http://www.w3.org/2000/svg">
<g clip-path="url(#clip0_20_664)">
<path d="M8.59328 59.318C7.82164 59.318 7.08718 58.8669 6.76286 58.113C6.32816 57.1025 6.79486 55.931 7.80517 55.4964C8.99158 54.986 10.2063 54.4734 11.3809 53.9776C17.1517 51.5419 23.119 49.0237 25.7363 46.7124C26.5609 45.9847 27.8193 46.0628 28.5474 46.887C29.2755 47.7115 29.1974 48.9702 28.3729 49.6982C25.2676 52.4404 19.2746 54.9697 12.9297 57.6472C11.7612 58.1403 10.5531 58.6502 9.37952 59.1553C9.12293 59.2656 8.85598 59.318 8.59328 59.318Z" fill="#EDA751"/>
<path d="M27.8539 67.0048C26.1709 67.0048 24.7645 65.6865 24.6746 63.9863C24.3646 58.1215 24.8242 53.9879 26.0407 51.7002C26.8668 50.146 28.7962 49.5562 30.3503 50.3824C31.9042 51.2087 32.4941 53.1381 31.6679 54.6919C31.2955 55.3926 30.7439 58.0673 31.039 63.6498C31.1319 65.4073 29.7825 66.9072 28.0251 67C27.9678 67.0032 27.9105 67.0048 27.8539 67.0048Z" fill="#EDA751"/>
<path d="M40.146 67.0048C40.0891 67.0048 40.0323 67.0032 39.9749 67.0002C38.2174 66.9072 36.868 65.4073 36.9611 63.65C37.2561 58.0677 36.7046 55.3928 36.332 54.6923C35.5058 53.1383 36.0956 51.209 37.6497 50.3827C39.2038 49.557 41.133 50.1463 41.9593 51.7003C43.1757 53.9883 43.6354 58.1219 43.3252 63.9866C43.2355 65.6864 41.8289 67.0048 40.146 67.0048Z" fill="#EDA751"/>
<path d="M10.7412 49.2534C9.60316 49.2534 8.50228 48.6424 7.92827 47.5686C7.09859 46.0165 7.68402 44.0858 9.23607 43.2559C14.2106 40.5966 18.9604 39.7647 22.1005 39.3705C23.8461 39.1508 25.44 40.3889 25.6592 42.135C25.8785 43.8813 24.6407 45.4745 22.8945 45.6937C20.257 46.0249 16.283 46.7151 12.2409 48.8761C11.7624 49.132 11.2479 49.2534 10.7412 49.2534Z" fill="#EDA751"/>
<path d="M57.2589 49.2535C56.7519 49.2535 56.2375 49.1322 55.7591 48.8764C51.7173 46.7153 47.7433 46.0252 45.1056 45.694C43.3595 45.4747 42.1217 43.8814 42.3411 42.1353C42.5604 40.3892 44.1524 39.1519 45.8998 39.3708C49.0398 39.7651 53.7898 40.5969 58.7641 43.2562C60.3162 44.086 60.9018 46.0167 60.072 47.5689C59.4978 48.6423 58.3968 49.2535 57.2589 49.2535Z" fill="#EDA751"/>
<path opacity="0.2" d="M22.1002 39.3705C20.7469 39.5403 19.0942 39.7921 17.2537 40.2359C16.9082 41.5145 16.7239 42.8528 16.7239 44.2307C16.7239 45.1478 16.8065 46.0469 16.9627 46.9228C19.2391 46.2224 21.3083 45.8929 22.8942 45.6938C24.6406 45.4745 25.8781 43.8812 25.659 42.1351C25.4399 40.3889 23.8458 39.1508 22.1002 39.3705Z" fill="#A35F00"/>
<path opacity="0.2" d="M25.7363 46.7124C24.1848 48.0825 21.4563 49.5253 18.2894 50.9804C18.8802 52.1901 19.6249 53.3201 20.4993 54.3485C23.7699 52.823 26.5626 51.2968 28.3728 49.6982C29.1973 48.97 29.2755 47.7113 28.5473 46.8869C27.8192 46.0628 26.5607 45.9846 25.7363 46.7124Z" fill="#A35F00"/>
<path opacity="0.2" d="M30.3503 50.3824C28.7963 49.5562 26.8669 50.146 26.0407 51.7002C25.3019 53.0897 24.8429 55.1611 24.6653 57.8867C26.5455 59.0259 28.6748 59.8318 30.9581 60.2145C30.9914 56.9313 31.3823 55.2295 31.6679 54.6921C32.494 53.1382 31.9041 51.2087 30.3503 50.3824Z" fill="#A35F00"/>
<path opacity="0.2" d="M41.9594 51.7001C41.1331 50.146 39.2038 49.5567 37.6497 50.3824C36.0958 51.2088 35.5059 53.1382 36.3321 54.6921C36.6179 55.2296 37.0087 56.9313 37.0421 60.2144C39.3254 59.8316 41.4547 59.0257 43.3349 57.8866C43.1572 55.1612 42.6981 53.0896 41.9594 51.7001Z" fill="#A35F00"/>
<path opacity="0.2" d="M42.341 42.1352C42.1216 43.8814 43.3595 45.4746 45.1055 45.6939C46.6914 45.8931 48.7606 46.2226 51.0371 46.9229C51.1933 46.0469 51.2759 45.1478 51.2759 44.2308C51.2759 42.8528 51.0917 41.5144 50.7461 40.236C48.9056 39.7922 47.2529 39.5406 45.8997 39.3706C44.1523 39.1517 42.5603 40.389 42.341 42.1352Z" fill="#A35F00"/>
<path d="M34.0004 57.8869C42.1179 57.8869 48.6984 51.7725 48.6984 44.2302C48.6984 36.6878 42.1179 30.5735 34.0004 30.5735C25.883 30.5735 19.3025 36.6878 19.3025 44.2302C19.3025 51.7725 25.883 57.8869 34.0004 57.8869Z" fill="#FCD690"/>
<path opacity="0.15" d="M31.8537 57.7426C25.1372 53.3331 27.2188 44.2954 28.359 40.343V31.6162C23.0414 33.6719 19.3024 38.5453 19.3024 44.2309C19.3024 51.0959 24.7539 56.7772 31.8537 57.7426Z" fill="#C17A00"/>
<path d="M25.0555 20.5489C27.9314 18.1356 29.8516 14.0845 25.7951 8.09578C21.7064 2.05999 15.6192 0.546863 10.8666 1.1068C9.69497 1.24479 8.71176 2.06982 8.37243 3.19966C6.9957 7.78261 7.42867 14.0403 12.6631 19.1149C17.8564 24.1497 22.1795 22.9623 25.0555 20.5489Z" fill="#EDA751"/>
<path d="M8.18129 3.90063C7.05265 8.40669 7.69082 14.2939 12.6632 19.1147C17.1646 23.4788 21.0112 23.1669 23.8295 21.4353C21.8914 8.27773 13.4247 4.78875 8.18129 3.90063Z" fill="#FF91AB"/>
<path d="M42.9444 20.5488C40.0684 18.1355 38.1481 14.0844 42.2047 8.09567C46.2933 2.05975 52.3808 0.546619 57.1332 1.10656C58.3049 1.24455 59.288 2.06958 59.6274 3.19941C61.0042 7.78236 60.5711 14.0401 55.3368 19.1147C50.1434 24.1496 45.8204 22.9621 42.9444 20.5488Z" fill="#EDA751"/>
<path d="M59.8186 3.90063C60.9473 8.40669 60.3091 14.2939 55.3367 19.1147C50.8353 23.4788 46.9887 23.1669 44.1704 21.4353C46.1087 8.27773 54.5753 4.78875 59.8186 3.90063Z" fill="#FF91AB"/>
<path d="M59.0224 24.1912C59.0224 35.6322 47.8194 40.6432 33.9999 40.6432C20.1804 40.6432 8.97754 35.6322 8.97754 24.1912C8.97754 12.7503 20.1805 3.47559 34 3.47559C47.8195 3.47559 59.0224 12.7504 59.0224 24.1912Z" fill="#FFDC9C"/>
<path opacity="0.15" d="M20.6392 6.67407C13.6314 10.3451 8.97754 16.818 8.97754 24.1915C8.97754 34.0265 17.2561 39.1099 28.359 40.3433C12.4211 30.8231 14.4997 18.0177 20.6392 6.67407Z" fill="#C17A00"/>
<path d="M21.7209 28.2827C24.2228 28.2827 26.251 26.6671 26.251 24.6743C26.251 22.6814 24.2228 21.0659 21.7209 21.0659C19.219 21.0659 17.1908 22.6814 17.1908 24.6743C17.1908 26.6671 19.219 28.2827 21.7209 28.2827Z" fill="#FF91AB"/>
<path d="M46.2786 28.2827C48.7805 28.2827 50.8087 26.6671 50.8087 24.6743C50.8087 22.6814 48.7805 21.0659 46.2786 21.0659C43.7767 21.0659 41.7485 22.6814 41.7485 24.6743C41.7485 26.6671 43.7767 28.2827 46.2786 28.2827Z" fill="#FF91AB"/>
<path d="M35.8686 40.9814C37.2424 40.2794 38.107 38.8667 38.107 37.3241V23.1727C38.107 22.2012 37.6022 21.2937 36.7658 20.7991C35.9553 20.3198 35.0099 20.0444 34 20.0444C32.9901 20.0444 32.0446 20.3198 31.2342 20.7991C30.398 21.2935 29.8931 22.2012 29.8931 23.1727V37.3242C29.8931 38.867 30.7577 40.2794 32.1315 40.9815C33.3049 41.581 34.695 41.581 35.8686 40.9814Z" fill="#FF91AB"/>
<path opacity="0.1" d="M36.7658 20.7991C35.9553 20.3198 35.0099 20.0444 34 20.0444C32.9901 20.0444 32.0446 20.3198 31.2342 20.7991C30.398 21.2935 29.8931 22.2012 29.8931 23.1727V26.4367C29.8931 25.4652 30.3979 24.5577 31.2342 24.0631C32.0448 23.5837 32.9901 23.3084 34 23.3084C35.0101 23.3084 35.9554 23.5837 36.7658 24.0631C37.602 24.5575 38.107 25.4652 38.107 26.4367V23.1727C38.1068 22.2012 37.602 21.2937 36.7658 20.7991Z" fill="#151515"/>
<path d="M24.3613 23.1065C26.3671 23.1065 27.9931 21.4805 27.9931 19.4747C27.9931 17.4688 26.3671 15.8428 24.3613 15.8428C22.3554 15.8428 20.7294 17.4688 20.7294 19.4747C20.7294 21.4805 22.3554 23.1065 24.3613 23.1065Z" fill="white"/>
<path d="M43.6385 23.1065C45.6443 23.1065 47.2704 21.4805 47.2704 19.4747C47.2704 17.4688 45.6443 15.8428 43.6385 15.8428C41.6326 15.8428 40.0066 17.4688 40.0066 19.4747C40.0066 21.4805 41.6326 23.1065 43.6385 23.1065Z" fill="white"/>
<path d="M9.06817 54.9565C8.64569 55.1362 8.22348 55.3163 7.80512 55.4964C6.79469 55.9311 6.32798 57.1027 6.76281 58.113C7.08727 58.8668 7.82159 59.318 8.59323 59.318C8.85593 59.318 9.12288 59.2656 9.37948 59.1554C9.80873 58.9707 10.243 58.7854 10.6778 58.6005C10.5579 56.9793 9.71363 55.5282 9.06817 54.9565Z" fill="#FCD79D"/>
<path d="M5.81335 14.2592C6.16902 14.2592 6.51313 14.0682 6.69256 13.7326C6.95208 13.2475 6.7692 12.6439 6.28403 12.3845L3.57174 10.9339C3.08684 10.6746 2.48308 10.8573 2.2237 11.3425C1.96418 11.8275 2.14706 12.4311 2.63223 12.6905L5.34439 14.1412C5.49407 14.2212 5.65477 14.2592 5.81335 14.2592ZM11.5759 36.4285C11.3381 35.9324 10.7431 35.7228 10.2471 35.9608L4.12796 38.894C3.6319 39.1317 3.42246 39.7267 3.66033 40.2228C3.83165 40.5799 4.18799 40.7885 4.55933 40.7885C4.7037 40.7885 4.85032 40.7571 4.98911 40.6904L11.1083 37.7572C11.6044 37.5195 11.8138 36.9246 11.5759 36.4285ZM4.07483 30.0896L6.79616 29.5436C7.33551 29.4355 7.68507 28.9103 7.57683 28.371C7.46858 27.8316 6.94411 27.482 6.40423 27.5903L3.6829 28.1363C3.14355 28.2444 2.79399 28.7696 2.90223 29.3089C2.99719 29.7823 3.4129 30.1091 3.87787 30.1091C3.94269 30.1091 4.00869 30.1027 4.07483 30.0896ZM64.3171 28.1364L61.596 27.5905C61.0565 27.4829 60.5315 27.8316 60.4234 28.3711C60.3152 28.9106 60.6645 29.4355 61.204 29.5437L63.9252 30.0897C63.9914 30.103 64.0572 30.1092 64.1222 30.1092C64.587 30.1092 65.0028 29.7823 65.0978 29.309C65.2059 28.7694 64.8565 28.2447 64.3171 28.1364ZM24.3618 18.3825C23.7585 18.3825 23.2695 18.8715 23.2695 19.4747C23.2695 20.0779 23.7585 20.5669 24.3618 20.5669C24.965 20.5669 25.454 20.0779 25.454 19.4747C25.4539 18.8715 24.9649 18.3825 24.3618 18.3825ZM47.5051 24.9193C48.6797 24.7638 51.3977 24.9626 52.4247 25.2195C52.5059 25.2397 52.5872 25.2495 52.6671 25.2495C53.1134 25.2495 53.5195 24.9474 53.6328 24.4947C53.7661 23.961 53.4418 23.4202 52.908 23.2867C51.6616 22.9751 48.6912 22.7529 47.2443 22.9443C46.6989 23.0164 46.3152 23.5168 46.3872 24.0623C46.4593 24.6078 46.9612 24.9909 47.5051 24.9193ZM63.8718 38.8942L57.7528 35.9611C57.257 35.7232 56.6618 35.9324 56.424 36.4287C56.1861 36.9248 56.3954 37.5198 56.8916 37.7575L63.0107 40.6907C63.1496 40.7573 63.2961 40.7888 63.4406 40.7888C63.8118 40.7888 64.1683 40.5803 64.3395 40.223C64.5773 39.7267 64.3679 39.1318 63.8718 38.8942ZM65.7763 11.3426C65.5171 10.8576 64.9135 10.6744 64.4283 10.9341L61.716 12.3848C61.231 12.6442 61.048 13.2478 61.3075 13.7328C61.4868 14.0683 61.8309 14.2594 62.1867 14.2594C62.3451 14.2594 62.506 14.2214 62.6555 14.1414L65.3678 12.6907C65.8529 12.4313 66.0359 11.8276 65.7763 11.3426ZM59.2336 42.3775C56.25 40.7824 53.0419 39.6513 49.4665 38.9346C50.7735 38.3808 51.9728 37.7462 53.0503 37.0325C57.6089 34.0133 60.0187 29.5727 60.0187 24.1913C60.0187 21.6547 59.502 19.1868 58.5114 16.8693C61.2631 12.7569 62.0206 7.70475 60.5814 2.91301C60.1269 1.39962 58.8191 0.302323 57.2499 0.117581C52.4741 -0.445543 47.7743 1.04833 44.2499 4.22281C41.053 3.08062 37.5812 2.47938 34.0001 2.47938C30.4189 2.47938 26.9472 3.08062 23.7503 4.22281C20.226 1.0482 15.5258 -0.44541 10.7502 0.117581C9.18093 0.302456 7.87326 1.39962 7.41865 2.91301C5.97936 7.70475 6.73679 12.7571 9.48866 16.8695C8.49801 19.1868 7.98137 21.6548 7.98137 24.1914C7.98137 28.3439 9.3678 31.8762 12.1021 34.6898C13.7784 36.4146 15.9308 37.8347 18.5264 38.9361C14.9537 39.6527 11.7478 40.7838 8.76616 42.3776C6.73227 43.4651 5.96236 46.0045 7.04956 48.0384C7.7787 49.4023 9.19328 50.2496 10.7409 50.2496C11.4239 50.2496 12.1048 50.0785 12.7103 49.7548C14.5245 48.7848 16.5337 48.0198 18.6943 47.4739C18.8544 48.1329 19.0626 48.7751 19.3145 49.3974C16.7895 50.6132 13.8486 51.855 10.9936 53.0599C9.82202 53.5543 8.6105 54.0655 7.41148 54.5814C5.89808 55.2325 5.1967 56.9935 5.84788 58.5066C6.32029 59.6047 7.39793 60.3141 8.59324 60.3141C9.00018 60.3141 9.39715 60.2321 9.77328 60.0702C10.935 59.5703 12.133 59.0648 13.2913 58.5758L13.317 58.5651C16.7017 57.1364 19.9118 55.7815 22.7049 54.3934C23.0892 54.7656 23.4944 55.1187 23.9184 55.4514C23.5795 57.7261 23.4986 60.6094 23.6798 64.0388C23.7972 66.2606 25.6308 68.0008 27.8539 68.0008C27.9284 68.0008 28.0037 67.9987 28.0775 67.9947C30.3806 67.8731 32.1552 65.9003 32.0335 63.5973C31.9376 61.7828 31.9254 60.1637 31.996 58.7653C32.6523 58.8438 33.3212 58.8843 34 58.8843C34.6788 58.8843 35.3476 58.8438 36.004 58.7653C36.0746 60.1639 36.0624 61.7828 35.9665 63.5973C35.9075 64.7129 36.2866 65.785 37.0338 66.6155C37.781 67.4461 38.807 67.9359 39.921 67.9949C39.9962 67.9988 40.0715 68.001 40.146 68.001C42.0336 68.001 43.6934 66.7282 44.1825 64.9059C44.3252 64.3745 44.01 63.8283 43.4788 63.6856C42.9475 63.5431 42.4011 63.858 42.2585 64.3894C42.0024 65.343 41.1337 66.0088 40.1458 66.0088C40.1071 66.0088 40.0681 66.0077 40.0274 66.0056C39.4431 65.9748 38.9058 65.7182 38.5144 65.2832C38.1231 64.8483 37.9246 64.2869 37.9554 63.7025C38.0607 61.7103 38.0683 59.9346 37.979 58.4066C39.4985 58.0345 40.9285 57.4542 42.2325 56.7009C42.3416 57.7152 42.405 58.8442 42.4195 60.0801C42.4258 60.6262 42.8705 61.0645 43.4151 61.0645C43.419 61.0645 43.4231 61.0645 43.4271 61.0643C43.9772 61.0579 44.4179 60.6069 44.4114 60.0567C44.3913 58.3288 44.2803 56.7837 44.0817 55.451C46.6611 53.4271 48.5352 50.6443 49.3054 47.4742C51.466 48.02 53.4751 48.785 55.2895 49.7551C55.895 50.0786 56.5759 50.2498 57.2586 50.2498C58.8062 50.2498 60.2207 49.4025 60.9501 48.0386C62.0377 46.0042 61.2675 43.465 59.2336 42.3775ZM57.4634 14.7767C56.1935 12.5755 54.4694 10.548 52.3288 8.77574C52.1834 8.65542 52.0364 8.53681 51.8882 8.41967C54.3051 6.47796 56.951 5.52795 59.0485 5.0655C59.4664 7.38015 59.5727 11.0365 57.4634 14.7767ZM57.0168 2.09595C57.6715 2.17312 58.2333 2.57009 58.5313 3.13999C56.0949 3.68824 53.0061 4.83308 50.2244 7.21175C49.0011 6.39508 47.7021 5.67777 46.3413 5.06484C49.3387 2.71526 53.1488 1.64027 57.0168 2.09595ZM10.9832 2.09595C14.851 1.64067 18.6612 2.71552 21.6588 5.06484C20.2978 5.67777 18.9991 6.39508 17.7757 7.21175C14.9941 4.83295 11.9052 3.68824 9.46887 3.13999C9.76677 2.57009 10.3287 2.17312 10.9832 2.09595ZM8.95143 5.0655C11.0489 5.52809 13.695 6.47823 16.1119 8.41981C15.9637 8.53695 15.8166 8.65542 15.6713 8.77574C13.5308 10.5479 11.8066 12.5754 10.5367 14.7767C8.42736 11.0366 8.53347 7.38015 8.95143 5.0655ZM18.3063 44.2306C18.3063 44.6595 18.3273 45.0838 18.3662 45.5035C15.9884 46.0913 13.7729 46.9277 11.7712 47.9979C11.4491 48.17 11.1026 48.2572 10.7411 48.2572C9.92973 48.2572 9.1885 47.8134 8.80654 47.0989C8.23704 46.0337 8.64039 44.7037 9.70554 44.1343C12.4532 42.6654 15.4114 41.6128 18.7054 40.933C18.4409 42.0063 18.3063 43.1082 18.3063 44.2306ZM12.5424 56.7296L12.5166 56.7405C11.3549 57.2307 10.1538 57.7376 8.98596 58.2403C8.86006 58.2944 8.72804 58.3219 8.59324 58.3219C8.19467 58.3219 7.83528 58.0853 7.67776 57.7192C7.46075 57.215 7.6945 56.6283 8.19879 56.4112C9.39144 55.8982 10.5998 55.3883 11.7681 54.8952C14.6499 53.6788 17.6186 52.4254 20.1901 51.1867C20.5271 51.7675 20.9053 52.3242 21.3202 52.8547C18.6971 54.1321 15.6962 55.3986 12.5424 56.7296ZM27.9708 66.0053C26.7554 66.0724 25.7328 65.1357 25.6692 63.9335C25.5198 61.1058 25.5532 58.6827 25.7667 56.7002C27.0707 57.4537 28.5007 58.0339 30.0204 58.4062C29.9311 59.9341 29.9387 61.7099 30.044 63.7021C30.108 64.9086 29.1786 65.9416 27.9708 66.0053ZM34 56.892C26.4448 56.892 20.2984 51.2122 20.2984 44.2306C20.2984 42.7643 20.5649 41.3381 21.091 39.9784C21.0911 39.978 21.0913 39.9777 21.0914 39.9773C21.1032 39.9468 21.1158 39.9165 21.1279 39.886C21.592 40.0307 22.0652 40.1687 22.5518 40.2965C23.084 40.4367 23.6285 40.1182 23.7684 39.5861C23.9081 39.054 23.5901 38.5095 23.0581 38.3696C22.3129 38.1739 21.6096 37.9604 20.9436 37.7323C20.9164 37.7215 20.889 37.7122 20.8614 37.704C11.9311 34.6124 9.97369 28.7398 9.97369 24.1913C9.97369 13.3178 20.7519 4.4717 34.0001 4.4717C47.2482 4.4717 58.0265 13.3178 58.0265 24.1913C58.0265 28.9396 55.9821 32.7011 51.9502 35.3717C48.6583 37.5522 44.0893 38.9446 38.6447 39.4417C38.9411 38.7899 39.1031 38.0713 39.1031 37.324V23.1726C39.1031 21.8473 38.4019 20.6093 37.273 19.9418C36.2849 19.3576 35.153 19.0485 34.0001 19.0485C32.847 19.0485 31.7152 19.3574 30.7272 19.9418C29.5983 20.6094 28.897 21.8475 28.897 23.1726V37.3241C28.897 38.0711 29.0589 38.7893 29.3551 39.441C28.7321 39.3842 28.1185 39.317 27.5207 39.2373C26.9749 39.1629 26.4744 39.5474 26.4015 40.0926C26.3287 40.6379 26.7118 41.139 27.2569 41.2118C28.5107 41.3793 29.8251 41.4967 31.166 41.5656C31.3299 41.6748 31.4996 41.7775 31.6781 41.8686C32.4051 42.2401 33.2026 42.4256 34 42.4256C34.7975 42.4256 35.5949 42.2401 36.3218 41.8686C36.4995 41.7777 36.6684 41.6756 36.8316 41.567C40.5364 41.3768 43.9176 40.8069 46.8712 39.884C46.8834 39.9148 46.8962 39.9454 46.9081 39.9763C46.9126 39.9893 46.9183 40.0018 46.9234 40.0145C47.4403 41.3635 47.7017 42.7775 47.7017 44.2308C47.7015 51.2123 41.5551 56.892 34 56.892ZM37.1108 23.1726V37.3241C37.1108 38.2969 36.6642 39.1912 35.9168 39.7736C35.9016 39.7843 35.8867 39.7956 35.8722 39.8072C35.7297 39.9142 35.578 40.0113 35.4153 40.0945C34.5291 40.5472 33.4707 40.5472 32.5844 40.0945C32.4216 40.0113 32.2697 39.914 32.1272 39.8068C32.1128 39.7955 32.0984 39.7845 32.0835 39.7739C31.3359 39.1915 30.8891 38.297 30.8891 37.324V23.1726C30.8891 22.5482 31.2155 21.9673 31.7411 21.6564C32.4223 21.2536 33.2035 21.0406 34 21.0406C34.7964 21.0406 35.5776 21.2536 36.2588 21.6564C36.7845 21.9673 37.1108 22.5482 37.1108 23.1726ZM59.1935 47.099C58.8115 47.8135 58.0702 48.2574 57.2588 48.2574C56.8975 48.2574 56.5509 48.1701 56.2289 47.998C54.227 46.9278 52.0117 46.0915 49.6338 45.5036C49.6727 45.084 49.6937 44.6596 49.6937 44.2308C49.6937 43.1082 49.559 42.0063 49.2945 40.9332C52.5885 41.613 55.5468 42.6656 58.2944 44.1345C59.3595 44.7038 59.7629 46.0337 59.1935 47.099ZM46.1993 28.271C47.3445 28.575 49.7816 29.7942 50.6335 30.4229C50.8116 30.5543 51.0188 30.6178 51.2242 30.6178C51.5297 30.6178 51.8311 30.4777 52.0264 30.2131C52.3531 29.7704 52.2591 29.1469 51.8166 28.8202C50.7828 28.0572 48.1211 26.72 46.7106 26.3455C46.1783 26.2044 45.6334 26.5211 45.4922 27.0526C45.351 27.5843 45.6676 28.1298 46.1993 28.271ZM43.6383 20.5669C44.2415 20.5669 44.7305 20.0779 44.7305 19.4747C44.7305 18.8715 44.2415 18.3825 43.6383 18.3825C43.035 18.3825 42.546 18.8715 42.546 19.4747C42.546 20.0779 43.035 20.5669 43.6383 20.5669ZM20.4948 24.9193C21.0405 24.9912 21.5407 24.6078 21.6128 24.0623C21.6848 23.5168 21.3011 23.0164 20.7558 22.9443C19.3092 22.7533 16.3386 22.9751 15.092 23.2867C14.5582 23.4202 14.2338 23.961 14.3673 24.4947C14.4804 24.9472 14.8865 25.2495 15.3328 25.2495C15.4127 25.2495 15.494 25.2398 15.5752 25.2195C16.6022 24.9626 19.3201 24.7635 20.4948 24.9193ZM21.2896 26.3455C19.879 26.7199 17.2173 28.057 16.1835 28.8202C15.7408 29.1469 15.6469 29.7704 15.9736 30.2131C16.169 30.4777 16.4703 30.6178 16.7758 30.6178C16.9813 30.6178 17.1886 30.5543 17.3665 30.4229C18.2185 29.7942 20.6555 28.575 21.8008 28.271C22.3324 28.1298 22.649 27.5843 22.508 27.0526C22.3668 26.5212 21.8212 26.2046 21.2896 26.3455Z" fill="#151515"/>
</g>
<defs>
<clipPath id="clip0_20_664">
<rect width="68" height="68" fill="white" transform="translate(0 0.000976562)"/>
</clipPath>
</defs>
</svg>
