<svg width="66" height="66" viewBox="0 0 66 66" fill="none" xmlns="http://www.w3.org/2000/svg">
<g clip-path="url(#clip0_716_16812)">
<path d="M6.19866 54.2681C5.20659 54.2681 4.40234 53.4639 4.40234 52.4718C4.40234 50.0835 5.77133 47.9977 7.97512 47.0282C10.5021 45.9163 13.5541 46.4987 15.75 48.5119C16.6709 49.356 17.6109 49.6731 18.6241 49.4818C20.4246 49.1416 22.5449 47.1426 23.7797 44.6208C24.216 43.73 25.2919 43.361 26.1829 43.7975C27.0739 44.2337 27.4426 45.3097 27.0062 46.2007C25.6736 48.9221 22.8535 52.3387 19.2912 53.0119C17.15 53.4163 15.0857 52.7764 13.3225 51.1601C11.9315 49.8851 10.3953 49.8883 9.4217 50.3167C8.9927 50.5054 7.99497 51.0932 7.99497 52.4719C7.99497 53.464 7.19072 54.2681 6.19866 54.2681Z" fill="#EDA751"/>
<path d="M6.19866 54.2678C7.19059 54.2678 7.99497 53.4637 7.99497 52.4715C7.99497 52.0642 8.0834 51.7274 8.2172 51.448C7.14032 50.7751 5.60646 50.7212 4.6229 50.8499C4.47879 51.3668 4.40234 51.9107 4.40234 52.4715C4.40247 53.4637 5.20672 54.2678 6.19866 54.2678Z" fill="#FCD79D"/>
<path d="M26.1502 62.9793C25.8322 62.9793 25.509 62.9262 25.1922 62.8141C23.6957 62.2851 22.9114 60.643 23.4406 59.1465C24.3892 56.4636 25.357 52.9393 24.5801 51.3856C23.8703 49.9658 24.4457 48.2395 25.8654 47.5296C27.2856 46.8198 29.0114 47.3953 29.7214 48.8149C31.5121 52.3962 30.2908 57.0158 28.8601 61.0626C28.4428 62.2422 27.3339 62.9793 26.1502 62.9793Z" fill="#EDA751"/>
<path d="M17.0359 44.437C13.2773 44.437 9.17901 42.8825 6.55628 38.5842C5.7296 37.2293 6.1577 35.4606 7.51276 34.6339C8.86744 33.8073 10.6363 34.2352 11.4631 35.5902C14.1677 40.023 19.1484 38.5751 20.3339 37.9446C21.7355 37.1995 23.4758 37.7318 24.2207 39.1331C24.9659 40.5346 24.4338 42.2748 23.0322 43.0199C21.4155 43.8795 19.2863 44.437 17.0359 44.437Z" fill="#EDA751"/>
<path d="M38.4803 62.9793C38.1623 62.9793 37.8392 62.9262 37.5223 62.8142C36.0258 62.2851 35.2416 60.643 35.7707 59.1465C36.8712 56.034 36.298 52.9726 35.9249 52.2352C34.845 51.2643 34.6513 49.6145 35.5227 48.4129C36.4546 47.1282 38.2518 46.8418 39.5366 47.7738C41.2967 49.0502 41.8911 51.6493 42.0797 53.605C42.3212 56.1082 42.0053 58.7567 41.19 61.0627C40.7729 62.2422 39.6641 62.9792 38.4803 62.9793ZM36.1598 52.4251C36.1604 52.4256 36.1612 52.4261 36.1618 52.4266C36.1612 52.4261 36.1605 52.4257 36.1598 52.4251Z" fill="#EDA751"/>
<path d="M49.1281 47.857C47.0799 47.857 45.1606 47.3849 43.6537 46.6344C40.9918 45.3086 39.4072 43.1083 39.3061 40.5979C39.2422 39.0119 40.476 37.6744 42.0621 37.6106C43.6513 37.546 44.9857 38.7808 45.0494 40.3666C45.0602 40.6327 45.4299 41.0975 46.2165 41.4892C47.9604 42.3578 50.88 42.4367 53.0857 40.9071C54.3901 40.0024 56.1809 40.3266 57.0851 41.6309C57.9897 42.9353 57.6656 44.7258 56.3613 45.6305C54.0739 47.2167 51.5137 47.857 49.1281 47.857Z" fill="#EDA751"/>
<path d="M54.4882 53.5126L53.5439 50.9179C53.2564 50.1279 53.6636 49.2546 54.4535 48.9671L62.0459 46.2038C62.8358 45.9163 63.7092 46.3235 63.9966 47.1135L64.941 49.7082C65.2285 50.4982 64.8212 51.3715 64.0313 51.659L56.439 54.4223C55.6491 54.7098 54.7758 54.3026 54.4882 53.5126Z" fill="#78CFC0"/>
<path d="M49.0297 38.5153L48.0854 35.9206C47.7979 35.1306 48.2051 34.2573 48.995 33.9698L56.5874 31.2064C57.3773 30.919 58.2507 31.3262 58.5381 32.1161L59.4825 34.7109C59.77 35.5008 59.3627 36.3742 58.5728 36.6616L50.9805 39.425C50.1905 39.7125 49.3172 39.3051 49.0297 38.5153Z" fill="#78CFC0"/>
<path d="M52.4502 38.9583L56.0068 48.4336L60.5807 46.6709L57.0241 37.1956L52.4502 38.9583Z" fill="#78CFC0"/>
<path opacity="0.1" d="M52.4502 38.9583L56.0068 48.4336L60.5807 46.6709L57.0241 37.1956L52.4502 38.9583Z" fill="#151515"/>
<path opacity="0.2" d="M26.1827 43.7976C25.2917 43.361 24.2159 43.7299 23.7795 44.6209C22.5447 47.1427 20.4246 49.1415 18.624 49.4818C18.5577 49.4944 18.4917 49.5044 18.4258 49.5127C19.1108 50.6103 19.9406 51.6189 20.8915 52.5136C23.692 51.2958 25.8801 48.5002 27.0061 46.2009C27.4424 45.3098 27.0737 44.2338 26.1827 43.7976Z" fill="#A35F00"/>
<path opacity="0.2" d="M47.8535 42.004C47.247 41.9009 46.6888 41.7243 46.217 41.4893C45.4304 41.0975 45.0607 40.6327 45.0499 40.3666C44.9862 38.7808 43.6518 37.5459 42.0626 37.6106C40.4765 37.6744 39.2426 39.0119 39.3066 40.5979C39.4076 43.1083 40.9923 45.3086 43.6542 46.6344C44.5398 47.0755 45.5685 47.4193 46.6813 47.6287C47.4362 45.8955 47.8536 44 47.8536 42.0142C47.8536 42.0108 47.8535 42.0073 47.8535 42.004Z" fill="#A35F00"/>
<path opacity="0.2" d="M20.334 37.9446C19.7637 38.2479 18.3149 38.74 16.6639 38.676C16.4009 39.7494 16.2617 40.8667 16.2617 42.0141C16.2617 42.8346 16.3339 43.6394 16.4705 44.4241C16.6597 44.4319 16.8482 44.4369 17.0358 44.4369C19.2864 44.4369 21.4155 43.8794 23.0323 43.0197C24.4337 42.2747 24.9659 40.5344 24.2208 39.133C23.4758 37.7316 21.7356 37.1995 20.334 37.9446Z" fill="#A35F00"/>
<path opacity="0.2" d="M42.0688 53.4979C41.869 51.5554 41.265 49.027 39.5366 47.7735C38.2518 46.8415 36.4544 47.1279 35.5227 48.4126C34.6513 49.6143 34.845 51.264 35.9249 52.235C36.1812 52.7416 36.5319 54.3454 36.3695 56.3091C38.4819 55.7444 40.4152 54.7757 42.0688 53.4979Z" fill="#A35F00"/>
<path opacity="0.2" d="M25.8652 47.5293C24.4454 48.2392 23.8701 49.9655 24.5799 51.3853C24.9928 52.2111 24.9129 53.5937 24.6048 55.1108C26.2922 55.9638 28.1623 56.5364 30.1445 56.7625C30.7737 53.9696 30.8977 51.168 29.7211 48.8148C29.0112 47.395 27.2854 46.8196 25.8652 47.5293Z" fill="#A35F00"/>
<path d="M32.0577 54.3329C39.3785 54.3329 45.3132 48.8178 45.3132 42.0146C45.3132 35.2114 39.3785 29.6963 32.0577 29.6963C24.7369 29.6963 18.8022 35.2114 18.8022 42.0146C18.8022 48.8178 24.7369 54.3329 32.0577 54.3329Z" fill="#FCD690"/>
<path opacity="0.15" d="M30.1215 54.2008C24.0639 50.2238 25.9413 42.0725 26.9696 38.5079V30.637C22.1736 32.4909 18.8013 36.8864 18.8013 42.0141C18.8013 48.206 23.7181 53.3301 30.1215 54.2008Z" fill="#C17A00"/>
<path d="M23.9905 20.6553C26.5843 18.4787 28.3162 14.825 24.6576 9.42368C20.97 3.9797 15.4797 2.61509 11.1934 3.12015C10.1367 3.24467 9.25003 3.98859 8.94388 5.00773C7.70225 9.14124 8.09284 14.785 12.8137 19.362C17.4976 23.903 21.3966 22.8319 23.9905 20.6553Z" fill="#EDA751"/>
<path d="M8.77128 5.64014C7.75344 9.7043 8.32888 15.014 12.8135 19.3618C16.8733 23.2979 20.3428 23.0166 22.8846 21.4548C21.1365 9.5879 13.5003 6.44103 8.77128 5.64014Z" fill="#FF91AB"/>
<path d="M40.1247 20.6553C37.5308 18.4787 35.7989 14.825 39.4576 9.42368C43.1452 3.9797 48.6354 2.61509 52.9217 3.12015C53.9785 3.24467 54.8651 3.98859 55.1713 5.00773C56.4129 9.14124 56.0224 14.785 51.3015 19.362C46.6175 23.903 42.7185 22.8319 40.1247 20.6553Z" fill="#EDA751"/>
<path d="M55.3438 5.64014C56.3616 9.7043 55.7862 15.014 51.3015 19.3618C47.2416 23.2979 43.7722 23.0166 41.2305 21.4548C42.9786 9.5879 50.6149 6.44103 55.3438 5.64014Z" fill="#FF91AB"/>
<path d="M54.6254 23.9403C54.6254 34.259 44.5213 38.7786 32.0573 38.7786C19.5933 38.7786 9.48926 34.259 9.48926 23.9403C9.48926 13.6216 19.5933 5.25659 32.0573 5.25659C44.5213 5.25659 54.6254 13.6215 54.6254 23.9403Z" fill="#EDA751"/>
<path d="M54.6254 23.9403C54.6254 34.259 44.5213 38.7786 32.0573 38.7786C19.5933 38.7786 9.48926 34.259 9.48926 23.9403C9.48926 13.6216 19.5933 5.25659 32.0573 5.25659C44.5213 5.25659 54.6254 13.6215 54.6254 23.9403Z" fill="#FFDC9C"/>
<path d="M49.0297 38.5153L48.0854 35.9206C47.7979 35.1306 48.2051 34.2573 48.995 33.9698L56.5874 31.2064C57.3773 30.919 58.2507 31.3262 58.5381 32.1161L59.4825 34.7109C59.77 35.5008 59.3627 36.3742 58.5728 36.6616L50.9805 39.425C50.1905 39.7125 49.3172 39.3051 49.0297 38.5153Z" fill="#78CFC0"/>
<path opacity="0.15" d="M20.0071 8.14111C13.6867 11.4522 9.48926 17.29 9.48926 23.9402C9.48926 32.8105 16.9559 37.3953 26.9696 38.5076C12.5951 29.9215 14.4698 18.3722 20.0071 8.14111Z" fill="#C17A00"/>
<path d="M20.9832 27.6285C23.2399 27.6285 25.0694 26.1719 25.0694 24.3749C25.0694 22.578 23.2399 21.1213 20.9832 21.1213C18.7264 21.1213 16.897 22.578 16.897 24.3749C16.897 26.1719 18.7264 27.6285 20.9832 27.6285Z" fill="#FF91AB"/>
<path d="M43.1321 27.6285C45.3889 27.6285 47.2183 26.1719 47.2183 24.3749C47.2183 22.578 45.3889 21.1213 43.1321 21.1213C40.8754 21.1213 39.0459 22.578 39.0459 24.3749C39.0459 26.1719 40.8754 27.6285 43.1321 27.6285Z" fill="#FF91AB"/>
<path d="M32.0575 24.6559C33.3232 24.6559 34.3493 23.6298 34.3493 22.3641C34.3493 21.0984 33.3232 20.0723 32.0575 20.0723C30.7917 20.0723 29.7656 21.0984 29.7656 22.3641C29.7656 23.6298 30.7917 24.6559 32.0575 24.6559Z" fill="#FF91AB"/>
<path d="M53.3966 17.5974H10.7186C9.20696 17.5974 8.1886 16.0509 8.78569 14.6622L9.63248 12.6932C10.3019 11.1365 11.8338 10.1277 13.5283 10.1277H51.994C52.8347 10.1277 53.5948 10.6282 53.9269 11.4005L55.3296 14.6622C55.9267 16.0509 54.9082 17.5974 53.3966 17.5974Z" fill="#DEE2E5"/>
<path d="M8.78525 14.6623C8.18803 16.051 9.20652 17.5975 10.7182 17.5975H53.3962C54.9079 17.5975 55.9262 16.051 55.3291 14.6623L54.9852 13.8625H9.12905L8.78525 14.6623Z" fill="#7694E4"/>
<path d="M58.7385 20.704C59.9142 20.8919 60.9585 22.1032 61.0662 23.4045C61.1079 23.9094 61.5307 24.2916 62.0286 24.2916C62.0554 24.2916 62.0823 24.2905 62.1094 24.2883C62.6415 24.2442 63.0373 23.7772 62.9933 23.245C62.8136 21.0745 61.0787 19.1196 59.0435 18.7947C58.5155 18.7105 58.0203 19.0698 57.9363 19.597C57.852 20.1241 58.2113 20.6197 58.7385 20.704ZM32.0574 25.6232C33.8544 25.6232 35.316 24.1614 35.316 22.3646C35.316 20.5678 33.8542 19.106 32.0574 19.106C30.2606 19.106 28.7988 20.5678 28.7988 22.3646C28.7988 24.1613 30.2606 25.6232 32.0574 25.6232ZM32.0574 21.0396C32.7881 21.0396 33.3824 21.634 33.3824 22.3646C33.3824 23.0953 32.7881 23.6896 32.0574 23.6896C31.3268 23.6896 30.7324 23.0953 30.7324 22.3646C30.7324 21.634 31.3268 21.0396 32.0574 21.0396ZM3.7257 10.5779C4.20962 10.7182 4.72627 10.4618 4.90197 9.98172C5.08567 9.4804 4.82811 8.92507 4.32679 8.74138C3.72132 8.51966 1.16394 8.64741 0.454958 9.0902C0.00198014 9.37302 -0.13595 9.96935 0.146871 10.4223C0.330176 10.716 0.645352 10.8772 0.967748 10.8772C1.12501 10.8772 1.28396 10.839 1.43014 10.7589C1.81209 10.6248 3.32622 10.5211 3.7257 10.5779ZM5.6 21.4287C6.08985 21.2163 6.31479 20.6469 6.10222 20.1571C5.88966 19.6672 5.3204 19.4424 4.83056 19.6549C3.27466 20.3297 1.36865 23.1326 1.22865 24.2562C1.16253 24.786 1.53816 25.2725 2.06809 25.3385C2.10883 25.3436 2.14956 25.3461 2.18965 25.3461C2.66983 25.3461 3.08542 24.9909 3.1464 24.502C3.25326 23.9178 4.71042 21.8147 5.6 21.4287ZM65.8499 49.3775L64.9054 46.7829C64.678 46.1582 64.221 45.6593 63.6185 45.3784C63.016 45.0975 62.3405 45.0681 61.7155 45.2953L61.1565 45.4987L58.3448 37.7734L58.9037 37.57C59.5284 37.3426 60.0272 36.8857 60.3082 36.2832C60.5892 35.6807 60.6186 35.0048 60.3911 34.3801L59.4467 31.7855C59.2193 31.1608 58.7623 30.6619 58.16 30.3809C57.5574 30.1 56.8817 30.0705 56.2568 30.2978L53.5684 31.2762C54.9044 29.1544 55.5924 26.6867 55.5924 23.9404C55.5924 22.0203 55.2624 20.1326 54.6123 18.3129C55.1542 18.0795 55.6254 17.6921 55.9611 17.1824C56.531 16.3171 56.6269 15.2322 56.2175 14.2802L55.9948 13.7627C56.9463 10.8824 56.9865 7.69118 56.0969 4.72943C55.6791 3.3384 54.4771 2.32983 53.0346 2.15993C48.7187 1.65075 44.4709 2.99628 41.2804 5.85775C38.3918 4.83139 35.2611 4.28973 32.0574 4.28973C28.8536 4.28973 25.723 4.83139 22.8343 5.85775C19.644 2.99641 15.3968 1.65088 11.0801 2.15993C9.63761 2.32983 8.43556 3.33853 8.0179 4.72943C7.12819 7.69092 7.16841 10.8821 8.12 13.7625L7.89737 14.2802C7.48797 15.2321 7.58375 16.317 8.15364 17.1823C8.48931 17.6921 8.9606 18.0795 9.50252 18.3129C8.85244 20.1323 8.52244 22.02 8.52244 23.9404C8.52244 28.1034 10.0501 31.563 13.0628 34.2231C14.5768 35.5599 16.4309 36.6627 18.6062 37.524C17.1548 37.8532 14.1236 38.0944 12.2882 35.0865C11.1849 33.2786 8.81661 32.7054 7.00895 33.8084C5.20117 34.9115 4.62766 37.2797 5.73071 39.0878C9.08409 44.5832 14.253 45.4038 17.0357 45.4038C17.4506 45.4038 17.8695 45.3834 18.288 45.3475C18.5604 46.3286 18.9507 47.2657 19.443 48.1457C19.0917 48.3413 18.754 48.4733 18.4445 48.5319C18.0021 48.6154 17.3092 48.63 16.403 47.7993C13.9244 45.527 10.4633 44.877 7.58542 46.1432C5.0256 47.2695 3.4354 49.6943 3.4354 52.4718C3.4354 53.9953 4.67484 55.2349 6.19839 55.2349C7.72193 55.2349 8.9615 53.9953 8.9615 52.4718C8.9615 51.7307 9.42337 51.3719 9.81086 51.2016C10.5054 50.8961 11.6207 50.912 12.6691 51.8729C14.6652 53.7027 17.017 54.4255 19.4705 53.9619C20.721 53.7256 21.9479 53.182 23.1272 52.3454C23.376 52.5334 23.6314 52.7138 23.8936 52.8862C23.9012 54.2086 23.4265 56.2858 22.5289 58.8243C22.187 59.7915 22.2421 60.8341 22.6842 61.7597C23.1264 62.6855 23.9025 63.3837 24.8697 63.7257C25.2834 63.872 25.7142 63.9461 26.1501 63.9461C27.7744 63.9461 29.2297 62.9168 29.7714 61.3847C30.3756 59.6756 31.0808 57.4967 31.4027 55.2842C31.6198 55.2935 31.8379 55.2988 32.0574 55.2988C33.2211 55.2988 34.3521 55.1667 35.4353 54.9192C35.4694 55.9194 35.384 57.339 34.8588 58.8241C34.1531 60.8209 35.2033 63.0197 37.1998 63.7254C37.6134 63.8717 38.0442 63.9459 38.4802 63.9459C39.7798 63.9459 40.9806 63.2975 41.6923 62.2114C41.9849 61.7649 41.8601 61.1655 41.4135 60.8729C40.9669 60.5802 40.3679 60.705 40.0749 61.1515C39.7271 61.6824 39.1161 62.0121 38.4802 62.0121C38.2644 62.0121 38.0505 61.9751 37.8443 61.9022C36.8529 61.5517 36.3314 60.4598 36.6818 59.4684C37.3905 57.4642 37.436 55.5958 37.3416 54.3471C38.6439 53.8585 39.8512 53.1951 40.9306 52.3878C41.0098 52.802 41.0728 53.2385 41.1171 53.6973C41.2348 54.9162 41.214 56.1685 41.0554 57.4193C40.9882 57.949 41.3632 58.4329 41.8929 58.5001C41.9341 58.5052 41.9751 58.5078 42.0157 58.5078C42.4954 58.5078 42.9116 58.1509 42.9736 57.6626C43.1503 56.2695 43.1733 54.8728 43.0418 53.5114C42.9523 52.5839 42.7956 51.7245 42.5767 50.9454C43.4071 50.0929 44.1201 49.1393 44.693 48.1071C46.0775 48.5767 47.5931 48.8232 49.1281 48.8232C51.0353 48.8232 52.9136 48.4343 54.6234 47.6938L54.6819 47.8546L54.1231 48.058C53.4983 48.2854 52.9996 48.7424 52.7186 49.3449C52.4375 49.9474 52.4081 50.6232 52.6354 51.2479L53.5798 53.8427C53.9473 54.8523 54.904 55.4804 55.9211 55.4804C56.2032 55.4804 56.4898 55.4321 56.7698 55.3303L64.3619 52.5668C65.6517 52.0983 66.3191 50.6672 65.8499 49.3775ZM17.9166 43.4386C17.622 43.4593 17.3277 43.4703 17.0358 43.4703C14.6585 43.4703 10.243 42.7701 7.38136 38.0808C6.83364 37.1831 7.11839 36.0069 8.0161 35.4592C8.91406 34.9116 10.0901 35.1962 10.6377 36.0938C12.4858 39.1226 15.4579 39.8981 18.0721 39.5793C17.9142 40.3761 17.8346 41.1891 17.8346 42.0143C17.8346 42.4954 17.863 42.9706 17.9166 43.4386ZM56.9182 32.1148C57.0575 32.0642 57.2082 32.0706 57.3427 32.1333C57.4771 32.1959 57.579 32.3072 57.6298 32.4465L58.5743 35.0414C58.625 35.1808 58.6183 35.3314 58.5557 35.4659C58.493 35.6003 58.3817 35.7023 58.2423 35.753L56.7756 36.2868C56.7754 36.2869 56.7751 36.2869 56.7749 36.287C56.7746 36.2872 56.7745 36.2873 56.7742 36.2873L52.1186 37.9818C52.1182 37.9819 52.1179 37.982 52.1173 37.9822C52.1169 37.9823 52.1166 37.9825 52.1162 37.9827L50.65 38.5163C50.3619 38.621 50.043 38.4723 49.9383 38.1845L49.0445 35.7289C49.7475 35.2783 50.3959 34.7925 50.9889 34.2729L56.9182 32.1148ZM54.6973 10.7773C54.1654 9.78772 53.1321 9.16097 51.9938 9.16097H49.0497C50.9607 7.83891 52.9605 7.13998 54.5985 6.77208C54.8349 8.10007 54.8664 9.45488 54.6973 10.7773ZM52.8084 4.08038C53.3457 4.14368 53.8112 4.4555 54.0786 4.9077C51.8981 5.40915 49.1593 6.43795 46.6837 8.54171C45.6199 7.83672 44.4912 7.21397 43.3108 6.67746C47.0383 3.78815 51.1182 3.88109 52.8084 4.08038ZM32.0574 6.22345C36.3293 6.22345 40.4535 7.25277 43.9649 9.16097H20.1499C23.6614 7.25277 27.7856 6.22345 32.0574 6.22345ZM11.3064 4.08038C12.9969 3.88109 17.0767 3.78841 20.8041 6.67746C19.6237 7.21397 18.4952 7.83672 17.4314 8.54171C14.9557 6.43795 12.2169 5.40902 10.0363 4.9077C10.3037 4.4555 10.7692 4.14368 11.3064 4.08038ZM9.46501 11.1152C9.24393 9.6864 9.25966 8.21351 9.51644 6.77208C11.1545 7.13985 13.1544 7.83891 15.0652 9.16085H13.5281C11.9205 9.16097 10.4376 9.89948 9.46501 11.1152ZM9.76858 16.119C9.55447 15.7937 9.51979 15.402 9.67371 15.0443L10.5204 13.0752C11.0379 11.8721 12.2184 11.0946 13.5281 11.0946H47.2527C47.2529 11.0946 47.2532 11.0947 47.2534 11.0947C47.2538 11.0947 47.2542 11.0946 47.2546 11.0946H51.9938C52.4489 11.0946 52.8589 11.3646 53.0386 11.7825L54.4413 15.0443C54.5949 15.4021 54.5604 15.7939 54.3463 16.1191C54.132 16.4443 53.7858 16.6308 53.3965 16.6308H53.2826C53.2812 16.6308 53.2797 16.6308 53.2783 16.6308H10.837C10.8357 16.6308 10.8343 16.6308 10.833 16.6308H10.7184C10.3291 16.6307 9.98282 16.4442 9.76858 16.119ZM19.1117 52.062C17.2819 52.4076 15.5053 51.8495 13.9757 50.4475C12.2418 48.858 10.2851 48.8807 9.0324 49.4318C7.77736 49.9839 7.02803 51.1203 7.02803 52.4719C7.02803 52.9292 6.65588 53.3014 6.19852 53.3014C5.74116 53.3014 5.36913 52.9292 5.36913 52.4719C5.36913 50.4728 6.51679 48.726 8.36427 47.9132C10.5405 46.956 13.1831 47.4704 15.0967 49.2247C16.2414 50.2739 17.4881 50.68 18.8035 50.4319C19.3619 50.3264 19.9336 50.0999 20.5109 49.7618C20.8533 50.2057 21.2242 50.6289 21.6213 51.0296C20.7946 51.556 19.954 51.9028 19.1117 52.062ZM27.9483 60.7403C27.6792 61.5013 26.9567 62.0125 26.1501 62.0125C25.9344 62.0125 25.7205 61.9755 25.5143 61.9026C25.0339 61.7328 24.6485 61.3862 24.429 60.9265C24.2095 60.4668 24.1821 59.9491 24.3519 59.4687C25.1386 57.2434 25.612 55.3894 25.7691 53.9275C26.9258 54.4623 28.1708 54.8546 29.4779 55.0793C29.1751 57.103 28.5152 59.1366 27.9483 60.7403ZM28.9523 39.6498C29.9597 39.7132 31.0045 39.7455 32.0574 39.7455C36.3911 39.7455 40.3028 39.2106 43.6269 38.1799C43.964 39.0454 44.1838 39.9408 44.2837 40.8579C44.2839 40.8608 44.2842 40.8637 44.2846 40.8666C44.3256 41.2457 44.3466 41.6283 44.3466 42.0141C44.3466 48.273 38.8336 53.3651 32.0574 53.3651C25.2812 53.3651 19.7682 48.2731 19.7682 42.0141C19.7682 40.692 20.0103 39.4063 20.4874 38.1809C21.6762 38.5484 22.9428 38.8559 24.2908 39.0977C24.3486 39.108 24.406 39.113 24.4626 39.113C24.9218 39.113 25.3293 38.7846 25.4131 38.3168C25.5073 37.7912 25.1578 37.2888 24.6321 37.1944C23.0702 36.9143 21.6289 36.5443 20.3076 36.0898C20.2746 36.0767 20.2415 36.0654 20.2079 36.0562C17.8519 35.2344 15.8875 34.1375 14.3427 32.7734C11.7638 30.4963 10.4563 27.5243 10.4563 23.9401C10.4563 22.1027 10.7987 20.2973 11.4726 18.5641H52.6426C53.3165 20.2976 53.6589 22.1029 53.6589 23.9401C53.6589 27.4844 52.3927 30.4104 49.8885 32.6716C49.8664 32.6895 49.8448 32.7082 49.8245 32.7279C49.1462 33.3325 48.3796 33.8895 47.523 34.397C46.4282 35.0457 45.1996 35.6049 43.8529 36.0728C43.844 36.0758 43.8351 36.0786 43.8262 36.0819C40.5402 37.2194 36.5497 37.8116 32.0578 37.8116C31.0454 37.8116 30.0414 37.7807 29.0743 37.7197C28.5421 37.688 28.0823 38.0909 28.0486 38.6238C28.0147 39.157 28.4195 39.6162 28.9523 39.6498ZM47.3401 36.6993L48.1214 38.8458C48.4889 39.8554 49.4456 40.4836 50.4627 40.4836C50.7447 40.4836 51.0314 40.4352 51.3114 40.3334L51.8703 40.13L51.9853 40.4459C50.1836 41.3958 47.9633 41.2792 46.6476 40.6237C46.4246 40.5126 46.2703 40.4073 46.1661 40.3235C46.0373 39.3725 45.7996 38.4423 45.4534 37.5401C46.1105 37.2815 46.7404 37.0017 47.3401 36.6993ZM49.1282 46.8902C47.8735 46.8902 46.6397 46.6989 45.5062 46.3376C45.9463 45.1466 46.2094 43.8796 46.267 42.5639C47.0816 42.8811 48.0561 43.066 49.0848 43.066C50.262 43.066 51.5059 42.825 52.6505 42.2736L53.961 45.8739C52.465 46.54 50.8111 46.8902 49.1282 46.8902ZM53.6873 39.4687L56.5277 38.4349L59.3395 46.1601L56.499 47.1939L53.6873 39.4687ZM63.7009 50.7505L56.1087 53.514C55.8207 53.6185 55.5015 53.4699 55.3968 53.182V53.1822L54.4525 50.5874C54.4017 50.4481 54.4083 50.2974 54.4709 50.1629C54.5336 50.0285 54.6448 49.9266 54.7843 49.8758L60.9089 47.6467C60.909 47.6467 60.9091 47.6465 60.9093 47.6465C60.9094 47.6465 60.9095 47.6464 60.9097 47.6464L62.3767 47.1125C62.5161 47.0619 62.6668 47.0684 62.8012 47.131C62.9357 47.1937 63.0375 47.3049 63.0883 47.4444L64.0328 50.039C64.1375 50.3265 63.9886 50.6458 63.7009 50.7505ZM58.8183 9.80409C58.9793 9.90657 59.1589 9.9553 59.3365 9.9553C59.656 9.9553 59.9688 9.79687 60.1531 9.50735C60.4082 9.10619 61.5592 8.21751 62.4957 8.26237C63.0313 8.28686 63.4813 7.87397 63.5054 7.34056C63.5297 6.80714 63.1169 6.35507 62.5836 6.33083C60.8679 6.25091 59.124 7.52283 58.5217 8.46939C58.235 8.92005 58.3679 9.51753 58.8183 9.80409ZM43.0426 27.6861C44.0489 27.9532 46.2716 29.0644 47.0187 29.6159C47.1916 29.7433 47.3925 29.8048 47.5921 29.8048C47.8886 29.8048 48.181 29.669 48.3707 29.4122C48.6878 28.9825 48.5966 28.3773 48.167 28.0602C47.2301 27.3686 44.8174 26.1567 43.5386 25.8172C43.0226 25.6802 42.4933 25.9877 42.3561 26.5037C42.2191 27.0197 42.5264 27.5491 43.0426 27.6861ZM40.7504 22.0962C41.2843 22.0962 41.7172 21.6634 41.7172 21.1294V19.6864C41.7172 19.1525 41.2843 18.7196 40.7504 18.7196C40.2163 18.7196 39.7836 19.1525 39.7836 19.6864V21.1294C39.7836 21.6634 40.2163 22.0962 40.7504 22.0962ZM23.3646 18.7196C22.8305 18.7196 22.3978 19.1525 22.3978 19.6864V21.1294C22.3978 21.6634 22.8305 22.0962 23.3646 22.0962C23.8987 22.0962 24.3314 21.6634 24.3314 21.1294V19.6864C24.3314 19.1525 23.8985 18.7196 23.3646 18.7196ZM44.2469 24.6649C45.2791 24.5282 47.7575 24.7089 48.6586 24.9342C48.7373 24.9538 48.8162 24.9634 48.8938 24.9634C49.3269 24.9632 49.7211 24.6701 49.831 24.2308C49.9605 23.7127 49.6456 23.1879 49.1275 23.0584C47.9977 22.7761 45.3055 22.5749 43.9938 22.7481C43.4645 22.8181 43.0921 23.3039 43.1619 23.8332C43.2318 24.3625 43.7189 24.7343 44.2469 24.6649ZM20.5764 25.8172C19.2977 26.1567 16.885 27.3685 15.9478 28.0602C15.5183 28.3773 15.4271 28.9825 15.7442 29.4122C15.9338 29.6691 16.2263 29.805 16.5228 29.805C16.7222 29.805 16.9233 29.7435 17.0961 29.616C17.8434 29.0644 20.0661 27.9534 21.0724 27.6861C21.5885 27.5491 21.8958 27.0197 21.7588 26.5037C21.6218 25.9877 21.0926 25.6802 20.5764 25.8172ZM19.868 24.6649C20.396 24.7344 20.8832 24.3625 20.9532 23.8331C21.023 23.3038 20.6506 22.818 20.1213 22.748C18.8093 22.5746 16.1171 22.7758 14.9875 23.0584C14.4694 23.1878 14.1546 23.7128 14.284 24.2308C14.394 24.6701 14.7881 24.9634 15.2213 24.9634C15.2991 24.9634 15.3779 24.954 15.4566 24.9342C16.3573 24.7089 18.8352 24.5284 19.868 24.6649Z" fill="#151515"/>
</g>
<defs>
<clipPath id="clip0_716_16812">
<rect width="66" height="66" fill="white"/>
</clipPath>
</defs>
</svg>
