<svg width="66" height="66" viewBox="0 0 66 66" fill="none" xmlns="http://www.w3.org/2000/svg">
<path d="M19.6098 56.0073C19.1597 56.0073 18.713 55.8141 18.4038 55.4401C17.8532 54.7744 17.9466 53.7884 18.6121 53.238C21.2359 51.0677 23.2745 51.0877 25.4319 51.1086C26.5188 51.1192 27.643 51.1301 29.0402 50.8681C31.2417 50.4549 32.3382 48.2081 32.7067 43.3554C32.7722 42.4941 33.5248 41.8488 34.3847 41.9142C35.246 41.9796 35.8912 42.7309 35.8259 43.5922C35.6168 46.3459 35.1929 48.3513 34.4916 49.9036C33.4682 52.1687 31.8281 53.5277 29.6171 53.9426C27.9188 54.2615 26.5812 54.2484 25.4013 54.2369C23.4979 54.2174 22.3487 54.2071 20.6058 55.6487C20.3142 55.8899 19.961 56.0073 19.6098 56.0073Z" fill="#EDA751"/>
<path d="M18.4034 55.44C18.7126 55.8141 19.1593 56.0072 19.6094 56.0072C19.9605 56.0072 20.3137 55.8897 20.6055 55.6484C20.8383 55.4559 21.0602 55.2899 21.2751 55.1458C20.9076 54.0675 19.9388 53.1888 19.279 52.7241C19.0605 52.8804 18.8385 53.0504 18.6118 53.2379C17.9461 53.7884 17.8527 54.7745 18.4034 55.44Z" fill="#FCD79D"/>
<path d="M39.6121 55.8996C38.4558 55.8996 37.417 55.0937 37.1667 53.9173C36.7166 51.8016 36.0572 49.2839 34.9441 48.5897C33.7713 47.8583 33.4137 46.3146 34.1451 45.1419C34.8766 43.969 36.4203 43.6115 37.593 44.3429C40.1325 45.9269 41.2164 48.8996 42.0623 52.8758C42.3498 54.2276 41.4871 55.5567 40.1353 55.8445C39.9597 55.8817 39.7844 55.8996 39.6121 55.8996Z" fill="#EDA751"/>
<path d="M22.0479 47.7161C21.3963 47.7161 20.7293 47.6442 20.052 47.4814C18.7082 47.1583 17.8807 45.807 18.2036 44.4632C18.5267 43.1193 19.8779 42.2921 21.222 42.6148C23.5325 43.1717 26.3829 41.0977 27.5669 39.9241C28.5485 38.9511 30.133 38.9582 31.1061 39.9398C32.0791 40.9215 32.072 42.506 31.0904 43.4791C30.3019 44.2605 26.5574 47.7161 22.0479 47.7161Z" fill="#EDA751"/>
<path d="M49.8972 48.6134C48.7409 48.6134 47.7022 47.8075 47.4519 46.6311C46.972 44.3755 45.021 43.7371 44.6567 43.7048C43.2787 43.5972 42.2491 42.393 42.3569 41.015C42.4645 39.6372 43.6642 38.6097 45.047 38.7149C47.3422 38.8942 51.3539 40.9191 52.3475 45.5895C52.6351 46.9413 51.7723 48.2705 50.4205 48.5582C50.245 48.5953 50.0696 48.6134 49.8972 48.6134Z" fill="#EDA751"/>
<path d="M43.4717 35.5437C42.4203 35.5437 41.4417 34.8759 41.0949 33.8228C40.6627 32.5101 41.3767 31.0954 42.6895 30.6633C44.273 30.1421 47.4146 28.5457 47.9701 26.2346C48.2932 24.8907 49.6444 24.0633 50.9884 24.3863C52.3322 24.7093 53.1597 26.0608 52.8367 27.4045C51.5477 32.7666 45.4615 35.0201 44.2546 35.4174C43.9948 35.503 43.7309 35.5437 43.4717 35.5437Z" fill="#EDA751"/>
<path opacity="0.2" d="M34.3847 41.914C33.5246 41.8485 32.7722 42.4938 32.7067 43.3552C32.4638 46.5523 31.9049 48.6178 30.9224 49.7735C31.9001 50.2352 32.9483 50.5707 34.0437 50.7678C34.2038 50.4957 34.3537 50.2085 34.4915 49.9033C35.1928 48.3511 35.6167 46.3457 35.8258 43.592C35.8912 42.7306 35.246 41.9794 34.3847 41.914Z" fill="#A35F00"/>
<path opacity="0.2" d="M27.5667 39.9241C26.924 40.5612 25.7899 41.4629 24.5181 42.0656C24.8017 43.1682 25.249 44.2423 25.8695 45.2558C26.145 45.7057 26.4479 46.1328 26.7756 46.5357C28.9945 45.4575 30.6042 43.9608 31.0901 43.4791C32.0718 42.5061 32.0788 40.9215 31.1058 39.9398C30.1328 38.9582 28.5483 38.9511 27.5667 39.9241Z" fill="#A35F00"/>
<path d="M46.0739 32.8852C43.2343 28.2479 36.8868 26.966 31.8963 30.0219C26.9058 33.0778 25.1621 39.3142 28.0016 43.9515C30.8412 48.5887 37.1887 49.8706 42.1792 46.8148C47.1697 43.7589 48.9134 37.5224 46.0739 32.8852Z" fill="#FCD690"/>
<path opacity="0.15" d="M40.8072 47.5303C35.0179 47.348 32.8951 41.008 32.108 38.1489L28.8224 32.7837C26.3272 36.0494 25.8633 40.4532 28.0037 43.9486C30.5884 48.1694 36.0789 49.6098 40.8072 47.5303Z" fill="#C17A00"/>
<path d="M22.6248 27.2234C23.4844 24.657 23.1397 21.4435 18.391 19.2889C13.6049 17.1174 9.29282 18.479 6.58192 20.6126C5.91355 21.1385 5.61977 22.0158 5.83646 22.8382C6.7156 26.1741 9.33768 29.8582 14.4662 31.0074C19.5547 32.1475 21.7653 29.7898 22.6248 27.2234Z" fill="#EDA751"/>
<path d="M5.98291 23.3414C6.98554 26.5366 9.59435 29.9157 14.4662 31.0073C18.8766 31.9956 21.1242 30.3555 22.2049 28.23C16.0596 20.8706 9.54072 21.9132 5.98291 23.3414Z" fill="#FF91AB"/>
<path d="M33.6227 20.4886C30.9461 20.0877 28.2403 18.3201 28.4796 13.111C28.7208 7.86082 31.8936 4.63881 35.0261 3.1939C35.7984 2.8376 36.7134 2.97463 37.3475 3.54156C39.9193 5.84086 42.009 9.851 40.7015 14.9415C39.4042 19.9921 36.2994 20.8895 33.6227 20.4886Z" fill="#EDA751"/>
<path d="M37.729 3.90039C40.1193 6.24571 41.9435 10.1054 40.7015 14.9412C39.5771 19.3189 37.0948 20.5754 34.7101 20.5718C30.9481 11.7531 34.8398 6.42038 37.729 3.90039Z" fill="#FF91AB"/>
<path d="M44.8785 16.6747C49.1859 23.7085 44.185 31.0069 35.6889 36.2098C27.1929 41.4127 18.4189 42.5498 14.1115 35.5161C9.80406 28.4823 13.1997 18.5626 21.6958 13.3596C30.1919 8.15661 40.5711 9.64083 44.8785 16.6747Z" fill="#FFDC9C"/>
<path opacity="0.15" d="M14.686 20.356C11.7598 25.2513 11.3356 30.9829 14.1116 35.5158C17.8143 41.5623 24.8178 41.5707 32.1081 38.1489C18.7254 38.2965 15.1823 29.6413 14.686 20.356Z" fill="#C17A00"/>
<path d="M24.9119 29.3104C24.1617 28.0852 22.3065 27.8556 20.7682 28.7976C19.2299 29.7395 18.5911 31.4963 19.3413 32.7215C20.0915 33.9467 21.9467 34.1763 23.485 33.2344C25.0233 32.2924 25.6622 30.5356 24.9119 29.3104Z" fill="#FF91AB"/>
<path d="M34.4411 23.4718C35.1913 24.697 37.0465 24.9266 38.5848 23.9847C40.1231 23.0427 40.762 21.2859 40.0117 20.0607C39.2615 18.8355 37.4063 18.6059 35.868 19.5478C34.3297 20.4898 33.6908 22.2466 34.4411 23.4718Z" fill="#FF91AB"/>
<path d="M53.1389 21.7164V8.04126H40.0787V21.7164C40.0787 23.1319 39.5066 24.4875 38.4925 25.4751L36.2906 27.6192C34.1762 29.6783 32.9834 32.5044 32.9834 35.4559V61.5662C32.9834 63.481 34.5356 65.0332 36.4503 65.0332H56.7671C58.6819 65.0332 60.2341 63.481 60.2341 61.5662V35.4559C60.2341 32.5044 59.0414 29.6783 56.9268 27.6192L54.725 25.4751C53.711 24.4875 53.1389 23.1319 53.1389 21.7164Z" fill="#B77866"/>
<path d="M53.5309 8.0413H39.6866C38.6354 8.0413 37.7832 7.1891 37.7832 6.13787V4.6026C37.7832 2.59463 39.411 0.966797 41.419 0.966797H51.7987C53.8066 0.966797 55.4345 2.59463 55.4345 4.6026V6.13774C55.4343 7.1891 54.5821 8.0413 53.5309 8.0413Z" fill="#DEE2E5"/>
<path d="M53.5531 54.8115H39.665C39.0083 54.8115 38.4761 54.2793 38.4761 53.6226V35.9621C38.4761 35.3054 39.0083 34.7732 39.665 34.7732H53.5529C54.2096 34.7732 54.7418 35.3054 54.7418 35.9621V53.6228C54.742 54.2793 54.2096 54.8115 53.5531 54.8115Z" fill="white"/>
<path d="M42.5811 42.9868C42.5811 40.7623 44.3843 38.959 46.6089 38.959C48.8334 38.959 50.6367 40.7623 50.6367 42.9868V52.267H42.5811V42.9868Z" fill="#F5D141"/>
<path d="M38.4761 48.5626V53.6226C38.4761 54.2792 39.0083 54.8115 39.665 54.8115H53.553C54.2096 54.8115 54.7419 54.2792 54.7419 53.6226V42.6423L38.4761 48.5626Z" fill="#BD4568"/>
<path opacity="0.1" d="M32.9834 59.043V61.5662C32.9834 63.4808 34.5356 65.0331 36.4503 65.0331H56.7671C58.6819 65.0331 60.2341 63.481 60.2341 61.5662V59.043H32.9834Z" fill="#151515"/>
<path opacity="0.1" d="M41.4439 29.9299C43.3324 27.2127 43.4756 21.9395 43.4761 14.4301C43.4762 13.3384 44.3617 12.4531 45.4533 12.4531H53.1389V8.04126H40.0787V21.7164C40.0787 23.1321 39.5066 24.4875 38.4925 25.4751L36.2906 27.6192C34.1762 29.6782 32.9834 32.5044 32.9834 35.4558V61.5661C32.9834 63.4809 34.5356 65.033 36.4503 65.033H49.4044C38.8589 57.8906 36.8266 36.5735 41.4439 29.9299Z" fill="#151515"/>
<path d="M44.3808 52.9402H48.8367C49.3708 52.9402 49.8035 52.5075 49.8035 51.9734C49.8035 51.4394 49.3708 51.0067 48.8367 51.0067H44.3808C43.8469 51.0067 43.414 51.4394 43.414 51.9734C43.414 52.5075 43.8469 52.9402 44.3808 52.9402ZM39.6648 33.8063C38.4761 33.8063 37.5091 34.7734 37.5091 35.962V53.6227C37.5091 54.8113 38.4761 55.7784 39.6648 55.7784H53.5527C54.7414 55.7784 55.7084 54.8113 55.7084 53.6227V35.962C55.7084 34.7734 54.7414 33.8063 53.5527 33.8063H39.6648ZM53.7748 53.6226C53.7748 53.745 53.6753 53.8447 53.5527 53.8447H39.6648C39.5423 53.8447 39.4426 53.7451 39.4426 53.6226V49.2396L53.7748 44.0232V53.6226ZM53.7748 35.962V41.9654L39.4426 47.1819V35.9619C39.4426 35.8394 39.5422 35.7398 39.6648 35.7398H53.5527C53.6753 35.7399 53.7748 35.8394 53.7748 35.962ZM21.5717 28.3128C21.7541 28.6107 22.0718 28.7748 22.3971 28.7748C22.5693 28.7748 22.7436 28.7288 22.9011 28.6324C23.3564 28.3536 23.4997 27.7584 23.2207 27.303L22.6183 26.3193C22.3395 25.8639 21.7443 25.7211 21.2888 25.9997C20.8335 26.2786 20.6903 26.8737 20.9692 27.3292L21.5717 28.3128ZM60.2342 50.5777C60.7683 50.5777 61.201 50.1448 61.201 49.6109V35.4559C61.201 32.2629 59.889 29.1541 57.6015 26.9266L55.3997 24.7825C54.5774 23.9817 54.1059 22.8642 54.1059 21.7164V8.95022C55.414 8.68325 56.4013 7.52374 56.4013 6.13787V4.6026C56.4012 2.06482 54.3365 0 51.7986 0H41.4189C39.6801 0 38.1638 0.969375 37.3811 2.39598C36.5363 1.94571 35.5162 1.90291 34.621 2.3158C31.4517 3.77798 29.0965 6.46761 28.0811 9.75279C25.6931 10.2702 23.3541 11.2103 21.1909 12.535C18.9781 13.89 17.0964 15.5559 15.5861 17.4085C12.1962 16.8179 8.72816 17.6932 5.984 19.8528C5.01089 20.6186 4.58601 21.8871 4.9017 23.0845C5.82957 26.6055 8.20402 29.4602 11.4557 30.9965C11.7272 32.7556 12.3284 34.4554 13.2869 36.0209C15.4746 39.5932 18.8641 41.4235 23.1163 41.4232C23.2674 41.4232 23.42 41.42 23.5733 41.4155C22.6803 41.7468 21.9475 41.7951 21.4473 41.6747C19.5873 41.2285 17.7106 42.3775 17.2634 44.2373C16.8162 46.0974 17.9658 47.9744 19.8258 48.4214C20.548 48.5951 21.2954 48.683 22.0475 48.683C24.7167 48.683 27.1113 47.581 28.8222 46.4955C29.4284 47.0763 30.107 47.5794 30.8473 48C30.2487 49.4644 29.485 49.8007 28.8615 49.9178C27.5567 50.1623 26.4806 50.1516 25.4399 50.1418C23.2043 50.1209 20.8912 50.0976 17.9954 52.4929C17.4744 52.9239 17.1526 53.5318 17.0889 54.2047C17.0252 54.8777 17.2273 55.5353 17.6583 56.056C18.1406 56.6393 18.8518 56.974 19.6094 56.974C20.1964 56.974 20.769 56.7676 21.2216 56.3933C22.6939 55.1757 23.5394 55.183 25.3916 55.2033C26.6154 55.2154 28.0036 55.2289 29.7952 54.8925C30.5984 54.7418 31.3402 54.4778 32.0165 54.1056V61.5661C32.0165 64.011 34.0055 66 36.4502 66H56.7669C59.2117 66 61.2007 64.011 61.2007 61.5661V54.171C61.2007 53.6371 60.768 53.2043 60.2339 53.2043C59.7 53.2043 59.2671 53.6371 59.2671 54.171V61.5661C59.2671 62.9447 58.1455 64.0664 56.7669 64.0664H36.4505C35.072 64.0664 33.9503 62.9448 33.9503 61.5661V35.4559C33.9503 32.7816 35.0491 30.1777 36.9653 28.3118L39.167 26.1677C39.9592 25.3965 40.5253 24.4223 40.8179 23.3676C40.836 23.3173 40.8504 23.2655 40.8598 23.212C40.9814 22.7253 41.0456 22.2231 41.0456 21.7164V12.1448C41.0456 12.143 41.0456 12.141 41.0456 12.1392V9.0081H52.1723V21.7164C52.1723 23.3828 52.8569 25.0052 54.0507 26.1677L56.2525 28.3118C58.1685 30.1776 59.2674 32.7815 59.2674 35.4559V49.6109C59.2674 50.1449 59.7001 50.5777 60.2342 50.5777ZM35.4311 4.07163C35.6812 3.95626 35.9566 3.93731 36.2126 4.00293C34.9986 5.24017 33.684 6.99755 32.9013 9.29607C32.3469 9.28061 31.7868 9.28692 31.2214 9.31992C30.9009 9.33861 30.5806 9.36775 30.2603 9.40191C31.612 6.14805 34.2537 4.61484 35.4311 4.07163ZM11.2864 28.7137C9.01755 27.3266 7.83058 25.3729 7.22485 23.9204C8.56496 23.4861 10.302 23.1529 12.2331 23.3476C11.6176 25.1151 11.2934 26.928 11.2864 28.7137ZM6.7635 22.037C6.82137 21.7794 6.96356 21.5426 7.17999 21.3723C8.19938 20.57 10.7682 18.9116 14.2853 19.1896C13.7979 19.9381 13.3666 20.7081 12.9941 21.4932C10.5863 21.1428 8.41981 21.5172 6.7635 22.037ZM22.0477 46.7493C21.4476 46.7493 20.852 46.6793 20.2779 46.5413C19.4544 46.3435 18.9457 45.5124 19.1435 44.6892C19.3415 43.866 20.1722 43.357 20.9951 43.5546C22.861 44.0042 24.8264 43.1046 26.1689 42.2503C26.4153 43.0194 26.7521 43.7561 27.1793 44.4537C27.2962 44.6447 27.4206 44.8293 27.5485 45.0108C26.0934 45.898 24.1496 46.7493 22.0477 46.7493ZM32.0166 51.752C31.2993 52.3881 30.4342 52.8054 29.4386 52.9922C27.8331 53.2936 26.5464 53.2811 25.4109 53.2697C23.4349 53.2495 22.0065 53.2351 19.9891 54.9035C19.8522 55.0167 19.7071 55.0405 19.6095 55.0405C19.4303 55.0405 19.2624 54.9616 19.1484 54.8238C19.0467 54.7009 18.999 54.5458 19.014 54.3868C19.0291 54.228 19.105 54.0846 19.228 53.9828C21.5792 52.0379 23.3603 52.0552 25.4222 52.0753C26.5558 52.086 27.7274 52.0977 29.2182 51.818C30.3934 51.5976 31.319 50.9688 32.0166 49.9168V51.752ZM39.1119 18.8747C38.3471 19.2617 37.507 19.7475 37.0113 20.1491C36.5965 20.4851 36.5327 21.094 36.8688 21.5089C37.0598 21.7447 37.339 21.867 37.6206 21.867C37.8343 21.867 38.0494 21.7965 38.2286 21.6514C38.4239 21.4932 38.7396 21.288 39.1119 21.0718V21.7162C39.1119 21.8705 39.1027 22.024 39.086 22.1765C38.7277 22.2323 38.3557 22.3043 38.0489 22.3959C37.5373 22.5488 37.2463 23.0872 37.3992 23.599C37.5173 23.9944 37.8664 24.2547 38.2548 24.2836C38.1228 24.4602 37.9771 24.6273 37.8179 24.7822L35.6162 26.9263C33.3286 29.154 32.0166 32.2628 32.0166 35.4557V46.4364C31.1385 45.9693 30.3629 45.3631 29.7127 44.6342C29.6954 44.6128 29.6775 44.5924 29.6588 44.5728C29.353 44.2231 29.075 43.8464 28.8283 43.4436C28.3219 42.6168 27.9727 41.721 27.7815 40.7733C28.3512 40.6233 28.931 40.4474 29.521 40.2449C30.026 40.0714 30.2948 39.5216 30.1214 39.0166C29.9479 38.5115 29.3979 38.2433 28.8931 38.4161C28.0732 38.6977 27.2966 38.918 26.5595 39.0853C26.5016 39.0933 26.4455 39.1058 26.3918 39.1233C19.9492 40.5255 16.6225 37.7648 14.9362 35.0109C10.9141 28.443 14.173 19.1 22.2009 14.1839C27.6424 10.8516 34.2103 10.3012 39.112 12.7236V18.8747H39.1119ZM39.1119 10.6001C37.7928 10.045 36.3778 9.66114 34.8991 9.45811C35.4023 8.17034 36.0987 7.09165 36.8184 6.21818C36.8558 7.56821 37.8291 8.68841 39.1119 8.95022V10.6001ZM53.5309 7.0745H39.6867C39.1701 7.0745 38.7499 6.65427 38.7499 6.13774V4.6026C38.7499 3.13088 39.9472 1.93359 41.4189 1.93359H51.7986C53.2703 1.93359 54.4676 3.13088 54.4676 4.6026V6.13774C54.4676 6.65427 54.0475 7.0745 53.5309 7.0745ZM33.4226 21.0554C33.605 21.3533 33.9226 21.5174 34.248 21.5174C34.4202 21.5174 34.5945 21.4715 34.752 21.3751C35.2073 21.0963 35.3505 20.5011 35.0717 20.0456L34.4693 19.0619C34.1904 18.6065 33.5953 18.4636 33.1399 18.7423C32.6846 19.0211 32.5414 19.6163 32.8202 20.0717L33.4226 21.0554ZM22.3118 32.0333C21.5685 32.8126 20.4098 34.6781 20.0539 35.5552C19.8532 36.05 20.0916 36.6138 20.5864 36.8146C20.7055 36.8628 20.8285 36.8857 20.9494 36.8857C21.3314 36.8857 21.6932 36.6578 21.8457 36.2821C22.1189 35.6083 23.1483 33.9578 23.7111 33.3678C24.0795 32.9814 24.065 32.3695 23.6786 32.0008C23.2924 31.6324 22.6803 31.6466 22.3118 32.0333ZM30.0717 22.3128C29.5452 22.2246 29.0464 22.5787 28.9573 23.105C28.8866 23.5229 28.6395 23.8894 28.2794 24.11C27.9189 24.3307 27.48 24.3843 27.0759 24.2572C26.5657 24.097 26.0238 24.3806 25.8638 24.8897C25.7038 25.3992 25.987 25.9419 26.4963 26.1018C26.8302 26.2066 27.174 26.2585 27.5164 26.2585C28.1358 26.2585 28.75 26.0891 29.2892 25.7589C30.1262 25.2462 30.7001 24.3963 30.8639 23.427C30.9529 22.9006 30.5983 22.4017 30.0717 22.3128ZM22.0582 30.5785C21.8414 30.0907 21.2705 29.8708 20.7822 30.0876C19.7981 30.5249 18.016 31.8081 17.3526 32.4835C16.9785 32.8645 16.9842 33.4766 17.3651 33.8507C17.5533 34.0355 17.798 34.1275 18.0425 34.1275C18.2929 34.1275 18.5431 34.0309 18.7324 33.8382C19.2417 33.3194 20.8225 32.1856 21.5675 31.8544C22.0554 31.6378 22.2752 31.0664 22.0582 30.5785Z" fill="#151515"/>
</svg>
