<svg width="375" height="812" viewBox="0 0 375 812" fill="none" xmlns="http://www.w3.org/2000/svg">
<g clip-path="url(#clip0_142_8286)">
<g clip-path="url(#clip1_142_8286)">
<path d="M78.4818 113.288C70.749 117.181 69.0305 127.787 74.3397 135.991C79.3974 143.806 88.9609 146.638 95.661 142.303C102.36 137.968 103.695 128.082 98.6372 120.267C93.7084 112.65 84.9571 110.027 78.4818 113.288Z" fill="#696A69" fill-opacity="0.05"/>
<path d="M122.787 101.777C127.163 94.9306 124.811 85.8961 117.937 81.5026C111.003 77.0703 101.844 78.818 97.5001 85.6144C93.1236 92.4605 95.4764 101.495 102.35 105.889C109.231 110.287 118.415 108.617 122.787 101.777Z" fill="#696A69" fill-opacity="0.05"/>
<path d="M57.9614 143.297C62.2587 136.573 60.0832 127.478 53.1117 123.023C42.228 115.914 27.6871 125.209 30.897 138.249C33.8933 150.715 51.0508 154.137 57.9614 143.297Z" fill="#696A69" fill-opacity="0.05"/>
<path d="M38.9105 101.33C47.0363 108.994 60.9615 110.301 70.3738 104.272L71.558 103.514C80.964 97.4891 85.6089 84.2964 82.0435 73.7035L81.3819 71.7378C80.0181 67.6864 76.923 64.5491 72.8903 63.131C68.8617 61.7036 64.4324 62.2402 60.8806 64.5269C57.4252 66.7399 55.1494 70.3449 54.6375 74.4164L54.2996 77.1034C54.2572 77.4405 53.9207 77.6509 53.6017 77.5509L51.0189 76.7335C42.8581 73.9985 33.7769 80.006 33.1346 88.5948C32.7369 92.851 34.2923 96.9741 37.4018 99.9068L38.9105 101.33Z" fill="#696A69" fill-opacity="0.05"/>
<path d="M52.1216 218.767C48.9477 226.421 51.7599 236.157 58.5367 240.939C65.9842 246.193 75.3889 243.47 78.8789 235.053C82.0529 227.399 79.2406 217.663 72.4638 212.882C65.0135 207.625 55.611 210.352 52.1216 218.767Z" fill="#696A69" fill-opacity="0.05"/>
<path d="M21.8069 237.051C29.8463 238.233 37.12 232.382 38.3069 224.312C39.5113 216.126 34.0688 208.521 26.1742 207.36C18.1328 206.177 10.8611 212.026 9.67371 220.1L9.67399 220.1C8.48492 228.178 13.7746 235.869 21.8069 237.051Z" fill="#696A69" fill-opacity="0.05"/>
<path d="M100.021 185.615C92.1249 184.454 84.7245 190.171 83.5202 198.355L83.5201 198.355C81.418 218.174 108.47 222.137 112.154 202.567C113.358 194.381 107.915 186.776 100.021 185.615Z" fill="#696A69" fill-opacity="0.05"/>
<path d="M26.2603 186.091C31.4638 196.712 45.2665 202.923 56.696 199.5C57.282 199.218 65.2075 197.954 71.4359 189.258C74.8903 184.436 76.6689 178.808 76.4455 173.411L76.36 171.339C76.1828 167.068 74.0877 163.191 70.6123 160.702C63.4241 155.553 53.4024 158.418 49.933 166.435C49.9161 166.473 48.8403 168.96 48.8569 168.921C48.7237 169.23 48.3414 169.342 48.0618 169.155L45.8109 167.649C43.4345 166.058 40.6583 165.262 37.7829 165.344C35.7316 165.403 33.7753 165.907 32.0176 166.792C25.2682 170.19 22.0623 178.951 26.2591 186.092L26.2603 186.091Z" fill="#696A69" fill-opacity="0.05"/>
</g>
<g clip-path="url(#clip2_142_8286)">
<path d="M214.687 274.999C206.04 274.574 199.316 282.954 199.891 292.709C200.438 302.002 207.363 309.18 215.329 308.712C223.294 308.243 229.329 300.3 228.782 291.008C228.249 281.951 221.928 275.354 214.687 274.999Z" fill="#696A69" fill-opacity="0.05"/>
<path d="M258.908 286.826C266.092 283.027 268.499 274.007 264.684 266.796C260.837 259.522 252.006 256.526 244.877 260.298C237.694 264.097 235.287 273.117 239.101 280.328C242.919 287.547 251.733 290.622 258.908 286.826Z" fill="#696A69" fill-opacity="0.05"/>
<path d="M182.04 290.991C189.093 287.26 191.684 278.274 187.815 270.961C181.85 259.411 164.617 260.328 160.981 273.257C157.442 285.579 170.683 297.015 182.04 290.991Z" fill="#696A69" fill-opacity="0.05"/>
<path d="M186.154 245.087C189.445 255.76 200.917 263.762 212.077 263.158L213.482 263.082C224.635 262.477 235.181 253.289 237.301 242.315L237.694 240.279C238.505 236.082 237.359 231.826 234.55 228.604C231.748 225.376 227.63 223.66 223.413 223.898C219.315 224.12 215.558 226.134 213.105 229.424L211.487 231.596C211.284 231.868 210.887 231.885 210.659 231.641L208.815 229.656C203.063 223.254 192.2 224.003 187.407 231.159C184.963 234.666 184.284 239.02 185.543 243.105L186.154 245.087Z" fill="#696A69" fill-opacity="0.05"/>
<path d="M139.752 353.773C133.217 358.868 130.864 368.725 134.402 376.226C138.292 384.469 147.816 386.737 155.002 381.134C161.537 376.04 163.89 366.182 160.352 358.681C156.461 350.435 146.936 348.172 139.752 353.773Z" fill="#696A69" fill-opacity="0.05"/>
<path d="M104.363 354.736C110.775 359.728 119.988 358.223 124.999 351.787C130.082 345.259 129.096 335.959 122.8 331.057C116.387 326.064 107.177 327.567 102.164 334.006L102.164 334.006C97.1471 340.448 97.9572 349.748 104.363 354.736Z" fill="#696A69" fill-opacity="0.05"/>
<path d="M197.769 348.545C191.472 343.641 182.215 344.967 177.133 351.494L177.132 351.494C165.533 367.701 187.115 384.485 199.968 369.274C205.051 362.746 204.065 353.446 197.769 348.545Z" fill="#696A69" fill-opacity="0.05"/>
<path d="M133.361 312.594C132.652 324.4 141.599 336.609 153.23 339.265C153.879 339.309 161.398 342.117 171.104 337.621C176.487 335.129 180.809 331.109 183.275 326.304L184.222 324.459C186.173 320.656 186.262 316.249 184.465 312.37C180.75 304.348 170.618 301.899 163.647 307.164C163.614 307.189 161.452 308.822 161.485 308.796C161.217 309 160.829 308.908 160.678 308.608L159.463 306.188C158.179 303.632 156.156 301.571 153.614 300.225C151.8 299.265 149.85 298.738 147.884 298.642C140.337 298.271 133.228 304.313 133.359 312.595L133.361 312.594Z" fill="#696A69" fill-opacity="0.05"/>
</g>
<g clip-path="url(#clip3_142_8286)">
<path d="M269.12 474.906C261.261 471.274 251.888 476.527 248.768 485.787C245.795 494.609 249.528 503.858 257.09 506.407C264.651 508.955 273.221 503.85 276.194 495.029C279.091 486.431 275.701 477.948 269.12 474.906Z" fill="#696A69" fill-opacity="0.05"/>
<path d="M305.694 502.433C313.777 501.601 319.387 494.139 318.55 486.024C317.708 477.838 310.641 471.754 302.618 472.581C294.535 473.413 288.925 480.876 289.761 488.991C290.598 497.114 297.619 503.266 305.694 502.433Z" fill="#696A69" fill-opacity="0.05"/>
<path d="M232.859 477.508C240.796 476.69 246.564 469.329 245.716 461.099C244.51 448.156 228.187 442.553 219.974 453.179C212.078 463.279 220.073 478.841 232.859 477.508Z" fill="#696A69" fill-opacity="0.05"/>
<path d="M253.865 436.486C252.919 447.615 260.559 459.331 271.134 462.95L272.465 463.405C283.033 467.022 296.252 462.451 302.328 453.07L303.455 451.329C305.779 447.741 306.309 443.366 304.911 439.326C303.522 435.284 300.347 432.15 296.347 430.792C292.465 429.463 288.226 429.924 284.72 432.056L282.406 433.463C282.116 433.64 281.742 433.507 281.622 433.195L280.655 430.664C277.72 422.574 267.367 419.201 260.242 424.041C256.663 426.377 254.402 430.16 254.04 434.419L253.865 436.486Z" fill="#696A69" fill-opacity="0.05"/>
<path d="M170.137 519.886C162.17 522.163 156.297 530.421 156.769 538.702C157.288 547.801 165.27 553.471 174.032 550.967C181.999 548.691 187.872 540.432 187.4 532.152C186.88 523.049 178.896 517.383 170.137 519.886Z" fill="#696A69" fill-opacity="0.05"/>
<path d="M136.963 507.526C141.039 514.556 150.145 516.611 157.202 512.519C164.36 508.37 166.928 499.378 162.926 492.474C158.85 485.443 149.747 483.388 142.687 487.481L142.687 487.481C135.623 491.575 132.891 500.502 136.963 507.526Z" fill="#696A69" fill-opacity="0.05"/>
<path d="M225.891 536.765C221.888 529.86 212.809 527.622 205.652 531.771L205.651 531.771C188.826 542.455 202.552 566.1 220.167 556.809C227.325 552.66 229.893 543.668 225.891 536.765Z" fill="#696A69" fill-opacity="0.05"/>
<path d="M179.633 479.31C174.554 489.992 178.277 504.663 188.068 511.481C188.653 511.765 194.573 517.184 205.256 516.65C211.181 516.355 216.694 514.247 220.78 510.715L222.349 509.359C225.583 506.563 227.315 502.51 227.102 498.241C226.661 489.41 218.184 483.346 209.749 485.617C209.708 485.628 207.092 486.332 207.133 486.321C206.808 486.409 206.482 486.179 206.455 485.844L206.234 483.145C206.001 480.295 204.897 477.625 203.044 475.426C201.722 473.856 200.111 472.638 198.324 471.812C191.465 468.642 182.611 471.582 179.631 479.31L179.633 479.31Z" fill="#696A69" fill-opacity="0.05"/>
</g>
<g clip-path="url(#clip4_142_8286)">
<path d="M207.839 672.417C201.525 666.495 190.974 668.529 185.097 676.336C179.497 683.773 180.128 693.726 186.502 698.527C192.877 703.326 202.618 701.18 208.217 693.744C213.675 686.496 213.128 677.376 207.839 672.417Z" fill="#696A69" fill-opacity="0.05"/>
<path d="M233.885 710.061C241.819 711.816 249.493 706.5 251.255 698.534C253.032 690.5 248.241 682.5 240.366 680.758C232.432 679.003 224.758 684.32 222.996 692.285C221.232 700.259 225.959 708.308 233.885 710.061Z" fill="#696A69" fill-opacity="0.05"/>
<path d="M172.604 663.469C180.395 665.192 188.187 660.021 189.974 651.942C192.905 639.278 179.177 628.821 168.036 636.32C157.361 643.42 160.048 660.708 172.604 663.469Z" fill="#696A69" fill-opacity="0.05"/>
<path d="M205.459 631.147C201.057 641.413 204.619 654.938 213.517 661.703L214.636 662.554C223.528 669.315 237.514 669.139 246.234 662.148L247.852 660.851C251.188 658.177 253.069 654.192 253.014 649.918C252.969 645.644 250.942 641.669 247.573 639.12C244.307 636.637 240.139 635.74 236.14 636.659L233.5 637.266C233.169 637.342 232.856 637.099 232.84 636.765L232.719 634.058C232.481 625.455 223.717 618.993 215.431 621.344C211.298 622.434 207.961 625.313 206.276 629.241L205.459 631.147Z" fill="#696A69" fill-opacity="0.05"/>
<path d="M99.7286 683.94C91.4502 683.592 83.2751 689.581 81.1159 697.589C78.7434 706.389 84.5341 714.284 93.6383 714.666C101.917 715.014 110.092 709.025 112.251 701.017C114.624 692.214 108.83 684.323 99.7286 683.94Z" fill="#696A69" fill-opacity="0.05"/>
<path d="M72.1344 661.763C73.7892 669.718 81.7849 674.536 89.7714 672.875C97.8719 671.191 103.141 663.465 101.517 655.652C99.8615 647.695 91.8688 642.878 83.8789 644.54L83.8791 644.54C75.8851 646.202 70.4817 653.814 72.1344 661.763Z" fill="#696A69" fill-opacity="0.05"/>
<path d="M147.331 717.517C145.706 709.703 137.793 704.72 129.694 706.404L129.694 706.404C110.361 711.246 115.943 738.01 135.587 734.739C143.687 733.055 148.956 725.329 147.331 717.517Z" fill="#696A69" fill-opacity="0.05"/>
<path d="M121.518 648.419C113.335 656.957 112.249 672.054 119.394 681.609C119.86 682.063 123.772 689.07 134.08 691.928C139.796 693.513 145.693 693.248 150.683 691.182L152.599 690.389C156.549 688.754 159.47 685.453 160.612 681.334C162.974 672.813 156.838 664.388 148.116 663.887C148.074 663.885 145.369 663.73 145.411 663.732C145.075 663.713 144.839 663.393 144.919 663.066L145.559 660.434C146.235 657.656 146.028 654.775 144.962 652.103C144.201 650.198 143.055 648.534 141.62 647.188C136.108 642.019 126.778 642.021 121.517 648.418L121.518 648.419Z" fill="#696A69" fill-opacity="0.05"/>
</g>
<g clip-path="url(#clip5_142_8286)">
<path d="M98.8395 818.417C92.5246 812.495 81.9743 814.529 76.0966 822.336C70.4974 829.773 71.1276 839.726 77.5025 844.527C83.8769 849.326 93.6185 847.18 99.2175 839.744C104.675 832.496 104.128 823.376 98.8395 818.417Z" fill="#696A69" fill-opacity="0.05"/>
<path d="M63.6043 809.469C71.3952 811.192 79.1872 806.021 80.9738 797.942C83.9054 785.278 70.1772 774.821 59.0359 782.32C48.3614 789.42 51.0485 806.708 63.6043 809.469Z" fill="#696A69" fill-opacity="0.05"/>
<path d="M96.4588 777.147C92.0571 787.413 95.6191 800.938 104.517 807.703L105.636 808.554C114.528 815.315 128.514 815.139 137.234 808.148L138.852 806.851C142.188 804.177 144.069 800.192 144.014 795.918C143.969 791.644 141.942 787.669 138.573 785.12C135.307 782.637 131.139 781.74 127.14 782.659L124.5 783.266C124.169 783.342 123.856 783.099 123.84 782.765L123.719 780.058C123.481 771.455 114.717 764.993 106.431 767.344C102.298 768.434 98.961 771.313 97.2765 775.241L96.4588 777.147Z" fill="#696A69" fill-opacity="0.05"/>
<path d="M-36.8655 807.763C-35.2108 815.718 -27.215 820.536 -19.2285 818.875C-11.1281 817.191 -5.85892 809.465 -7.4834 801.652C-9.13848 793.695 -17.1312 788.878 -25.1211 790.54L-25.1209 790.54C-33.1149 792.202 -38.5183 799.814 -36.8655 807.763Z" fill="#696A69" fill-opacity="0.05"/>
<path d="M12.518 794.419C4.33457 802.957 3.24856 818.054 10.3943 827.609C10.86 828.063 14.7724 835.07 25.0803 837.928C30.7965 839.513 36.6929 839.248 41.6831 837.182L43.5995 836.389C47.5491 834.754 50.4697 831.453 51.6116 827.334C53.9737 818.813 47.8377 810.388 39.1164 809.887C39.0742 809.885 36.3695 809.73 36.4114 809.732C36.0755 809.713 35.839 809.393 35.9186 809.066L36.5588 806.434C37.2348 803.656 37.0282 800.775 35.9617 798.103C35.201 796.198 34.0554 794.534 32.6197 793.188C27.108 788.019 17.7783 788.021 12.5166 794.418L12.518 794.419Z" fill="#696A69" fill-opacity="0.05"/>
</g>
<g clip-path="url(#clip6_142_8286)">
<path d="M388.504 799.098C396.704 801.875 405.466 795.656 407.585 786.117C409.603 777.029 404.909 768.229 397.119 766.498C389.33 764.768 381.35 770.754 379.332 779.841C377.364 788.698 381.637 796.773 388.504 799.098Z" fill="#696A69" fill-opacity="0.05"/>
<path d="M349.212 775.613C341.263 777.299 336.478 785.315 338.172 793.295C339.88 801.345 347.553 806.644 355.443 804.969C363.391 803.283 368.176 795.266 366.483 787.286C364.788 779.298 357.153 773.927 349.212 775.613Z" fill="#696A69" fill-opacity="0.05"/>
<path d="M407.755 835.68C407.512 824.513 398.671 813.676 387.771 811.201L386.4 810.889C375.507 808.416 362.849 814.365 357.804 824.339L356.868 826.19C354.939 830.004 354.876 834.411 356.696 838.279C358.506 842.151 361.996 844.93 366.118 845.855C370.119 846.764 374.285 845.856 377.544 843.363L379.696 841.718C379.966 841.512 380.352 841.604 380.504 841.901L381.735 844.315C385.513 852.048 396.166 854.302 402.735 848.732C406.047 846.029 407.892 842.027 407.8 837.754L407.755 835.68Z" fill="#696A69" fill-opacity="0.05"/>
</g>
<g clip-path="url(#clip7_142_8286)">
<path d="M364.555 583.307C356.463 582.561 349.516 588.798 348.768 596.921C348.012 605.116 353.769 612.451 361.801 613.191C369.892 613.937 376.839 607.7 377.588 599.577C378.337 591.445 372.638 584.052 364.555 583.307Z" fill="#696A69" fill-opacity="0.05"/>
<path d="M402.655 658.032C405.734 647.295 400.504 634.324 390.828 628.728L389.61 628.024C379.941 622.432 366.088 624.361 358.313 632.39L356.87 633.88C353.897 636.952 352.53 641.141 353.121 645.375C353.702 649.609 356.212 653.298 359.873 655.404C363.425 657.459 367.673 657.826 371.525 656.412L374.067 655.479C374.386 655.362 374.728 655.564 374.785 655.894L375.245 658.563C376.56 667.069 386.066 672.38 393.991 669.009C397.955 667.409 400.904 664.134 402.083 660.026L402.655 658.032Z" fill="#696A69" fill-opacity="0.05"/>
</g>
</g>
<defs>
<clipPath id="clip0_142_8286">
<rect width="375" height="812" fill="white"/>
</clipPath>
<clipPath id="clip1_142_8286">
<rect width="164" height="164" fill="white" transform="translate(175.229 190.485) rotate(153.278)"/>
</clipPath>
<clipPath id="clip2_142_8286">
<rect width="164" height="164" fill="white" transform="translate(260.802 389.859) rotate(-177.184)"/>
</clipPath>
<clipPath id="clip3_142_8286">
<rect width="164" height="164" fill="white" transform="translate(268.865 598.678) rotate(-155.191)"/>
</clipPath>
<clipPath id="clip4_142_8286">
<rect width="164" height="164" fill="white" transform="translate(168.624 789.812) rotate(-136.837)"/>
</clipPath>
<clipPath id="clip5_142_8286">
<rect width="164" height="164" fill="white" transform="translate(59.6236 935.812) rotate(-136.837)"/>
</clipPath>
<clipPath id="clip6_142_8286">
<rect width="164" height="164" fill="white" transform="translate(375.607 676) rotate(18.7096)"/>
</clipPath>
<clipPath id="clip7_142_8286">
<rect width="164" height="164" fill="white" transform="translate(419.297 496) rotate(35.957)"/>
</clipPath>
</defs>
</svg>
