<svg width="68" height="68" viewBox="0 0 68 68" fill="none" xmlns="http://www.w3.org/2000/svg">
<path d="M51.7753 62.6641C51.3702 62.6641 50.9592 62.5693 50.5752 62.3689C46.2515 60.1139 44.4139 58.0199 42.3827 53.034C41.8409 51.7043 42.4796 50.1872 43.8093 49.6456C45.1392 49.1041 46.6562 49.7427 47.1978 51.0724C48.7774 54.9496 49.75 56.0745 52.9798 57.759C54.2528 58.4229 54.7466 59.9931 54.0826 61.2663C53.6188 62.1552 52.7131 62.6641 51.7753 62.6641Z" fill="#EDA751"/>
<path opacity="0.2" d="M47.1977 51.0722C46.6561 49.7424 45.1391 49.1039 43.8093 49.6454C42.4796 50.1871 41.8407 51.7042 42.3826 53.0338C43.9261 56.8228 45.3591 58.9412 47.855 60.7297C48.8116 59.1367 49.4406 57.347 49.6546 55.4425C48.7163 54.4362 48.0439 53.1492 47.1977 51.0722Z" fill="#A35F00"/>
<path d="M50.7942 66.6615C50.1218 66.6615 49.4498 66.4023 48.941 65.8851C47.5566 64.4782 44.1204 63.6801 42.3674 64.7607C41.1454 65.5141 39.5438 65.1342 38.7902 63.9118C38.0368 62.6895 38.4169 61.0879 39.6392 60.3345C43.7241 57.8165 49.7729 59.3171 52.6471 62.2385C53.6541 63.2619 53.6408 64.9079 52.6173 65.915C52.1112 66.413 51.4526 66.6615 50.7942 66.6615Z" fill="#EDA751"/>
<path d="M21.8038 65.3075C21.3875 65.3075 20.9653 65.2847 20.5387 65.2388C18.2194 64.9897 15.9829 64.0721 14.2419 62.6552C12.2696 61.0502 11.0892 58.9652 10.8284 56.6254C10.729 55.7336 11.3713 54.93 12.2631 54.8306C13.1527 54.7303 13.9588 55.3734 14.058 56.2654C14.3389 58.7846 16.7744 61.5659 20.8858 62.0077C22.0959 62.1375 26.1491 62.2504 27.4996 58.2431C27.7862 57.3928 28.7076 56.9357 29.5584 57.2223C30.4087 57.5089 30.8658 58.4306 30.5793 59.281C29.8415 61.4696 28.4167 63.1727 26.4589 64.2061C25.0807 64.9338 23.4908 65.3075 21.8038 65.3075Z" fill="#EDA751"/>
<path d="M14.3867 57.5591C14.217 57.1288 14.1055 56.6935 14.0579 56.2654C13.9587 55.3734 13.1526 54.7302 12.263 54.8306C11.3712 54.93 10.7288 55.7336 10.8283 56.6255C10.8963 57.2357 11.0284 57.8282 11.2193 58.3998C11.998 58.3742 13.2401 58.2235 14.3867 57.5591Z" fill="#FCD79D"/>
<path opacity="0.2" d="M39.6393 60.3345C38.417 61.0879 38.0369 62.6895 38.7904 63.9118C39.5441 65.1342 41.1455 65.5141 42.3675 64.7607C43.1783 64.2609 44.3492 64.1637 45.5107 64.3421C46.9582 63.1073 48.1415 61.6032 48.9721 59.9148C46.0131 58.7667 42.3835 58.643 39.6393 60.3345Z" fill="#A35F00"/>
<path d="M35.7253 65.2984C42.3473 65.2984 47.7156 60.3101 47.7156 54.1568C47.7156 48.0034 42.3473 43.0151 35.7253 43.0151C29.1032 43.0151 23.735 48.0034 23.735 54.1568C23.735 60.3101 29.1032 65.2984 35.7253 65.2984Z" fill="#FCD690"/>
<path opacity="0.15" d="M33.9744 65.1809C28.4949 61.5834 30.1931 54.2101 31.1234 50.9855V43.8657C26.7851 45.5427 23.7346 49.5187 23.7346 54.1572C23.7345 59.758 28.1821 64.3932 33.9744 65.1809Z" fill="#C17A00"/>
<path d="M28.4282 34.8366C30.7746 32.8678 32.3411 29.5626 29.0316 24.6769C25.6959 19.7524 20.7295 18.5181 16.8523 18.9748C15.8965 19.0874 15.0944 19.7604 14.8175 20.6823C13.6944 24.4213 14.0476 29.5265 18.318 33.6666C22.555 37.7743 26.082 36.8054 28.4282 34.8366Z" fill="#EDA751"/>
<path d="M14.6614 21.2542C13.7406 24.9304 14.2612 29.7334 18.318 33.6664C21.9904 37.2268 25.1287 36.9723 27.428 35.5596C25.8467 24.8252 18.9391 21.9786 14.6614 21.2542Z" fill="#FF91AB"/>
<path d="M43.0228 34.8366C40.6764 32.8678 39.1099 29.5626 42.4194 24.6769C45.7552 19.7524 50.7215 18.5181 54.5987 18.9748C55.5546 19.0874 56.3566 19.7604 56.6335 20.6823C57.7566 24.4213 57.4035 29.5265 53.133 33.6666C48.896 37.7743 45.3691 36.8054 43.0228 34.8366Z" fill="#EDA751"/>
<path d="M56.7895 21.2542C57.7103 24.9304 57.1897 29.7334 53.1329 33.6664C49.4606 37.2268 46.3222 36.9723 44.0229 35.5596C45.6042 24.8252 52.5118 21.9786 56.7895 21.2542Z" fill="#FF91AB"/>
<path d="M56.14 37.8081C56.14 47.1422 47.0002 51.2304 35.7256 51.2304C24.451 51.2304 15.3112 47.1422 15.3112 37.8081C15.3112 28.4741 24.451 20.9072 35.7256 20.9072C47.0002 20.9072 56.14 28.4741 56.14 37.8081Z" fill="#FFDC9C"/>
<path opacity="0.15" d="M24.8252 23.5166C19.1079 26.5117 15.311 31.7924 15.311 37.808C15.311 45.8318 22.0652 49.9792 31.1234 50.9854C18.1205 43.2185 19.8164 32.7712 24.8252 23.5166Z" fill="#C17A00"/>
<path d="M26.5306 38.1462C28.5721 38.1462 30.2269 36.8286 30.2269 35.2031C30.2269 33.5777 28.5721 32.26 26.5306 32.26C24.4892 32.26 22.8344 33.5777 22.8344 35.2031C22.8344 36.8286 24.4892 38.1462 26.5306 38.1462Z" fill="#FF91AB"/>
<path d="M46.5654 38.1462C48.6068 38.1462 50.2617 36.8286 50.2617 35.2031C50.2617 33.5777 48.6068 32.26 46.5654 32.26C44.524 32.26 42.8691 33.5777 42.8691 35.2031C42.8691 36.8286 44.524 38.1462 46.5654 38.1462Z" fill="#FF91AB"/>
<path d="M40.9673 0.996173C39.2949 0.988603 37.7487 1.5233 36.491 2.43254C36.3543 2.53135 36.1811 2.56057 36.0176 2.51913C35.7136 2.4421 35.3953 2.40066 35.0672 2.40066C33.6864 2.40066 32.4749 3.12436 31.7901 4.21275C31.7197 4.32471 31.6014 4.39935 31.4693 4.40852C28.269 4.63178 25.7418 7.29718 25.7418 10.5543C25.7418 13.784 28.2269 16.4319 31.389 16.6938C31.6544 16.7158 31.8994 16.8423 32.0833 17.0348C32.8843 17.8732 34.0126 18.3959 35.2635 18.3959C36.7631 18.3959 38.0866 17.6453 38.8807 16.4996C39.0906 16.1967 39.454 16.0451 39.8186 16.0993C40.182 16.1534 40.5537 16.1821 40.9322 16.1821C45.185 16.1821 48.6211 12.6859 48.5232 8.41095C48.43 4.32432 45.0551 1.0145 40.9673 0.996173Z" fill="#DEE2E5"/>
<path d="M31.15 11.2782C32.014 11.2782 32.7144 10.5778 32.7144 9.71381C32.7144 8.84982 32.014 8.14941 31.15 8.14941C30.286 8.14941 29.5856 8.84982 29.5856 9.71381C29.5856 10.5778 30.286 11.2782 31.15 11.2782Z" fill="white"/>
<path d="M37.254 11.2782C38.118 11.2782 38.8184 10.5778 38.8184 9.71381C38.8184 8.84982 38.118 8.14941 37.254 8.14941C36.39 8.14941 35.6896 8.84982 35.6896 9.71381C35.6896 10.5778 36.39 11.2782 37.254 11.2782Z" fill="white"/>
<path d="M43.3581 11.2782C44.2221 11.2782 44.9225 10.5778 44.9225 9.71381C44.9225 8.84982 44.2221 8.14941 43.3581 8.14941C42.4941 8.14941 41.7937 8.84982 41.7937 9.71381C41.7937 10.5778 42.4941 11.2782 43.3581 11.2782Z" fill="white"/>
<path d="M26.6191 56.9844C25.6754 56.9844 24.7185 56.8069 23.792 56.4435C22.4554 55.9192 21.797 54.4104 22.3214 53.0738C22.8457 51.737 24.3543 51.0788 25.6911 51.603C26.7472 52.0174 27.679 51.6362 28.1987 51.1412C28.5836 50.7748 29.1633 49.9644 28.7221 48.6543C28.2639 47.2937 28.9955 45.819 30.3561 45.3607C31.7173 44.9026 33.1917 45.6342 33.6497 46.9947C34.6149 49.8605 33.9001 52.8921 31.7843 54.9067C30.3532 56.2692 28.5131 56.9844 26.6191 56.9844Z" fill="#EDA751"/>
<path d="M41.2613 67.0036C40.7679 67.0036 40.269 66.8635 39.827 66.5704C38.3503 65.5913 36.2124 65.2083 32.2129 65.2083C32.1919 65.2083 32.1737 65.2093 32.1503 65.2083C30.7156 65.2083 29.552 64.046 29.5505 62.611C29.5492 61.1751 30.7121 60.0101 32.1479 60.0088C32.1708 60.0088 32.1938 60.0088 32.2166 60.0088C36.4953 60.0088 39.9175 60.3919 42.7001 62.237C43.8968 63.0304 44.2236 64.6437 43.4303 65.8403C42.93 66.5948 42.1036 67.0036 41.2613 67.0036Z" fill="#EDA751"/>
<path opacity="0.15" d="M41.2611 67.0039C40.7677 67.0039 40.2689 66.8637 39.8269 66.5706C38.3502 65.5915 36.2123 65.2085 32.2128 65.2085C32.1918 65.2085 32.1736 65.2096 32.1502 65.2085C30.7154 65.2085 29.5519 64.0463 29.5504 62.6112C29.5491 61.1754 30.712 60.0104 32.1478 60.009C32.1707 60.009 32.1936 60.009 32.2165 60.009C36.4952 60.009 39.9173 60.3922 42.7 62.2372C43.8967 63.0306 44.2235 64.6439 43.4302 65.8406C42.9299 66.5951 42.1034 67.0039 41.2611 67.0039Z" fill="#C18F00"/>
<path d="M52.0189 33.8943C50.987 33.6363 48.5273 33.4528 47.3295 33.6111C46.784 33.6832 46.4003 34.1837 46.4724 34.7291C46.5445 35.2745 47.0471 35.6577 47.5904 35.5861C48.5136 35.4639 50.73 35.6256 51.5356 35.827C51.6168 35.8474 51.6981 35.857 51.778 35.857C52.2243 35.8569 52.6304 35.5549 52.7436 35.1023C52.877 34.5686 52.5527 34.0278 52.0189 33.8943ZM51.193 38.4391C50.3374 37.8075 48.1335 36.7005 46.9653 36.3904C46.433 36.2496 45.8881 36.5659 45.7469 37.0975C45.6057 37.6293 45.9223 38.1748 46.454 38.3159C47.3538 38.5549 49.3416 39.5487 50.0098 40.042C50.1879 40.1733 50.3949 40.2367 50.6005 40.2367C50.906 40.2367 51.2073 40.0967 51.4027 39.8321C51.7295 39.3895 51.6356 38.7658 51.193 38.4391ZM57.1361 37.8081C57.1361 35.7261 56.7071 33.7265 55.9215 31.8664C58.1592 28.4781 58.7695 24.3307 57.5874 20.3954C57.1954 19.0908 56.0681 18.1448 54.715 17.9853C50.7992 17.5243 46.9442 18.7349 44.038 21.3152C41.4809 20.4112 38.6718 19.9111 35.7255 19.9111C32.8211 19.9111 30.0038 20.3924 27.4044 21.3076C24.4993 18.7322 20.6478 17.5239 16.7358 17.9853C15.3827 18.1447 14.2554 19.0908 13.8637 20.3953C12.683 24.3258 13.2902 28.468 15.5212 31.8538C14.7288 33.7403 14.315 35.7464 14.315 37.8079C14.315 41.5714 15.6836 44.7074 18.3828 47.1286C19.762 48.3658 21.4587 49.3854 23.4523 50.1819C23.3828 50.3698 23.3182 50.5594 23.2586 50.7503C22.4349 51.1234 21.7494 51.8038 21.394 52.7101C20.7049 54.4666 21.4985 56.4439 23.1675 57.2554C23.4805 58.367 23.9586 59.4219 24.5811 60.3931C23.1813 61.1696 21.5298 61.0752 20.9921 61.0175C17.4026 60.6318 15.2845 58.2795 15.0477 56.1555C14.9703 55.4595 14.6259 54.8351 14.0781 54.3975C13.5305 53.9603 12.8465 53.7623 12.1525 53.8409C10.7164 54.0009 9.67812 55.2997 9.83803 56.7361C10.1286 59.3408 11.434 61.6549 13.6131 63.4281C15.5018 64.9651 17.9235 65.96 20.4321 66.2295C20.8909 66.2788 21.3525 66.3039 21.8037 66.3039C23.6457 66.3039 25.4161 65.8832 26.9237 65.0876C27.4299 64.8203 27.9094 64.507 28.3575 64.1539C28.628 64.3283 28.9063 64.4938 29.1922 64.6495C29.8389 65.5836 30.9152 66.1988 32.1328 66.2047C32.1607 66.2056 32.1861 66.2053 32.2128 66.2047C35.9485 66.2047 37.995 66.5512 39.2765 67.4008C39.8675 67.7928 40.5536 68 41.2606 68H41.2611C42.4711 68 43.5924 67.3985 44.2604 66.391C44.4922 66.0414 44.6583 65.6617 44.7562 65.2663C46.066 65.3376 47.5256 65.8673 48.2307 66.584C48.9122 67.2766 49.8224 67.6579 50.794 67.6579C51.7433 67.6579 52.639 67.2912 53.316 66.6253C54.3682 65.5899 54.6466 64.0607 54.1463 62.7636C54.4787 62.4721 54.7594 62.122 54.9656 61.7267C55.8822 59.9688 55.1979 57.7926 53.4402 56.8758C50.5144 55.3499 49.6869 54.4335 48.3153 51.1678C48.2249 50.8346 48.1192 50.5048 47.9979 50.179C53.9171 47.8066 57.1361 43.4919 57.1361 37.8081ZM54.8521 29.7715C53.764 27.9693 52.322 26.3413 50.6029 24.9509C52.4308 23.5327 54.405 22.8016 56.0138 22.4261C56.3112 24.2346 56.3422 26.9608 54.8521 29.7715ZM54.4819 19.9638C54.872 20.0098 55.2169 20.2127 55.4467 20.5133C53.5068 20.9798 51.1153 21.9059 48.9386 23.735C48.0569 23.1553 47.1187 22.6332 46.1336 22.1731C49.4284 19.7071 52.9919 19.7886 54.4819 19.9638ZM16.9687 19.9639C18.4573 19.7885 22.0133 19.7073 25.3041 22.1636C24.3274 22.6193 23.391 23.1415 22.5021 23.7266C20.3282 21.9033 17.941 20.9793 16.0041 20.5134C16.2339 20.2127 16.5788 20.0099 16.9687 19.9639ZM15.4373 22.4261C17.043 22.8009 19.0127 23.5299 20.8377 24.9427C20.7768 24.9919 20.7154 25.0403 20.6551 25.0902C18.9831 26.4744 17.6187 28.0481 16.5895 29.7541C15.1088 26.9496 15.1404 24.2309 15.4373 22.4261ZM24.3688 55.5944C24.3613 55.5915 24.3536 55.5888 24.3462 55.5862C24.2826 55.5633 24.2189 55.5412 24.1556 55.5163C23.3324 55.1933 22.9255 54.2608 23.2485 53.4377C23.4962 52.8062 24.1026 52.4197 24.7433 52.4197C24.9377 52.4197 25.1353 52.4554 25.3271 52.5306C26.8191 53.1157 28.1437 52.5695 28.8854 51.8628C29.0415 51.7142 29.2612 51.4718 29.4543 51.139C29.4689 51.1154 29.4824 51.0913 29.4952 51.0664C29.4972 51.0627 29.4993 51.0589 29.5013 51.0551C29.5026 51.0526 29.5039 51.0501 29.5053 51.0476C29.8394 50.4258 30.0635 49.5169 29.666 48.3366C29.3837 47.4986 29.8358 46.5872 30.6737 46.305C31.5122 46.0225 32.4234 46.475 32.7056 47.3129C33.5458 49.8075 32.9296 52.441 31.0973 54.1855C29.8763 55.348 28.2859 55.9883 26.6191 55.9885C25.8573 55.9885 25.1016 55.855 24.3688 55.5944ZM25.9937 63.3257C24.4656 64.1322 22.584 64.4572 20.645 64.2487C18.5149 64.0199 16.4642 63.1797 14.8704 61.8828C13.1049 60.4462 12.0495 58.5901 11.8181 56.5153C11.7797 56.1708 12.0288 55.8592 12.3745 55.8206C12.5408 55.802 12.7037 55.8494 12.8348 55.9542C12.9664 56.0594 13.0492 56.2091 13.0678 56.376C13.2412 57.9303 14.0555 59.4477 15.3609 60.6488C16.7836 61.9578 18.6572 62.7704 20.7795 62.9983C21.7164 63.0988 23.9014 63.1667 25.8014 61.9879C26.0861 62.303 26.3882 62.605 26.7068 62.8923C26.477 63.0488 26.2403 63.1955 25.9937 63.3257ZM42.6 65.29C42.3021 65.7394 41.8014 66.0077 41.261 66.0077H41.2609C40.9468 66.0077 40.6412 65.9153 40.3774 65.7403C38.719 64.6408 36.4297 64.2123 32.2097 64.2123L32.1782 64.2127C32.1691 64.2125 32.1597 64.2123 32.1504 64.2123C31.267 64.2123 30.5476 63.4936 30.5466 62.6102C30.5462 62.1819 30.7127 61.7791 31.0152 61.4759C31.3179 61.1727 31.7204 61.0054 32.1478 61.005L32.2166 61.0049C36.3119 61.0049 39.5682 61.3557 42.1497 63.0671C42.5067 63.3038 42.7501 63.6654 42.8352 64.0852C42.8496 64.156 42.8574 64.2271 42.8622 64.2979C42.8622 64.303 42.8629 64.3083 42.863 64.3135C42.883 64.6578 42.7939 64.9977 42.6 65.29ZM51.9189 65.205C51.617 65.5019 51.2175 65.6656 50.7941 65.6656C50.3608 65.6656 49.9549 65.4954 49.651 65.1866C48.5543 64.0719 46.5394 63.3205 44.6751 63.269C44.6484 63.1882 44.6196 63.1085 44.5874 63.0304C45.5065 62.2296 46.2868 61.3198 46.913 60.3301C48.8985 60.7736 50.7418 61.7222 51.9371 62.9372C52.5572 63.5674 52.5491 64.5849 51.9189 65.205ZM48.6015 55.7433C49.5458 56.8836 50.7199 57.7036 52.5188 58.6419C53.3028 59.0508 53.608 60.0214 53.1994 60.8053C53.1319 60.9347 53.0485 61.0515 52.9519 61.1554C51.6124 59.9492 49.8216 59.0223 47.8543 58.508C48.217 57.6233 48.4686 56.6962 48.6015 55.7433ZM46.3388 48.6732C46.3379 48.6734 46.3371 48.6738 46.3362 48.6741C45.7799 48.8665 45.2258 49.0335 44.6836 49.1779C44.1519 49.3193 43.8357 49.8649 43.9771 50.3965C44.1186 50.9282 44.6645 51.2443 45.196 51.1031C45.5087 51.0198 45.8137 50.9306 46.1149 50.8387C46.5147 51.9017 46.7203 53.0139 46.7203 54.1572C46.7203 55.7705 46.3092 57.3311 45.5431 58.7301C45.5352 58.7445 45.5265 58.7583 45.5192 58.773C44.9677 59.7686 44.2355 60.6812 43.3434 61.4717C43.3126 61.45 43.282 61.4278 43.2504 61.4068C40.2536 59.4199 36.6722 59.0129 32.2165 59.0129L32.1469 59.013C31.1863 59.0139 30.2838 59.3889 29.6051 60.0686C29.0969 60.5778 28.7601 61.2124 28.6234 61.9023C27.2452 60.8256 26.1738 59.4529 25.5072 57.9069C25.8755 57.955 26.2463 57.9809 26.6187 57.9809C28.7994 57.9809 30.8775 57.1455 32.4707 55.6287C33.4866 54.6614 34.2168 53.4885 34.6399 52.2123C35.0037 52.221 35.3667 52.2267 35.7253 52.2267C37.3328 52.2267 38.8996 52.1442 40.3825 51.9818C40.9292 51.9218 41.324 51.43 41.2641 50.8832C41.2042 50.3362 40.7122 49.9415 40.1654 50.0014C38.7544 50.156 37.2606 50.2345 35.7253 50.2345C35.4989 50.2345 35.2698 50.2311 35.0409 50.2273C35.1337 49.0614 34.9904 47.8566 34.5932 46.6773C33.9605 44.7985 31.9169 43.7847 30.0376 44.4171C28.1585 45.0499 27.1448 47.0935 27.7775 48.9725C27.8337 49.1392 27.8649 49.2963 27.8761 49.4453C26.9007 49.2304 25.9826 48.9741 25.1221 48.6775C25.1137 48.6744 25.1052 48.6717 25.0968 48.6688C22.9222 47.9164 21.1178 46.9064 19.7128 45.646C17.4527 43.6187 16.3068 40.9817 16.3068 37.8083C16.3068 29.0385 25.0178 21.9037 35.7251 21.9037C46.4324 21.9037 55.1435 29.0385 55.1435 37.8083C55.1439 44.0974 50.6767 47.1713 46.3388 48.6732ZM31.3069 17.6866C31.3128 17.687 31.3362 17.6948 31.3632 17.7231C32.3915 18.7994 33.7769 19.3922 35.2637 19.3922C37.0244 19.3922 38.6756 18.5309 39.6859 17.087C40.0985 17.1477 40.5178 17.1785 40.9324 17.1785C43.264 17.1785 45.4454 16.2601 47.0753 14.5925C48.7047 12.9254 49.5728 10.7221 49.5193 8.38842C49.4916 7.18103 49.2147 6.016 48.696 4.92574C48.4596 4.42902 47.8652 4.21772 47.3685 4.45426C46.8718 4.69066 46.6608 5.28486 46.897 5.78172C47.2943 6.61684 47.5065 7.5092 47.5276 8.43411C47.5687 10.2271 46.9021 11.9198 45.6506 13.2002C44.3987 14.4811 42.723 15.1864 40.9324 15.1864C40.611 15.1864 40.2858 15.1622 39.9656 15.1146C39.2188 15.0037 38.4891 15.3167 38.0622 15.9326C37.4253 16.8515 36.3791 17.4001 35.2639 17.4001C34.3262 17.4001 33.4526 17.0261 32.8039 16.3471C32.4457 15.9721 31.9725 15.7429 31.4715 15.7013C28.8173 15.4815 26.7381 13.2208 26.7381 10.5545C26.7381 7.85332 28.8469 5.59033 31.5388 5.4024C31.9843 5.37133 32.3935 5.12496 32.6334 4.74339C33.1637 3.9003 34.0736 3.39694 35.0673 3.39694C35.3054 3.39694 35.5428 3.42656 35.7728 3.48486C36.2264 3.59974 36.7004 3.51049 37.0745 3.23995C38.2039 2.42329 39.5372 1.99218 40.9323 1.99218C40.9424 1.99218 40.9526 1.99218 40.9627 1.99218C42.0911 1.99736 43.2066 2.29752 44.1883 2.86051C44.6655 3.1341 45.2745 2.96915 45.5479 2.49182C45.8215 2.0145 45.6564 1.40582 45.1792 1.13222C43.8989 0.398171 42.444 0.00664061 40.9717 0C40.9585 0 40.9453 0 40.9322 0C39.1828 0 37.5075 0.520757 36.0716 1.50928C35.7419 1.43982 35.4048 1.40449 35.0672 1.40449C33.4817 1.40449 32.0225 2.16046 31.1086 3.44117C27.5176 3.83987 24.7457 6.90929 24.7457 10.5543C24.7457 12.362 25.4214 14.0878 26.6485 15.4137C27.8684 16.7316 29.5227 17.5388 31.3069 17.6866ZM44.4117 29.9662C43.8615 29.9662 43.4156 30.4121 43.4156 30.9623V32.2675C43.4156 32.8176 43.8615 33.2636 44.4117 33.2636C44.962 33.2636 45.4078 32.8176 45.4078 32.2675V30.9623C45.4078 30.4121 44.962 29.9662 44.4117 29.9662ZM28.685 29.9662C28.1348 29.9662 27.6889 30.4121 27.6889 30.9623V32.2675C27.6889 32.8176 28.1348 33.2636 28.685 33.2636C29.2353 33.2636 29.6811 32.8176 29.6811 32.2675V30.9623C29.6811 30.4121 29.2353 29.9662 28.685 29.9662ZM26.1316 36.3904C24.9634 36.7007 22.7595 37.8075 21.9039 38.4391C21.4612 38.7658 21.3673 39.3895 21.694 39.832C21.8894 40.0965 22.1908 40.2365 22.4962 40.2365C22.7017 40.2365 22.909 40.1732 23.087 40.0418C23.7552 39.5486 25.743 38.5547 26.6428 38.3158C27.1744 38.1746 27.491 37.6292 27.3499 37.0974C27.2089 36.5659 26.6635 36.2496 26.1316 36.3904ZM25.5062 35.5861C26.0498 35.6578 26.5521 35.2745 26.6242 34.7291C26.6963 34.1837 26.3125 33.683 25.7673 33.6111C24.5686 33.4526 22.1097 33.6363 21.0778 33.8943C20.5442 34.0277 20.2197 34.5686 20.353 35.1023C20.4663 35.5549 20.8723 35.857 21.3187 35.857C21.3987 35.857 21.4801 35.8474 21.5611 35.827C22.3669 35.6256 24.583 35.4638 25.5062 35.5861ZM38.6215 31.9228H34.4752C33.925 31.9228 33.4791 32.3687 33.4791 32.9188C33.4791 33.469 33.925 33.9149 34.4752 33.9149H38.6215C39.1717 33.9149 39.6176 33.469 39.6176 32.9188C39.6176 32.3687 39.1717 31.9228 38.6215 31.9228Z" fill="#151515"/>
</svg>
