<svg width="66" height="66" viewBox="0 0 66 66" fill="none" xmlns="http://www.w3.org/2000/svg">
<path d="M18.7275 31.5784C25.8946 31.5784 31.7046 25.7683 31.7046 18.6013C31.7046 11.4343 25.8946 5.62427 18.7275 5.62427C11.5605 5.62427 5.75049 11.4343 5.75049 18.6013C5.75049 25.7683 11.5605 31.5784 18.7275 31.5784Z" fill="#DEE2E5"/>
<path opacity="0.05" d="M18.7271 31.5782C22.322 31.5782 25.5751 30.1163 27.9252 27.7548C8.78418 30.4211 9.40345 13.4921 12.7265 7.09351C8.58064 9.25978 5.75049 13.5998 5.75049 18.6015C5.75049 25.7682 11.5603 31.5782 18.7271 31.5782Z" fill="#151515"/>
<path d="M8.93627 27.9055C8.74755 28.2901 8.19944 28.2901 8.01085 27.9055C7.43206 26.7261 6.47815 25.7721 5.29865 25.1933C4.91412 25.0046 4.91412 24.4566 5.29865 24.2679C6.47815 23.6891 7.43206 22.7352 8.01085 21.5557C8.19957 21.1712 8.74768 21.1712 8.93627 21.5557C9.51506 22.7352 10.469 23.6891 11.6485 24.2679C12.033 24.4566 12.033 25.0048 11.6485 25.1933C10.469 25.7721 9.51506 26.7261 8.93627 27.9055Z" fill="#82C7E6"/>
<path d="M31.8257 16.8201C31.5246 17.4337 30.6498 17.4337 30.3487 16.8201C29.4249 14.9379 27.9026 13.4153 26.0203 12.4917C25.4067 12.1906 25.4067 11.3158 26.0203 11.0147C27.9026 10.091 29.4251 8.56857 30.3487 6.68627C30.6498 6.07268 31.5246 6.07268 31.8257 6.68627C32.7494 8.56857 34.2718 10.0911 36.1541 11.0147C36.7677 11.3158 36.7677 12.1906 36.1541 12.4917C34.2718 13.4153 32.7494 14.9379 31.8257 16.8201Z" fill="#BD4568"/>
<path d="M15.1723 18.9956C17.1721 18.9956 18.7933 17.3745 18.7933 15.3747C18.7933 13.3748 17.1721 11.7537 15.1723 11.7537C13.1724 11.7537 11.5513 13.3748 11.5513 15.3747C11.5513 17.3745 13.1724 18.9956 15.1723 18.9956Z" fill="#7694E4"/>
<path d="M17.1122 35.1993C19.112 35.1993 20.7332 33.5781 20.7332 31.5783C20.7332 29.5784 19.112 27.9573 17.1122 27.9573C15.1124 27.9573 13.4912 29.5784 13.4912 31.5783C13.4912 33.5781 15.1124 35.1993 17.1122 35.1993Z" fill="#78CFC0"/>
<path d="M15.8423 58.0457C15.5837 58.0457 15.3215 57.9831 15.0782 57.8511C14.2999 57.4283 14.0118 56.4545 14.4346 55.6763C15.6221 53.4902 17.0887 52.1565 18.918 51.599C20.7456 51.0421 22.849 51.2594 25.5371 52.2835C28.2192 53.3047 29.5279 51.8937 32.0026 48.8632L32.0938 48.7517C32.6541 48.0659 33.6645 47.9641 34.3504 48.5243C35.0363 49.0848 35.1382 50.095 34.5778 50.7809L34.4871 50.8919C33.2395 52.4197 32.061 53.8627 30.5403 54.8098C28.6551 55.9836 26.6452 56.1378 24.3953 55.2808C20.1494 53.6634 18.6096 54.71 17.2531 57.2073C16.9623 57.7424 16.4112 58.0457 15.8423 58.0457Z" fill="#EDA751"/>
<path d="M15.1009 54.5837C14.8696 54.9212 14.6474 55.2845 14.4346 55.6764C14.0118 56.4547 14.3 57.4283 15.0782 57.8511C15.3214 57.9831 15.5836 58.0458 15.8422 58.0458C16.4112 58.0458 16.9622 57.7425 17.2529 57.2074C17.4412 56.8607 17.6334 56.5434 17.8354 56.2558C17.0889 55.0854 15.9483 54.7231 15.1009 54.5837Z" fill="#FCD79D"/>
<path opacity="0.2" d="M34.3502 48.5245C33.6643 47.9644 32.6539 48.0661 32.0935 48.7519L32.0024 48.8634C29.6648 51.7257 28.3671 53.1422 25.9702 52.43C25.9968 52.482 26.0224 52.5344 26.0498 52.5862C26.6597 53.7421 27.4244 54.7887 28.3137 55.7088C29.0784 55.5579 29.8185 55.2592 30.5401 54.81C32.0608 53.8629 33.2393 52.4199 34.4868 50.8921L34.5776 50.7811C35.1378 50.0951 35.0361 49.0848 34.3502 48.5245Z" fill="#A35F00"/>
<path d="M32.6419 65.0336C32.358 65.0336 32.0695 64.9861 31.7866 64.8861C30.4504 64.4138 29.7502 62.9477 30.2227 61.6116C30.9906 59.4394 31.9277 56.3838 31.2021 54.9328C30.5684 53.6653 31.0821 52.1238 32.3496 51.4901C33.6174 50.8565 35.1586 51.3702 35.7923 52.6376C37.3606 55.7741 36.3678 59.6263 35.0612 63.3219C34.6888 64.3752 33.6988 65.0336 32.6419 65.0336Z" fill="#495059"/>
<path d="M25.0888 49.4709C22.7705 49.4709 20.3124 48.6981 18.0053 47.1512C16.8283 46.3619 16.514 44.7678 17.3032 43.5909C18.0925 42.4139 19.6867 42.0998 20.8634 42.8887C23.5247 44.6732 26.2404 44.8267 27.9505 43.2897C29.0043 42.3423 30.6266 42.4286 31.5742 43.4826C32.5216 44.5366 32.4351 46.1589 31.3813 47.1063C29.6283 48.6822 27.4298 49.4709 25.0888 49.4709Z" fill="#EDA751"/>
<path d="M27.9505 43.2895C26.4932 44.5993 24.3057 44.6806 22.044 43.572C21.883 46.1604 20.4769 47.4102 19.5244 48.0458C21.3719 48.9944 23.273 49.4707 25.0888 49.4707C27.4299 49.4707 29.6284 48.6821 31.3815 47.1062C32.4355 46.1587 32.5218 44.5364 31.5744 43.4825C30.6265 42.4284 29.0043 42.3422 27.9505 43.2895Z" fill="#7694E4"/>
<path opacity="0.2" d="M27.9503 43.2895C27.0924 44.0606 25.9805 44.4025 24.7503 44.3299C24.6214 45.0575 24.5532 45.8042 24.5532 46.5657C24.5532 47.554 24.6649 48.523 24.8837 49.4674C24.9521 49.4687 25.0205 49.4707 25.0886 49.4707C27.4296 49.4707 29.6282 48.6819 31.3813 47.1062C32.4352 46.1587 32.5216 44.5364 31.5741 43.4825C30.6263 42.4284 29.0041 42.3422 27.9503 43.2895Z" fill="#151515"/>
<path d="M50.3418 64.9049C49.4023 64.9049 48.4975 64.3872 48.0468 63.4904C45.6398 58.6998 43.7308 56.2441 43.2295 55.8594C42.0822 55.0274 41.8285 53.4244 42.6605 52.277C43.4924 51.1298 45.0987 50.8758 46.2461 51.7075C48.6165 53.4264 51.7336 59.3971 52.6326 61.186C53.2688 62.4523 52.7581 63.9947 51.4917 64.6309C51.1222 64.8168 50.729 64.9049 50.3418 64.9049Z" fill="#495059"/>
<path opacity="0.2" d="M49.5435 55.708C48.4672 54.0312 47.285 52.461 46.2462 51.7076C45.0989 50.8758 43.4925 51.1297 42.6605 52.2771C41.8285 53.4244 42.0821 55.0275 43.2295 55.8593C43.5212 56.0832 44.29 57.0097 45.3557 58.6878C46.9283 57.9507 48.3489 56.9442 49.5435 55.708Z" fill="#151515"/>
<path opacity="0.2" d="M32.3496 51.4901C31.0821 52.1238 30.5684 53.6651 31.2021 54.9328C31.5682 55.6649 31.5107 56.8056 31.2655 58.0351C32.7388 58.9079 34.3817 59.5247 36.1236 59.8461C36.7379 57.2939 36.8717 54.7963 35.7923 52.6376C35.1585 51.3702 33.6174 50.8565 32.3496 51.4901Z" fill="#151515"/>
<path d="M49.4045 47.8853C48.7682 47.8853 48.1634 47.8276 47.6024 47.6954C46.2231 47.3703 45.3684 45.9885 45.6935 44.6091C46.0186 43.2299 47.4 42.3758 48.7798 42.7002C50.1452 43.0217 53.6783 42.0013 55.7891 41.3914C56.487 41.1897 57.146 40.9992 57.7653 40.8351C59.1355 40.4712 60.54 41.2882 60.903 42.658C61.2661 44.0277 60.4499 45.4327 59.0801 45.7957C58.5161 45.9451 57.8837 46.128 57.2142 46.3215C54.6444 47.0641 51.8037 47.8853 49.4045 47.8853Z" fill="#EDA751"/>
<path d="M55.6648 41.4275C53.5423 42.0406 50.1189 43.0158 48.7798 42.7004C47.4 42.376 46.0186 43.23 45.6935 44.6093C45.3684 45.9887 46.2231 47.3705 47.6024 47.6956C48.1634 47.8277 48.7682 47.8855 49.4045 47.8855C51.7293 47.8855 54.4678 47.1147 56.9734 46.3913C55.6944 44.6125 55.5437 42.5474 55.6648 41.4275Z" fill="#7694E4"/>
<path opacity="0.2" d="M53.3032 46.5659C53.3032 45.0638 53.0416 43.6183 52.5599 42.2671C51.0388 42.631 49.5573 42.8835 48.7793 42.7003C47.3995 42.3759 46.0181 43.2299 45.693 44.6092C45.3679 45.9886 46.2225 47.3704 47.6019 47.6955C48.1628 47.8277 48.7677 47.8854 49.404 47.8854C50.6137 47.8854 51.9355 47.6758 53.278 47.3737C53.2947 47.106 53.3032 46.8367 53.3032 46.5659Z" fill="#151515"/>
<path d="M38.9281 50.9937L48.4059 39.9783C46.2473 37.3008 42.8055 35.5681 38.9281 35.5681C35.0507 35.5681 31.6089 37.3008 29.4502 39.9783L38.9281 50.9937Z" fill="#FCD690"/>
<path d="M49.5604 51.401C50.3305 49.9416 50.7634 48.3008 50.7634 46.5658C50.7634 42.9806 48.9167 39.7964 46.0595 37.7887C44.3658 40.1504 40.8515 45.0507 39.4869 46.9535C39.2125 47.3361 38.6436 47.3359 38.3692 46.9532L31.7967 37.7886C28.9394 39.7963 27.0928 42.9804 27.0928 46.5657C27.0928 48.3007 27.5258 49.9415 28.2957 51.4009H49.5604V51.401Z" fill="#7694E4"/>
<path d="M28.2959 51.4009C30.2216 55.0505 34.2589 57.5634 38.9281 57.5634C43.5975 57.5634 47.6346 55.0505 49.5604 51.4009H28.2959Z" fill="#495059"/>
<path opacity="0.1" d="M37.1998 57.4463C31.7914 53.8955 33.4676 46.6179 34.3857 43.4353V36.408C30.1038 38.0633 27.0928 41.9876 27.0928 46.5658C27.0929 52.094 31.4827 56.6689 37.1998 57.4463Z" fill="#151515"/>
<path d="M31.4001 49.372C31.9223 49.372 32.3457 48.9487 32.3457 48.4265C32.3457 47.9043 31.9223 47.481 31.4001 47.481C30.8779 47.481 30.4546 47.9043 30.4546 48.4265C30.4546 48.9487 30.8779 49.372 31.4001 49.372Z" fill="#82C7E6"/>
<path d="M47.2131 46.0217C47.7353 46.0217 48.1586 45.5983 48.1586 45.0761C48.1586 44.5539 47.7353 44.1306 47.2131 44.1306C46.6909 44.1306 46.2676 44.5539 46.2676 45.0761C46.2676 45.5983 46.6909 46.0217 47.2131 46.0217Z" fill="#82C7E6"/>
<path d="M45.322 50.1621C45.8442 50.1621 46.2675 49.7387 46.2675 49.2165C46.2675 48.6943 45.8442 48.271 45.322 48.271C44.7998 48.271 44.3765 48.6943 44.3765 49.2165C44.3765 49.7387 44.7998 50.1621 45.322 50.1621Z" fill="#82C7E6"/>
<path d="M32.6491 44.8383C33.1713 44.8383 33.5947 44.415 33.5947 43.8928C33.5947 43.3706 33.1713 42.9473 32.6491 42.9473C32.1269 42.9473 31.7036 43.3706 31.7036 43.8928C31.7036 44.415 32.1269 44.8383 32.6491 44.8383Z" fill="#82C7E6"/>
<path d="M31.7258 27.4959C34.0417 25.5526 35.588 22.2904 32.3213 17.468C29.0289 12.6074 24.1271 11.3891 20.3001 11.8399C19.3567 11.951 18.5651 12.6153 18.2918 13.5251C17.1832 17.2156 17.5319 22.2545 21.7469 26.3409C25.9287 30.3955 29.4099 29.4391 31.7258 27.4959Z" fill="#EDA751"/>
<path d="M18.1378 14.0901C17.229 17.7187 17.7428 22.4592 21.7469 26.3411C25.3716 29.8554 28.4692 29.6041 30.7385 28.2098C29.1777 17.6148 22.36 14.8053 18.1378 14.0901Z" fill="#FF91AB"/>
<path d="M46.131 27.4959C43.8151 25.5526 42.2689 22.2904 45.5355 17.468C48.8279 12.6074 53.7297 11.3891 57.5567 11.8399C58.5002 11.951 59.2918 12.6153 59.5651 13.5251C60.6735 17.2156 60.325 22.2545 56.11 26.3409C51.9281 30.3955 48.447 29.4391 46.131 27.4959Z" fill="#EDA751"/>
<path d="M59.7188 14.0901C60.6276 17.7187 60.1138 22.4592 56.1098 26.3411C52.4851 29.8554 49.3874 29.6041 47.1182 28.2098C48.6787 17.6148 55.4966 14.8053 59.7188 14.0901Z" fill="#FF91AB"/>
<path d="M59.0776 30.4291C59.0776 39.6419 50.0565 43.6771 38.9282 43.6771C27.8 43.6771 18.7788 39.6419 18.7788 30.4291C18.7788 21.2163 27.8 13.7478 38.9282 13.7478C50.0565 13.7478 59.0776 21.2161 59.0776 30.4291Z" fill="#FFDC9C"/>
<path opacity="0.15" d="M28.1694 16.3232C22.5264 19.2795 18.7788 24.4917 18.7788 30.4291C18.7788 38.3488 25.4452 42.4422 34.3858 43.4354C21.5519 35.7692 23.2256 25.4577 28.1694 16.3232Z" fill="#C17A00"/>
<path d="M31.087 32.8851C33.1018 32.8851 34.7351 31.5843 34.7351 29.9798C34.7351 28.3752 33.1018 27.0745 31.087 27.0745C29.0723 27.0745 27.439 28.3752 27.439 29.9798C27.439 31.5843 29.0723 32.8851 31.087 32.8851Z" fill="#FF91AB"/>
<path d="M50.8614 32.8851C52.8762 32.8851 54.5095 31.5843 54.5095 29.9798C54.5095 28.3752 52.8762 27.0745 50.8614 27.0745C48.8467 27.0745 47.2134 28.3752 47.2134 29.9798C47.2134 31.5843 48.8467 32.8851 50.8614 32.8851Z" fill="#FF91AB"/>
<path d="M43.6661 31.4071C43.6661 32.1934 43.2244 32.9206 42.5157 33.2609C42.0493 33.4848 41.5269 33.6102 40.9749 33.6102C40.4229 33.6102 39.9004 33.4848 39.4341 33.2609C38.7252 32.9207 38.2837 32.1934 38.2837 31.4071V28.9424C38.2837 28.6249 38.5173 28.3557 38.8317 28.311C40.2534 28.1089 41.6965 28.1089 43.1182 28.311C43.4326 28.3557 43.6662 28.6249 43.6662 28.9424L43.6661 31.4071Z" fill="#FF91AB"/>
<path d="M55.419 33.1867C54.5757 32.5642 52.4032 31.473 51.2517 31.1673C50.7358 31.0306 50.2063 31.3376 50.0692 31.8538C49.9322 32.3698 50.2395 32.8992 50.7557 33.0362C51.6451 33.2724 53.6102 34.2547 54.2707 34.7423C54.4434 34.8698 54.6445 34.9313 54.8441 34.9313C55.1406 34.9313 55.4331 34.7954 55.6227 34.5386C55.9397 34.1091 55.8485 33.5038 55.419 33.1867ZM61.8371 42.4105C61.5954 41.4983 61.013 40.7348 60.1973 40.2607C59.3812 39.7864 58.4296 39.6587 57.5172 39.9006C56.8812 40.0692 56.1894 40.2692 55.5205 40.4627C55.4801 40.4744 55.4371 40.4868 55.3957 40.4988C55.3903 40.5003 55.385 40.5017 55.3797 40.5034C55.1459 40.571 54.8973 40.6425 54.6369 40.7165C58.1793 38.254 60.0446 34.7197 60.0446 30.4291C60.0446 28.3936 59.6356 26.4127 58.8519 24.5504C61.0551 21.2113 61.6554 17.1249 60.4907 13.2472C60.1058 11.9659 58.9985 11.0366 57.6696 10.8801C53.8104 10.4253 50.01 11.6182 47.145 14.1616C44.5785 13.2568 41.7967 12.781 38.9284 12.781C38.3534 12.781 37.7822 12.8011 37.2153 12.8389C37.4486 12.5339 37.5812 12.1562 37.5812 11.7532C37.5812 11.0654 37.1974 10.45 36.5799 10.1468C34.8987 9.32176 33.5185 7.94156 32.6935 6.26023C32.3905 5.64289 31.7749 5.25927 31.0871 5.25927C30.3992 5.25927 29.7837 5.64289 29.4807 6.26036C29.1191 6.99732 28.6506 7.6764 28.0971 8.2762C25.7657 6.15259 22.8392 4.90413 19.6938 4.69156V0.966801C19.6938 0.43274 19.2609 0 18.727 0C18.1931 0 17.7602 0.43274 17.7602 0.966801V4.69208C10.5209 5.19043 4.78328 11.2382 4.78328 18.6016C4.78328 20.1205 5.02511 21.6064 5.50181 23.0293C5.30161 23.1676 5.09163 23.2924 4.87223 23.4001C4.36072 23.6512 4.04297 24.161 4.04297 24.7308C4.04297 25.3005 4.36072 25.8104 4.87235 26.0615C5.85437 26.5432 6.66055 27.3494 7.1424 28.3313C7.39325 28.8429 7.90321 29.1608 8.47298 29.1608H8.47311C8.78493 29.1608 9.07845 29.0651 9.32183 28.895C10.291 29.783 11.3708 30.5225 12.5484 31.1042C12.5323 31.26 12.5239 31.4182 12.5239 31.5783C12.5239 34.1081 14.582 36.1662 17.1118 36.1662C17.7452 36.1662 18.3689 36.033 18.943 35.7834C19.503 36.9808 20.2683 38.0765 21.24 39.0624C21.6148 39.4425 22.2268 39.4469 22.6072 39.0723C22.9875 38.6974 22.9919 38.0854 22.6171 37.705C20.7118 35.7719 19.7456 33.3239 19.7456 30.4291C19.7456 21.764 28.3509 14.7146 38.9282 14.7146C49.5055 14.7146 58.1107 21.7641 58.1107 30.4291C58.1107 34.4311 56.2846 37.5423 52.6831 39.6761C51.7129 40.2509 50.6242 40.7467 49.4308 41.1617C49.4192 41.1656 49.4077 41.1692 49.3962 41.1736C47.2092 41.9301 44.6699 42.4147 41.8544 42.6105C41.8481 42.6109 41.8416 42.6113 41.8353 42.6118C40.8959 42.6766 39.9264 42.7102 38.9284 42.7102C37.9314 42.7102 36.9611 42.677 36.0206 42.6118C36.016 42.6114 36.0113 42.611 36.0067 42.6106C31.9505 42.3276 28.4503 41.4433 25.7692 40.0112C25.2983 39.7594 24.7124 39.9376 24.4609 40.4085C24.2094 40.8794 24.3873 41.4652 24.8583 41.7167C25.4799 42.0487 26.1407 42.3528 26.8365 42.63C26.7923 42.7484 26.7501 42.8676 26.7101 42.9871C25.327 43.7315 23.3716 43.4063 21.4019 42.0855C19.7839 41.0005 17.5851 41.4344 16.5003 43.0523C15.4154 44.6699 15.849 46.8688 17.4669 47.954C17.9936 48.3072 18.5308 48.6218 19.0748 48.9017C19.0754 48.9019 19.0761 48.9023 19.0767 48.9027C21.0342 49.9095 23.0834 50.4375 25.0888 50.4375C25.6529 50.4375 26.2136 50.3936 26.7648 50.3081C26.9237 50.7577 27.1124 51.1994 27.3298 51.6332C26.9021 51.6767 26.4387 51.5922 25.8813 51.3799C22.9822 50.2756 20.6799 50.0511 18.6361 50.674C16.552 51.3093 14.8996 52.7944 13.585 55.2146C12.9084 56.4599 13.371 58.0236 14.6169 58.7008C14.9927 58.9047 15.4164 59.0125 15.8423 59.0125C16.7863 59.0125 17.6524 58.4976 18.1026 57.6688C19.1529 55.7353 20.0775 54.6708 24.0511 56.1841C26.3469 57.0588 28.5083 56.9767 30.4869 55.9489C30.6145 57.2244 29.95 59.4817 29.311 61.289C28.9965 62.1787 29.0473 63.1376 29.4538 63.9891C29.8605 64.8405 30.5744 65.4828 31.464 65.7971C31.8445 65.9318 32.2408 66 32.6417 66C34.1357 66 35.4743 65.0532 35.9725 63.644C36.4937 62.1697 37.0962 60.3097 37.3855 58.4431C37.8928 58.4994 38.4076 58.53 38.9285 58.53C40.5433 58.53 42.1023 58.2518 43.5458 57.7341C44.2412 58.6958 45.5486 60.6714 47.1832 63.9242C47.7866 65.1252 48.9969 65.8714 50.3419 65.8714C50.8878 65.8714 51.4355 65.7412 51.926 65.4947C53.409 64.7496 54.1792 63.0452 53.7578 61.4421C53.6219 60.9256 53.0933 60.6174 52.5769 60.7529C52.0605 60.8887 51.752 61.4174 51.8876 61.9338C52.0783 62.6586 51.7293 63.4296 51.058 63.7669C50.8324 63.8804 50.5916 63.9378 50.3419 63.9378C49.7325 63.9378 49.1842 63.5999 48.9108 63.056C47.3937 60.0365 46.1473 58.0709 45.3489 56.9313C46.2955 56.4198 47.169 55.7933 47.9495 55.0665C48.647 56.0573 49.4016 57.2689 50.2016 58.6838C50.3794 58.9983 50.7068 59.1749 51.044 59.1749C51.2052 59.1749 51.3686 59.1346 51.5189 59.0495C51.9836 58.7868 52.1475 58.197 51.8848 57.7321C50.9609 56.0982 50.0883 54.7155 49.2829 53.6079C49.7037 53.0649 50.0806 52.4837 50.4071 51.8672C50.409 51.8637 50.411 51.8602 50.4129 51.8567C50.4138 51.8551 50.4147 51.8534 50.4156 51.8517C50.9501 50.8389 51.3224 49.7788 51.5312 48.6832C53.5071 48.3982 55.6057 47.7924 57.4824 47.25C58.1449 47.0584 58.7703 46.8775 59.3276 46.73C60.2396 46.4882 61.003 45.9056 61.4771 45.0896C61.951 44.2742 62.0788 43.3225 61.8371 42.4105ZM8.47311 26.7662C7.94549 25.9547 7.24901 25.2582 6.43754 24.7308C6.72114 24.5464 6.98965 24.3403 7.24282 24.1169C7.26229 24.1017 7.28085 24.0855 7.2989 24.069C7.29902 24.0688 7.29902 24.0688 7.29915 24.0688C7.31191 24.0571 7.32468 24.0454 7.33679 24.0331C7.76953 23.6374 8.15277 23.1879 8.47311 22.6953C9.00072 23.5068 9.69721 24.2031 10.5087 24.7309C9.69721 25.2582 9.00072 25.9547 8.47311 26.7662ZM17.1118 34.2325C15.6482 34.2325 14.4575 33.0418 14.4575 31.5782C14.4575 30.1146 15.6482 28.9238 17.1118 28.9238C17.3719 28.9238 17.6295 28.9635 17.8767 29.0381C17.8342 29.4984 17.812 29.9621 17.812 30.429C17.812 31.6779 17.9676 32.8572 18.2735 33.9646C17.9154 34.1399 17.5227 34.2325 17.1118 34.2325ZM18.1809 27.1193C17.8319 27.0356 17.4734 26.9904 17.1118 26.9904C15.4339 26.9904 13.9643 27.8962 13.1643 29.2442C12.1802 28.73 11.2775 28.0857 10.4683 27.3169C10.9097 26.7949 11.457 26.3641 12.074 26.0615C12.5855 25.8104 12.9032 25.3005 12.9032 24.7308C12.9032 24.161 12.5855 23.6512 12.074 23.4002C11.092 22.9182 10.2858 22.1119 9.80381 21.1299C9.5527 20.6184 9.04288 20.3006 8.47311 20.3006C7.90334 20.3008 7.39351 20.6185 7.14253 21.1299C7.10734 21.2016 7.06996 21.2719 7.03141 21.3417C6.8231 20.4493 6.71688 19.5329 6.71688 18.6018C6.71688 11.9794 12.1044 6.59178 18.7267 6.59178C21.6694 6.59178 24.4332 7.63502 26.6187 9.54877C26.2919 9.771 25.9502 9.9721 25.594 10.1469C25.185 10.3476 24.8758 10.6917 24.7157 11.1022C23.2523 10.7793 21.7242 10.6987 20.1869 10.8801C19.3956 10.9733 18.6845 11.3419 18.1561 11.8941C17.3345 11.1919 16.2766 10.7864 15.1715 10.7864C12.6417 10.7864 10.5836 12.8445 10.5836 15.3743C10.5836 17.9041 12.6417 19.9622 15.1715 19.9622C15.8131 19.9622 16.4326 19.8313 17.002 19.5833C17.3227 21.3347 17.9952 23.0209 19.0045 24.5505C18.6535 25.3848 18.3782 26.243 18.1809 27.1193ZM16.7863 17.4764C16.3249 17.833 15.765 18.0285 15.1715 18.0285C13.7079 18.0285 12.5172 16.8378 12.5172 15.3742C12.5172 13.9106 13.7079 12.7199 15.1715 12.7199C15.9755 12.7199 16.7362 13.0918 17.2364 13.7094C16.9076 14.958 16.7587 16.2241 16.7863 17.4764ZM24.0639 17.8888C22.4069 19.2605 21.0566 20.8211 20.04 22.5129C18.5579 19.723 18.5932 17.0162 18.8901 15.2269C20.4846 15.5971 22.4454 16.321 24.2599 17.7304C24.1944 17.7832 24.1284 17.8353 24.0639 17.8888ZM25.8754 16.5507C23.7208 14.7404 21.3523 13.8272 19.4356 13.3689C19.6649 13.058 20.0153 12.8471 20.4132 12.8003C21.8878 12.6268 25.4152 12.5462 28.6742 14.991C27.6981 15.4448 26.7627 15.9659 25.8754 16.5507ZM33.1098 13.4566C32.2927 13.651 31.4921 13.8864 30.7115 14.1616C29.5299 13.1127 28.1896 12.2932 26.7513 11.7247C27.4461 11.3544 28.0955 10.906 28.6872 10.3916C28.7146 10.3704 28.7412 10.348 28.7668 10.3235C28.7721 10.3185 28.7766 10.3129 28.7816 10.3078C29.7158 9.47555 30.5021 8.47923 31.087 7.36689C32.0669 9.23075 33.6093 10.7731 35.4731 11.7532C34.6089 12.2068 33.8168 12.7792 33.1098 13.4566ZM49.1821 14.991C52.4411 12.5462 55.9687 12.6269 57.443 12.8003C57.8409 12.8472 58.1914 13.058 58.4207 13.369C56.5039 13.8273 54.1355 14.7405 51.9809 16.5509C51.0937 15.9659 50.1582 15.4448 49.1821 14.991ZM57.8164 22.5129C56.7997 20.8211 55.4496 19.2606 53.7926 17.8889C53.7279 17.8353 53.6619 17.7833 53.5965 17.7305C55.411 16.321 57.3718 15.5972 58.9664 15.227C59.2631 17.0162 59.2985 19.723 57.8164 22.5129ZM19.4419 46.9031C19.1399 46.731 18.8399 46.5469 18.5436 46.3482C17.8111 45.857 17.6148 44.8615 18.1058 44.1293C18.5971 43.397 19.5925 43.2006 20.3248 43.6915C20.553 43.8445 20.7819 43.9857 21.0111 44.1172C20.8233 45.2663 20.3057 46.1851 19.4419 46.9031ZM25.0884 48.504C23.843 48.504 22.57 48.2593 21.3149 47.7872C22.0572 46.9859 22.5595 46.0314 22.8185 44.9319C24.0042 45.321 25.1591 45.4127 26.2091 45.1997C26.1545 45.6505 26.1261 46.1061 26.1261 46.5659C26.1261 47.1948 26.1783 47.8149 26.2795 48.4243C25.887 48.4765 25.4891 48.504 25.0884 48.504ZM38.9282 44.6438C39.276 44.6438 39.6206 44.6395 39.9622 44.6318L38.9282 46.0736L37.8944 44.632C38.236 44.6399 38.5806 44.6438 38.9282 44.6438ZM24.7391 54.3774C22.4662 53.5116 20.7783 53.324 19.4271 53.7865C17.8937 54.3115 17.0381 55.5772 16.4031 56.7459C16.2914 56.9514 16.0764 57.079 15.8419 57.079C15.7357 57.079 15.6337 57.053 15.5394 57.0017C15.2307 56.8338 15.1159 56.4463 15.2836 56.1379C16.344 54.1857 17.6248 53.0036 19.1993 52.5237C20.811 52.0326 22.7152 52.2433 25.1927 53.1869C26.3768 53.6378 27.4143 53.6991 28.3937 53.3702C28.6593 53.7312 28.9443 54.0755 29.2463 54.4033C27.8541 55.0208 26.4008 55.0103 24.7391 54.3774ZM34.1491 62.9997C33.9236 63.6379 33.3177 64.0667 32.6414 64.0667C32.4608 64.0667 32.2815 64.0357 32.1083 63.9744C31.7056 63.8319 31.3824 63.5414 31.1983 63.1558C31.0143 62.7705 30.9913 62.3362 31.1338 61.9335C31.7334 60.2372 32.294 58.4239 32.409 56.8764C33.3662 57.4045 34.3983 57.8152 35.4829 58.0951C35.2219 59.8215 34.6463 61.5936 34.1491 62.9997ZM47.3931 52.8634C47.3395 52.9126 47.2921 52.9664 47.2521 53.0243C46.247 54.1345 45.0033 55.019 43.6066 55.6305C43.5298 55.6523 43.4553 55.6848 43.3841 55.7264C42.0134 56.2916 40.5022 56.5966 38.9282 56.5966C38.1953 56.5966 37.4763 56.5291 36.7786 56.4013C36.7389 56.3916 36.6984 56.3841 36.6568 56.3794C34.8817 56.0351 33.25 55.2907 31.8904 54.2219C31.8234 54.1483 31.7458 54.0868 31.6615 54.038C31.6362 54.017 31.6119 53.9949 31.5867 53.9736C31.5233 53.8997 31.4507 53.8374 31.3716 53.7872C30.8914 53.357 30.4525 52.8821 30.0598 52.3679H47.7969C47.6672 52.5374 47.5326 52.7025 47.3931 52.8634ZM49.7304 47.6838C49.7283 47.6991 49.7261 47.7145 49.7247 47.73C49.6088 48.6624 49.3528 49.5671 48.9585 50.4341H28.898C28.6822 49.9596 28.5087 49.4736 28.376 48.9782C28.3748 48.9723 28.3741 48.9664 28.3726 48.9603C28.3693 48.9471 28.3647 48.9347 28.361 48.9217C28.1613 48.157 28.0597 47.3699 28.0597 46.5658C28.0597 45.4305 28.2621 44.3252 28.6614 43.2692C30.691 43.8891 32.9628 44.3047 35.4236 44.5051L37.5835 47.5166C37.8934 47.9489 38.396 48.2073 38.928 48.2073C38.9281 48.2073 38.9281 48.2073 38.9282 48.2073C39.4601 48.2073 39.9626 47.9492 40.2729 47.517L42.4326 44.5053C44.8969 44.3056 47.1665 43.8903 49.1951 43.2699C49.5944 44.3256 49.7967 45.4307 49.7967 46.5659C49.7966 46.9424 49.7743 47.3152 49.7304 47.6838ZM51.7283 46.6958C51.7288 46.6524 51.7302 46.6093 51.7302 46.5658C51.7302 45.5261 51.5892 44.5078 51.3114 43.5206C52.4018 43.3225 53.6117 43.0103 54.6891 42.7104C54.7616 43.675 55.0066 44.7618 55.5076 45.8035C54.2582 46.153 52.9605 46.4867 51.7283 46.6958ZM59.8051 44.1189C59.5904 44.4882 59.2448 44.7519 58.8321 44.8614C58.3861 44.9796 57.9051 45.1162 57.3998 45.2617C56.7421 44.0821 56.6078 42.89 56.5995 42.1639C57.0904 42.0227 57.5614 41.8893 58.013 41.7697C58.426 41.66 58.8564 41.7178 59.2258 41.9325C59.5949 42.1471 59.8586 42.4927 59.968 42.9058C60.0774 43.3187 60.0196 43.7495 59.8051 44.1189ZM56.9436 29.8762C57.073 29.3583 56.7582 28.8332 56.2401 28.7037C55.2233 28.4496 52.7992 28.2685 51.6178 28.4245C51.0885 28.4945 50.7161 28.9802 50.786 29.5096C50.856 30.0389 51.3414 30.411 51.8711 30.3414C52.7834 30.2205 54.9747 30.3804 55.7712 30.5796C55.8499 30.5992 55.9288 30.6087 56.0064 30.6087C56.4396 30.6087 56.8336 30.3154 56.9436 29.8762ZM48.7356 24.0262C47.2435 24.0262 46.0294 25.2402 46.0294 26.7324C46.0294 27.2665 46.4622 27.6992 46.9962 27.6992C47.5303 27.6992 47.963 27.2665 47.963 26.7324C47.963 26.3063 48.3095 25.9598 48.7356 25.9598C49.1616 25.9598 49.5082 26.3063 49.5082 26.7324C49.5082 27.2665 49.941 27.6992 50.475 27.6992C51.009 27.6992 51.4418 27.2665 51.4418 26.7324C51.4418 25.2402 50.2278 24.0262 48.7356 24.0262ZM40.9744 34.577C41.6599 34.577 42.3191 34.4275 42.9335 34.1326C43.9656 33.6371 44.6325 32.5673 44.6325 31.4071V28.9424C44.6325 28.1485 44.0398 27.4655 43.2538 27.3538C41.7412 27.139 40.2076 27.139 38.695 27.3538C37.909 27.4655 37.3164 28.1485 37.3164 28.9424V31.4071C37.3164 32.5673 37.9832 33.6371 39.0154 34.1326C39.6299 34.4275 40.289 34.577 40.9744 34.577ZM39.2499 29.2309C40.3958 29.0915 41.5532 29.0913 42.6989 29.2309V31.4072C42.6989 31.8284 42.4626 32.2139 42.0969 32.3894C41.7455 32.5581 41.3679 32.6436 40.9744 32.6436C40.5809 32.6436 40.2032 32.5581 39.8518 32.3894C39.4861 32.2139 39.2499 31.8282 39.2499 31.4072V29.2309ZM32.4405 26.7324C32.4405 26.3063 32.7871 25.9598 33.2131 25.9598C33.6392 25.9598 33.9858 26.3063 33.9858 26.7324C33.9858 27.2665 34.4187 27.6992 34.9526 27.6992C35.4867 27.6992 35.9194 27.2665 35.9194 26.7324C35.9194 25.2402 34.7054 24.0262 33.2131 24.0262C31.7209 24.0262 30.5069 25.2402 30.5069 26.7324C30.5069 27.2665 30.9397 27.6992 31.4737 27.6992C32.0076 27.6992 32.4405 27.2664 32.4405 26.7324ZM30.697 31.1673C29.5455 31.473 27.3732 32.5642 26.5297 33.1867C26.1001 33.5038 26.0089 34.1091 26.326 34.5386C26.5157 34.7954 26.8082 34.9313 27.1046 34.9313C27.3041 34.9313 27.5053 34.8698 27.678 34.7423C28.3385 34.2547 30.3035 33.2724 31.193 33.0362C31.7091 32.8992 32.0164 32.3698 31.8795 31.8538C31.7426 31.3377 31.2134 31.0307 30.697 31.1673ZM25.7087 28.7037C25.1906 28.8332 24.8757 29.3581 25.0053 29.8762C25.1151 30.3154 25.5093 30.6088 25.9424 30.6088C26.02 30.6088 26.0989 30.5994 26.1777 30.5798C26.9742 30.3806 29.1655 30.2212 30.0777 30.3416C30.6076 30.4114 31.093 30.039 31.1629 29.5097C31.2329 28.9803 30.8603 28.4946 30.331 28.4246C29.1496 28.2685 26.7255 28.4495 25.7087 28.7037Z" fill="#151515"/>
</svg>
