<svg width="68" height="68" viewBox="0 0 68 68" fill="none" xmlns="http://www.w3.org/2000/svg">
<g clip-path="url(#clip0_20_653)">
<path d="M16.3496 47.4588C12.9025 47.4588 8.3848 46.6979 5.20407 43.3462C3.97383 42.0499 4.02735 40.0016 5.32374 38.7714C6.62025 37.5411 8.66822 37.5945 9.8986 38.891C10.945 39.9935 14.3457 41.782 19.7283 40.6614C21.4777 40.2974 23.1917 41.4202 23.5561 43.1699C23.9204 44.9197 22.7975 46.6333 21.0477 46.9977C20.369 47.139 18.584 47.4588 16.3496 47.4588Z" fill="#EDA751"/>
<path d="M46.152 57.5763C45.9279 57.5763 45.7027 57.5639 45.4772 57.5388C42.8748 57.2503 40.4772 55.3716 38.7262 52.249C38.18 51.2747 38.527 50.0419 39.5013 49.4958C40.4759 48.9492 41.7084 49.2965 42.2545 50.2708C43.3181 52.1677 44.6895 53.3816 45.9228 53.5184C46.7463 53.6097 47.5677 53.2089 48.3611 52.3259C51.9991 48.2759 58.1768 47.3684 62.7308 50.2143C63.6781 50.8063 63.9659 52.0542 63.3738 53.0013C62.7818 53.9485 61.5343 54.2366 60.5869 53.6445C58.077 52.0758 53.9432 52.1645 51.3703 55.0289C49.8802 56.688 48.0486 57.5763 46.152 57.5763Z" fill="#EDA751"/>
<path d="M60.5871 53.6448C61.5346 54.2369 62.7821 53.9488 63.3741 53.0016C63.9661 52.0543 63.6782 50.8065 62.731 50.2147C62.0761 49.8054 61.3868 49.4763 60.677 49.2205C59.6299 50.0828 59.0867 51.7784 58.9153 52.9141C59.5201 53.0861 60.0863 53.3318 60.5871 53.6448Z" fill="#FCD79D"/>
<path d="M40.8288 67.0039C39.9884 67.0039 39.1489 66.6786 38.5147 66.0301C36.0665 63.5259 34.7398 61.0403 34.4585 58.4309C34.1737 55.7888 35.0651 53.6347 35.7602 52.2444C36.5593 50.646 38.5032 49.9979 40.1018 50.7971C41.7005 51.5964 42.3484 53.5401 41.5491 55.1388C40.8145 56.6078 39.982 58.2728 43.1427 61.5054C44.3921 62.7833 44.3691 64.8321 43.091 66.0816C42.4616 66.6971 41.6448 67.0039 40.8288 67.0039Z" fill="#EDA751"/>
<path d="M22.5826 67.004C21.2496 67.004 20.0013 66.174 19.5317 64.8456C17.3422 58.6527 20.5842 53.402 23.1418 51.5472C24.5889 50.498 26.612 50.8204 27.6611 52.2671C28.7103 53.7139 28.3881 55.7372 26.9414 56.7866C26.4969 57.1089 24.482 59.4311 25.6336 62.6885C26.2293 64.3736 25.3462 66.2224 23.6611 66.8182C23.3046 66.9441 22.9406 67.004 22.5826 67.004Z" fill="#EDA751"/>
<path opacity="0.2" d="M19.7283 40.6613C17.9702 41.0273 16.425 41.0816 15.1027 40.9523C14.7696 42.2176 14.5917 43.5399 14.5917 44.9004C14.5917 45.7516 14.6609 46.5879 14.7942 47.4046C15.33 47.4419 15.8513 47.4585 16.3496 47.4585C18.584 47.4585 20.369 47.1387 21.0477 46.9974C22.7975 46.6331 23.9204 44.9193 23.5561 43.1696C23.1918 41.4202 21.4776 40.2972 19.7283 40.6613Z" fill="#A35F00"/>
<path opacity="0.2" d="M23.1419 51.547C21.891 52.4543 20.4768 54.1742 19.6139 56.4189C21.2297 57.9647 23.1664 59.2128 25.3223 60.0663C25.5401 58.2306 26.6289 57.0131 26.9416 56.7862C28.3883 55.7369 28.7105 53.7136 27.6613 52.2668C26.6122 50.82 24.5889 50.4978 23.1419 51.547Z" fill="#A35F00"/>
<path opacity="0.2" d="M40.102 50.7972C38.5033 49.9979 36.5594 50.6459 35.7603 52.2444C35.0652 53.6348 34.1739 55.7887 34.4586 58.431C34.5558 59.3336 34.7814 60.2211 35.132 61.1C37.3359 60.7363 39.3988 59.9838 41.2382 58.9209C40.4874 57.2643 41.0412 56.1547 41.5491 55.1389C42.3483 53.5403 41.7005 51.5964 40.102 50.7972Z" fill="#A35F00"/>
<path opacity="0.2" d="M45.9229 53.5184C44.6895 53.3816 43.3182 52.1675 42.2547 50.2707C41.7084 49.2964 40.4759 48.9491 39.5013 49.4957C38.527 50.042 38.18 51.2748 38.7262 52.2489C40.0926 54.6858 41.8526 56.3648 43.7968 57.1221C45.1068 56.0135 46.2378 54.7222 47.1448 53.2912C46.7401 53.4873 46.3317 53.5636 45.9229 53.5184Z" fill="#A35F00"/>
<path d="M32.096 58.7692C40.3389 58.7692 47.021 52.5597 47.021 44.9C47.021 37.2402 40.3389 31.0308 32.096 31.0308C23.8531 31.0308 17.1709 37.2402 17.1709 44.9C17.1709 52.5597 23.8531 58.7692 32.096 58.7692Z" fill="#FCD690"/>
<path opacity="0.15" d="M29.9162 58.6223C23.0956 54.1442 25.2094 44.9665 26.3673 40.9526V32.0903C20.9673 34.1779 17.1702 39.1269 17.1702 44.9006C17.1702 51.8724 22.7063 57.6419 29.9162 58.6223Z" fill="#C17A00"/>
<path d="M23.0127 20.8513C25.9333 18.4005 27.8834 14.2865 23.7638 8.20489C19.6115 2.07546 13.4299 0.538821 8.60362 1.10752C7.41376 1.24764 6.41541 2.08542 6.07076 3.23292C4.67277 7.88707 5.11238 14.2418 10.4279 19.3951C15.7019 24.5079 20.0919 23.3021 23.0127 20.8513Z" fill="#EDA751"/>
<path d="M5.87657 3.94482C4.73039 8.52088 5.37852 14.4994 10.4281 19.3949C14.9993 23.8267 18.9057 23.51 21.7677 21.7515C19.7992 8.38979 11.2012 4.84662 5.87657 3.94482Z" fill="#FF91AB"/>
<path d="M41.179 20.8513C38.2584 18.4005 36.3083 14.2865 40.4279 8.20487C44.58 2.07518 50.7618 0.538671 55.5879 1.10724C56.7778 1.24736 57.7761 2.08514 58.1207 3.23264C59.5186 7.88679 59.079 14.2415 53.7635 19.3949C48.4898 24.5079 44.0996 23.3021 41.179 20.8513Z" fill="#EDA751"/>
<path d="M58.3151 3.94482C59.4613 8.52088 58.8131 14.4994 53.7636 19.3949C49.1923 23.8267 45.2859 23.51 42.424 21.7515C44.3924 8.38979 52.9905 4.84662 58.3151 3.94482Z" fill="#FF91AB"/>
<path d="M57.5064 24.55C57.5064 36.1686 46.1296 41.2573 32.0957 41.2573C18.0618 41.2573 6.68506 36.1686 6.68506 24.55C6.68506 12.9315 18.0618 3.51294 32.0957 3.51294C46.1296 3.51294 57.5064 12.9317 57.5064 24.55Z" fill="#FFDC9C"/>
<path opacity="0.15" d="M18.5277 6.76099C11.4111 10.489 6.68494 17.0623 6.68494 24.5502C6.68494 34.5378 15.092 39.7001 26.3671 40.9526C10.1822 31.2847 12.2929 18.2805 18.5277 6.76099Z" fill="#C17A00"/>
<path d="M17.9505 28.7038C20.4915 28.7038 22.5514 27.0634 22.5514 25.0399C22.5514 23.0164 20.4915 21.376 17.9505 21.376C15.4095 21.376 13.3496 23.0164 13.3496 25.0399C13.3496 27.0634 15.4095 28.7038 17.9505 28.7038Z" fill="#FF91AB"/>
<path d="M42.8893 28.7038C45.4303 28.7038 47.4902 27.0634 47.4902 25.0399C47.4902 23.0164 45.4303 21.376 42.8893 21.376C40.3483 21.376 38.2885 23.0164 38.2885 25.0399C38.2885 27.0634 40.3483 28.7038 42.8893 28.7038Z" fill="#FF91AB"/>
<path d="M20.632 15.6456C19.5021 14.5158 17.6786 14.5025 16.5324 15.6056C15.3497 16.744 15.3718 18.6659 16.5326 19.8267L19.3163 22.6104C20.0428 23.3369 21.2209 23.3369 21.9472 22.6104L24.7311 19.8267C25.8919 18.6659 25.9141 16.744 24.7312 15.6056C23.5853 14.5024 21.7618 14.5158 20.632 15.6456Z" fill="#BD4568"/>
<path d="M32.0957 45.0877C30.5693 43.5612 28.1059 43.5433 26.5573 45.0336C24.9594 46.5716 24.9893 49.1681 26.5576 50.7362L30.3184 54.497C31.2999 55.4785 32.8914 55.4785 33.8728 54.497L37.6336 50.7362C39.2019 49.1679 39.2317 46.5714 37.6337 45.0336C36.0855 43.5434 33.6221 43.5615 32.0957 45.0877Z" fill="#BD4568"/>
<path d="M40.2077 15.6456C41.3375 14.5158 43.1609 14.5025 44.3072 15.6056C45.49 16.744 45.4679 18.6659 44.3071 19.8267L41.5233 22.6104C40.7968 23.3369 39.6188 23.3369 38.8923 22.6104L36.1084 19.8267C34.9477 18.6659 34.9255 16.744 36.1083 15.6056C37.2543 14.5024 39.0779 14.5158 40.2077 15.6456Z" fill="#BD4568"/>
<path d="M40.8813 53.7819C39.1653 53.7821 37.4187 53.2576 35.8374 52.2021C34.3509 51.21 33.9503 49.2007 34.9424 47.7141C35.9343 46.2275 37.9438 45.8266 39.4305 46.8191C40.7297 47.6861 41.6544 47.2178 42.0899 46.8615C42.6821 46.377 43.1492 45.4552 42.6843 44.3218C42.0057 42.6684 42.7964 40.7781 44.4497 40.0997C46.1037 39.4213 47.9937 40.2119 48.6719 41.8653C50.1368 45.4356 49.1388 49.4564 46.1887 51.8704C44.635 53.1419 42.7771 53.7819 40.8813 53.7819Z" fill="#EDA751"/>
<path d="M64.6002 51.2508C64.4189 50.465 63.9424 49.797 63.2585 49.3697C58.7133 46.529 52.6869 47.1219 48.6663 50.6326C50.4679 48.0039 50.8674 44.5919 49.5935 41.4872C49.237 40.6179 48.6222 39.9311 47.8742 39.4781C48.8318 39.0681 49.7328 38.6146 50.5715 38.1176C55.76 35.0436 58.5025 30.3519 58.5025 24.5501C58.5025 21.9736 57.9773 19.4666 56.97 17.113C59.7657 12.9393 60.5358 7.81044 59.0747 2.94618C58.6149 1.41525 57.2919 0.305205 55.7046 0.118205C50.8569 -0.453155 46.0846 1.06436 42.5081 4.28958C39.2608 3.12813 35.734 2.51693 32.0958 2.51693C28.4577 2.51693 24.9309 3.12813 21.6836 4.28958C18.1073 1.06449 13.3359 -0.453022 8.48707 0.118205C6.89956 0.305205 5.57662 1.41538 5.11682 2.94618C3.65549 7.81044 4.42553 12.9393 7.2215 17.113C6.21412 19.4667 5.68885 21.9737 5.68885 24.5503C5.68885 29.3141 7.47278 33.2505 10.9909 36.2506C12.6825 37.6931 14.7378 38.8819 17.1316 39.8141C17.1067 39.8776 17.0826 39.9412 17.0587 40.005C13.498 40.1721 11.3062 38.9272 10.6211 38.2054C9.01487 36.5127 6.33086 36.4424 4.6379 38.0488C2.94534 39.6553 2.87521 42.3392 4.48145 44.0319C7.95064 47.6874 12.8501 48.4548 16.3494 48.4548C16.4441 48.4548 16.5391 48.4541 16.6345 48.4529C17.188 50.5527 18.2201 52.4782 19.617 54.1226C18.4622 56.1178 16.8227 60.1716 18.5922 65.1776C19.189 66.8658 20.7924 67.9999 22.5823 67.9999C23.0626 67.9999 23.5371 67.9182 23.9929 67.757C26.1931 66.9791 27.3502 64.5564 26.5725 62.3561C26.0566 60.8965 26.3113 59.6912 26.6692 58.8763C28.3637 59.4515 30.1909 59.7659 32.0956 59.7659C32.6202 59.7659 33.142 59.7399 33.6597 59.6915C34.1874 62.1107 35.5489 64.4215 37.8024 66.7265C38.6054 67.5476 39.6802 67.9999 40.8285 67.9999C41.9409 67.9999 42.9916 67.5715 43.7869 66.7938C45.4554 65.1623 45.4857 62.4775 43.8544 60.809C42.1902 59.1069 41.8298 58.0017 41.8634 57.2386C42.9683 57.9598 44.1422 58.393 45.3668 58.5287C45.627 58.5576 45.8911 58.5723 46.1516 58.5723C48.3276 58.5723 50.4439 57.5503 52.1108 55.6948C54.3338 53.22 57.8973 53.1385 60.0587 54.4894C61.47 55.3715 63.3358 54.9408 64.2181 53.5294C64.646 52.8457 64.7816 52.0365 64.6002 51.2508ZM16.174 44.9005C16.174 45.4279 16.204 45.9487 16.2618 46.4621C13.1595 46.4497 8.88113 45.7737 5.92671 42.6604C5.07645 41.7645 5.1135 40.3439 6.00932 39.4938C6.90554 38.6437 8.32637 38.6808 9.1761 39.5767C9.84827 40.2848 10.9761 40.9397 12.2704 41.3732C13.5621 41.8059 14.9714 42.0192 16.4744 42.0127C16.2753 42.9563 16.174 43.9208 16.174 44.9005ZM55.9233 15.0202C54.6334 12.7775 52.8789 10.712 50.6991 8.90747C50.5465 8.78117 50.3925 8.65672 50.2368 8.53387C52.7038 6.54699 55.4069 5.57892 57.5456 5.10917C57.9734 7.46592 58.0858 11.2014 55.9233 15.0202ZM55.4714 2.09671C56.148 2.17653 56.728 2.59024 57.0304 3.18299C54.5526 3.73814 51.4053 4.90171 48.5731 7.32674C47.3218 6.49055 45.9923 5.75663 44.5992 5.13068C47.6491 2.73129 51.5305 1.63253 55.4714 2.09671ZM8.72029 2.09671C12.6599 1.63227 16.5423 2.73129 19.5926 5.13068C18.1993 5.75663 16.8701 6.49055 15.6187 7.32674C12.7866 4.90145 9.63909 3.73801 7.16121 3.18285C7.46362 2.59011 8.04348 2.1764 8.72029 2.09671ZM6.64603 5.10917C8.78471 5.57892 11.4878 6.54726 13.9548 8.53387C13.7992 8.65672 13.645 8.78117 13.4925 8.90747C11.3128 10.712 9.55821 12.7774 8.26833 15.0202C6.10574 11.2014 6.21797 7.46592 6.64603 5.10917ZM24.6946 63.0203C25.1063 64.1848 24.4938 65.4673 23.3291 65.8789C23.0873 65.9644 22.8361 66.0078 22.5827 66.0078C21.6354 66.0078 20.7867 65.4074 20.4709 64.5135C19.1 60.6362 20.1349 57.4332 21.0707 55.6148C22.1804 56.6107 23.4439 57.4583 24.8242 58.1227C24.322 59.2842 23.9737 60.9811 24.6946 63.0203ZM42.4304 62.2018C43.2939 63.085 43.2778 64.5061 42.3946 65.3694C41.9736 65.781 41.4175 66.0077 40.8288 66.0077C40.2209 66.0077 39.6519 65.7682 39.2269 65.3337C37.284 63.3464 36.1025 61.3927 35.6342 59.3886C37.1313 59.0672 38.5691 58.5456 39.9023 57.8454C40.0533 59.2199 40.8757 60.6118 42.4304 62.2018ZM40.8814 52.7858C39.3276 52.7859 37.7746 52.2976 36.3904 51.3737C35.3633 50.688 35.0853 49.2943 35.771 48.2671C36.1032 47.7695 36.6092 47.4309 37.1958 47.3139C37.7831 47.1968 38.3798 47.3154 38.8776 47.6477C40.1967 48.5281 41.6334 48.5222 42.7206 47.6325C43.549 46.9549 44.2779 45.5822 43.6059 43.9437C43.5448 43.7948 43.4998 43.6406 43.472 43.4851C43.3753 42.9435 42.8587 42.5827 42.3165 42.6793C41.7749 42.7759 41.4142 43.2932 41.5108 43.8348C41.5632 44.1295 41.6481 44.4206 41.7628 44.7C42.0795 45.4721 41.6561 45.9297 41.4591 46.0909C41.0583 46.4189 40.5755 46.386 39.9836 45.991C39.0434 45.3632 37.9147 45.1394 36.8061 45.3605C35.6974 45.5816 34.7413 46.2214 34.114 47.1616C32.8186 49.1025 33.3436 51.7354 35.2845 53.0311C36.9974 54.1742 38.9327 54.7785 40.8816 54.7784C40.9288 54.7784 40.9757 54.7761 41.0228 54.7753C38.5399 56.6866 35.378 57.7741 32.096 57.7741C24.415 57.7741 18.1663 51.9991 18.1663 44.9007C18.1663 43.6621 18.3534 42.4515 18.7235 41.2844C18.7302 41.2654 18.7362 41.2461 18.7418 41.2266C18.8236 40.9732 18.9147 40.722 19.0138 40.4727C20.5757 40.9603 22.2597 41.3529 24.0669 41.6452C24.6096 41.7327 25.1214 41.3639 25.2092 40.8209C25.2972 40.2778 24.9281 39.7663 24.385 39.6785C22.3724 39.353 20.5281 38.8999 18.8538 38.3252C18.8131 38.3079 18.7721 38.2932 18.7305 38.2817C16.1651 37.3874 14.0061 36.2032 12.2839 34.7349C9.23003 32.1307 7.68157 28.7041 7.68157 24.5504C7.68157 13.4997 18.6339 4.50938 32.0962 4.50938C45.5585 4.50938 56.5109 13.4997 56.5109 24.5504C56.5109 29.6819 54.1711 33.6698 49.5565 36.404C45.2971 38.9277 39.2595 40.2616 32.0961 40.2616C31.0038 40.2616 29.9202 40.2297 28.8757 40.1669C28.3258 40.1329 27.8546 40.5522 27.8216 41.1013C27.7886 41.6505 28.2069 42.1224 28.7561 42.1555C29.8405 42.2207 30.9644 42.2538 32.0962 42.2538C36.2777 42.2538 40.1087 41.811 43.4719 40.9533C43.7734 41.2428 44.2377 41.3218 44.6275 41.1154C44.6926 41.0809 44.76 41.0493 44.8282 41.0214C45.9711 40.5528 47.2821 41.101 47.7508 42.2437C49.0484 45.4058 48.1673 48.9649 45.5582 51.0997C45.1006 51.4743 44.6111 51.7873 44.0984 52.0395C44.0824 52.047 44.0666 52.0544 44.0511 52.0626C43.9523 52.1103 43.8526 52.1557 43.7521 52.1989C43.729 52.2079 43.7064 52.2179 43.684 52.2286C42.8016 52.5956 41.8569 52.7858 40.8814 52.7858ZM62.5293 52.4736C62.2294 52.9537 61.5948 53.1 61.115 52.8C58.2564 51.0133 53.5523 51.1093 50.6294 54.3633C49.3265 55.8137 47.7785 56.5801 46.1522 56.5801C45.9648 56.5801 45.7746 56.5695 45.5869 56.5488C44.7255 56.4533 43.8874 56.1521 43.0841 55.6528C43.6161 55.1805 44.1154 54.6724 44.5763 54.1301C44.9893 54.3349 45.4034 54.4628 45.8134 54.5084C46.6126 54.5971 47.8316 54.4054 49.1022 52.9914C52.4212 49.2967 58.0531 48.4654 62.203 51.059C62.4355 51.2043 62.5975 51.4314 62.6592 51.6985C62.7207 51.9659 62.6746 52.241 62.5293 52.4736ZM42.8123 28.6782C43.9767 28.9873 46.4544 30.2268 47.3205 30.8662C47.4986 30.9975 47.7058 31.0609 47.9113 31.0609C48.2167 31.0609 48.5181 30.9209 48.7135 30.6563C49.0402 30.2137 48.9461 29.59 48.5036 29.2634C47.4548 28.4892 44.7544 27.1328 43.3235 26.7528C42.7912 26.6118 42.2463 26.9284 42.1051 27.46C41.9641 27.9917 42.2807 28.537 42.8123 28.6782ZM17.5162 26.7527C16.0854 27.1325 13.3849 28.4891 12.336 29.2632C11.8934 29.59 11.7994 30.2135 12.1261 30.6562C12.3215 30.9207 12.6229 31.0607 12.9283 31.0607C13.1338 31.0607 13.3411 30.9974 13.5191 30.866C14.3851 30.2267 16.863 28.9873 18.0274 28.6781C18.559 28.5369 18.8757 27.9914 18.7345 27.4598C18.5934 26.9283 18.0488 26.6118 17.5162 26.7527ZM16.7071 25.2742C17.2503 25.3463 17.7529 24.9626 17.8251 24.4172C17.8971 23.8719 17.5134 23.3712 16.9681 23.2992C15.5 23.1053 12.4869 23.3306 11.2221 23.6467C10.6883 23.7801 10.364 24.321 10.4973 24.8547C10.6106 25.3073 11.0166 25.6094 11.463 25.6094C11.5431 25.6094 11.6244 25.5997 11.7054 25.5794C12.7496 25.3183 15.5131 25.1164 16.7071 25.2742ZM44.1325 25.2742C45.3271 25.1163 48.0902 25.3183 49.1345 25.5793C49.2155 25.5996 49.2968 25.6093 49.3767 25.6093C49.823 25.6092 50.2291 25.3072 50.3424 24.8545C50.4757 24.3209 50.1511 23.7801 49.6175 23.6466C48.353 23.3306 45.3398 23.1053 43.8715 23.2992C43.3262 23.3712 42.9425 23.8719 43.0145 24.4172C43.0866 24.9625 43.5877 25.3455 44.1325 25.2742ZM33.7513 22.1117C34.1127 21.6969 34.0695 21.0678 33.6548 20.7063C33.24 20.3446 32.611 20.3881 32.2494 20.8027C31.7874 21.3327 31.1206 21.6368 30.4197 21.6368C29.7189 21.6368 29.052 21.3327 28.5902 20.8028C28.2289 20.388 27.5995 20.3449 27.1849 20.7063C26.7702 21.0677 26.7269 21.6968 27.0883 22.1116C27.9284 23.0759 29.1429 23.6289 30.4196 23.6289C31.6966 23.6288 32.9109 23.0759 33.7513 22.1117Z" fill="#151515"/>
</g>
<defs>
<clipPath id="clip0_20_653">
<rect width="68" height="68" fill="white"/>
</clipPath>
</defs>
</svg>
