<svg width="80" height="120" viewBox="0 0 80 120" fill="none" xmlns="http://www.w3.org/2000/svg">
<g clip-path="url(#clip0_717_17878)">
<rect width="80" height="120" rx="6" fill="#FCD690"/>
<path d="M10.585 54.0578C10.5103 54.0544 10.4447 54.0611 10.378 54.0678C10.34 54.0656 10.3078 54.0578 10.2698 54.0578C8.64184 54.0578 8.64184 55.3386 10.2698 55.3386C10.3377 55.3386 10.3964 55.3286 10.4585 55.3197C10.5022 55.3253 10.5402 55.3364 10.5862 55.3386C16.7299 55.621 22.8897 56.7907 28.7573 58.7897C30.2956 59.3145 30.9525 56.9574 29.4281 56.4382C23.3488 54.368 16.9497 54.3491 10.585 54.0578Z" fill="white" fill-opacity="0.4"/>
<path d="M29.092 61.8815C30.7211 61.9004 30.7188 59.46 29.092 59.4433C20.9901 59.3566 13.0804 60.8553 5.20054 62.5353C5.0993 62.5575 5.00726 62.5876 4.92327 62.6242C3.60018 62.9033 3.69913 63.8751 5.2201 63.8751C5.45135 63.8751 5.64694 63.8217 5.81376 63.735C5.83447 63.7316 5.85173 63.7327 5.87129 63.7283C13.5348 62.0961 21.2122 61.7981 29.092 61.8815Z" fill="white" fill-opacity="0.4"/>
<path d="M28.9678 62.4333C24.5245 63.3283 20.3551 64.9671 16.2581 66.8239C14.7855 67.4921 16.0671 68.4349 17.5317 67.7712C21.4377 66.0011 25.4047 65.6376 29.6385 64.7848C31.2308 64.4657 30.5566 62.1142 28.9678 62.4333Z" fill="white" fill-opacity="0.4"/>
<path d="M69.6239 54.0678C69.5561 54.0611 69.4893 54.0544 69.4157 54.0578C63.0511 54.3491 56.6508 54.3691 50.5715 56.4393C49.0482 56.9574 49.704 59.3145 51.2434 58.7908C57.1121 56.7918 63.272 55.6221 69.4157 55.3397C69.4617 55.3375 69.4997 55.3264 69.5422 55.3208C69.6044 55.3297 69.6631 55.3397 69.7298 55.3397C71.3578 55.3397 71.3578 54.0589 69.7298 54.0589C69.6918 54.0578 69.6608 54.0644 69.6239 54.0678Z" fill="white" fill-opacity="0.4"/>
<path d="M75.0759 62.6242C74.9919 62.5876 74.9021 62.5564 74.7997 62.5353C66.9199 60.8542 59.0102 59.3566 50.9071 59.4433C49.2815 59.4611 49.2792 61.9004 50.9071 61.8815C58.7893 61.7982 66.4655 62.095 74.1278 63.7294C74.1497 63.7339 74.1658 63.7327 74.1854 63.7361C74.3522 63.8217 74.5466 63.8762 74.779 63.8762C76.3012 63.8751 76.4001 62.9011 75.0759 62.6242Z" fill="white" fill-opacity="0.4"/>
<path d="M63.7435 66.8261C59.6465 64.9682 55.4782 63.3294 51.035 62.4355C49.4461 62.1164 48.7696 64.4657 50.3631 64.7881C54.5981 65.642 58.5651 66.0045 62.4699 67.7745C63.9345 68.4372 65.2173 67.4932 63.7435 66.8261Z" fill="white" fill-opacity="0.4"/>
<path d="M42.5417 52.9981C41.1634 51.6673 38.9302 51.6673 37.5519 52.9981L34.8091 53.6019C33.4308 54.9327 33.4308 57.0919 34.8091 58.4239L37.5519 61.0734C38.9302 62.4043 41.1634 62.4043 42.5417 61.0734L45.2845 58.4239C46.6617 57.0919 46.6617 54.9316 45.2845 53.6019L42.5417 52.9981Z" fill="white" fill-opacity="0.4"/>
<g clip-path="url(#clip1_717_17878)">
<path d="M15.2824 32.9412C14.8765 32.7025 14.3946 32.6285 13.9358 32.7344C13.4771 32.8402 13.0763 33.1178 12.8159 33.5101L11.653 35.2601C10.9791 36.2317 11.936 37.5712 13.0736 37.2479C13.694 37.0871 14.1272 36.6504 14.8045 36.507C15.5005 36.3336 16.0847 36.4955 16.7246 36.4056C17.8618 36.1706 18.1086 34.571 17.0929 34.0052L15.2824 32.9412Z" fill="white" fill-opacity="0.4"/>
<path d="M17.3664 30.2829C16.7584 30.3029 16.4631 31.0525 16.476 31.6364C16.5268 33.4415 18.2743 33.3847 18.2796 31.6212C18.2741 30.8672 17.8721 30.2785 17.3664 30.2829Z" fill="white" fill-opacity="0.4"/>
<path d="M15.1165 31.7833C15.6951 31.6499 16.0138 30.8836 15.8276 30.0767C15.3216 28.1473 13.3393 28.6046 13.7311 30.5603C13.9173 31.3673 14.5395 31.9164 15.1165 31.7833Z" fill="white" fill-opacity="0.4"/>
<path d="M11.1715 32.8602C10.9288 32.3293 10.3334 31.7852 9.77815 32.0335C8.76308 32.5547 9.74983 34.7468 10.8048 34.5099C11.3971 34.3524 11.5128 33.5961 11.1715 32.8602Z" fill="white" fill-opacity="0.4"/>
<path d="M12.4579 32.3965C13.0349 32.2634 13.3536 31.4971 13.1675 30.6902C12.663 28.7605 10.6807 29.2178 11.071 31.1738C11.2571 31.9808 11.8793 32.53 12.4579 32.3965Z" fill="white" fill-opacity="0.4"/>
</g>
<g clip-path="url(#clip2_717_17878)">
<path d="M15.1763 103.51C14.916 103.118 14.5152 102.84 14.0564 102.735C13.5977 102.629 13.1158 102.703 12.7099 102.941L10.8978 104.005C9.86647 104.583 10.1398 106.207 11.3042 106.414C11.9323 106.542 12.513 106.339 13.1847 106.507C13.8864 106.656 14.3406 107.057 14.9552 107.257C16.0804 107.543 17.003 106.214 16.3378 105.26L15.1763 103.51Z" fill="white" fill-opacity="0.4"/>
<path d="M18.2143 102.034C17.659 101.785 17.0652 102.33 16.8209 102.86C16.0758 104.505 17.6717 105.22 18.449 103.637C18.7743 102.957 18.6708 102.251 18.2143 102.034Z" fill="white" fill-opacity="0.4"/>
<path d="M15.5346 102.397C16.1132 102.53 16.7354 101.981 16.9215 101.174C17.3118 99.218 15.3295 98.7607 14.825 100.69C14.6389 101.497 14.9576 102.264 15.5346 102.397Z" fill="white" fill-opacity="0.4"/>
<path d="M11.5165 101.637C11.5308 101.053 11.234 100.303 10.6261 100.283C9.48524 100.307 9.41201 102.71 10.4642 102.959C11.0656 103.077 11.501 102.448 11.5165 101.637Z" fill="white" fill-opacity="0.4"/>
<path d="M12.876 101.784C13.453 101.917 14.0752 101.367 14.2614 100.561C14.6532 98.6048 12.6709 98.1475 12.1649 100.077C11.9787 100.884 12.2974 101.65 12.876 101.784Z" fill="white" fill-opacity="0.4"/>
</g>
<g clip-path="url(#clip3_717_17878)">
<path d="M66.525 17.5104C66.2646 17.1181 65.8639 16.8405 65.4051 16.7346C64.9463 16.6288 64.4644 16.7028 64.0585 16.9414L62.2465 18.0051C61.2151 18.5834 61.4885 20.2067 62.6528 20.4143C63.2809 20.5416 63.8617 20.3388 64.5333 20.5066C65.235 20.6556 65.6892 21.057 66.3038 21.2565C67.4291 21.5434 68.3516 20.2136 67.6864 19.26L66.525 17.5104Z" fill="white" fill-opacity="0.4"/>
<path d="M69.5629 16.0336C69.0076 15.7853 68.4138 16.3298 68.1695 16.8603C67.4245 18.5052 69.0203 19.2197 69.7976 17.6368C70.1229 16.9565 70.0194 16.2512 69.5629 16.0336Z" fill="white" fill-opacity="0.4"/>
<path d="M66.8833 16.3967C67.4618 16.5302 68.084 15.981 68.2702 15.1741C68.6605 13.218 66.6781 12.7607 66.1736 14.6904C65.9875 15.4974 66.3062 16.2636 66.8833 16.3967Z" fill="white" fill-opacity="0.4"/>
<path d="M62.8651 15.6368C62.8795 15.0532 62.5826 14.3032 61.9747 14.2832C60.8339 14.3071 60.7606 16.7099 61.8128 16.9591C62.4142 17.077 62.8496 16.4478 62.8651 15.6368Z" fill="white" fill-opacity="0.4"/>
<path d="M64.2246 15.7836C64.8017 15.9167 65.4238 15.3675 65.61 14.5605C66.0018 12.6048 64.0195 12.1475 63.5135 14.0769C63.3273 14.8839 63.6461 15.6501 64.2246 15.7836Z" fill="white" fill-opacity="0.4"/>
</g>
<g clip-path="url(#clip4_717_17878)">
<path d="M67.2824 86.9412C66.8765 86.7025 66.3946 86.6285 65.9358 86.7344C65.4771 86.8402 65.0763 87.1178 64.8159 87.5101L63.653 89.2601C62.9791 90.2317 63.936 91.5712 65.0736 91.2479C65.694 91.0871 66.1272 90.6504 66.8045 90.507C67.5005 90.3336 68.0847 90.4955 68.7246 90.4056C69.8618 90.1706 70.1086 88.571 69.0929 88.0052L67.2824 86.9412Z" fill="white" fill-opacity="0.4"/>
<path d="M69.3664 84.2829C68.7584 84.3029 68.4631 85.0525 68.476 85.6364C68.5268 87.4415 70.2743 87.3847 70.2796 85.6212C70.2741 84.8672 69.8721 84.2785 69.3664 84.2829Z" fill="white" fill-opacity="0.4"/>
<path d="M67.1165 85.7833C67.6951 85.6499 68.0138 84.8836 67.8276 84.0767C67.3216 82.1473 65.3393 82.6046 65.7311 84.5603C65.9173 85.3673 66.5395 85.9164 67.1165 85.7833Z" fill="white" fill-opacity="0.4"/>
<path d="M63.1715 86.8602C62.9288 86.3293 62.3334 85.7852 61.7782 86.0335C60.7631 86.5547 61.7498 88.7468 62.8048 88.5099C63.3971 88.3524 63.5128 87.5961 63.1715 86.8602Z" fill="white" fill-opacity="0.4"/>
<path d="M64.4579 86.3965C65.0349 86.2634 65.3536 85.4971 65.1675 84.6902C64.663 82.7605 62.6807 83.2178 63.071 85.1738C63.2571 85.9808 63.8793 86.53 64.4579 86.3965Z" fill="white" fill-opacity="0.4"/>
</g>
</g>
<defs>
<clipPath id="clip0_717_17878">
<rect width="80" height="120" fill="white"/>
</clipPath>
<clipPath id="clip1_717_17878">
<rect width="10" height="10" fill="white" transform="translate(8 29.2478) rotate(-12.99)"/>
</clipPath>
<clipPath id="clip2_717_17878">
<rect width="10" height="10" fill="white" transform="translate(10.248 97) rotate(12.99)"/>
</clipPath>
<clipPath id="clip3_717_17878">
<rect width="10" height="10" fill="white" transform="translate(61.5967 11) rotate(12.99)"/>
</clipPath>
<clipPath id="clip4_717_17878">
<rect width="10" height="10" fill="white" transform="translate(60 83.2478) rotate(-12.99)"/>
</clipPath>
</defs>
</svg>
