<svg width="66" height="66" viewBox="0 0 66 66" fill="none" xmlns="http://www.w3.org/2000/svg">
<path d="M51.1478 55.0413C47.5486 55.0413 45.1399 52.089 43.1211 49.6148L42.9435 49.3972C42.3232 48.6378 42.4358 47.5193 43.1952 46.899C43.9546 46.2786 45.0731 46.3915 45.6936 47.1507L45.8723 47.3699C48.7515 50.8982 50.193 52.2218 52.8952 51.0834C54.463 50.423 54.9056 48.9104 55.4978 46.4972C56.0565 44.221 56.6896 41.641 59.0762 40.113C59.9022 39.5842 61.0001 39.8251 61.5289 40.6508C62.0577 41.4765 61.8168 42.5747 60.991 43.1033C59.7999 43.8661 59.4044 45.4775 58.9465 47.3434C58.3314 49.8499 57.5658 52.9692 54.2737 54.356C53.1384 54.8341 52.1012 55.0413 51.1478 55.0413Z" fill="#EDA751"/>
<path d="M61.5292 40.6508C61.0004 39.825 59.9025 39.5842 59.0765 40.113C58.4736 40.4991 57.9828 40.9524 57.5767 41.4509C57.9871 42.3868 58.7957 43.5155 60.1353 43.97C60.368 43.6199 60.6454 43.325 60.9913 43.1035C61.817 42.5747 62.058 41.4766 61.5292 40.6508Z" fill="#FCD79D"/>
<path d="M43.058 65.0333C41.5983 65.0333 40.3569 63.9148 40.2307 62.4336C39.853 58.0018 40.0825 54.7466 40.9749 51.8789C41.441 50.3808 43.0335 49.544 44.5314 50.0105C46.0294 50.4767 46.866 52.069 46.3999 53.5671C45.7362 55.7002 45.5794 58.2859 45.8918 61.9511C46.0251 63.5144 44.8657 64.8897 43.3024 65.023C43.2204 65.0299 43.1389 65.0333 43.058 65.0333Z" fill="#EDA751"/>
<path d="M34.1912 65.0333C32.7313 65.0333 31.4901 63.9148 31.3639 62.4335C30.9864 58.0014 31.2158 54.7462 32.1081 51.8789C32.5742 50.3808 34.1668 49.544 35.6646 50.0105C37.1627 50.4767 37.9993 52.069 37.5331 53.5671C36.8694 55.6999 36.7128 58.2857 37.025 61.9513C37.1581 63.5145 35.9989 64.8898 34.4357 65.023C34.3537 65.0299 34.2719 65.0333 34.1912 65.0333Z" fill="#EDA751"/>
<path d="M21.3175 48.7606C18.6645 48.7606 16.2484 47.8044 14.5082 46.0641C13.399 44.9548 13.399 43.156 14.5082 42.0466C15.6176 40.9373 17.4165 40.9373 18.5258 42.0466C19.3763 42.8973 20.5071 43.0789 21.3173 43.0789C21.3276 43.0789 21.3378 43.0789 21.3481 43.0788C22.9888 43.0694 24.7522 42.3439 25.8409 41.2303C26.9377 40.1083 28.7365 40.0879 29.8581 41.1846C30.98 42.2814 31.0005 44.08 29.9037 45.2019C27.7755 47.379 24.5095 48.7424 21.3803 48.7602C21.3594 48.7605 21.3384 48.7606 21.3175 48.7606Z" fill="#EDA751"/>
<path opacity="0.2" d="M52.0425 51.3691C49.8577 51.9004 48.4332 50.5081 45.8724 47.3697L45.6936 47.1506C45.0732 46.3913 43.9547 46.2784 43.1953 46.8988C42.4358 47.5192 42.3232 48.6378 42.9435 49.397L43.1213 49.6146C44.8062 51.6796 46.7634 54.0763 49.457 54.813C50.4844 53.7922 51.358 52.6333 52.0425 51.3691Z" fill="#A35F00"/>
<path opacity="0.2" d="M44.5317 50.0105C43.0338 49.5441 41.4412 50.3807 40.9752 51.8789C40.3076 54.0241 40.0112 56.3864 40.0623 59.2957C42.1116 59.0562 44.0385 58.4412 45.7634 57.527C45.8317 56.0091 46.0411 54.7209 46.4002 53.567C46.8663 52.0691 46.0297 50.4767 44.5317 50.0105Z" fill="#A35F00"/>
<path opacity="0.2" d="M35.6649 50.0105C34.167 49.5441 32.5744 50.3807 32.1084 51.8789C31.5526 53.6651 31.2541 55.6022 31.1992 57.8802C32.9351 58.6926 34.8529 59.21 36.8791 59.3615C36.8253 57.0039 37.0379 55.159 37.5333 53.5669C37.9995 52.0691 37.1631 50.4767 35.6649 50.0105Z" fill="#A35F00"/>
<path opacity="0.2" d="M25.8409 41.2305C25.0354 42.0545 23.8603 42.665 22.6389 42.9312C22.562 43.521 22.5215 44.1215 22.5215 44.7306C22.5215 46.0774 22.7164 47.382 23.0793 48.622C25.6506 48.2238 28.1593 46.9866 29.9038 45.2021C31.0005 44.0802 30.9801 42.2816 29.8582 41.1849C28.7366 40.0881 26.9379 40.1085 25.8409 41.2305Z" fill="#A35F00"/>
<path d="M38.1263 56.9056C45.363 56.9056 51.2296 51.4545 51.2296 44.7304C51.2296 38.0062 45.363 32.5552 38.1263 32.5552C30.8895 32.5552 25.0229 38.0062 25.0229 44.7304C25.0229 51.4545 30.8895 56.9056 38.1263 56.9056Z" fill="#FCD690"/>
<path opacity="0.15" d="M36.2134 56.7763C30.2258 52.8452 32.0814 44.7883 33.0978 41.2647V33.4849C28.3573 35.3174 25.0239 39.6619 25.0239 44.7305C25.0239 50.8509 29.8839 55.9157 36.2134 56.7763Z" fill="#C17A00"/>
<path d="M30.1529 23.6185C32.7168 21.4671 34.4286 17.8556 30.8122 12.5167C27.1673 7.13561 21.7405 5.78686 17.5037 6.28599C16.4592 6.40909 15.5827 7.1445 15.2802 8.15165C14.0529 12.2373 14.4389 17.8159 19.1052 22.34C23.735 26.8285 27.5891 25.7698 30.1529 23.6185Z" fill="#EDA751"/>
<path d="M15.1101 8.77686C14.104 12.794 14.6728 18.0423 19.1056 22.34C23.1185 26.2305 26.5479 25.9525 29.0603 24.4087C27.3323 12.679 19.7843 9.56847 15.1101 8.77686Z" fill="#FF91AB"/>
<path d="M46.1006 23.6185C43.5366 21.4671 41.8249 17.8556 45.4412 12.5167C49.0862 7.13561 54.513 5.78686 58.7497 6.28599C59.7943 6.40909 60.6707 7.1445 60.9732 8.15165C62.2004 12.2373 61.8145 17.8159 57.1482 22.34C52.5184 26.8285 48.6644 25.7698 46.1006 23.6185Z" fill="#EDA751"/>
<path d="M61.1441 8.77686C62.1502 12.794 61.5813 18.0423 57.1485 22.34C53.1355 26.2305 49.7062 25.9525 47.1938 24.4087C48.9218 12.679 56.4698 9.56847 61.1441 8.77686Z" fill="#FF91AB"/>
<path d="M60.4343 26.8657C60.4343 37.0652 50.447 41.5324 38.1271 41.5324C25.8071 41.5324 15.8198 37.0652 15.8198 26.8657C15.8198 16.6663 25.8071 8.39795 38.1271 8.39795C50.447 8.39795 60.4343 16.6661 60.4343 26.8657Z" fill="#FFDC9C"/>
<path opacity="0.15" d="M26.2161 11.249C19.9687 14.5218 15.8198 20.2922 15.8198 26.8655C15.8198 35.6333 23.2001 40.1651 33.0982 41.2646C18.8899 32.7775 20.7429 21.3617 26.2161 11.249Z" fill="#C17A00"/>
<path d="M24.5655 30.5123C26.796 30.5123 28.6041 29.0722 28.6041 27.2958C28.6041 25.5194 26.796 24.0793 24.5655 24.0793C22.335 24.0793 20.5269 25.5194 20.5269 27.2958C20.5269 29.0722 22.335 30.5123 24.5655 30.5123Z" fill="#FF91AB"/>
<path d="M46.459 30.5123C48.6895 30.5123 50.4977 29.0722 50.4977 27.2958C50.4977 25.5194 48.6895 24.0793 46.459 24.0793C44.2286 24.0793 42.4204 25.5194 42.4204 27.2958C42.4204 29.0722 44.2286 30.5123 46.459 30.5123Z" fill="#FF91AB"/>
<path d="M48.9482 15.8288H27.3054C24.9277 15.8288 23.197 13.5736 23.8121 11.2768L24.3573 9.24129C25.6644 4.36077 30.0869 0.966797 35.1394 0.966797H41.1142C46.1668 0.966797 50.5892 4.36077 51.8963 9.24129L52.4414 11.2768C53.0566 13.5736 51.3259 15.8288 48.9482 15.8288Z" fill="#BD4568"/>
<path opacity="0.1" d="M33.2201 1.1333C28.9974 1.86871 25.4956 4.99056 24.3573 9.24125L23.8121 11.2768C23.197 13.5735 24.9277 15.8287 27.3054 15.8287H33.3306C31.4414 13.5511 32.0207 4.26946 33.2201 1.1333Z" fill="#151515"/>
<path d="M43.7517 15.8289H27.3057L28.1389 17.6266C29.0268 19.5424 30.9462 20.7683 33.0577 20.7683H37.9997C40.1112 20.7683 42.0306 19.5424 42.9185 17.6266L43.7517 15.8289Z" fill="#BD4568"/>
<path opacity="0.1" d="M43.7517 15.8289H27.3057L28.1389 17.6266C29.0268 19.5424 30.9462 20.7683 33.0577 20.7683H37.9997C40.1112 20.7683 42.0306 19.5424 42.9185 17.6266L43.7517 15.8289Z" fill="#151515"/>
<path opacity="0.1" d="M52.4416 11.2768L52.1264 10.0998H46.2853V6.69565H50.8653C50.4898 6.0216 50.0486 5.39331 49.5502 4.81864H46.2853V2.23846C45.6875 1.92573 45.0598 1.66586 44.4084 1.4645V4.81877H39.0655V0.966797H37.1886V4.81877H31.8457V1.4645C31.1942 1.66586 30.5664 1.9256 29.9687 2.23846V4.81877H26.7039C26.2056 5.39331 25.7643 6.02173 25.3888 6.69578H29.9687V10.0998H24.1276L23.8124 11.2768C23.7496 11.5115 23.7125 11.7454 23.6968 11.9768H29.9687V15.8288H31.8457V11.9768H37.1886V15.8288H39.0655V11.9768H44.4084V15.8288H46.2853V11.9768H52.5573C52.5416 11.7454 52.5045 11.5115 52.4416 11.2768ZM37.1885 10.0998H31.8456V6.69565H37.1885V10.0998ZM44.4083 10.0998H39.0654V6.69565H44.4083V10.0998Z" fill="#151515"/>
<path d="M14.9383 41.1662L13.4766 41.4758C12.8567 41.6072 12.2478 41.211 12.1166 40.5913L11.8496 39.3311C11.67 38.4835 10.8374 37.942 9.98986 38.1215L5.43483 39.0864C4.58727 39.266 4.04574 40.0986 4.2253 40.9461L4.56304 42.5407C5.05649 44.87 7.34483 46.3584 9.67417 45.8649L15.839 44.559C17.0506 44.3023 18.1522 43.675 18.9911 42.7637C19.7933 41.8924 20.124 40.6868 19.8785 39.5282L19.8536 39.4109C19.6754 38.5691 18.6276 38.27 18.0319 38.891L16.8902 40.081C16.3632 40.6303 15.6831 41.0084 14.9383 41.1662Z" fill="#B77866"/>
<path opacity="0.1" d="M6.73485 38.811L5.43483 39.0864C4.58727 39.2659 4.04574 40.0986 4.2253 40.9461L4.56304 42.5407C5.05649 44.87 7.34483 46.3584 9.67417 45.8649L12.2598 45.3172C8.80843 44.6736 7.1391 41.1799 6.73485 38.811Z" fill="#151515"/>
<path d="M43.86 48.2617C41.9421 48.2617 40.0844 47.704 38.4071 46.5976C35.3959 44.6113 33.3726 41.0742 33.3726 37.7962C33.3726 36.2272 34.6443 34.9553 36.2134 34.9553C37.7823 34.9553 39.0542 36.2271 39.0542 37.7962C39.0542 38.9867 39.9824 40.8304 41.5357 41.8549C42.8445 42.7182 44.3224 42.8069 45.9292 42.1189C47.3715 41.5014 49.0412 42.1699 49.6588 43.6122C50.2764 45.0545 49.6078 46.7242 48.1655 47.3418C46.7305 47.9563 45.2787 48.2617 43.86 48.2617Z" fill="#EDA751"/>
<path opacity="0.15" d="M43.86 48.2617C41.9421 48.2617 40.0844 47.704 38.4071 46.5976C35.3959 44.6113 33.3726 41.0742 33.3726 37.7962C33.3726 36.2272 34.6443 34.9553 36.2134 34.9553C37.7823 34.9553 39.0542 36.2271 39.0542 37.7962C39.0542 38.9867 39.9824 40.8304 41.5357 41.8549C42.8445 42.7182 44.3224 42.8069 45.9292 42.1189C47.3715 41.5014 49.0412 42.1699 49.6588 43.6122C50.2764 45.0545 49.6078 46.7242 48.1655 47.3418C46.7305 47.9563 45.2787 48.2617 43.86 48.2617Z" fill="#C18F00"/>
<path d="M43.0302 22.8717C43.0658 22.8717 43.1019 22.868 43.138 22.864V24.087C43.138 24.621 43.5709 25.0538 44.1048 25.0538C44.6388 25.0538 45.0716 24.621 45.0716 24.087V22.6608C45.0716 22.6366 45.0696 22.6127 45.068 22.5889L45.3157 22.5533C45.8442 22.4774 46.211 21.9873 46.1351 21.4588C46.0591 20.9301 45.5693 20.5635 45.0405 20.6393L42.894 20.9479C42.3655 21.0238 41.9987 21.5139 42.0745 22.0425C42.1437 22.5243 42.5573 22.8717 43.0302 22.8717ZM62.3431 40.1293C61.5279 38.8563 59.8286 38.4835 58.5549 39.2986C55.843 41.035 55.1309 43.9355 54.5588 46.2666C53.9753 48.6448 53.6058 49.7349 52.5198 50.1924C51.7895 50.4999 51.2445 50.5624 50.7786 50.4758C51.6861 48.7392 52.1962 46.7895 52.1962 44.7305C52.1962 43.2068 51.9224 41.7249 51.3812 40.3117C52.8647 39.7279 54.2029 39.0326 55.3738 38.2306C59.3166 35.5302 61.4007 31.6002 61.4007 26.8656C61.4007 24.6175 60.9371 22.4208 60.0604 20.3569C62.5131 16.6756 63.1861 12.1584 61.8991 7.87359C61.485 6.4943 60.2931 5.49424 58.8627 5.32576C57.1146 5.11977 54.5185 5.13021 51.7074 6.22411C49.602 2.45334 45.5782 0 41.1142 0H35.1394C30.6753 0 26.6515 2.45334 24.5461 6.22411C21.7348 5.13034 19.139 5.1199 17.3906 5.32576C15.9606 5.49424 14.7687 6.4943 14.3544 7.87359C13.0674 12.1586 13.7404 16.6756 16.1931 20.357C15.3163 22.4209 14.8527 24.6176 14.8527 26.8656C14.8527 30.5492 16.0708 33.6902 18.4729 36.2011C20.1044 37.9064 22.249 39.2848 24.8704 40.3166C24.7838 40.5429 24.7044 40.7712 24.6316 41.0011C23.7146 41.6843 22.4804 42.1056 21.3423 42.112H21.3174C21.106 42.112 20.8483 42.0952 20.5766 42.0435C20.9251 41.1942 21.0195 40.2479 20.8246 39.3281L20.7997 39.2103C20.6427 38.4695 20.093 37.8804 19.3648 37.6726C18.6365 37.4647 17.8586 37.6753 17.3344 38.2215L16.1928 39.4115C15.7984 39.8226 15.2954 40.1023 14.7381 40.2204L13.2766 40.5299C13.2163 40.5429 13.1695 40.5234 13.1407 40.5047C13.1121 40.4861 13.0754 40.4513 13.0626 40.3907L12.7956 39.1305C12.506 37.7628 11.1575 36.8856 9.78981 37.1755L5.23478 38.1405C3.86721 38.4303 2.99026 39.7787 3.27992 41.1464L3.61765 42.7409C3.90988 44.1201 4.72147 45.3029 5.90354 46.0716C6.77044 46.6354 7.76005 46.9269 8.77042 46.9269C9.13754 46.9269 9.50738 46.8885 9.87489 46.8106L13.2971 46.0857C13.4469 46.3243 13.623 46.5456 13.825 46.7476C15.7463 48.6689 18.4075 49.7271 21.3179 49.7271L21.386 49.727C22.5368 49.7204 23.734 49.5397 24.8975 49.2045C25.9352 51.8736 27.8739 54.1418 30.3683 55.6879C30.1674 57.6564 30.1781 59.8974 30.4011 62.5154C30.5674 64.4694 32.2325 66 34.1916 66C34.3003 66 34.41 65.9954 34.518 65.9862C36.6099 65.8079 38.1668 63.9611 37.9886 61.8691C37.8594 60.353 37.8143 59.0349 37.8513 57.8695C37.9429 57.8712 38.0346 57.8727 38.1268 57.8727C38.4547 57.8727 38.7798 57.8612 39.1022 57.8406C39.0669 59.253 39.1208 60.7926 39.2676 62.5157C39.4339 64.4695 41.0989 66 43.0581 66C43.1667 66 43.2766 65.9954 43.3846 65.9861C44.9678 65.8511 46.314 64.7312 46.734 63.1994C46.8752 62.6844 46.5723 62.1525 46.0573 62.0113C45.5421 61.8698 45.0105 62.173 44.8693 62.6879C44.6626 63.4419 43.9999 63.9931 43.2204 64.0596C43.1667 64.0641 43.1121 64.0664 43.0579 64.0664C42.0946 64.0664 41.2759 63.3131 41.194 62.3514C41.0425 60.5746 40.9938 59.0086 41.0439 57.5877C42.4081 57.3179 43.6999 56.8631 44.8879 56.2525C44.8147 56.9577 44.7754 57.7069 44.7708 58.5117C44.768 59.0456 45.1984 59.4808 45.7324 59.4838H45.7378C46.2691 59.4838 46.7016 59.0544 46.7044 58.5223C46.712 57.1359 46.8284 55.9405 47.0575 54.878C47.0758 54.8639 47.0937 54.8496 47.1119 54.8356C48.4118 55.6229 49.7385 56.008 51.1478 56.008C52.2719 56.008 53.4497 55.752 54.6489 55.2468C58.3889 53.6714 59.2538 50.1472 59.8855 47.5738C60.2939 45.9093 60.6465 44.4719 61.5123 43.9175C62.7859 43.1021 63.1584 41.4028 62.3431 40.1293ZM9.47386 44.9192C8.60026 45.1044 7.7063 44.9381 6.95748 44.451C6.20854 43.964 5.6942 43.2144 5.50909 42.3405L5.17136 40.746C5.10265 40.4213 5.31083 40.1012 5.63542 40.0325L10.1903 39.0676C10.2322 39.0587 10.274 39.0545 10.3152 39.0545C10.5934 39.0545 10.8441 39.2489 10.9039 39.5317L11.1709 40.7919C11.4124 41.9322 12.5364 42.6635 13.677 42.422L15.1386 42.1124C15.1388 42.1124 15.1388 42.1124 15.1388 42.1124C16.077 41.9136 16.924 41.4427 17.588 40.7506L18.7295 39.5607C18.7426 39.5469 18.7733 39.5152 18.8341 39.5323C18.895 39.5497 18.9041 39.593 18.9079 39.6111L18.9327 39.7289C19.0999 40.5179 18.9015 41.3402 18.402 41.9658C18.3991 41.9697 18.396 41.9734 18.3931 41.9774C18.3569 42.0223 18.3193 42.0664 18.28 42.1092C17.573 42.8771 16.6597 43.3972 15.6387 43.6134L9.47386 44.9192ZM21.3744 47.7935L21.3178 47.7937C19.0548 47.7937 16.9878 47.0269 15.4538 45.6288L16.0393 45.5048C17.3177 45.234 18.4736 44.6187 19.4079 43.7182C19.9881 43.9322 20.6344 44.0457 21.3173 44.0457H21.3536C22.282 44.0404 23.2361 43.8404 24.1203 43.4827C24.0789 43.8952 24.057 44.3111 24.057 44.7305C24.057 45.6287 24.1542 46.506 24.3389 47.3541C23.3529 47.6361 22.3427 47.7881 21.3744 47.7935ZM59.037 18.3232C57.8396 16.2791 56.2096 14.4097 54.1985 12.8074C56.2907 11.1503 58.5681 10.3219 60.3939 9.91018C60.748 11.9415 60.8182 15.0909 59.037 18.3232ZM58.6366 7.24608C59.159 7.30757 59.6119 7.60843 59.8757 8.0453C57.9521 8.48925 55.5924 9.34893 53.3697 11.0055L52.8301 8.99095C52.7387 8.64974 52.6326 8.31536 52.5136 7.98793C54.9177 7.07786 57.1357 7.06935 58.6366 7.24608ZM24.7459 11.5269L25.2912 9.49137C26.4828 5.04139 30.5326 1.93359 35.1394 1.93359H41.1142C45.7209 1.93359 49.7707 5.04139 50.9623 9.49137L51.5076 11.5269C51.7225 12.329 51.5557 13.1669 51.0503 13.8255C50.5447 14.4842 49.7786 14.862 48.9482 14.862H27.3053C26.475 14.862 25.7088 14.4842 25.2033 13.8255C24.6978 13.1669 24.531 12.329 24.7459 11.5269ZM42.2377 16.7956L42.0411 17.2199C41.3142 18.7881 39.7278 19.8014 37.9994 19.8014H33.0574C31.329 19.8014 29.7424 18.7882 29.0157 17.2199L28.8189 16.7956H42.2377ZM17.6167 7.24608C19.1177 7.06896 21.3358 7.0776 23.7397 7.98806C23.6207 8.31548 23.5146 8.64987 23.4233 8.99108L22.8837 11.0055C20.6611 9.34893 18.3014 8.48925 16.3778 8.0453C16.6416 7.60843 17.0945 7.3077 17.6167 7.24608ZM15.8596 9.91018C17.6853 10.3219 19.9628 11.1503 22.055 12.8074C20.0439 14.4097 18.4139 16.2791 17.2165 18.3232C15.4351 15.0911 15.5055 11.9415 15.8596 9.91018ZM34.3538 64.0596C34.3002 64.0641 34.2455 64.0664 34.1915 64.0664C33.2282 64.0664 32.4094 63.3131 32.3274 62.3513C32.1437 60.1959 32.1102 58.32 32.2254 56.6591C33.3817 57.1603 34.6224 57.519 35.9219 57.7109C35.8767 58.9776 35.9228 60.4013 36.0619 62.0333C36.1497 63.0627 35.3835 63.9718 34.3538 64.0596ZM38.1268 55.9391C31.435 55.9391 25.9909 50.911 25.9909 44.7305C25.9909 43.751 26.1255 42.792 26.3914 41.8629C26.3967 41.8462 26.4016 41.8293 26.406 41.8122C26.4904 41.5229 26.5878 41.2366 26.6978 40.9535C27.0119 41.0507 27.3296 41.1451 27.6552 41.2336C27.74 41.2567 27.8253 41.2678 27.9094 41.2678C28.3349 41.2678 28.7247 40.9847 28.8416 40.5543C28.9818 40.0391 28.6775 39.5078 28.1622 39.3677C22.9725 37.9572 16.7863 34.6432 16.7863 26.8655C16.7863 22.1284 19.1235 17.6243 23.2414 14.3344C23.3634 14.5663 23.5061 14.7899 23.6694 15.0026C24.4123 15.9707 25.4813 16.5862 26.6667 16.7499L27.2614 18.033C28.3037 20.2819 30.5787 21.7349 33.0574 21.7349H37.9994C40.478 21.7349 42.7529 20.2819 43.7954 18.0328L44.3689 16.7955H48.9483C50.3846 16.7955 51.7099 16.142 52.5842 15.0026C52.7476 14.7898 52.8903 14.5663 53.0122 14.3342C57.13 17.6242 59.4672 22.1283 59.4672 26.8654C59.4672 30.9913 57.7224 34.2782 54.2813 36.6352C51.1701 38.766 46.7059 40.0835 41.3516 40.4557C40.4803 39.5751 40.021 38.436 40.021 37.7961C40.021 35.6966 38.313 33.9885 36.2135 33.9885C34.114 33.9885 32.4059 35.6966 32.4059 37.7961C32.4059 38.6063 32.5188 39.4301 32.7298 40.2453C32.6232 40.2322 32.5146 40.2207 32.4091 40.2068C31.8818 40.1372 31.394 40.5092 31.324 41.0386C31.254 41.5679 31.6265 42.0539 32.1558 42.1237C32.5852 42.1804 33.0246 42.2308 33.4673 42.2749C34.4216 44.3034 35.9647 46.1447 37.8749 47.4048C39.7095 48.6149 41.7232 49.2285 43.8601 49.2285C45.4232 49.2285 46.9999 48.8929 48.5462 48.2307C49.1101 47.9892 49.594 47.6256 49.9719 47.1727C48.7615 52.1825 43.9106 55.9391 38.1268 55.9391ZM48.4288 41.2744C48.811 41.1727 49.187 41.0655 49.5549 40.9516C50.0043 42.1077 50.2407 43.3183 50.2603 44.5624C50.1913 44.5255 50.1175 44.4956 50.0381 44.4757C49.5197 44.3465 48.9954 44.6624 48.8665 45.1806C48.7234 45.7562 48.329 46.2201 47.7848 46.453C46.4803 47.0116 45.1598 47.2948 43.8599 47.2948C42.108 47.2948 40.4526 46.7887 38.9394 45.7905C37.1988 44.6423 35.8202 42.9345 35.0416 41.0837C35.0239 41.0254 35.0006 40.9694 34.9727 40.9161C34.5642 39.8926 34.3392 38.8295 34.3392 37.7962C34.3392 36.7629 35.18 35.9222 36.2133 35.9222C37.2466 35.9222 38.0872 36.7629 38.0872 37.7962C38.0872 39.06 38.8908 40.9218 40.3907 42.199C40.3971 42.2042 40.4031 42.2094 40.4096 42.2143C40.5972 42.3729 40.7938 42.524 41.003 42.6619C42.5774 43.7003 44.4122 43.8199 46.3093 43.0078C46.6975 42.8417 47.1177 42.8105 47.5247 42.9183C48.042 43.0551 48.5701 42.7471 48.7066 42.2311C48.8015 41.8733 48.6825 41.5096 48.4288 41.2744ZM60.4698 42.2891C58.953 43.2603 58.4938 45.1318 58.0076 47.1133C57.4146 49.5289 56.7426 52.2668 53.8984 53.4649C52.9381 53.8694 52.0127 54.0744 51.1478 54.0744C50.2849 54.0744 49.4534 53.8731 48.6296 53.4646C49.0192 53.0564 49.3819 52.6253 49.7153 52.1739C50.815 52.5913 51.9652 52.524 53.2704 51.9742C55.3656 51.0917 55.8859 48.9719 56.4369 46.727C56.9774 44.5243 57.5364 42.2466 59.5974 40.9271C59.9733 40.6864 60.4743 40.7965 60.7147 41.1719C60.9553 41.5475 60.8453 42.0486 60.4698 42.2891ZM28.1308 20.9478L25.9843 20.6392C25.456 20.5638 24.9657 20.93 24.8898 21.4586C24.8138 21.9872 25.1807 22.4771 25.7091 22.5532L25.9568 22.5888C25.955 22.6126 25.9532 22.6365 25.9532 22.6607V24.0869C25.9532 24.6208 26.386 25.0537 26.92 25.0537C27.4541 25.0537 27.8868 24.6208 27.8868 24.0869V22.8638C27.9229 22.8678 27.959 22.8716 27.9946 22.8716C28.4676 22.8716 28.8811 22.524 28.9503 22.0422C29.0261 21.5139 28.6594 21.0238 28.1308 20.9478ZM51.4424 30.9287C50.5155 30.2445 48.1287 29.0457 46.8639 28.7099C46.3471 28.573 45.8183 28.8802 45.6813 29.3963C45.5443 29.9123 45.8516 30.4417 46.3676 30.5788C47.3615 30.8426 49.5562 31.9399 50.2941 32.4845C50.467 32.612 50.6679 32.6735 50.8675 32.6735C51.1639 32.6735 51.4564 32.5376 51.6461 32.2808C51.9632 31.8511 51.872 31.2458 51.4424 30.9287ZM24.1609 28.7097C22.8958 29.0457 20.509 30.2446 19.5824 30.9287C19.1528 31.2458 19.0616 31.8512 19.3788 32.2807C19.5684 32.5375 19.8609 32.6734 20.1574 32.6734C20.3568 32.6734 20.558 32.6119 20.7307 32.4842C21.4685 31.9397 23.6632 30.8425 24.6572 30.5786C25.1732 30.4416 25.4805 29.9122 25.3435 29.3962C25.2065 28.8802 24.6772 28.5728 24.1609 28.7097ZM47.5623 27.5928C48.5821 27.4579 51.0292 27.6362 51.9187 27.8587C51.9975 27.8784 52.0763 27.8878 52.1539 27.8878C52.5871 27.8877 52.9813 27.5946 53.0912 27.1553C53.2206 26.6372 52.9057 26.1123 52.3878 25.9829C51.2703 25.7034 48.6067 25.5044 47.3091 25.6758C46.7797 25.7458 46.4074 26.2316 46.4773 26.7609C46.5472 27.2904 47.0347 27.6624 47.5623 27.5928ZM23.4623 27.5928C23.99 27.6621 24.4774 27.2904 24.5474 26.7609C24.6174 26.2316 24.2448 25.7458 23.7156 25.6758C22.4182 25.5045 19.7544 25.7034 18.637 25.9829C18.119 26.1123 17.8042 26.6373 17.9336 27.1553C18.0435 27.5946 18.4376 27.8878 18.8709 27.8878C18.9486 27.8878 19.0275 27.8784 19.1061 27.8587C19.9957 27.6363 22.4427 27.4579 23.4623 27.5928ZM32.4201 26.2182C32.8843 26.4819 33.4744 26.3198 33.7384 25.8556C33.9064 25.5604 34.1947 25.3816 34.5508 25.3522C36.1091 25.2239 37.314 26.21 37.5396 26.409C37.7234 26.5712 37.9516 26.6509 38.1788 26.6509C38.4466 26.6509 38.7132 26.5402 38.9042 26.3237C39.2574 25.9233 39.2192 25.3124 38.8189 24.9591C38.357 24.5516 36.6728 23.2375 34.3913 23.4252C33.3941 23.5077 32.5434 24.0453 32.0575 24.8999C31.7936 25.3641 31.956 25.9542 32.4201 26.2182Z" fill="#151515"/>
</svg>
