<svg width="68" height="68" viewBox="0 0 68 68" fill="none" xmlns="http://www.w3.org/2000/svg">
<g clip-path="url(#clip0_20_629)">
<path d="M49.4566 55.9397C45.6115 55.9397 43.4684 53.2385 41.3858 50.6134C41.089 50.2391 40.7822 49.8523 40.4646 49.4639C39.7688 48.612 39.8953 47.3573 40.747 46.6615C41.5988 45.9657 42.8535 46.0919 43.5493 46.9439C43.8847 47.3545 44.2006 47.7527 44.5061 48.1377C47.0376 51.3286 48.0493 52.4013 50.7148 51.8022C51.5567 51.6128 51.8619 50.9797 52.4747 48.8999C53.1493 46.6107 54.1685 43.1514 58.4442 42.278C59.5218 42.0577 60.574 42.7531 60.7941 43.8309C61.0142 44.9085 60.319 45.9605 59.2413 46.1807C57.4865 46.5391 57.0178 47.5735 56.2953 50.0258C55.6821 52.107 54.8424 54.957 51.5882 55.6885C50.8225 55.8606 50.1145 55.9397 49.4566 55.9397Z" fill="#EDA751"/>
<path d="M58.4444 42.278C57.7502 42.4199 57.1431 42.6307 56.6082 42.8927C56.6955 43.8002 57.0504 45.458 58.2784 46.5104C58.5509 46.365 58.8666 46.2572 59.2414 46.1806C60.3191 45.9604 61.0143 44.9084 60.7943 43.8308C60.5742 42.7531 59.5219 42.0577 58.4444 42.278Z" fill="#FCD79D"/>
<path d="M28.1039 67.004C26.7913 67.004 25.5621 66.1866 25.0996 64.8787C23.1161 59.2683 25.236 53.8223 28.2165 50.9139C29.4763 49.6849 31.4937 49.7095 32.7226 50.9691C33.9518 52.2288 33.9269 54.2461 32.6673 55.4753C31.8127 56.3094 29.8666 59.2427 31.108 62.7544C31.6946 64.4136 30.8251 66.2343 29.1657 66.8209C28.815 66.945 28.4564 67.004 28.1039 67.004Z" fill="#EDA751"/>
<path d="M37.3035 67.004C35.9909 67.004 34.7616 66.1867 34.2991 64.8786C32.3157 59.2685 34.4355 53.8225 37.4161 50.914C38.6757 49.6848 40.693 49.7095 41.9222 50.9693C43.1512 52.2289 43.1265 54.2461 41.8669 55.4755C41.0123 56.3095 39.0662 59.2428 40.3076 62.7545C40.8942 64.4137 40.0246 66.2343 38.3653 66.821C38.0143 66.945 37.6558 67.004 37.3035 67.004Z" fill="#EDA751"/>
<path d="M19.0838 46.2153C15.7762 46.2153 11.6331 45.4792 8.60009 42.4465C7.35563 41.202 7.35563 39.1845 8.60009 37.94C9.84441 36.6955 11.8621 36.6954 13.1065 37.9399C14.1648 38.9982 17.5582 40.671 22.828 39.4292C24.5412 39.0265 26.2568 40.0869 26.6606 41.7998C27.0643 43.5128 26.0032 45.2287 24.29 45.6325C23.567 45.8029 21.5591 46.2153 19.0838 46.2153Z" fill="#EDA751"/>
<path opacity="0.2" d="M44.5062 48.1378C44.2007 47.7526 43.8848 47.3544 43.5494 46.9439C42.8535 46.0919 41.5988 45.9656 40.7471 46.6615C39.8952 47.3576 39.7688 48.6122 40.4647 49.4639C40.7823 49.8524 41.0891 50.2392 41.3859 50.6135C43.0523 52.7138 44.7581 54.8611 47.3424 55.6366C48.5066 54.5298 49.5031 53.267 50.2928 51.8848C47.9352 52.2767 46.8995 51.1541 44.5062 48.1378Z" fill="#A35F00"/>
<path opacity="0.2" d="M37.4163 50.9137C35.2435 53.0339 33.5304 56.5027 33.5283 60.4001C34.0338 60.4421 34.545 60.4648 35.0619 60.4648C36.7539 60.4648 38.3894 60.234 39.9359 59.8058C40.1323 57.6792 41.2678 56.0601 41.8674 55.475C43.1269 54.2459 43.1516 52.2284 41.9226 50.969C40.6933 49.7094 38.6759 49.6845 37.4163 50.9137Z" fill="#A35F00"/>
<path opacity="0.2" d="M28.2167 50.9138C26.6578 52.435 25.3359 54.6508 24.7118 57.2206C26.4839 58.4707 28.5187 59.4084 30.7235 59.9462C30.8813 57.7504 32.055 56.0731 32.6678 55.4751C33.9274 54.246 33.9522 52.2287 32.723 50.969C31.4939 49.7096 29.4763 49.685 28.2167 50.9138Z" fill="#A35F00"/>
<path opacity="0.2" d="M22.8282 39.4291C21.1703 39.8199 19.6986 39.9217 18.4264 39.8454C18.0097 41.2404 17.786 42.7107 17.786 44.2292C17.786 44.8905 17.8293 45.5422 17.9115 46.183C18.3113 46.2048 18.7033 46.2152 19.084 46.2152C21.5593 46.2152 23.5672 45.8027 24.2905 45.6323C26.0035 45.2285 27.0647 43.5124 26.6611 41.7996C26.2571 40.0868 24.5413 39.0264 22.8282 39.4291Z" fill="#A35F00"/>
<path d="M35.0616 57.8862C43.1791 57.8862 49.7596 51.7719 49.7596 44.2295C49.7596 36.6871 43.1791 30.5728 35.0616 30.5728C26.9441 30.5728 20.3636 36.6871 20.3636 44.2295C20.3636 51.7719 26.9441 57.8862 35.0616 57.8862Z" fill="#FCD690"/>
<path opacity="0.15" d="M32.9154 57.7411C26.1991 53.3316 28.2807 44.2941 29.4207 40.3417V31.615C24.1033 33.6707 20.3643 38.544 20.3643 44.2293C20.3643 51.0943 25.8157 56.7757 32.9154 57.7411Z" fill="#C17A00"/>
<path d="M26.1174 20.5477C28.9934 18.1344 30.9136 14.0833 26.8571 8.09482C22.7684 2.05889 16.6811 0.545891 11.9287 1.10583C10.757 1.24382 9.77394 2.06885 9.4346 3.19869C8.058 7.78165 8.49097 14.0392 13.7252 19.1139C18.9185 24.1485 23.2415 22.9609 26.1174 20.5477Z" fill="#EDA751"/>
<path d="M9.2433 3.8999C8.11466 8.40596 8.75283 14.293 13.7252 19.1137C18.2265 23.4778 22.0731 23.1659 24.8914 21.4343C22.9531 8.27687 14.4866 4.78789 9.2433 3.8999Z" fill="#FF91AB"/>
<path d="M44.0059 20.5477C41.13 18.1344 39.2098 14.0833 43.2663 8.09482C47.3551 2.05889 53.4424 0.545891 58.1947 1.10583C59.3664 1.24382 60.3495 2.06885 60.6888 3.19869C62.0654 7.78165 61.6324 14.0392 56.3983 19.1139C51.2049 24.1485 46.882 22.9609 44.0059 20.5477Z" fill="#EDA751"/>
<path d="M60.88 3.8999C62.0087 8.40596 61.3705 14.293 56.3981 19.1137C51.8969 23.4778 48.0501 23.1659 45.2319 21.4343C47.1702 8.27687 55.6369 4.78789 60.88 3.8999Z" fill="#FF91AB"/>
<path d="M60.0838 24.1902C60.0838 35.631 48.881 40.6421 35.0616 40.6421C21.2422 40.6421 10.0394 35.631 10.0394 24.1902C10.0394 12.7493 21.2423 3.47461 35.0616 3.47461C48.8808 3.47461 60.0838 12.7493 60.0838 24.1902Z" fill="#FFDC9C"/>
<path opacity="0.15" d="M21.701 6.6731C14.6932 10.3442 10.0394 16.8169 10.0394 24.1901C10.0394 34.025 18.3179 39.1084 29.4206 40.3419C13.4833 30.8219 15.5616 18.0165 21.701 6.6731Z" fill="#C17A00"/>
<path d="M30.7531 21.0649H26.9634V32.8368C26.9634 33.8833 27.8118 34.7317 28.8583 34.7317C29.9049 34.7317 30.7533 33.8833 30.7533 32.8368V21.0649H30.7531Z" fill="#7694E4"/>
<path d="M50.0294 21.0649H46.2397V32.8368C46.2397 33.8833 47.0882 34.7317 48.1347 34.7317C49.1813 34.7317 50.0297 33.8833 50.0297 32.8368V21.0649H50.0294Z" fill="#7694E4"/>
<path d="M28.8581 22.9594C30.3416 22.9594 31.5441 21.7568 31.5441 20.2734C31.5441 18.79 30.3416 17.5874 28.8581 17.5874C27.3747 17.5874 26.1721 18.79 26.1721 20.2734C26.1721 21.7568 27.3747 22.9594 28.8581 22.9594Z" fill="white"/>
<path d="M48.134 22.9594C49.6174 22.9594 50.82 21.7568 50.82 20.2734C50.82 18.79 49.6174 17.5874 48.134 17.5874C46.6506 17.5874 45.448 18.79 45.448 20.2734C45.448 21.7568 46.6506 22.9594 48.134 22.9594Z" fill="white"/>
<path d="M38.4963 28.1269C40.3139 28.1269 41.612 29.4925 42.144 26.7251C42.8035 23.294 41.156 20.2737 38.4963 20.2737C35.8366 20.2737 34.189 23.2938 34.8486 26.7251C35.3803 29.4925 36.6786 28.1269 38.4963 28.1269Z" fill="#FF91AB"/>
<path d="M42.0719 48.2178C40.0889 48.2178 38.0444 47.7091 36.19 46.7123C33.1732 45.0908 31.059 42.3848 30.3896 39.2883C30.0178 37.5679 31.1109 35.8722 32.8309 35.5003C34.5513 35.1286 36.2469 36.2215 36.6188 37.9417C36.8931 39.2115 37.8366 40.3622 39.207 41.0986C40.6678 41.8838 42.3543 42.0678 43.6087 41.579C45.2482 40.9399 47.0957 41.7513 47.7348 43.3911C48.3737 45.0309 47.5625 46.8781 45.9225 47.5171C44.7187 47.9864 43.4093 48.2178 42.0719 48.2178Z" fill="#EDA751"/>
<path d="M16.7422 18.3127C16.1921 18.3127 15.7461 17.8669 15.7461 17.3166V12.5266C15.7461 11.9764 16.1921 11.5305 16.7422 11.5305C17.2923 11.5305 17.7383 11.9764 17.7383 12.5266V17.3165C17.7383 17.8667 17.2923 18.3127 16.7422 18.3127Z" fill="#7694E4"/>
<path d="M19.7301 17.6751C19.18 17.6751 18.734 17.2293 18.734 16.679V11.4077C18.734 10.8575 19.18 10.4116 19.7301 10.4116C20.2802 10.4116 20.7262 10.8575 20.7262 11.4077V16.679C20.7262 17.2292 20.2802 17.6751 19.7301 17.6751Z" fill="#7694E4"/>
<path d="M22.7181 17.9939C22.168 17.9939 21.722 17.548 21.722 16.9978V10.7515C21.722 10.2012 22.168 9.75537 22.7181 9.75537C23.2682 9.75537 23.7142 10.2012 23.7142 10.7515V16.9979C23.7142 17.548 23.2682 17.9939 22.7181 17.9939Z" fill="#7694E4"/>
<path d="M20.7065 58.1808L21.042 56.5381C21.1363 56.0765 20.8943 55.6119 20.4619 55.4246L19.0048 54.7936L19.6433 53.8245C19.9001 53.4348 19.852 52.9195 19.5277 52.584L17.9224 50.9238C17.5399 50.5281 16.9093 50.5174 16.5139 50.9C16.1184 51.2824 16.1077 51.9129 16.4901 52.3083L17.5405 53.3949L16.6883 54.6881C16.5264 54.9338 16.4813 55.2387 16.5654 55.5208C16.6495 55.8029 16.854 56.0333 17.1242 56.1503L18.928 56.9314L18.6471 58.3065C18.5802 58.6341 18.682 58.9733 18.9183 59.2099L20.3573 60.6504C20.5519 60.8451 20.8069 60.9425 21.062 60.9425C21.3168 60.9425 21.5715 60.8454 21.7661 60.6511C22.1552 60.2623 22.1556 59.6316 21.7667 59.2425L20.7065 58.1808ZM6.83304 33.9862C6.77726 34.5334 7.17583 35.0224 7.72302 35.078C7.75742 35.0815 7.79142 35.0833 7.82529 35.0833C8.32997 35.0833 8.76281 34.701 8.81501 34.1881L9.03866 31.9927C9.09338 31.456 8.71075 30.9733 8.17578 30.904L7.34025 30.7956L7.8982 29.4739C8.07909 29.0452 7.93924 28.5483 7.56112 28.2771L6.18824 27.2924L6.99972 25.765C7.25778 25.2791 7.07317 24.6762 6.58734 24.418C6.10178 24.1602 5.49854 24.3444 5.24036 24.8302L4.02021 27.1268C3.78619 27.5672 3.91409 28.1128 4.3193 28.4035L5.75328 29.432L4.99545 31.2277C4.87446 31.5143 4.89438 31.841 5.04937 32.1109C5.20436 32.3807 5.4765 32.5627 5.78502 32.6027L6.95829 32.7547L6.83304 33.9862ZM46.7185 59.6716L47.2358 59.3571C47.7058 59.0713 47.8552 58.4583 47.5693 57.9883C47.2833 57.5184 46.6706 57.369 46.2007 57.6548L44.6365 58.606C44.3803 58.7618 44.2079 59.0248 44.1672 59.3219C44.1264 59.619 44.2218 59.9186 44.4266 60.1376L45.1958 60.9601L44.1672 61.6595C43.7319 61.9556 43.6021 62.5391 43.8707 62.9918L44.6272 64.266C44.8134 64.5794 45.1447 64.7537 45.4848 64.7537C45.6577 64.7537 45.8329 64.7086 45.9923 64.6139C46.4654 64.333 46.6211 63.722 46.3404 63.2489L46.0621 62.7803L47.2783 61.9533C47.519 61.7897 47.6759 61.529 47.7082 61.2398C47.7404 60.9506 47.6445 60.6617 47.4456 60.4492L46.7185 59.6716ZM60.49 41.7367C59.824 41.2967 59.0268 41.1421 58.245 41.3022C53.3825 42.2955 52.2161 46.2535 51.5193 48.6185C50.936 50.5981 50.7436 50.7747 50.4963 50.8304C49.861 50.9734 49.3959 50.9943 49.0155 50.9303C50.1267 48.9208 50.7551 46.6424 50.7551 44.2293C50.7551 42.5019 50.4384 40.8228 49.8144 39.2232C51.5155 38.5602 53.046 37.7666 54.3812 36.8491C58.7634 33.8381 61.0798 29.4607 61.0798 24.1902C61.0798 21.6539 60.5631 19.1857 59.5726 16.8684C62.3245 12.756 63.0819 7.70391 61.6426 2.91217C61.1882 1.39904 59.8805 0.301742 58.3113 0.116867C53.5366 -0.445594 48.8358 1.04762 45.3115 4.2221C42.1146 3.07991 38.643 2.47867 35.0618 2.47867C31.4807 2.47867 28.0089 3.07991 24.812 4.2221C21.2878 1.04735 16.588 -0.446789 11.8122 0.116734C10.2429 0.301476 8.9352 1.39877 8.48072 2.91217C7.04129 7.70378 7.79872 12.756 10.5506 16.8684C9.55995 19.1857 9.04344 21.6537 9.04344 24.1902C9.04344 30.8526 12.697 35.9483 19.444 38.8705C15.5776 38.9475 13.8301 37.2548 13.8109 37.2356C13.0209 36.4456 11.9705 36.0105 10.8533 36.0105C9.73593 36.0106 8.68565 36.4456 7.89594 37.2357C6.26514 38.8665 6.26514 41.5201 7.89594 43.1509C10.5523 45.8073 14.4212 47.2114 19.0839 47.2114C19.2836 47.2114 19.488 47.207 19.6931 47.2016C20.3653 50.2357 22.0458 52.9292 24.391 54.9632C23.066 58.2595 22.9795 61.8695 24.1607 65.2108C24.7508 66.8791 26.3355 67.9999 28.104 67.9999C28.5784 67.9999 29.0474 67.9191 29.4983 67.7597C31.6728 66.9909 32.8162 64.5965 32.0475 62.422C31.5239 60.9411 31.6746 59.6101 31.9912 58.6002C32.2034 58.6396 32.417 58.6755 32.6321 58.7068C32.3672 60.9057 32.61 63.0885 33.3601 65.2104C33.9499 66.8789 35.5346 68 37.3036 68C37.7778 68 38.2469 67.9192 38.6977 67.7599C39.8447 67.3544 40.7565 66.4717 41.1996 65.338C41.3999 64.8256 41.1469 64.2479 40.6345 64.0476C40.1221 63.8468 39.5444 64.1003 39.3441 64.6127C39.1118 65.2068 38.6342 65.6693 38.0336 65.8816C37.7967 65.9654 37.551 66.0078 37.3033 66.0078C36.3769 66.0078 35.547 65.4205 35.238 64.5463C34.5839 62.6964 34.3764 60.7931 34.6173 58.8764C34.7648 58.8803 34.9128 58.8827 35.0614 58.8827C36.4869 58.8827 37.8681 58.7032 39.1818 58.3691C38.9694 59.1676 38.8512 60.0844 38.9361 61.0927C38.9799 61.6124 39.4153 62.0051 39.9275 62.0051C39.9554 62.0051 39.9838 62.0039 40.0123 62.0016C40.5604 61.9554 40.9674 61.4737 40.9212 60.9255C40.8036 59.5288 41.2081 58.3504 41.6261 57.5373C42.8183 57.0225 43.93 56.3723 44.9383 55.6075C46.3307 56.4996 47.8155 56.9358 49.4562 56.9358C50.203 56.9358 50.9939 56.8431 51.8065 56.6603C55.6322 55.8004 56.6063 52.4948 57.2508 50.3074C57.9716 47.861 58.2991 47.3898 59.4406 47.1567C60.2225 46.9969 60.8954 46.5423 61.3353 45.8765C61.7753 45.2107 61.9296 44.4134 61.7699 43.6316C61.6105 42.8497 61.1559 42.1767 60.49 41.7367ZM58.5249 14.7756C57.255 12.5744 55.5309 10.5469 53.3903 8.77478C53.2449 8.65445 53.0979 8.53585 52.9497 8.41871C55.3666 6.47712 58.0125 5.52712 60.11 5.06453C60.5279 7.37905 60.6341 11.0355 58.5249 14.7756ZM58.0782 2.09511C58.7328 2.17227 59.2948 2.56925 59.5927 3.13915C57.1564 3.6874 54.0675 4.83224 51.2859 7.21078C50.0627 6.39425 48.7638 5.6768 47.403 5.064C50.4003 2.71455 54.2104 1.63983 58.0782 2.09511ZM12.0453 2.09511C15.913 1.63996 19.723 2.71481 22.7206 5.064C21.3597 5.67693 20.0609 6.39425 18.8377 7.21078C16.0561 4.83211 12.9673 3.68727 10.5309 3.13902C10.8287 2.56925 11.3906 2.17214 12.0453 2.09511ZM10.0134 5.06466C12.1109 5.52725 14.7568 6.47739 17.1737 8.41884C17.0255 8.53598 16.8784 8.65445 16.7332 8.77478C14.5926 10.5469 12.8684 12.5744 11.5986 14.7756C9.48943 11.0355 9.59554 7.37905 10.0134 5.06466ZM19.3683 44.2293C19.3683 44.5603 19.3813 44.8885 19.4045 45.214C19.2976 45.2156 19.1889 45.2192 19.0839 45.2192C16.2091 45.2192 12.1785 44.616 9.30468 41.742C8.45057 40.8879 8.45057 39.4983 9.30468 38.6443C9.7184 38.2306 10.2684 38.0027 10.8535 38.0027C11.4387 38.0027 11.9888 38.2306 12.4025 38.6443C13.1013 39.343 14.2634 39.9695 15.5907 40.3629C16.8892 40.7478 18.2953 40.9118 19.7866 40.8538C19.5089 41.9513 19.3683 43.0797 19.3683 44.2293ZM30.0804 64.7604C29.8282 65.2885 29.3855 65.6868 28.8341 65.8816C28.5972 65.9654 28.3515 66.0078 28.1038 66.0078C27.1775 66.0078 26.3476 65.4205 26.0385 64.5466C25.0808 61.8376 25.0906 58.9217 26.0464 56.2167C27.2664 57.0191 28.6134 57.6637 30.0538 58.1177C29.6583 59.4385 29.4891 61.1633 30.1689 63.0862C30.3641 63.6378 30.3326 64.2324 30.0804 64.7604ZM35.0617 56.8905C27.5068 56.8905 21.3603 51.2106 21.3603 44.2293C21.3603 42.8043 21.6126 41.4173 22.1095 40.092C22.1111 40.0878 22.1126 40.0836 22.114 40.0796C22.1384 40.0149 22.1637 39.9505 22.1892 39.886C22.757 40.0635 23.3418 40.2282 23.9437 40.38C24.4771 40.5144 25.0187 40.191 25.1531 39.6577C25.2875 39.1242 24.9641 38.5828 24.4306 38.4484C23.5782 38.2335 22.778 37.9966 22.0264 37.7401C21.9816 37.7213 21.9365 37.7049 21.8907 37.693C12.9966 34.6058 11.0356 28.7494 11.0356 24.1905C11.0356 13.3171 21.8138 4.47099 35.0617 4.47099C48.3097 4.47099 59.0879 13.317 59.0879 24.1905C59.0879 28.8409 57.1248 32.5474 53.2534 35.2075C49.7502 37.6146 44.7189 39.103 38.6851 39.5223C38.1177 39.0044 37.7336 38.3851 37.5924 37.7316C37.1053 35.4775 34.8752 34.0404 32.6206 34.527C30.4217 35.0025 29.001 37.136 29.3845 39.3325C29.2194 39.3137 29.0527 39.2962 28.8899 39.2757C28.3432 39.2066 27.8458 39.5937 27.777 40.1395C27.7082 40.6852 28.095 41.1834 28.6407 41.2523C29.0895 41.3089 29.5486 41.3571 30.0099 41.4015C31.0699 43.9741 33.0755 46.1697 35.7184 47.5902C37.6952 48.6527 39.8922 49.2143 42.0719 49.2143C43.5588 49.2143 44.9761 48.9557 46.2846 48.4456C47.3144 48.0443 48.1429 47.2491 48.5892 46.2437C47.5419 52.2709 41.8751 56.8905 35.0617 56.8905ZM47.0314 41.0319C46.6306 40.7741 46.1926 40.5915 45.7389 40.4832C46.4934 40.3029 47.2254 40.1025 47.9325 39.8815C48.4834 41.27 48.7633 42.7286 48.7633 44.2292C48.7633 44.623 48.7427 45.0124 48.7044 45.3972C48.6205 45.1052 48.4056 44.8549 48.0995 44.7395C47.5846 44.5452 47.01 44.8052 46.8158 45.32C46.5967 45.9011 46.1394 46.3635 45.561 46.5889C44.4841 47.0088 43.31 47.2217 42.0718 47.2217C40.2201 47.2217 38.3493 46.7423 36.6614 45.835C34.2615 44.5453 32.4887 42.5143 31.6675 40.1578C31.6669 40.156 31.6662 40.1543 31.6655 40.1524C31.5433 39.801 31.4417 39.4425 31.363 39.0779C31.1078 37.8972 31.8608 36.7292 33.0413 36.4742C34.2222 36.2189 35.3901 36.9718 35.6451 38.1524C35.9066 39.3626 36.6483 40.4738 37.7308 41.32C37.7384 41.3261 37.7459 41.3319 37.7537 41.3377C38.0561 41.572 38.3832 41.7871 38.7355 41.9764C40.4459 42.8955 42.4518 43.0991 43.9706 42.5074C44.6227 42.2531 45.3638 42.328 45.9535 42.7076C46.4161 43.0049 47.0325 42.8716 47.3301 42.4087C47.6277 41.9458 47.494 41.3294 47.0314 41.0319ZM59.6736 44.7783C59.5269 45.0001 59.3027 45.1516 59.0423 45.2047C56.6956 45.6839 56.0783 47.2395 55.3403 49.7443C54.7369 51.7924 54.0529 54.1135 51.37 54.7166C50.7003 54.8672 50.0566 54.9436 49.4567 54.9436C48.3929 54.9436 47.4386 54.7124 46.5229 54.228C47.0115 53.74 47.4652 53.2214 47.8795 52.6749C48.7655 53.0202 49.7262 53.0454 50.9337 52.774C52.3998 52.4442 52.8376 51.1939 53.4304 49.1815C54.0738 46.998 54.955 44.0074 58.644 43.2538C58.9043 43.201 59.1699 43.252 59.3919 43.3987C59.6138 43.5454 59.7653 43.7697 59.8185 44.0303C59.8715 44.2907 59.8201 44.5565 59.6736 44.7783ZM63.9768 30.498C63.716 30.0138 63.1118 29.8327 62.6274 30.0933L60.886 31.0314C60.5348 31.2205 60.3305 31.6009 60.3663 31.998L60.4764 33.2168L59.2312 33.4907C58.7744 33.5912 58.449 33.9959 58.449 34.4635V36.5981C58.449 37.1483 58.895 37.5942 59.4451 37.5942C59.9952 37.5942 60.4412 37.1483 60.4412 36.5981V35.2642L61.7614 34.974C62.2513 34.8662 62.5847 34.4112 62.5395 33.9115L62.4096 32.4737L63.5723 31.8475C64.0565 31.5863 64.2377 30.9822 63.9768 30.498ZM25.7859 26.3443C24.3749 26.7189 21.7134 28.0562 20.6799 28.819C20.2373 29.1458 20.1434 29.7694 20.4702 30.2119C20.6656 30.4765 20.9669 30.6165 21.2723 30.6165C21.4777 30.6165 21.6851 30.5531 21.8632 30.4218C22.7148 29.793 25.1517 28.5738 26.2974 28.2697C26.829 28.1285 27.1457 27.5829 27.0043 27.0512C26.8632 26.5197 26.3176 26.2038 25.7859 26.3443ZM24.9912 24.9183C25.5365 24.9904 26.0371 24.6067 26.1092 24.0612C26.1812 23.5159 25.7975 23.0153 25.2521 22.9432C23.8054 22.7524 20.8349 22.9742 19.5885 23.2856C19.0547 23.4191 18.7303 23.9599 18.8637 24.4937C18.9769 24.9462 19.383 25.2484 19.8293 25.2484C19.9092 25.2484 19.9905 25.2388 20.0717 25.2184C21.0988 24.9616 23.8163 24.7627 24.9912 24.9183ZM56.3126 28.819C55.2792 28.0561 52.6175 26.7188 51.2066 26.3443C50.6744 26.2038 50.1294 26.5197 49.9882 27.0514C49.847 27.583 50.1635 28.1285 50.6952 28.2698C51.8408 28.5739 54.2778 29.7932 55.1294 30.4219C55.3074 30.5532 55.5147 30.6166 55.7203 30.6166C56.0256 30.6166 56.3271 30.4766 56.5224 30.212C56.8492 29.7694 56.7553 29.1458 56.3126 28.819ZM48.1345 23.9558C50.165 23.9558 51.8166 22.3039 51.8166 20.2736C51.8166 18.2432 50.1647 16.5915 48.1345 16.5915C46.1041 16.5915 44.4524 18.2432 44.4524 20.2736C44.4523 22.3039 46.1041 23.9558 48.1345 23.9558ZM48.1345 18.5836C49.0665 18.5836 49.8246 19.3417 49.8246 20.2737C49.8246 21.2056 49.0665 21.9639 48.1345 21.9639C47.2026 21.9639 46.4445 21.2056 46.4445 20.2737C46.4445 19.3417 47.2026 18.5836 48.1345 18.5836ZM35.0553 29.1355C35.8114 29.6323 36.6282 29.4514 37.3487 29.2918C37.7234 29.2088 38.1108 29.123 38.4962 29.123C38.8815 29.123 39.2689 29.2088 39.6436 29.2918C40.0107 29.3731 40.4025 29.4599 40.7986 29.4599C41.1803 29.4599 41.566 29.3794 41.937 29.1356C42.7146 28.6244 42.9858 27.6223 43.1222 26.9132C43.5611 24.6293 43.0971 22.3866 41.8805 20.9141C41.0088 19.8588 39.8068 19.2776 38.4962 19.2776C37.1855 19.2776 35.9835 19.8588 35.1117 20.9141C33.8953 22.3866 33.4313 24.6293 33.8702 26.9132C34.0066 27.6222 34.2777 28.6243 35.0553 29.1355ZM36.6476 22.1827C36.9917 21.7661 37.5919 21.2695 38.4962 21.2695C39.4005 21.2695 40.0007 21.7661 40.3448 22.1827C41.1745 23.1871 41.4891 24.8553 41.1659 26.5369C41.0339 27.224 40.8831 27.4252 40.8474 27.465C40.7175 27.4885 40.3325 27.4037 40.0747 27.3466C39.6403 27.2503 39.0997 27.1305 38.4963 27.1305C37.8928 27.1305 37.3523 27.2503 36.918 27.3466C36.6601 27.4037 36.2751 27.4881 36.1452 27.465C36.1093 27.4252 35.9587 27.224 35.8267 26.5369C35.5033 24.8556 35.8179 23.1871 36.6476 22.1827ZM50.8834 24.0612C50.9556 24.6066 51.4566 24.99 52.0014 24.9183C53.176 24.7626 55.8938 24.9616 56.921 25.2184C57.0022 25.2386 57.0833 25.2484 57.1634 25.2484C57.6097 25.2484 58.0158 24.9463 58.1289 24.4937C58.2624 23.9599 57.9378 23.4191 57.4042 23.2856C56.1577 22.974 53.1871 22.7522 51.7404 22.9432C51.1949 23.0153 50.8112 23.5158 50.8834 24.0612ZM28.8581 23.9558C30.8886 23.9558 32.5402 22.3039 32.5402 20.2736C32.5402 18.2432 30.8883 16.5915 28.8581 16.5915C26.828 16.5915 25.176 18.2432 25.176 20.2736C25.1759 22.3039 26.8278 23.9558 28.8581 23.9558ZM28.8581 18.5836C29.7901 18.5836 30.5482 19.3417 30.5482 20.2737C30.5482 21.2056 29.7901 21.9639 28.8581 21.9639C27.9262 21.9639 27.1681 21.2056 27.1681 20.2737C27.1681 19.3417 27.9263 18.5836 28.8581 18.5836Z" fill="#151515"/>
</g>
<defs>
<clipPath id="clip0_20_629">
<rect width="68" height="68" fill="white"/>
</clipPath>
</defs>
</svg>
