<svg width="66" height="66" viewBox="0 0 66 66" fill="none" xmlns="http://www.w3.org/2000/svg">
<path d="M46.8395 54.799C42.0829 54.799 39.3878 51.4734 36.9916 48.5164C36.833 48.3208 36.6741 48.1247 36.5141 47.9289C35.882 47.1549 35.9967 46.015 36.7708 45.3826C37.545 44.7502 38.6846 44.8653 39.3171 45.6391C39.4799 45.8386 39.6419 46.0384 39.8034 46.2378C42.4364 49.4868 44.2199 51.4623 47.5238 51.1461C49.7802 50.9303 50.9883 50.1092 52.2674 49.2399C53.596 48.3367 55.1021 47.3131 57.4769 47.3131C58.4763 47.3131 59.2865 48.1233 59.2865 49.1227C59.2865 50.1221 58.4763 50.9323 57.4769 50.9323C56.2158 50.9323 55.4544 51.4497 54.3021 52.233C52.8523 53.2185 51.048 54.4449 47.8685 54.7489C47.5149 54.7828 47.1722 54.799 46.8395 54.799Z" fill="#EDA751"/>
<path d="M57.4768 47.3132C56.4703 47.3132 55.621 47.4982 54.874 47.7788C54.8053 48.705 54.9278 50.0215 55.8068 51.3094C56.3121 51.0701 56.8284 50.9324 57.4768 50.9324C58.4762 50.9324 59.2863 50.1222 59.2863 49.1228C59.2863 48.1233 58.4762 47.3132 57.4768 47.3132Z" fill="#FCD79D"/>
<path d="M36.7276 65.0329C35.2084 65.0329 33.9333 63.8492 33.8402 62.3125C33.5099 56.8554 33.8881 53.1191 34.0698 51.3234C34.2308 49.7326 35.6519 48.5737 37.2419 48.7344C38.833 48.8954 39.9921 50.3156 39.831 51.9066C39.6517 53.6771 39.3182 56.9727 39.6204 61.9625C39.7169 63.5586 38.5013 64.9308 36.9052 65.0275C36.8458 65.0311 36.7864 65.0329 36.7276 65.0329Z" fill="#EDA751"/>
<path d="M26.4302 65.0328C24.9111 65.0328 23.6359 63.849 23.5429 62.3124C23.2124 56.8555 23.5908 53.1191 23.7725 51.3232C23.9335 49.7324 25.353 48.5735 26.9447 48.7341C28.5357 48.8951 29.6947 50.3154 29.5337 51.9063C29.3546 53.677 29.0209 56.973 29.3231 61.9623C29.4197 63.5584 28.2042 64.9307 26.608 65.0272C26.5484 65.031 26.4891 65.0328 26.4302 65.0328Z" fill="#EDA751"/>
<path d="M17.0871 44.0966C14.0816 44.0966 10.3168 43.4279 7.56135 40.6722C6.43072 39.5415 6.43072 37.7083 7.56135 36.5776C8.69211 35.4468 10.5254 35.4468 11.656 36.5776C12.6177 37.5391 15.7015 39.0594 20.4893 37.9308C22.0456 37.5643 23.6048 38.5284 23.9715 40.0848C24.3383 41.6412 23.3741 43.2002 21.8175 43.5671C21.1604 43.722 19.3364 44.0966 17.0871 44.0966Z" fill="#495059"/>
<path d="M11.656 36.5776C10.5255 35.4468 8.69211 35.4468 7.56135 36.5776C6.43072 37.7082 6.43072 39.5415 7.56135 40.6722C8.45982 41.5708 9.46593 42.2463 10.5178 42.7502C12.106 41.1186 12.8784 39.1805 13.2539 37.582C12.5071 37.2615 11.9688 36.8902 11.656 36.5776Z" fill="#EDA751"/>
<path opacity="0.15" d="M20.4893 37.9308C19.1122 38.2554 17.8769 38.36 16.7915 38.3228C16.3615 39.9417 16.1496 41.9877 16.0454 44.0687C16.4004 44.0877 16.7487 44.0967 17.0871 44.0967C19.3362 44.0967 21.1605 43.7221 21.8177 43.5672C23.3741 43.2003 24.3384 41.6412 23.9717 40.0849C23.6047 38.5284 22.0454 37.5643 20.4893 37.9308Z" fill="#151515"/>
<path d="M46.123 44.0966C49.1284 44.0966 52.8932 43.4279 55.6487 40.6722C56.7795 39.5415 56.7795 37.7083 55.6487 36.5776C54.518 35.4468 52.6847 35.4468 51.554 36.5776C50.5924 37.5391 47.5086 39.0594 42.7208 37.9308C41.1645 37.5643 39.6053 38.5284 39.2385 40.0848C38.8717 41.6412 39.836 43.2002 41.3925 43.5671C42.0497 43.722 43.8737 44.0966 46.123 44.0966Z" fill="#495059"/>
<path d="M51.554 36.5776C52.6846 35.4468 54.5179 35.4468 55.6486 36.5776C56.7793 37.7082 56.7793 39.5415 55.6486 40.6722C54.7502 41.5708 53.7441 42.2463 52.6922 42.7502C51.104 41.1186 50.3316 39.1805 49.9561 37.582C50.7029 37.2615 51.2412 36.8902 51.554 36.5776Z" fill="#EDA751"/>
<path opacity="0.15" d="M42.7209 37.9308C44.098 38.2554 45.3333 38.36 46.4185 38.3228C46.8485 39.9417 47.0606 41.9877 47.1646 44.0687C46.8096 44.0877 46.4613 44.0967 46.1231 44.0967C43.8739 44.0967 42.0496 43.7221 41.3925 43.5672C39.8361 43.2003 38.8717 41.6412 39.2385 40.0849C39.6052 38.5284 41.1646 37.5643 42.7209 37.9308Z" fill="#151515"/>
<path opacity="0.2" d="M39.8034 46.2378C39.642 46.0384 39.48 45.8386 39.3171 45.6391C38.6846 44.8653 37.545 44.7502 36.7708 45.3826C35.9967 46.0149 35.882 47.1548 36.5141 47.9289C36.674 48.1246 36.8331 48.3208 36.9916 48.5164C38.5866 50.4846 40.3148 52.6149 42.6944 53.8203C43.6328 52.9558 44.4583 51.9834 45.1467 50.9238C43.202 50.3087 41.7298 48.6149 39.8034 46.2378Z" fill="#A35F00"/>
<path opacity="0.2" d="M26.9445 48.7341C25.3529 48.5735 23.9333 49.7322 23.7723 51.3232C23.6733 52.302 23.516 53.8586 23.4468 55.955C25.1784 56.936 27.1241 57.6152 29.2016 57.9135C29.208 55.1279 29.4084 53.144 29.5336 51.9063C29.6944 50.3154 28.5354 48.8951 26.9445 48.7341Z" fill="#A35F00"/>
<path opacity="0.2" d="M37.242 48.7341C35.6519 48.5735 34.2309 49.7322 34.0699 51.3232C33.9415 52.591 33.7155 54.8275 33.71 57.9529C35.8069 57.6902 37.7758 57.041 39.5321 56.0837C39.5954 54.2377 39.7354 52.8537 39.8312 51.9065C39.9922 50.3154 38.8329 48.8951 37.242 48.7341Z" fill="#A35F00"/>
<path d="M31.6044 55.5824C38.9801 55.5824 44.9592 50.0263 44.9592 43.1724C44.9592 36.3186 38.9801 30.7625 31.6044 30.7625C24.2287 30.7625 18.2495 36.3186 18.2495 43.1724C18.2495 50.0263 24.2287 55.5824 31.6044 55.5824Z" fill="#FCD690"/>
<path opacity="0.15" d="M29.6548 55.4498C23.5521 51.4431 25.4434 43.2315 26.4794 39.6403V31.7109C21.6478 33.5786 18.2505 38.0067 18.2505 43.1727C18.2505 49.4104 23.2038 54.5727 29.6548 55.4498Z" fill="#C17A00"/>
<path d="M19.123 36.661C17.9481 39.0095 17.7261 43.4746 17.6842 47.3093C17.6689 48.7081 18.7958 49.8515 20.1948 49.8515H26.4474C27.0011 49.8515 27.4501 49.4026 27.4501 48.8488V36.6609L19.123 36.661Z" fill="#495059"/>
<path d="M24.8496 49.8515H26.447C27.0008 49.8515 27.4498 49.4026 27.4498 48.8488V36.6609H24.8497V49.8515H24.8496Z" fill="#8F959B"/>
<path d="M44.0869 36.661C45.2618 39.0095 45.4838 43.4746 45.5256 47.3093C45.541 48.7081 44.4141 49.8515 43.0151 49.8515H36.7625C36.2087 49.8515 35.7598 49.4026 35.7598 48.8488V36.6609L44.0869 36.661Z" fill="#495059"/>
<path d="M38.3599 49.8515H36.7625C36.2087 49.8515 35.7598 49.4026 35.7598 48.8488V36.6609H38.3598L38.3599 49.8515Z" fill="#8F959B"/>
<path d="M23.4778 21.655C26.0909 19.4623 27.8357 15.7813 24.1498 10.3399C20.4348 4.8555 14.9038 3.48073 10.5856 3.98952C9.5211 4.11494 8.62779 4.8644 8.31945 5.891C7.06868 10.0553 7.46197 15.7409 12.2181 20.3519C16.9366 24.9266 20.8647 23.8477 23.4778 21.655Z" fill="#EDA751"/>
<path d="M8.14558 6.52832C7.12013 10.6226 7.69995 15.9717 12.218 20.352C16.308 24.3174 19.8031 24.0341 22.3637 22.4604C20.6027 10.5054 12.9097 7.33514 8.14558 6.52832Z" fill="#FF91AB"/>
<path d="M39.7321 21.655C37.1189 19.4623 35.3742 15.7813 39.0601 10.3399C42.775 4.8555 48.3061 3.48073 52.6243 3.98952C53.6888 4.11494 54.5821 4.8644 54.8905 5.891C56.1413 10.0553 55.7478 15.7409 50.9919 20.3519C46.2733 24.9266 42.3454 23.8477 39.7321 21.655Z" fill="#EDA751"/>
<path d="M55.0643 6.52832C56.0898 10.6226 55.51 15.9717 50.992 20.352C46.9019 24.3174 43.4068 24.0341 40.8462 22.4604C42.6072 10.5054 50.3002 7.33514 55.0643 6.52832Z" fill="#FF91AB"/>
<path d="M54.3405 24.9644C54.3405 35.3597 44.1614 39.9129 31.6048 39.9129C19.0483 39.9129 8.86914 35.36 8.86914 24.9644C8.86914 14.5688 19.0483 6.14185 31.6048 6.14185C44.1614 6.14185 54.3405 14.569 54.3405 24.9644Z" fill="#FFDC9C"/>
<path opacity="0.15" d="M19.465 9.0481C13.0976 12.3837 8.86914 18.265 8.86914 24.9646C8.86914 33.9008 16.3913 38.5198 26.4793 39.6403C11.9981 30.9901 13.8867 19.3551 19.465 9.0481Z" fill="#C17A00"/>
<path d="M20.4486 28.6809C22.7222 28.6809 24.5652 27.2132 24.5652 25.4027C24.5652 23.5922 22.7222 22.1245 20.4486 22.1245C18.1751 22.1245 16.332 23.5922 16.332 25.4027C16.332 27.2132 18.1751 28.6809 20.4486 28.6809Z" fill="#FF91AB"/>
<path d="M42.7611 28.6809C45.0347 28.6809 46.8777 27.2132 46.8777 25.4027C46.8777 23.5922 45.0347 22.1245 42.7611 22.1245C40.4876 22.1245 38.6445 23.5922 38.6445 25.4027C38.6445 27.2132 40.4876 28.6809 42.7611 28.6809Z" fill="#FF91AB"/>
<path d="M20.212 17.3228C19.6106 17.3228 19.123 17.8104 19.123 18.4117V20.9471C19.123 23.063 20.9871 24.7785 23.2867 24.7785C25.5862 24.7785 27.4503 23.0632 27.4503 20.9471V18.4119C27.4503 17.8104 26.9627 17.3229 26.3613 17.3229H20.212V17.3228Z" fill="#495059"/>
<path d="M42.9981 17.3228C43.5995 17.3228 44.0871 17.8104 44.0871 18.4117V20.9471C44.0871 23.063 42.223 24.7785 39.9234 24.7785C37.624 24.7785 35.7598 23.0632 35.7598 20.9471V18.4119C35.7598 17.8104 36.2473 17.3229 36.8488 17.3229H42.9981V17.3228Z" fill="#495059"/>
<path d="M38.0945 12.6993H25.2251C22.4988 12.6993 20.2886 10.4891 20.2886 7.76264C20.2886 5.03629 22.4987 2.82607 25.2251 2.82607H35.9603C38.5088 2.82607 41.0255 2.25773 43.3267 1.16229C44.8119 0.455245 46.4621 1.76157 46.1147 3.36954L45.367 6.83001C44.6273 10.2546 41.5985 12.6993 38.0945 12.6993Z" fill="#495059"/>
<g opacity="0.1">
<path d="M35.2444 8.86963C35.0565 8.86963 34.8688 8.86898 34.6816 8.86834C34.5027 8.8677 34.3246 8.86705 34.1475 8.86705C33.6134 8.86705 33.1807 8.43419 33.1807 7.90026C33.1807 7.36633 33.6134 6.93347 34.1475 6.93347C34.3269 6.93347 34.5072 6.93411 34.6882 6.93476C36.7776 6.94198 38.936 6.94945 40.2672 5.95456C40.6952 5.635 41.3011 5.72266 41.6205 6.15024C41.9402 6.57795 41.8525 7.1838 41.4248 7.50349C39.7197 8.77785 37.4712 8.86963 35.2444 8.86963Z" fill="#151515"/>
<path d="M28.4338 7.5432H25.9004C25.3665 7.5432 24.9336 7.11034 24.9336 6.57641C24.9336 6.04248 25.3665 5.60962 25.9004 5.60962H28.4338C28.9677 5.60962 29.4006 6.04248 29.4006 6.57641C29.4006 7.11034 28.9677 7.5432 28.4338 7.5432Z" fill="#151515"/>
</g>
<path d="M34.5491 22.8665C34.1465 22.5157 33.536 22.5575 33.185 22.9601C32.786 23.4179 32.2102 23.6803 31.605 23.6803C30.9998 23.6803 30.424 23.4177 30.0251 22.9601C29.6743 22.5575 29.0636 22.5158 28.6611 22.8664C28.2586 23.2173 28.2166 23.8279 28.5675 24.2305C29.3337 25.1096 30.4409 25.6139 31.6051 25.6139C32.7693 25.6139 33.8764 25.1096 34.6428 24.2305C34.9934 23.828 34.9516 23.2173 34.5491 22.8665ZM20.0402 26.8623C18.7527 27.2042 16.3233 28.4244 15.3798 29.1209C14.9503 29.438 14.859 30.0433 15.1761 30.4729C15.3657 30.7296 15.6582 30.8655 15.9547 30.8655C16.1541 30.8655 16.3553 30.804 16.5281 30.6765C17.2811 30.1206 19.5217 29.0005 20.5363 28.7312C21.0523 28.5942 21.3596 28.0648 21.2227 27.5488C21.0858 27.0326 20.5565 26.7253 20.0402 26.8623ZM57.4768 46.3464C54.8044 46.3464 53.0963 47.5075 51.7239 48.4405C50.4993 49.2728 49.4418 49.9917 47.4316 50.1839C46.6465 50.2592 45.9585 50.1901 45.3029 49.9583C45.3654 49.9034 45.4269 49.847 45.4861 49.7872C46.1453 49.1207 46.5027 48.2371 46.4926 47.2989C46.4848 46.5869 46.4705 45.8321 46.4441 45.0606C48.9139 45.0226 51.132 44.5457 53.0224 43.6583C53.0774 43.6384 53.1309 43.6131 53.1824 43.5827C54.3723 43.0038 55.4289 42.2593 56.3322 41.3561C57.0615 40.6266 57.4632 39.6567 57.4632 38.6251C57.4632 37.5935 57.0615 36.6236 56.3322 35.8942C55.6026 35.1648 54.6327 34.763 53.6012 34.763C52.5694 34.763 51.5997 35.1648 50.8703 35.8941C50.6434 36.1209 50.23 36.4081 49.6402 36.6684C49.5987 36.6828 49.5592 36.7005 49.5208 36.7199C49.1591 36.8711 48.7362 37.0107 48.253 37.1209C52.868 34.3554 55.3075 30.1542 55.3075 24.9646C55.3075 22.6681 54.8331 20.4283 53.9397 18.3282C56.4404 14.5793 57.1274 9.97791 55.8163 5.61317C55.3963 4.21455 54.1877 3.20045 52.7374 3.02965C50.8413 2.80626 48.9173 2.94187 47.0877 3.41843C47.2586 2.36269 46.8543 1.30992 46.008 0.64C45.1202 -0.0629213 43.9335 -0.197112 42.9113 0.289635C40.7538 1.31663 38.35 1.85958 35.9603 1.85958H25.2252C22.9529 1.85958 20.9774 3.15095 19.991 5.03774C16.2322 2.78112 12.4749 2.79388 10.4729 3.02978C9.02256 3.20058 7.81407 4.21468 7.39384 5.6133C6.08158 9.98191 6.77084 14.5878 9.27728 18.3386C8.38241 20.4367 7.90263 22.6734 7.90263 24.9649C7.90263 28.3183 8.89997 31.2414 10.8671 33.6527C11.0581 33.8871 11.3363 34.0084 11.6168 34.0084C11.8317 34.0084 12.0478 33.9371 12.2273 33.7906C12.6411 33.4532 12.7028 32.8441 12.3653 32.4304C10.6871 30.3732 9.83621 27.8614 9.83621 24.9649C9.83621 18.922 13.6107 13.2721 19.759 9.98926C20.6397 12.1438 22.7574 13.6665 25.2252 13.6665H38.0945C40.0093 13.6665 41.8844 13.0042 43.3746 11.8018C43.8118 11.449 44.2092 11.0529 44.5648 10.6235C50.0965 13.9925 53.3742 19.2991 53.3742 24.9651C53.3742 29.5279 51.2931 33.0742 47.1892 35.5058C46.2795 36.0448 45.2779 36.5221 44.194 36.9377C44.1837 36.9417 44.1732 36.9453 44.1631 36.9497C41.7292 37.8787 38.8784 38.4934 35.6998 38.7728C35.6788 38.7741 35.6579 38.7758 35.6373 38.7785C34.3453 38.8901 32.9994 38.9467 31.6055 38.9467C30.2105 38.9467 28.866 38.8897 27.5753 38.7786C27.5496 38.7753 27.5236 38.7733 27.4973 38.7721C24.3315 38.4939 21.4974 37.8851 19.0753 36.963C19.035 36.944 18.9938 36.9266 18.9501 36.9131C18.9478 36.9125 18.9456 36.9121 18.9433 36.9113C17.6512 36.4102 16.4772 35.8199 15.4352 35.1417C14.9878 34.8505 14.3888 34.9769 14.0976 35.4245C13.8062 35.8721 13.933 36.471 14.3804 36.7622C14.5691 36.885 14.763 37.0042 14.9592 37.1218C14.476 37.0116 14.053 36.8719 13.6911 36.7208C13.6519 36.7009 13.6117 36.6829 13.5693 36.6683C12.98 36.4081 12.5668 36.121 12.3402 35.8944C11.6109 35.1648 10.641 34.7631 9.60921 34.7631C8.57758 34.7631 7.60769 35.1649 6.87822 35.8944C6.14874 36.6237 5.74707 37.5936 5.74707 38.6252C5.74707 39.6569 6.14887 40.6267 6.87822 41.3562C7.7812 42.2593 8.83771 43.0036 10.0274 43.5826C10.0791 43.6131 10.1328 43.6385 10.1881 43.6586C12.0784 44.546 14.2965 45.0228 16.7662 45.0608C16.7399 45.8323 16.7256 46.5872 16.7177 47.2992C16.7074 48.2373 17.0648 49.121 17.7239 49.7874C18.2978 50.3675 19.0388 50.7202 19.8395 50.8009C20.6275 51.8609 21.5604 52.7939 22.6047 53.5834C22.4028 56.4276 22.3925 59.3082 22.578 62.3712C22.7012 64.4059 24.3934 65.9999 26.4305 65.9999C26.5086 65.9999 26.5874 65.9975 26.6668 65.9928C27.6965 65.9304 28.6402 65.4708 29.3243 64.6986C30.0082 63.9263 30.3506 62.934 30.2882 61.9043C30.1754 60.0397 30.1437 58.2222 30.1912 56.4842C30.6579 56.5269 31.1296 56.5492 31.6051 56.5492C31.9939 56.5492 32.3797 56.533 32.7628 56.5044C32.7177 58.4081 32.7546 60.3757 32.8755 62.3712C32.9989 64.4059 34.691 66 36.7281 66C36.8061 66 36.8851 65.9977 36.9641 65.9929C38.6791 65.889 40.1344 64.6456 40.5032 62.969C40.6179 62.4476 40.2882 61.9319 39.7667 61.8171C39.2445 61.7023 38.7294 62.0323 38.6146 62.5536C38.4305 63.3903 37.7038 64.011 36.8473 64.0628C35.7811 64.1274 34.8695 63.31 34.8056 62.2543C34.6813 60.2027 34.6473 58.182 34.7032 56.2354C36.0837 55.9519 37.4016 55.4803 38.6203 54.841C38.5663 55.8019 38.5268 56.9637 38.5329 58.3228C38.5353 58.8553 38.9677 59.2852 39.4996 59.2852H39.5041C40.038 59.2827 40.4688 58.8479 40.4665 58.314C40.4575 56.3268 40.5494 54.7771 40.6381 53.6766C42.5459 55.0799 44.5827 55.7661 46.84 55.7661C47.206 55.7661 47.5832 55.7477 47.9607 55.7117C51.3866 55.3841 53.386 54.0252 54.8458 53.033C55.9561 52.2783 56.5135 51.8994 57.4771 51.8994C59.008 51.8994 60.2535 50.6539 60.2535 49.123C60.2532 47.5923 59.0077 46.3464 57.4768 46.3464ZM10.2983 16.3081C8.45138 12.9844 8.52911 9.74215 8.89507 7.6611C10.7672 8.0812 13.1087 8.93043 15.2566 10.6382C13.2062 12.2731 11.5299 14.1962 10.2983 16.3081ZM19.3284 8.03209C18.4681 8.46753 17.649 8.94616 16.8719 9.46216C14.3736 7.33703 11.6083 6.29985 9.40902 5.79532C9.67869 5.33332 10.152 5.01441 10.699 4.94996C12.5141 4.73623 15.9829 4.73159 19.3808 6.93613C19.3427 7.20645 19.3217 7.48218 19.3217 7.76293C19.3216 7.85317 19.3243 7.94275 19.3284 8.03209ZM45.1695 3.16539L44.852 4.63491L44.4219 6.62586C43.7827 9.58475 41.1216 11.7324 38.0942 11.7324H25.225C23.0361 11.7324 21.2552 9.95162 21.2552 7.76254C21.2552 5.57373 23.036 3.79277 25.225 3.79277H35.9601C38.6355 3.79277 41.3265 3.18498 43.7421 2.03514C44.0993 1.86512 44.4975 1.91011 44.8076 2.15567C45.1178 2.40137 45.2531 2.7788 45.1695 3.16539ZM45.6196 9.00223C45.9295 8.38026 46.164 7.71949 46.312 7.03436L46.6275 5.5736C48.97 4.76859 51.0999 4.78367 52.511 4.95008C53.0578 5.01454 53.5313 5.33332 53.801 5.79532C51.6021 6.29973 48.8375 7.33664 46.3397 9.46087C46.1036 9.30451 45.8636 9.15163 45.6196 9.00223ZM52.9177 16.2963C51.6902 14.1907 50.0157 12.2717 47.957 10.6352C50.1038 8.92953 52.4437 8.08094 54.3147 7.6611C54.6802 9.7397 54.7581 12.9768 52.9177 16.2963ZM52.2375 37.2613C52.6016 36.897 53.0859 36.6964 53.601 36.6964C54.1162 36.6964 54.6005 36.897 54.9649 37.2613C55.329 37.6256 55.5296 38.1097 55.5296 38.625C55.5296 39.1401 55.329 39.6244 54.9647 39.9887C54.3314 40.622 53.6356 41.1323 52.9078 41.5434C52.1033 40.5714 51.4967 39.4194 51.0972 38.1037C51.5692 37.8365 51.9516 37.5472 52.2375 37.2613ZM49.3045 38.8475C49.7216 40.1553 50.3187 41.3295 51.0896 42.3583C49.4404 42.9289 47.7567 43.1114 46.3487 43.1285C46.2609 41.8052 46.1207 40.4897 45.8953 39.2957C47.1975 39.3068 48.3405 39.1303 49.3045 38.8475ZM10.3017 41.5435C9.57402 41.1324 8.87806 40.6221 8.24487 39.9888C7.88059 39.6245 7.68001 39.1402 7.68001 38.6251C7.68001 38.11 7.88059 37.6257 8.24487 37.2614C8.60916 36.8971 9.09346 36.6965 9.60856 36.6965C10.1237 36.6965 10.608 36.8971 10.9723 37.2615C11.2582 37.5475 11.6405 37.8367 12.1123 38.1041C11.7129 39.4195 11.1063 40.5717 10.3017 41.5435ZM16.861 43.1284C15.4531 43.1113 13.7694 42.9289 12.1202 42.3582C12.8908 41.3297 13.488 40.1555 13.9051 38.8477C14.8691 39.1307 16.0121 39.3071 17.3141 39.2958C17.0891 40.4897 16.9488 41.8052 16.861 43.1284ZM36.7267 40.6127C39.3388 40.3294 41.7405 39.8229 43.8829 39.1023C44.4296 41.56 44.5325 44.8998 44.559 47.32C44.5636 47.7378 44.4047 48.1311 44.1114 48.4275C43.8537 48.688 43.52 48.8447 43.1597 48.878C43.1374 48.8781 43.1152 48.8795 43.0931 48.8812C43.067 48.8825 43.0414 48.8851 43.0151 48.8851H42.8731C42.8716 48.8851 42.8701 48.8851 42.8684 48.8851H36.7625C36.7428 48.8851 36.7267 48.869 36.7267 48.8491V40.6127ZM20.3424 48.8851C20.3402 48.8851 20.3381 48.8851 20.336 48.8851H20.1947C19.7796 48.8851 19.3903 48.7225 19.0983 48.4275C18.8052 48.1311 18.6463 47.7378 18.6508 47.3202C18.6773 44.9002 18.7803 41.5612 19.3266 39.1036C21.4684 39.8248 23.8676 40.3322 26.4831 40.6149V48.8491C26.4831 48.869 26.467 48.8851 26.4471 48.8851H20.3424ZM27.8765 63.4162C27.5349 63.8019 27.0637 64.0313 26.5498 64.0625C25.4825 64.1258 24.5718 63.3099 24.508 62.2541C24.3507 59.6556 24.3386 57.1946 24.4676 54.7761C25.6488 55.4101 26.926 55.8846 28.2645 56.1823C28.2052 58.0518 28.2364 60.0116 28.3581 62.0209C28.3891 62.5351 28.2181 63.0307 27.8765 63.4162ZM39.9876 51.6007C39.9492 51.6287 39.9121 51.6591 39.8772 51.6933C39.6697 51.8658 39.4568 52.0315 39.238 52.19C39.1861 52.2201 39.1371 52.2548 39.0917 52.2939C37.4983 53.4128 35.628 54.1608 33.6261 54.4632C33.6144 54.4649 33.6028 54.4668 33.5912 54.4689C32.9411 54.5653 32.2774 54.6151 31.6049 54.6151C28.8926 54.6151 26.3225 53.8089 24.2215 52.3654C24.1813 52.3323 24.1381 52.3026 24.0928 52.2762C23.4803 51.8438 22.9092 51.3565 22.3876 50.8184H26.4474C27.5334 50.8184 28.4169 49.9349 28.4169 48.8489V40.7801C29.4507 40.8463 30.5139 40.88 31.605 40.88C32.6953 40.88 33.7585 40.846 34.7931 40.7794V48.849C34.7931 49.935 35.6766 50.8185 36.7625 50.8185H40.8223C40.5566 51.0927 40.278 51.3535 39.9876 51.6007ZM57.4768 49.9656C55.9183 49.9656 54.9653 50.6134 53.7586 51.4337C52.3293 52.4051 50.7093 53.5062 47.7763 53.7867C47.4596 53.817 47.1446 53.8323 46.8396 53.8323C45.0941 53.8323 43.5524 53.3456 42.06 52.3169C42.4596 51.9173 42.8356 51.4927 43.185 51.0441C44.5421 51.9263 45.9677 52.2665 47.6158 52.1087C50.1189 51.8694 51.4874 50.9392 52.811 50.0397C54.0834 49.1746 55.3993 48.2801 57.4768 48.2801C57.9416 48.2801 58.3196 48.6582 58.3196 49.1229C58.3196 49.5876 57.9417 49.9656 57.4768 49.9656ZM14.4098 24.0829C13.8917 24.2123 13.5769 24.7373 13.7063 25.2553C13.8162 25.6946 14.2104 25.9879 14.6435 25.9879C14.7212 25.9879 14.8 25.9784 14.8787 25.9587C15.7867 25.7317 18.2848 25.5498 19.3257 25.6874C19.837 25.7547 20.3046 25.4109 20.4005 24.912C21.2233 25.4374 22.2169 25.7454 23.2862 25.7454C26.115 25.7454 28.4167 23.5929 28.4167 20.9471V19.7839C29.3048 19.7038 30.3727 19.6635 31.6047 19.6635C32.8367 19.6635 33.9047 19.704 34.7928 19.7839V20.9471C34.7928 23.5928 37.0943 25.7454 39.9233 25.7454C40.9925 25.7454 41.9863 25.4374 42.809 24.912C42.9051 25.411 43.3748 25.7548 43.8836 25.6874C44.9247 25.5497 47.4226 25.7317 48.3306 25.9587C48.4094 25.9784 48.4883 25.9879 48.5659 25.9879C48.999 25.9879 49.3932 25.6946 49.5031 25.2553C49.6326 24.7372 49.3176 24.2123 48.7997 24.0829C47.7843 23.8291 45.5156 23.6407 44.1007 23.7271C44.6996 22.9422 45.0535 21.9829 45.0535 20.9473V18.4121C45.0535 17.2785 44.1313 16.3562 42.9977 16.3562H36.8486C35.9099 16.3562 35.1179 16.9892 34.8728 17.8504C33.9432 17.7705 32.8496 17.73 31.6046 17.73C30.3596 17.73 29.266 17.7706 28.3366 17.8504C28.0914 16.9893 27.2993 16.3562 26.3607 16.3562H20.2117C19.0781 16.3562 18.1559 17.2785 18.1559 18.4121V20.9473C18.1559 21.983 18.5097 22.9422 19.1086 23.7271C17.6936 23.6407 15.4253 23.8289 14.4098 24.0829ZM36.7267 18.4122C36.7267 18.3448 36.7816 18.2899 36.8489 18.2899H42.9979C43.0652 18.2899 43.1201 18.3448 43.1201 18.4122V20.9474C43.1201 22.5269 41.6861 23.8119 39.9234 23.8119C38.1607 23.8119 36.7267 22.5269 36.7267 20.9474V18.4122ZM20.0896 18.4122C20.0896 18.3448 20.1444 18.2899 20.2118 18.2899H26.3609C26.4283 18.2899 26.4832 18.3448 26.4832 18.4122V20.9474C26.4832 22.5269 25.0493 23.8119 23.2865 23.8119C21.5238 23.8119 20.0897 22.5269 20.0897 20.9474L20.0896 18.4122ZM43.1696 26.8623C42.6528 26.7253 42.1241 27.0326 41.987 27.5488C41.85 28.0649 42.1573 28.5942 42.6733 28.7312C43.6878 29.0005 45.9283 30.1206 46.6817 30.6765C46.8545 30.804 47.0555 30.8655 47.255 30.8655C47.5515 30.8655 47.844 30.7296 48.0336 30.4729C48.3507 30.0432 48.2596 29.438 47.8299 29.1209C46.8864 28.4244 44.457 27.2041 43.1696 26.8623Z" fill="#151515"/>
<path d="M45.8424 15.9457C45.3911 15.9457 45.0254 15.58 45.0254 15.1287C45.0254 14.6124 44.6276 14.1603 44.1116 14.147C43.5819 14.1335 43.1485 14.5588 43.1485 15.0852V15.1287C43.1485 15.5798 42.7828 15.9457 42.3315 15.9457C41.8154 15.9457 41.3632 16.3433 41.3499 16.8593C41.3363 17.389 41.7615 17.8227 42.2881 17.8227H42.3317C42.7828 17.8227 43.1487 18.1885 43.1487 18.6397V18.6398C43.1487 19.1561 43.5465 19.6081 44.0625 19.6214C44.592 19.6349 45.0255 19.2097 45.0255 18.6832V18.6398C45.0255 18.1886 45.3912 17.8228 45.8425 17.8228H45.8861C46.4127 17.8228 46.838 17.3891 46.8243 16.8595C46.8108 16.3433 46.3587 15.9457 45.8424 15.9457Z" fill="white"/>
</svg>
