<svg width="68" height="68" viewBox="0 0 68 68" fill="none" xmlns="http://www.w3.org/2000/svg">
<g clip-path="url(#clip0_20_644)">
<path d="M46.5707 52.6924C43.3898 53.0842 40.1931 52.5491 37.415 49.8913C36.6026 49.1141 36.574 47.8254 37.3514 47.013C38.1288 46.2003 39.4173 46.1721 40.2297 46.9493C42.5532 49.1723 45.5229 49.301 50.8195 47.4091C52.254 46.8967 52.6062 45.9459 53.2066 44.0152C53.9125 41.745 54.8794 38.636 59.145 37.3188C60.2177 36.9869 61.3591 37.5889 61.6908 38.6634C62.0227 39.7377 61.4206 40.8775 60.3462 41.2093C58.2291 41.8631 57.7754 43.0357 57.0946 45.2243C56.4647 47.2502 55.6018 50.0247 52.1892 51.2435C50.3845 51.8879 48.4805 52.4571 46.5707 52.6924Z" fill="#EDA751"/>
<path d="M61.6909 38.6634C61.3591 37.5889 60.2177 36.9869 59.145 37.3188C58.3387 37.5677 57.6507 37.8808 57.0596 38.2401C57.1705 39.4401 57.6336 40.98 58.9604 41.8611C59.3264 41.5997 59.7755 41.3852 60.3463 41.209C61.4206 40.8774 62.0226 39.7377 61.6909 38.6634Z" fill="#FCD79D"/>
<path d="M27.5152 67.0041C25.7161 67.0041 24.2579 65.5458 24.2579 63.7469C24.2579 62.8311 24.2636 61.7448 24.2695 60.5935C24.2841 57.8151 24.3006 54.6658 24.2432 52.6821C24.1915 50.8838 25.6072 49.3841 27.4053 49.3323C29.2011 49.278 30.7032 50.6962 30.7551 52.4943C30.8154 54.5892 30.7987 57.7973 30.7839 60.6276C30.7778 61.7665 30.7723 62.8412 30.7723 63.7469C30.7724 65.5458 29.314 67.0041 27.5152 67.0041Z" fill="#EDA751"/>
<path d="M38.6863 67.004C36.8872 67.004 35.4291 65.5458 35.4291 63.7468C35.4291 62.8402 35.4235 61.7647 35.4175 60.6249C35.4028 57.7955 35.386 54.5885 35.4461 52.4945C35.4979 50.6961 37.004 49.2788 38.7957 49.3323C40.594 49.3841 42.0098 50.8838 41.958 52.6818C41.9009 54.6652 41.9172 57.8133 41.9317 60.5908C41.9377 61.7431 41.9435 62.8304 41.9435 63.7467C41.9436 65.5458 40.4852 67.004 38.6863 67.004Z" fill="#EDA751"/>
<path d="M18.0744 56.8508C17.5923 56.8508 17.1028 56.7435 16.6409 56.5167C15.0261 55.7238 14.3599 53.7721 15.1529 52.1572C16.6393 49.1298 18.3562 42.3599 18.5436 40.9766C18.7853 39.1938 20.4267 37.9445 22.2088 38.1862C23.9917 38.4278 25.2407 40.0688 24.9991 41.8513C24.7273 43.8563 22.8389 51.2843 21.0004 55.0284C20.4344 56.1815 19.2775 56.8508 18.0744 56.8508Z" fill="#EDA751"/>
<path d="M48.127 56.8509C46.9236 56.8509 45.7668 56.1817 45.2009 55.0285C43.3622 51.2844 41.4737 43.8563 41.2021 41.8513C40.9605 40.0687 42.2098 38.4278 43.9924 38.1863C45.7737 37.9441 47.4159 39.1939 47.6576 40.9766C47.845 42.3601 49.562 49.1297 51.0483 52.1573C51.8413 53.7722 51.175 55.7239 49.5603 56.5168C49.0982 56.7435 48.6088 56.8509 48.127 56.8509Z" fill="#EDA751"/>
<path opacity="0.2" d="M27.4053 49.3321C25.607 49.3839 24.1915 50.8837 24.2432 52.6819C24.2846 54.1164 24.2874 56.1602 24.2804 58.2326C26.2423 59.3015 28.4422 60.0252 30.7857 60.3153C30.7999 57.5635 30.8133 54.5124 30.7553 52.4942C30.7032 50.6958 29.201 49.2778 27.4053 49.3321Z" fill="#A35F00"/>
<path opacity="0.2" d="M38.7956 49.332C37.0036 49.2784 35.4978 50.696 35.4459 52.4943C35.388 54.5125 35.4014 57.5638 35.4156 60.3152C37.7591 60.0253 39.959 59.3016 41.9209 58.2326C41.9139 56.1602 41.9166 54.1162 41.958 52.6816C42.0098 50.8834 40.5938 49.3838 38.7956 49.332Z" fill="#A35F00"/>
<path opacity="0.2" d="M47.6576 40.9766C47.4159 39.1939 45.7735 37.9441 43.9924 38.1863C42.2095 38.4278 40.9606 40.0689 41.2021 41.8513C41.4737 43.8564 43.3623 51.2844 45.2009 55.0285C45.3029 55.2363 45.4248 55.4278 45.562 55.6033C47.4838 53.7992 48.9653 51.5816 49.8423 49.1065C48.7543 45.8995 47.795 41.9908 47.6576 40.9766Z" fill="#A35F00"/>
<path opacity="0.2" d="M22.2091 38.1862C20.4269 37.9444 18.7856 39.1939 18.5439 40.9766C18.4066 41.9907 17.4471 45.8994 16.3591 49.1065C17.2362 51.5815 18.7177 53.7991 20.6394 55.6032C20.7767 55.4279 20.8985 55.2364 21.0005 55.0285C22.8392 51.2844 24.7276 43.8563 24.9992 41.8514C25.241 40.0688 23.9917 38.4278 22.2091 38.1862Z" fill="#A35F00"/>
<path d="M33.1 57.8424C41.3972 57.8424 48.1234 51.5919 48.1234 43.8815C48.1234 36.1711 41.3972 29.9207 33.1 29.9207C24.8028 29.9207 18.0767 36.1711 18.0767 43.8815C18.0767 51.5919 24.8028 57.8424 33.1 57.8424Z" fill="#FCD690"/>
<path opacity="0.15" d="M30.9067 57.6929C24.0412 53.1855 25.9013 44.3398 27.3345 41.2154V30.9866C21.8988 33.0878 18.0769 38.0695 18.0769 43.8811C18.0768 50.8988 23.6493 56.7061 30.9067 57.6929Z" fill="#C17A00"/>
<path d="M23.9575 20.9819C26.8973 18.515 28.8601 14.3739 24.7135 8.25232C20.5343 2.08251 14.3117 0.535912 9.45384 1.1082C8.25614 1.24938 7.25128 2.09261 6.90424 3.24754C5.49696 7.93224 5.93963 14.3288 11.2901 19.516C16.5989 24.6626 21.0178 23.4487 23.9575 20.9819Z" fill="#EDA751"/>
<path d="M6.70888 3.96411C5.55513 8.57018 6.20751 14.588 11.2902 19.5158C15.8915 23.9767 19.8236 23.6579 22.7044 21.8878C20.7231 8.43843 12.0685 4.87188 6.70888 3.96411Z" fill="#FF91AB"/>
<path d="M42.2436 20.9818C39.3038 18.5149 37.341 14.3738 41.4876 8.25224C45.667 2.08231 51.8895 0.535573 56.7474 1.10799C57.9451 1.24917 58.9499 2.09227 59.297 3.24734C60.7043 7.93203 60.2616 14.3285 54.9111 19.5158C49.6023 24.6626 45.1833 23.4487 42.2436 20.9818Z" fill="#EDA751"/>
<path d="M59.4922 3.96411C60.6459 8.57018 59.9936 14.588 54.9109 19.5158C50.3096 23.9767 46.3775 23.6579 43.4967 21.8878C45.478 8.43843 54.1326 4.87188 59.4922 3.96411Z" fill="#FF91AB"/>
<path d="M58.6784 24.7051C58.6784 36.4001 47.2267 41.5223 33.1005 41.5223C18.9743 41.5223 7.52258 36.3999 7.52258 24.7051C7.52258 13.0103 18.9742 3.52979 33.1004 3.52979C47.2266 3.52979 58.6784 13.0102 58.6784 24.7051Z" fill="#FFDC9C"/>
<path opacity="0.15" d="M19.4432 6.79907C12.2798 10.5517 7.52258 17.1681 7.52258 24.7053C7.52258 34.7585 15.9849 39.9548 27.3342 41.2156C11.0428 31.484 13.1675 18.3944 19.4432 6.79907Z" fill="#C17A00"/>
<path d="M46.9026 28.9107C48.1059 28.7516 50.8879 28.9551 51.9397 29.2179C52.0208 29.2383 52.1021 29.2479 52.182 29.2479C52.6283 29.2478 53.0344 28.9458 53.1477 28.4932C53.2811 27.9595 52.9566 27.4187 52.423 27.2852C51.1505 26.967 48.1186 26.7406 46.6418 26.9357C46.0964 27.0078 45.7126 27.5084 45.7847 28.0538C45.8567 28.5992 46.3593 28.9827 46.9026 28.9107ZM45.5761 32.3372C46.7487 32.6485 49.244 33.8967 50.1163 34.5405C50.2944 34.6719 50.5014 34.7352 50.707 34.7352C51.0125 34.7352 51.3138 34.5953 51.5092 34.3307C51.8359 33.888 51.742 33.2645 51.2994 32.9378C50.2442 32.1588 47.5272 30.7939 46.0874 30.4117C45.5548 30.2707 45.0102 30.5872 44.869 31.1189C44.7279 31.6505 45.0446 32.196 45.5761 32.3372ZM42.9529 25.9986C43.5031 25.9986 43.949 25.5526 43.949 25.0025V23.367C43.949 22.8169 43.5031 22.3709 42.9529 22.3709C42.4027 22.3709 41.9568 22.8169 41.9568 23.367V25.0025C41.9568 25.5526 42.4027 25.9986 42.9529 25.9986ZM20.1137 30.4117C18.6737 30.7939 15.9569 32.1588 14.9018 32.9378C14.4592 33.2645 14.3653 33.8882 14.692 34.3307C14.8874 34.5953 15.1887 34.7352 15.4942 34.7352C15.6996 34.7352 15.907 34.6719 16.0849 34.5404C16.957 33.8967 19.4523 32.6484 20.625 32.3372C21.1566 32.196 21.4733 31.6505 21.3321 31.1189C21.1909 30.5872 20.6465 30.2707 20.1137 30.4117ZM62.6425 38.3691C62.4036 37.5954 61.8772 36.9608 61.1607 36.5825C60.4444 36.2042 59.6239 36.1277 58.8509 36.3667C54.084 37.8385 52.9836 41.3772 52.2553 43.719C51.6545 45.6513 51.419 46.137 50.4843 46.4707C50.3529 46.5176 50.2228 46.5631 50.0934 46.6078C49.7154 45.3405 49.3657 44.0429 49.0813 42.8779C49.0097 41.8701 48.83 40.8765 48.544 39.9068C49.6712 39.4478 50.7242 38.9309 51.6943 38.3561C56.9148 35.2632 59.6741 30.5426 59.6741 24.705C59.6741 22.1113 59.1451 19.5875 58.1306 17.2182C60.9451 13.0182 61.7208 7.85633 60.2504 2.96072C59.7883 1.42221 58.4588 0.30685 56.8635 0.118788C51.9841 -0.456026 47.1815 1.07172 43.5826 4.31859C40.3136 3.14891 36.763 2.53332 33.1003 2.53332C29.4376 2.53332 25.887 3.14891 22.6181 4.31859C19.0194 1.07159 14.2172 -0.456292 9.33725 0.118655C7.74178 0.306718 6.41232 1.42234 5.95054 2.96058C4.4799 7.85619 5.25539 13.0181 8.07022 17.218C7.05567 19.5873 6.52668 22.111 6.52668 24.7048C6.52668 31.7248 10.4271 36.9824 17.6546 39.9143C17.37 40.8817 17.1911 41.8727 17.1197 42.8777C16.388 45.8737 15.2252 49.7495 14.2589 51.7179C13.7581 52.7377 13.6845 53.8915 14.0514 54.9666C14.4185 56.0419 15.1823 56.9098 16.2019 57.4105C16.7914 57.6999 17.4213 57.8467 18.0745 57.8467C19.7102 57.8467 21.174 56.9349 21.8948 55.4672C21.9934 55.2665 22.0936 55.052 22.1951 54.8256C22.5445 55.1293 22.9083 55.4188 23.2858 55.6928C23.2908 57.2566 23.2816 59.0157 23.2735 60.5878L23.2725 60.8028C23.267 61.8762 23.2618 62.8864 23.2618 63.7462C23.2618 66.0915 25.17 67.9995 27.5152 67.9995C29.8604 67.9995 31.7685 66.0914 31.7685 63.7462C31.7685 62.842 31.7741 61.7691 31.7802 60.6321L31.7803 60.5932C31.7834 60.0027 31.7864 59.3959 31.7889 58.7868C32.2218 58.8198 32.6591 58.8373 33.1009 58.8373C33.5426 58.8373 33.9799 58.8198 34.4128 58.7868C34.4153 59.396 34.4184 60.0027 34.4214 60.5932L34.4216 60.6323C34.4277 61.7691 34.4332 62.8421 34.4332 63.7462C34.4332 66.0915 36.3414 67.9995 38.6866 67.9995C40.518 67.9995 42.139 66.8333 42.7203 65.0976C42.895 64.5759 42.6138 64.0114 42.0923 63.8366C41.5707 63.662 41.0061 63.9432 40.8315 64.4649C40.5224 65.3875 39.6605 66.0073 38.6866 66.0073C37.4396 66.0073 36.4253 64.9929 36.4253 63.7461C36.4253 62.8388 36.4197 61.7622 36.4136 60.6218L36.4133 60.5829C36.4099 59.9084 36.4064 59.213 36.4038 58.5167C38.0115 58.2009 39.5306 57.659 40.9223 56.9289C40.9231 57.9878 40.9283 59.0892 40.9337 60.1547C40.9367 60.7031 41.382 61.1456 41.9297 61.1456H41.935C42.4851 61.1428 42.9287 60.6946 42.9259 60.1444C42.9184 58.6576 42.9113 57.1012 42.916 55.6926C43.2934 55.4186 43.6572 55.129 44.0066 54.8252C44.1081 55.0517 44.2084 55.2664 44.3068 55.4668C45.0276 56.9345 46.4914 57.8463 48.1271 57.8463C48.7803 57.8463 49.4102 57.6995 49.9995 57.4101C51.0194 56.9094 51.7832 56.0413 52.1502 54.9662C52.4486 54.0922 52.4556 53.1662 52.1788 52.3027C52.2923 52.2631 52.4073 52.2226 52.5247 52.1806C56.4055 50.7946 57.3928 47.6201 58.0462 45.5191C58.7001 43.4164 59.0093 42.6638 60.6406 42.16C61.4144 41.9211 62.0488 41.395 62.4271 40.679C62.8048 39.9634 62.8815 39.1429 62.6425 38.3691ZM57.0847 15.125C55.7862 12.8644 54.0186 10.7827 51.822 8.96425C51.6663 8.83542 51.5091 8.70832 51.3504 8.58308C53.8387 6.57694 56.5666 5.6009 58.7229 5.12809C59.1552 7.50318 59.27 11.2728 57.0847 15.125ZM56.6306 2.09717C57.3168 2.17805 57.9045 2.59907 58.2089 3.2015C55.7131 3.75972 52.5406 4.93113 49.6866 7.37621C48.4233 6.53165 47.0808 5.79069 45.6736 5.15903C48.7466 2.73852 52.6587 1.62913 56.6306 2.09717ZM9.57047 2.09717C13.5424 1.62967 17.4544 2.73852 20.5274 5.15916C19.1202 5.79069 17.7779 6.53179 16.5146 7.37621C13.6606 4.93113 10.4879 3.75972 7.9924 3.20164C8.2964 2.59907 8.88423 2.17805 9.57047 2.09717ZM7.47828 5.12822C9.63462 5.60103 12.3623 6.57721 14.8507 8.58321C14.692 8.70845 14.5346 8.83556 14.3791 8.96438C12.1826 10.7829 10.4149 12.8647 9.11639 15.125C6.93109 11.2728 7.04584 7.50318 7.47828 5.12822ZM20.1064 54.5894C19.7231 55.3698 18.9445 55.8547 18.0742 55.8547C17.7282 55.8547 17.3937 55.7766 17.08 55.6224C16.5377 55.3563 16.1317 54.8949 15.9366 54.3233C15.7415 53.7516 15.7807 53.1383 16.0469 52.596C16.6095 51.4501 17.198 49.8159 17.733 48.1074C18.341 50.0313 19.3529 51.7948 20.6769 53.3123C20.4809 53.7878 20.2898 54.2161 20.1064 54.5894ZM29.7881 60.5833L29.7879 60.622C29.7817 61.7629 29.7762 62.8394 29.7762 63.7466C29.7762 64.9934 28.7617 66.0079 27.5149 66.0079C26.2681 66.0079 25.2536 64.9934 25.2536 63.7466C25.2536 62.8896 25.2588 61.8828 25.2641 60.8134L25.2653 60.5984C25.2714 59.4273 25.2779 58.1527 25.2789 56.9295C26.6706 57.6595 28.1899 58.2014 29.7976 58.5172C29.795 59.2134 29.7914 59.9088 29.7881 60.5833ZM33.1005 56.8454C25.3655 56.8454 19.0728 51.0295 19.0728 43.8809C19.0728 42.7654 19.2273 41.665 19.5292 40.5975C20.8528 41.0298 22.2704 41.3941 23.781 41.6861C24.3228 41.7904 24.8436 41.4372 24.948 40.8972C25.0526 40.3571 24.6993 39.8346 24.1593 39.7301C22.3976 39.3894 20.7745 38.9465 19.291 38.4061C19.2756 38.3994 19.2607 38.3921 19.2449 38.3861C19.2145 38.3748 19.1837 38.3654 19.153 38.3572C16.6073 37.4141 14.484 36.1773 12.8091 34.6582C9.96227 32.0758 8.51873 28.7269 8.51873 24.7048C8.51873 13.5778 19.546 4.52538 33.1005 4.52538C46.6549 4.52538 57.6822 13.5778 57.6822 24.7048C57.6822 29.8726 55.326 33.8887 50.679 36.642C49.5607 37.3046 48.3197 37.8849 46.9697 38.382C46.9652 38.3836 46.9605 38.3847 46.956 38.3864C46.9524 38.3877 46.9492 38.3895 46.9456 38.3908C43.1226 39.7943 38.4204 40.526 33.1003 40.526C31.6086 40.526 30.1413 40.467 28.7386 40.3507C28.1881 40.3049 27.7091 40.7129 27.6635 41.261C27.6181 41.8092 28.0257 42.2906 28.574 42.336C30.031 42.4568 31.5539 42.5182 33.1003 42.5182C38.2159 42.5182 42.81 41.8598 46.6703 40.5928C46.9731 41.662 47.128 42.7639 47.128 43.8809C47.1283 51.0295 40.8355 56.8454 33.1005 56.8454ZM50.2644 54.3233C50.0691 54.8949 49.6632 55.3563 49.1208 55.6226C48.8073 55.7766 48.4727 55.8547 48.1267 55.8547C47.2564 55.8547 46.4779 55.3698 46.0946 54.5894C45.9116 54.2169 45.7204 53.7884 45.5239 53.3123C46.848 51.7948 47.8598 50.0313 48.4678 48.1075C49.0029 49.816 49.5913 51.4503 50.1539 52.5962C50.4203 53.1383 50.4595 53.7516 50.2644 54.3233ZM60.665 39.7493C60.5353 39.9949 60.3177 40.1753 60.0524 40.2573C57.3352 41.0963 56.7831 42.872 56.1434 44.9284C55.544 46.8555 54.7982 49.2537 51.8543 50.3051C51.6975 50.3611 51.5463 50.4139 51.3971 50.4656C51.1638 49.8755 50.9262 49.2122 50.6917 48.5086C50.8449 48.456 50.9989 48.4025 51.1546 48.3468C53.1212 47.6445 53.5787 46.1732 54.1579 44.3104C54.8338 42.137 55.6749 39.4324 59.4394 38.2701C59.7039 38.188 59.985 38.2145 60.2307 38.3443C60.4767 38.4742 60.6572 38.6917 60.7391 38.9571C60.8211 39.2223 60.7947 39.5038 60.665 39.7493ZM23.2483 22.371C22.6981 22.371 22.2522 22.817 22.2522 23.3671V25.0026C22.2522 25.5527 22.6981 25.9987 23.2483 25.9987C23.7985 25.9987 24.2444 25.5527 24.2444 25.0026V23.3671C24.2444 22.817 23.7985 22.371 23.2483 22.371ZM19.2985 28.9107C19.8426 28.9829 20.3444 28.5992 20.4165 28.0537C20.4886 27.5082 20.1048 27.0077 19.5594 26.9355C18.0828 26.7406 15.0508 26.967 13.7784 27.2851C13.2446 27.4185 12.9201 27.9593 13.0535 28.493C13.1668 28.9457 13.5728 29.2478 14.0192 29.2478C14.0992 29.2478 14.1804 29.2381 14.2614 29.2178C15.3133 28.955 18.0956 28.7518 19.2985 28.9107ZM29.8487 27.0093C30.0375 27.1737 30.2706 27.2544 30.5028 27.2544C30.7808 27.2544 31.0573 27.1388 31.2541 26.9127C31.7203 26.3779 32.3932 26.0711 33.1006 26.0711C33.808 26.0711 34.4812 26.3779 34.9472 26.9128C35.3089 27.3276 35.938 27.3708 36.3526 27.0093C36.7674 26.6477 36.8105 26.0186 36.4492 25.604C35.6045 24.6348 34.384 24.079 33.1007 24.079C31.8174 24.079 30.5968 24.635 29.7524 25.6041C29.3906 26.0186 29.434 26.6479 29.8487 27.0093Z" fill="#151515"/>
</g>
<defs>
<clipPath id="clip0_20_644">
<rect width="68" height="68" fill="white"/>
</clipPath>
</defs>
</svg>
