<svg width="48" height="48" viewBox="0 0 48 48" fill="none" xmlns="http://www.w3.org/2000/svg">
<path d="M11.8512 28.2205C11.8512 30.7693 10.0368 32.8333 7.80001 32.8333C5.56321 32.8333 3.74881 30.7693 3.74881 28.2205C3.74881 25.6717 5.56321 23.6077 7.80001 23.6077C10.0368 23.6077 11.8512 25.6717 11.8512 28.2205Z" fill="#FFBF9D"/>
<path d="M45.5616 28.2203C45.5616 30.7691 43.7472 32.8331 41.5104 32.8331C39.2736 32.8331 37.4592 30.7691 37.4592 28.2203C37.4592 25.6715 39.2688 23.6123 41.52 23.6123C43.7712 23.6123 45.5616 25.6715 45.5616 28.2203Z" fill="#FFBF9D"/>
<path d="M42.2208 23.8043C42.2208 35.4635 34.7136 44.2427 24.6528 44.2427C14.592 44.2427 7.08002 35.4635 7.08002 23.8043C7.08002 12.1451 14.592 4.08594 24.6528 4.08594C34.7136 4.08594 42.2208 12.1403 42.2208 23.8043Z" fill="#FFD4BD"/>
<path d="M24.6528 39.1452C20.4576 39.1452 20.4096 36.1452 20.4096 36.1164C20.376 35.7084 20.6832 35.3484 21.0912 35.3148C21.4992 35.2812 21.8592 35.5884 21.8928 35.9964C21.8976 36.0348 21.8976 36.078 21.8928 36.1164C21.8928 36.2604 22.0272 37.6572 24.6528 37.6572C27.384 37.6572 27.4128 36.1308 27.4128 36.1164C27.3792 35.7084 27.6864 35.3484 28.0944 35.3148C28.5024 35.2812 28.8624 35.5884 28.896 35.9964C28.9008 36.0348 28.9008 36.078 28.896 36.1164C28.9008 36.1452 28.8528 39.1452 24.6528 39.1452Z" fill="#99674F"/>
<path d="M24.672 3.75C35.8272 3.75 43.92 12.1836 43.92 23.7996C43.92 23.9868 43.7664 24.1404 43.5792 24.1404C43.4352 24.1404 39.8784 24.0396 31.7856 15.342C30.624 16.4268 25.704 20.8044 20.6112 22.4124C16.8048 23.6412 12.8304 24.2892 8.83199 24.3324C7.78559 24.3468 6.73919 24.2844 5.70239 24.1404C5.53919 24.1116 5.41919 23.9724 5.41919 23.8044C5.42399 12.1836 13.5216 3.75 24.672 3.75Z" fill="#602F0F"/>
<path d="M13.2 20.5019C13.1952 22.5275 11.5584 24.1643 9.5328 24.1643H6.0288C4.0032 24.1643 2.3664 22.5275 2.3616 20.5019C2.3616 18.4763 4.0032 16.8347 6.0288 16.8347H9.5328C11.5584 16.8347 13.2 18.4763 13.2 20.5019Z" fill="#602F0F"/>
<path d="M12.24 15.0108C12.24 16.4988 11.0304 17.7084 9.5424 17.7084H6.96C5.472 17.7084 4.2624 16.4988 4.2624 15.0108C4.2576 13.5228 5.4624 12.318 6.9504 12.3132H6.96H9.5376C11.0256 12.3132 12.2352 13.5228 12.2352 15.0108H12.24Z" fill="#602F0F"/>
<path d="M16.9152 10.5996C16.92 11.8428 15.912 12.8508 14.6688 12.8556C14.664 12.8556 14.664 12.8556 14.6592 12.8556H9.84001C8.59681 12.8604 7.58881 11.8524 7.58401 10.6092C7.58401 10.6044 7.58401 10.6044 7.58401 10.5996C7.58401 9.35641 8.59201 8.34841 9.83521 8.34841H9.84001H14.64C15.8832 8.34361 16.8912 9.35161 16.896 10.5948V10.5996H16.9152Z" fill="#602F0F"/>
<path d="M45.6288 22.1053C45.6288 23.2429 44.7024 24.1693 43.5648 24.1693C42.4272 24.1693 41.5008 23.2429 41.5008 22.1053C41.5008 20.9677 42.4272 20.0413 43.5648 20.0413C44.7072 20.0413 45.6288 20.9677 45.6288 22.1053Z" fill="#602F0F"/>
<path d="M19.3344 28.2973C19.224 29.5261 18.1344 30.4333 16.9056 30.3229C15.6768 30.2125 14.7696 29.1229 14.88 27.8941C14.9856 26.7421 15.9504 25.8589 17.1072 25.8589C18.3984 25.9165 19.392 27.0109 19.3344 28.2973Z" fill="#421A07"/>
<path d="M34.4208 28.2973C34.3056 29.5261 33.2208 30.4285 31.992 30.3133C30.7632 30.1981 29.8608 29.1133 29.976 27.8845C30.0816 26.7373 31.0464 25.8589 32.1984 25.8589C33.4896 25.9165 34.4832 27.0109 34.4208 28.2973Z" fill="#421A07"/>
</svg>
