<svg width="66" height="66" viewBox="0 0 66 66" fill="none" xmlns="http://www.w3.org/2000/svg">
<path d="M31.1855 63.6929H9.85835C9.37327 63.6929 8.97998 63.2996 8.97998 62.8145V47.1135C8.97998 46.1783 9.73808 45.4202 10.6733 45.4202H29.4922C30.4274 45.4202 31.1855 46.1783 31.1855 47.1135V63.6929Z" fill="#495059"/>
<path d="M31.1856 52.2424H8.97998V62.8145C8.97998 63.2996 9.37327 63.6929 9.85835 63.6929H31.1855L31.1856 52.2424Z" fill="#7694E4"/>
<g opacity="0.1">
<path d="M20.0825 62.0783C19.5486 62.0783 19.1157 61.6456 19.1157 61.1115V54.8235C19.1157 54.2894 19.5486 53.8567 20.0825 53.8567C20.6164 53.8567 21.0493 54.2894 21.0493 54.8235V61.1115C21.0493 61.6456 20.6164 62.0783 20.0825 62.0783Z" fill="#151515"/>
<path d="M15.5083 62.0783C14.9744 62.0783 14.5415 61.6456 14.5415 61.1115V54.8235C14.5415 54.2894 14.9744 53.8567 15.5083 53.8567C16.0422 53.8567 16.4751 54.2894 16.4751 54.8235V61.1115C16.4751 61.6456 16.0422 62.0783 15.5083 62.0783Z" fill="#151515"/>
<path d="M24.6572 62.0783C24.1233 62.0783 23.6904 61.6456 23.6904 61.1115V54.8235C23.6904 54.2894 24.1233 53.8567 24.6572 53.8567C25.1912 53.8567 25.624 54.2894 25.624 54.8235V61.1115C25.624 61.6456 25.1912 62.0783 24.6572 62.0783Z" fill="#151515"/>
</g>
<path d="M8.03789 60.0648C7.65349 60.0648 7.26703 59.934 6.95069 59.6661C6.24106 59.065 6.15289 58.0027 6.75372 57.2931C8.84768 54.8197 12.6334 54.2706 18.0052 55.6605C20.3313 56.2625 21.5857 54.6455 23.6878 50.5456C24.3764 49.2023 25.0268 47.9336 25.8241 46.9576C26.4124 46.2375 27.4732 46.1307 28.1934 46.7189C28.9136 47.3073 29.0205 48.368 28.4321 49.0882C27.8607 49.7878 27.2894 50.9021 26.6844 52.082C25.8134 53.781 24.8261 55.7067 23.4577 57.1025C21.6687 58.9271 19.5501 59.5387 17.1616 58.9208C13.2612 57.9116 10.4776 58.1066 9.3236 59.4691C8.99076 59.8624 8.51587 60.0648 8.03789 60.0648Z" fill="#EDA751"/>
<path d="M6.75377 57.2933C6.15294 58.0029 6.24098 59.0652 6.95074 59.6663C7.26707 59.9342 7.65353 60.065 8.03793 60.065C8.51592 60.065 8.99081 59.8625 9.32377 59.4692C9.47459 59.291 9.65403 59.1335 9.85938 58.9953C9.51546 57.476 8.29794 56.6473 7.60042 56.4707C7.29298 56.7161 7.01055 56.9901 6.75377 57.2933Z" fill="#FCD79D"/>
<path d="M32.2372 65.0332C30.8591 65.0332 29.6841 63.9813 29.5573 62.5823C29.256 59.2591 28.1277 55.4847 26.9326 53.8025C26.0709 52.5895 26.3556 50.9078 27.5685 50.046C28.7814 49.1845 30.4632 49.469 31.325 50.682C33.3547 53.5393 34.5948 58.4734 34.9233 62.0958C35.0576 63.5776 33.9654 64.8876 32.4836 65.022C32.4009 65.0294 32.3187 65.0332 32.2372 65.0332Z" fill="#EDA751"/>
<path d="M16.4703 52.515C15.458 52.515 14.4881 51.9418 14.0296 50.9647C12.8288 48.4056 12.989 45.7389 14.469 43.6487C16.2705 41.1044 19.7477 39.76 23.5445 40.1424C25.0249 40.291 26.1045 41.6118 25.9557 43.0921C25.807 44.5726 24.4859 45.6524 23.0058 45.5033C20.9219 45.2941 19.3995 46.0094 18.8664 46.7623C18.7255 46.9614 18.351 47.4903 18.9074 48.6762C19.5394 50.0231 18.9598 51.6274 17.6129 52.2594C17.2429 52.4328 16.8535 52.515 16.4703 52.515Z" fill="#EDA751"/>
<path opacity="0.2" d="M23.5445 40.1422C21.9279 39.9794 20.37 40.1307 18.9739 40.5533C18.5505 41.8537 18.3218 43.2335 18.3218 44.6628C18.3218 45.614 18.4244 46.5429 18.6167 47.4415C18.6426 47.0804 18.7892 46.8712 18.8664 46.762C19.3996 46.0091 20.9221 45.2939 23.0058 45.503C24.4859 45.6521 25.807 44.5723 25.9557 43.0918C26.1045 41.6116 25.0249 40.2909 23.5445 40.1422Z" fill="#A35F00"/>
<path d="M40.3489 64.2874C39.7001 64.2874 39.0495 64.0546 38.5327 63.5826C37.4342 62.5792 37.357 60.8752 38.3604 59.7765C38.9028 59.1826 39.1304 58.5385 39.0766 57.7497C38.9755 56.2687 37.9017 54.7499 37.5008 54.4093C36.3126 53.5319 36.0516 51.8585 36.9206 50.6605C37.7942 49.4562 39.4787 49.1879 40.6831 50.0616C42.0408 51.0462 44.0998 53.8764 44.4268 57.0857C44.669 59.4625 43.9469 61.6495 42.3387 63.4104C41.8073 63.9921 41.0793 64.2874 40.3489 64.2874ZM37.5113 54.4169C37.5141 54.419 37.5171 54.4212 37.5198 54.4231C37.5169 54.4211 37.5141 54.419 37.5113 54.4169Z" fill="#EDA751"/>
<path d="M48.0773 48.8367C44.4905 48.8367 41.584 45.974 40.7343 45.0424C39.7316 43.9429 39.8101 42.2391 40.9095 41.2364C42.0088 40.2339 43.7128 40.3123 44.7154 41.4115C45.8836 42.6922 47.3613 43.5444 48.2294 43.4396C48.9401 43.3531 49.5516 42.4829 49.9395 41.7682C50.6491 40.4605 52.2847 39.9756 53.5923 40.6855C54.8999 41.3951 55.3847 43.0307 54.675 44.3383C52.8765 47.6522 50.531 48.5873 48.8801 48.7881C48.6094 48.8211 48.3413 48.8367 48.0773 48.8367Z" fill="#EDA751"/>
<path opacity="0.2" d="M28.1934 46.7189C27.4733 46.1307 26.4125 46.2375 25.8241 46.9576C25.0268 47.9336 24.3763 49.2023 23.6877 50.5456C22.9691 51.9471 22.3497 53.0581 21.7524 53.8898C22.5157 54.7127 23.3789 55.4514 24.3243 56.0889C25.2628 54.8517 26.0089 53.3992 26.6844 52.0819C27.2894 50.9021 27.8607 49.7876 28.4321 49.088C29.0204 48.368 28.9136 47.3073 28.1934 46.7189Z" fill="#A35F00"/>
<path opacity="0.2" d="M34.4007 58.6493C33.7979 55.7533 32.7589 52.6998 31.3255 50.682C30.4637 49.469 28.7818 49.1845 27.569 50.046C26.356 50.9078 26.0714 52.5896 26.9331 53.8025C27.5995 54.7404 28.2449 56.3292 28.738 58.1272C30.0893 58.5068 31.5198 58.7116 33.0004 58.7116C33.4726 58.7117 33.9395 58.69 34.4007 58.6493Z" fill="#A35F00"/>
<path opacity="0.2" d="M40.6831 50.0616C39.4788 49.1879 37.7942 49.4562 36.9206 50.6605C36.0516 51.8585 36.3126 53.5319 37.5008 54.4093C37.8795 54.7311 38.8581 56.105 39.0501 57.5049C40.8269 56.7607 42.4217 55.6994 43.7529 54.3976C42.9517 52.3758 41.6426 50.7574 40.6831 50.0616Z" fill="#A35F00"/>
<path opacity="0.2" d="M47.9282 44.6628C47.9282 44.2486 47.9079 43.8389 47.8704 43.4338C46.9904 43.3205 45.7347 42.5294 44.7149 41.4112C43.7123 40.3121 42.0084 40.2337 40.909 41.2362C39.8097 42.2388 39.7311 43.9427 40.7338 45.0421C41.5189 45.9028 44.0602 48.4103 47.2711 48.7871C47.6981 47.4825 47.9282 46.0975 47.9282 44.6628Z" fill="#A35F00"/>
<path d="M33 56.2095C39.8623 56.2095 45.4253 51.0401 45.4253 44.6633C45.4253 38.2866 39.8623 33.1172 33 33.1172C26.1377 33.1172 20.5747 38.2866 20.5747 44.6633C20.5747 51.0401 26.1377 56.2095 33 56.2095Z" fill="#FCD690"/>
<path opacity="0.15" d="M31.1854 56.0862C25.5072 52.3583 27.267 44.7176 28.2309 41.3762V33.9983C23.7353 35.7362 20.5742 39.8562 20.5742 44.663C20.5742 50.467 25.183 55.2701 31.1854 56.0862Z" fill="#C17A00"/>
<path d="M25.4384 24.6418C27.8699 22.6016 29.4933 19.1767 26.0638 14.1136C22.6071 9.01063 17.4607 7.7315 13.4429 8.20484C12.4524 8.3215 11.6212 9.01888 11.3343 9.97421C10.1704 13.8487 10.5365 19.1392 14.9617 23.4293C19.3521 27.6859 23.007 26.682 25.4384 24.6418Z" fill="#EDA751"/>
<path d="M11.1721 10.5669C10.2179 14.3765 10.7574 19.3537 14.9612 23.4292C18.7667 27.1187 22.0189 26.855 24.4015 25.391C22.7628 14.2674 15.6049 11.3176 11.1721 10.5669Z" fill="#FF91AB"/>
<path d="M40.5616 24.6418C38.1302 22.6016 36.5068 19.1767 39.9363 14.1136C43.3929 9.01063 48.5394 7.7315 52.5571 8.20484C53.5477 8.3215 54.3789 9.01888 54.6658 9.97421C55.8297 13.8487 55.4636 19.1392 51.0384 23.4293C46.648 27.6859 42.9931 26.682 40.5616 24.6418Z" fill="#EDA751"/>
<path d="M54.8275 10.5669C55.7817 14.3765 55.2422 19.3537 51.0385 23.4292C47.2329 27.1187 43.9807 26.855 41.5981 25.391C43.2368 14.2674 50.3947 11.3176 54.8275 10.5669Z" fill="#FF91AB"/>
<path d="M54.1543 27.7211C54.1543 37.3936 44.6831 41.63 32.9998 41.63C21.3165 41.63 11.8452 37.3936 11.8452 27.7211C11.8452 18.0486 21.3163 10.2075 32.9998 10.2075C44.6832 10.2075 54.1543 18.0486 54.1543 27.7211Z" fill="#FFDC9C"/>
<path opacity="0.15" d="M21.7044 12.9116C15.7798 16.0153 11.8452 21.4875 11.8452 27.7211C11.8452 36.036 18.8442 40.3336 28.2307 41.3763C14.7567 33.3278 16.5139 22.5017 21.7044 12.9116Z" fill="#C17A00"/>
<path d="M22.6194 31.179C24.7348 31.179 26.4497 29.8133 26.4497 28.1287C26.4497 26.444 24.7348 25.0784 22.6194 25.0784C20.504 25.0784 18.7891 26.444 18.7891 28.1287C18.7891 29.8133 20.504 31.179 22.6194 31.179Z" fill="#FF91AB"/>
<path d="M43.3811 31.179C45.4965 31.179 47.2114 29.8133 47.2114 28.1287C47.2114 26.444 45.4965 25.0784 43.3811 25.0784C41.2657 25.0784 39.5508 26.444 39.5508 28.1287C39.5508 29.8133 41.2657 31.179 43.3811 31.179Z" fill="#FF91AB"/>
<path d="M13.6911 14.2717C13.3661 14.2717 13.0365 14.1957 12.7283 14.0352C11.7055 13.5024 11.3084 12.2416 11.8411 11.2188C13.6396 7.76634 16.6181 5.10997 20.694 3.32346C24.2115 1.78174 28.4668 0.966797 32.9998 0.966797C37.5328 0.966797 41.788 1.78174 45.3056 3.32346C49.3815 5.10997 52.3601 7.76634 54.1585 11.2188C54.6912 12.2416 54.2941 13.5024 53.2713 14.0352C52.2487 14.5678 50.9878 14.1707 50.4551 13.148C49.1075 10.5613 46.8111 8.54249 43.6293 7.14798C40.6361 5.83597 36.9604 5.14259 32.9998 5.14259C29.0392 5.14259 25.3635 5.8361 22.3703 7.14798C19.1885 8.54249 16.8919 10.5613 15.5445 13.148C15.1723 13.8624 14.4446 14.2717 13.6911 14.2717Z" fill="#495059"/>
<path d="M11.319 23.4578C7.37983 22.0241 5.34879 17.6686 6.78261 13.7295L7.04146 13.0184C8.47515 9.0793 12.8306 7.04825 16.7698 8.48208C17.9788 8.92216 18.602 10.2589 18.1621 11.4679L14.3048 22.0657C13.8647 23.2745 12.528 23.8978 11.319 23.4578Z" fill="#7694E4"/>
<path d="M54.6805 23.4578C58.6196 22.0241 60.6507 17.6686 59.2168 13.7295L58.958 13.0184C57.5243 9.0793 53.1688 7.04825 49.2297 8.48208C48.0207 8.92216 47.3974 10.2589 47.8374 11.4679L51.6946 22.0657C52.1347 23.2745 53.4715 23.8978 54.6805 23.4578Z" fill="#7694E4"/>
<path d="M49.0154 26.8353C47.9514 26.5693 45.4154 26.3798 44.1804 26.5432C43.6511 26.6132 43.2787 27.0992 43.3487 27.6285C43.4187 28.1576 43.9045 28.5306 44.4339 28.4602C45.3961 28.3328 47.7065 28.5012 48.5464 28.7112C48.625 28.7308 48.7039 28.7403 48.7817 28.7403C49.2148 28.7403 49.609 28.447 49.7188 28.0077C49.8484 27.4898 49.5333 26.9649 49.0154 26.8353ZM60.1255 13.3986L59.8667 12.6875C59.085 10.5398 57.5136 8.82492 55.4421 7.85903C54.4682 7.40489 53.4385 7.14437 52.3976 7.07438C50.6276 5.17223 48.375 3.61311 45.6936 2.43775C42.0546 0.843047 37.6651 0 32.9998 0C28.3346 0 23.945 0.843047 20.3059 2.43788C17.6245 3.61324 15.3719 5.17236 13.602 7.0745C12.5611 7.1445 11.5314 7.40502 10.5575 7.85916C8.48596 8.82505 6.9146 10.5399 6.13291 12.6876L5.87407 13.3988C5.09238 15.5466 5.19383 17.8703 6.15972 19.9417C7.12575 22.0132 8.84046 23.5846 10.9883 24.3662C11.0674 24.395 11.1475 24.4192 11.2277 24.4418C10.9962 25.5219 10.8785 26.6204 10.8785 27.721C10.8785 31.6052 12.2918 34.8407 15.0791 37.3377C16.0722 38.2274 17.2266 39.0065 18.5307 39.6764C16.5016 40.3223 14.8062 41.4994 13.68 43.0899C13.3722 43.5247 13.1147 43.9809 12.9068 44.4533H10.673C9.20616 44.4533 8.01288 45.6466 8.01288 47.1134V55.0363C7.2473 55.4583 6.58021 56.0015 6.01561 56.6683C5.07111 57.7836 5.2102 59.4594 6.32563 60.4039C6.79729 60.8033 7.39555 61.0246 8.01288 61.0305V62.8145C8.01288 63.8319 8.84059 64.6596 9.85804 64.6596H29.4013C30.0723 65.4833 31.0935 66 32.2371 66C32.3484 66 32.461 65.9948 32.5707 65.9849C34.5808 65.8026 36.0682 64.0188 35.886 62.0084C35.7418 60.4178 35.437 58.689 35.0172 57.0341C35.9422 56.903 36.8361 56.6825 37.6893 56.3836C37.886 56.7903 38.0768 57.3032 38.1117 57.8155C38.1478 58.3439 38.0128 58.723 37.6462 59.1244C36.9867 59.8465 36.6479 60.782 36.6922 61.759C36.7364 62.7358 37.1584 63.637 37.8803 64.2965C38.5566 64.9141 39.433 65.2543 40.3485 65.2543C41.3747 65.2543 42.3602 64.8199 43.0523 64.0624C43.2143 63.8849 43.3711 63.7001 43.5182 63.5133C43.8484 63.0937 43.776 62.4858 43.3564 62.1556C42.9368 61.8252 42.3289 61.8978 41.9987 62.3174C41.8808 62.4673 41.7547 62.6157 41.6247 62.7584C41.2934 63.121 40.8403 63.3207 40.3486 63.3207C39.9169 63.3207 39.5035 63.1602 39.1845 62.8687C38.8439 62.5577 38.6449 62.1326 38.6239 61.6716C38.603 61.2107 38.7629 60.7694 39.0741 60.4285C39.7968 59.6373 40.1131 58.7396 40.0409 57.6839C39.9887 56.9189 39.7389 56.1985 39.4661 55.6176C40.5152 55.0749 41.4782 54.4045 42.3316 53.629C42.8156 54.5337 43.3212 55.7734 43.4649 57.1837C43.5362 57.8825 43.5137 58.5692 43.3979 59.2244C43.3051 59.7502 43.6561 60.2518 44.1819 60.3446C44.2388 60.3547 44.2952 60.3595 44.3512 60.3595C44.8114 60.3595 45.2193 60.0294 45.3021 59.5606C45.4488 58.7297 45.4779 57.8641 45.3886 56.9876C45.2245 55.3772 44.6371 53.686 43.7191 52.1562C44.4065 51.3002 44.9784 50.3592 45.415 49.3538C46.3098 49.652 47.2015 49.8034 48.0768 49.8034C48.3845 49.8034 48.694 49.7849 48.9966 49.7479C50.8733 49.5193 53.5293 48.4756 55.5244 44.7993C55.9907 43.9399 56.0945 42.9503 55.8167 42.0127C55.5388 41.0753 54.9124 40.3022 54.0532 39.8356C53.1936 39.3693 52.2043 39.2652 51.2665 39.5433C50.3289 39.8212 49.5557 40.4477 49.0894 41.3071C48.581 42.244 48.1892 42.4705 48.1132 42.4798C47.8301 42.5143 46.9054 42.1696 45.8748 41.2078C45.8021 40.9713 45.7222 40.7366 45.6343 40.5038C46.6462 40.1026 47.5879 39.646 48.4513 39.1345C52.8149 36.5492 55.1213 32.6025 55.1213 27.7212C55.1213 26.6204 55.0036 25.5219 54.7721 24.4419C54.8522 24.4194 54.9323 24.3951 55.0114 24.3664C57.1593 23.5846 58.874 22.0133 59.84 19.9418C60.8058 17.8701 60.9072 15.5466 60.1255 13.3986ZM46.3689 43.9265C47.0352 44.2717 47.7233 44.4746 48.3456 44.3993C49.2447 44.2899 50.0666 43.5597 50.7887 42.2293C51.0088 41.8238 51.3736 41.5282 51.816 41.3972C52.2584 41.2659 52.7253 41.3151 53.1308 41.5351C53.5362 41.7552 53.8318 42.12 53.9629 42.5623C54.094 43.0047 54.045 43.4717 53.825 43.8771C52.2232 46.8287 50.1882 47.6551 48.763 47.8283C47.8882 47.9348 46.9727 47.8317 46.0389 47.5231C46.2698 46.6041 46.3924 45.6466 46.3924 44.6628C46.3924 44.4162 46.384 44.1708 46.3689 43.9265ZM21.0822 4.20879C24.4785 2.72044 28.5995 1.93359 32.9998 1.93359C37.4 1.93359 41.521 2.72044 44.9174 4.20879C46.8094 5.03804 48.4599 6.07123 49.8475 7.29029C49.5287 7.36673 49.212 7.45955 48.8992 7.57324C48.4091 7.75165 47.9873 8.03537 47.649 8.38896C47.5206 8.28996 47.3892 8.19302 47.2563 8.09712C47.2207 8.06798 47.184 8.0404 47.1449 8.01668C46.2074 7.35255 45.1625 6.7641 44.0174 6.26227C40.9027 4.89715 37.0928 4.17553 32.9998 4.17553C28.9069 4.17553 25.097 4.89715 21.9822 6.26227C20.8369 6.76423 19.7918 7.35281 18.8542 8.01694C18.8155 8.04053 18.7791 8.06773 18.7439 8.09647C18.6108 8.19251 18.4792 8.2897 18.3506 8.38883C18.0124 8.03524 17.5905 7.75152 17.1004 7.57311C16.7877 7.45929 16.4709 7.36648 16.1521 7.29016C17.5396 6.07136 19.1902 5.03817 21.0822 4.20879ZM19.2281 10.1591C19.3216 10.0824 19.4184 10.0079 19.5149 9.93313C20.5185 10.33 21.4574 10.8602 22.3221 11.5176C20.8898 12.1771 19.5438 12.9718 18.3081 13.8931L19.0705 11.7984C19.2682 11.2552 19.3131 10.6932 19.2281 10.1591ZM21.4383 8.68274C21.86 8.45264 22.2987 8.23479 22.7583 8.03331C25.6304 6.77454 29.1718 6.10925 32.9998 6.10925C36.8278 6.10925 40.3691 6.77454 43.2413 8.03331C43.7008 8.23479 44.1396 8.45264 44.5613 8.68274C43.514 9.2195 42.5383 9.89162 41.6425 10.6915C38.9563 9.74338 36.0309 9.24077 32.9998 9.24077C29.9687 9.24077 27.0433 9.74351 24.3573 10.6916C23.4614 9.89162 22.4856 9.2195 21.4383 8.68274ZM46.4847 9.93313C46.5812 10.0079 46.678 10.0825 46.7715 10.1591C46.6866 10.6932 46.7314 11.2552 46.9292 11.7984L47.6915 13.8931C46.4557 12.9718 45.1098 12.177 43.6775 11.5176C44.5422 10.8601 45.4811 10.33 46.4847 9.93313ZM12.312 22.6176C12.3097 22.6179 12.3075 22.6184 12.3053 22.6188C12.087 22.6497 11.8629 22.6269 11.6497 22.5492C11.6497 22.5492 11.6497 22.5492 11.6496 22.5492C8.21771 21.3002 6.44203 17.4919 7.69113 14.0602L7.94997 13.349C8.55506 11.6866 9.77129 10.3593 11.3746 9.61151C12.221 9.21693 13.1217 9.01106 14.028 8.99134C14.0329 8.99147 14.0378 8.99198 14.0427 8.99198C14.0573 8.99198 14.0719 8.99044 14.0864 8.98979C14.1143 8.98941 14.142 8.98747 14.1698 8.98747C14.9337 8.98747 15.6998 9.12141 16.439 9.39043C17.1451 9.64747 17.5104 10.431 17.2534 11.137L15.1569 16.8973C15.1561 16.8994 15.1553 16.9013 15.1547 16.9033L13.3963 21.7346C13.2717 22.0767 13.0215 22.3499 12.6917 22.5037C12.5695 22.5607 12.4417 22.5986 12.312 22.6176ZM15.2581 44.2072C16.3119 42.7189 18.0339 41.6857 20.1084 41.2615C19.7761 42.3609 19.6072 43.4989 19.6072 44.6628C19.6072 44.7844 19.6095 44.9055 19.6133 45.0263C18.9468 45.3225 18.4145 45.7274 18.0774 46.2032C17.5192 46.991 17.504 47.9612 18.032 49.0865C18.434 49.9434 18.0681 50.9662 17.2172 51.3758C17.2088 51.38 17.2003 51.3836 17.192 51.388C16.9626 51.4938 16.7199 51.5481 16.47 51.5481C15.8024 51.5481 15.1879 51.1579 14.9046 50.5537C13.8561 48.3188 13.9847 46.0056 15.2581 44.2072ZM19.7825 48.2653C19.4653 47.5891 19.5985 47.4013 19.6553 47.321C19.6994 47.2587 19.7714 47.1864 19.8654 47.111C20.1855 48.6129 20.7943 50.0185 21.6353 51.2754H19.8249C20.2276 50.345 20.2461 49.2531 19.7825 48.2653ZM9.94647 47.1134C9.94647 46.7129 10.2723 46.3869 10.673 46.3869H12.3483C12.1121 47.9637 12.3627 49.64 13.1092 51.2754H9.94647V47.1134ZM9.94647 53.209H15.0945C15.5251 53.3846 15.9908 53.4817 16.4703 53.4817C16.9476 53.4817 17.4118 53.3897 17.8528 53.209H21.0485C19.949 54.7883 19.2104 54.9737 18.2473 54.7246C14.9252 53.8649 12.1519 53.7199 9.9466 54.2828V53.209H9.94647ZM8.58561 58.8444C8.54797 58.8888 8.50517 58.9274 8.45902 58.9609C8.44549 58.9696 8.43221 58.9786 8.41906 58.988C8.30601 59.0589 8.17453 59.0981 8.03763 59.0981C7.91813 59.0981 7.74076 59.0686 7.57524 58.9285C7.27347 58.673 7.23583 58.2196 7.49145 57.9178C9.32514 55.7518 12.781 55.3074 17.7628 56.5965C20.3862 57.2759 21.9492 55.5605 23.2999 53.282C23.6475 53.6235 24.0161 53.9461 24.4028 54.2493C23.8448 55.1632 23.316 55.8662 22.7674 56.4257C21.2165 58.0076 19.4619 58.5176 17.4038 57.9849C13.0625 56.8614 10.0132 57.1588 8.58561 58.8444ZM9.94647 62.7262V60.2202C9.98579 60.1794 10.0243 60.1376 10.0612 60.094C10.9363 59.0606 13.5 58.9722 16.9191 59.8567C19.6281 60.5578 22.1277 59.8394 24.1477 57.7795C24.7846 57.1298 25.3866 56.3381 26.0072 55.3308C26.3042 55.5014 26.6084 55.6617 26.9201 55.8107C27.733 57.6853 28.3821 60.3304 28.5942 62.6697C28.5959 62.6887 28.5987 62.7073 28.6006 62.7262H9.94647ZM32.3955 64.0592C32.3433 64.064 32.29 64.0664 32.2371 64.0664C31.6237 64.0664 31.0852 63.7507 30.7794 63.2651C30.7608 63.2275 30.7406 63.1909 30.7174 63.1562C30.6114 62.957 30.5416 62.7342 30.5199 62.4949C30.3474 60.592 29.9024 58.493 29.3135 56.6937C30.485 57.0075 31.7217 57.176 32.9997 57.176C33.0193 57.176 33.0389 57.1753 33.0585 57.1753C33.4985 58.8317 33.8153 60.5839 33.9603 62.1831C34.0464 63.1316 33.3446 63.9731 32.3955 64.0592ZM47.4655 37.471C46.4432 38.0767 45.2959 38.5989 44.0382 39.036C44.0286 39.0393 44.0191 39.0422 44.0096 39.0458C40.9363 40.1094 37.2031 40.6631 32.9997 40.6631C32.0391 40.6631 31.0863 40.6334 30.1677 40.5747C29.6359 40.5393 29.1753 40.9449 29.1413 41.4778C29.1072 42.0107 29.5116 42.4702 30.0445 42.5043C31.004 42.5656 31.9982 42.5967 32.9997 42.5967C37.0446 42.5967 40.6985 42.1 43.8088 41.1427C43.9161 41.4227 44.0096 41.7063 44.0904 41.9928C44.0921 41.9988 44.0935 42.0047 44.0953 42.0108C44.3362 42.8706 44.4585 43.7575 44.4585 44.6628C44.4585 50.4963 39.318 55.2423 32.9995 55.2423C26.6811 55.2423 21.5406 50.4963 21.5406 44.6628C21.5406 43.4502 21.7585 42.2703 22.1896 41.1447C23.2197 41.4608 24.3123 41.7286 25.4692 41.9448C25.5292 41.956 25.589 41.9614 25.6479 41.9614C26.1042 41.9614 26.5103 41.637 26.5972 41.1721C26.6953 40.6472 26.3493 40.1423 25.8244 40.0442C24.4469 39.7868 23.1721 39.4536 21.9987 39.0496C21.9813 39.0429 21.9638 39.0371 21.9462 39.0314C19.6959 38.2505 17.8268 37.2034 16.369 35.8974C14.0086 33.783 12.8117 31.032 12.8117 27.7209C12.8117 26.5944 12.9524 25.4698 13.2288 24.3702C13.323 24.3362 13.4165 24.2988 13.5084 24.256C14.3063 23.8839 14.9117 23.2232 15.2129 22.3959L16.9091 17.7357C18.7298 15.7695 21.0939 14.1361 23.7607 13.0074C26.6349 11.7909 29.7434 11.1741 32.9994 11.1741C36.2555 11.1741 39.364 11.7909 42.2381 13.0074C44.9049 14.1361 47.2691 15.7695 49.0898 17.7357L50.7859 22.3959C51.087 23.2232 51.6924 23.8839 52.4904 24.256C52.5823 24.299 52.6758 24.3362 52.77 24.3702C53.0465 25.4698 53.1872 26.5944 53.1872 27.7209C53.1876 31.9409 51.2625 35.2212 47.4655 37.471ZM54.35 22.5492C54.3499 22.5492 54.3499 22.5492 54.35 22.5492C54.1373 22.6267 53.9141 22.6496 53.6962 22.6191C53.6918 22.6184 53.6874 22.6175 53.6831 22.6169C53.5549 22.5975 53.4287 22.5601 53.3081 22.5037C52.9781 22.3499 52.7279 22.0767 52.6035 21.7346L50.8451 16.9033C50.8444 16.9013 50.8435 16.8994 50.8429 16.8973L48.7463 11.137C48.4893 10.431 48.8548 9.64747 49.5608 9.39043C50.3061 9.11921 51.0688 8.99057 51.8196 8.99057C54.5257 8.99057 57.0721 10.6624 58.05 13.349L58.3089 14.0602C59.5576 17.4918 57.7819 21.3001 54.35 22.5492ZM25.9187 23.1037C25.599 23.3512 25.3879 23.5148 24.8514 23.5148C24.3149 23.5148 24.1037 23.3512 23.784 23.1037C23.362 22.777 22.7546 22.8542 22.4278 23.2765C22.1009 23.6985 22.1783 24.3058 22.6004 24.6327C23.0199 24.9575 23.654 25.4483 24.8515 25.4483C26.0491 25.4483 26.683 24.9574 27.1025 24.6327C27.5246 24.3058 27.602 23.6985 27.2751 23.2765C26.9483 22.8542 26.3409 22.7768 25.9187 23.1037ZM22.2222 29.4217C21.0177 29.7414 18.7455 30.8827 17.8632 31.5341C17.4336 31.8513 17.3425 32.4565 17.6597 32.886C17.8493 33.1428 18.1418 33.2787 18.4382 33.2787C18.6376 33.2787 18.8388 33.2172 19.0117 33.0897C19.7082 32.5755 21.7802 31.5396 22.7182 31.2906C23.2344 31.1535 23.5417 30.6241 23.4047 30.1081C23.2676 29.5921 22.7385 29.2851 22.2222 29.4217ZM21.5657 28.4602C22.0954 28.5299 22.581 28.1578 22.651 27.6285C22.721 27.0992 22.3487 26.6132 21.8193 26.5432C20.5839 26.3799 18.0484 26.5693 16.9842 26.8353C16.4662 26.9649 16.1512 27.4898 16.2808 28.0078C16.3906 28.447 16.7848 28.7404 17.2179 28.7404C17.2955 28.7404 17.3744 28.731 17.4532 28.7113C18.2932 28.5012 20.6035 28.3327 21.5657 28.4602ZM43.5719 23.2763C43.2451 22.8542 42.6379 22.7768 42.2156 23.1036C41.8959 23.3511 41.6847 23.5147 41.1482 23.5147C40.6117 23.5147 40.4006 23.3511 40.0809 23.1036C39.6588 22.7768 39.0516 22.854 38.7245 23.2763C38.3976 23.6984 38.475 24.3057 38.8971 24.6326C39.3166 24.9574 39.9507 25.4482 41.1481 25.4482C42.3456 25.4482 42.9796 24.9573 43.3992 24.6326C43.8215 24.3058 43.8988 23.6985 43.5719 23.2763ZM48.1364 31.5341C47.2541 30.8827 44.9818 29.7414 43.7774 29.4217C43.2616 29.2851 42.732 29.5921 42.5949 30.1081C42.4579 30.6241 42.7652 31.1535 43.2814 31.2906C44.2194 31.5396 46.2915 32.5755 46.9879 33.0897C47.1607 33.2172 47.3619 33.2787 47.5614 33.2787C47.8578 33.2787 48.1504 33.1428 48.34 32.886C48.6571 32.4565 48.566 31.8513 48.1364 31.5341ZM35.7833 24.4173C35.3806 24.0665 34.7701 24.1084 34.4192 24.511C34.0608 24.9222 33.5434 25.1581 32.9997 25.1581C32.4559 25.1581 31.9386 24.9223 31.5802 24.511C31.2293 24.1086 30.6185 24.0667 30.2161 24.4173C29.8135 24.7682 29.7716 25.3788 30.1225 25.7814C30.8481 26.614 31.8969 27.0916 32.9995 27.0916C34.1023 27.0916 35.151 26.614 35.8766 25.7814C36.2277 25.3788 36.1859 24.7682 35.7833 24.4173Z" fill="#151515"/>
</svg>
