<svg width="68" height="68" viewBox="0 0 68 68" fill="none" xmlns="http://www.w3.org/2000/svg">
<g clip-path="url(#clip0_20_658)">
<path d="M24.8741 56.7718C23.8531 56.7718 22.7955 56.5761 21.706 56.1844C17.1792 54.5573 14.8114 53.9791 12.663 55.6999C11.8047 56.3877 10.5515 56.2488 9.86402 55.3906C9.17645 54.5321 9.3151 53.279 10.1735 52.5916C14.2966 49.2888 18.7484 50.8893 23.0532 52.4367C26.2949 53.602 27.95 51.7343 30.5972 48.3333C30.9531 47.8758 31.3214 47.4029 31.6974 46.9425C32.3931 46.0908 33.6476 45.9644 34.4992 46.6602C35.351 47.356 35.4774 48.6105 34.7816 49.4621C34.4353 49.8861 34.0975 50.3201 33.7401 50.7795C32.4017 52.4987 31.018 54.2768 29.1987 55.4575C27.8491 56.3332 26.4026 56.7718 24.8741 56.7718Z" fill="#EDA751"/>
<path d="M11.6645 51.6111C11.1632 51.8742 10.6658 52.1969 10.1731 52.5916C9.31475 53.2791 9.17636 54.5322 9.86366 55.3905C10.5512 56.2489 11.8043 56.3875 12.6627 55.6998C13.0118 55.4201 13.3672 55.2022 13.7363 55.0386C13.59 53.4852 12.6118 52.2617 11.6645 51.6111Z" fill="#FCD79D"/>
<path d="M33.6819 66.9989C33.3294 66.9989 32.9712 66.94 32.6199 66.8158C30.9611 66.2293 30.0915 64.4091 30.678 62.75C31.7601 59.6895 32.7507 56.3297 31.8942 54.6167C31.1073 53.0428 31.7452 51.1291 33.319 50.3422C34.8931 49.5552 36.8068 50.1933 37.5936 51.767C39.405 55.39 38.5408 59.6268 36.6857 64.8737C36.2232 66.1816 34.994 66.9989 33.6819 66.9989Z" fill="#EDA751"/>
<path d="M22.5944 48.3098C18.9226 48.3098 15.2315 46.9194 12.9128 44.6002C11.6686 43.356 11.6686 41.3387 12.9128 40.0945C14.1569 38.8504 16.1744 38.8502 17.4184 40.0947C18.6885 41.3648 21.115 42.1096 23.3163 41.9048C24.6091 41.785 25.6324 41.3459 26.0541 40.7303C27.0485 39.2786 29.0314 38.9076 30.483 39.9016C31.9348 40.8958 32.3057 42.8787 31.3116 44.3303C29.7875 46.5563 27.157 47.9481 23.905 48.2495C23.47 48.2899 23.032 48.3098 22.5944 48.3098Z" fill="#EDA751"/>
<path d="M50.9768 64.383C50.6243 64.383 50.266 64.3241 49.9148 64.1999C48.256 63.6133 47.3866 61.7931 47.9731 60.134C48.3419 59.091 48.2743 58.2405 47.7602 57.4571C47.2434 56.6697 46.496 56.2564 46.3384 56.1963C44.6783 55.6136 43.8074 53.7963 44.3902 52.1359C44.9727 50.4757 46.7939 49.6033 48.454 50.1858C50.0726 50.7537 52.4183 52.3686 53.7026 55.0499C54.7664 57.2709 54.8625 59.7634 53.9807 62.258C53.5183 63.5658 52.2891 64.383 50.9768 64.383Z" fill="#EDA751"/>
<path opacity="0.2" d="M53.4667 54.5927C52.1465 52.1848 49.978 50.7209 48.454 50.1861C46.7938 49.6035 44.9727 50.4759 44.3901 52.1361C43.8073 53.7963 44.6783 55.6137 46.3384 56.1965C46.496 56.2566 47.2434 56.6699 47.7602 57.4573C47.9998 57.8223 48.141 58.2025 48.1877 58.6095C50.2181 57.6073 52.0116 56.237 53.4667 54.5927Z" fill="#A35F00"/>
<path opacity="0.2" d="M33.319 50.3423C31.7452 51.1292 31.1073 53.0429 31.8942 54.6168C32.3536 55.5358 32.2812 56.9286 31.9488 58.4947C33.8068 59.4457 35.8705 60.0848 38.0593 60.3382C38.8184 57.0967 38.8518 54.2836 37.5936 51.7671C36.8066 50.1935 34.893 49.5556 33.319 50.3423Z" fill="#A35F00"/>
<path opacity="0.2" d="M34.4989 46.6601C33.6472 45.9645 32.3928 46.0908 31.6971 46.9425C31.3211 47.4028 30.9528 47.8758 30.5969 48.3333C28.6967 50.7745 27.3078 52.4255 25.4763 52.732C26.26 53.9248 27.2026 55.0163 28.2775 55.9785C28.589 55.8263 28.8961 55.6535 29.1982 55.4575C31.0175 54.2768 32.4013 52.4987 33.7396 50.7794C34.097 50.32 34.4349 49.886 34.7811 49.4621C35.4769 48.6105 35.3505 47.3559 34.4989 46.6601Z" fill="#A35F00"/>
<path opacity="0.2" d="M30.483 39.9014C29.0313 38.9075 27.0483 39.2784 26.0541 40.7302C25.6327 41.3458 24.6091 41.7848 23.3163 41.9046C23.2399 41.9118 23.1627 41.915 23.0858 41.9199C22.971 42.6743 22.9104 43.4449 22.9104 44.2286C22.9104 45.628 23.0999 46.9867 23.4559 48.2831C23.6058 48.274 23.7555 48.2634 23.9046 48.2496C27.1568 47.9481 29.7873 46.5564 31.3114 44.3305C32.3057 42.8785 31.9347 40.8958 30.483 39.9014Z" fill="#A35F00"/>
<path d="M40.1837 57.8823C48.2997 57.8823 54.8791 51.7691 54.8791 44.228C54.8791 36.687 48.2997 30.5737 40.1837 30.5737C32.0676 30.5737 25.4883 36.687 25.4883 44.228C25.4883 51.7691 32.0676 57.8823 40.1837 57.8823Z" fill="#FCD690"/>
<path opacity="0.15" d="M38.0373 57.7381C31.3222 53.3294 33.4034 44.2934 34.5433 40.3417V31.6165C29.2268 33.6717 25.4884 38.5442 25.4884 44.2286C25.4884 51.0926 30.9389 56.7728 38.0373 57.7381Z" fill="#C17A00"/>
<path d="M31.2406 20.5513C34.1161 18.1385 36.0359 14.0881 31.9801 8.10051C27.8923 2.06565 21.806 0.552919 17.0544 1.11259C15.883 1.25058 14.9 2.07535 14.5607 3.20505C13.1844 7.7872 13.6172 14.0437 18.8507 19.1174C24.0428 24.1513 28.3651 22.9639 31.2406 20.5513Z" fill="#EDA751"/>
<path d="M14.3694 3.90625C13.241 8.41151 13.8791 14.2975 18.8505 19.1174C23.351 23.4807 27.1969 23.1689 30.0147 21.4375C28.077 8.28241 19.6118 4.79397 14.3694 3.90625Z" fill="#FF91AB"/>
<path d="M49.1261 20.5512C46.2505 18.1384 44.3307 14.088 48.3866 8.10042C52.4745 2.06556 58.5608 0.552831 63.3121 1.11263C64.4835 1.25063 65.4665 2.07539 65.8058 3.20509C67.1821 7.78725 66.7493 14.0438 61.5161 19.1175C56.3237 24.1512 52.0014 22.9638 49.1261 20.5512Z" fill="#EDA751"/>
<path d="M65.9971 3.90625C67.1255 8.41151 66.4874 14.2975 61.516 19.1174C57.0155 23.4807 53.1696 23.1689 50.3518 21.4375C52.2897 8.28241 60.7549 4.79397 65.9971 3.90625Z" fill="#FF91AB"/>
<path d="M65.2009 24.1928C65.2009 35.6316 54.0001 40.6417 40.1832 40.6417C26.3664 40.6417 15.1655 35.6317 15.1655 24.1928C15.1655 12.7538 26.3662 3.48096 40.1832 3.48096C54.0002 3.48096 65.2009 12.7539 65.2009 24.1928Z" fill="#FFDC9C"/>
<path opacity="0.15" d="M26.825 6.67896C19.8185 10.3494 15.1655 16.821 15.1655 24.1929C15.1655 34.0261 23.4425 39.1085 34.5434 40.3417C18.6086 30.8234 20.6867 18.0203 26.825 6.67896Z" fill="#C17A00"/>
<path d="M40.1833 22.3051C39.1991 22.3051 38.315 21.8818 37.699 21.209C37.6071 21.4768 37.5549 21.7626 37.5549 22.0614C37.5549 22.9981 36.9664 23.2045 36.7729 23.2722C35.4031 23.7526 34.682 25.2526 35.1623 26.6226C35.5417 27.7046 36.5574 28.3818 37.6426 28.3818C37.9312 28.3818 38.2248 28.3339 38.5125 28.2329C41.6823 27.1213 42.8117 24.3159 42.8117 22.0613C42.8117 21.7624 42.7596 21.4765 42.6676 21.2087C42.0515 21.8818 41.1675 22.3051 40.1833 22.3051Z" fill="#FF91AB"/>
<path opacity="0.1" d="M37.6426 26.7489C37.2314 26.7489 36.8466 26.4922 36.7028 26.0822C36.5207 25.5633 36.7939 24.995 37.3131 24.8129C38.8397 24.2776 39.1391 22.9754 39.1817 22.2469C39.2139 21.6978 39.684 21.2787 40.2341 21.3108C40.7832 21.343 41.2023 21.814 41.1702 22.3632C41.0501 24.4138 39.8547 26.0323 37.9721 26.6922C37.8632 26.7307 37.7519 26.7489 37.6426 26.7489Z" fill="#151515"/>
<path d="M27.9064 28.2831C30.4078 28.2831 32.4357 26.6678 32.4357 24.6752C32.4357 22.6827 30.4078 21.0674 27.9064 21.0674C25.4049 21.0674 23.3771 22.6827 23.3771 24.6752C23.3771 26.6678 25.4049 28.2831 27.9064 28.2831Z" fill="#FF91AB"/>
<path d="M52.4597 28.2831C54.9612 28.2831 56.989 26.6678 56.989 24.6752C56.989 22.6827 54.9612 21.0674 52.4597 21.0674C49.9583 21.0674 47.9304 22.6827 47.9304 24.6752C47.9304 26.6678 49.9583 28.2831 52.4597 28.2831Z" fill="#FF91AB"/>
<path d="M66.7634 36.055C65.9348 33.7784 63.0919 32.5578 59.5284 32.6165C59.1296 32.623 58.7601 32.8428 58.5679 33.1924C58.1807 33.897 57.5464 34.4697 56.7314 34.7664C56.5868 34.819 56.4411 34.8611 56.2949 34.8932C56.0716 34.9423 55.8958 35.1082 55.8179 35.3231C55.3797 36.5338 54.429 37.549 53.1244 38.0238C51.6385 38.5647 50.0534 38.2743 48.8765 37.3909C48.4325 37.0576 47.808 37.1159 47.4088 37.502C46.5196 38.3621 45.8271 39.2753 45.3728 40.1932C45.2993 40.3415 45.1264 40.4119 44.9697 40.3587C43.7445 39.9426 42.1464 39.6234 40.2632 39.6475C38.5683 39.6691 37.4001 41.3564 37.9798 42.9493L40.2824 49.2756C40.8621 50.8685 42.8415 51.4101 44.154 50.3371C45.6121 49.1451 46.631 47.8735 47.3021 46.767C47.3879 46.6257 47.5655 46.5681 47.7168 46.6345C50.2826 47.7587 54.1912 47.7134 58.1529 46.2716C64.1656 44.0831 68.0206 39.5091 66.7634 36.055Z" fill="#7694E4"/>
<path opacity="0.1" d="M42.4108 42.9751C42.2281 42.4735 41.6735 42.2149 41.1716 42.3974L38.1759 43.4878L38.8372 45.3046C38.8372 45.3046 38.8372 45.3046 38.8373 45.3046L41.833 44.2142C42.3347 44.0315 42.5934 43.4767 42.4108 42.9751ZM43.66 46.4076C43.4774 45.9059 42.9226 45.6474 42.4208 45.8299L39.4251 46.9203L40.0864 48.7372L43.0821 47.6468C43.584 47.4642 43.8427 46.9094 43.66 46.4076Z" fill="#151515"/>
<path d="M20.078 39.0982C18.7642 37.7502 17.4092 36.8462 16.2491 36.274C16.0994 36.2002 16.0264 36.027 16.0797 35.8691C16.5372 34.5126 16.6573 32.8327 16.4294 31.0048C16.3701 30.5299 15.9352 30.1849 15.461 30.2517C13.6117 30.5122 11.7323 29.5557 10.902 27.7752C10.0435 25.9345 10.5811 23.8011 12.08 22.5674C12.4499 22.2629 12.488 21.7064 12.1802 21.3393C9.54861 18.2016 6.30149 16.6902 3.87952 17.8196C0.548193 19.3731 0.0396554 25.3334 2.74371 31.1322C4.52486 34.952 7.25574 37.7475 9.86444 38.7675C10.0197 38.8281 10.1051 38.9956 10.0655 39.1574C9.75806 40.4139 9.57982 42.0329 9.76775 43.9058C9.93709 45.5924 11.7197 46.6092 13.2561 45.8928L19.3576 43.0476C20.8941 42.3312 21.2612 40.3121 20.078 39.0982Z" fill="#7694E4"/>
<path opacity="0.1" d="M14.1807 41.944C13.955 41.4602 13.3798 41.2506 12.896 41.4765C12.4121 41.7022 12.2028 42.2774 12.4285 42.7612L13.7758 45.6506L15.5282 44.8334L14.1807 41.944ZM18.8386 43.2897L17.4913 40.4002C17.2655 39.9164 16.6903 39.7068 16.2066 39.9327C15.7227 40.1584 15.5133 40.7336 15.7389 41.2174L17.0863 44.1069L18.8386 43.2897Z" fill="#151515"/>
<path d="M57.4176 50.5246C55.8775 50.5246 54.523 49.4054 54.2748 47.8361C54.1349 46.9521 53.8316 45.9965 53.3734 44.9952C52.6412 43.3954 53.3444 41.5047 54.9445 40.7723C56.5448 40.0403 58.4351 40.7435 59.1674 42.3435C59.8667 43.8714 60.338 45.3841 60.5685 46.8401C60.8435 48.5781 59.6576 50.21 57.9197 50.4848C57.751 50.5117 57.5833 50.5246 57.4176 50.5246Z" fill="#EDA751"/>
<path d="M67.6993 35.7145C67.1294 34.1488 65.8135 32.9746 63.9643 32.2936C65.4452 29.9486 66.1972 27.2314 66.1972 24.1929C66.1972 21.657 65.6807 19.1893 64.6903 16.8723C67.4416 12.7605 68.1989 7.70929 66.7599 2.91862C66.3054 1.40549 64.9979 0.308463 63.429 0.123588C58.654 -0.439536 53.9549 1.0542 50.4314 4.22815C47.235 3.08623 43.7641 2.48512 40.1836 2.48512C36.603 2.48512 33.1321 3.08623 29.9357 4.22815C26.4119 1.05394 21.7129 -0.439669 16.9382 0.123455C15.3691 0.30833 14.0617 1.40523 13.6071 2.91849C12.1679 7.70929 12.9252 12.7604 15.6767 16.8721C14.6862 19.1889 14.1697 21.6567 14.1697 24.1928C14.1697 26.0172 14.4409 27.7213 14.9716 29.2943C13.6282 29.3443 12.3847 28.5971 11.8051 27.3541C11.1563 25.9626 11.5298 24.3104 12.7135 23.3361C13.0946 23.0224 13.3297 22.5767 13.3753 22.0813C13.4213 21.5849 13.2639 21.0811 12.9438 20.6993C9.89247 17.061 6.25833 15.6118 3.45905 16.917C-0.42943 18.7302 -1.13998 25.1592 1.84139 31.5531C3.57021 35.2604 6.20693 38.1738 8.97673 39.4693C8.69092 40.9004 8.62172 42.4563 8.77725 44.0052C8.88894 45.1186 9.53627 46.1138 10.5089 46.667C11.0363 46.9671 11.6265 47.1181 12.2179 47.1181C12.7157 47.1181 13.2144 47.011 13.6772 46.795L13.8925 46.6946C16.3155 48.3593 19.4504 49.3054 22.5946 49.3054C23.0632 49.3054 23.5352 49.2838 23.9967 49.2409C24.4576 49.1982 24.9143 49.1302 25.3642 49.0431C25.6574 49.8278 26.02 50.582 26.4454 51.2997C25.501 51.8933 24.6061 51.9367 23.3894 51.4991C19.0393 49.9354 14.1086 48.163 9.55075 51.814C8.92799 52.3128 8.53673 53.0242 8.44907 53.8173C8.36141 54.6103 8.58786 55.3901 9.08683 56.013C9.58554 56.6357 10.297 57.0267 11.09 57.1145C11.8832 57.2019 12.6631 56.9757 13.2857 56.4768C14.9526 55.1417 16.7663 55.467 21.3692 57.1213C22.5617 57.55 23.7411 57.7674 24.8742 57.7674C26.5955 57.7674 28.2328 57.2714 29.7406 56.2927C29.9981 56.1255 30.2503 55.9448 30.5017 55.75C30.7356 55.9217 30.9754 56.0866 31.2197 56.2459C31.2367 57.9397 30.4513 60.4045 29.7393 62.4181C28.9707 64.5922 30.1141 66.9862 32.2883 67.7548C32.7391 67.914 33.2081 67.9949 33.6821 67.9949C35.4506 67.9949 37.0352 66.8741 37.6249 65.2058C38.5356 62.6299 39.0874 60.6243 39.3667 58.8594C39.6374 58.8724 39.9096 58.8792 40.1836 58.8792C42.4311 58.8792 44.6014 58.4418 46.6003 57.6029C46.7133 57.7168 46.8268 57.8494 46.928 58.0037C47.1666 58.3672 47.3657 58.8654 47.0345 59.8022C46.2659 61.9761 47.4091 64.37 49.583 65.1389C50.0335 65.2981 50.5026 65.379 50.9771 65.379C52.7337 65.379 54.3147 64.2686 54.9108 62.6156C55.0975 62.0983 54.8294 61.5276 54.3119 61.3409C53.795 61.154 53.2239 61.4223 53.0372 61.9397C52.7248 62.8055 51.897 63.3871 50.977 63.3871C50.7292 63.3871 50.4836 63.3447 50.2469 63.2609C49.1085 62.8585 48.5098 61.6046 48.9122 60.466C49.3866 59.1242 49.2822 57.9613 48.593 56.9108C48.5424 56.8338 48.4905 56.7599 48.4374 56.689C48.8609 56.4432 49.2754 56.1799 49.6772 55.8944C50.4791 55.3246 51.2173 54.6819 51.8851 53.982C52.2448 54.4528 52.5527 54.9541 52.8048 55.4803C53.1954 56.296 53.4419 57.1595 53.5371 58.0478C53.5918 58.5586 54.0236 58.9376 54.5262 58.9376C54.5616 58.9376 54.5975 58.9356 54.6336 58.9318C55.1804 58.8732 55.5763 58.3823 55.5176 57.8354C55.3983 56.7219 55.0899 55.64 54.6012 54.6198C54.2259 53.8362 53.7513 53.0993 53.1863 52.4203C53.6732 51.7476 54.0997 51.038 54.4613 50.3003C55.2202 51.0604 56.2675 51.5205 57.4181 51.5205C57.637 51.5205 57.8581 51.5029 58.0756 51.4685C59.1788 51.294 60.1481 50.7002 60.805 49.7966C61.4616 48.8929 61.7271 47.7878 61.5526 46.6846C61.5109 46.4213 61.4592 46.1559 61.4029 45.8895C66.3445 43.1769 68.9203 39.0692 67.6993 35.7145ZM63.6423 14.7798C62.3727 12.579 60.6488 10.5517 58.5087 8.78002C58.3632 8.6597 58.2162 8.5411 58.0683 8.42409C60.4848 6.4829 63.1301 5.5329 65.2272 5.07045C65.6449 7.38483 65.7509 11.0404 63.6423 14.7798ZM63.1956 2.10169C63.8501 2.17886 64.4119 2.5757 64.7099 3.14547C62.274 3.69358 59.1856 4.83816 56.4045 7.21643C55.1816 6.40003 53.8828 5.68271 52.5223 5.07005C55.5191 2.72086 59.3288 1.64588 63.1956 2.10169ZM17.1709 2.10169C21.0378 1.64641 24.8473 2.72113 27.8443 5.07018C26.4836 5.68284 25.185 6.40016 23.9621 7.21656C21.1809 4.83842 18.0927 3.69358 15.6568 3.14547C15.9546 2.5757 16.5164 2.17872 17.1709 2.10169ZM15.1394 5.07058C17.2365 5.53303 19.8819 6.48304 22.2983 8.42422C22.1501 8.54136 22.0031 8.65983 21.8579 8.78002C19.7178 10.5517 17.9939 12.579 16.7243 14.7798C14.6153 11.0405 14.7215 7.38483 15.1394 5.07058ZM13.5912 44.6376C13.5908 44.6377 13.5904 44.638 13.5901 44.6381L12.8353 44.99C12.4002 45.1929 11.9111 45.1731 11.4935 44.9355C11.0749 44.6972 10.807 44.2855 10.7589 43.8061C10.5652 41.8774 10.8012 40.3421 11.0332 39.3936C11.1907 38.7491 10.8443 38.0811 10.2273 37.8397C7.77066 36.8792 5.24896 34.1477 3.64645 30.711C1.22063 25.5089 1.52012 20.0186 4.30068 18.722C4.70576 18.533 5.15028 18.4413 5.62216 18.4413C7.35669 18.4413 9.46136 19.6813 11.3407 21.8883C9.53999 23.4505 8.98656 26.0232 9.99965 28.1958C10.9819 30.302 13.1622 31.5188 15.4566 31.2558C15.6452 32.886 15.5349 34.3683 15.1359 35.5505C14.9242 36.1784 15.2133 36.8734 15.8086 37.167C16.684 37.5987 18.0114 38.4046 19.3646 39.793C19.3646 39.7931 19.3646 39.7931 19.3646 39.7931C19.7011 40.1382 19.8442 40.6079 19.7576 41.0817C19.6712 41.5544 19.3721 41.9418 18.9367 42.1447L13.5912 44.6376ZM23.8128 47.2577C23.4118 47.2949 23.0018 47.3138 22.5944 47.3138C20.2777 47.3138 17.9773 46.7305 16.0566 45.6855L19.7788 43.9499C20.3269 43.6942 20.7896 43.3014 21.1317 42.821C21.6202 42.8952 22.1113 42.9336 22.5928 42.9336C22.8688 42.9336 23.1413 42.9213 23.4084 42.8964C23.8237 42.8579 24.2143 42.7902 24.5769 42.6971C24.5209 43.2027 24.4925 43.7134 24.4925 44.2285C24.4925 45.2199 24.5992 46.1883 24.8012 47.125C24.4754 47.1826 24.1451 47.2269 23.8128 47.2577ZM25.0495 40.3448C24.7445 40.5762 24.1387 40.8283 23.2242 40.9132C22.7571 40.9567 22.2657 40.9503 21.7711 40.8967C21.7914 39.9756 21.4438 39.0726 20.791 38.403V38.4031C19.7041 37.288 18.4676 36.3407 17.1875 35.6398C17.3391 35.0672 17.439 34.4506 17.4919 33.8037C19.3782 36.0808 22.044 37.9099 25.4303 39.2294C25.2873 39.5971 25.1602 39.969 25.0495 40.3448ZM28.6559 54.622C27.4764 55.3877 26.2041 55.7756 24.874 55.7756C23.9711 55.7756 23.0186 55.5977 22.0427 55.247C17.5726 53.6403 14.6691 52.8167 12.04 54.9225C11.8326 55.0886 11.5728 55.1644 11.3088 55.135C11.0444 55.1056 10.8074 54.9753 10.6411 54.7679C10.4749 54.5601 10.3994 54.3005 10.4285 54.0362C10.4577 53.772 10.5881 53.5351 10.7956 53.3688C14.4835 50.4147 18.4821 51.852 22.7159 53.3739C24.5483 54.0325 26.0832 53.9007 27.5739 52.9378C27.992 53.4642 28.4474 53.9633 28.9356 54.4325C28.8428 54.4978 28.7498 54.5612 28.6559 54.622ZM35.7466 64.5419C35.4377 65.4159 34.608 66.0031 33.6818 66.0031C33.4342 66.0031 33.1887 65.9606 32.9517 65.8769C31.8131 65.4745 31.2144 64.2206 31.6168 63.082C32.2855 61.1907 32.947 59.1147 33.1492 57.3218C34.4661 57.9411 35.8881 58.3927 37.3837 58.6452C37.119 60.2634 36.5993 62.1302 35.7466 64.5419ZM40.1832 56.8874C32.6295 56.8874 26.4842 51.2086 26.4842 44.2285C26.4842 42.7299 26.7632 41.2733 27.3127 39.8865C28.2732 40.1861 29.282 40.4499 30.34 40.6759C30.4101 40.6908 30.4801 40.6981 30.549 40.6981C31.0088 40.6981 31.4221 40.3777 31.522 39.91C31.6369 39.3721 31.294 38.843 30.7561 38.7281C26.2101 37.757 22.6423 36.0752 20.1521 33.7287C17.5041 31.2335 16.1613 28.0253 16.1613 24.193C16.1613 13.3215 26.9376 4.47717 40.1834 4.47717C53.4291 4.47717 64.2052 13.3217 64.2052 24.193C64.2052 27.0857 63.4347 29.6337 61.9156 31.7775C61.1656 31.6621 60.3622 31.6079 59.5121 31.6209C58.7548 31.6336 58.0587 32.0518 57.6952 32.7129C57.4103 33.2312 56.9472 33.6283 56.3904 33.8307C56.2902 33.8672 56.1862 33.8975 56.0807 33.9207C55.5268 34.0428 55.0785 34.4403 54.8817 34.9843C54.5266 35.9654 53.7618 36.7321 52.7838 37.0882C51.6656 37.4952 50.4286 37.3107 49.4744 36.5945C48.6394 35.9678 47.4798 36.0482 46.7167 36.7863C45.9005 37.5756 45.2415 38.4009 44.752 39.2458C43.3516 38.8365 41.8115 38.631 40.2506 38.6516C39.3757 38.6629 38.5455 39.0076 37.9206 39.5971C37.0089 39.5587 36.1082 39.4978 35.2381 39.4126C34.6909 39.3607 34.2036 39.7594 34.1501 40.3069C34.0964 40.8542 34.4967 41.3413 35.0442 41.395C35.646 41.4538 36.2622 41.501 36.8854 41.5386C36.7883 42.119 36.8378 42.7226 37.0443 43.2898L39.3469 49.6159C39.729 50.6657 40.6004 51.4695 41.678 51.7658C41.9792 51.8485 42.2866 51.889 42.5924 51.889C43.3823 51.889 44.1603 51.6188 44.7849 51.1081C45.9906 50.1224 47.0421 48.973 47.8515 47.7591C49.3473 48.2983 51.1725 48.5093 53.1276 48.3748C51.2329 53.4199 46.0169 56.8874 40.1832 56.8874ZM59.193 48.6257C58.8492 49.0989 58.3416 49.4099 57.7635 49.5015C57.6487 49.5196 57.5322 49.5288 57.4176 49.5288C56.3882 49.5288 55.5173 48.824 55.2894 47.8328C55.2862 47.8149 55.2827 47.7972 55.2785 47.7797C55.2718 47.7467 55.2637 47.7143 55.2583 47.6807C55.2249 47.4693 55.1816 47.2541 55.1316 47.0365C55.1315 47.0357 55.1312 47.0347 55.1311 47.0338C54.9512 46.2506 54.6668 45.4288 54.2789 44.5812C53.7763 43.4829 54.2607 42.1808 55.3586 41.6783C55.6532 41.5435 55.9621 41.4799 56.2668 41.4799C57.0977 41.4799 57.894 41.9548 58.2616 42.7582C58.7036 43.7241 59.0468 44.6806 59.2917 45.6172C59.2928 45.6213 59.2938 45.6256 59.2949 45.6297C59.4151 46.0904 59.5134 46.5469 59.5844 46.9962C59.6762 47.5737 59.537 48.1526 59.193 48.6257ZM60.8576 43.9075C60.6363 43.2517 60.3761 42.5914 60.0728 41.929C59.1131 39.8325 56.6267 38.9077 54.53 39.8669C52.4333 40.8264 51.5083 43.3129 52.4677 45.4098C52.6215 45.7458 52.7556 46.075 52.8705 46.3962C51.0441 46.5089 49.3858 46.2781 48.1169 45.7223C47.5113 45.4567 46.795 45.6834 46.4505 46.2503C45.9442 47.0852 45.0254 48.3382 43.5235 49.5659C43.1503 49.8709 42.6699 49.9727 42.2052 49.8452C41.742 49.7178 41.3821 49.386 41.2178 48.9347L38.9153 42.6085C38.751 42.1573 38.8133 41.6718 39.0865 41.2767C39.3603 40.8803 39.7937 40.6493 40.2755 40.643C42.2155 40.6203 43.7245 40.9874 44.6492 41.3016C45.2763 41.5143 45.9709 41.2279 46.265 40.6348C46.6692 39.818 47.287 39.0046 48.1007 38.2176C48.1533 38.1669 48.233 38.1532 48.2781 38.1872C49.7724 39.3089 51.7111 39.5976 53.4646 38.9596C54.9452 38.4207 56.1138 37.2821 56.6936 35.8207C56.8217 35.7867 56.9482 35.7469 57.0714 35.7021C58.0814 35.3345 58.9228 34.6136 59.4401 33.6722C59.4595 33.637 59.5013 33.613 59.5442 33.6123C62.7786 33.5596 65.1827 34.6257 65.8268 36.3958C66.6438 38.6382 64.5393 41.7422 60.8576 43.9075ZM62.6454 37.2057L62.452 37.1155L62.5422 36.9221C62.7747 36.4237 62.559 35.8311 62.0606 35.5987C61.5624 35.3662 60.9697 35.5818 60.7371 36.0802L60.6469 36.2736L60.4536 36.1834C59.9553 35.951 59.3626 36.1666 59.1301 36.665C58.8975 37.1635 59.1132 37.7561 59.6117 37.9885L59.805 38.0787L59.7149 38.272C59.4823 38.7705 59.698 39.3631 60.1964 39.5955C60.3326 39.6591 60.4759 39.6892 60.6167 39.6892C60.9916 39.6892 61.3508 39.4761 61.5199 39.1139L61.6101 38.9206L61.8035 39.0107C61.9396 39.0744 62.0828 39.1044 62.2237 39.1044C62.5986 39.1044 62.9579 38.8913 63.1269 38.5292C63.3595 38.0307 63.1438 37.4381 62.6454 37.2057ZM7.38418 22.776L7.18377 22.7031L7.25668 22.5027C7.44488 21.9858 7.17832 21.4145 6.66142 21.2263C6.14451 21.0383 5.57315 21.3048 5.38496 21.8214L5.31204 22.0218L5.11163 21.9489C4.59486 21.7612 4.02337 22.0274 3.83517 22.544C3.64698 23.0609 3.91353 23.6323 4.4303 23.8205L4.63085 23.8934L4.55794 24.0938C4.36974 24.6107 4.63629 25.1821 5.1532 25.3703C5.26569 25.4112 5.38057 25.4306 5.4936 25.4306C5.9004 25.4306 6.28237 25.1793 6.42953 24.775L6.50244 24.5746L6.70285 24.6475C6.81535 24.6884 6.93036 24.7078 7.04338 24.7078C7.45006 24.7078 7.83202 24.4565 7.97931 24.0522C8.16751 23.5357 7.90095 22.9642 7.38418 22.776ZM30.7 17.8119C29.0773 17.8119 27.7572 19.1321 27.7572 20.7549C27.7572 21.305 28.203 21.7507 28.7531 21.7507C29.3031 21.7507 29.749 21.305 29.749 20.7549C29.749 20.2304 30.1756 19.8037 30.7 19.8037C31.2245 19.8037 31.6511 20.2303 31.6511 20.7549C31.6511 21.305 32.097 21.7507 32.6469 21.7507C33.1969 21.7507 33.6428 21.305 33.6428 20.7549C33.6428 19.1322 32.3226 17.8119 30.7 17.8119ZM52.5681 24.0638C52.6402 24.6091 53.1423 24.9916 53.6859 24.9207C54.8604 24.765 57.5775 24.964 58.6046 25.2209C58.6857 25.241 58.767 25.2509 58.8469 25.2509C59.2931 25.2509 59.6992 24.9487 59.8125 24.4962C59.9458 23.9626 59.6214 23.4219 59.0879 23.2884C57.8417 22.9769 54.8717 22.7552 53.4251 22.9462C52.8797 23.0182 52.4961 23.5186 52.5681 24.0638ZM47.7195 21.7507C48.2696 21.7507 48.7155 21.305 48.7155 20.7549C48.7155 20.2304 49.1421 19.8037 49.6667 19.8037C50.191 19.8037 50.6178 20.2303 50.6178 20.7549C50.6178 21.305 51.0635 21.7507 51.6137 21.7507C52.164 21.7507 52.6095 21.305 52.6095 20.7549C52.6095 19.1321 51.2895 17.8119 49.6667 17.8119C48.0439 17.8119 46.7237 19.1321 46.7237 20.7549C46.7236 21.3049 47.1694 21.7507 47.7195 21.7507ZM40.1832 23.3009C41.4445 23.3009 42.6442 22.7547 43.4746 21.8019C43.8358 21.3874 43.7929 20.7582 43.378 20.3967C42.9634 20.0353 42.3345 20.0786 41.9729 20.4933C41.521 21.0118 40.8687 21.3093 40.1831 21.3093C39.4975 21.3093 38.8451 21.0119 38.3932 20.4933C38.0318 20.0789 37.4027 20.0355 36.988 20.3967C36.5734 20.7581 36.5304 21.3874 36.8915 21.8019C37.7221 22.7547 38.9218 23.3009 40.1832 23.3009ZM57.9963 28.8207C56.9627 28.0577 54.3013 26.721 52.8911 26.3466C52.3596 26.2055 51.8143 26.522 51.6731 27.0537C51.5319 27.5852 51.8485 28.1305 52.3802 28.2717C53.5249 28.5757 55.9617 29.7945 56.8134 30.4232C56.9916 30.5546 57.1986 30.6181 57.4041 30.6181C57.7095 30.6181 58.0107 30.478 58.2061 30.2135C58.5328 29.7709 58.4389 29.1474 57.9963 28.8207ZM27.4751 26.3466C26.0649 26.7208 23.4036 28.0577 22.3701 28.8207C21.9275 29.1474 21.8335 29.7709 22.1601 30.2134C22.3554 30.478 22.6567 30.6178 22.9621 30.6178C23.1676 30.6178 23.3748 30.5545 23.5527 30.4231C24.4047 29.7945 26.8413 28.5756 27.9861 28.2715C28.5177 28.1302 28.8343 27.585 28.6932 27.0534C28.5522 26.522 28.007 26.2055 27.4751 26.3466ZM26.6806 24.9207C27.2258 24.9936 27.7262 24.6091 27.7984 24.0638C27.8703 23.5186 27.4866 23.0182 26.9414 22.946C25.495 22.7553 22.525 22.977 21.2787 23.2883C20.7451 23.4218 20.4206 23.9625 20.5541 24.4961C20.6673 24.9485 21.0733 25.2507 21.5195 25.2507C21.5995 25.2507 21.6808 25.241 21.7619 25.2207C22.7888 24.9641 25.5059 24.7653 26.6806 24.9207Z" fill="#151515"/>
</g>
<defs>
<clipPath id="clip0_20_658">
<rect width="68" height="68" fill="white" transform="translate(0 0.000976562)"/>
</clipPath>
</defs>
</svg>
