<svg width="68" height="68" viewBox="0 0 68 68" fill="none" xmlns="http://www.w3.org/2000/svg">
<g clip-path="url(#clip0_20_632)">
<path d="M23.3848 57.1602C23.2898 57.1602 23.1947 57.158 23.0996 57.1535C20.2695 57.0203 17.7696 54.9248 16.7307 51.8151C15.895 49.3133 14.3824 48.8282 13.7709 48.7357C12.9044 48.6057 12.0977 48.93 11.6129 49.6057C11.0327 50.4141 9.90697 50.5994 9.09841 50.019C8.28985 49.4388 8.10484 48.313 8.68496 47.5044C9.95571 45.7336 12.1109 44.8395 14.3094 45.1724C16.9484 45.5712 19.1313 47.6277 20.1489 50.6731C20.704 52.3343 21.9578 53.4919 23.2692 53.5536C24.9463 53.6328 26.6427 52.0123 27.9272 49.1084C28.3299 48.1981 29.3938 47.7864 30.3042 48.1895C31.2142 48.592 31.6257 49.6561 31.223 50.5663C30.2517 52.7619 29.0457 54.446 27.6381 55.5719C26.3347 56.6144 24.87 57.1602 23.3848 57.1602Z" fill="#EDA751"/>
<path d="M8.68502 47.5047C8.10476 48.3131 8.2899 49.4391 9.09847 50.0192C9.90703 50.5996 11.0327 50.4143 11.613 49.6059C11.8473 49.2795 12.157 49.0359 12.5119 48.8851C12.2282 47.5759 11.2745 46.5714 10.2567 46.019C9.65322 46.4046 9.11719 46.9025 8.68502 47.5047Z" fill="#FCD79D"/>
<path d="M40.8395 67.0037C40.7498 67.0037 40.6595 66.9996 40.5686 66.9912C38.9833 66.8434 37.8178 65.4385 37.9655 63.8531C38.3427 59.8055 38.3901 57.2983 37.5622 55.6424C36.8502 54.2183 37.4274 52.4864 38.8515 51.7744C40.2758 51.0625 42.0075 51.6397 42.7195 53.0637C44.1668 55.9582 44.183 59.2768 43.7067 64.3881C43.5674 65.8824 42.311 67.0037 40.8395 67.0037Z" fill="#EDA751"/>
<path d="M31.454 67.0037C31.3643 67.0037 31.274 66.9996 31.1831 66.9912C29.5978 66.8434 28.4323 65.4385 28.58 63.8531C28.9572 59.8055 29.0046 57.2983 28.1767 55.6424C27.4647 54.2183 28.0419 52.4864 29.466 51.7744C30.8906 51.0625 32.622 51.6397 33.334 53.0637C34.7813 55.9582 34.7975 59.2768 34.3212 64.3881C34.1819 65.8824 32.9255 67.0037 31.454 67.0037Z" fill="#EDA751"/>
<path opacity="0.2" d="M30.3041 48.1896C29.3937 47.7865 28.3299 48.1984 27.9272 49.1085C26.6425 52.0125 24.9461 53.6328 23.2692 53.5538C22.6735 53.5258 22.0905 53.2697 21.5785 52.8448C22.3936 54.3987 23.4865 55.8011 24.7963 56.9944C25.7886 56.7607 26.7509 56.2816 27.6381 55.5719C29.0456 54.4461 30.2518 52.7621 31.2229 50.5664C31.6256 49.6564 31.2143 48.5923 30.3041 48.1896Z" fill="#A35F00"/>
<path opacity="0.2" d="M29.466 51.7741C28.0419 52.4862 27.4647 54.218 28.1767 55.6422C28.6721 56.633 28.8539 57.9289 28.8394 59.6769C30.5896 60.4897 32.5202 61.0086 34.5583 61.1645C34.7158 57.7904 34.4523 55.2999 33.334 53.0635C32.622 51.6393 30.8906 51.0623 29.466 51.7741Z" fill="#A35F00"/>
<path opacity="0.2" d="M43.9825 59.1121C43.9487 56.7356 43.5982 54.8208 42.7195 53.0635C42.0075 51.6394 40.2758 51.0622 38.8515 51.7741C37.4274 52.4861 36.8502 54.218 37.5622 55.6422C38.1797 56.8773 38.3102 58.5866 38.18 61.0551C40.2735 60.7659 42.2354 60.0919 43.9825 59.1121Z" fill="#A35F00"/>
<path d="M35.8596 58.598C43.2034 58.598 49.1568 53.0657 49.1568 46.2412C49.1568 39.4166 43.2034 33.8843 35.8596 33.8843C28.5157 33.8843 22.5624 39.4166 22.5624 46.2412C22.5624 53.0657 28.5157 58.598 35.8596 58.598Z" fill="#FCD690"/>
<path opacity="0.15" d="M33.9171 58.4664C27.8406 54.4769 29.7237 46.3002 30.7553 42.7242V34.8286C25.9443 36.6884 22.5613 41.0976 22.5613 46.2416C22.5614 52.4528 27.4937 57.5931 33.9171 58.4664Z" fill="#C17A00"/>
<path d="M40.5676 51.6689C38.6757 51.6689 36.8646 51.3006 35.3949 50.5966C33.959 49.9085 33.3527 48.1867 34.0406 46.7507C34.7285 45.3146 36.4504 44.7085 37.8864 45.3963C39.7658 46.2972 43.799 46.1414 46.0978 43.8428C47.2235 42.7169 49.0491 42.7167 50.175 43.8427C51.301 44.9685 51.301 46.794 50.175 47.9199C48.2957 49.7992 45.6597 51.0728 42.7529 51.5062C42.0223 51.6152 41.289 51.6689 40.5676 51.6689Z" fill="#EDA751"/>
<path d="M31.1504 51.669C30.4288 51.669 29.6958 51.6153 28.9651 51.5066C26.0581 51.0732 23.4222 49.7995 21.5429 47.9204C20.417 46.7945 20.417 44.9689 21.5429 43.843C22.6687 42.717 24.4942 42.717 25.6201 43.843C27.9188 46.1417 31.9519 46.2973 33.8315 45.3967C35.2675 44.709 36.9892 45.315 37.6772 46.7511C38.3652 48.1869 37.7589 49.9088 36.3229 50.5969C34.8535 51.3007 33.042 51.669 31.1504 51.669Z" fill="#EDA751"/>
<path opacity="0.2" d="M31.1504 51.6688C30.4288 51.6688 29.6958 51.6151 28.9651 51.5063C26.0581 51.073 23.4222 49.7993 21.5429 47.9201C20.417 46.7943 20.417 44.9686 21.5429 43.8428C22.6687 42.7168 24.4942 42.7168 25.6201 43.8428C27.9188 46.1415 31.9519 46.297 33.8315 45.3964C35.2675 44.7087 36.9892 45.3147 37.6772 46.7508C38.3652 48.1867 37.7589 49.9086 36.3229 50.5967C34.8535 51.3005 33.042 51.6688 31.1504 51.6688Z" fill="#A35F00"/>
<path d="M27.7666 24.8154C30.3686 22.6321 32.106 18.9667 28.4357 13.5485C24.7365 8.08738 19.229 6.71862 14.9292 7.22516C13.8692 7.35001 12.9798 8.09641 12.6727 9.11867C11.4272 13.2651 11.819 18.9267 16.5547 23.5179C21.2532 28.0733 25.1645 26.9988 27.7666 24.8154Z" fill="#EDA751"/>
<path d="M12.4997 9.75317C11.4786 13.83 12.056 19.1564 16.5547 23.518C20.6273 27.4664 24.1076 27.1843 26.6574 25.6175C24.9037 13.7132 17.2435 10.5566 12.4997 9.75317Z" fill="#FF91AB"/>
<path d="M43.9514 24.8154C41.3493 22.6321 39.612 18.9667 43.2822 13.5485C46.9815 8.08738 52.4889 6.71862 56.7887 7.22516C57.8489 7.35001 58.7382 8.09641 59.0454 9.11867C60.2909 13.2651 59.8991 18.9267 55.1634 23.5179C50.4646 28.0733 46.5534 26.9988 43.9514 24.8154Z" fill="#EDA751"/>
<path d="M59.2183 9.75317C60.2394 13.83 59.6621 19.1564 55.1633 23.518C51.0908 27.4664 47.6104 27.1843 45.0607 25.6175C46.8142 13.7132 54.4746 10.5566 59.2183 9.75317Z" fill="#FF91AB"/>
<path d="M58.4979 28.1109C58.4979 38.462 48.362 42.9957 35.8589 42.9957C23.3558 42.9957 13.22 38.462 13.22 28.1109C13.22 17.7598 23.3557 9.36841 35.8589 9.36841C48.3622 9.36841 58.4979 17.7596 58.4979 28.1109Z" fill="#FFDC9C"/>
<path opacity="0.15" d="M23.7709 12.2622C17.4305 15.5836 13.22 21.4398 13.22 28.111C13.22 37.0092 20.7101 41.6083 30.7553 42.7242C16.3356 34.1111 18.2161 22.5253 23.7709 12.2622Z" fill="#C17A00"/>
<path d="M47.8291 26.8887C47.2838 26.9608 46.9001 27.4615 46.9721 28.0068C47.0442 28.552 47.5445 28.9364 48.0901 28.8638C49.1236 28.7272 51.604 28.9078 52.5056 29.1332C52.5867 29.1534 52.668 29.1632 52.7479 29.1632C53.1942 29.1632 53.6003 28.8611 53.7135 28.4085C53.847 27.8747 53.5225 27.3339 52.9887 27.2004C51.8536 26.9166 49.1477 26.7143 47.8291 26.8887ZM59.9992 8.8323C59.577 7.42688 58.3626 6.40781 56.9052 6.23609C52.5763 5.72582 48.3152 7.07174 45.1111 9.93637C42.2842 8.93324 39.222 8.39668 36.0631 8.3745C36.3538 8.31327 36.6147 8.12534 36.7547 7.83741L38.1951 4.87462C38.3489 4.55813 38.3245 4.18413 38.1307 3.89048C37.937 3.59684 37.6023 3.42657 37.2512 3.44423L36.1963 3.49523L37.4495 1.53187C37.6591 1.20355 37.658 0.783336 37.447 0.456086C37.236 0.128836 36.8537 -0.0447504 36.4682 0.00996839L32.5615 0.571367C32.017 0.649593 31.639 1.15455 31.7172 1.69908C31.7956 2.24361 32.3001 2.62119 32.8449 2.54337L34.6018 2.29089L33.4807 4.04747C33.2803 4.36144 33.2718 4.76094 33.4586 5.08314C33.6455 5.40534 33.9971 5.59633 34.3684 5.5784L35.6688 5.51545L34.9633 6.96655C34.7228 7.46141 34.9289 8.05734 35.4236 8.29787C35.4957 8.33293 35.57 8.35816 35.6449 8.37477C32.4895 8.39801 29.431 8.93444 26.607 9.93651C23.4028 7.07187 19.1415 5.72555 14.8128 6.23622C13.3554 6.40795 12.1409 7.42701 11.7188 8.83244C10.4134 13.1786 11.0932 17.7601 13.5756 21.4968C12.6874 23.5912 12.2241 25.8204 12.2241 28.1112C12.2241 32.2952 13.7595 35.7724 16.7875 38.4459C18.3155 39.795 20.1882 40.9071 22.3863 41.7739C22.3262 41.9324 22.2693 42.0919 22.2155 42.2523C21.7131 42.4405 21.242 42.7352 20.8385 43.1386C19.3261 44.6512 19.3261 47.1122 20.8385 48.6248C21.2153 49.0016 21.62 49.3554 22.0489 49.6853C22.334 50.6839 22.744 51.6467 23.2664 52.5536C22.3927 52.4814 21.5047 51.5889 21.0935 50.3579C19.9551 46.9504 17.4745 44.6439 14.4584 44.1881C11.888 43.798 9.36593 44.8473 7.87564 46.924C7.43988 47.5312 7.2667 48.2718 7.38795 49.0093C7.50921 49.7468 7.91044 50.3929 8.51739 50.8284C9.77088 51.7281 11.5223 51.4402 12.4221 50.1867C12.688 49.8162 13.1253 49.6466 13.6218 49.7209C14.0521 49.7858 15.1243 50.1511 15.7858 52.131C16.9562 55.634 19.8086 57.996 23.0533 58.1489C23.1638 58.154 23.2742 58.1566 23.3846 58.1566C24.7552 58.1566 26.1178 57.7514 27.3648 56.9808C27.4578 57.0452 27.5521 57.1073 27.6464 57.1694C27.9655 58.6638 27.8615 60.824 27.5878 63.7606C27.3894 65.8904 28.9606 67.7846 31.0909 67.983C31.2113 67.9942 31.3334 67.9999 31.4537 67.9999C33.4668 67.9999 35.1257 66.4867 35.3127 64.4805C35.5029 62.4397 35.5927 60.9061 35.5957 59.5893C35.6834 59.5907 35.7706 59.5943 35.8587 59.5943C36.32 59.5943 36.777 59.5721 37.2296 59.5325C37.228 60.583 37.1467 61.9011 36.9734 63.7608C36.8772 64.7924 37.1887 65.8 37.8502 66.5974C38.5118 67.3948 39.4442 67.887 40.4765 67.9831C40.5969 67.9943 40.719 68 40.8393 68C42.3333 68 43.71 67.1256 44.3468 65.7725C44.581 65.2747 44.3673 64.6813 43.8696 64.447C43.3718 64.2129 42.7784 64.4264 42.5442 64.9242C42.2345 65.5826 41.5653 66.0078 40.8394 66.0078C40.7803 66.0078 40.7202 66.0049 40.6609 65.9995C40.159 65.9527 39.7055 65.7134 39.3837 65.3254C39.0619 64.9375 38.9105 64.4475 38.9572 63.9455C39.1526 61.8484 39.2349 60.3962 39.2201 59.2244C40.5204 58.9334 41.7657 58.4722 42.932 57.848C42.9975 58.7208 43.0064 59.6983 42.9613 60.8313C42.9393 61.3812 43.3673 61.8444 43.917 61.8663C43.9305 61.8669 43.9439 61.8671 43.9573 61.8671C44.4891 61.8671 44.9306 61.4469 44.952 60.9107C45.0185 59.2404 44.9731 57.868 44.8097 56.6517C47.1778 54.8724 48.8907 52.4114 49.6691 49.6849C50.0979 49.355 50.5026 49.001 50.8793 48.6244C52.3917 47.1119 52.3917 44.651 50.8793 43.1384C50.4816 42.7408 50.0124 42.441 49.5012 42.2493C49.4473 42.0882 49.3902 41.928 49.3297 41.7689C50.4243 41.337 51.4424 40.8446 52.3749 40.2921C57.0322 37.5327 59.494 33.3205 59.494 28.111C59.494 25.8201 59.0305 23.591 58.1425 21.4965C60.625 17.7598 61.3048 13.1785 59.9992 8.8323ZM57.0848 19.4014C55.9388 17.456 54.4009 15.6625 52.5024 14.0906C52.401 14.0067 52.2981 13.9246 52.1953 13.8425C54.3062 12.1757 56.6015 11.339 58.4455 10.9213C58.8009 12.9742 58.8674 16.1446 57.0848 19.4014ZM56.6722 8.21446C57.1905 8.27555 57.641 8.57093 57.9078 9.00084C55.7279 9.50659 53 10.5374 50.5305 12.6299C49.4792 11.9328 48.3667 11.3162 47.2038 10.7839C50.9244 7.92334 54.9853 8.01564 56.6722 8.21446ZM15.0458 8.21446C16.7325 8.01564 20.7934 7.92334 24.5141 10.7839C23.3512 11.3162 22.2387 11.9328 21.1874 12.6299C18.7181 10.5372 15.9902 9.50646 13.8101 9.00084C14.0769 8.57106 14.5274 8.27569 15.0458 8.21446ZM13.2726 10.9214C15.1166 11.3391 17.4118 12.1757 19.5226 13.8425C19.4198 13.9247 19.3169 14.0068 19.2156 14.0906C17.317 15.6625 15.7792 17.456 14.6331 19.4014C12.8505 16.1446 12.9171 12.9742 13.2726 10.9214ZM22.2472 47.2158C21.5115 46.4801 21.5115 45.2828 22.2472 44.5472C22.615 44.1793 23.0982 43.9953 23.5814 43.9953C24.0646 43.9953 24.5477 44.1793 24.9156 44.5472C27.6261 47.2575 32.1624 47.3008 34.2616 46.2947C35.2004 45.8452 36.3295 46.2429 36.7788 47.1813C37.2284 48.1196 36.8308 49.2486 35.8924 49.6983C34.5808 50.3266 32.8966 50.6728 31.1502 50.6728C30.4732 50.6728 29.7874 50.6218 29.112 50.5211C27.0188 50.2091 25.0838 49.4306 23.5129 48.2902C23.5078 48.2865 23.5028 48.2828 23.4977 48.2791C23.05 47.9529 22.6303 47.5988 22.2472 47.2158ZM23.1464 56.1588C20.7306 56.0452 18.5831 54.2163 17.6755 51.4996C16.6654 48.476 14.7126 47.8709 13.9187 47.7508C12.6738 47.564 11.5101 48.0404 10.8036 49.0251C10.5445 49.3859 10.0398 49.4689 9.67897 49.2098C9.50406 49.0845 9.38851 48.8983 9.35371 48.686C9.31878 48.4736 9.36872 48.2603 9.49423 48.0854C10.546 46.6197 12.334 45.8814 14.1605 46.1575C16.422 46.4993 18.3074 48.3055 19.204 50.9888C19.8884 53.0375 21.5033 54.468 23.2221 54.5488C23.6578 54.5701 24.0924 54.5088 24.5218 54.3683C24.8836 54.8089 25.2749 55.229 25.6936 55.6256C24.8663 56.0154 23.9984 56.1982 23.1464 56.1588ZM33.3293 64.2955C33.2383 65.2715 32.4321 66.0076 31.4538 66.0076C31.3947 66.0076 31.3346 66.0046 31.2753 65.9992C30.2394 65.9026 29.4751 64.9813 29.5716 63.9454C29.7861 61.6432 29.8966 59.8291 29.8023 58.3416C31.006 58.8698 32.2807 59.2352 33.6035 59.4288C33.6069 60.717 33.5188 62.2625 33.3293 64.2955ZM43.5751 55.0886C41.947 56.3016 40.0673 57.0912 38.0529 57.4228C38.0338 57.4256 38.015 57.4291 37.9965 57.4328C37.2984 57.5445 36.5844 57.602 35.859 57.602C33.3877 57.602 31.0477 56.9438 29.0279 55.6904C29.0191 55.6852 29.0105 55.6797 29.0015 55.6746C28.7083 55.4917 28.4219 55.2965 28.143 55.0886C26.7753 54.0697 25.6635 52.7885 24.8776 51.3553C26.1051 51.8983 27.4336 52.2851 28.8184 52.4916C29.5909 52.6066 30.3754 52.6651 31.1504 52.6651C32.8474 52.6651 34.4562 52.3921 35.862 51.8713C37.2692 52.391 38.8859 52.6651 40.5676 52.6651C41.3427 52.6651 42.1273 52.6068 42.8998 52.4916C44.2846 52.2851 45.6131 51.8983 46.8404 51.3553C46.0546 52.7883 44.9428 54.0696 43.5751 55.0886ZM49.4707 44.547C50.2063 45.2828 50.2063 46.48 49.4707 47.2158C49.0892 47.5972 48.6715 47.9498 48.2261 48.2748C48.2172 48.2811 48.2084 48.2874 48.1998 48.2941C46.6299 49.4323 44.6968 50.2094 42.6061 50.5211C41.9306 50.6218 41.2448 50.6728 40.5676 50.6728C39.7104 50.6728 38.879 50.5892 38.0955 50.4324C38.9187 49.4089 39.1911 48.0023 38.7372 46.712C41.0651 47.2061 44.5583 46.7909 46.8021 44.5472C47.1584 44.1907 47.6321 43.9945 48.1363 43.9945C48.6404 43.9945 49.1142 44.1907 49.4707 44.547ZM51.3594 38.5782C50.2637 39.2274 49.0342 39.7872 47.6866 40.2556C47.6756 40.2593 47.6645 40.2628 47.6536 40.2669C44.3607 41.4066 40.3613 41.9997 35.859 41.9997C34.8695 41.9997 33.8879 41.9702 32.9415 41.9122C32.3922 41.8812 31.92 42.2963 31.8863 42.8455C31.8525 43.3945 32.2704 43.8669 32.8196 43.9006C33.8064 43.9611 34.8289 43.9919 35.859 43.9919C39.4283 43.9919 42.7132 43.6309 45.6208 42.9297C45.543 42.9962 45.4666 43.0653 45.3935 43.1384C43.4327 45.0991 39.8926 45.2532 38.3165 44.4978C37.5487 44.1301 36.6856 44.0274 35.8571 44.1987C35.0551 44.0331 34.195 44.1177 33.4011 44.4979C31.8253 45.2533 28.2851 45.0989 26.3245 43.1383C26.2505 43.0643 26.1738 42.9951 26.0954 42.9283C26.7322 43.0813 27.3869 43.2204 28.0634 43.3418C28.6044 43.4401 29.1226 43.0788 29.2198 42.5372C29.3169 41.9957 28.9567 41.478 28.4152 41.3809C26.8502 41.1002 25.4061 40.7295 24.0822 40.2743C24.0477 40.2607 24.0129 40.2487 23.9778 40.239C21.6191 39.416 19.6525 38.3176 18.1061 36.9522C15.525 34.6732 14.2162 31.6985 14.2162 28.1108C14.2162 18.3253 23.9251 10.3644 35.8591 10.3644C47.7931 10.3644 57.502 18.3253 57.502 28.1108C57.5018 32.6416 55.4353 36.1633 51.3594 38.5782ZM52.0347 32.2224C51.093 31.5274 48.6681 30.3094 47.3831 29.9681C46.8513 29.8272 46.306 30.1435 46.1647 30.6752C46.0235 31.2068 46.3401 31.7523 46.8718 31.8936C47.8789 32.1611 50.1038 33.2733 50.8518 33.8252C51.0297 33.9566 51.2369 34.0201 51.4425 34.0201C51.748 34.0201 52.0495 33.8799 52.2448 33.6152C52.5713 33.1727 52.4773 32.549 52.0347 32.2224ZM24.3348 29.9681C23.0497 30.3093 20.6248 31.5273 19.6832 32.2224C19.2405 32.5492 19.1466 33.1727 19.4732 33.6154C19.6686 33.8799 19.9699 34.0199 20.2754 34.0199C20.4809 34.0199 20.6882 33.9567 20.8662 33.8252C21.614 33.2733 23.8388 32.1611 24.846 31.8936C25.3777 31.7523 25.6943 31.2068 25.5531 30.6752C25.4121 30.1437 24.8665 29.8272 24.3348 29.9681ZM46.4497 23.22C46.9904 23.1184 47.3463 22.5978 47.2449 22.0571C47.1433 21.5166 46.6222 21.1604 46.0821 21.2621C45.8353 21.3084 45.5925 21.3545 45.3524 21.4001C42.5469 21.9327 40.1241 22.3926 35.859 22.3926C31.5938 22.3926 29.1709 21.9327 26.3654 21.4001C26.1253 21.3544 25.8825 21.3084 25.6359 21.2621C25.095 21.1608 24.5747 21.5167 24.4731 22.0571C24.3715 22.5978 24.7274 23.1184 25.2682 23.22C25.5137 23.2661 25.7551 23.3119 25.9939 23.3572C26.0781 23.3731 26.1619 23.3891 26.2456 23.4049C26.1804 23.5373 26.1428 23.6859 26.1428 23.8436V25.2911C26.1428 25.8413 26.5888 26.2872 27.1389 26.2872C27.689 26.2872 28.135 25.8413 28.135 25.2911V23.8436C28.135 23.8118 28.1331 23.7806 28.1302 23.7497C30.2709 24.1165 32.5174 24.3848 35.859 24.3848C39.2007 24.3848 41.4472 24.1166 43.5879 23.7498C43.5849 23.7808 43.5831 23.812 43.5831 23.8437V25.2912C43.5831 25.8415 44.0291 26.2873 44.5792 26.2873C45.1293 26.2873 45.5753 25.8415 45.5753 25.2912V23.8437C45.5753 23.6861 45.5377 23.5376 45.4725 23.4052C45.556 23.3894 45.6398 23.3734 45.7239 23.3575C45.9628 23.3119 46.2044 23.266 46.4497 23.22ZM23.6277 28.8638C24.1731 28.9361 24.6738 28.5522 24.7458 28.0068C24.8179 27.4614 24.4342 26.9608 23.8887 26.8887C22.5705 26.7146 19.8642 26.9167 18.7288 27.2005C18.195 27.334 17.8707 27.8748 18.0042 28.4086C18.1173 28.8612 18.5235 29.1634 18.9697 29.1634C19.0498 29.1634 19.131 29.1537 19.2121 29.1334C20.1138 28.9077 22.5946 28.7272 23.6277 28.8638ZM30.4175 20.1868C32.1261 20.3911 33.8552 20.4862 35.859 20.4862C37.8627 20.4862 39.5919 20.3911 41.3006 20.1868C41.8468 20.1215 42.2366 19.6257 42.1714 19.0795C42.1061 18.5333 41.6112 18.1439 41.0642 18.2086C39.4359 18.4033 37.782 18.4939 35.8591 18.4939C33.9362 18.4939 32.2823 18.4032 30.654 18.2086C30.1081 18.1434 29.612 18.5333 29.5468 19.0795C29.4813 19.6257 29.8713 20.1215 30.4175 20.1868ZM35.859 25.6978C34.6901 25.6978 33.5784 26.2039 32.8091 27.0867C32.4475 27.5014 32.4907 28.1305 32.9054 28.492C33.0941 28.6566 33.3273 28.7373 33.5595 28.7373C33.8373 28.7373 34.1138 28.6216 34.3108 28.3957C34.7016 27.9472 35.266 27.6901 35.859 27.6901C36.452 27.6901 37.0162 27.9472 37.4072 28.3957C37.7685 28.8105 38.3979 28.8535 38.8126 28.4923C39.2272 28.1308 39.2705 27.5015 38.909 27.0869C38.1396 26.204 37.028 25.6978 35.859 25.6978Z" fill="#151515"/>
</g>
<defs>
<clipPath id="clip0_20_632">
<rect width="68" height="68" fill="white"/>
</clipPath>
</defs>
</svg>
