<svg width="360" height="348" viewBox="0 0 360 348" fill="none" xmlns="http://www.w3.org/2000/svg">
<g clip-path="url(#clip0_144_10357)">
<path d="M65.543 316.278C63.8765 316.979 61.9998 317.222 59.9837 316.987C54.5299 316.349 52.3847 312.603 50.8187 309.868C49.0587 306.795 48.2551 305.392 43.743 306.413C42.1602 306.771 40.5864 305.78 40.2277 304.198C39.8692 302.617 40.8613 301.045 42.4446 300.686C51.197 298.706 54.039 303.668 55.9196 306.952C57.3904 309.521 58.2699 310.874 60.667 311.155C62.2486 311.339 63.4879 310.989 64.4555 310.083C66.1188 308.525 66.7638 305.65 66.6594 303.637C66.5753 302.018 67.8213 300.637 69.4417 300.553C71.0625 300.469 72.4447 301.714 72.5286 303.333C72.6938 306.517 71.7314 311.317 68.4746 314.367C67.5974 315.189 66.6135 315.828 65.543 316.278Z" fill="#EDA751"/>
<path d="M46.648 306.101C47.0407 304.794 47.4095 302.897 46.6263 300.244C45.4042 300.201 44.0217 300.329 42.445 300.686C40.8615 301.045 39.8699 302.616 40.2281 304.198C40.5866 305.779 42.1603 306.771 43.7434 306.413C44.9461 306.141 45.8839 306.043 46.648 306.101Z" fill="#FCD79D"/>
<path d="M84.9719 323.529C84.4923 323.731 83.9714 323.856 83.4228 323.888C80.8305 324.04 78.606 322.064 78.4538 319.474C78.0595 312.761 77.4303 310.84 74.4924 307.381C72.8125 305.402 73.056 302.438 75.0361 300.759C77.0162 299.081 79.9832 299.324 81.6629 301.303C86.4201 306.905 87.3803 311.086 87.8409 318.923C87.9608 320.965 86.7566 322.779 84.9719 323.529Z" fill="#EDA751"/>
<path d="M102.557 313.098C102.077 313.299 101.556 313.424 101.008 313.456C98.4152 313.608 96.1907 311.632 96.0385 309.042C95.7443 304.035 91.737 302.063 90.9602 301.882C88.4314 301.294 86.8591 298.768 87.4485 296.241C88.0379 293.715 90.5656 292.143 93.0946 292.733C97.5651 293.774 104.866 298.973 105.425 308.491C105.545 310.533 104.341 312.347 102.557 313.098Z" fill="#EDA751"/>
<path d="M102.557 313.098C102.077 313.299 101.556 313.424 101.008 313.456C98.4152 313.608 96.1907 311.632 96.0385 309.042C95.7443 304.035 91.737 302.063 90.9602 301.882C88.4314 301.294 86.8591 298.768 87.4485 296.241C88.0379 293.715 90.5656 292.143 93.0946 292.733C97.5651 293.774 104.866 298.973 105.425 308.491C105.545 310.533 104.341 312.347 102.557 313.098Z" fill="#EDA751"/>
<path opacity="0.2" d="M93.0945 292.733C90.5655 292.143 88.0377 293.714 87.4484 296.241C86.859 298.768 88.431 301.294 90.9601 301.882C91.5867 302.028 94.314 303.341 95.5003 306.47C96.4796 305.507 97.3774 304.48 98.187 303.399C98.333 303.205 98.5716 303.108 98.8128 303.142C99.3131 303.213 99.8344 303.184 100.348 303.038L103.836 302.043C101.32 296.59 96.4232 293.508 93.0945 292.733Z" fill="#A35F00"/>
<path opacity="0.2" d="M69.4422 300.553C67.8215 300.637 66.5758 302.018 66.6599 303.637C66.7643 305.65 66.1191 308.525 64.456 310.083C63.9911 310.518 63.4627 310.824 62.8644 311.005C64.8432 312.139 66.9826 313.008 69.2218 313.591C71.879 310.548 72.681 306.259 72.5292 303.333C72.445 301.714 71.063 300.469 69.4422 300.553Z" fill="#A35F00"/>
<path opacity="0.2" d="M75.0361 300.76C73.056 302.438 72.8126 305.402 74.4924 307.381C76.5101 309.757 77.4389 311.408 77.9505 314.384C80.8988 314.173 83.8796 313.482 86.7755 312.264C86.8818 312.219 86.9866 312.172 87.0918 312.126C86.3189 308.147 84.8361 305.04 81.6627 301.303C79.9833 299.325 77.0159 299.081 75.0361 300.76Z" fill="#A35F00"/>
<path d="M84.8999 307.811C95.9379 303.168 101.386 291.097 97.0676 280.848C92.7497 270.6 80.3012 266.056 69.2632 270.699C58.2251 275.342 52.7774 287.413 57.0954 297.661C61.4134 307.909 73.8619 312.454 84.8999 307.811Z" fill="#FCD690"/>
<path opacity="0.15" d="M81.8974 308.841C70.2398 306.691 67.8965 293.221 67.1844 287.199L62.1885 275.342C56.134 281.176 53.8394 289.936 57.0942 297.661C61.0241 306.989 71.69 311.59 81.8974 308.841Z" fill="#C18F00"/>
<path d="M51.8672 263.798C53.8172 258.617 53.3529 252.025 43.8019 247.267C34.1754 242.472 25.2543 244.931 19.55 249.088C18.1435 250.113 17.4771 251.884 17.8588 253.581C19.4071 260.463 24.4942 268.188 34.8975 270.92C45.2193 273.63 49.9172 268.978 51.8672 263.798Z" fill="#EDA751"/>
<path d="M18.1207 254.62C19.9321 261.224 25.015 268.324 34.8975 270.92C43.8442 273.269 48.5637 270.086 50.9329 265.823C38.9149 250.324 25.5043 251.967 18.1207 254.62Z" fill="#FF91AB"/>
<path d="M74.865 250.857C69.4205 249.838 64.019 246.023 64.8983 235.396C65.7845 224.685 72.5148 218.338 79.03 215.62C80.6363 214.949 82.4973 215.298 83.7517 216.504C88.8394 221.395 92.8134 229.746 89.7583 240.05C86.727 250.275 80.3095 251.876 74.865 250.857Z" fill="#EDA751"/>
<path d="M84.5052 217.267C89.2187 222.238 92.6605 230.262 89.7582 240.051C87.1309 248.913 81.9598 251.295 77.083 251.109C70.0486 232.806 78.4073 222.2 84.5052 217.267Z" fill="#FF91AB"/>
<path d="M98.1718 243.905C106.455 258.601 95.6809 273.141 77.9143 283.138C60.1482 293.135 42.1177 294.802 33.8342 280.107C25.5513 265.411 33.2388 245.393 51.005 235.397C68.771 225.4 89.8886 229.209 98.1718 243.905Z" fill="#FFDC9C"/>
<path opacity="0.15" d="M36.1443 249.17C29.793 258.955 28.4963 270.636 33.8349 280.107C40.9554 292.739 55.2788 293.28 70.4453 286.833C43.0632 286.134 36.464 268.182 36.1443 249.17Z" fill="#C18F00"/>
<path d="M51.7319 268.883C50.2891 266.324 46.5116 265.716 43.2945 267.526C40.0775 269.336 38.6392 272.879 40.082 275.438C41.5249 277.998 45.3024 278.606 48.5194 276.796C51.7364 274.985 53.1747 271.443 51.7319 268.883Z" fill="#FF91AB"/>
<path d="M71.6434 257.679C73.0862 260.238 76.8638 260.846 80.0808 259.036C83.2978 257.225 84.7361 253.683 83.2933 251.123C81.8504 248.564 78.0729 247.956 74.8559 249.766C71.6389 251.576 70.2006 255.119 71.6434 257.679Z" fill="#FF91AB"/>
<path d="M135.805 289.914L100.462 299.995C98.6563 300.51 96.7496 299.596 96.0216 297.866L70.7374 237.8L128.187 221.413L138.452 285.763C138.748 287.616 137.611 289.398 135.805 289.914Z" fill="#78CFC0"/>
<path opacity="0.15" d="M93.2357 291.248L96.0216 297.866C96.7497 299.596 98.6565 300.51 100.462 299.995L135.805 289.914C137.611 289.398 138.748 287.617 138.452 285.764L137.321 278.673L93.2357 291.248Z" fill="#151515"/>
<path d="M113.304 271.386C121.063 268.123 124.705 259.192 121.439 251.44C118.172 243.687 109.234 240.048 101.475 243.312C93.7156 246.575 90.0735 255.506 93.34 263.259C96.6065 271.011 105.545 274.65 113.304 271.386Z" fill="white"/>
<path d="M129.028 208.124L63.0005 226.958C61.0001 227.528 59.8417 229.611 60.4126 231.609L61.7922 236.438C62.3632 238.436 64.4476 239.594 66.4477 239.023L132.475 220.19C134.476 219.619 135.634 217.537 135.063 215.538L133.683 210.71C133.113 208.711 131.028 207.554 129.028 208.124Z" fill="#B77866"/>
<path opacity="0.15" d="M129.028 208.124L63.0005 226.958C61.0001 227.528 59.8417 229.611 60.4126 231.609L61.7922 236.438C62.3632 238.436 64.4476 239.594 66.4477 239.023L132.475 220.19C134.476 219.619 135.634 217.537 135.063 215.538L133.683 210.71C133.113 208.711 131.028 207.554 129.028 208.124Z" fill="#151515"/>
<path d="M124.739 209.348L67.2896 225.734L68.1179 218.971C68.36 216.996 69.7617 215.358 71.6771 214.811L115.241 202.385C117.156 201.839 119.212 202.491 120.462 204.041L124.739 209.348Z" fill="#B77866"/>
<path d="M112.448 265.001C111.167 265.688 109.58 265.016 109.181 263.621L105.597 251.077C105.153 249.525 106.423 248.018 108.03 248.19C111.128 248.522 113.714 250.698 114.57 253.691L115.644 257.451C116.488 260.406 115.158 263.549 112.448 265.001Z" fill="#B77866"/>
<path d="M107.136 266.516C108.586 266.424 109.58 265.016 109.181 263.62L105.597 251.077C105.153 249.525 103.278 248.915 102.005 249.908C99.5495 251.824 98.5023 255.037 99.3576 258.03L100.432 261.79C101.276 264.745 104.067 266.713 107.136 266.516Z" fill="#B77866"/>
<path opacity="0.15" d="M107.136 266.516C108.586 266.424 109.58 265.016 109.181 263.62L105.597 251.077C105.153 249.525 103.278 248.915 102.005 249.908C99.5495 251.824 98.5023 255.037 99.3576 258.03L100.432 261.79C101.276 264.745 104.067 266.713 107.136 266.516Z" fill="#151515"/>
<path opacity="0.1" d="M96.0216 297.866C96.7497 299.596 98.6565 300.51 100.462 299.995L126.386 292.6C103.712 282.288 91.7128 260.505 84.7269 243.214C83.958 241.31 85.0134 239.162 86.9884 238.599L129.016 226.611L128.187 221.413L70.7374 237.8L96.0216 297.866Z" fill="#151515"/>
<path d="M84.2306 295.649C81.3435 296.863 78.5758 297.476 76.2548 297.38C73.6603 297.272 71.6447 295.084 71.752 292.492C71.8598 289.9 74.0501 287.886 76.6444 287.993C79.6367 288.117 88.0335 283.898 91.208 278.033C92.4434 275.751 95.2963 274.902 97.5803 276.136C99.8643 277.37 100.715 280.22 99.4794 282.502C97.3186 286.494 93.5641 290.296 88.9068 293.207C87.3474 294.181 85.7718 295.001 84.2306 295.649Z" fill="#EDA751"/>
<path d="M60.8878 261.862C62.6103 260.892 63.8281 259.225 64.2292 257.288C64.4382 256.279 63.7885 255.291 62.7781 255.082C61.7672 254.874 60.7792 255.523 60.5702 256.532C60.3879 257.413 59.8355 258.169 59.054 258.609C58.2728 259.049 57.3383 259.129 56.4904 258.828C55.5182 258.483 54.4501 258.991 54.105 259.962C53.7599 260.934 54.2683 262.001 55.2406 262.346C56.8591 262.919 58.6218 262.863 60.185 262.206C60.4246 262.105 60.6593 261.99 60.8878 261.862ZM72.1954 253.406C72.261 253.378 72.3258 253.347 72.3895 253.311C73.2884 252.805 73.6067 251.667 73.1006 250.769L71.9422 248.714C71.4359 247.815 70.2965 247.497 69.3975 248.003C68.4985 248.509 68.1802 249.647 68.6864 250.546L69.8447 252.601C70.3153 253.435 71.3324 253.769 72.1954 253.406ZM47.4136 267.35C47.4793 267.323 47.5441 267.291 47.6076 267.255C48.5066 266.75 48.8249 265.611 48.3186 264.713L47.1603 262.658C46.654 261.76 45.5143 261.44 44.6156 261.948C43.7166 262.454 43.3984 263.592 43.9047 264.49L45.063 266.545C45.5336 267.38 46.5506 267.713 47.4136 267.35ZM112.086 273.788C112.763 273.594 113.421 273.363 114.06 273.094C117.569 271.619 120.466 269.031 122.345 265.654C124.565 261.663 125.097 257.047 123.842 252.655C121.252 243.591 111.764 238.322 102.692 240.909C98.297 242.163 94.6538 245.051 92.4332 249.043C90.2128 253.034 89.681 257.651 90.9354 262.041C92.1899 266.433 95.0811 270.073 99.0759 272.291C103.071 274.51 107.691 275.041 112.086 273.788ZM94.5279 261.017C93.5471 257.585 93.9629 253.976 95.6984 250.857C97.167 248.217 99.431 246.195 102.174 245.041C102.673 244.832 103.188 244.65 103.717 244.499C110.809 242.477 118.225 246.595 120.249 253.68C121.23 257.113 120.814 260.721 119.078 263.841C117.343 266.96 114.495 269.218 111.06 270.198C107.625 271.178 104.013 270.763 100.891 269.029C97.7686 267.294 95.5087 264.449 94.5279 261.017ZM107.255 268.379C107.727 268.349 108.181 268.241 108.604 268.063C109.188 267.817 109.709 267.436 110.13 266.947C111.067 267.242 112.069 267.196 112.975 266.816C113.095 266.765 113.214 266.708 113.33 266.646C113.33 266.646 113.33 266.646 113.331 266.646C116.789 264.792 118.518 260.71 117.441 256.938L116.366 253.178C115.297 249.436 112.103 246.749 108.229 246.334C106.872 246.189 105.536 246.718 104.647 247.751C103.346 247.343 101.932 247.597 100.856 248.437C97.7854 250.833 96.4924 254.799 97.5617 258.542L98.636 262.302C99.7132 266.074 103.338 268.629 107.255 268.379ZM110.977 263.108L107.394 250.565C107.344 250.392 107.41 250.265 107.474 250.189C107.509 250.147 107.56 250.102 107.628 250.073C107.684 250.05 107.751 250.038 107.831 250.046C110.184 250.298 112.124 251.93 112.774 254.204L113.848 257.964C114.447 260.059 113.486 262.327 111.565 263.356C111.423 263.432 111.294 263.407 111.212 263.373C111.13 263.338 111.022 263.264 110.978 263.108C110.977 263.108 110.977 263.108 110.977 263.108ZM102.228 261.278L101.154 257.518C100.505 255.245 101.29 252.835 103.155 251.38C103.297 251.27 103.439 251.283 103.534 251.314C103.629 251.344 103.752 251.417 103.801 251.59L107.385 264.133C107.429 264.289 107.377 264.408 107.326 264.481C107.274 264.554 107.179 264.644 107.017 264.654C104.841 264.793 102.827 263.373 102.228 261.278ZM46.9498 272.252C46.494 271.327 45.374 270.946 44.4484 271.402C42.4812 272.37 38.9574 275.123 37.662 276.551C36.9688 277.314 37.0266 278.495 37.7907 279.187C38.3464 279.691 39.1231 279.798 39.7719 279.525C40.0152 279.423 40.2406 279.267 40.4294 279.058C41.435 277.951 44.5942 275.492 46.0993 274.751C47.0249 274.295 47.4057 273.176 46.9498 272.252ZM132.8 206.822C131.484 206.091 129.963 205.916 128.515 206.329L125.417 207.213L121.917 202.87C120.193 200.731 117.372 199.837 114.728 200.59L71.1647 213.016C68.5224 213.77 66.5982 216.019 66.2641 218.745L65.5863 224.279L62.4882 225.163C61.041 225.575 59.8414 226.527 59.11 227.841C58.716 228.55 58.4889 229.319 58.423 230.103C55.5583 231.038 52.7602 232.267 50.0887 233.771C45.4517 236.38 41.4726 239.652 38.2451 243.336C31.3683 241.86 24.2155 243.378 18.4496 247.58C16.4375 249.046 15.4903 251.562 16.0366 253.99C17.668 261.241 22.3103 267.239 28.8444 270.601C29.2613 274.222 30.3613 277.747 32.2072 281.022C34.5818 285.235 37.806 288.367 41.7898 290.331C42.2957 290.581 42.8601 290.58 43.3422 290.378C43.7416 290.21 44.0849 289.902 44.2919 289.483C44.7483 288.559 44.3686 287.44 43.4432 286.984C40.1464 285.359 37.4614 282.736 35.4628 279.19C27.6982 265.415 35.0818 246.499 51.9221 237.023C54.2292 235.725 56.6363 234.648 59.0997 233.811L59.9967 236.95C60.4098 238.396 61.3618 239.595 62.6774 240.325C63.993 241.056 65.5144 241.231 66.9617 240.818L69.6581 240.049L84.9419 276.358C82.5402 278.163 79.875 279.893 76.9981 281.512C69.2862 285.851 61.9781 288.364 55.5777 288.909C55.5769 288.909 55.5762 288.909 55.5755 288.909C55.5 288.911 55.4261 288.918 55.3532 288.929C53.8778 289.044 52.4513 289.054 51.0797 288.957C50.051 288.884 49.1569 289.658 49.0837 290.686C49.0107 291.714 49.7856 292.607 50.8148 292.68C51.8144 292.751 52.8397 292.767 53.8853 292.738C54.1105 294.679 54.6081 296.571 55.3725 298.386C57.1164 302.524 60.0756 305.815 63.7172 308.065C63.5504 308.32 63.3702 308.541 63.1784 308.721C62.8034 309.072 62.204 309.455 60.8847 309.301C59.4568 309.134 58.9763 308.531 57.541 306.025C55.6507 302.725 52.1319 296.581 42.0314 298.866C39.4456 299.452 37.821 302.029 38.4062 304.611C38.6898 305.862 39.4442 306.928 40.5299 307.612C41.616 308.296 42.9037 308.517 44.1559 308.234C46.2808 307.753 46.9863 307.981 47.332 308.194C47.9125 308.552 48.4515 309.493 49.1977 310.796C50.862 313.701 53.3769 318.093 59.7669 318.841C62.1028 319.114 64.2899 318.831 66.2681 317.999C67.5457 317.461 68.718 316.697 69.7525 315.729C71.0428 314.52 72.0835 313.028 72.8662 311.287C73.6049 311.383 74.3516 311.446 75.1042 311.473C75.9849 313.194 76.333 315.229 76.5889 319.584C76.8012 323.197 79.9162 325.964 83.5321 325.752C84.2811 325.708 85.0095 325.539 85.6968 325.25C88.2576 324.173 89.8685 321.586 89.7059 318.814C89.4647 314.71 89.0753 311.419 88.0221 308.363C89.6527 307.464 91.1711 306.394 92.5444 305.173C93.3156 306.022 94.0653 307.306 94.1736 309.151C94.3857 312.765 97.5007 315.532 101.117 315.319C101.866 315.276 102.595 315.107 103.282 314.818C105.842 313.741 107.453 311.154 107.291 308.382C107.126 305.582 106.425 302.969 105.204 300.584L136.319 291.709C136.537 291.646 136.749 291.571 136.954 291.485C139.293 290.502 140.706 288.028 140.297 285.47L130.293 222.754L132.989 221.985C133.212 221.921 133.429 221.845 133.639 221.757C134.795 221.271 135.749 220.418 136.367 219.307C137.098 217.992 137.274 216.472 136.861 215.026L135.481 210.198C135.067 208.751 134.115 207.553 132.8 206.822ZM28.6683 266.192C23.9421 263.124 21.6048 258.895 20.4705 255.82C23.3035 255.003 26.9961 254.422 31.0576 255.007C29.6138 258.665 28.7964 262.447 28.6683 266.192ZM32.6571 251.49C27.6619 250.561 23.121 251.201 19.6659 252.169C19.7798 251.55 20.1211 250.982 20.6507 250.596C22.8257 249.011 28.3067 245.759 35.6082 246.67C34.4988 248.229 33.512 249.84 32.6571 251.49ZM78.8312 284.764C81.5542 283.232 84.0999 281.6 86.4319 279.899L86.762 280.683C83.6021 283.693 79.3051 285.789 77.1818 286.095C76.9504 286.128 76.8043 286.131 76.7218 286.128C76.584 286.122 76.4469 286.122 76.3103 286.125C77.1468 285.691 77.9868 285.239 78.8312 284.764ZM67.1976 313.005C65.3609 314.725 62.9534 315.455 60.2013 315.133C55.6835 314.604 53.9606 311.596 52.4402 308.941C50.4254 305.423 48.9073 303.33 43.3303 304.593C42.7546 304.723 42.18 304.361 42.0496 303.786C41.9194 303.211 42.2822 302.637 42.8573 302.506C50.2617 300.831 52.4058 304.575 54.298 307.879C55.6899 310.309 57.0048 312.605 60.4497 313.008C62.5814 313.257 64.3588 312.731 65.7328 311.445C66.237 310.972 66.6788 310.407 67.0587 309.759C67.7273 310.031 68.4108 310.273 69.1067 310.482C68.5835 311.46 67.9449 312.305 67.1976 313.005ZM85.9759 319.033C86.0463 320.229 85.3514 321.345 84.2471 321.809C83.9519 321.933 83.6378 322.006 83.3132 322.025C81.7535 322.117 80.4098 320.923 80.3184 319.365C80.1092 315.806 79.8335 313.383 79.0854 311.292C80.9321 311.057 82.7846 310.608 84.6077 309.932C85.4392 312.516 85.7634 315.415 85.9759 319.033ZM84.1741 306.09C74.1028 310.326 62.7273 306.22 58.8158 296.937C58.206 295.49 57.8053 293.982 57.6136 292.436C61.7958 291.885 66.2666 290.619 70.9194 288.662C71.0953 288.588 71.2721 288.511 71.4485 288.434C71.2186 288.704 71.0064 288.992 70.8197 289.301C70.2871 290.184 70.5715 291.331 71.4553 291.864C72.3389 292.396 73.487 292.112 74.0198 291.229C74.556 290.34 75.5321 289.815 76.5664 289.858C76.9155 289.873 77.3021 289.85 77.7151 289.79C81.0081 289.316 86.5208 286.48 90.2648 282.453C90.3269 282.393 90.3849 282.33 90.4375 282.263C91.3848 281.22 92.2132 280.1 92.8511 278.922C93.5945 277.548 95.3171 277.035 96.6913 277.778C98.0658 278.521 98.5791 280.242 97.8358 281.615C96.4436 284.188 94.3235 286.683 91.6938 288.886C91.6719 288.904 91.6503 288.921 91.6293 288.939C90.4814 289.896 89.2387 290.798 87.9157 291.625C86.4557 292.537 84.9719 293.313 83.5054 293.929C80.8379 295.051 78.3575 295.6 76.3316 295.516C76.0134 295.503 75.7043 295.438 75.4128 295.324C74.4524 294.947 73.3679 295.419 72.9911 296.379C72.6138 297.338 73.0865 298.421 74.0468 298.798C74.7261 299.065 75.4428 299.215 76.1769 299.246C78.7486 299.352 81.7838 298.704 84.955 297.37C86.6054 296.676 88.268 295.808 89.8973 294.789C90.648 294.32 91.374 293.826 92.0785 293.314L93.942 297.742C91.7138 301.418 88.2762 304.365 84.1741 306.09ZM103.56 308.601C103.63 309.797 102.936 310.913 101.831 311.377C101.536 311.501 101.222 311.574 100.898 311.593C99.3377 311.684 97.9943 310.491 97.9026 308.933C97.7243 305.899 96.4265 303.816 95.141 302.477C95.5346 302.001 95.9091 301.51 96.2639 301.005C97.5985 301.929 99.3153 302.263 100.975 301.789L101.522 301.633C102.726 303.731 103.411 306.068 103.56 308.601ZM136.607 286.057C136.754 286.977 136.188 287.863 135.292 288.119L99.9493 298.199C99.0548 298.455 98.1084 298.002 97.7455 297.147C97.7439 297.143 97.7421 297.139 97.7406 297.136L95.1011 290.865C97.6303 288.575 99.696 286.025 101.122 283.39C102.845 280.206 101.655 276.215 98.4688 274.494C95.2826 272.772 91.288 273.962 89.565 277.145C89.5212 277.226 89.4734 277.305 89.4271 277.385L73.276 239.016L126.673 223.785L136.607 286.057ZM131.887 211.222L133.267 216.05C133.406 216.537 133.347 217.05 133.101 217.493C132.855 217.936 132.452 218.256 131.963 218.395L65.9353 237.229C64.9288 237.516 63.876 236.931 63.5887 235.925L62.2158 231.12C62.216 231.122 62.2168 231.124 62.217 231.124C62.217 231.124 62.2171 231.124 62.2169 231.123C62.2094 231.088 62.2016 231.053 62.1932 231.018C62.1898 231.003 62.1845 230.989 62.1806 230.975C62.0832 230.525 62.1496 230.061 62.3754 229.655C62.6218 229.212 63.0257 228.892 63.5135 228.753L67.797 227.531C67.8007 227.53 67.8041 227.529 67.8076 227.528L110.611 215.319C111.603 215.036 112.178 214.003 111.894 213.011C111.611 212.02 110.577 211.446 109.585 211.729L69.4863 223.166L69.9728 219.198C70.124 217.965 70.9952 216.947 72.1904 216.606L115.754 204.18C116.95 203.839 118.227 204.244 119.007 205.212L121.517 208.325L118.093 209.302C117.103 209.584 116.527 210.618 116.81 211.609C117.093 212.6 118.127 213.175 119.119 212.892L129.541 209.919C130.029 209.78 130.541 209.839 130.985 210.085C131.428 210.331 131.748 210.735 131.887 211.222ZM45.9392 284.924C46.4036 284.729 46.7883 284.347 46.9724 283.836C47.4799 282.429 49.4629 278.953 50.572 277.695C51.254 276.922 51.1793 275.742 50.4052 275.061C49.6308 274.379 48.4502 274.454 47.7685 275.227C46.3191 276.871 44.1111 280.758 43.4573 282.571C43.1075 283.541 43.6111 284.611 44.5818 284.96C45.0411 285.125 45.5225 285.099 45.9392 284.924Z" fill="#151515"/>
</g>
<g clip-path="url(#clip1_144_10357)">
<path d="M179.493 185.627L138.334 187.709C137.398 187.756 136.601 187.036 136.554 186.101L135.02 155.826C134.929 154.023 136.317 152.487 138.122 152.396L174.44 150.559C176.245 150.468 177.782 151.856 177.874 153.659L179.493 185.627Z" fill="#495059"/>
<path d="M178.375 163.548L135.521 165.716L136.553 186.101C136.601 187.036 137.398 187.756 138.334 187.709L179.493 185.627L178.375 163.548Z" fill="#7694E4"/>
<g opacity="0.1">
<path d="M157.908 183.598C156.878 183.65 156 182.858 155.948 181.828L155.334 169.703C155.282 168.674 156.075 167.797 157.105 167.745C158.136 167.693 159.013 168.485 159.066 169.515L159.68 181.639C159.732 182.669 158.939 183.546 157.908 183.598Z" fill="#151515"/>
<path d="M149.08 184.044C148.05 184.096 147.172 183.304 147.12 182.274L146.506 170.15C146.454 169.12 147.247 168.243 148.277 168.191C149.308 168.139 150.185 168.931 150.238 169.961L150.852 182.086C150.904 183.116 150.111 183.992 149.08 184.044Z" fill="#151515"/>
<path d="M166.737 183.151C165.706 183.204 164.829 182.411 164.776 181.382L164.162 169.257C164.11 168.227 164.903 167.351 165.934 167.298C166.964 167.246 167.842 168.039 167.894 169.068L168.508 181.193C168.56 182.223 167.767 183.099 166.737 183.151Z" fill="#151515"/>
</g>
<path d="M134.467 180.891C133.725 180.929 132.966 180.714 132.33 180.228C130.901 179.139 130.627 177.099 131.718 175.672C135.517 170.698 142.769 169.27 153.272 171.426C157.82 172.36 160.083 169.119 163.739 161.009C164.937 158.351 166.068 155.842 167.512 153.882C168.577 152.436 170.613 152.126 172.061 153.19C173.508 154.255 173.818 156.289 172.753 157.736C171.718 159.14 170.725 161.345 169.672 163.679C168.157 167.04 166.44 170.849 163.936 173.674C160.661 177.367 156.632 178.753 151.963 177.795C144.337 176.229 138.984 176.877 136.89 179.617C136.286 180.408 135.389 180.844 134.467 180.891Z" fill="#EDA751"/>
<path d="M131.718 175.672C130.627 177.099 130.901 179.139 132.33 180.228C132.966 180.714 133.725 180.929 134.467 180.891C135.389 180.844 136.286 180.408 136.89 179.617C137.164 179.258 137.495 178.937 137.877 178.651C137.065 175.755 134.635 174.276 133.271 174.003C132.702 174.506 132.184 175.062 131.718 175.672Z" fill="#FCD79D"/>
<path d="M181.654 188.109C178.994 188.244 176.624 186.33 176.242 183.645C175.337 177.267 172.79 170.099 170.32 166.972C168.538 164.717 168.923 161.447 171.18 159.667C173.436 157.887 176.71 158.272 178.492 160.526C182.688 165.838 185.563 175.231 186.551 182.183C186.955 185.027 184.975 187.66 182.128 188.064C181.969 188.086 181.811 188.101 181.654 188.109Z" fill="#EDA751"/>
<path d="M150.003 165.51C148.05 165.609 146.122 164.598 145.141 162.759C142.574 157.942 142.623 152.784 145.275 148.61C148.503 143.528 155.082 140.596 162.447 140.963C165.318 141.105 167.531 143.546 167.388 146.415C167.246 149.284 164.802 151.496 161.931 151.352C157.889 151.152 155.021 152.68 154.065 154.184C153.813 154.582 153.142 155.638 154.332 157.87C155.683 160.406 154.721 163.556 152.183 164.906C151.486 165.276 150.743 165.473 150.003 165.51Z" fill="#EDA751"/>
<path opacity="0.2" d="M162.447 140.962C159.311 140.806 156.319 141.25 153.666 142.201C152.976 144.75 152.67 147.433 152.809 150.189C152.902 152.023 153.191 153.804 153.65 155.518C153.665 154.819 153.927 154.401 154.065 154.183C155.021 152.68 157.889 151.152 161.931 151.352C164.802 151.495 167.246 149.284 167.388 146.415C167.531 143.546 165.318 141.105 162.447 140.962Z" fill="#A35F00"/>
<path d="M197.235 185.88C195.983 185.943 194.705 185.557 193.662 184.698C191.443 182.87 191.128 179.592 192.957 177.376C193.946 176.178 194.322 174.913 194.141 173.398C193.802 170.552 191.581 167.728 190.774 167.111C188.395 165.535 187.728 162.333 189.288 159.939C190.856 157.531 194.081 156.849 196.491 158.417C199.207 160.183 203.457 165.439 204.402 171.595C205.101 176.154 203.921 180.442 200.99 183.994C200.021 185.168 198.645 185.808 197.235 185.88ZM190.795 167.124C190.801 167.128 190.807 167.132 190.812 167.135C190.806 167.132 190.801 167.128 190.795 167.124Z" fill="#EDA751"/>
<path d="M210.641 155.333C203.718 155.683 197.83 150.447 196.099 148.734C194.056 146.711 194.042 143.418 196.065 141.378C198.089 139.337 201.385 139.322 203.427 141.344C205.807 143.699 208.742 145.198 210.407 144.911C211.77 144.675 212.865 142.938 213.544 141.522C214.786 138.931 217.895 137.836 220.488 139.078C223.08 140.318 224.176 143.425 222.934 146.015C219.787 152.581 215.352 154.613 212.185 155.161C211.666 155.251 211.15 155.307 210.641 155.333Z" fill="#EDA751"/>
<path opacity="0.2" d="M172.061 153.19C170.614 152.126 168.577 152.436 167.512 153.882C166.068 155.841 164.937 158.351 163.739 161.009C162.489 163.781 161.402 165.984 160.331 167.646C161.884 169.158 163.622 170.498 165.509 171.635C167.2 169.158 168.498 166.284 169.672 163.678C170.725 161.345 171.718 159.14 172.753 157.735C173.818 156.289 173.508 154.254 172.061 153.19Z" fill="#A35F00"/>
<path opacity="0.2" d="M185.205 175.589C183.759 170.063 181.455 164.277 178.492 160.526C176.71 158.271 173.437 157.887 171.18 159.666C168.924 161.446 168.539 164.717 170.32 166.972C171.698 168.715 173.098 171.716 174.226 175.134C176.871 175.734 179.651 175.99 182.509 175.845C183.42 175.799 184.319 175.712 185.205 175.589Z" fill="#A35F00"/>
<path opacity="0.2" d="M196.491 158.416C194.081 156.849 190.857 157.531 189.288 159.938C187.728 162.333 188.395 165.534 190.774 167.11C191.537 167.694 193.559 170.247 194.067 172.928C197.423 171.32 200.397 169.118 202.839 166.477C201.095 162.657 198.411 159.664 196.491 158.416Z" fill="#A35F00"/>
<path opacity="0.2" d="M209.946 147.299C209.905 146.501 209.826 145.713 209.714 144.935C208.005 144.803 205.504 143.4 203.427 141.343C201.385 139.322 198.089 139.337 196.065 141.377C194.041 143.418 194.056 146.711 196.099 148.733C197.698 150.316 202.847 154.903 209.081 155.316C209.777 152.759 210.086 150.066 209.946 147.299Z" fill="#A35F00"/>
<path d="M182.264 171.021C195.507 170.351 205.738 159.841 205.115 147.545C204.493 135.249 193.252 125.825 180.008 126.494C166.765 127.164 156.534 137.675 157.157 149.97C157.78 162.266 169.021 171.691 182.264 171.021Z" fill="#FCD690"/>
<path opacity="0.15" d="M178.75 170.96C167.428 164.326 170.078 149.421 171.611 142.884L170.891 128.658C162.385 132.448 156.687 140.701 157.156 149.969C157.723 161.161 167.087 169.972 178.75 170.96Z" fill="#C17A00"/>
<path d="M164.587 110.89C169.08 106.718 171.879 99.956 164.766 90.5281C157.596 81.0258 147.539 79.0616 139.832 80.3664C137.932 80.688 136.396 82.1139 135.935 83.9839C134.067 91.5684 135.291 101.734 144.25 109.574C153.139 117.353 160.094 115.061 164.587 110.89Z" fill="#EDA751"/>
<path d="M135.681 85.1427C134.212 92.5815 135.739 102.126 144.25 109.574C151.954 116.317 158.205 115.491 162.66 112.436C158.411 91.1469 144.309 86.1577 135.681 85.1427Z" fill="#FF91AB"/>
<path d="M193.774 109.414C188.882 105.717 185.415 99.2716 191.539 89.1743C197.711 78.9973 207.518 76.0286 215.318 76.5492C217.241 76.6775 218.913 77.941 219.56 79.7551C222.185 87.1124 221.995 97.3492 213.874 106.053C205.817 114.689 198.665 113.11 193.774 109.414Z" fill="#EDA751"/>
<path d="M219.93 80.8822C222.144 88.1347 221.589 97.7845 213.874 106.053C206.89 113.539 200.588 113.348 195.847 110.757C197.923 89.1488 211.449 82.7624 219.93 80.8822Z" fill="#FF91AB"/>
<path d="M220.307 114.025C221.252 132.675 203.387 141.768 180.84 142.908C158.293 144.049 139.6 136.804 138.656 118.154C137.711 99.5033 155.223 83.4597 177.771 82.3195C200.318 81.1792 219.362 95.3742 220.307 114.025Z" fill="#FFDC9C"/>
<path opacity="0.15" d="M156.236 88.6357C145.105 95.1984 138.046 106.134 138.655 118.154C139.468 134.186 153.394 141.79 171.611 142.885C144.822 128.68 147.156 107.634 156.236 88.6357Z" fill="#C17A00"/>
<path d="M159.785 123.77C163.868 123.563 167.044 120.763 166.879 117.514C166.715 114.266 163.272 111.8 159.189 112.007C155.107 112.213 151.931 115.014 152.095 118.262C152.26 121.51 155.703 123.976 159.785 123.77Z" fill="#FF91AB"/>
<path d="M199.853 121.744C203.935 121.537 207.111 118.737 206.947 115.488C206.782 112.24 203.339 109.774 199.257 109.98C195.174 110.187 191.998 112.988 192.163 116.236C192.327 119.484 195.77 121.95 199.853 121.744Z" fill="#FF91AB"/>
<path d="M140.904 92.0406C140.277 92.0723 139.633 91.9579 139.023 91.6785C136.997 90.751 136.107 88.3586 137.036 86.3346C140.169 79.5019 145.658 74.0892 153.349 70.2466C159.987 66.9306 168.12 64.9439 176.868 64.5015C185.616 64.0591 193.908 65.2152 200.847 67.8447C208.887 70.8917 214.895 75.723 218.703 82.2046C219.831 84.1247 219.188 86.5946 217.266 87.7217C215.345 88.8485 212.872 88.2058 211.744 86.286C208.891 81.4297 204.262 77.7611 197.985 75.3828C192.081 73.1451 184.919 72.1668 177.276 72.5533C169.632 72.9399 162.606 74.6358 156.958 77.4575C150.954 80.4569 146.719 84.5737 144.371 89.6931C143.723 91.1069 142.358 91.9671 140.904 92.0406Z" fill="#495059"/>
<path d="M137.223 109.985C129.481 107.605 125.136 99.4045 127.519 91.6691L127.949 90.2728C130.331 82.5374 138.538 78.1961 146.28 80.5764C148.656 81.3069 149.99 83.8237 149.259 86.1978L142.85 107.009C142.119 109.383 139.6 110.715 137.223 109.985Z" fill="#7694E4"/>
<path d="M220.906 105.753C228.368 102.604 231.862 94.0073 228.711 86.5518L228.142 85.206C224.99 77.7505 216.386 74.2593 208.924 77.4084C206.634 78.375 205.562 81.0134 206.529 83.3017L215.008 103.36C215.975 105.648 218.616 106.719 220.906 105.753Z" fill="#7694E4"/>
<path d="M210.303 112.818C208.223 112.409 203.311 112.291 200.943 112.727C199.929 112.914 199.257 113.887 199.444 114.901C199.631 115.914 200.605 116.586 201.62 116.399C203.464 116.059 207.94 116.158 209.581 116.481C209.735 116.511 209.888 116.522 210.038 116.514C210.874 116.472 211.606 115.868 211.775 115.01C211.974 113.999 211.315 113.018 210.303 112.818ZM230.432 85.8254L229.863 84.4793C228.144 80.4144 224.944 77.2612 220.852 75.6009C218.928 74.8203 216.916 74.4184 214.9 74.3851C211.298 70.8901 206.799 68.1036 201.509 66.099C194.33 63.3792 185.777 62.182 176.774 62.6373C167.77 63.0926 159.381 65.1466 152.514 68.5769C147.454 71.1049 143.259 74.3311 140.029 78.1716C138.027 78.4081 136.065 79.0109 134.23 79.9816C130.327 82.0463 127.462 85.5062 126.163 89.7237L125.733 91.1203C124.434 95.338 124.857 99.8086 126.923 103.708C128.99 107.608 132.453 110.471 136.674 111.769C136.83 111.816 136.986 111.855 137.143 111.891C136.802 113.996 136.682 116.126 136.79 118.248C137.169 125.738 140.213 131.838 145.836 136.381C147.839 138 150.143 139.389 152.726 140.554C148.873 141.997 145.716 144.432 143.698 147.609C143.146 148.477 142.694 149.382 142.339 150.313L138.028 150.531C135.197 150.675 133.011 153.092 133.154 155.92L133.928 171.197C132.491 172.086 131.257 173.198 130.233 174.539C128.519 176.782 128.951 180 131.196 181.712C132.145 182.436 133.321 182.804 134.513 182.755L134.687 186.195C134.787 188.157 136.465 189.672 138.429 189.573L176.145 187.666C177.52 189.188 179.541 190.085 181.748 189.973C181.963 189.963 182.18 189.942 182.391 189.912C186.252 189.364 188.948 185.779 188.4 181.921C187.967 178.868 187.21 175.564 186.238 172.414C188.01 172.071 189.714 171.559 191.331 170.899C191.75 171.664 192.169 172.634 192.286 173.619C192.407 174.634 192.184 175.378 191.516 176.188C190.314 177.645 189.751 179.482 189.932 181.361C190.113 183.24 191.015 184.937 192.473 186.138C193.838 187.263 195.563 187.833 197.33 187.744C199.31 187.644 201.169 186.71 202.431 185.182C202.726 184.824 203.011 184.452 203.277 184.078C203.873 183.236 203.674 182.071 202.832 181.475C201.99 180.879 200.824 181.079 200.227 181.92C200.014 182.221 199.786 182.519 199.549 182.807C198.945 183.538 198.09 183.968 197.141 184.015C196.308 184.058 195.494 183.789 194.85 183.258C194.162 182.691 193.737 181.891 193.651 181.004C193.566 180.117 193.832 179.251 194.399 178.563C195.716 176.967 196.239 175.205 195.996 173.177C195.821 171.707 195.269 170.342 194.685 169.249C196.657 168.1 198.45 166.713 200.021 165.134C201.044 166.832 202.14 169.173 202.556 171.878C202.761 173.218 202.785 174.545 202.626 175.819C202.498 176.842 203.224 177.775 204.248 177.903C204.359 177.917 204.468 177.92 204.576 177.915C205.464 177.87 206.219 177.194 206.333 176.282C206.535 174.665 206.507 172.993 206.249 171.312C205.775 168.223 204.476 165.019 202.555 162.159C203.798 160.441 204.81 158.571 205.554 156.59C207.31 157.078 209.046 157.283 210.735 157.197C211.329 157.167 211.924 157.101 212.505 157C216.104 156.376 221.128 154.105 224.619 146.821C225.435 145.119 225.539 143.2 224.911 141.42C224.283 139.639 222.999 138.21 221.295 137.394C219.591 136.579 217.671 136.475 215.888 137.102C214.106 137.73 212.675 139.013 211.859 140.716C210.97 142.572 210.236 143.047 210.09 143.072C209.547 143.166 207.729 142.592 205.646 140.838C205.482 140.389 205.305 139.944 205.113 139.504C207.027 138.632 208.799 137.659 210.416 136.589C218.584 131.178 222.65 123.343 222.173 113.931C222.065 111.808 221.731 109.701 221.179 107.642C221.331 107.59 221.483 107.536 221.633 107.473C225.702 105.755 228.858 102.558 230.52 98.4698C232.181 94.381 232.15 89.8908 230.432 85.8254ZM206.865 146.032C208.185 146.633 209.532 146.957 210.726 146.751C212.45 146.452 213.965 144.964 215.229 142.328C215.614 141.525 216.289 140.919 217.13 140.623C217.971 140.327 218.877 140.376 219.681 140.761C220.485 141.146 221.091 141.82 221.387 142.66C221.683 143.501 221.634 144.406 221.249 145.209C218.446 151.057 214.6 152.849 211.866 153.322C210.189 153.613 208.412 153.503 206.579 152.999C206.935 151.205 207.078 149.346 206.982 147.449C206.958 146.974 206.918 146.501 206.865 146.032ZM154.185 71.9158C160.594 68.7145 168.47 66.7951 176.962 66.3657C185.454 65.9363 193.484 67.0513 200.184 69.5896C203.916 71.004 207.203 72.8351 210 75.0503C209.392 75.2288 208.79 75.4387 208.197 75.6884C207.269 76.0802 206.483 76.6685 205.864 77.3833C205.607 77.2049 205.344 77.0308 205.078 76.8589C205.006 76.8062 204.933 76.7566 204.855 76.7147C202.981 75.5256 200.907 74.4929 198.648 73.637C192.503 71.3088 185.08 70.2892 177.181 70.6886C169.283 71.0881 162 72.8513 156.123 75.7875C153.961 76.8672 152.002 78.1041 150.257 79.4762C150.185 79.5254 150.117 79.5814 150.052 79.6403C149.805 79.8385 149.56 80.0387 149.322 80.2424C148.635 79.5936 147.793 79.0877 146.829 78.7915C146.215 78.6026 145.594 78.4545 144.972 78.3385C147.53 75.853 150.615 73.6997 154.185 71.9158ZM151.188 83.5702C151.361 83.4132 151.541 83.2601 151.72 83.1065C153.695 83.7739 155.559 84.7046 157.292 85.8878C154.592 87.2992 152.072 88.9629 149.777 90.86L151.044 86.7465C151.373 85.6798 151.404 84.5917 151.188 83.5702ZM155.309 80.5078C156.101 80.023 156.926 79.5601 157.793 79.1267C163.213 76.4193 169.983 74.7908 177.37 74.4172C184.758 74.0436 191.657 74.9808 197.323 77.1277C198.23 77.4713 199.098 77.8486 199.934 78.2511C197.965 79.3883 196.148 80.7795 194.497 82.4092C189.221 80.8433 183.526 80.1596 177.676 80.4554C171.826 80.7513 166.23 82.0061 161.139 84.0964C159.332 82.6413 157.383 81.4406 155.309 80.5078ZM203.768 80.4744C203.962 80.6091 204.156 80.7436 204.344 80.8821C204.232 81.9202 204.373 82.9995 204.808 84.0277L206.484 87.9923C204.009 86.3365 201.334 84.9352 198.505 83.8036C200.11 82.4514 201.87 81.3377 203.768 80.4744ZM139.058 108.268C139.053 108.269 139.049 108.27 139.045 108.271C138.627 108.352 138.192 108.33 137.773 108.2C137.773 108.2 137.773 108.2 137.773 108.2C131.028 106.127 127.229 98.9573 129.304 92.2183L129.734 90.8217C130.74 87.5573 132.957 84.8792 135.978 83.2808C137.573 82.4374 139.291 81.9525 141.039 81.826C141.048 81.8258 141.058 81.8263 141.067 81.8258C141.095 81.8244 141.123 81.82 141.151 81.8173C141.205 81.8139 141.258 81.8075 141.312 81.8047C142.786 81.7302 144.278 81.9137 145.73 82.3603C147.118 82.787 147.9 84.2621 147.473 85.6485L143.989 96.9602C143.988 96.9642 143.987 96.968 143.986 96.9721L141.064 106.459C140.857 107.131 140.401 107.682 139.779 108.011C139.549 108.133 139.306 108.218 139.058 108.268ZM146.852 149.61C148.741 146.637 151.963 144.477 155.925 143.456C155.391 145.608 155.176 147.819 155.29 150.063C155.302 150.298 155.318 150.531 155.337 150.764C154.08 151.4 153.092 152.233 152.488 153.183C151.488 154.756 151.553 156.629 152.682 158.747C153.542 160.36 152.935 162.368 151.333 163.241C151.318 163.25 151.301 163.257 151.286 163.267C150.854 163.493 150.39 163.621 149.908 163.646C148.62 163.711 147.396 163.019 146.79 161.881C144.548 157.674 144.571 153.201 146.852 149.61ZM155.98 156.993C155.302 155.72 155.541 155.345 155.643 155.184C155.722 155.06 155.854 154.913 156.028 154.759C156.792 157.624 158.104 160.274 159.85 162.616L156.356 162.793C157.042 160.959 156.971 158.852 155.98 156.993ZM136.885 155.732C136.846 154.959 137.443 154.299 138.217 154.26L141.45 154.096C141.148 157.16 141.795 160.368 143.396 163.448L137.292 163.757L136.885 155.732ZM137.481 167.485L147.416 166.983C148.264 167.279 149.172 167.421 150.098 167.374C151.019 167.328 151.906 167.105 152.739 166.714L158.906 166.402C156.939 169.554 155.532 169.984 153.648 169.597C147.153 168.264 141.787 168.255 137.586 169.556L137.481 167.485L137.481 167.485ZM135.405 178.484C135.337 178.573 135.258 178.652 135.172 178.721C135.147 178.739 135.122 178.758 135.098 178.777C134.886 178.925 134.636 179.013 134.372 179.027C134.142 179.039 133.796 178.999 133.463 178.745C132.856 178.282 132.739 177.411 133.203 176.804C136.53 172.449 143.156 171.255 152.896 173.254C158.025 174.308 160.874 170.848 163.258 166.323C163.963 166.947 164.705 167.533 165.481 168.08C164.494 169.897 163.542 171.304 162.538 172.436C159.699 175.638 156.363 176.793 152.339 175.966C143.851 174.224 137.996 175.095 135.405 178.484ZM138.41 185.836L138.166 181.004C138.238 180.922 138.308 180.837 138.375 180.75C139.963 178.672 144.902 178.251 151.587 179.623C156.883 180.71 161.637 179.081 165.334 174.912C166.5 173.597 167.584 172.012 168.683 170.009C169.273 170.309 169.876 170.588 170.492 170.845C172.244 174.381 173.755 179.418 174.393 183.907C174.398 183.944 174.405 183.98 174.411 184.016L138.41 185.836ZM181.864 186.216C181.764 186.23 181.662 186.24 181.559 186.245C180.376 186.305 179.306 185.749 178.668 184.842C178.629 184.772 178.586 184.703 178.538 184.638C178.314 184.265 178.157 183.842 178.092 183.382C177.573 179.73 176.51 175.726 175.197 172.314C177.489 172.805 179.892 173.009 182.358 172.884C182.396 172.883 182.434 172.879 182.472 172.877C183.483 176.028 184.265 179.376 184.701 182.445C184.96 184.266 183.688 185.957 181.864 186.216ZM208.351 133.477C206.437 134.745 204.274 135.864 201.889 136.83C201.871 136.837 201.853 136.843 201.835 136.851C196.008 139.202 188.857 140.634 180.745 141.044C178.891 141.138 177.05 141.174 175.271 141.15C174.241 141.134 173.392 141.961 173.378 142.992C173.365 144.022 174.19 144.869 175.222 144.883C177.08 144.907 179.001 144.87 180.934 144.773C188.74 144.378 195.743 143.064 201.652 140.914C201.887 141.444 202.095 141.981 202.279 142.526C202.283 142.537 202.286 142.548 202.29 142.56C202.839 144.194 203.162 145.893 203.25 147.638C203.82 158.886 194.363 168.539 182.169 169.156C169.975 169.772 159.591 161.123 159.021 149.875C158.903 147.537 159.208 145.24 159.93 143.028C161.949 143.537 164.084 143.947 166.338 144.251C166.454 144.266 166.57 144.271 166.684 144.265C167.565 144.221 168.317 143.555 168.439 142.651C168.577 141.629 167.86 140.689 166.837 140.551C164.154 140.189 161.661 139.671 159.357 139.007C159.323 138.995 159.288 138.986 159.254 138.977C154.835 137.691 151.125 135.854 148.184 133.478C143.423 129.631 140.844 124.444 140.521 118.059C140.411 115.887 140.572 113.705 140.998 111.558C141.177 111.483 141.354 111.402 141.527 111.31C143.03 110.515 144.134 109.182 144.635 107.557L147.453 98.4058C150.774 94.4368 155.177 91.0566 160.214 88.62C165.642 85.9938 171.58 84.5011 177.864 84.1834C184.148 83.8656 190.207 84.7516 195.873 86.8167C201.13 88.7328 205.852 91.6516 209.558 95.2651L213.286 104.085C213.948 105.651 215.181 106.866 216.757 107.506C216.939 107.58 217.123 107.642 217.308 107.699C217.949 109.792 218.33 111.947 218.44 114.119C218.853 122.256 215.459 128.769 208.351 133.477ZM220.179 104.033C220.179 104.033 220.179 104.033 220.179 104.033C219.776 104.203 219.348 104.269 218.924 104.232C218.916 104.231 218.907 104.23 218.899 104.229C218.65 104.204 218.402 104.144 218.164 104.047C217.512 103.783 217.003 103.281 216.729 102.633L212.864 93.4889C212.862 93.485 212.86 93.4813 212.859 93.4774L208.25 82.575C207.685 81.2387 208.314 79.6923 209.651 79.1278C211.063 78.5321 212.523 78.2096 213.972 78.1363C219.194 77.8722 224.272 80.8472 226.421 85.9322L226.99 87.2783C229.735 93.7733 226.68 101.29 220.179 104.033ZM165.365 107.877C164.772 108.386 164.38 108.722 163.345 108.774C162.31 108.826 161.886 108.532 161.245 108.086C160.399 107.497 159.234 107.705 158.645 108.551C158.055 109.397 158.263 110.56 159.11 111.149C159.951 111.735 161.223 112.619 163.534 112.502C165.845 112.385 167.021 111.377 167.798 110.71C168.581 110.038 168.671 108.86 167.999 108.078C167.327 107.295 166.147 107.206 165.365 107.877ZM158.848 120.42C156.555 121.154 152.281 123.577 150.642 124.919C149.844 125.572 149.727 126.748 150.381 127.546C150.772 128.022 151.35 128.256 151.922 128.227C152.307 128.207 152.689 128.069 153.01 127.806C154.304 126.747 158.202 124.547 159.988 123.975C160.971 123.661 161.512 122.61 161.197 121.628C160.882 120.647 159.831 120.106 158.848 120.42ZM157.487 118.63C158.516 118.713 159.417 117.948 159.5 116.921C159.584 115.893 158.818 114.993 157.789 114.909C155.389 114.715 150.514 115.328 148.487 115.944C147.5 116.245 146.943 117.288 147.244 118.274C147.499 119.11 148.288 119.637 149.124 119.595C149.274 119.587 149.425 119.562 149.575 119.516C151.175 119.029 155.618 118.478 157.487 118.63ZM199.45 106.487C198.778 105.705 197.599 105.615 196.816 106.286C196.223 106.795 195.831 107.131 194.796 107.183C193.76 107.236 193.337 106.941 192.696 106.495C191.849 105.906 190.685 106.114 190.095 106.96C189.505 107.806 189.714 108.969 190.561 109.558C191.402 110.144 192.674 111.028 194.984 110.911C197.296 110.795 198.471 109.786 199.249 109.119C200.032 108.448 200.122 107.269 199.45 106.487ZM209.065 121.964C207.299 120.794 202.802 118.815 200.447 118.317C199.438 118.103 198.446 118.747 198.232 119.756C198.018 120.764 198.663 121.755 199.672 121.969C201.507 122.357 205.607 124.152 207.001 125.076C207.347 125.305 207.741 125.404 208.126 125.384C208.698 125.355 209.25 125.065 209.591 124.551C210.161 123.692 209.926 122.534 209.065 121.964ZM184.53 109.447C183.719 108.81 182.545 108.951 181.907 109.761C181.256 110.589 180.28 111.094 179.231 111.147C178.181 111.2 177.16 110.796 176.428 110.038C175.712 109.296 174.529 109.275 173.786 109.991C173.044 110.706 173.022 111.888 173.739 112.63C175.221 114.165 177.291 114.983 179.419 114.876C181.548 114.768 183.525 113.745 184.844 112.068C185.482 111.258 185.342 110.085 184.53 109.447Z" fill="#151515"/>
</g>
<g clip-path="url(#clip2_144_10357)">
<path d="M227.768 265.017C227.07 264.759 226.475 264.225 226.16 263.486C225.556 262.064 226.219 260.421 227.643 259.817C238.378 255.26 244.931 260.158 249.715 263.734C251.884 265.356 253.757 266.756 255.421 266.906C261.508 267.455 266.103 262.697 267.335 257.94C267.723 256.444 269.251 255.545 270.748 255.933C272.249 256.32 273.145 257.847 272.757 259.343C271.779 263.116 269.55 266.533 266.481 268.964C263.149 271.603 259.042 272.852 254.917 272.479C251.672 272.186 248.972 270.167 246.361 268.215C241.857 264.849 237.604 261.669 229.833 264.967C229.149 265.257 228.414 265.255 227.768 265.017Z" fill="#EDA751"/>
<path d="M226.16 263.486C226.475 264.225 227.07 264.759 227.768 265.017C228.414 265.255 229.149 265.257 229.833 264.967C230.696 264.601 231.514 264.318 232.296 264.103C232.552 261.739 231.456 259.947 230.348 258.838C229.477 259.098 228.576 259.421 227.643 259.817C226.22 260.421 225.556 262.064 226.16 263.486Z" fill="#FCD79D"/>
<path d="M251.224 224.527C253.478 219.758 253.547 213.46 244.843 208.203C236.071 202.904 227.407 204.552 221.668 208.059C220.252 208.924 219.482 210.554 219.713 212.195C220.651 218.852 224.885 226.582 234.555 229.981C244.149 233.353 248.971 229.297 251.224 224.527Z" fill="#EDA751"/>
<path d="M219.882 213.203C221.091 219.616 225.369 226.752 234.555 229.981C242.871 232.904 247.6 230.245 250.18 226.379C239.965 210.73 227.1 211.254 219.882 213.203Z" fill="#FF91AB"/>
<path d="M274.07 214.014C268.977 212.625 264.142 208.584 265.8 198.559C267.471 188.454 274.355 182.946 280.753 180.867C282.331 180.355 284.071 180.829 285.17 182.072C289.624 187.11 292.752 195.349 289.052 204.901C285.381 214.377 279.162 215.403 274.07 214.014Z" fill="#EDA751"/>
<path d="M285.826 182.854C289.918 187.94 292.566 195.827 289.052 204.901C285.87 213.115 280.774 214.978 276.157 214.425C270.892 196.497 279.652 187.069 285.826 182.854Z" fill="#FF91AB"/>
<path d="M296.745 209.212C303.475 223.81 292.116 236.788 274.468 244.91C256.819 253.033 239.565 253.223 232.835 238.625C226.105 224.026 234.956 205.608 252.604 197.486C270.252 189.364 290.015 194.614 296.745 209.212Z" fill="#FFDC9C"/>
<path opacity="0.15" d="M237.423 209.419C230.633 218.222 228.497 229.216 232.834 238.625C238.619 251.174 252.182 252.794 267.087 247.843C241.133 245.063 236.255 227.502 237.423 209.419Z" fill="#C17A00"/>
<path d="M263.679 221.509C262.78 221.923 261.82 222.031 260.913 221.877L263.219 226.88C263.835 228.216 265.419 228.801 266.756 228.185C268.094 227.57 268.679 225.988 268.063 224.651L265.756 219.648C265.283 220.436 264.577 221.096 263.679 221.509Z" fill="#FF91AB"/>
<path opacity="0.05" d="M263.679 221.509C262.78 221.923 261.82 222.031 260.913 221.877L262.291 224.867C263.198 225.02 264.159 224.913 265.057 224.499C265.956 224.086 266.662 223.426 267.135 222.638L265.757 219.648C265.283 220.436 264.577 221.096 263.679 221.509Z" fill="#151515"/>
<path d="M255.179 229.087C254.007 226.545 250.466 225.676 247.271 227.146C244.075 228.617 242.435 231.87 243.607 234.412C244.779 236.955 248.32 237.824 251.515 236.353C254.71 234.883 256.351 231.63 255.179 229.087Z" fill="#FF91AB"/>
<path d="M274.97 219.98C276.142 222.522 279.682 223.391 282.878 221.921C286.073 220.45 287.713 217.197 286.541 214.655C285.369 212.112 281.829 211.243 278.633 212.714C275.438 214.184 273.798 217.438 274.97 219.98Z" fill="#FF91AB"/>
<path d="M322.652 241.526C315.939 226.964 298.682 220.597 284.109 227.305L243.629 245.934C239.783 247.704 238.101 252.254 239.873 256.097L257.767 294.911C259.538 298.754 264.093 300.435 267.939 298.664L308.418 280.035C322.992 273.328 329.365 256.087 322.652 241.526Z" fill="#78CFC0"/>
<path opacity="0.05" d="M257.484 239.558L243.629 245.934C239.783 247.704 238.101 252.255 239.873 256.097L257.767 294.911C259.538 298.754 264.093 300.435 267.939 298.664L299.423 284.175C268.516 287.715 257.002 249.759 257.484 239.558Z" fill="#151515"/>
<path opacity="0.1" d="M240.729 248.26C240.733 248.269 240.736 248.278 240.74 248.287L243.069 253.338C243.638 254.573 244.654 255.46 245.836 255.896C247.019 256.332 248.368 256.318 249.604 255.749C252.075 254.612 253.155 251.689 252.017 249.22L249.688 244.168C249.555 243.88 249.395 243.612 249.217 243.363L243.63 245.934C242.444 246.479 241.466 247.289 240.729 248.26Z" fill="#151515"/>
<path opacity="0.1" d="M294.804 232.783C297.552 233.501 300.362 231.856 301.08 229.11L302.094 225.232C298.656 224.526 295.073 224.436 291.516 225.027L291.128 226.512C290.453 229.091 291.865 231.725 294.316 232.63C294.475 232.688 294.637 232.74 294.804 232.783Z" fill="#151515"/>
<path d="M252.096 282.611L245.544 268.398L226.079 277.356C222.151 279.164 220.433 283.811 222.243 287.736C224.052 291.661 228.703 293.377 232.632 291.569L252.096 282.611Z" fill="#B77866"/>
<g opacity="0.1">
<path d="M254.946 260.765C253.68 258.018 254.882 254.765 257.632 253.5L291.734 237.806C294.483 236.541 297.738 237.742 299.005 240.489C300.271 243.236 299.069 246.488 296.32 247.753L262.217 263.448C259.468 264.713 256.213 263.512 254.946 260.765Z" fill="#151515"/>
<path d="M264.013 280.432C265.28 283.179 268.535 284.38 271.284 283.114L305.386 267.42C308.136 266.155 309.338 262.902 308.071 260.155C306.805 257.408 303.55 256.207 300.8 257.473L266.698 273.167C263.949 274.432 262.747 277.685 264.013 280.432Z" fill="#151515"/>
</g>
<path opacity="0.1" d="M237.777 271.971L244.327 286.178L252.092 282.605L245.542 268.397L237.777 271.971Z" fill="#151515"/>
<path d="M247.264 253.316C246.189 252.919 245.265 252.112 244.747 250.989L242.628 246.395C241.593 244.149 242.576 241.49 244.823 240.456C247.071 239.421 249.732 240.403 250.767 242.649L252.886 247.244C253.921 249.49 252.938 252.149 250.691 253.183C249.567 253.7 248.34 253.713 247.264 253.316Z" fill="#EDA751"/>
<path d="M295.738 230.222C293.603 229.434 292.373 227.139 292.961 224.892L294.026 220.819C294.652 218.427 297.1 216.995 299.494 217.62C301.886 218.246 303.321 220.691 302.696 223.083L301.631 227.155C301.005 229.547 298.557 230.98 296.163 230.355C296.018 230.317 295.876 230.273 295.738 230.222Z" fill="#EDA751"/>
<path d="M260.519 219.823C259.58 219.4 258.472 219.82 258.049 220.76C257.626 221.701 258.046 222.806 258.987 223.228C259.126 223.291 259.266 223.348 259.408 223.4C261.047 224.005 262.865 223.939 264.461 223.205C266.195 222.407 267.498 220.898 268.036 219.064C268.326 218.075 267.755 217.037 266.769 216.748C265.778 216.458 264.741 217.025 264.45 218.014C264.216 218.812 263.65 219.468 262.898 219.814C262.144 220.16 261.276 220.162 260.519 219.823ZM274.618 216.028C275.066 216.193 275.578 216.188 276.047 215.972C276.984 215.541 277.394 214.432 276.962 213.496L276.021 211.454C275.589 210.518 274.48 210.108 273.542 210.54C272.605 210.971 272.195 212.08 272.627 213.016L273.568 215.057C273.784 215.526 274.169 215.862 274.618 216.028ZM288.317 211.192C286.504 211.535 282.494 213.029 280.72 214.148C279.847 214.699 279.587 215.851 280.138 216.723C280.366 217.084 280.697 217.34 281.069 217.477C281.596 217.672 282.203 217.628 282.715 217.305C284.06 216.457 287.616 215.124 289.011 214.861C290.025 214.669 290.692 213.693 290.5 212.68C290.308 211.667 289.332 211.001 288.317 211.192ZM280.688 220.895C280.807 221.575 281.279 222.104 281.883 222.327C282.182 222.437 282.512 222.473 282.849 222.414C284.416 222.142 288.212 222.263 289.602 222.551C290.613 222.76 291.601 222.111 291.811 221.102C292.02 220.092 291.368 219.104 290.36 218.896C288.553 218.522 284.276 218.377 282.209 218.736C281.192 218.913 280.512 219.88 280.688 220.895ZM248.951 226.387C249.167 226.855 249.552 227.192 250.001 227.357C250.449 227.523 250.961 227.517 251.429 227.302C252.367 226.87 252.776 225.762 252.345 224.825L251.404 222.784C250.972 221.848 249.862 221.438 248.925 221.869C247.988 222.301 247.578 223.409 248.01 224.346L248.951 226.387ZM324.349 240.745C320.534 232.47 313.172 226.277 304.42 223.873L304.503 223.555C305.34 220.353 303.561 217.073 300.496 215.98C300.279 213.459 299.592 210.926 298.442 208.431C296.943 205.181 294.839 202.365 292.281 200.02C293.32 193.091 291.269 186.153 286.57 180.836C284.975 179.033 282.466 178.348 280.175 179.092C273.7 181.196 268.522 185.864 265.806 191.994C261.163 192.432 256.421 193.674 251.822 195.79C247.294 197.874 243.239 200.646 239.829 203.936C233.406 202.021 226.497 202.92 220.693 206.467C218.639 207.722 217.529 210.072 217.864 212.455C218.852 219.471 222.789 225.531 228.722 229.247C228.845 232.55 229.562 235.778 230.88 238.828C231.091 239.316 231.485 239.668 231.948 239.839C232.382 239.999 232.877 239.999 233.336 239.801C234.283 239.393 234.719 238.294 234.31 237.348C233.076 234.494 232.457 231.447 232.445 228.325C232.451 228.24 232.452 228.156 232.447 228.072C232.473 224.145 233.455 220.104 235.387 216.177C235.684 215.573 236.002 214.978 236.337 214.392C236.342 214.385 236.345 214.378 236.349 214.371C237.769 211.894 239.523 209.579 241.563 207.477C241.637 207.413 241.706 207.343 241.77 207.267C245.008 203.983 248.946 201.224 253.386 199.181C270.07 191.502 288.76 196.352 295.049 209.992C295.944 211.934 296.502 213.889 296.724 215.826C294.592 216.399 292.816 218.065 292.219 220.347L291.488 223.141C288.675 223.581 285.935 224.409 283.327 225.609L251.428 240.29C250.941 239.747 250.369 239.299 249.742 238.958C250.523 238.015 251.339 237.124 251.908 236.653C252.703 235.996 252.815 234.819 252.157 234.025C251.499 233.231 250.322 233.12 249.527 233.777C248.386 234.719 246.724 236.658 245.53 238.286C245.027 238.38 244.527 238.536 244.042 238.76C242.501 239.469 241.33 240.735 240.742 242.324C240.409 243.225 240.287 244.17 240.373 245.099C239.75 244.656 239.158 244.172 238.606 243.649C237.856 242.939 236.674 242.971 235.964 243.719C235.255 244.467 235.286 245.649 236.035 246.358C236.794 247.077 237.611 247.736 238.477 248.331C237.19 250.704 236.926 253.585 237.901 256.212C234.396 255.838 230.769 256.462 226.912 258.099C224.543 259.105 223.434 261.849 224.44 264.216C224.941 265.394 225.918 266.324 227.12 266.768C228.241 267.181 229.463 267.152 230.563 266.685C235.966 264.392 239.233 265.565 242.505 267.741L225.297 275.66C222.944 276.743 221.153 278.677 220.256 281.105C219.358 283.534 219.461 286.166 220.545 288.517C221.629 290.868 223.564 292.657 225.995 293.553C228.425 294.45 231.059 294.348 233.413 293.265L251.181 285.088L256.07 295.693C257.17 298.079 259.138 299.795 261.429 300.64C263.72 301.485 266.332 301.459 268.72 300.36L299.693 286.106C300.63 285.675 301.04 284.566 300.608 283.63C300.177 282.694 299.067 282.284 298.13 282.716L267.157 296.969C264.253 298.306 260.801 297.033 259.463 294.131L241.57 255.316C240.7 253.428 240.944 251.263 242.06 249.622L243.051 251.77C243.76 253.309 245.026 254.48 246.617 255.067C248.208 255.654 249.933 255.587 251.473 254.878C254.652 253.415 256.048 249.64 254.583 246.463L253.246 243.564L284.89 229C286.86 228.094 288.914 227.433 291.02 227.018C291.365 229.224 292.866 231.152 295.091 231.973C295.287 232.045 295.488 232.109 295.691 232.162C299.078 233.046 302.553 231.012 303.438 227.628L303.475 227.486C311.153 229.608 317.608 235.046 320.955 242.307C327.226 255.91 321.252 272.075 307.637 278.341L306.082 279.057C305.145 279.488 304.735 280.597 305.167 281.533C305.383 282.001 305.768 282.337 306.216 282.503C306.665 282.668 307.177 282.663 307.645 282.447L309.2 281.732C324.686 274.604 331.482 256.218 324.349 240.745ZM222.132 214.594C224.831 214.058 228.28 213.808 231.986 214.629C230.349 217.983 229.323 221.42 228.911 224.828C224.823 221.615 222.971 217.548 222.132 214.594ZM233.87 211.246C229.279 210.017 224.992 210.25 221.665 210.881C221.834 210.379 222.172 209.939 222.643 209.652C224.804 208.331 230.167 205.708 236.922 207.054C235.805 208.39 234.784 209.79 233.87 211.246ZM270.063 191.818C273.429 185.798 278.919 183.426 281.331 182.643C281.856 182.472 282.41 182.502 282.901 182.699C280.255 184.819 277.286 187.93 275.237 192.225C273.547 191.975 271.818 191.839 270.063 191.818ZM279.032 192.995C280.817 189.636 283.255 187.172 285.422 185.468C287.127 188.029 289.02 192.089 288.799 197.296C285.886 195.361 282.581 193.915 279.032 192.995ZM249.618 281.697L231.85 289.874C230.403 290.539 228.784 290.603 227.289 290.051C225.795 289.5 224.605 288.4 223.939 286.955C223.273 285.509 223.209 283.891 223.761 282.398C224.313 280.905 225.413 279.716 226.86 279.051L244.628 270.874L249.618 281.697ZM239.774 260.344L240.829 262.633C237.71 261.415 234.003 261.169 229.102 263.249C228.883 263.342 228.639 263.348 228.415 263.266C228.274 263.214 228.017 263.078 227.88 262.756C227.748 262.447 227.819 262.177 227.873 262.043C227.928 261.91 228.064 261.666 228.373 261.535C232.477 259.793 236.215 259.402 239.774 260.344ZM251.267 250.021C251.025 250.675 250.543 251.196 249.909 251.487C249.276 251.779 248.566 251.807 247.911 251.565C247.257 251.323 246.736 250.842 246.444 250.208L244.325 245.614C244.033 244.981 244.006 244.272 244.247 243.618C244.403 243.197 244.659 242.832 244.99 242.547C245.022 242.567 245.052 242.588 245.085 242.606C245.169 242.652 245.254 242.691 245.341 242.723C246.13 243.014 247.025 242.738 247.512 242.046C247.542 242.056 247.573 242.064 247.602 242.075C248.23 242.306 248.769 242.776 249.07 243.43L251.189 248.025C251.481 248.658 251.509 249.367 251.267 250.021ZM296.635 228.549C296.551 228.527 296.467 228.501 296.386 228.471C295.122 228.005 294.427 226.669 294.768 225.364L294.77 225.36C294.77 225.36 294.77 225.359 294.77 225.359L294.772 225.349L295.833 221.292C296.152 220.075 297.283 219.283 298.493 219.345C298.517 219.347 298.541 219.35 298.565 219.352C298.716 219.364 298.868 219.387 299.021 219.426C299.105 219.448 299.186 219.474 299.266 219.503C300.511 219.963 301.23 221.304 300.888 222.612L299.823 226.684C299.459 228.076 298.029 228.913 296.635 228.549ZM239.531 236.137C239.751 236.41 240.032 236.605 240.339 236.718C240.934 236.938 241.627 236.849 242.158 236.423C243.265 235.535 246.589 233.701 248.109 233.23C249.095 232.926 249.647 231.88 249.341 230.895C249.036 229.911 247.99 229.359 247.004 229.664C245 230.284 241.257 232.358 239.818 233.512C239.013 234.158 238.885 235.333 239.531 236.137Z" fill="#151515"/>
</g>
<g clip-path="url(#clip3_144_10357)">
<path d="M31.4169 92.6447C29.9269 92.8188 28.3428 92.6906 26.6493 92.2629C21.9753 91.0826 20.0222 88.3635 18.596 86.3781C17.0793 84.2668 16.318 83.2068 12.4902 83.4384C10.9738 83.5301 9.67043 82.3763 9.57862 80.8614C9.48678 79.3463 10.6458 78.0426 12.1578 77.9523C19.0164 77.5373 21.2613 80.6625 23.0649 83.1733C24.2981 84.8899 25.2721 86.2461 27.997 86.9341C32.7688 88.1391 34.7169 85.4768 38.3289 79.8267L38.4619 79.6188C39.2797 78.3398 40.9805 77.9654 42.2604 78.7827C43.5403 79.5999 43.9152 81.2991 43.0972 82.5781L42.9649 82.7853C41.144 85.6338 39.4243 88.3241 37.0226 90.2384C35.3051 91.6076 33.4485 92.4074 31.4169 92.6447Z" fill="#EDA751"/>
<path d="M9.57844 80.8617C9.67026 82.3767 10.9738 83.5304 12.4901 83.4387C13.5967 83.3718 14.4458 83.4133 15.1322 83.5566C15.7271 81.6804 15.6301 79.6006 15.3302 78.0369C14.3961 77.9175 13.3477 77.8807 12.1575 77.9528C10.6457 78.0429 9.48663 79.3468 9.57844 80.8617Z" fill="#FCD79D"/>
<path d="M63.473 104.563C63.3287 104.58 63.1825 104.59 63.0345 104.593C60.6044 104.636 58.5997 102.702 58.5567 100.275C58.4514 94.3355 57.2135 89.7977 56.1855 87.7169C55.11 85.5392 56.0051 82.9029 58.1844 81.8281C60.364 80.7535 63.0024 81.6477 64.0783 83.8253C66.0199 87.756 67.2453 93.8474 67.3565 100.119C67.397 102.398 65.6929 104.304 63.473 104.563Z" fill="#EDA751"/>
<path d="M47.9744 106.374C47.8303 106.391 47.684 106.401 47.5358 106.404C45.1057 106.447 43.1013 104.513 43.0583 102.085C42.9532 96.1463 41.7154 91.6086 40.6873 89.5274C39.6118 87.3497 40.5067 84.7134 42.6862 83.6387C44.8652 82.5641 47.5043 83.4582 48.5799 85.6359C50.5217 89.5669 51.7471 95.6583 51.8581 101.93C51.8983 104.209 50.1946 106.115 47.9744 106.374Z" fill="#EDA751"/>
<path opacity="0.2" d="M42.6862 83.6384C40.5066 84.713 39.6116 87.3497 40.6873 89.5272C41.3279 90.8239 42.0496 93.0745 42.5282 96.0228C45.3603 96.8251 48.4005 97.1367 51.5244 96.8639C51.0225 92.4875 49.9905 88.4913 48.5798 85.6354C47.5043 83.4579 44.865 82.5639 42.6862 83.6384Z" fill="#A35F00"/>
<path opacity="0.2" d="M64.0782 83.8246C63.0023 81.6468 60.3637 80.7528 58.1844 81.8274C56.005 82.902 55.11 85.5387 56.1855 87.7162C56.9069 89.1763 57.7308 91.8471 58.195 95.3616C61.2475 94.2205 63.9776 92.5166 66.2577 90.4019C65.707 87.8832 64.9681 85.6265 64.0782 83.8246Z" fill="#A35F00"/>
<path d="M51.8596 93.2541C62.9938 91.9532 71.0391 82.5191 69.8293 72.1825C68.6195 61.8459 58.6126 54.521 47.4784 55.8219C36.3442 57.1229 28.2988 66.557 29.5087 76.8936C30.7185 87.2302 40.7254 94.555 51.8596 93.2541Z" fill="#FCD690"/>
<path opacity="0.15" d="M48.8922 93.4001C38.9723 88.4334 40.3777 75.7138 41.3077 70.1147L39.9079 58.155C32.9439 61.8244 28.5969 69.1024 29.5089 76.8941C30.6099 86.3026 38.9988 93.2149 48.8922 93.4001Z" fill="#C18F00"/>
<path d="M33.6015 43.517C37.1591 39.7487 39.1432 33.8892 32.6185 26.3319C26.0422 18.7152 17.4497 17.6173 11.0209 19.1464C9.43591 19.5232 8.2198 20.8113 7.93542 22.4143C6.78233 28.9156 8.37997 37.4221 16.3735 43.5378C24.3045 49.6055 30.0439 47.2852 33.6015 43.517Z" fill="#EDA751"/>
<path d="M7.78559 23.4059C6.96029 29.7622 8.77994 37.728 16.3735 43.5376C23.2478 48.797 28.4742 47.7531 32.0619 44.9284C27.293 27.2071 15.12 23.7826 7.78559 23.4059Z" fill="#FF91AB"/>
<path d="M58.1387 40.6497C53.8067 37.8032 50.523 32.5592 55.1267 23.7017C59.7666 14.7743 67.8735 11.7254 74.482 11.7312C76.1112 11.7325 77.592 12.7054 78.2389 14.1996C80.8624 20.2597 81.2721 28.905 74.9065 36.6984C68.5908 44.4307 62.4705 43.4961 58.1387 40.6497Z" fill="#EDA751"/>
<path d="M78.6137 15.1303C80.8846 21.1248 80.9535 29.2952 74.9065 36.6986C69.4322 43.4008 64.1058 43.5899 59.9625 41.6685C60.5104 23.326 71.5642 17.1876 78.6137 15.1303Z" fill="#FF91AB"/>
<path d="M80.7762 43.0648C82.6114 58.7442 68.0486 67.407 49.093 69.6218C30.1374 71.8366 13.9675 66.7646 12.1323 51.0852C10.2972 35.4059 24.176 20.8999 43.1316 18.6851C62.0872 16.4703 78.941 27.3854 80.7762 43.0648Z" fill="#FFDC9C"/>
<path opacity="0.15" d="M25.3182 25.2097C16.2948 31.3638 10.9496 40.9804 12.1323 51.0851C13.7099 64.5636 25.8807 70.2033 41.3077 70.1143C17.9196 59.6219 18.7167 41.7395 25.3182 25.2097Z" fill="#C18F00"/>
<path d="M30.2677 54.6501C33.6995 54.2491 36.2223 51.7101 35.9026 48.9789C35.583 46.2478 32.5419 44.3589 29.1102 44.7598C25.6784 45.1608 23.1556 47.6998 23.4753 50.431C23.7949 53.1621 26.836 55.051 30.2677 54.6501Z" fill="#FF91AB"/>
<path d="M63.9521 50.7143C67.3838 50.3133 69.9066 47.7743 69.5869 45.0431C69.2673 42.312 66.2262 40.4231 62.7945 40.824C59.3628 41.225 56.8399 43.7641 57.1596 46.4952C57.4793 49.2263 60.5204 51.1152 63.9521 50.7143Z" fill="#FF91AB"/>
<path d="M50.7858 41.3123L40.9088 42.4664C38.7326 42.7206 37.1748 44.6894 37.4293 46.8637L37.6416 48.6778C38.215 53.5773 42.6552 57.0845 47.5587 56.5116C52.4624 55.9386 55.9727 51.5024 55.3993 46.603L55.1869 44.7889C54.9325 42.6147 52.9622 41.058 50.7858 41.3123Z" fill="white"/>
<path opacity="0.1" d="M43.1441 55.911C44.0112 56.2652 44.9419 56.4849 45.9078 56.5503L44.2142 42.0804L41.5616 42.3903L43.1441 55.911ZM47.4807 41.6985L49.1743 56.1684C50.099 55.8823 50.9537 55.4541 51.7156 54.9095L50.1331 41.3886L47.4807 41.6985Z" fill="#151515"/>
<path d="M85.8298 49.0287L69.6227 57.1624C67.6043 58.1754 65.1813 57.9252 63.4128 56.5215C62.078 55.4622 61.2774 53.8696 61.2239 52.1675C61.1528 49.912 62.3988 47.8206 64.4172 46.8077L74.3145 41.8405C77.0056 40.4899 79.3185 38.4927 81.0458 36.0282C82.6932 33.6776 86.3215 34.2273 87.1977 36.9599L87.5983 38.2095C88.23 40.1801 88.5836 42.2289 88.6489 44.2971C88.7115 46.2881 87.6115 48.1345 85.8298 49.0287Z" fill="#82C7E6"/>
<g opacity="0.3">
<path d="M82.4914 42.0016C83.2072 41.918 83.7196 41.2703 83.6359 40.5551C83.5522 39.8399 82.9041 39.3279 82.1882 39.4115C81.4724 39.4952 80.9599 40.1428 81.0436 40.858C81.1273 41.5732 81.7755 42.0852 82.4914 42.0016Z" fill="white"/>
<path d="M66.0612 51.2221C66.777 51.1384 67.2895 50.4908 67.2058 49.7756C67.1221 49.0604 66.4739 48.5484 65.7581 48.632C65.0422 48.7156 64.5298 49.3632 64.6135 50.0785C64.6972 50.7937 65.3454 51.3057 66.0612 51.2221Z" fill="white"/>
<path d="M75.04 48.861C75.7558 48.7773 76.2683 48.1297 76.1845 47.4145C76.1008 46.6993 75.4527 46.1873 74.7368 46.2709C74.021 46.3546 73.5085 47.0022 73.5922 47.7174C73.676 48.4326 74.3241 48.9446 75.04 48.861Z" fill="white"/>
</g>
<path opacity="0.1" d="M66.3483 45.8381L64.417 46.8073C62.3986 47.8203 61.1526 49.9118 61.2236 52.1671C61.2774 53.8694 62.0779 55.462 63.4126 56.5212C65.181 57.9249 67.6041 58.175 69.6224 57.162L72.5089 55.7135C65.8439 56.1428 65.5464 49.261 66.3483 45.8381Z" fill="#151515"/>
<path d="M46.1069 79.9957C47.045 80.5592 48.2065 80.6034 49.1847 80.1125L66.1035 71.6218C67.0816 71.131 67.7398 70.1736 67.8473 69.0854L68.075 66.7834L93.5087 54.0192L96.8407 60.6467C97.95 62.8534 97.0589 65.5406 94.8503 66.649L19.9681 104.229C17.7594 105.338 15.07 104.447 13.9606 102.241L12.6374 99.6084C11.528 97.4017 12.4192 94.7146 14.6278 93.6061L42.054 79.842C43.3417 79.1956 44.8716 79.2537 46.1069 79.9957Z" fill="#7694E4"/>
<path d="M86.9485 46.0138L83.8513 46.0288C82.3914 46.0359 81.0191 46.7246 80.142 47.8904L78.1532 50.5333C77.2758 51.6991 75.9035 52.3879 74.4439 52.395L71.1346 52.411C69.6747 52.4181 68.3024 53.1068 67.4252 54.2726L65.5638 56.7462C64.6328 57.9834 64.4836 59.6407 65.179 61.0238L68.0749 66.7838L93.5085 54.0196L90.6127 48.2598C89.9173 46.8763 88.4977 46.0062 86.9485 46.0138Z" fill="#DEE2E5"/>
<g opacity="0.1">
<path d="M84.0125 55.0011C83.4543 55.0663 82.8901 54.7833 82.6232 54.2525L81.6597 52.3357C81.3186 51.6575 81.5927 50.8314 82.2714 50.4906C82.9509 50.1496 83.7772 50.4237 84.1181 51.102L85.0816 53.0188C85.4227 53.697 85.1486 54.5231 84.4699 54.8639C84.3224 54.9379 84.1673 54.983 84.0125 55.0011Z" fill="#151515"/>
<path d="M74.7676 60.3816C74.2095 60.4468 73.6452 60.1637 73.3783 59.6328L72.7081 58.2993C72.3672 57.6209 72.6412 56.795 73.32 56.4544C73.9995 56.113 74.8257 56.3875 75.1666 57.0658L75.8367 58.3993C76.1776 59.0775 75.9037 59.9036 75.2248 60.2442C75.0773 60.3185 74.9227 60.3635 74.7676 60.3816Z" fill="#151515"/>
</g>
<path d="M24.6968 95.1457L41.6021 86.6618C43.3133 85.803 44.0038 83.7208 43.1442 82.0113L42.0539 79.8424L18.952 91.4361L20.0423 93.605C20.9019 95.3146 22.9856 96.0045 24.6968 95.1457Z" fill="#82C7E6"/>
<path d="M40.857 88.2308C37.4854 88.6248 33.8433 87.3699 31.2689 84.9074C28.3965 82.1592 27.0735 78.268 27.5435 73.9498C27.8063 71.5357 29.9782 69.7921 32.3942 70.0541C34.8104 70.3166 36.5559 72.4866 36.2933 74.9005C36.1206 76.4862 36.4782 77.7158 37.3558 78.5556C38.1736 79.3381 39.24 79.5867 39.8855 79.4899C42.2893 79.1194 44.5334 80.771 44.9006 83.1715C45.2682 85.5719 43.6182 87.8152 41.2159 88.1823C41.0969 88.2006 40.9769 88.2168 40.857 88.2308Z" fill="#EDA751"/>
<path d="M78.2532 80.958C77.6184 81.0322 76.9572 80.9687 76.3121 80.7468C74.0141 79.9561 72.793 77.4537 73.5842 75.158C73.7953 74.5447 73.8479 74.1325 73.9682 73.0304C73.9875 72.8544 74.0074 72.6711 74.0294 72.4785C74.3041 70.0657 76.4854 68.3324 78.8989 68.6063C81.3139 68.8806 83.0489 71.0589 82.7745 73.4716C82.7541 73.6506 82.7356 73.8208 82.7176 73.9844C82.5794 75.2503 82.4486 76.446 81.9056 78.0213C81.337 79.6726 79.8809 80.7678 78.2532 80.958Z" fill="#EDA751"/>
<path d="M28.0468 50.2371C28.8062 50.2484 29.4316 49.6424 29.4428 48.8834C29.4543 48.1243 28.8475 47.5 28.088 47.4885C26.0725 47.4585 22.0341 48.2387 20.3742 48.8657C19.6635 49.1339 19.3052 49.9273 19.5739 50.6372C19.8017 51.2394 20.4072 51.5884 21.0193 51.5169C21.129 51.504 21.2389 51.4777 21.347 51.4369C22.7147 50.9202 26.4107 50.2122 28.0468 50.2371ZM31.1503 52.8381C30.8714 52.1322 30.0727 51.786 29.3658 52.0642C27.4911 52.8033 24.0547 55.0624 22.759 56.2739C22.2043 56.7926 22.1755 57.6624 22.6946 58.2165C23.0051 58.5478 23.4409 58.6913 23.8599 58.6424C24.1417 58.6094 24.4159 58.4894 24.6389 58.2809C25.7067 57.2825 28.8538 55.2212 30.3759 54.6209C31.0825 54.3424 31.4291 53.5441 31.1503 52.8381ZM57.6136 42.0688C58.3683 41.9806 58.9083 41.298 58.8201 40.5441C58.7505 39.9494 59.1779 39.4093 59.7731 39.3397C60.3682 39.2702 60.9089 39.6974 60.9784 40.2919C61.0667 41.0458 61.7498 41.5855 62.5045 41.4973C63.2592 41.4092 63.7992 40.7265 63.711 39.9726C63.4652 37.8725 61.5552 36.3641 59.4535 36.6097C57.3518 36.8553 55.8418 38.7636 56.0875 40.8633C56.1758 41.6172 56.859 42.157 57.6136 42.0688ZM98.0694 60.0298L94.7374 53.4023L91.8418 47.6425C91.3955 46.7546 90.7336 46.031 89.9388 45.5152C90.0083 45.0991 90.0369 44.6777 90.0234 44.2536C89.9541 42.0571 89.5788 39.8825 88.9081 37.79L88.5076 36.5403C87.9416 34.7752 86.4508 33.5062 84.6167 33.2285C82.8046 32.954 81.027 33.7042 79.9587 35.1862C79.6339 34.4824 79.2802 33.7935 78.8955 33.1226C82.0155 27.0433 82.2455 19.9937 79.5014 13.6537C78.6351 11.6526 76.6654 10.3583 74.4834 10.3565C67.8367 10.351 61.6241 13.1556 57.2989 18.0791C52.7834 17.0369 47.9281 16.7402 42.9717 17.3193C38.0597 17.8933 33.3942 19.2736 29.1923 21.3513C23.8491 17.566 17.1631 16.2726 10.7025 17.8091C8.57958 18.3139 6.96173 20.0271 6.58109 22.174C5.37533 28.9716 7.22466 35.7741 11.6591 40.9691C10.672 44.3035 10.3594 47.7688 10.7662 51.2447C11.6836 59.0822 16.133 64.9865 23.6339 68.3195C25.076 68.9603 26.6261 69.505 28.2738 69.9529C27.136 70.8783 26.347 72.2326 26.1761 73.8013C25.7214 77.9773 26.8028 81.8016 29.2353 84.7373L27.8122 85.4515C25.9764 84.8653 25.2786 83.8985 24.1822 82.3723C22.2869 79.7336 19.691 76.1199 12.0754 76.5808C10.9757 76.6454 9.96885 77.1367 9.23715 77.9613C8.50514 78.7863 8.13851 79.846 8.2051 80.945C8.27171 82.0442 8.76282 83.0516 9.58765 83.7816C10.4127 84.5118 11.4729 84.8772 12.5731 84.8107C15.6428 84.6249 16.0317 85.1662 17.4781 87.1798C18.0128 87.9242 18.6327 88.7857 19.4476 89.6495L18.3342 90.2082L14.0101 92.3784C12.6135 93.0792 11.5737 94.2815 11.0822 95.7639C10.5908 97.246 10.7064 98.8309 11.4078 100.226L12.7312 102.858C13.4328 104.253 14.6359 105.292 16.1196 105.783C16.9435 106.056 17.7989 106.142 18.636 106.044C19.3062 105.966 19.9647 105.77 20.5856 105.458L40.9882 95.2189C41.3255 96.9677 41.6331 99.2949 41.683 102.11C41.7102 103.651 42.3365 105.09 43.4466 106.16C44.5567 107.231 46.0176 107.805 47.5595 107.778C47.7506 107.775 47.9439 107.762 48.1343 107.74C51.094 107.394 53.286 104.886 53.2333 101.906C53.1895 99.4308 52.9681 96.916 52.5928 94.544C53.9472 94.352 55.2634 94.0453 56.529 93.6332C56.8426 95.3229 57.1329 97.5829 57.1811 100.299C57.2084 101.841 57.8347 103.279 58.9448 104.35C60.0551 105.42 61.5162 105.995 63.0581 105.967C63.249 105.964 63.4425 105.951 63.6329 105.929C66.3379 105.613 68.4733 103.416 68.7105 100.705C68.7768 99.9492 68.2168 99.2827 67.4601 99.2165C66.7032 99.1507 66.0359 99.7099 65.97 100.466C65.8459 101.884 64.7284 103.034 63.3133 103.199C63.213 103.211 63.1114 103.218 63.0103 103.219C62.2022 103.234 61.437 102.933 60.8556 102.372C60.2742 101.811 59.9462 101.058 59.932 100.251C59.8849 97.6016 59.6089 94.9846 59.1315 92.6066C61.111 91.6812 62.9243 90.4843 64.5148 89.0619C64.9619 90.7421 65.3227 92.5889 65.5718 94.5172C65.6683 95.2644 66.3483 95.7938 67.0954 95.7065C67.1009 95.7059 67.1063 95.7053 67.1122 95.7046C67.8657 95.6075 68.3975 94.9184 68.3002 94.1656C67.9566 91.5044 67.4115 88.971 66.7164 86.7777C68.2443 84.9318 69.4494 82.8287 70.249 80.5343L72.6621 79.3234C73.3261 80.5576 74.4372 81.5559 75.8647 82.0472C76.6921 82.3317 77.5496 82.4249 78.4133 82.3239C80.6068 82.0676 82.4882 80.5547 83.2068 78.4696C83.8 76.7488 83.9452 75.4196 84.0858 74.134L84.0892 74.1019C84.1058 73.9501 84.1228 73.7926 84.1416 73.6277C84.1442 73.6049 84.1453 73.582 84.1476 73.5593L95.4674 67.8783C98.3499 66.4305 99.5175 62.9101 98.0694 60.0298ZM87.8433 47.5334C87.861 47.54 87.8791 47.5446 87.897 47.5504C88.5326 47.7811 89.0666 48.2462 89.3833 48.876L91.6616 53.4078L68.6865 64.938L66.4083 60.4064C65.9442 59.4833 66.042 58.397 66.6633 57.5714L68.5246 55.0979C69.0668 54.3773 69.8911 53.9105 70.7799 53.8067C70.8993 53.7927 71.0201 53.7853 71.1412 53.7848L74.4506 53.7686C76.3269 53.7595 78.124 52.8587 79.2527 51.3586L81.2415 48.7159C81.8564 47.8985 82.8343 47.4074 83.8581 47.4028L86.9553 47.3877C87.2604 47.3862 87.5558 47.436 87.8335 47.5291C87.8368 47.5303 87.84 47.532 87.8433 47.5334ZM80.5568 38.8206C80.5724 38.8043 80.5881 38.7883 80.6027 38.7713C81.1665 38.1543 81.6919 37.5018 82.1725 36.8159C82.6396 36.1493 83.3989 35.8239 84.2048 35.9462C85.01 36.0681 85.6394 36.6036 85.8876 37.3787L86.2884 38.6284C86.8811 40.4774 87.2128 42.399 87.2741 44.34C87.2773 44.4431 87.2741 44.5461 87.2687 44.6485C87.1604 44.6427 87.0516 44.6383 86.942 44.6387L83.8447 44.6538C81.9675 44.6635 80.1712 45.564 79.0427 47.0639L77.0539 49.7066C76.439 50.5239 75.4605 51.0151 74.4373 51.0197L71.1278 51.0359C69.2512 51.0443 67.4543 51.9458 66.3258 53.4459L64.6298 55.6998C64.5056 55.6204 64.3843 55.5366 64.2686 55.4448C63.2485 54.6352 62.64 53.4245 62.5987 52.1235C62.5447 50.4095 63.5008 48.8046 65.0345 48.035L74.9318 43.0678C77.0481 42.0064 78.9577 40.5587 80.5568 38.8206ZM77.1233 30.4221C74.8332 27.3413 71.8828 24.6995 68.4589 22.596C71.4632 19.5465 74.9407 17.8198 77.7443 16.8497C78.6892 19.9562 79.4215 24.9544 77.1233 30.4221ZM74.4809 13.1055C75.3911 13.1061 76.2254 13.5603 76.7255 14.2936C73.4702 15.4357 69.4152 17.5011 65.9806 21.2094C64.1847 20.2974 62.2841 19.5232 60.3018 18.8976C64.0377 15.1895 69.0964 13.1003 74.4809 13.1055ZM11.3395 20.483C16.5714 19.2386 21.9703 20.1014 26.4588 22.8408C24.6904 23.8987 23.0237 25.0901 21.477 26.4053C17.2797 23.5911 12.8592 22.5172 9.42967 22.1565C9.74687 21.3277 10.4539 20.6935 11.3395 20.483ZM9.02879 24.8783C11.98 25.1759 15.7614 26.054 19.3882 28.3276C19.2037 28.5119 19.021 28.6979 18.8411 28.8862C16.1893 31.6579 14.1495 34.7128 12.7609 37.9332C9.26755 33.1454 8.82676 28.1172 9.02879 24.8783ZM24.7517 65.8078C18.0943 62.8498 14.3084 57.8427 13.4988 50.9254C11.7547 36.0238 25.1196 22.1731 43.2913 20.0499C48.2014 19.4762 53.0001 19.8164 57.4169 20.9269C57.4326 20.9316 57.4484 20.9345 57.4642 20.9386C60.3331 21.6639 63.0396 22.7154 65.5103 24.0529C65.5958 24.1125 65.6857 24.1619 65.779 24.1997C70.0874 26.5855 73.6586 29.8505 76.0909 33.7855C76.1213 33.8452 76.1573 33.9021 76.1964 33.9571C76.8879 35.097 77.4834 36.2926 77.9749 37.5383C76.7216 38.777 75.276 39.8195 73.6969 40.6121L69.5046 42.7162C67.9208 42.7514 65.7566 42.9061 64.4209 43.2435C63.6845 43.4298 63.2384 44.1771 63.4247 44.9131C63.491 45.1753 63.6299 45.3994 63.8132 45.5725L63.7998 45.5792C61.3122 46.8276 59.7617 49.4304 59.8493 52.2106C59.9157 54.3209 60.903 56.2842 62.5576 57.5975C62.842 57.8233 63.1434 58.0252 63.4584 58.2046C63.2457 59.3486 63.4024 60.5506 63.9503 61.6405L65.2077 64.1419C60.6145 66.1467 55.1499 67.5309 48.9339 68.2572C42.0901 69.0568 35.9034 68.8653 30.6913 67.7178C30.6784 67.7147 30.6655 67.7122 30.6525 67.7095C28.5136 67.2354 26.5386 66.6019 24.7517 65.8078ZM28.9112 74.0982C29.0914 72.4415 30.588 71.2401 32.2457 71.4202C32.4412 71.4414 32.6344 71.4814 32.8201 71.5389C33.3671 71.7085 33.94 71.5193 34.2852 71.1051C38.8096 71.6527 43.847 71.6184 49.253 70.9867C55.7982 70.222 61.5719 68.747 66.444 66.6014L66.6667 67.0443L66.4783 68.9501C66.4166 69.573 66.0456 70.1127 65.4857 70.3936L48.5671 78.8844C48.0074 79.1653 47.3526 79.1405 46.8156 78.818C45.4202 77.9798 43.7345 77.8004 42.204 78.3019C41.3949 78.0601 40.5365 77.9989 39.6808 78.1308C39.4704 78.1663 38.8302 78.0638 38.307 77.5631C37.7462 77.0266 37.5349 76.2044 37.6606 75.0493C37.7427 74.2947 37.1971 73.6164 36.4418 73.5343C35.6869 73.4524 35.0078 73.9975 34.9255 74.7521C34.6499 77.2834 35.5775 78.7575 36.4043 79.5483C37.6407 80.7312 39.1647 80.9884 40.0953 80.8483C40.8921 80.7249 41.6891 80.9204 42.3395 81.3971C42.9919 81.8755 43.4187 82.5795 43.5411 83.3794C43.6634 84.1775 43.467 84.9752 42.9886 85.6259C42.5102 86.2765 41.8068 86.702 41.0076 86.8242C40.2368 86.9421 39.4439 86.9569 38.6514 86.8784C38.6394 86.8767 38.6276 86.8753 38.6156 86.8739C36.2854 86.6344 33.9627 85.582 32.2201 83.9149C29.6635 81.4682 28.4882 77.9821 28.9112 74.0982ZM31.3195 86.767C32.3137 87.5481 33.4064 88.1839 34.556 88.6595L24.0796 93.9172C23.5804 94.1678 23.0134 94.2091 22.483 94.0335C21.9526 93.858 21.5224 93.4865 21.2716 92.9877L20.7986 92.047L31.3195 86.767ZM12.4069 82.0666C12.0403 82.0888 11.687 81.967 11.4122 81.7238C11.1372 81.4805 10.9737 81.1448 10.9515 80.7784C10.9293 80.4127 11.0517 80.0598 11.2959 79.7844C11.5398 79.5094 11.8731 79.3459 12.2408 79.3242C18.3415 78.9549 20.1746 81.5068 21.9473 83.9746C22.7418 85.0807 23.5092 86.1484 24.7372 86.9942L22.0414 88.3472C21.0536 87.4407 20.348 86.46 19.7133 85.5764C17.9756 83.1575 16.7795 81.8018 12.4069 82.0666ZM50.4827 101.953C50.5103 103.514 49.3635 104.828 47.8148 105.009C47.7144 105.02 47.6126 105.027 47.5116 105.029C46.7037 105.043 45.9387 104.742 45.3573 104.182C44.7759 103.621 44.4479 102.868 44.4337 102.06C44.3741 98.7052 43.9685 95.9823 43.558 94.0456C45.608 94.5804 47.7125 94.8233 49.8447 94.7719C50.2197 97.0763 50.4398 99.5338 50.4827 101.953ZM64.2533 85.431C64.1778 85.4978 64.1108 85.5724 64.0523 85.6528C62.1689 87.7286 59.7953 89.3908 57.1046 90.4967C57.0787 90.5055 57.0541 90.5163 57.029 90.5264C55.3584 91.205 53.5685 91.6717 51.6996 91.8901C51.4245 91.9222 51.1501 91.9473 50.8757 91.9684C50.8734 91.9687 50.871 91.9688 50.8686 91.9691C49.7361 92.0562 48.611 92.05 47.4986 91.9507L66.3487 82.4906C65.7518 83.5389 65.0499 84.5237 64.2533 85.431ZM81.4079 73.3163C81.3886 73.4857 81.3712 73.6473 81.3541 73.803L81.3506 73.8346C81.2151 75.0735 81.0982 76.1434 80.6054 77.5733C80.2292 78.6656 79.2431 79.4582 78.0934 79.5925C77.6426 79.6452 77.194 79.5961 76.7599 79.4468C75.1829 78.9041 74.3419 77.1806 74.8849 75.6052C75.1464 74.8464 75.2121 74.3131 75.336 73.1781C75.3547 73.0042 75.3747 72.823 75.3961 72.6334C75.5578 71.2125 76.6866 70.1317 78.0509 69.9723C78.2766 69.946 78.5086 69.9449 78.7438 69.9714C80.4014 70.1597 81.5962 71.6601 81.4079 73.3163ZM94.2325 65.4208L83.7118 70.7006C83.5105 70.2335 83.2471 69.7896 82.9215 69.3807C81.9606 68.1744 80.5873 67.4143 79.0542 67.2401C75.8896 66.8804 73.0223 69.1613 72.6625 72.3233C72.6406 72.5183 72.62 72.7037 72.601 72.8807C72.4815 73.9751 72.441 74.2529 72.2836 74.7097C72.0689 75.3329 71.9691 75.968 71.9702 76.593L41.3548 91.9576C41.3542 91.9579 41.3537 91.9581 41.3532 91.9584L19.3505 103.001C18.6108 103.372 17.7705 103.433 16.9846 103.173C16.1987 102.913 15.5613 102.363 15.1897 101.623L13.8663 98.9914C13.4947 98.2521 13.4334 97.4126 13.6938 96.6274C13.9542 95.8421 14.5049 95.2053 15.2448 94.834L18.34 93.2806L18.813 94.2213C19.7513 96.0879 21.7425 97.0847 23.7077 96.8551C24.2528 96.7914 24.796 96.6333 25.314 96.3733L38.7185 89.6463C39.485 89.6995 40.2544 89.6847 41.0166 89.5956C41.1527 89.5797 41.2889 89.5614 41.4238 89.5407C42.949 89.3077 44.2921 88.4952 45.2055 87.2529C46.1191 86.0105 46.4937 84.487 46.2606 82.9635C46.1754 82.4061 46.0116 81.8734 45.7786 81.3768C46.5648 81.7547 47.4284 81.8977 48.2757 81.7987C48.7984 81.7377 49.3146 81.5851 49.8021 81.3405L66.7207 72.8497C68.1284 72.1431 69.0613 70.7863 69.2161 69.2201L69.3693 67.6714L92.8967 55.8639L95.6111 61.2632C96.3779 62.7894 95.7598 64.6543 94.2325 65.4208ZM29.5494 45.3478C30.304 45.2597 30.8442 44.577 30.7559 43.8231C30.6863 43.2285 31.1137 42.6883 31.7089 42.6188C32.304 42.5492 32.8447 42.9765 32.9143 43.5709C33.0025 44.3248 33.6858 44.8646 34.4403 44.7764C35.1949 44.6882 35.7351 44.0056 35.6468 43.2517C35.401 41.1516 33.4911 39.6432 31.3894 39.8888C29.2877 40.1343 27.7776 42.0427 28.0233 44.1424C28.1116 44.8963 28.7949 45.436 29.5494 45.3478ZM36.2755 48.8374C36.9361 54.4817 42.0694 58.5367 47.7187 57.8766C53.368 57.2166 57.4264 52.0876 56.7657 46.4433L56.5534 44.6292C56.2112 41.7055 53.5522 39.6053 50.6262 39.9472L40.7492 41.1012C37.823 41.4431 35.721 44.0998 36.0632 47.0233L36.2755 48.8374ZM38.7957 46.704C38.6297 45.2858 39.6495 43.9971 41.069 43.8312L50.9459 42.6772C52.3654 42.5113 53.6552 43.5302 53.8212 44.9484L54.0335 46.7626C54.518 50.9014 51.5419 54.6624 47.3995 55.1464C43.2571 55.6304 39.4928 52.6567 39.0084 48.5181L38.7961 46.704L38.7957 46.704Z" fill="#151515"/>
</g>
<g clip-path="url(#clip4_144_10357)">
<path d="M330.304 101.388C329.088 101.245 327.918 100.932 326.867 100.512C321.524 98.375 319.586 94.0424 318.029 90.5609C316.648 87.4746 315.692 85.5324 313.507 84.5341C312.134 83.9064 311.53 82.2849 312.158 80.9125C312.786 79.5399 314.409 78.9369 315.783 79.5641C319.954 81.4705 321.585 85.115 323.023 88.3308C324.414 91.4392 325.615 94.1237 328.9 95.4378C331.41 96.4412 333.695 96.1317 335.012 94.6093C336.069 93.3883 336.224 91.6904 335.408 90.2837C334.65 88.9781 335.095 87.3059 336.401 86.5489C337.708 85.7919 339.381 86.2361 340.139 87.5417C342.144 90.9956 341.756 95.173 339.15 98.1841C336.696 101.02 333.356 101.744 330.304 101.388Z" fill="#EDA751"/>
<path d="M340.139 87.5417C339.381 86.2361 337.708 85.7918 336.401 86.5488C335.094 87.3059 334.65 88.9781 335.407 90.2836C335.728 90.8359 335.897 91.4327 335.922 92.0281C337.701 92.0303 339.205 92.0362 341.274 90.63C341.087 89.5711 340.711 88.527 340.139 87.5417Z" fill="#FCD79D"/>
<path d="M294.203 104.294C291.979 104.034 290.282 102.115 290.342 99.8355C290.549 92.0643 291.695 87.1619 294.174 83.4424C295.513 81.4323 298.23 80.8882 300.242 82.2265C302.253 83.565 302.798 86.2792 301.458 88.2889C299.979 90.509 299.249 94.1416 299.091 100.068C299.027 102.482 297.017 104.386 294.601 104.322C294.466 104.318 294.334 104.309 294.203 104.294Z" fill="#EDA751"/>
<path d="M309.106 106.036C308.975 106.02 308.845 105.999 308.713 105.972C306.348 105.477 304.832 103.16 305.327 100.796C306.543 94.9941 306.671 91.291 305.745 88.7899C304.905 86.5253 306.063 84.0102 308.329 83.1718C310.595 82.3335 313.113 83.4894 313.952 85.7542C315.505 89.9449 315.487 94.9794 313.893 102.588C313.425 104.82 311.33 106.296 309.106 106.036Z" fill="#EDA751"/>
<path d="M282.23 90.0521C281.869 90.0099 281.507 89.9217 281.153 89.7846C278.9 88.9114 277.781 86.3786 278.655 84.1274C279.932 80.8386 280.912 77.8563 281.777 75.2248C282.827 72.0327 283.656 69.5115 284.642 67.5489C285.727 65.3909 288.357 64.52 290.517 65.6038C292.677 66.6876 293.548 69.3153 292.464 71.4731C291.768 72.8566 290.991 75.2187 290.092 77.954C289.193 80.6877 288.174 83.786 286.815 87.2891C286.079 89.1861 284.163 90.2781 282.23 90.0521Z" fill="#EDA751"/>
<path opacity="0.2" d="M315.783 79.5646C314.409 78.9373 312.786 79.5404 312.158 80.9131C311.53 82.2856 312.134 83.907 313.507 84.5347C315.692 85.5328 316.649 87.4751 318.029 90.5614C318.148 90.8278 318.27 91.0994 318.395 91.3743C320.007 90.3417 321.473 89.1153 322.751 87.7251C321.371 84.6675 319.694 81.3521 315.783 79.5646Z" fill="#A35F00"/>
<path opacity="0.2" d="M313.952 85.7543C313.113 83.4894 310.595 82.3334 308.329 83.1719C306.062 84.0103 304.905 86.5256 305.744 88.79C306.319 90.3407 306.487 92.3541 306.243 95.0428C309.376 94.973 312.377 94.297 315.1 93.1233C315.132 90.2875 314.75 87.9087 313.952 85.7543Z" fill="#A35F00"/>
<path opacity="0.2" d="M300.241 82.2265C298.229 80.8882 295.513 81.4323 294.174 83.4424C292.899 85.3547 291.978 87.5812 291.354 90.348C293.732 92.118 296.496 93.4678 299.528 94.2581C299.912 91.5857 300.541 89.6656 301.458 88.2891C302.798 86.2791 302.253 83.5648 300.241 82.2265Z" fill="#A35F00"/>
<path opacity="0.2" d="M290.517 65.6038C288.358 64.52 285.727 65.391 284.643 67.549C283.898 69.0302 283.243 70.8302 282.516 72.9961C282.437 77.9196 284.171 82.5767 287.182 86.3313C288.361 83.2187 289.276 80.4355 290.092 77.9539C290.992 75.2186 291.769 72.8565 292.464 71.473C293.548 69.3154 292.677 66.6874 290.517 65.6038Z" fill="#A35F00"/>
<path d="M303.17 92.2327C314.241 93.5269 324.192 86.243 325.396 75.9637C326.6 65.6845 318.6 56.3024 307.528 55.0083C296.456 53.7141 286.505 60.998 285.302 71.2773C284.098 81.5565 292.098 90.9386 303.17 92.2327Z" fill="#FCD690"/>
<path opacity="0.15" d="M325.243 76.9928C324.097 77.0929 323.032 77.0867 322.183 76.9065C318.31 76.0842 312.077 71.3613 310.985 67.7921C309.787 71.2706 310.608 81.4972 321.988 84.483C323.612 82.3066 324.75 79.7709 325.243 76.9928Z" fill="#C17A00"/>
<path opacity="0.15" d="M325.468 72.6437C324.817 63.7358 317.391 56.1626 307.527 55.0097C296.456 53.7155 286.505 60.9992 285.302 71.2782C284.206 80.6338 290.735 89.2454 300.265 91.6928C298.772 90.4433 297.678 89.041 296.897 87.5501C296.709 87.1897 297.103 86.8062 297.46 87.0015C298.804 87.7361 300.308 88.2307 301.924 88.4195C307.19 89.0352 312.067 86.2272 314.327 81.7585C314.772 80.8779 315.582 80.2287 316.55 80.0311C320.548 79.2149 323.917 76.4388 325.468 72.6437Z" fill="#C17A00"/>
<path d="M296.927 39.9228C301.235 37.0925 304.5 31.878 299.923 23.0702C295.309 14.1927 287.248 11.1604 280.677 11.1658C279.057 11.167 277.584 12.1345 276.941 13.6203C274.332 19.6462 273.924 28.2428 280.254 35.9929C286.534 43.682 292.62 42.7527 296.927 39.9228Z" fill="#EDA751"/>
<path d="M276.568 14.5453C274.31 20.506 274.241 28.6306 280.254 35.9927C285.697 42.6574 290.993 42.8457 295.113 40.9354C294.569 22.6958 283.578 16.5913 276.568 14.5453Z" fill="#FF91AB"/>
<path d="M321.326 42.7747C317.789 39.0275 315.816 33.2007 322.305 25.6864C328.844 18.1127 337.388 17.0211 343.781 18.5418C345.357 18.9166 346.567 20.1976 346.849 21.7916C347.996 28.2564 346.406 36.715 338.458 42.7961C330.571 48.8293 324.864 46.5217 321.326 42.7747Z" fill="#EDA751"/>
<path d="M346.998 22.7779C347.819 29.0984 346.009 37.0196 338.458 42.7962C331.622 48.0257 326.425 46.9874 322.857 44.1785C327.6 26.5569 339.705 23.152 346.998 22.7779Z" fill="#FF91AB"/>
<path d="M342.674 50.3014C340.849 65.8926 324.769 70.9354 305.92 68.7322C287.071 66.529 272.591 57.9145 274.417 42.3231C276.242 26.7319 293.002 15.8788 311.851 18.082C330.7 20.2852 344.5 34.7103 342.674 50.3014Z" fill="#FFDC9C"/>
<path opacity="0.15" d="M293.118 20.3108C282.973 24.1964 275.593 32.2753 274.417 42.3235C272.847 55.7262 283.328 63.9734 298.275 67.4244C278.055 51.9098 282.934 34.7905 293.118 20.3108Z" fill="#C17A00"/>
<path d="M291.145 49.9295C294.558 50.3284 297.582 48.4508 297.9 45.7358C298.218 43.0208 295.709 40.4964 292.296 40.0975C288.884 39.6986 285.859 41.5762 285.541 44.2912C285.223 47.0062 287.732 49.5306 291.145 49.9295Z" fill="#FF91AB"/>
<path d="M324.64 53.8445C328.053 54.2434 331.077 52.3658 331.395 49.6508C331.713 46.9358 329.204 44.4115 325.791 44.0126C322.378 43.6137 319.354 45.4912 319.036 48.2063C318.718 50.9213 321.227 53.4456 324.64 53.8445Z" fill="#FF91AB"/>
<path d="M328.176 67.8341C328.787 62.6114 326.024 57.7725 321.61 55.4922C320.641 54.9915 320.013 54.0144 319.941 52.9265C319.558 47.129 315.086 42.248 309.104 41.5487C303.121 40.8494 297.642 44.5672 295.93 50.1199C295.609 51.1618 294.772 51.9678 293.713 52.2315C288.892 53.4323 285.085 57.5031 284.474 62.726C283.841 68.131 286.823 73.1242 291.508 75.2962C292.397 75.708 293.039 76.5019 293.264 77.4542C294.419 82.3402 298.522 86.2141 303.802 86.8312C309.081 87.4484 313.969 84.6253 316.221 80.1377C316.661 79.2631 317.469 78.6388 318.428 78.4428C323.488 77.4097 327.543 73.2391 328.176 67.8341Z" fill="#495059"/>
<path opacity="0.15" d="M318.428 78.4427C319.812 78.1602 321.12 77.6415 322.304 76.9283C322.264 76.9207 322.223 76.9147 322.183 76.9065C318.31 76.0842 312.077 71.3613 310.985 67.7921C310.072 70.4434 310.333 77.0141 315.547 81.3117C315.792 80.9347 316.018 80.5432 316.221 80.1374C316.66 79.2629 317.468 78.6385 318.428 78.4427Z" fill="#151515"/>
<path d="M307.888 51.9253C306.165 51.7239 304.614 50.7866 303.632 49.3539C303.203 48.7276 303.363 47.8723 303.99 47.4434C304.617 47.0144 305.473 47.1744 305.902 47.8008C306.435 48.5778 307.275 49.086 308.208 49.1951C309.141 49.3042 310.077 49.0035 310.774 48.3703C311.337 47.8598 312.206 47.9015 312.717 48.4635C313.228 49.0254 313.186 49.8945 312.624 50.405C311.337 51.5725 309.611 52.1267 307.888 51.9253Z" fill="white"/>
<path d="M323.351 81.3186C321.776 81.1345 320.192 80.6364 318.649 79.8255C314.56 77.6771 311.228 73.5439 310.727 69.9975C310.389 67.6065 312.055 65.3947 314.448 65.0571C316.816 64.7224 319.01 66.3506 319.382 68.7023C319.601 69.3936 321.084 71.3791 323.1 72.2691C324.552 72.9101 325.447 72.6221 325.994 72.3497C328.157 71.273 330.785 72.1517 331.862 74.3129C332.94 76.4742 332.061 79.0991 329.898 80.1761C327.836 81.2025 325.604 81.5818 323.351 81.3186ZM319.393 68.7731C319.393 68.7736 319.393 68.774 319.393 68.7746C319.393 68.7742 319.393 68.7736 319.393 68.7731Z" fill="#EDA751"/>
<path d="M323.555 43.7615L323.81 41.5811C323.899 40.8273 323.359 40.1446 322.604 40.0564C321.849 39.9681 321.166 40.5079 321.078 41.2618L320.823 43.4421C320.734 44.196 321.274 44.8787 322.029 44.9669C322.784 45.0551 323.467 44.5152 323.555 43.7615ZM323.756 52.0408C323.477 52.7467 323.824 53.545 324.531 53.8238C326.043 54.4201 329.172 56.4694 330.233 57.4617C330.456 57.6703 330.73 57.7903 331.012 57.8232C331.431 57.8722 331.867 57.7287 332.177 57.3974C332.696 56.8432 332.668 55.9734 332.113 55.4548C330.824 54.2496 327.406 52.0022 325.541 51.2669C324.834 50.9887 324.035 51.3352 323.756 52.0408ZM326.85 49.4652C328.476 49.4411 332.15 50.1445 333.509 50.658C333.617 50.6987 333.727 50.7252 333.837 50.738C334.449 50.8094 335.054 50.4606 335.282 49.8584C335.551 49.1483 335.192 48.3553 334.482 48.0868C332.831 47.4632 328.813 46.6868 326.809 46.7167C326.049 46.7281 325.442 47.3526 325.454 48.1115C325.465 48.8704 326.091 49.4758 326.85 49.4652ZM290.865 47.2141C288.88 47.4997 285.035 48.898 283.503 49.7734C282.843 50.1501 282.614 50.9898 282.991 51.6487C283.217 52.0427 283.608 52.2827 284.027 52.3317C284.309 52.3646 284.603 52.311 284.868 52.1596C286.13 51.4386 289.647 50.1663 291.257 49.9348C292.009 49.8266 292.53 49.1299 292.422 48.3786C292.314 47.6274 291.617 47.1061 290.865 47.2141ZM295.737 41.8935C296.492 41.9817 297.175 41.442 297.263 40.6881L297.518 38.5078C297.607 37.7539 297.067 37.0712 296.312 36.983C295.557 36.8948 294.874 37.4345 294.786 38.1884L294.531 40.3687C294.442 41.1227 294.982 41.8053 295.737 41.8935ZM341.329 86.8521C340.192 84.8935 337.672 84.2241 335.711 85.3598C334.761 85.9102 334.083 86.7972 333.801 87.8576C333.519 88.9178 333.667 90.0242 334.218 90.9731C334.743 91.8789 334.649 92.9276 333.972 93.7103C333.056 94.7687 331.35 94.9373 329.411 94.1621C326.643 93.0549 325.6 90.7226 324.279 87.7699C323.93 86.99 323.545 86.1306 323.107 85.2707C323.7 84.4755 324.23 83.6398 324.691 82.7708C326.705 82.7739 328.692 82.3115 330.511 81.4057C331.886 80.721 332.912 79.5424 333.4 78.0868C333.888 76.6313 333.779 75.073 333.094 73.6993C332.254 72.0156 330.693 70.9236 328.97 70.6097C329.228 69.81 329.413 68.9862 329.521 68.1433C338.041 64.9775 343.055 58.8798 344.041 50.4606C344.446 47.0042 344.135 43.559 343.154 40.2432C347.563 35.0766 349.402 28.3116 348.203 21.5511C347.825 19.4133 346.214 17.7071 344.1 17.2041C337.675 15.6764 331.026 16.9614 325.711 20.7247C321.533 18.6592 316.895 17.287 312.011 16.7161C307.127 16.1453 302.297 16.4108 297.755 17.457C293.453 12.5702 287.28 9.78591 280.676 9.79129C278.503 9.793 276.541 11.0818 275.679 13.0744C272.95 19.3757 273.177 26.3821 276.273 32.4265C274.553 35.4264 273.455 38.7072 273.05 42.1636C272.46 47.202 273.455 51.7648 276.006 55.7248C276.417 56.3631 277.268 56.5473 277.907 56.1367C278.546 55.7259 278.73 54.8754 278.319 54.2371C276.122 50.8266 275.269 46.872 275.783 42.4826C277.517 27.669 293.626 17.3351 311.691 19.4467C329.757 21.5583 343.043 35.328 341.308 50.1416C340.478 57.2306 336.531 62.2767 329.572 65.1681C329.145 60.5994 326.416 56.427 322.242 54.2706C321.71 53.9959 321.354 53.4456 321.314 52.8354C320.88 46.2696 315.812 40.9486 309.263 40.1832C302.714 39.4177 296.554 43.4261 294.615 49.7147C294.435 50.2993 293.962 50.7525 293.38 50.8973C288.821 52.0329 285.202 55.463 283.731 59.8099C282.957 59.2481 282.235 58.661 281.572 58.0533C281.012 57.5404 280.142 57.5775 279.628 58.1368C279.114 58.6959 279.152 59.5654 279.711 60.0787C280.726 61.0085 281.861 61.8923 283.093 62.7149C282.934 64.2091 283.024 65.6845 283.333 67.0949C282.338 69.1206 281.51 71.6329 280.467 74.8048C279.608 77.4177 278.634 80.3788 277.372 83.63C276.226 86.5844 277.699 89.9197 280.655 91.0655C281.111 91.2422 281.587 91.3603 282.069 91.4167C284.671 91.7208 287.149 90.2276 288.097 87.7857C288.306 87.2481 288.512 86.7039 288.717 86.152C289.287 86.8077 289.899 87.4311 290.55 88.0181C289.604 91.1011 289.097 94.8772 288.967 99.7986C288.887 102.792 291.07 105.311 294.043 105.659C294.213 105.679 294.388 105.691 294.564 105.696C296.099 105.737 297.559 105.177 298.674 104.121C299.788 103.065 300.425 101.638 300.465 100.104C300.54 97.3284 300.743 95.0836 301.084 93.2894C301.715 93.4174 302.357 93.5218 303.009 93.598C303.659 93.6739 304.307 93.7198 304.953 93.7414C304.87 95.5659 304.549 97.7971 303.98 100.515C303.665 102.017 303.955 103.552 304.795 104.837C305.636 106.122 306.927 107.002 308.432 107.317C308.603 107.353 308.776 107.381 308.946 107.401C311.4 107.687 313.756 106.38 314.81 104.148C315.134 103.462 314.84 102.643 314.153 102.319C313.466 101.995 312.646 102.289 312.322 102.975C311.734 104.22 310.364 104.911 308.994 104.626C308.21 104.462 307.536 104.003 307.098 103.333C306.659 102.662 306.508 101.862 306.672 101.078C307.29 98.128 307.633 95.6875 307.709 93.6686C309.777 93.4896 311.794 93.0299 313.718 92.2964C313.746 93.7813 313.65 95.4049 313.421 97.2159C313.326 97.9691 313.859 98.6567 314.613 98.7517C314.618 98.7522 314.622 98.7526 314.626 98.7531C315.375 98.8407 316.056 98.309 316.15 97.5603C316.457 95.1312 316.546 92.9917 316.421 91.0503C316.507 91.0033 316.591 90.9549 316.676 90.9069C316.709 90.979 316.741 91.0516 316.773 91.1229C318.344 94.635 320.496 99.4446 326.356 101.788C327.58 102.277 328.855 102.602 330.143 102.753C334.167 103.223 337.735 101.92 340.19 99.0832C343.186 95.6218 343.633 90.821 341.329 86.8521ZM286.002 22.3763C282.803 24.4478 280.13 26.933 278.047 29.7268C275.776 24.3047 276.5 19.3497 277.438 16.2649C280.22 17.2289 283.67 18.943 286.652 21.9663C286.433 22.1009 286.217 22.2372 286.002 22.3763ZM289.128 20.5773C285.716 16.8971 281.691 14.8458 278.457 13.7097C278.954 12.9875 279.779 12.5409 280.678 12.5399C286.019 12.5358 291.039 14.6041 294.75 18.2765C292.802 18.8939 290.922 19.6624 289.128 20.5773ZM328.445 22.2151C332.904 19.4976 338.267 18.6432 343.463 19.8787C344.337 20.0869 345.037 20.7118 345.353 21.529C341.944 21.8885 337.554 22.9566 333.384 25.7504C331.85 24.4464 330.198 23.2648 328.445 22.2151ZM342.052 37.2081C340.671 34.0096 338.644 30.9749 336.01 28.2216C335.833 28.0367 335.654 27.8541 335.473 27.673C339.072 25.4188 342.824 24.5468 345.755 24.2504C345.954 27.4678 345.515 32.4561 342.052 37.2081ZM330.631 74.9256C330.989 75.6423 331.046 76.4552 330.791 77.2143C330.536 77.9737 330.001 78.5885 329.284 78.9458C327.593 79.7876 325.793 80.1388 323.927 79.9934C323.919 79.9931 323.912 79.9922 323.905 79.9919C323.774 79.9814 323.643 79.9689 323.511 79.9535C322.091 79.7876 320.671 79.3352 319.289 78.609C315.621 76.682 312.526 72.8973 312.089 69.8052C311.977 69.0122 312.18 68.2233 312.662 67.5835C313.144 66.9437 313.847 66.5297 314.641 66.4177C314.898 66.3812 315.153 66.3792 315.401 66.4082C316.704 66.5605 317.81 67.5676 318.023 68.9168C318.025 68.9243 318.026 68.9318 318.027 68.9392C318.033 68.988 318.041 69.0366 318.052 69.0844C318.088 69.2399 318.15 69.3834 318.231 69.511C318.818 70.7261 320.481 72.6149 322.544 73.526C324.032 74.1829 325.361 74.2005 326.607 73.5793C328.089 72.842 329.894 73.446 330.631 74.9256ZM294.046 53.5646C295.556 53.1884 296.782 52.0233 297.244 50.5242C298.793 45.5029 303.713 42.3022 308.944 42.9136C314.174 43.525 318.222 47.774 318.569 53.0169C318.673 54.5824 319.596 55.9984 320.979 56.7127C324.991 58.7857 327.335 63.1907 326.81 67.6742C326.679 68.7919 326.38 69.8685 325.923 70.8833C325.74 70.952 325.559 71.0306 325.381 71.1196C325.155 71.2321 324.685 71.4663 323.656 71.0121C322.098 70.3239 320.936 68.8076 320.715 68.3371C320.158 65.3393 317.294 63.2674 314.256 63.6963C312.735 63.9109 311.388 64.7045 310.464 65.931C309.541 67.1575 309.15 68.67 309.365 70.1898C309.807 73.3179 312.063 76.7178 315.178 79.1909C315.111 79.2988 315.048 79.4084 314.991 79.5213C312.94 83.6083 308.507 85.9974 303.961 85.4661C299.415 84.9347 295.654 81.5879 294.602 77.1381C294.277 75.766 293.36 74.6402 292.087 74.0494C289.764 72.9726 287.964 71.1607 286.889 68.981C286.865 68.9197 286.835 68.8611 286.803 68.8039C286.524 68.2123 286.299 67.5947 286.131 66.9582C286.126 66.9411 286.122 66.9243 286.117 66.9075C285.783 65.6231 285.678 64.2634 285.84 62.8856C286.365 58.4019 289.663 54.6563 294.046 53.5646ZM285.533 86.7918C285.038 88.0661 283.745 88.8453 282.389 88.6868C282.138 88.6574 281.889 88.5955 281.65 88.503C280.108 87.9053 279.34 86.1651 279.938 84.624C281.226 81.3055 282.212 78.3078 283.085 75.6512C283.338 74.8831 283.577 74.155 283.809 73.4653C283.837 77.069 284.901 80.5082 286.758 83.498C286.349 84.6427 285.946 85.7284 285.533 86.7918ZM296.781 102.127C296.199 102.678 295.438 102.969 294.638 102.948C292.94 102.9 291.673 101.524 291.717 99.8716C291.826 95.7502 292.203 92.5077 292.889 89.8522C294.563 90.9905 296.42 91.9162 298.419 92.5801C298.027 94.5628 297.796 97.0169 297.716 100.031C297.695 100.832 297.363 101.576 296.781 102.127ZM314.96 88.7183C312.313 90.1346 309.383 90.9059 306.355 90.9989C306.34 90.9988 306.326 90.9974 306.312 90.9977C306.303 90.9979 306.294 90.9993 306.285 90.9997C305.307 91.0262 304.32 90.9837 303.328 90.8678C293.718 89.7445 286.569 82.0817 286.559 73.3363C287.76 74.657 289.233 75.7563 290.929 76.5425C291.432 76.7759 291.795 77.2233 291.924 77.7698C293.242 83.3406 297.95 87.5307 303.641 88.1958C309.332 88.861 314.881 85.87 317.45 80.7534C317.453 80.7483 317.456 80.7436 317.459 80.7385C317.64 80.8426 317.823 80.9446 318.008 81.0419C319.219 81.6781 320.462 82.1396 321.719 82.4265C320.116 85.0181 317.769 87.2153 314.96 88.7183ZM338.109 97.2852C335.751 100.011 332.65 100.278 330.464 100.023C329.43 99.902 328.364 99.6299 327.379 99.236C322.554 97.3065 320.817 93.4257 319.285 90.0006C319.195 89.7991 319.102 89.5921 319.007 89.3842C319.766 88.8121 320.479 88.1895 321.146 87.5267C321.36 87.9842 321.566 88.4415 321.767 88.8918C323.216 92.1325 324.586 95.1933 328.389 96.7142C331.468 97.945 334.334 97.4945 336.053 95.5083C337.499 93.8369 337.713 91.5158 336.597 89.5942C336.415 89.2803 336.366 88.9142 336.459 88.5637C336.552 88.2132 336.777 87.92 337.091 87.7381C337.74 87.3623 338.573 87.5838 338.949 88.2313C340.655 91.1704 340.326 94.7244 338.109 97.2852ZM290.682 42.494C288.738 42.003 284.65 41.8317 282.9 42.0576C282.146 42.1548 281.614 42.8441 281.712 43.5968C281.794 44.2353 282.303 44.7144 282.915 44.786C283.025 44.7989 283.138 44.7986 283.252 44.7837C284.693 44.5977 288.43 44.7604 290.007 45.1589C290.741 45.3439 291.492 44.8996 291.678 44.1636C291.865 43.4276 291.419 42.6801 290.682 42.494Z" fill="#151515"/>
</g>
<defs>
<clipPath id="clip0_144_10357">
<rect width="127.518" height="127.441" fill="white" transform="matrix(0.92178 -0.387713 0.388284 0.92154 5.7291 230.558)"/>
</clipPath>
<clipPath id="clip1_144_10357">
<rect width="127.535" height="127.425" fill="white" transform="matrix(0.998724 -0.0505057 0.050593 0.998719 113.088 65.8579)"/>
</clipPath>
<clipPath id="clip2_144_10357">
<rect width="127.521" height="127.438" fill="white" transform="matrix(0.938176 0.346157 -0.346685 0.937982 232.181 160)"/>
</clipPath>
<clipPath id="clip3_144_10357">
<rect width="93.9064" height="93.8274" fill="white" transform="matrix(0.993243 -0.116052 0.11625 0.99322 0 18.8979)"/>
</clipPath>
<clipPath id="clip4_144_10357">
<rect width="93.9064" height="93.8274" fill="white" transform="matrix(0.993238 0.116095 -0.116294 0.993215 266.729 8)"/>
</clipPath>
</defs>
</svg>
