<svg width="68" height="68" viewBox="0 0 68 68" fill="none" xmlns="http://www.w3.org/2000/svg">
<path d="M22.5932 58.6565C21.6975 58.8041 20.7469 58.7156 19.7466 58.3898C16.6954 57.3958 12.7081 56.7193 11.0401 59.1408C10.5003 59.9247 9.4266 60.1226 8.64261 59.5826C7.85849 59.0424 7.6606 57.969 8.20074 57.1849C9.78732 54.8813 13.2637 52.6516 20.8146 55.1113C22.5786 55.686 23.422 54.7988 25.4066 51.4487C25.9053 50.6072 26.4209 49.7369 27.0099 48.9136C27.5641 48.1394 28.6408 47.961 29.415 48.5149C30.1891 49.0689 30.3678 50.1458 29.8137 50.92C29.3111 51.6222 28.8341 52.4274 28.3728 53.2061C27.4863 54.7024 26.5697 56.2495 25.3343 57.3189C24.4919 58.0482 23.5756 58.4944 22.5932 58.6565Z" fill="#EDA751"/>
<path opacity="0.15" d="M22.5932 58.6565C21.6975 58.8041 20.7469 58.7156 19.7466 58.3898C16.6954 57.3958 12.7081 56.7193 11.0401 59.1408C10.5003 59.9247 9.4266 60.1226 8.64261 59.5826C7.85849 59.0424 7.6606 57.969 8.20074 57.1849C9.78732 54.8813 13.2637 52.6516 20.8146 55.1113C22.5786 55.686 23.422 54.7988 25.4066 51.4487C25.9053 50.6072 26.4209 49.7369 27.0099 48.9136C27.5641 48.1394 28.6408 47.961 29.415 48.5149C30.1891 49.0689 30.3678 50.1458 29.8137 50.92C29.3111 51.6222 28.8341 52.4274 28.3728 53.2061C27.4863 54.7024 26.5697 56.2495 25.3343 57.3189C24.4919 58.0482 23.5756 58.4944 22.5932 58.6565Z" fill="#C17A00"/>
<path d="M9.05795 56.1611C8.72406 56.4901 8.44064 56.8366 8.20065 57.185C7.66064 57.9691 7.85853 59.0425 8.64252 59.5826C9.42664 60.1227 10.5002 59.9248 11.04 59.1409C11.2135 58.8891 11.4134 58.6725 11.6333 58.4845C11.1187 57.2159 9.85496 56.3965 9.05795 56.1611Z" fill="#FCD79D"/>
<path d="M48.7201 57.2716C47.4995 57.2716 46.3834 56.4552 46.0558 55.2197C45.7759 54.1641 45.5568 53.1595 45.3636 52.2731C45.0712 50.9329 44.6298 48.9087 44.2202 48.5776C44.2208 48.58 44.2049 48.5728 44.1786 48.5666C42.6959 48.2173 41.7771 46.7321 42.1265 45.2492C42.476 43.7665 43.9612 42.8477 45.4439 43.1973C47.2462 43.622 48.6003 44.7854 49.4687 46.655C50.0641 47.9371 50.3835 49.4017 50.7534 51.0977C50.9433 51.9684 51.1397 52.8689 51.3881 53.8059C51.7784 55.2784 50.9013 56.7885 49.4288 57.1789C49.1921 57.2416 48.9541 57.2716 48.7201 57.2716Z" fill="#EDA751"/>
<path d="M20.9896 57.2717C20.7556 57.2717 20.5178 57.2417 20.2809 57.1789C18.8084 56.7884 17.9313 55.2783 18.3217 53.8058C18.57 52.8688 18.7664 51.9684 18.9564 51.0976C19.3263 49.4016 19.6457 47.937 20.2411 46.6549C21.1094 44.7853 22.4635 43.6219 24.2658 43.1972C25.7484 42.8479 27.2338 43.7664 27.5832 45.2491C27.9326 46.732 27.014 48.2172 25.5311 48.5665C25.497 48.5746 25.4834 48.581 25.4833 48.5811C25.0817 48.9008 24.639 50.9302 24.3462 52.273C24.1529 53.1594 23.9338 54.1639 23.6539 55.2196C23.3263 56.4553 22.2101 57.2717 20.9896 57.2717Z" fill="#EDA751"/>
<path d="M30.6177 67.0039C29.0944 67.0039 27.8595 65.769 27.8595 64.2457V57.2153C27.8595 55.6919 29.0944 54.457 30.6177 54.457C32.1411 54.457 33.376 55.6919 33.376 57.2153V64.2457C33.376 65.769 32.1411 67.0039 30.6177 67.0039Z" fill="#EDA751"/>
<path d="M39.092 67.0039C37.5686 67.0039 36.3337 65.769 36.3337 64.2457V57.2153C36.3337 55.6919 37.5686 54.457 39.092 54.457C40.6153 54.457 41.8502 55.6919 41.8502 57.2153V64.2457C41.8502 65.769 40.6153 67.0039 39.092 67.0039Z" fill="#EDA751"/>
<path opacity="0.2" d="M49.4687 46.655C48.6003 44.7854 47.2462 43.622 45.4439 43.1972C43.9612 42.8478 42.476 43.7665 42.1265 45.2492C41.7771 46.732 42.6958 48.2173 44.1786 48.5666C44.2049 48.5728 44.2209 48.58 44.2202 48.5776C44.6298 48.9087 45.0713 50.9329 45.3636 52.2731C45.5568 53.1595 45.776 54.1639 46.0558 55.2196C46.1833 55.7007 46.4315 56.1171 46.7578 56.4476C48.6565 54.2501 49.8836 51.5194 50.1419 48.5343C49.954 47.8674 49.7408 47.2411 49.4687 46.655Z" fill="#A35F00"/>
<path opacity="0.2" d="M24.2658 43.1972C22.4636 43.6219 21.1094 44.7853 20.2411 46.6549C19.969 47.2409 19.7559 47.8672 19.5679 48.5342C19.8261 51.5194 21.0531 54.2502 22.9519 56.4477C23.2782 56.1171 23.5263 55.7008 23.654 55.2197C23.9338 54.1641 24.1529 53.1595 24.3462 52.2732C24.6392 50.9303 25.0817 48.9009 25.4833 48.5812C25.4835 48.5811 25.497 48.5747 25.5311 48.5666C27.0139 48.2173 27.9327 46.7321 27.5832 45.2493C27.2338 43.7665 25.7484 42.8479 24.2658 43.1972Z" fill="#A35F00"/>
<path opacity="0.2" d="M39.0921 54.457C37.5688 54.457 36.3339 55.6919 36.3339 57.2153V61.7231C38.3044 61.5448 40.1675 61.0146 41.8504 60.1993V57.2151C41.8504 55.6919 40.6155 54.457 39.0921 54.457Z" fill="#A35F00"/>
<path opacity="0.2" d="M30.6177 54.457C29.0944 54.457 27.8595 55.6919 27.8595 57.2153V60.1994C29.5424 61.0146 31.4055 61.5448 33.376 61.7232V57.2154C33.376 55.6919 32.1411 54.457 30.6177 54.457Z" fill="#A35F00"/>
<path d="M34.8553 59.173C41.8815 59.173 47.5774 53.8803 47.5774 47.3514C47.5774 40.8225 41.8815 35.5298 34.8553 35.5298C27.8291 35.5298 22.1332 40.8225 22.1332 47.3514C22.1332 53.8803 27.8291 59.173 34.8553 59.173Z" fill="#FCD690"/>
<path opacity="0.15" d="M32.9972 59.0477C27.1836 55.2308 28.9854 47.408 29.9723 43.9869V36.4331C25.3696 38.2124 22.1331 42.4306 22.1331 47.352C22.1329 53.2943 26.8517 58.2121 32.9972 59.0477Z" fill="#C17A00"/>
<path d="M27.0409 27.1999C28.8555 24.504 29.483 20.6745 24.6751 16.6641C19.8292 12.622 14.4034 12.8205 10.5842 14.4239C9.6426 14.8191 9.02237 15.7407 9.01055 16.7617C8.96247 20.9035 10.8205 26.0051 16.3893 28.9734C21.9146 31.9184 25.2263 29.8957 27.0409 27.1999Z" fill="#EDA751"/>
<path d="M9.01941 17.3907C9.15926 21.4091 11.0994 26.1534 16.3894 28.9733C21.1784 31.5259 24.3036 30.3456 26.2333 28.2306C21.4715 17.7498 13.5935 16.8742 9.01941 17.3907Z" fill="#FF91AB"/>
<path d="M42.669 27.1999C40.8543 24.504 40.2268 20.6745 45.0347 16.6641C49.8807 12.622 55.3064 12.8205 59.1256 14.4239C60.0671 14.8191 60.6875 15.7407 60.6993 16.7617C60.7474 20.9035 58.8893 26.0051 53.3205 28.9734C47.7952 31.9184 44.4836 29.8957 42.669 27.1999Z" fill="#EDA751"/>
<path d="M60.6905 17.3907C60.5506 21.4091 58.6105 26.1534 53.3205 28.9733C48.5315 31.5259 45.4063 30.3456 43.4766 28.2306C48.2384 17.7498 56.1164 16.8742 60.6905 17.3907Z" fill="#FF91AB"/>
<path d="M56.5138 30.0063C56.5138 20.1033 46.8168 12.0752 34.8549 12.0752C22.8931 12.0752 13.1959 20.1033 13.1959 30.0063C13.1959 31.6318 13.4572 33.1073 13.9468 34.4383C14.1953 35.1136 14.4005 35.8041 14.5859 36.4995C14.9493 37.8623 15.279 39.2207 15.5422 40.289C15.6494 40.7237 16.2434 40.7735 16.4264 40.3649C16.5749 40.033 16.7456 39.6971 16.9266 39.407C17.0321 39.2381 17.2638 39.2012 17.4154 39.3304C21.3594 42.6951 27.7019 44.2466 34.8549 44.2466C41.1647 44.2466 46.844 43.0394 50.8026 40.4455C51.2624 40.1443 51.8744 40.2127 52.2512 40.6128C52.7179 41.1086 53.0164 41.54 53.2173 41.9092C53.3675 42.1852 53.7823 42.1128 53.8371 41.8035C54.1425 40.0801 54.8525 37.6149 55.3124 35.9435C55.4775 35.3439 55.6593 34.7501 55.8592 34.1611C56.2862 32.9033 56.5138 31.5202 56.5138 30.0063Z" fill="#FFDC9C"/>
<path opacity="0.15" d="M13.1959 30.0062C13.1959 31.6317 13.4572 33.1072 13.9468 34.4381C14.1953 35.1135 14.4005 35.804 14.5859 36.4992C14.9493 37.862 15.2788 39.2204 15.5422 40.2888C15.6494 40.7235 16.2434 40.7733 16.4264 40.3646C16.5749 40.0327 16.7456 39.6968 16.9266 39.4068C17.0321 39.2378 17.2638 39.2009 17.4154 39.3301C20.4329 41.9044 24.8552 43.4162 29.9696 43.9849C16.177 35.7447 17.9762 24.6614 23.2902 14.8433C17.2243 18.0212 13.1959 23.6239 13.1959 30.0062Z" fill="#C17A00"/>
<path d="M7.95403 43.3253V40.87C7.95403 40.3198 7.50805 39.874 6.95794 39.874C6.40783 39.874 5.96185 40.3198 5.96185 40.87V43.3253C5.96185 43.8756 6.40783 44.3214 6.95794 44.3214C7.50805 44.3214 7.95403 43.8755 7.95403 43.3253ZM59.0574 4.74525C59.6075 4.74525 60.0535 4.2994 60.0535 3.74916V0.996092C60.0535 0.445851 59.6075 0 59.0574 0C58.5073 0 58.0613 0.445851 58.0613 0.996092V3.74916C58.0613 4.2994 58.5073 4.74525 59.0574 4.74525ZM13.9954 59.7261C13.4453 59.7261 12.9993 60.1719 12.9993 60.7222V61.8497C12.9993 62.4 13.4453 62.8458 13.9954 62.8458C14.5455 62.8458 14.9915 62.4 14.9915 61.8497V60.7222C14.9915 60.1719 14.5455 59.7261 13.9954 59.7261ZM56.1682 42.8572C55.6181 42.8572 55.1721 43.303 55.1721 43.8533V46.5545C55.1721 47.1048 55.6181 47.5506 56.1682 47.5506C56.7183 47.5506 57.1643 47.1048 57.1643 46.5545V43.8533C57.1643 43.303 56.7183 42.8572 56.1682 42.8572ZM55.3181 56.9243C54.768 56.9243 54.322 57.3701 54.322 57.9203V61.3195C54.322 61.8698 54.768 62.3156 55.3181 62.3156C55.8682 62.3156 56.3142 61.8698 56.3142 61.3195V57.9203C56.3142 57.3702 55.8682 56.9243 55.3181 56.9243ZM9.66758 11.1724C10.2177 11.1724 10.6637 10.7266 10.6637 10.1763V5.92502C10.6637 5.37478 10.2177 4.92893 9.66758 4.92893C9.11747 4.92893 8.67148 5.37478 8.67148 5.92502V10.1763C8.67148 10.7266 9.11747 11.1724 9.66758 11.1724ZM45.9374 8.60238C46.4875 8.60238 46.9335 8.15653 46.9335 7.60629V3.0932C46.9335 2.54296 46.4875 2.09711 45.9374 2.09711C45.3873 2.09711 44.9413 2.54296 44.9413 3.0932V7.60629C44.9413 8.15653 45.3873 8.60238 45.9374 8.60238ZM23.9332 7.26297C24.4833 7.26297 24.9293 6.81712 24.9293 6.26688V0.996092C24.9293 0.445851 24.4833 0 23.9332 0C23.3831 0 22.9371 0.445851 22.9371 0.996092V6.26688C22.9371 6.81699 23.3831 7.26297 23.9332 7.26297ZM33.8896 9.53871C34.4397 9.53871 34.8857 9.09286 34.8857 8.54262V4.81843C34.8857 4.26819 34.4397 3.82234 33.8896 3.82234C33.3395 3.82234 32.8935 4.26819 32.8935 4.81843V8.54262C32.8935 9.09286 33.3395 9.53871 33.8896 9.53871ZM3.69421 24.9682C3.1441 24.9682 2.69812 25.414 2.69812 25.9643V33.145C2.69812 33.6953 3.1441 34.1411 3.69421 34.1411C4.24432 34.1411 4.6903 33.6953 4.6903 33.145V25.9643C4.6903 25.4142 4.24432 24.9682 3.69421 24.9682ZM28.0718 24.9355C27.8221 24.9788 27.2219 24.9931 26.6703 24.8895C26.1188 24.7864 25.5641 24.5559 25.3466 24.4254C24.8748 24.1421 24.263 24.2953 23.98 24.7668C23.6968 25.2386 23.8498 25.8503 24.3214 26.1335C24.6175 26.3112 25.0984 26.5239 25.6393 26.6853C25.561 26.8275 25.5162 26.9909 25.5162 27.1649V28.5499C25.5162 29.1001 25.9622 29.5459 26.5123 29.5459C27.0624 29.5459 27.5084 29.1001 27.5084 28.5499V27.1649C27.5084 27.0942 27.5008 27.0253 27.4867 26.9588C27.5112 26.959 27.5369 26.9604 27.5611 26.9604C27.8949 26.9604 28.1913 26.9364 28.4107 26.8986C28.9528 26.8051 29.3164 26.2897 29.2229 25.7476C29.1292 25.2055 28.6142 24.8427 28.0718 24.9355ZM64.3057 6.37738C63.7556 6.37738 63.3096 6.82323 63.3096 7.37347V10.6952C63.3096 11.2455 63.7556 11.6913 64.3057 11.6913C64.8558 11.6913 65.3018 11.2455 65.3018 10.6952V7.37347C65.3018 6.82323 64.8558 6.37738 64.3057 6.37738ZM46.3013 30.0354C45.7559 30.1075 45.3723 30.608 45.4443 31.1534C45.5164 31.6988 46.0171 32.082 46.5623 32.0104C47.5467 31.8803 49.9109 32.0524 50.7706 32.2674C50.8517 32.2876 50.9329 32.2974 51.013 32.2974C51.4592 32.2974 51.8653 31.9953 51.9786 31.5425C52.112 31.0087 51.7875 30.4681 51.2537 30.3346C50.1639 30.0622 47.5665 29.868 46.3013 30.0354ZM23.8187 32.9827C22.585 33.3102 20.2575 34.4793 19.3537 35.1464C18.911 35.4731 18.8171 36.0966 19.1439 36.5393C19.3392 36.8039 19.6406 36.9438 19.946 36.9438C20.1515 36.9438 20.3588 36.8806 20.5368 36.7491C21.2496 36.2231 23.3698 35.1631 24.3298 34.9082C24.8616 34.7671 25.1781 34.2216 25.037 33.6898C24.896 33.1582 24.3506 32.8418 23.8187 32.9827ZM50.3561 35.1464C49.4524 34.4794 47.1249 33.3102 45.8911 32.9827C45.3593 32.8417 44.8139 33.1582 44.6728 33.6898C44.5316 34.2216 44.8482 34.7671 45.38 34.9082C46.3401 35.1631 48.4603 36.2231 49.173 36.7491C49.3509 36.8805 49.5583 36.9438 49.7637 36.9438C50.0691 36.9438 50.3705 36.8039 50.5659 36.5393C50.8926 36.0968 50.7987 35.4731 50.3561 35.1464ZM45.3886 26.1335C45.8604 25.8504 46.0134 25.2387 45.7302 24.7668C45.4473 24.2953 44.8353 24.1419 44.3636 24.4254C44.1459 24.5559 43.5913 24.7864 43.0397 24.8895C42.488 24.9927 41.8881 24.9787 41.6381 24.9355C41.0968 24.8423 40.5808 25.2055 40.4872 25.7476C40.3936 26.2898 40.7572 26.8051 41.2993 26.8986C41.5187 26.9364 41.815 26.9604 42.1488 26.9604C42.1728 26.9604 42.1987 26.959 42.2232 26.9588C42.2092 27.0253 42.2015 27.0942 42.2015 27.1649V28.5499C42.2015 29.1001 42.6475 29.5459 43.1976 29.5459C43.7477 29.5459 44.1937 29.1001 44.1937 28.5499V27.1649C44.1937 26.9909 44.149 26.8275 44.0706 26.6853C44.6115 26.5239 45.0925 26.3113 45.3886 26.1335ZM37.8139 27.2021C37.2996 27.0067 36.7243 27.2652 36.529 27.7794C36.413 28.0843 36.3288 28.4963 36.2739 28.893H33.4362C33.3812 28.4965 33.297 28.0845 33.1811 27.7794C32.9857 27.2653 32.4103 27.007 31.8961 27.2021C31.3818 27.3976 31.1234 27.9728 31.3189 28.487C31.4269 28.7714 31.523 29.508 31.523 29.8891C31.523 30.2703 31.4269 31.0067 31.3189 31.2911C31.1234 31.8053 31.382 32.3806 31.8961 32.5761C32.0127 32.6203 32.1321 32.6413 32.2498 32.6413C32.6514 32.6413 33.0299 32.3965 33.1811 31.9987C33.297 31.6938 33.3812 31.2818 33.4362 30.8852H36.2739C36.3288 31.2818 36.413 31.6937 36.529 31.9987C36.6801 32.3965 37.0586 32.6413 37.4603 32.6413C37.5778 32.6413 37.6975 32.6203 37.8139 32.5761C38.3282 32.3806 38.5866 31.8053 38.3911 31.2911C38.283 31.0067 38.187 30.2703 38.187 29.8891C38.187 29.508 38.2832 28.7714 38.3911 28.487C38.5866 27.9728 38.3282 27.3976 37.8139 27.2021ZM63.7287 46.6677C63.1786 46.6677 62.7326 47.1136 62.7326 47.6638V52.1789C62.7326 52.729 63.1786 53.175 63.7287 53.175C64.2788 53.175 64.7248 52.729 64.7248 52.1789V47.6638C64.7248 47.1136 64.2788 46.6677 63.7287 46.6677ZM61.6608 29.8875C61.1107 29.8875 60.6647 30.3334 60.6647 30.8836V35.4066C60.6647 35.9568 61.1107 36.4026 61.6608 36.4026C62.2109 36.4026 62.6569 35.9568 62.6569 35.4066V30.8836C62.6569 30.3335 62.2108 29.8875 61.6608 29.8875ZM15.6456 47.7404V44.2468C15.6456 43.6966 15.1996 43.2507 14.6495 43.2507C14.0994 43.2507 13.6534 43.6966 13.6534 44.2468V47.7404C13.6534 48.2907 14.0994 48.7365 14.6495 48.7365C15.1996 48.7365 15.6456 48.2907 15.6456 47.7404ZM23.1476 32.0104C23.6927 32.0828 24.1936 31.6988 24.2658 31.1534C24.3378 30.608 23.9542 30.1075 23.4087 30.0354C22.1436 29.8679 19.546 30.0622 18.4562 30.3346C17.9224 30.4681 17.5979 31.0087 17.7314 31.5425C17.8446 31.9951 18.2507 32.2974 18.6969 32.2974C18.7769 32.2974 18.8582 32.2877 18.9393 32.2674C19.7988 32.0526 22.1632 31.8803 23.1476 32.0104ZM61.6953 16.75C61.679 15.3289 60.8215 14.0553 59.5112 13.5053C55.4408 11.7964 50.9493 12.0093 47.097 14.0713C43.4781 12.1243 39.2613 11.0791 34.855 11.0791C30.4486 11.0791 26.2319 12.1243 22.6131 14.0713C18.7608 12.0093 14.2694 11.7966 10.199 13.5053C8.88863 14.0554 8.03133 15.3289 8.01473 16.7501C7.96811 20.7702 9.56876 24.5952 12.423 27.3362C12.2761 28.2132 12.1999 29.1046 12.1999 30.0063C12.1999 31.7104 12.4732 33.3173 13.0121 34.7822C13.2231 35.3561 13.4175 35.9834 13.6235 36.7561C13.9362 37.9288 14.2303 39.1257 14.4667 40.0873L14.575 40.5274C14.7269 41.1436 15.2329 41.5783 15.8643 41.6352C16.4883 41.6892 17.0793 41.3443 17.3355 40.7719C17.3606 40.7159 17.3858 40.6609 17.4112 40.6071C18.6992 41.5912 20.202 42.4241 21.9097 43.1016C21.904 43.1167 21.8987 43.132 21.8929 43.1471C20.819 43.8587 19.96 44.8951 19.3376 46.2353C18.6958 47.6173 18.3656 49.1318 17.9831 50.8854C17.8159 51.6521 17.6415 52.4433 17.4339 53.2555C11.7039 52.3462 8.80987 54.5444 7.38028 56.6201C6.52949 57.8553 6.84226 59.5522 8.07755 60.4031C8.5477 60.7269 9.08453 60.8821 9.61631 60.8821C10.4817 60.8819 11.3334 60.4707 11.8603 59.706C13.2491 57.6894 17.204 58.6092 19.438 59.3371C20.5863 59.7111 21.7024 59.8129 22.7553 59.6395C23.9198 59.4473 25.0067 58.92 25.9861 58.0724C26.1753 57.9087 26.3602 57.7315 26.5436 57.5421C26.6491 57.6174 26.7555 57.6914 26.8633 57.7639V64.2457C26.8633 66.3158 28.5475 68 30.6176 68C32.6878 68 34.372 66.3158 34.372 64.2457V60.1609C34.5323 60.1661 34.6931 60.1697 34.8548 60.1697C35.0164 60.1697 35.1772 60.1661 35.3377 60.1609V64.2457C35.3377 66.3158 37.0219 68 39.092 68C40.6693 68 42.0888 67.0036 42.624 65.5207C42.8109 65.0031 42.5427 64.4323 42.0253 64.2454C41.508 64.0588 40.9369 64.3267 40.7502 64.8441C40.4989 65.5402 39.8324 66.0078 39.0919 66.0078C38.1202 66.0078 37.3297 65.2173 37.3297 64.2457V59.9602C38.5704 59.7481 39.7531 59.3794 40.854 58.8771V61.0705C40.854 61.6208 41.3 62.0666 41.8501 62.0666C42.4002 62.0666 42.8462 61.6208 42.8462 61.0705V57.7638C43.7056 57.1862 44.4909 56.5184 45.1861 55.7749C45.7149 57.2571 47.1259 58.2675 48.72 58.2675C49.044 58.2675 49.3683 58.2252 49.684 58.1415C51.6849 57.6109 52.8812 55.5512 52.3508 53.5504C52.1077 52.6339 51.9138 51.745 51.7264 50.8854C51.3441 49.1318 51.0138 47.6174 50.372 46.2353C49.7495 44.8951 48.8905 43.8587 47.8167 43.1471C47.8106 43.1306 47.8047 43.114 47.7985 43.0977C49.099 42.5809 50.287 41.9742 51.3483 41.2788C51.4053 41.2415 51.4815 41.2488 51.5257 41.2958C51.8822 41.6746 52.1493 42.031 52.3421 42.3854C52.6108 42.8792 53.1645 43.151 53.7201 43.0596C54.2781 42.9686 54.7192 42.5337 54.8178 41.9774C55.0753 40.5242 55.6336 38.5128 56.0821 36.8964C56.1489 36.6559 56.2128 36.4254 56.2727 36.2081C56.4332 35.6252 56.6114 35.0442 56.8024 34.4815C57.2719 33.0984 57.51 31.5927 57.51 30.0063C57.51 29.1046 57.4339 28.2132 57.287 27.3362C60.1413 24.5951 61.7421 20.7702 61.6953 16.75ZM58.7401 15.3423C59.1691 15.5223 59.4874 15.8784 59.6264 16.306C57.5212 16.2031 54.7972 16.4289 52.0255 17.6519C51.6377 17.277 51.2314 16.9123 50.8055 16.5598C50.2695 16.1161 49.7114 15.6975 49.1335 15.3045C53.3858 13.5178 57.1902 14.6914 58.7401 15.3423ZM10.9699 15.3422C12.5197 14.6918 16.3241 13.5179 20.5765 15.3045C19.9985 15.6975 19.4404 16.1161 18.9044 16.5598C18.4785 16.9124 18.0722 17.277 17.6845 17.6519C14.913 16.4287 12.1889 16.2027 10.0837 16.3059C10.2226 15.8781 10.5411 15.5222 10.9699 15.3422ZM12.9846 25.0347C11.3674 23.1467 10.3559 20.8005 10.0822 18.3013C11.796 18.2068 13.9842 18.3532 16.2355 19.2104C14.7526 20.9878 13.6569 22.9531 12.9846 25.0347ZM10.2198 58.5759C9.9923 58.9062 9.53835 58.99 9.20765 58.7625C8.87708 58.5347 8.79327 58.0805 9.02104 57.7501C10.6226 55.4248 13.4088 54.5865 17.3083 55.2522C17.4307 55.856 17.7003 56.4194 18.0876 56.8926C14.2906 56.0177 11.5899 56.5868 10.2198 58.5759ZM22.6911 54.9643C22.4863 55.7364 21.7867 56.2755 20.9897 56.2755C20.8377 56.2755 20.6851 56.2555 20.5364 56.2161C19.7232 56.0004 19.1941 55.2464 19.2282 54.4384C19.2285 54.4285 19.2289 54.4184 19.2289 54.4084C19.2358 54.2931 19.2538 54.1768 19.2845 54.061C19.5388 53.1017 19.7375 52.1908 19.9296 51.3098C20.2859 49.6759 20.594 48.2644 21.1406 47.0837C21.1386 47.173 21.1368 47.2623 21.1368 47.3519C21.1368 49.6912 21.8115 51.8858 22.9877 53.7755C22.8868 54.2033 22.7889 54.5955 22.6911 54.9643ZM24.6824 56.5661C24.2751 56.9187 23.8466 57.19 23.4025 57.383C23.9021 56.9626 24.2956 56.4137 24.5236 55.775C24.6796 55.942 24.8404 56.1048 25.0055 56.264C24.8983 56.37 24.7909 56.4722 24.6824 56.5661ZM32.3799 64.2455C32.3799 65.2172 31.5894 66.0077 30.6178 66.0077C29.6461 66.0077 28.8556 65.2172 28.8556 64.2455V58.8771C29.9564 59.3794 31.1392 59.748 32.3799 59.9602V64.2455ZM48.5731 47.3519C48.5731 47.2623 48.5713 47.1728 48.5693 47.0834C49.1157 48.2641 49.4239 49.6758 49.7803 51.3098C49.9724 52.1908 50.1711 53.1017 50.4254 54.061C50.6744 55.0001 50.1129 55.9668 49.1739 56.2158C49.0249 56.2554 48.8723 56.2753 48.7204 56.2753C47.9232 56.2753 47.2236 55.7361 47.0188 54.9642C46.9213 54.5962 46.8234 54.2039 46.7222 53.7754C47.8984 51.8858 48.5731 49.6912 48.5731 47.3519ZM54.9159 33.8411C54.7124 34.4407 54.5227 35.0592 54.352 35.6795C54.2925 35.8953 54.2289 36.1245 54.1626 36.3636C53.8392 37.5288 53.4602 38.8943 53.1684 40.1401C53.1065 40.0704 53.0426 40.0004 52.9765 39.9303C52.2683 39.1779 51.1245 39.0441 50.2566 39.6123C49.0825 40.3817 47.7304 41.0331 46.2218 41.5635C46.1754 41.5755 46.1297 41.592 46.0844 41.6113C42.9521 42.6902 39.1527 43.2507 34.8549 43.2507C34.0065 43.2507 33.1625 43.228 32.3462 43.1834C31.7979 43.151 31.3273 43.574 31.2971 44.1234C31.267 44.6727 31.688 45.1425 32.2373 45.1725C33.0897 45.2191 33.9704 45.2428 34.8549 45.2428C39.0061 45.2428 42.7394 44.7358 45.9185 43.7571C46.3583 44.9074 46.5807 46.1129 46.5807 47.3518C46.5807 53.3209 41.3206 58.1773 34.8549 58.1773C28.3892 58.1773 23.129 53.3211 23.129 47.3518C23.129 46.1133 23.3514 44.9081 23.791 43.758C24.9925 44.1265 26.2773 44.4299 27.646 44.665C28.1882 44.7588 28.7033 44.3942 28.7963 43.8519C28.8894 43.3098 28.5253 42.7948 27.9832 42.7017C26.4091 42.4313 24.9583 42.0684 23.6346 41.6154C23.5887 41.5953 23.5421 41.5785 23.4949 41.5657C21.3309 40.8094 19.5116 39.8095 18.062 38.5728C17.7694 38.3232 17.3834 38.2138 17.0028 38.2722C16.6806 38.322 16.3908 38.4878 16.1855 38.7355C15.993 37.9585 15.776 37.0966 15.5485 36.2426C15.3263 35.4093 15.1145 34.7267 14.8818 34.0941C14.4241 32.8502 14.1921 31.4746 14.1921 30.006C14.1921 20.668 23.4615 13.071 34.855 13.071C46.2486 13.071 55.5179 20.668 55.5179 30.006C55.5178 31.3744 55.3154 32.6646 54.9159 33.8411ZM56.7253 25.0347C56.0531 22.9533 54.9573 20.9878 53.4745 19.2104C55.7258 18.3532 57.914 18.207 59.6278 18.3013C59.3538 20.8005 58.3425 23.1467 56.7253 25.0347Z" fill="#151515"/>
</svg>
