<svg width="66" height="66" viewBox="0 0 66 66" fill="none" xmlns="http://www.w3.org/2000/svg">
<path d="M3.89829 54.0923C3.51092 54.0923 3.11995 53.9743 2.78248 53.729C1.93299 53.1119 1.74453 51.9229 2.36173 51.0736C3.856 49.0167 5.88872 47.8179 8.24021 47.6065C10.3039 47.421 12.5319 48.0132 14.6839 49.3189C15.7705 49.9782 16.7868 50.1457 17.7916 49.8312C19.3379 49.3467 20.867 47.6946 21.882 45.4116C22.3086 44.4521 23.4319 44.0201 24.3917 44.4466C25.3511 44.8732 25.7831 45.9969 25.3565 46.9563C23.8828 50.2714 21.5398 52.6418 18.9281 53.4599C16.8786 54.1021 14.7291 53.794 12.7114 52.5699C8.64343 50.1017 6.4082 51.9732 5.43806 53.3086C5.06591 53.8203 4.48622 54.0923 3.89829 54.0923Z" fill="#EDA751"/>
<path d="M3.89829 54.0923C3.51092 54.0923 3.11995 53.9743 2.78248 53.729C1.93299 53.1119 1.74453 51.9229 2.36173 51.0736C3.856 49.0167 5.88872 47.8179 8.24021 47.6065C10.3039 47.421 12.5319 48.0132 14.6839 49.3189C15.7705 49.9782 16.7868 50.1457 17.7916 49.8312C19.3379 49.3467 20.867 47.6946 21.882 45.4116C22.3086 44.4521 23.4319 44.0201 24.3917 44.4466C25.3511 44.8732 25.7831 45.9969 25.3565 46.9563C23.8828 50.2714 21.5398 52.6418 18.9281 53.4599C16.8786 54.1021 14.7291 53.794 12.7114 52.5699C8.64343 50.1017 6.4082 51.9732 5.43806 53.3086C5.06591 53.8203 4.48622 54.0923 3.89829 54.0923Z" fill="#EDA751"/>
<path d="M3.41137 49.8582C3.03806 50.2228 2.68641 50.6267 2.3617 51.0736C1.7445 51.9231 1.93308 53.1121 2.78244 53.7291C3.11992 53.9742 3.51089 54.0923 3.89825 54.0923C4.48619 54.0923 5.066 53.8205 5.43803 53.3083C5.63912 53.0314 5.89551 52.732 6.21043 52.4524C5.76106 50.9232 4.4345 50.1505 3.41137 49.8582Z" fill="#FCD79D"/>
<path d="M26.0683 65.0331C25.9736 65.0331 25.8782 65.0287 25.7819 65.0197C24.1091 64.8634 22.8798 63.3808 23.0361 61.7082C23.3844 57.9768 23.6263 54.4636 22.7718 52.4864C22.1054 50.9442 22.8154 49.154 24.3575 48.4874C25.8997 47.821 27.69 48.531 28.3567 50.0731C29.7834 53.3743 29.5345 57.5518 29.0935 62.274C28.9463 63.8502 27.6209 65.0331 26.0683 65.0331Z" fill="#EDA751"/>
<path d="M36.4814 65.0331C36.3867 65.0331 36.2913 65.0287 36.195 65.0197C34.5222 64.8634 33.2929 63.3808 33.4492 61.7082C33.7975 57.9768 34.0394 54.4636 33.1849 52.4864C32.5185 50.9442 33.2285 49.154 34.7707 48.4874C36.3129 47.821 38.103 48.531 38.7697 50.0731C40.1965 53.3743 39.9476 57.5518 39.5066 62.274C39.3595 63.8502 38.0339 65.0331 36.4814 65.0331Z" fill="#EDA751"/>
<path d="M16.108 44.7338C13.9745 44.7338 11.7273 44.1025 9.70157 42.8463C5.88171 40.4777 3.93653 36.4976 4.62501 32.4593C4.90757 30.8031 6.47841 29.6889 8.13485 29.9719C9.79103 30.2542 10.9046 31.8257 10.6223 33.4817C10.2359 35.7485 12.0917 37.17 12.9077 37.6759C14.6595 38.7621 16.8201 38.9691 17.9344 38.1573C19.2924 37.1679 21.1949 37.467 22.1841 38.8251C23.1732 40.1831 22.8744 42.0857 21.5163 43.0749C19.9958 44.1826 18.1016 44.7338 16.108 44.7338Z" fill="#EDA751"/>
<path d="M48.9396 45.4907C45.314 45.4907 41.9979 44.1388 40.4758 43.2212C39.0369 42.3538 38.5738 40.4844 39.4412 39.0455C40.3086 37.6068 42.1785 37.1438 43.6168 38.0109C45.0331 38.8647 48.2569 39.8327 50.6786 39.1988C51.8111 38.9024 52.6005 38.3026 53.163 37.3114C53.9923 35.8503 55.8492 35.3382 57.3099 36.1674C58.7711 36.9968 59.2832 38.8533 58.454 40.3145C57.0854 42.7255 54.9296 44.3749 52.2189 45.0844C51.1247 45.3709 50.0184 45.4907 48.9396 45.4907Z" fill="#EDA751"/>
<path opacity="0.2" d="M39.4412 39.0454C38.5738 40.4841 39.0368 42.3535 40.4757 43.221C41.7067 43.9633 44.1113 44.9891 46.9041 45.3544C47.1231 44.3471 47.2383 43.3047 47.2383 42.2375C47.2383 41.1954 47.1278 40.1773 46.9188 39.1923C45.5745 38.9276 44.3521 38.4542 43.617 38.011C42.1785 37.1436 40.3086 37.6067 39.4412 39.0454Z" fill="#A35F00"/>
<path opacity="0.2" d="M39.8209 55.195C39.7319 53.3214 39.431 51.6028 38.7697 50.0727C38.1032 48.5306 36.3128 47.8207 34.7707 48.4872C33.2286 49.1536 32.5185 50.9441 33.1849 52.4862C33.7054 53.6907 33.8187 55.4656 33.7494 57.5122C35.9582 57.1241 38.0136 56.3219 39.8209 55.195Z" fill="#A35F00"/>
<path opacity="0.2" d="M24.3575 48.4872C22.8154 49.1536 22.1054 50.9441 22.7718 52.4862C23.1732 53.4151 23.3327 54.6829 23.3528 56.1529C25.2045 57.0208 27.2519 57.5725 29.4156 57.7302C29.5131 54.855 29.306 52.2696 28.3567 50.0728C27.69 48.5307 25.8996 47.8207 24.3575 48.4872Z" fill="#A35F00"/>
<path opacity="0.2" d="M24.3916 44.4464C23.4317 44.0198 22.3084 44.4519 21.8819 45.4114C20.8668 47.6944 19.3378 49.3466 17.7915 49.8309C17.3183 49.979 16.8423 50.0188 16.3579 49.9521C17.129 51.2141 18.0837 52.3647 19.1865 53.3727C21.6938 52.483 23.9314 50.1612 25.3563 46.9558C25.7828 45.9963 25.351 44.8729 24.3916 44.4464Z" fill="#A35F00"/>
<path opacity="0.2" d="M17.9343 38.1571C17.1775 38.7084 15.9381 38.7886 14.672 38.4439C14.3466 39.6586 14.1729 40.9292 14.1729 42.2374C14.1729 43.0385 14.2378 43.8255 14.3627 44.5943C14.9483 44.6861 15.5324 44.7336 16.1081 44.7336C18.1016 44.7336 19.9958 44.1823 21.5163 43.0746C22.8744 42.0855 23.1733 40.1829 22.1842 38.8248C21.1949 37.467 19.2925 37.1679 17.9343 38.1571Z" fill="#A35F00"/>
<path d="M30.706 55.2744C38.4543 55.2744 44.7356 49.4375 44.7356 42.2373C44.7356 35.0371 38.4543 29.2002 30.706 29.2002C22.9576 29.2002 16.6763 35.0371 16.6763 42.2373C16.6763 49.4375 22.9576 55.2744 30.706 55.2744Z" fill="#FCD690"/>
<path opacity="0.15" d="M28.657 55.1361C22.2455 50.9268 24.2326 42.2995 25.3211 38.5264V30.1958C20.245 32.1581 16.6758 36.8102 16.6758 42.2376C16.6755 48.7911 21.8796 54.2145 28.657 55.1361Z" fill="#C17A00"/>
<path d="M22.1677 19.6311C24.913 17.3274 26.746 13.4601 22.8737 7.7434C18.9708 1.98146 13.1598 0.537071 8.6232 1.07164C7.50469 1.20338 6.56625 1.99087 6.24231 3.06942C4.92825 7.44434 5.34152 13.4178 10.3382 18.2621C15.2955 23.0683 19.4224 21.9346 22.1677 19.6311Z" fill="#EDA751"/>
<path d="M6.05964 3.73877C4.98225 8.04022 5.59146 13.6601 10.338 18.2619C14.635 22.4277 18.3071 22.1301 20.9973 20.4772C19.1472 7.91711 11.0648 4.58645 6.05964 3.73877Z" fill="#FF91AB"/>
<path d="M39.2439 19.6311C36.4986 17.3274 34.6655 13.4601 38.5379 7.7434C42.4409 1.98146 48.2519 0.537071 52.7884 1.07164C53.9069 1.20338 54.8454 1.99087 55.1693 3.06942C56.4835 7.44434 56.0701 13.4178 51.0735 18.2621C46.116 23.0683 41.9892 21.9346 39.2439 19.6311Z" fill="#EDA751"/>
<path d="M55.3523 3.73877C56.4296 8.04022 55.8204 13.6601 51.0739 18.2619C46.7769 22.4277 43.1048 22.1301 40.4146 20.4772C42.2647 7.91711 50.3471 4.58645 55.3523 3.73877Z" fill="#FF91AB"/>
<path d="M54.592 23.1079C54.592 34.0294 43.8977 38.8128 30.7058 38.8128C17.5139 38.8128 6.81934 34.0294 6.81934 23.1079C6.81934 12.1864 17.5136 3.33276 30.7057 3.33276C43.8977 3.33276 54.592 12.1864 54.592 23.1079Z" fill="#FFDC9C"/>
<path opacity="0.15" d="M17.9516 6.38599C11.2619 9.89041 6.81934 16.0692 6.81934 23.1079C6.81934 32.4963 14.722 37.349 25.3208 38.5263C10.1068 29.4385 12.0909 17.2146 17.9516 6.38599Z" fill="#C17A00"/>
<path d="M20.2019 26.8606C22.5904 26.8606 24.5268 25.3186 24.5268 23.4165C24.5268 21.5144 22.5904 19.9724 20.2019 19.9724C17.8133 19.9724 15.877 21.5144 15.877 23.4165C15.877 25.3186 17.8133 26.8606 20.2019 26.8606Z" fill="#FF91AB"/>
<path d="M43.6438 26.8606C46.0323 26.8606 47.9687 25.3186 47.9687 23.4165C47.9687 21.5144 46.0323 19.9724 43.6438 19.9724C41.2552 19.9724 39.3188 21.5144 39.3188 23.4165C39.3188 25.3186 41.2552 26.8606 43.6438 26.8606Z" fill="#FF91AB"/>
<path d="M58.4413 40.0457L53.0073 39.4481C51.7943 39.3146 50.9192 38.2232 51.0525 37.0103L52.2804 25.8435C52.4138 24.6305 53.5053 23.7554 54.7182 23.8887L60.1522 24.4863C61.3652 24.6197 62.2403 25.7111 62.1069 26.924L60.8789 38.0908C60.7458 39.3039 59.6543 40.1791 58.4413 40.0457Z" fill="#7694E4"/>
<path opacity="0.1" d="M54.8802 27.6559C55.3885 27.6559 55.8005 27.2439 55.8005 26.7357C55.8005 26.2274 55.3885 25.8154 54.8802 25.8154C54.372 25.8154 53.96 26.2274 53.96 26.7357C53.96 27.2439 54.372 27.6559 54.8802 27.6559Z" fill="#151515"/>
<path d="M56.7053 32.3963C57.5714 32.3963 58.2735 31.6942 58.2735 30.8281C58.2735 29.9621 57.5714 29.26 56.7053 29.26C55.8393 29.26 55.1372 29.9621 55.1372 30.8281C55.1372 31.6942 55.8393 32.3963 56.7053 32.3963Z" fill="white"/>
<path opacity="0.1" d="M51.1095 36.4889L60.9355 37.5693L61.1469 35.6475L51.3208 34.567L51.1095 36.4889Z" fill="#151515"/>
<path d="M18.5825 48.8027C21.0156 52.6736 25.5335 55.2747 30.7057 55.2747C35.8779 55.2747 40.3958 52.6736 42.8289 48.8027H18.5825Z" fill="#DEE2E5"/>
<path d="M18.5828 48.8026H42.829C43.5063 47.7251 44.0218 46.5491 44.345 45.3035H17.0669C17.3901 46.5492 17.9054 47.7251 18.5828 48.8026Z" fill="#7694E4"/>
<path opacity="0.1" d="M17.0669 45.3037C17.3901 46.5495 17.9054 47.7253 18.5828 48.8028C20.6882 52.1523 24.3551 54.5496 28.6556 55.1351C24.9868 52.7254 24.0696 48.869 24.1594 45.3038H17.0669V45.3037V45.3037Z" fill="#151515"/>
<path d="M58.2886 22.1419C58.3342 22.1484 58.3795 22.1514 58.4242 22.1514C58.8986 22.1514 59.3126 21.8021 59.3804 21.3187L59.7553 18.6457C59.8294 18.117 59.4608 17.6283 58.9321 17.554C58.4019 17.4791 57.9144 17.8483 57.8402 18.3772L57.4654 21.0502C57.3914 21.579 57.7599 22.0678 58.2886 22.1419ZM43.5636 26.8655C44.6555 27.1554 46.9789 28.3178 47.791 28.9173C47.9638 29.0448 48.1649 29.1063 48.3644 29.1063C48.6609 29.1063 48.9534 28.9704 49.143 28.7136C49.4601 28.2841 49.369 27.6788 48.9393 27.3617C47.9516 26.6326 45.408 25.3547 44.0599 24.9966C43.5439 24.86 43.0143 25.1668 42.8773 25.6829C42.7403 26.1991 43.0474 26.7285 43.5636 26.8655ZM22.7217 17.4866C22.1877 17.4866 21.755 17.9195 21.755 18.4534V19.9807C21.755 20.5146 22.1877 20.9475 22.7217 20.9475C23.2558 20.9475 23.6885 20.5146 23.6885 19.9807V18.4534C23.6885 17.9195 23.2557 17.4866 22.7217 17.4866ZM60.2577 23.5255L55.5573 23.0085C55.5441 20.6229 55.0533 18.3017 54.1221 16.1202C56.7478 12.1917 57.4698 7.36728 56.0954 2.79126C55.6598 1.34056 54.4062 0.288561 52.9019 0.111445C48.3411 -0.426349 43.8534 0.99883 40.4865 4.02798C37.4355 2.93912 34.1228 2.366 30.7058 2.366C27.2887 2.366 23.9763 2.93912 20.9252 4.02798C17.5583 0.998701 13.0702 -0.425704 8.50992 0.111445C7.00559 0.28869 5.75211 1.34056 5.31641 2.79126C3.94189 7.36728 4.66402 12.1918 7.2897 16.1202C6.34547 18.332 5.85292 20.6872 5.85292 23.1079C5.85292 25.257 6.23989 27.2274 7.00649 29.0084C6.40077 29.1022 5.82056 29.3348 5.30597 29.6998C4.43251 30.3189 3.85243 31.2412 3.67222 32.2968C2.91632 36.7307 5.03166 41.0879 9.19247 43.668C11.3368 44.9976 13.7281 45.7005 16.1083 45.7005C16.1294 45.7005 16.1516 45.6994 16.1728 45.6993C16.4813 46.8277 16.9365 47.902 17.519 48.9026C17.5137 48.9042 17.5082 48.9067 17.5029 48.9084C16.7685 49.1382 16.0319 49.0059 15.1855 48.4921C12.8556 47.0785 10.4239 46.439 8.15362 46.6435C5.51596 46.8807 3.24258 48.216 1.57944 50.5051C1.12931 51.1249 0.94742 51.883 1.06717 52.6397C1.18718 53.3963 1.59453 54.061 2.21417 54.5111C2.70737 54.8696 3.28989 55.0591 3.89832 55.0591C4.81407 55.0591 5.68225 54.6171 6.2203 53.8766C7.59701 51.9817 9.61206 51.8199 12.21 53.3962C14.4724 54.7688 16.8959 55.11 19.2172 54.3822C20 54.137 20.7633 53.7667 21.4951 53.2814C21.7095 53.4376 21.9287 53.588 22.152 53.7334C22.5767 55.6595 22.3484 58.6763 22.0737 61.6182C21.9742 62.6844 22.2958 63.7254 22.9792 64.5496C23.6628 65.3738 24.6262 65.8826 25.6928 65.9823C25.8177 65.9939 25.9441 65.9998 26.0685 65.9998C28.1485 65.9998 29.8627 64.4366 30.0562 62.3636C30.2805 59.9625 30.4195 58.03 30.4034 56.2381C30.5039 56.2399 30.6046 56.2417 30.7058 56.2417C31.4158 56.2417 32.1142 56.1942 32.7983 56.1046C32.8265 57.7813 32.6629 59.734 32.487 61.6182C32.3875 62.6844 32.709 63.7254 33.3923 64.5496C34.0759 65.374 35.0393 65.8828 36.1059 65.9823C36.2308 65.9939 36.3572 65.9998 36.4818 65.9998C38.242 65.9998 39.8207 64.8211 40.321 63.1337C40.4728 62.6217 40.1807 62.0838 39.6688 61.9319C39.1566 61.7807 38.6189 62.0722 38.4672 62.5841C38.2085 63.4569 37.392 64.0664 36.4816 64.0664C36.4167 64.0664 36.3504 64.0633 36.2852 64.0572C35.7332 64.0056 35.2345 63.7423 34.8806 63.3156C34.5269 62.8889 34.3605 62.35 34.4121 61.798C34.6045 59.7351 34.7825 57.5876 34.7227 55.7307C36.1685 55.3549 37.5272 54.7819 38.7629 54.044C38.9021 55.3473 38.9192 56.8627 38.8177 58.6983C38.788 59.2315 39.1964 59.6876 39.7295 59.7171C39.7477 59.7181 39.7658 59.7185 39.7838 59.7185C40.2932 59.7185 40.7198 59.3201 40.7483 58.8051C40.8849 56.3365 40.8223 54.4514 40.545 52.7972C41.7401 51.825 42.7686 50.679 43.5861 49.4023C43.6275 49.3501 43.6633 49.2934 43.6933 49.2332C44.313 48.2338 44.8042 47.1568 45.1458 46.0219C46.4343 46.3095 47.7067 46.4573 48.9396 46.4573C50.1684 46.4573 51.3541 46.3101 52.464 46.0196C55.3582 45.262 57.6737 43.5222 59.178 40.9867C59.7189 40.9022 60.2311 40.679 60.6696 40.3275C61.3315 39.7968 61.7471 39.04 61.8398 38.1967L63.0677 27.0297C63.259 25.2889 61.9985 23.7169 60.2577 23.5255ZM53.1035 14.0893C51.8916 11.9955 50.2494 10.0667 48.2122 8.38009C48.0785 8.26936 47.9431 8.16056 47.807 8.05267C50.1015 6.21435 52.6107 5.31098 54.6039 4.8696C54.9993 7.07247 55.0962 10.5398 53.1035 14.0893ZM52.6754 2.03162C53.2879 2.10381 53.815 2.47196 54.0994 3.00163C51.7774 3.52654 48.8398 4.6185 46.192 6.87937C45.0331 6.10658 43.8031 5.42699 42.5151 4.8455C46.4944 1.7216 50.8686 1.8188 52.6754 2.03162ZM8.73602 2.03162C10.5425 1.81893 14.9169 1.7216 18.8965 4.8455C17.6083 5.42699 16.3783 6.10658 15.2196 6.87937C12.5715 4.61837 9.63384 3.52641 7.31187 3.00151C7.59624 2.47183 8.12333 2.10381 8.73602 2.03162ZM6.80721 4.8696C8.80047 5.31111 11.3097 6.21448 13.6043 8.05267C13.4681 8.16056 13.3328 8.26936 13.1991 8.38009C11.1619 10.0667 9.51963 11.9955 8.30779 14.0893C6.31517 10.5398 6.41211 7.07247 6.80721 4.8696ZM15.7977 43.7612C13.88 43.7028 11.9552 43.1061 10.2111 42.0247C6.73231 39.8676 4.9569 36.2645 5.57809 32.6219C5.67129 32.0752 5.97164 31.5976 6.42384 31.2772C6.87617 30.9566 7.42621 30.8314 7.97238 30.9249C7.99262 30.9284 8.01286 30.934 8.03323 30.9382C8.5103 31.6801 9.06524 32.3822 9.6974 33.0432C9.69417 33.1359 9.68528 33.2282 9.66968 33.3194C9.50803 34.2673 9.45054 36.6693 12.3985 38.4977C13.5165 39.1907 14.8005 39.5779 15.9715 39.6118C15.7971 40.4706 15.7088 41.3474 15.7088 42.2376C15.7085 42.7522 15.7393 43.2605 15.7977 43.7612ZM16.5295 37.6589C15.6174 37.7707 14.4082 37.4688 13.4172 36.8543C12.2994 36.1609 11.8176 35.404 11.6357 34.7574C13.0576 35.8303 14.7139 36.7388 16.5987 37.475C16.575 37.5362 16.5523 37.5975 16.5295 37.6589ZM18.6391 52.5369C16.8625 53.0935 14.9864 52.8191 13.2128 51.7429C8.30599 48.7657 5.59408 51.4484 4.6559 52.7398C4.47788 52.9849 4.20177 53.1254 3.8982 53.1254C3.70084 53.1254 3.51148 53.0636 3.3506 52.9467C2.93372 52.6439 2.84091 52.0583 3.14371 51.6415C4.46912 49.8173 6.26129 48.755 8.32674 48.5692C10.1829 48.4029 12.2078 48.9473 14.1824 50.1452C15.5011 50.9456 16.8127 51.1503 18.0804 50.7536C18.2652 50.6958 18.4505 50.6236 18.6354 50.5388C19.0343 51.043 19.4683 51.5214 19.9343 51.9709C19.5098 52.2091 19.0769 52.3998 18.6391 52.5369ZM28.1309 62.1836C28.0307 63.2568 27.144 64.066 26.0683 64.066C26.0033 64.066 25.937 64.0629 25.8718 64.0568C25.3198 64.0053 24.8211 63.7419 24.4673 63.3152C24.1135 62.8885 23.947 62.3496 23.9986 61.7977C24.2329 59.2873 24.4203 56.8687 24.2611 54.8808C25.1605 55.2821 26.1093 55.6018 27.096 55.8303C27.1078 55.8329 27.1194 55.8361 27.1311 55.8383C27.5695 55.9389 28.0153 56.0219 28.4677 56.0853C28.4941 57.8443 28.3567 59.7656 28.1309 62.1836ZM26.9687 53.8038C24.3918 53.0917 22.147 51.6633 20.5056 49.7694H29.3862C28.8236 51.0875 27.9575 52.6153 26.9687 53.8038ZM30.7055 54.308C30.1592 54.308 29.6209 54.2764 29.0921 54.2159C29.5057 53.6418 29.8858 53.0363 30.225 52.4306C30.9134 52.6745 31.961 53.2093 32.5896 54.182C31.9742 54.2644 31.3453 54.308 30.7055 54.308ZM34.5665 53.7698C33.7856 52.0818 32.2419 51.1495 31.0906 50.6971C31.2318 50.3753 31.3585 50.0637 31.467 49.7696H40.9059C39.2906 51.633 37.0914 53.0465 34.5665 53.7698ZM42.2761 47.836H30.7725C30.7682 47.836 30.7636 47.836 30.7593 47.836H19.1352C18.8494 47.3338 18.6009 46.8109 18.3928 46.2703H43.0182C42.8104 46.8108 42.5619 47.3338 42.2761 47.836ZM43.5709 44.3369H17.8404C17.7104 43.6548 17.6421 42.9533 17.6421 42.2374C17.6421 41.0634 17.821 39.9163 18.1754 38.8112C18.1825 38.7912 18.1898 38.7712 18.1956 38.7509C18.2657 38.5364 18.3427 38.3234 18.4261 38.1121C19.7549 38.5254 21.1773 38.8664 22.6952 39.1304C22.7513 39.1402 22.807 39.1448 22.862 39.1448C23.3232 39.1448 23.7316 38.8135 23.8133 38.3435C23.9048 37.8175 23.5527 37.3169 23.0265 37.2254C21.3043 36.9258 19.7173 36.5251 18.267 36.0273C18.2191 36.0071 18.1705 35.9902 18.1214 35.9782C15.6598 35.117 13.6022 33.9703 11.9743 32.5481C11.7505 32.3525 11.5365 32.1517 11.3305 31.9465C11.3244 31.9404 11.3185 31.9343 11.3123 31.9285C8.97217 29.5888 7.78611 26.6263 7.78611 23.1079C7.78611 12.737 18.0677 4.29971 30.7055 4.29971C43.3101 4.29971 53.5699 12.6929 53.6239 23.0262C52.4119 23.3656 51.465 24.4123 51.3192 25.738L50.7111 31.2678C48.9593 33.2857 46.4384 34.8713 43.2824 35.9798C43.2311 35.9927 43.1805 36.0112 43.1306 36.0332C39.6777 37.2215 35.4794 37.8462 30.7054 37.8462C29.5771 37.8462 28.4604 37.81 27.3865 37.7387C26.8583 37.7047 26.3932 38.1063 26.3578 38.6392C26.3225 39.172 26.7256 39.6327 27.2583 39.668C28.3748 39.7423 29.5345 39.7799 30.7054 39.7799C35.3363 39.7799 39.4753 39.2058 42.9832 38.1083C43.0416 38.2559 43.0972 38.4042 43.1491 38.5534C43.1517 38.5614 43.1544 38.5694 43.1571 38.5774C43.5633 39.7544 43.7692 40.9805 43.7692 42.2376C43.7692 42.9533 43.701 43.6548 43.5709 44.3369ZM44.8412 37.5483C44.8306 37.5207 44.8195 37.4933 44.8088 37.4658C46.9644 36.621 48.835 35.5534 50.3805 34.2763L50.0915 36.9047C50.0385 37.3864 50.0948 37.8634 50.2516 38.3073C48.4407 38.7051 46.1711 38.1244 44.8412 37.5483ZM51.9745 44.149C50.0487 44.6529 47.8398 44.6421 45.5643 44.1351C45.6548 43.5143 45.7025 42.881 45.7025 42.2374C45.7025 41.4231 45.6279 40.6201 45.4819 39.8319C46.5664 40.1528 47.7865 40.3657 48.9639 40.3657C49.6429 40.3657 50.3079 40.295 50.9236 40.1339C51.1386 40.0776 51.3457 40.0103 51.5445 39.9333C51.9493 40.191 52.4104 40.3551 52.9014 40.4091L56.9444 40.8537C55.72 42.4816 54.0235 43.6128 51.9745 44.149ZM61.1458 26.8183L59.9178 37.9853C59.8816 38.3153 59.7189 38.6114 59.4599 38.8189C59.2342 38.9999 58.9589 39.0949 58.6734 39.0921C58.6475 39.0898 58.6217 39.088 58.596 39.0877C58.5795 39.0865 58.5631 39.0865 58.5466 39.0846L53.1126 38.4871C52.8275 38.4558 52.5679 38.3296 52.3686 38.1289C52.3627 38.1228 52.3571 38.1164 52.3509 38.1106C52.3261 38.0846 52.3018 38.0577 52.279 38.0294C52.0713 37.7704 51.977 37.4461 52.0132 37.1161L52.6009 31.7711C52.601 31.7693 52.6013 31.7677 52.6015 31.7659L53.241 25.9494C53.3117 25.3069 53.8639 24.8327 54.497 24.8431C54.5066 24.8439 54.516 24.8454 54.5258 24.846C54.5323 24.8462 54.5385 24.8457 54.5448 24.846C54.5672 24.8472 54.5896 24.8474 54.6122 24.85L60.0461 25.4476C60.7273 25.5223 61.2207 26.1373 61.1458 26.8183ZM19.785 24.9968C18.4371 25.3547 15.8934 26.6325 14.9054 27.3618C14.4759 27.6789 14.3847 28.2841 14.7018 28.7138C14.8914 28.9705 15.1839 29.1064 15.4804 29.1064C15.6798 29.1064 15.881 29.0449 16.0537 28.9174C16.866 28.3179 19.1895 27.1554 20.2813 26.8656C20.7973 26.7286 21.1046 26.1992 20.9676 25.6831C20.8306 25.1672 20.301 24.86 19.785 24.9968ZM64.5869 19.7367C64.1622 19.4132 63.5555 19.4955 63.2321 19.9204L61.5753 22.097C61.2519 22.5219 61.3341 23.1286 61.7591 23.4518C61.9339 23.585 62.1398 23.6495 62.3438 23.6495C62.6354 23.6495 62.9236 23.5181 63.1139 23.2682L64.7707 21.0915C65.094 20.6666 65.0119 20.0601 64.5869 19.7367ZM44.8165 23.6666C45.9367 23.5187 48.5276 23.7079 49.5068 23.9526C49.5855 23.9724 49.6644 23.9818 49.742 23.9818C50.1751 23.9818 50.5693 23.6885 50.6793 23.2492C50.8087 22.7313 50.4939 22.2064 49.9759 22.0768C48.7845 21.7789 45.9455 21.5666 44.5634 21.7495C44.034 21.8195 43.6615 22.3054 43.7315 22.8346C43.8014 23.3642 44.2891 23.7361 44.8165 23.6666ZM50.9638 21.2489C51.1546 21.4601 51.4177 21.5676 51.6814 21.5676C51.9125 21.5676 52.1443 21.4853 52.3291 21.3182C52.7254 20.9602 52.7565 20.349 52.3985 19.9527L50.7923 18.1747C50.4344 17.7783 49.823 17.7476 49.4268 18.1054C49.0306 18.4633 48.9995 19.0747 49.3575 19.4709L50.9638 21.2489ZM19.0283 23.6666C19.5558 23.7361 20.0435 23.3642 20.1135 22.8348C20.1835 22.3055 19.8109 21.8196 19.2816 21.7496C17.8989 21.567 15.0603 21.779 13.869 22.0769C13.351 22.2064 13.0362 22.7314 13.1656 23.2493C13.2756 23.6886 13.6696 23.9819 14.1029 23.9819C14.1806 23.9819 14.2595 23.9725 14.3381 23.9528C15.3173 23.7079 17.9084 23.5185 19.0283 23.6666ZM41.123 20.9475C41.6571 20.9475 42.0898 20.5146 42.0898 19.9807V18.4534C42.0898 17.9195 41.6571 17.4866 41.123 17.4866C40.589 17.4866 40.1562 17.9195 40.1562 18.4534V19.9807C40.1563 20.5146 40.589 20.9475 41.123 20.9475ZM32.76 22.9981L31.1435 22.5548C30.628 22.4134 30.0967 22.7166 29.9555 23.2314C29.8143 23.7464 30.1172 24.2783 30.6322 24.4195L32.2485 24.8628C32.4504 24.9183 32.6526 24.9451 32.851 24.9451C33.6327 24.9451 34.3537 24.5289 34.7528 23.8066C35.2529 22.901 35.0764 21.8231 34.3137 21.1246C34.3075 21.1189 34.291 21.1038 34.291 21.0732C34.291 21.0425 34.3075 21.0274 34.3136 21.0217C35.0764 20.3231 35.2529 19.2451 34.7528 18.3397C34.2525 17.4342 33.246 17.0095 32.2486 17.2833L30.6322 17.7266C30.1172 17.8679 29.8143 18.3998 29.9555 18.9148C30.0967 19.4296 30.6288 19.7325 31.1435 19.5914L32.7601 19.1481C32.8095 19.1345 32.9601 19.0934 33.0602 19.2747C33.1604 19.456 33.0454 19.5613 33.0075 19.596C32.5944 19.9745 32.3574 20.5129 32.3574 21.0733C32.3574 21.6336 32.5944 22.1721 33.0076 22.5507C33.0454 22.5852 33.1605 22.6907 33.0602 22.872C32.9599 23.0528 32.8095 23.0118 32.76 22.9981Z" fill="#151515"/>
</svg>
