<svg width="68" height="68" viewBox="0 0 68 68" fill="none" xmlns="http://www.w3.org/2000/svg">
<g clip-path="url(#clip0_20_666)">
<path d="M22.9602 55.7291C21.8739 55.7292 20.7454 55.5035 19.5634 55.0532C14.0355 52.9474 9.15367 52.6785 6.50459 54.3344C5.57211 54.9173 4.34307 54.6339 3.76002 53.701C3.17711 52.7683 3.46053 51.5395 4.3934 50.9564C8.14894 48.6091 14.1951 48.7456 20.9813 51.3307C24.3122 52.5996 25.9373 50.8467 29.0106 47.0834L29.1238 46.9448C29.8197 46.093 31.0744 45.9665 31.9261 46.6625C32.778 47.3584 32.9044 48.6131 32.2085 49.4648L32.0958 49.6027C30.5464 51.5 29.0831 53.2919 27.1947 54.4681C25.8438 55.3095 24.4413 55.7291 22.9602 55.7291Z" fill="#EDA751"/>
<path opacity="0.2" d="M31.9261 46.6626C31.0742 45.9668 29.8195 46.0933 29.1237 46.945L29.0106 47.0835C26.4036 50.2758 24.8384 52.0204 22.3904 51.7022C22.2549 52.8512 22.2881 54.5858 22.8866 55.7269C22.911 55.7272 22.9358 55.7288 22.9603 55.7288C24.4415 55.7287 25.8439 55.3091 27.1945 54.4681C29.0829 53.292 30.5463 51.5 32.0957 49.6027L32.2083 49.4648C32.9042 48.6134 32.7778 47.3586 31.9261 46.6626Z" fill="#A35F00"/>
<path d="M7.48355 49.6943C6.33552 49.972 5.29746 50.3916 4.3934 50.9567C3.46053 51.5398 3.17711 52.7685 3.76002 53.7013C4.34307 54.6342 5.57211 54.9176 6.50459 54.3347C7.15763 53.9264 7.94693 53.6358 8.84767 53.4601C8.84275 51.7667 8.26343 50.5172 7.48355 49.6943Z" fill="#FCD79D"/>
<path d="M50.9862 65.3285C50.6337 65.3285 50.2752 65.2697 49.9241 65.1455C48.2647 64.5589 47.3952 62.7383 47.9817 61.0791C48.5339 59.5169 48.0643 57.3166 46.8892 55.9607C46.2528 55.2264 45.579 54.9244 44.8866 55.0628C43.1618 55.4077 41.4824 54.2883 41.1375 52.5623C40.7926 50.8364 41.9122 49.1581 43.6379 48.8132C46.6125 48.2191 49.5526 49.3027 51.7055 51.7866C54.3911 54.8851 55.3092 59.4731 53.9907 63.2031C53.5281 64.5112 52.2988 65.3285 50.9862 65.3285Z" fill="#EDA751"/>
<path d="M30.4284 67.005C29.3825 67.005 28.3581 66.4907 27.7485 65.5468C23.8388 59.493 26.5407 55.2184 27.9924 52.9218C28.262 52.4954 28.5166 52.0925 28.6774 51.7709C29.4646 50.1968 31.3787 49.559 32.9527 50.3458C34.5267 51.1328 35.1648 53.0469 34.3777 54.621C34.0741 55.2281 33.721 55.7867 33.3795 56.3271C32.0627 58.4104 31.4017 59.4561 33.1022 62.0892C34.057 63.5677 33.6325 65.5401 32.1542 66.4949C31.6199 66.84 31.0206 67.005 30.4284 67.005Z" fill="#EDA751"/>
<path d="M23.3965 47.2297C21.1777 47.3781 18.7705 47.0204 16.3451 46.1605C12.8743 44.93 9.84389 42.8082 8.23859 40.4847C7.23824 39.0367 7.60109 37.0521 9.04914 36.0517C10.4976 35.0512 12.4819 35.4144 13.4822 36.8623C15.1389 39.2602 21.1292 41.9417 24.8339 40.4776C26.4702 39.83 28.3217 40.6326 28.9689 42.2692C29.6161 43.9059 28.8139 45.757 27.1772 46.4042C26.0116 46.865 24.7384 47.14 23.3965 47.2297Z" fill="#EDA751"/>
<path opacity="0.2" d="M24.8338 40.4775C23.6333 40.9519 22.1928 40.9892 20.7377 40.7438C20.475 41.8675 20.3353 43.0338 20.3353 44.2305C20.3353 45.2303 20.4327 46.2091 20.6177 47.1595C21.5673 47.2654 22.4975 47.2898 23.3965 47.2297C24.7385 47.14 26.0117 46.8649 27.1772 46.404C28.8138 45.7568 29.616 43.9055 28.9688 42.269C28.3219 40.6325 26.4701 39.8299 24.8338 40.4775Z" fill="#A35F00"/>
<path opacity="0.2" d="M32.9528 50.3455C31.3787 49.5587 29.4647 50.1966 28.6775 51.7706C28.5167 52.0923 28.2621 52.4951 27.9925 52.9215C27.4363 53.8016 26.6966 54.9724 26.2156 56.4221C27.9136 57.8256 29.9054 58.9221 32.0928 59.6168C32.0045 58.5038 32.5665 57.6129 33.3796 56.3269C33.7212 55.7866 34.0742 55.2278 34.3778 54.6208C35.1649 53.0467 34.5269 51.1327 32.9528 50.3455Z" fill="#A35F00"/>
<path opacity="0.2" d="M52.3794 52.6481C52.1687 52.3504 51.9443 52.0623 51.7053 51.7866C49.5524 49.3026 46.6125 48.2191 43.6378 48.8132C41.912 49.1581 40.7927 50.8367 41.1374 52.5623C41.4824 54.2884 43.1619 55.4077 44.8866 55.0628C45.5791 54.9244 46.2527 55.2264 46.8892 55.9607C47.2418 56.3677 47.5294 56.8514 47.7465 57.3704C49.603 56.102 51.1823 54.4961 52.3794 52.6481Z" fill="#A35F00"/>
<path d="M37.6117 57.8874C45.7291 57.8874 52.3096 51.773 52.3096 44.2306C52.3096 36.6881 45.7291 30.5737 37.6117 30.5737C29.4942 30.5737 22.9137 36.6881 22.9137 44.2306C22.9137 51.773 29.4942 57.8874 37.6117 57.8874Z" fill="#FCD690"/>
<path opacity="0.15" d="M31.3194 40.2657C28.7614 39.9434 26.3627 39.4112 24.1912 38.6584C23.3715 40.3603 22.9137 42.2454 22.9137 44.2307C22.9137 51.7735 29.494 57.8882 37.6113 57.8882C37.7773 57.8882 37.9424 57.8848 38.107 57.8796C27.1026 52.1885 30.425 44.2221 31.3194 40.2657Z" fill="#C17A00"/>
<path d="M28.667 20.5487C31.5429 18.1353 33.4633 14.0843 29.4067 8.09552C25.3179 2.05959 19.2306 0.546718 14.4781 1.10652C13.3065 1.24452 12.3234 2.06941 11.9839 3.19938C10.6073 7.78234 11.0403 14.0399 16.2746 19.1147C21.4679 24.1495 25.791 22.962 28.667 20.5487Z" fill="#EDA751"/>
<path d="M11.7929 3.90063C10.6642 8.4067 11.3024 14.2939 16.2748 19.1146C20.7762 23.4787 24.623 23.1668 27.4411 21.4352C25.5028 8.2776 17.0362 4.78862 11.7929 3.90063Z" fill="#FF91AB"/>
<path d="M46.5559 20.5488C43.68 18.1355 41.7597 14.0844 45.8162 8.09564C49.9049 2.05971 55.9923 0.546713 60.7448 1.10652C61.9164 1.24451 62.8995 2.06941 63.239 3.19938C64.6157 7.78234 64.1826 14.0399 58.9483 19.1147C53.7548 24.1496 49.4318 22.9621 46.5559 20.5488Z" fill="#EDA751"/>
<path d="M63.4302 3.90063C64.5589 8.4067 63.9207 14.2939 58.9483 19.1146C54.447 23.4787 50.6001 23.1668 47.782 21.4352C49.7201 8.2776 58.1868 4.78862 63.4302 3.90063Z" fill="#FF91AB"/>
<path d="M62.6339 24.1913C62.6339 35.6323 51.4309 40.6433 37.6114 40.6433C23.7919 40.6433 12.589 35.6321 12.589 24.1913C12.589 12.7504 23.7919 3.47559 37.6114 3.47559C51.4309 3.47559 62.6339 12.7503 62.6339 24.1913Z" fill="#FFDC9C"/>
<path opacity="0.15" d="M12.589 24.1911C12.589 33.8329 20.5457 38.9078 31.3195 40.2655C16.5368 32.3392 17.9763 15.5394 24.5043 6.54272C17.3552 10.1896 12.589 16.7292 12.589 24.1911Z" fill="#C17A00"/>
<path d="M25.3321 28.2827C27.834 28.2827 29.8622 26.6672 29.8622 24.6743C29.8622 22.6814 27.834 21.0659 25.3321 21.0659C22.8302 21.0659 20.802 22.6814 20.802 24.6743C20.802 26.6672 22.8302 28.2827 25.3321 28.2827Z" fill="#FF91AB"/>
<path d="M49.89 28.2827C52.3919 28.2827 54.4201 26.6672 54.4201 24.6743C54.4201 22.6814 52.3919 21.0659 49.89 21.0659C47.3881 21.0659 45.3599 22.6814 45.3599 24.6743C45.3599 26.6672 47.3881 28.2827 49.89 28.2827Z" fill="#FF91AB"/>
<path d="M37.4886 27.5051C36.1218 27.4407 35.0703 26.2634 35.0703 24.8951V22.8349C35.0703 22.4548 35.2408 22.0918 35.5405 21.8578C36.1118 21.4117 36.8305 21.1455 37.6115 21.1455C38.3926 21.1455 39.1113 21.4115 39.6826 21.8578C39.9822 22.0918 40.1528 22.4548 40.1528 22.8349V24.9669C40.1525 26.411 38.9478 27.5738 37.4886 27.5051Z" fill="#FF91AB"/>
<path d="M61.7607 27.1353C60.0149 26.9116 58.419 28.1464 58.1959 29.8921C57.7171 33.6375 54.0172 37.0653 51.0338 38.658L51.0334 38.6582C51.8529 40.36 52.3091 42.2456 52.3091 44.2305C52.3091 44.4202 52.3038 44.6088 52.2956 44.7966C57.0267 42.7474 63.6242 37.6894 64.5176 30.7003C64.7406 28.9546 63.5065 27.3584 61.7607 27.1353Z" fill="#EDA751"/>
<path opacity="0.2" d="M54.6746 43.5886C54.6446 40.269 53.385 38.8352 54.2579 36.3782C53.2077 37.3192 52.0771 38.1011 51.0338 38.6582L51.0334 38.6584C51.8529 40.3602 52.3091 42.2458 52.3091 44.2307C52.3091 44.4204 52.3038 44.609 52.2956 44.7968C53.0511 44.4695 53.8545 44.0651 54.6746 43.5886Z" fill="#A35F00"/>
<path d="M27.9733 17.6196C26.2459 17.6196 24.8408 19.0249 24.8408 20.7521C24.8408 21.3022 25.2868 21.7482 25.8369 21.7482C26.387 21.7482 26.833 21.3022 26.833 20.7521C26.833 20.1233 27.3446 19.6117 27.9734 19.6117C28.6023 19.6117 29.1139 20.1233 29.1139 20.7521C29.1139 21.3022 29.5599 21.7482 30.11 21.7482C30.6601 21.7482 31.1061 21.3022 31.1061 20.7521C31.1057 19.0249 29.7005 17.6196 27.9733 17.6196ZM24.9011 26.3454C23.4905 26.7198 20.8288 28.0569 19.795 28.8201C19.3523 29.1468 19.2584 29.7705 19.5851 30.213C19.7805 30.4776 20.0818 30.6176 20.3873 30.6176C20.5928 30.6176 20.8001 30.5542 20.9781 30.4229C21.8299 29.794 24.267 28.5748 25.4123 28.2708C25.9439 28.1296 26.2605 27.5841 26.1195 27.0525C25.9783 26.5208 25.4327 26.2046 24.9011 26.3454ZM64.6654 27.7375C64.3279 27.3011 63.9162 26.9428 63.4526 26.6745C63.5704 25.8715 63.6299 25.0394 63.6299 24.1912C63.6299 21.6547 63.1132 19.1867 62.1227 16.8693C64.8747 12.7569 65.632 7.70475 64.1927 2.91288C63.7382 1.39948 62.4304 0.302181 60.8612 0.117306C56.0857 -0.445421 51.3855 1.04806 47.8612 4.22254C44.6642 3.08035 41.1926 2.47911 37.6115 2.47911C34.0303 2.47911 30.5586 3.08022 27.3618 4.22254C23.8374 1.04792 19.1367 -0.445421 14.3616 0.117173C12.7924 0.302314 11.4847 1.39948 11.0301 2.91288C9.59071 7.70462 10.3483 12.7568 13.1001 16.8693C12.1095 19.1867 11.593 21.6547 11.593 24.1912C11.593 31.1699 15.548 36.3856 22.8558 39.2313C22.7701 39.4512 22.6907 39.6727 22.6166 39.8957C19.3142 39.9903 15.3951 37.8787 14.3017 36.2961C12.9908 34.3987 10.3808 33.9214 8.48292 35.2323C6.58543 36.5433 6.10823 39.1534 7.41909 41.0511C9.13901 43.5406 12.3513 45.8016 16.0121 47.0995C18.1841 47.8695 20.3245 48.2581 22.3896 48.258C22.4331 48.258 22.4763 48.2565 22.5197 48.2561C22.7778 49.0986 23.1155 49.9098 23.5235 50.6833C22.8786 50.8207 22.1906 50.7262 21.3356 50.4004C14.2551 47.7032 7.88752 47.5982 3.86529 50.1123C3.18848 50.5353 2.71686 51.1965 2.53743 51.9741C2.35801 52.7517 2.49215 53.5527 2.91502 54.2294C3.3379 54.9062 3.99917 55.3778 4.77705 55.5572C5.55467 55.7364 6.35566 55.6024 7.03221 55.1795C9.38259 53.7103 14.0483 54.0187 19.2086 55.9845C20.4995 56.4763 21.7612 56.7254 22.959 56.7254H22.96C23.7052 56.7254 24.4398 56.6277 25.1597 56.4362C24.4803 58.7575 24.341 62.1069 26.9118 66.0873C27.6859 67.2856 29.0005 68.0012 30.4283 68.0012C31.2329 68.0012 32.0165 67.7697 32.6946 67.3317C33.6332 66.7256 34.2795 65.7902 34.5146 64.6979C34.7495 63.6057 34.5451 62.4873 33.939 61.5489C32.9202 59.9714 32.9213 59.2218 33.3503 58.3353C34.7058 58.6928 36.1351 58.8844 37.6114 58.8844C40.7309 58.8844 43.6405 58.0299 46.0867 56.5588C46.1034 56.5771 46.12 56.594 46.1366 56.6132C47.0796 57.7012 47.4776 59.517 47.0426 60.7473C46.2739 62.9217 47.4177 65.316 49.5921 66.0847C50.0426 66.2441 50.5116 66.3249 50.9864 66.3249C52.7553 66.3249 54.3399 65.2039 54.9297 63.5357C54.9847 63.3803 55.0372 63.2204 55.0855 63.0606C55.2449 62.5341 54.9472 61.9781 54.4208 61.8185C53.8944 61.6592 53.3382 61.9567 53.1787 62.4833C53.1391 62.6138 53.0964 62.7444 53.0515 62.8713C52.7424 63.7454 51.9125 64.3327 50.9862 64.3327C50.7384 64.3327 50.4928 64.2903 50.256 64.2065C49.1172 63.804 48.5183 62.5499 48.9209 61.4112C49.5792 59.5489 49.0771 57.0559 47.7321 55.4204C48.8988 54.499 49.9199 53.4219 50.7583 52.2236C50.8238 52.2947 50.8892 52.366 50.9526 52.4392C52.3448 54.0454 53.2545 56.1421 53.5143 58.3435C53.5741 58.8503 54.0044 59.223 54.5023 59.223C54.5414 59.223 54.5807 59.2207 54.6203 59.2161C55.1666 59.1517 55.5572 58.6564 55.4927 58.1102C55.1866 55.5165 54.1089 53.0392 52.4582 51.1346C52.2535 50.8984 52.0388 50.672 51.817 50.4551C52.5934 48.9165 53.0913 47.2324 53.2496 45.4594C55.8853 44.2286 58.5204 42.3716 60.5563 40.2995C63.368 37.4379 65.0794 34.1623 65.5057 30.827C65.6473 29.7183 65.3488 28.6214 64.6654 27.7375ZM22.0691 46.2602C20.334 46.2181 18.4927 45.8652 16.6781 45.2218C13.3975 44.0587 10.549 42.0762 9.05826 39.9186C8.37176 38.9247 8.62171 37.5577 9.61528 36.8714C10.6094 36.1849 11.9764 36.4349 12.6627 37.4285C14.129 39.5509 18.3933 41.7546 22.1177 41.8803C21.9848 42.6516 21.9176 43.436 21.9176 44.2307C21.9178 44.9192 21.9702 45.5966 22.0691 46.2602ZM61.0748 14.7766C59.805 12.5754 58.0808 10.5479 55.9403 8.77575C55.7948 8.65542 55.6478 8.53682 55.4997 8.41968C57.9168 6.47796 60.5627 5.52795 62.6601 5.06537C63.078 7.37989 63.1841 11.0364 61.0748 14.7766ZM60.6282 2.09581C61.2828 2.17284 61.8447 2.56995 62.1426 3.13985C59.7062 3.6881 56.6174 4.83295 53.8356 7.21162C52.6124 6.39509 51.3134 5.67763 49.9526 5.0647C52.9501 2.71525 56.7608 1.64 60.6282 2.09581ZM14.5947 2.09581C18.4622 1.64 22.2727 2.71525 25.2703 5.0647C23.9094 5.67763 22.6103 6.39495 21.3872 7.21162C18.6055 4.83295 15.5167 3.6881 13.0802 3.13985C13.3783 2.56995 13.9402 2.17298 14.5947 2.09581ZM12.5629 5.06537C14.6604 5.52795 17.3063 6.47809 19.7234 8.41968C19.5752 8.53682 19.4281 8.65529 19.2827 8.77575C17.1422 10.5479 15.418 12.5754 14.1482 14.7766C12.0388 11.0364 12.145 7.37989 12.5629 5.06537ZM22.9601 54.733H22.9593C22.0047 54.733 20.9814 54.5275 19.9181 54.1225C14.0134 51.8733 8.93183 51.6427 5.97661 53.4899C5.75136 53.6308 5.48454 53.6754 5.22529 53.6156C4.96618 53.5559 4.74584 53.3988 4.60479 53.1731C4.46388 52.9476 4.41926 52.6808 4.47902 52.4217C4.53879 52.1625 4.6959 51.9422 4.92155 51.8013C8.41014 49.6208 14.1346 49.7887 20.6268 52.2618C22.1099 52.8267 23.3992 52.8862 24.6149 52.4353C25.0201 52.993 25.4657 53.5232 25.947 54.0227C24.9793 54.4992 23.9969 54.733 22.9601 54.733ZM32.567 64.2786C32.4439 64.8506 32.1053 65.3406 31.6139 65.658C31.2587 65.8875 30.8487 66.0088 30.4285 66.0088C29.6798 66.0088 28.9908 65.634 28.5854 65.0063C25.9697 60.9563 26.5327 57.8731 27.6432 55.5404C28.7905 56.4236 30.0741 57.1574 31.4592 57.7106C30.8479 59.1574 30.9184 60.5437 32.2657 62.6296C32.5831 63.121 32.6901 63.7066 32.567 64.2786ZM32.7034 41.4189C34.2766 41.5652 35.9277 41.6393 37.6114 41.6393C42.4451 41.6393 46.7689 41.0491 50.4835 39.8862C51.0335 41.2738 51.313 42.731 51.313 44.2306C51.313 51.2121 45.1664 56.892 37.6114 56.892C30.0563 56.892 23.9098 51.2121 23.9098 44.2306C23.9098 43.1664 24.0511 42.1235 24.329 41.1116C24.329 41.1115 24.329 41.1113 24.3292 41.1112C24.4426 40.6983 24.579 40.2904 24.7381 39.8885C25.7517 40.2045 26.8197 40.4805 27.9417 40.7145C28.0102 40.7288 28.0786 40.7358 28.1461 40.7358C28.6079 40.7358 29.0221 40.4128 29.1201 39.9429C29.2325 39.4043 28.887 38.8768 28.3483 38.7644C26.9918 38.4814 25.7236 38.134 24.5418 37.7266C24.5244 37.72 24.5067 37.7144 24.4892 37.7088C21.6909 36.738 19.3897 35.4217 17.6243 33.7736C14.9438 31.2713 13.5849 28.0472 13.5849 24.191C13.5849 13.3175 24.363 4.47143 37.6114 4.47143C50.8597 4.47143 61.6378 13.3175 61.6378 24.191C61.6378 24.8483 61.5969 25.4926 61.5176 26.1169C60.5373 26.0774 59.5835 26.3798 58.7979 26.9871C57.9141 27.6706 57.3494 28.6575 57.2077 29.7657C56.8085 32.8885 53.6106 36.1281 50.6328 37.7412C46.9539 39.0055 42.5739 39.6471 37.6112 39.6471C35.9888 39.6471 34.3996 39.5758 32.8875 39.4354C32.341 39.3849 31.8545 39.7873 31.8035 40.3351C31.7529 40.8828 32.1557 41.3679 32.7034 41.4189ZM63.5296 30.5739C62.7423 36.7336 57.2229 41.141 53.2678 43.2241C53.1649 41.7969 52.8426 40.4076 52.3047 39.0748C53.7537 38.1855 55.1745 37.0052 56.2974 35.7449C57.9431 33.8979 58.9412 31.9178 59.1838 30.0186C59.2581 29.4381 59.5538 28.9213 60.0167 28.5632C60.4794 28.2053 61.0537 28.049 61.6345 28.1233C61.7745 28.1413 61.9105 28.1726 62.0418 28.2155C62.0469 28.2171 62.0522 28.2184 62.0572 28.2199C62.4639 28.3562 62.8214 28.6092 63.0897 28.9561C63.4475 29.4191 63.6037 29.9935 63.5296 30.5739ZM55.428 28.8201C54.3943 28.0569 51.7325 26.7199 50.3219 26.3454C49.7904 26.2047 49.2448 26.5208 49.1036 27.0526C48.9624 27.5843 49.2791 28.1297 49.8108 28.2709C50.9561 28.5749 53.3932 29.7941 54.2451 30.423C54.423 30.5543 54.6303 30.6177 54.8358 30.6177C55.1411 30.6177 55.4426 30.4777 55.638 30.2131C55.9646 29.7704 55.8706 29.1468 55.428 28.8201ZM45.1133 21.7483C45.6634 21.7483 46.1094 21.3024 46.1094 20.7523C46.1094 20.1234 46.6211 19.6118 47.2498 19.6118C47.8787 19.6118 48.3903 20.1234 48.3903 20.7523C48.3903 21.3024 48.8363 21.7483 49.3864 21.7483C49.9365 21.7483 50.3825 21.3024 50.3825 20.7523C50.3825 19.0249 48.9772 17.6197 47.25 17.6197C45.5227 17.6197 44.1174 19.025 44.1174 20.7523C44.1172 21.3024 44.5632 21.7483 45.1133 21.7483ZM49.9986 24.0621C50.0708 24.6075 50.572 24.9915 51.1167 24.9191C52.2915 24.7639 55.0091 24.9625 56.0363 25.2193C56.1175 25.2396 56.1986 25.2493 56.2787 25.2493C56.7249 25.2493 57.1311 24.9471 57.2442 24.4945C57.3777 23.9607 57.0532 23.4201 56.5195 23.2866C55.2728 22.9749 52.3023 22.7527 50.8557 22.9441C50.3104 23.0163 49.9267 23.5169 49.9986 24.0621ZM24.1062 24.9191C24.6518 24.9911 25.1522 24.6075 25.2242 24.0621C25.2962 23.5166 24.9125 23.0162 24.3672 22.9441C22.9203 22.7531 19.95 22.9749 18.7034 23.2866C18.1697 23.4199 17.8451 23.9609 17.9786 24.4945C18.0918 24.9471 18.4979 25.2493 18.9442 25.2493C19.0241 25.2493 19.1054 25.2396 19.1865 25.2193C20.2137 24.9625 22.9317 24.7637 24.1062 24.9191ZM37.4418 28.4999C37.4995 28.5027 37.5569 28.504 37.6143 28.504C38.5279 28.504 39.3883 28.1604 40.0528 27.5262C40.7493 26.8618 41.1487 25.9289 41.1487 24.9665V22.8345C41.1487 22.1482 40.8298 21.4895 40.2955 21.0722C39.522 20.4683 38.5939 20.149 37.6114 20.149C36.6289 20.149 35.7007 20.4683 34.9275 21.0722C34.3932 21.4894 34.0743 22.1481 34.0743 22.8345V24.8948C34.0743 26.8275 35.5534 28.4109 37.4418 28.4999ZM36.0663 22.8348C36.0663 22.7571 36.0989 22.6853 36.1533 22.6428C36.5733 22.3149 37.0774 22.1416 37.6114 22.1416C38.1453 22.1416 38.6494 22.3149 39.0694 22.6427C39.124 22.6853 39.1565 22.7571 39.1565 22.8348V24.9668C39.1565 25.3934 38.9865 25.7904 38.6777 26.0851C38.3692 26.3792 37.9636 26.5303 37.5355 26.5102C36.7254 26.472 36.0663 25.7476 36.0663 24.8952V22.8348Z" fill="#151515"/>
</g>
<defs>
<clipPath id="clip0_20_666">
<rect width="68" height="68" fill="white" transform="translate(0 0.000976562)"/>
</clipPath>
</defs>
</svg>
