<svg width="66" height="66" viewBox="0 0 66 66" fill="none" xmlns="http://www.w3.org/2000/svg">
<g clip-path="url(#clip0_716_16892)">
<path d="M31.032 65.0327C30.8438 65.0327 30.6527 65.0124 30.4613 64.9702C29.0389 64.6563 28.1404 63.2489 28.4542 61.8265C29.0572 59.0936 29.0356 56.7635 28.3838 54.2712C28.0153 52.862 28.859 51.4209 30.2682 51.0525C31.6772 50.684 33.1184 51.5277 33.4868 52.9369C34.349 56.2345 34.3865 59.4204 33.6047 62.9631C33.3331 64.194 32.2426 65.0327 31.032 65.0327Z" fill="#EDA751"/>
<path d="M38.9411 65.0326C38.7528 65.0326 38.5619 65.0123 38.3703 64.97C36.948 64.6562 36.0495 63.2486 36.3633 61.8264C36.9664 59.0935 36.9446 56.7634 36.293 54.2712C35.9245 52.8621 36.768 51.4209 38.1772 51.0525C39.5861 50.684 41.0274 51.5275 41.3958 52.9367C42.2582 56.2344 42.2957 59.4203 41.5139 62.9631C41.2423 64.1939 40.1515 65.0326 38.9411 65.0326Z" fill="#EDA751"/>
<path d="M11.816 56.445C11.47 56.445 11.1214 56.3366 10.8241 56.1121C10.0976 55.5634 9.95334 54.5299 10.502 53.8034C12.7147 50.8728 17.1836 50.4356 21.887 52.6894C23.6821 53.5494 25.3908 53.1957 27.8966 48.6745C28.3379 47.8784 29.3411 47.5905 30.1373 48.0319C30.9336 48.4731 31.2213 49.4763 30.7799 50.2725C29.8609 51.9305 27.4003 56.3696 23.3439 56.37C22.4593 56.37 21.4994 56.1591 20.4626 55.6622C17.2857 54.1401 14.3401 54.1913 13.1329 55.7898C12.8086 56.2191 12.3153 56.445 11.816 56.445Z" fill="#EDA751"/>
<path d="M12.0415 52.375C11.4525 52.7557 10.9336 53.2313 10.5015 53.8035C9.95284 54.53 10.0971 55.5636 10.8237 56.1122C11.1211 56.3368 11.4698 56.4452 11.8157 56.4452C12.3149 56.4452 12.8082 56.2192 13.1323 55.7901C13.3985 55.4377 13.7492 55.1606 14.1683 54.9589C13.7987 53.804 12.8414 52.8193 12.0415 52.375Z" fill="#FCD79D"/>
<path d="M20.3312 48.1577C17.8296 48.1577 15.0602 47.6051 12.712 45.6933C11.5825 44.7737 11.4123 43.1126 12.332 41.983C13.2516 40.8534 14.9128 40.6834 16.0422 41.603C18.6243 43.7054 22.9044 42.6965 24.9613 42.2117C26.379 41.8774 27.7992 42.7559 28.1332 44.1735C28.4673 45.5912 27.589 47.0112 26.1713 47.3455C24.8742 47.6512 22.7252 48.1577 20.3312 48.1577Z" fill="#EDA751"/>
<path d="M9.1676 24.5869L2.60104 27.1504C1.98088 27.3925 1.6969 28.1105 1.98371 28.7113L5.10606 35.2529C5.36284 35.7908 5.99125 36.0394 6.54657 35.8227L7.3307 35.5165C7.6531 35.3906 8.01532 35.5602 8.12515 35.8884L11.4356 45.7854C11.8058 46.892 13.0117 47.518 14.1096 47.1224C15.2454 46.7131 15.7861 45.4277 15.2954 44.3334L11.0039 34.7646C10.8622 34.4488 11.0137 34.0787 11.3362 33.9528L12.1417 33.6384C12.697 33.4215 12.9908 32.813 12.8151 32.2434L10.6795 25.3166C10.4831 24.6805 9.78777 24.3448 9.1676 24.5869Z" fill="#7694E4"/>
<g opacity="0.1">
<path d="M7.00157 33.6063C6.62362 33.6063 6.26462 33.3833 6.10942 33.0128L4.55869 29.31C4.35244 28.8176 4.58447 28.251 5.07702 28.0448C5.56957 27.8385 6.13598 28.0706 6.34222 28.5631L7.89295 32.2658C8.0992 32.7583 7.86717 33.3247 7.37463 33.531C7.25268 33.5822 7.1261 33.6063 7.00157 33.6063Z" fill="#151515"/>
<path d="M9.65022 32.5721C9.25487 32.5721 8.88375 32.3279 8.74131 31.9346L7.37311 28.1606C7.1911 27.6587 7.45045 27.1042 7.95254 26.9222C8.45437 26.7401 9.00905 26.9997 9.19093 27.5017L10.559 31.2756C10.741 31.7776 10.4815 32.332 9.97957 32.514C9.87091 32.5534 9.75953 32.5721 9.65022 32.5721Z" fill="#151515"/>
</g>
<path d="M48.2489 49.1524C46.4695 49.1524 44.8526 48.8497 43.7016 48.4297C42.3333 47.9304 41.629 46.4164 42.1283 45.0482C42.6277 43.6798 44.142 42.9756 45.5099 43.4749C47.4336 44.1769 51.2992 44.1103 53.2566 42.1528C54.2866 41.1229 55.9563 41.1229 56.9862 42.1528C58.0162 43.1828 58.0162 44.8525 56.9862 45.8824C54.5329 48.3359 51.1718 49.1524 48.2489 49.1524Z" fill="#EDA751"/>
<path d="M63.6679 33.3501C64.5951 30.7447 64.1314 27.5105 62.3636 26.8814C60.5958 26.2523 58.1932 28.4664 57.266 31.0719C56.8105 32.3514 56.9846 33.6815 57.6216 34.6454C57.774 34.876 57.8055 35.1655 57.7001 35.421L53.6063 45.3433C53.1612 46.4222 53.6627 47.6849 54.7514 48.1049C55.8778 48.5394 57.1283 47.9224 57.4741 46.7739L60.5837 36.4472C60.6634 36.1826 60.8708 35.978 61.1345 35.8955C62.2374 35.5509 63.2126 34.6298 63.6679 33.3501Z" fill="#78CFC0"/>
<path opacity="0.2" d="M49.5312 43.7896C48.0265 43.9952 46.5072 43.8389 45.5099 43.475C44.142 42.9757 42.6277 43.68 42.1283 45.0482C41.6289 46.4164 42.3334 47.9304 43.7016 48.4298C44.8525 48.8498 46.4695 49.1525 48.2489 49.1525C48.6329 49.1525 49.0245 49.1379 49.4205 49.1079C49.6373 48.1652 49.7526 47.1873 49.7526 46.1843C49.7527 45.3677 49.6764 44.5677 49.5312 43.7896Z" fill="#C18F00"/>
<path opacity="0.2" d="M30.1366 48.0321C29.3405 47.5908 28.3372 47.8786 27.8959 48.6747C25.5559 52.8969 23.9109 53.4843 22.2417 52.8431C22.9592 54.0645 23.8673 55.1734 24.9285 56.1337C28.0475 55.1967 29.987 51.7023 30.7792 50.2729C31.2206 49.4765 30.9329 48.4734 30.1366 48.0321Z" fill="#C18F00"/>
<path opacity="0.2" d="M24.9612 42.2116C23.9637 42.4468 22.4432 42.8042 20.8474 42.8712C20.5684 43.933 20.4194 45.0425 20.4194 46.1844C20.4194 46.8533 20.4713 47.5109 20.5695 48.1546C22.8671 48.1226 24.9176 47.641 26.1713 47.3454C27.589 47.0113 28.4674 45.5911 28.1331 44.1734C27.799 42.7557 26.3789 41.8773 24.9612 42.2116Z" fill="#C18F00"/>
<path d="M35.0859 57.4878C41.8036 57.4878 47.2494 52.4269 47.2494 46.1841C47.2494 39.9412 41.8036 34.8804 35.0859 34.8804C28.3681 34.8804 22.9224 39.9412 22.9224 46.1841C22.9224 52.4269 28.3681 57.4878 35.0859 57.4878Z" fill="#FCD690"/>
<path opacity="0.15" d="M33.3099 57.367C27.7514 53.7175 29.4741 46.2378 30.4177 42.9668V35.7444C26.0169 37.4457 22.9224 41.4789 22.9224 46.1843C22.9222 51.8659 27.434 56.5679 33.3099 57.367Z" fill="#C17A00"/>
<path d="M42.0869 58.3309C42.4985 56.2169 42.6712 52.1547 41.2106 46.3499C41.0836 45.8452 40.627 45.4929 40.1065 45.4929H30.0653C29.5449 45.4929 29.0882 45.8452 28.9612 46.3499C27.5006 52.1547 27.6733 56.2169 28.0849 58.3309C28.2551 59.2048 29.0141 59.8385 29.9044 59.8385C32.6095 59.8385 37.5622 59.8385 40.2673 59.8385C41.1577 59.8387 41.9167 59.205 42.0869 58.3309Z" fill="#82C7E6"/>
<path opacity="0.1" d="M42.087 58.3307C42.3082 57.1948 42.4599 55.4953 42.3268 53.2661C40.5662 53.5203 37.8652 53.7535 35.086 53.7535C32.3068 53.7535 29.6059 53.5202 27.8453 53.2661C27.7121 55.4954 27.8638 57.1948 28.0851 58.3307C28.2552 59.2046 29.0142 59.8383 29.9045 59.8383C32.6096 59.8383 37.5623 59.8383 40.2674 59.8383C41.1578 59.8385 41.9168 59.2048 42.087 58.3307Z" fill="#151515"/>
<path d="M27.6836 26.5848C30.0638 24.5875 31.6529 21.2348 28.2956 16.2784C24.9118 11.283 19.8738 10.0308 15.9407 10.4942C14.9711 10.6084 14.1574 11.2911 13.8765 12.2263C12.7373 16.0192 13.0955 21.1981 17.4275 25.398C21.7256 29.5648 25.3035 28.582 27.6836 26.5848Z" fill="#EDA751"/>
<path d="M13.7183 12.8066C12.7842 16.5359 13.3123 21.4082 17.4275 25.398C21.1529 29.0098 24.3366 28.7517 26.6689 27.3184C25.0649 16.4291 18.0577 13.5415 13.7183 12.8066Z" fill="#FF91AB"/>
<path d="M42.4886 26.5848C40.1083 24.5875 38.5192 21.2348 41.8764 16.2784C45.2601 11.283 50.2982 10.0308 54.2313 10.4942C55.2009 10.6084 56.0146 11.2911 56.2955 12.2263C57.4347 16.0192 57.0765 21.1981 52.7445 25.398C48.4466 29.5648 44.8688 28.582 42.4886 26.5848Z" fill="#EDA751"/>
<path d="M56.454 12.8066C57.3881 16.5359 56.8599 21.4082 52.7448 25.398C49.0194 29.0098 45.8357 28.7517 43.5034 27.3184C45.1075 16.4291 52.1147 13.5415 56.454 12.8066Z" fill="#FF91AB"/>
<path d="M55.7948 29.5994C55.7948 39.0681 46.5231 43.2152 35.086 43.2152C23.6488 43.2152 14.377 39.0681 14.377 29.5994C14.377 20.1306 23.6487 12.4548 35.0858 12.4548C46.523 12.4548 55.7948 20.1306 55.7948 29.5994Z" fill="#FFDC9C"/>
<path opacity="0.15" d="M24.0283 15.1018C18.2286 18.1401 14.377 23.497 14.377 29.5994C14.377 37.739 21.2285 41.9461 30.4173 42.9669C17.227 35.0879 18.9473 24.49 24.0283 15.1018Z" fill="#C17A00"/>
<path d="M24.9242 32.9843C26.9952 32.9843 28.674 31.6477 28.674 29.9989C28.674 28.3501 26.9952 27.0134 24.9242 27.0134C22.8532 27.0134 21.1743 28.3501 21.1743 29.9989C21.1743 31.6477 22.8532 32.9843 24.9242 32.9843Z" fill="#FF91AB"/>
<path d="M45.2489 32.9843C47.3199 32.9843 48.9987 31.6477 48.9987 29.9989C48.9987 28.3501 47.3199 27.0134 45.2489 27.0134C43.1779 27.0134 41.499 28.3501 41.499 29.9989C41.499 31.6477 43.1779 32.9843 45.2489 32.9843Z" fill="#FF91AB"/>
<path d="M49.4952 7.81347C49.4952 4.86953 46.8125 2.48311 43.5034 2.48311C42.5628 2.48311 41.6731 2.67621 40.8812 3.02C40.4278 3.21684 39.9041 3.09605 39.5537 2.74724C38.4568 1.65489 36.8622 0.966797 35.0861 0.966797C33.3101 0.966797 31.7155 1.65489 30.6187 2.74711C30.2684 3.09592 29.7447 3.21671 29.2912 3.01987C28.4992 2.67608 27.6095 2.48298 26.669 2.48298C23.3599 2.48298 20.6772 4.86953 20.6772 7.81334C20.6772 10.2351 22.4929 12.279 24.9789 12.928C25.4184 13.0428 25.7213 13.4452 25.7213 13.8993V18.1072H44.4511V13.8993C44.4511 13.4452 44.754 13.0428 45.1935 12.928C47.6797 12.2791 49.4952 10.2352 49.4952 7.81347Z" fill="#DEE2E5"/>
<g opacity="0.1">
<path d="M31.7642 19.0269C31.2302 19.0269 30.7974 18.594 30.7974 18.0601V13.4897C30.7974 12.9558 31.2302 12.5229 31.7642 12.5229C32.2981 12.5229 32.7309 12.9558 32.7309 13.4897V18.0601C32.7309 18.594 32.2981 19.0269 31.7642 19.0269Z" fill="#151515"/>
<path d="M38.4082 19.0269C37.8743 19.0269 37.4414 18.594 37.4414 18.0601V13.4897C37.4414 12.9558 37.8743 12.5229 38.4082 12.5229C38.9421 12.5229 39.375 12.9558 39.375 13.4897V18.0601C39.375 18.594 38.9421 19.0269 38.4082 19.0269Z" fill="#151515"/>
</g>
<path d="M44.4511 15.7749C44.4511 15.7749 42.268 17.0796 35.0862 17.0796C27.9045 17.0796 25.7212 15.7749 25.7212 15.7749V18.336C25.7212 18.839 26.0414 19.2865 26.5187 19.4452C27.6817 19.8317 30.2511 20.423 35.086 20.423C39.921 20.423 42.4905 19.8316 43.6535 19.4452C44.1308 19.2867 44.451 18.839 44.451 18.336V15.7749H44.4511V15.7749Z" fill="#7694E4"/>
<path d="M62.6876 25.9705C61.5143 25.553 60.1593 25.9289 58.8714 27.0285C58.027 27.7497 57.2868 28.727 56.7586 29.7979C56.7595 29.7316 56.7615 29.6659 56.7615 29.5993C56.7615 27.5269 56.3387 25.4893 55.5261 23.5641C57.7977 20.135 58.4185 15.934 57.2213 11.9482C56.8287 10.6414 55.6995 9.6938 54.3443 9.53409C52.9432 9.36909 51.524 9.41743 50.1473 9.6715C50.3512 9.07944 50.4615 8.45464 50.4615 7.81346C50.4615 4.34114 47.34 1.51618 43.503 1.51618C42.4506 1.51618 41.4388 1.72372 40.4957 2.133C40.4171 2.16703 40.3124 2.13867 40.2355 2.06197C38.9195 0.751646 37.0426 0 35.086 0C33.1292 0 31.2522 0.751646 29.9362 2.0621C29.8593 2.13867 29.7546 2.16715 29.676 2.13312C28.733 1.72385 27.7212 1.51631 26.6687 1.51631C22.8317 1.51631 19.7102 4.34114 19.7102 7.81359C19.7102 8.45477 19.8205 9.07957 20.0244 9.67163C18.6476 9.41756 17.2285 9.36922 15.8275 9.53422C14.4724 9.69393 13.343 10.6415 12.9505 11.9484C11.7532 15.934 12.374 20.1351 14.6456 23.5643C13.8331 25.4895 13.4102 27.5271 13.4102 29.5995C13.4102 30.1371 13.4411 30.661 13.4967 31.1737L11.6032 25.0319C11.4308 24.4728 11.0297 24.0062 10.5027 23.7518C9.97576 23.4975 9.36101 23.4735 8.816 23.6865L2.24944 26.25C1.7043 26.4628 1.26834 26.897 1.0532 27.4411C0.838054 27.9852 0.859195 28.6001 1.1112 29.1279L4.23355 35.6695C4.70598 36.6592 5.87644 37.1223 6.89815 36.7233L7.32856 36.5552L10.5186 46.0921C10.7826 46.881 11.363 47.5414 12.1111 47.9038C12.5307 48.107 12.9787 48.2094 13.4275 48.2094C13.7678 48.2094 14.1085 48.1505 14.4372 48.032C14.4863 48.0144 14.5347 47.9954 14.5826 47.9753C16.2671 48.7373 18.1976 49.1245 20.3311 49.1245C20.9751 49.1245 21.6312 49.0884 22.3144 49.0192C22.588 50.0864 23.0139 51.1135 23.5753 52.0726C23.1925 52.1384 22.7946 52.0527 22.3044 51.8178C17.1678 49.3565 12.2322 49.9075 9.73007 53.2212C9.30906 53.7786 9.13053 54.4667 9.22708 55.1586C9.32363 55.8504 9.68392 56.4632 10.2413 56.8841C10.6989 57.2297 11.2434 57.4123 11.8159 57.4123C12.632 57.4123 13.4126 57.0238 13.904 56.373C14.8119 55.1708 17.3369 55.2373 20.0444 56.5346C21.1562 57.0673 22.2662 57.3374 23.3436 57.3373C24.565 57.3372 25.7453 56.9939 26.8656 56.3169C26.9112 57.0663 26.9977 57.8054 27.1361 58.5159C27.2369 59.0338 27.4771 59.4949 27.811 59.8664C27.7425 60.4339 27.644 61.011 27.51 61.6186C27.0819 63.5592 28.3123 65.4863 30.2528 65.9147C30.5091 65.9713 30.7713 65.9999 31.0319 65.9999C32.7081 65.9999 34.1871 64.8105 34.5488 63.1718C34.7248 62.3745 34.8612 61.5822 34.9575 60.8058H35.5802C35.5332 61.0712 35.4807 61.3405 35.4193 61.6186C34.9911 63.5592 36.2215 65.4864 38.1622 65.9148C38.4186 65.9712 38.6806 66 38.9411 66C40.6173 66 42.0964 64.8107 42.4581 63.1721C42.8145 61.557 43.0019 60.037 43.033 58.5289C43.0339 58.5245 43.0352 58.5204 43.0361 58.516C43.1649 57.8543 43.2893 56.9304 43.3304 55.7339C45.2828 54.2585 46.7288 52.2916 47.5222 50.1031C47.7657 50.114 48.0085 50.1195 48.2489 50.1195C50.3921 50.1195 52.4396 49.7055 54.2084 48.9207C54.2726 48.9509 54.3367 48.9815 54.4035 49.0073C54.7547 49.1428 55.1256 49.2102 55.4958 49.2102C55.9539 49.2102 56.4112 49.1071 56.8289 48.9026C57.5847 48.5328 58.1573 47.8586 58.3999 47.0531L61.4881 36.7978C62.8935 36.3346 64.046 35.1719 64.5789 33.6747C65.6289 30.7226 65.1106 26.8329 62.6876 25.9705ZM54.4955 21.5264C54.1696 20.9796 53.8111 20.445 53.418 19.9255C52.4806 18.6871 51.3708 17.5546 50.1188 16.5478C52.0052 15.0747 54.0476 14.3237 55.7021 13.9426C56.014 15.7962 56.0577 18.6198 54.4955 21.5264ZM54.1182 11.4544C54.5483 11.5051 54.9255 11.7389 55.1648 12.0823C53.1865 12.5506 50.7316 13.4911 48.5023 15.3698C47.6148 14.7853 46.6707 14.2595 45.6799 13.7954C46.8196 13.4562 47.8165 12.8591 48.6016 12.0899C50.7991 11.2912 52.8072 11.3002 54.1182 11.4544ZM26.6687 3.44989C27.4548 3.44989 28.2076 3.60355 28.906 3.90673C29.7175 4.2589 30.6574 4.07263 31.3005 3.4321C32.2569 2.47975 33.6366 1.93358 35.086 1.93358C36.5351 1.93358 37.9148 2.47975 38.8713 3.43223C39.5145 4.07289 40.4545 4.25903 41.2658 3.90686C41.9644 3.60367 42.7172 3.45002 43.5032 3.45002C46.2741 3.45002 48.5282 5.40745 48.5282 7.81372C48.5282 9.72422 47.0565 11.4428 44.949 11.993C44.0865 12.2182 43.4842 13.0022 43.4842 13.8997V14.3014C43.4842 14.3046 43.4842 14.3078 43.4842 14.3111V15.1358C42.5308 15.4708 40.0554 16.1132 35.086 16.1132C30.1166 16.1132 27.6413 15.4707 26.6879 15.1357V14.3111C26.6879 14.3078 26.6879 14.3046 26.6879 14.3014V13.8997C26.6879 13.0023 26.0856 12.2182 25.2231 11.993C23.1157 11.4428 21.6439 9.72422 21.6439 7.81372C21.6436 5.40732 23.8979 3.44989 26.6687 3.44989ZM43.484 17.1675V18.336C43.484 18.4237 43.4295 18.5007 43.3484 18.5277C42.3049 18.8744 39.8437 19.4562 35.0858 19.4562C30.3278 19.4562 27.8669 18.8744 26.8234 18.5277C26.7423 18.5007 26.6878 18.4237 26.6878 18.336V17.1676C28.1136 17.574 30.7118 18.0465 35.0858 18.0465C39.4599 18.0465 42.0582 17.574 43.484 17.1675ZM16.0536 11.4544C17.3646 11.2997 19.3728 11.2911 21.5703 12.0896C22.3553 12.8588 23.3523 13.4559 24.4919 13.7952C23.5011 14.2592 22.557 14.785 21.6695 15.3695C19.4402 13.491 16.9854 12.5503 15.0071 12.082C15.2462 11.7389 15.6235 11.5052 16.0536 11.4544ZM14.4698 13.9425C16.1243 14.3236 18.1667 15.0746 20.0529 16.5477C18.801 17.5544 17.6913 18.687 16.7539 19.9254C16.3607 20.4449 16.0021 20.9796 15.6763 21.5263C14.1141 18.6197 14.1578 15.7962 14.4698 13.9425ZM14.4217 45.6085C14.3387 45.8039 14.2046 45.9653 14.0347 46.0819C14.0189 46.0923 14.0031 46.1028 13.9878 46.1142C13.9236 46.1535 13.8546 46.1867 13.7816 46.213C13.5133 46.3097 13.2193 46.2922 12.9539 46.1637C12.6713 46.0269 12.4519 45.7772 12.3523 45.4789L9.04184 35.5817C8.90584 35.1754 8.60537 34.8382 8.21736 34.6566C8.00738 34.5582 7.77896 34.5088 7.55028 34.5088C7.35628 34.5088 7.16214 34.5444 6.9791 34.616L6.19497 34.9221C6.11195 34.9545 6.01695 34.9167 5.97854 34.8365L2.85619 28.295C2.82835 28.2368 2.83815 28.1851 2.8513 28.152C2.86444 28.1189 2.89255 28.0745 2.95262 28.0511L9.51918 25.4875C9.57925 25.4639 9.63016 25.4777 9.66213 25.4931C9.6941 25.5085 9.73638 25.54 9.75546 25.6015L11.891 32.5282C11.9173 32.6134 11.8729 32.7055 11.7898 32.7378L10.9843 33.0522C10.5852 33.2079 10.2633 33.5246 10.1011 33.9212C9.93876 34.3177 9.94624 34.7692 10.1215 35.1602L12.9438 41.4528C12.9446 41.4548 12.9455 41.4566 12.9464 41.4585L14.4132 44.729C14.5396 45.0113 14.5427 45.3236 14.4217 45.6085ZM21.9942 47.1069C21.4216 47.1613 20.8701 47.1908 20.3311 47.1908C18.7911 47.1908 17.3839 46.9642 16.131 46.5173C16.1557 46.467 16.1793 46.4161 16.2014 46.3644C16.5303 45.5899 16.5216 44.7055 16.1773 43.9379L15.4848 42.3938C16.7047 43.3642 18.3011 43.8475 20.3203 43.8475C20.9159 43.8475 21.5498 43.8041 22.2202 43.7201C22.0446 44.5248 21.9552 45.3477 21.9552 46.1843C21.9552 46.4932 21.9692 46.8007 21.9942 47.1069ZM23.3432 55.4033C22.5573 55.4035 21.7286 55.1972 20.8797 54.7905C17.2201 53.0372 13.8762 53.2006 12.3608 55.2074C12.2307 55.3796 12.0321 55.4784 11.8156 55.4784C11.7121 55.4784 11.557 55.4545 11.4062 55.3406C11.2609 55.2309 11.1671 55.0713 11.142 54.8909C11.1168 54.7107 11.1634 54.5314 11.2731 54.3861C13.1965 51.8387 17.1986 51.5152 21.4688 53.5614C22.6345 54.1201 23.7101 54.1735 24.7335 53.7233C25.0332 54.084 25.3551 54.4295 25.6977 54.7583C24.932 55.1863 24.1437 55.4033 23.3432 55.4033ZM28.0238 46.114C27.6728 47.5088 27.0676 50.2547 26.8814 53.2219C26.4907 52.8359 26.1358 52.4251 25.8172 51.9941C25.8002 51.9643 25.7816 51.935 25.7611 51.9065C25.7392 51.8761 25.7155 51.8479 25.6909 51.8208C24.8473 50.6279 24.2831 49.2829 24.0344 47.8574C24.0331 47.8452 24.0329 47.8331 24.0312 47.8209C24.026 47.7844 24.0186 47.7489 24.0097 47.7141C23.93 47.2127 23.889 46.7019 23.889 46.1842C23.889 45.0513 24.0847 43.9479 24.47 42.8918C24.471 42.8892 24.4718 42.8866 24.4728 42.8841C24.4877 42.8436 24.502 42.8031 24.5173 42.7628C25.1101 42.9445 25.7228 43.1095 26.3548 43.2571C27.0258 44.1468 27.739 44.9762 28.2563 45.5545C28.1542 45.7259 28.0743 45.913 28.0238 46.114ZM21.3002 39.3359C20.8336 39.0761 20.245 39.2439 19.9852 39.7104C19.7255 40.1769 19.8932 40.7656 20.3597 41.0254C20.8603 41.3041 21.3867 41.5643 21.9362 41.8072C19.541 42.1035 17.8026 41.7898 16.6524 40.8532C16.0152 40.3343 15.2348 40.0555 14.4312 40.0448L12.0411 34.7155L12.4929 34.539C13.2056 34.2608 13.6862 33.6249 13.8027 32.9102C14.2865 34.8588 15.2164 36.5971 16.5903 38.1003C16.7811 38.309 17.0421 38.4148 17.3041 38.4148C17.5371 38.4148 17.7707 38.3311 17.9562 38.1616C18.3503 37.8015 18.3778 37.1899 18.0176 36.7957C16.2434 34.8544 15.3438 32.4332 15.3438 29.5992C15.3438 27.6272 15.7773 25.7163 16.5852 23.938C16.6137 23.8881 16.6378 23.8363 16.6569 23.7828C17.7968 21.3507 19.6431 19.1739 22.0577 17.4418C22.1189 17.4083 22.177 17.3673 22.2312 17.3195C23.0156 16.7697 23.8581 16.2666 24.7542 15.8158V18.336C24.7542 19.2581 25.3407 20.0725 26.2137 20.3626C27.6238 20.8312 30.3076 21.3899 35.086 21.3899C39.8641 21.3899 42.5482 20.8312 43.9583 20.3626C44.8312 20.0725 45.4177 19.2582 45.4177 18.336V15.8158C46.3139 16.2666 47.1564 16.7698 47.9408 17.3196C47.9949 17.3673 48.0529 17.4083 48.1142 17.4418C50.5288 19.174 52.3751 21.3508 53.515 23.783C53.534 23.8364 53.5581 23.8881 53.5865 23.9377C54.3946 25.7162 54.8282 27.6272 54.8282 29.5993C54.8282 33.7226 52.947 36.928 49.2367 39.1262C48.2369 39.7185 47.1148 40.2294 45.8846 40.6568C45.8753 40.6599 45.8662 40.6629 45.857 40.6663C44.9869 40.9674 44.0632 41.2271 43.0893 41.4435C43.0594 41.4487 43.0296 41.4552 43.0002 41.4631C40.6315 41.9816 37.972 42.2483 35.0861 42.2483C29.4898 42.2484 24.7228 41.2413 21.3002 39.3359ZM40.885 43.7988C40.6586 44.0603 40.439 44.3072 40.2346 44.5316C40.192 44.529 40.1496 44.5262 40.1066 44.5262H30.0654C30.0223 44.5262 29.9798 44.529 29.9374 44.5316C29.7329 44.3072 29.5133 44.0603 29.2869 43.7988C31.1064 44.0526 33.047 44.1819 35.0861 44.1819C37.1276 44.182 39.067 44.0522 40.885 43.7988ZM32.6605 62.7548C32.4928 63.5146 31.8078 64.0659 31.0318 64.0659C30.9109 64.0659 30.7889 64.0525 30.6693 64.0261C29.7699 63.8276 29.1997 62.9342 29.398 62.0349C29.4918 61.6099 29.5703 61.1974 29.6346 60.7916C29.7237 60.8002 29.8136 60.8054 29.9045 60.8054H33.0051C32.9186 61.446 32.8055 62.0974 32.6605 62.7548ZM40.5696 62.7548C40.4019 63.5146 39.7169 64.0659 38.9409 64.0659C38.8201 64.0659 38.698 64.0525 38.5784 64.0261C37.6789 63.8276 37.1088 62.9342 37.3071 62.0347C37.4005 61.6119 37.4767 61.2054 37.5406 60.8052H40.2673C40.4941 60.8052 40.7149 60.7757 40.9278 60.724C40.841 61.3862 40.723 62.0601 40.5696 62.7548ZM45.9344 48.7629C45.9179 48.8089 45.9038 48.8562 45.8944 48.9054C45.4238 50.5147 44.5364 51.9904 43.2923 53.2199C43.273 52.8972 43.2486 52.5634 43.2168 52.2156C43.1682 51.6839 42.6977 51.2917 42.1662 51.3408C41.6345 51.3892 41.2428 51.8596 41.2913 52.3913C41.5599 55.3333 41.3104 57.2597 41.1378 58.1461C41.056 58.5667 40.6897 58.8718 40.2673 58.8718H36.7092C36.7084 58.8718 36.7076 58.8718 36.7068 58.8718H29.9045C29.482 58.8718 29.1157 58.5665 29.034 58.1461C28.7659 56.7692 28.3134 52.8866 29.899 46.5858C29.9174 46.5129 29.9874 46.4598 30.0654 46.4598H40.1066C40.1859 46.4598 40.2543 46.5116 40.273 46.5858C40.3949 47.0706 40.5089 47.5575 40.6114 48.0329C40.724 48.5549 41.2389 48.8865 41.7603 48.7741C42.2822 48.6615 42.614 48.1471 42.5015 47.6252C42.3943 47.1285 42.2754 46.6201 42.1482 46.114C42.0975 45.913 42.0176 45.726 41.9159 45.5547C42.4332 44.9766 43.146 44.1473 43.8169 43.258C44.449 43.1104 45.0621 42.9456 45.655 42.7635C45.8072 43.1631 45.9316 43.5696 46.0286 43.9821C46.0343 44.0131 46.0414 44.0437 46.0499 44.0737C46.2048 44.7625 46.2832 45.4676 46.2832 46.1843C46.2831 47.0681 46.1634 47.9325 45.9344 48.7629ZM52.7295 47.3866C52.7354 47.4003 52.7429 47.4128 52.749 47.4263C51.0698 48.0407 49.422 48.1854 48.2487 48.1854C48.1788 48.1854 48.1081 48.184 48.0376 48.183C48.1549 47.5262 48.2167 46.858 48.2167 46.184C48.2167 45.7336 48.1906 45.2874 48.1396 44.8456C48.1427 44.8456 48.1458 44.8457 48.1488 44.8457C49.8846 44.8457 51.9187 44.4409 53.4015 43.3044L52.7125 44.9745C52.3952 45.7436 52.4014 46.6227 52.7295 47.3866ZM52.5729 41.4691C51.4517 42.5903 49.4452 42.984 47.7419 42.9034C47.6642 42.6415 47.5769 42.3817 47.4802 42.1244C48.4648 41.7331 49.3813 41.2881 50.2222 40.7899C53.2245 39.0111 55.2319 36.574 56.1631 33.6251C56.2814 34.1581 56.4864 34.6655 56.7778 35.1214L54.5755 40.4591C53.8225 40.5742 53.1167 40.9251 52.5729 41.4691ZM62.7569 33.026C62.4185 33.9768 61.7041 34.7046 60.846 34.9728C60.2737 35.1517 59.8295 35.5987 59.6579 36.1685L56.5482 46.4952C56.459 46.7914 56.2569 47.0294 55.9788 47.1654C55.701 47.3014 55.3887 47.3147 55.0992 47.2029C55.0101 47.1686 54.9281 47.1218 54.853 47.0657C54.8401 47.0557 54.8274 47.0453 54.814 47.036C54.6825 46.928 54.5767 46.7881 54.5061 46.6236C54.3822 46.3351 54.3799 46.0028 54.4999 45.7121L58.5935 35.7899C58.8205 35.2399 58.7585 34.6127 58.4278 34.1122C57.932 33.3624 57.838 32.347 58.1764 31.396C58.5706 30.2883 59.2998 29.2053 60.127 28.4989C60.7013 28.0085 61.2735 27.7414 61.7248 27.7414C61.8377 27.7414 61.9431 27.7582 62.039 27.7924C63.2511 28.2235 63.45 31.0783 62.7569 33.026ZM24.5299 31.2444C23.349 31.5581 21.1212 32.6771 20.2561 33.3156C19.8264 33.6327 19.7353 34.238 20.0524 34.6675C20.242 34.9244 20.5345 35.0602 20.831 35.0602C21.0304 35.0602 21.2316 34.9987 21.4044 34.8712C22.0849 34.3688 24.1094 33.3567 25.0261 33.1133C25.5421 32.9763 25.8494 32.4469 25.7124 31.9307C25.5754 31.4146 25.0459 31.1079 24.5299 31.2444ZM23.8902 30.3431C24.4206 30.4133 24.9053 30.0406 24.9753 29.5113C25.0452 28.982 24.6728 28.496 24.1435 28.4261C22.932 28.2661 20.4458 28.4517 19.4029 28.7125C18.8849 28.8419 18.5699 29.3669 18.6994 29.8849C18.8092 30.3242 19.2034 30.6174 19.6366 30.6174C19.7142 30.6174 19.7931 30.608 19.8718 30.5883C20.6924 30.3832 22.9499 30.2187 23.8902 30.3431ZM37.9178 27.7139C38.2687 27.3114 38.2266 26.7007 37.8242 26.3499C37.4217 25.999 36.811 26.0408 36.4601 26.4435C36.1131 26.8417 35.6122 27.07 35.0858 27.07C34.5595 27.07 34.0586 26.8417 33.7117 26.4435C33.3608 26.0409 32.7501 25.9992 32.3476 26.3498C31.9452 26.7007 31.9032 27.3113 32.2541 27.7139C32.9683 28.5334 34.0006 29.0035 35.086 29.0035C36.1714 29.0035 37.2034 28.5336 37.9178 27.7139ZM41.222 27.7774C41.7559 27.7774 42.1888 27.3445 42.1888 26.8106C42.1888 26.3288 42.5808 25.9368 43.0626 25.9368C43.5445 25.9368 43.9365 26.3288 43.9365 26.8106C43.9365 27.3445 44.3693 27.7774 44.9033 27.7774C45.4372 27.7774 45.8701 27.3445 45.8701 26.8106C45.8701 25.2626 44.6107 24.0032 43.0626 24.0032C41.5146 24.0032 40.2552 25.2626 40.2552 26.8106C40.2552 27.3445 40.6881 27.7774 41.222 27.7774ZM27.1091 24.0033C25.561 24.0033 24.3016 25.2627 24.3016 26.8107C24.3016 27.3447 24.7345 27.7775 25.2684 27.7775C25.8024 27.7775 26.2352 27.3447 26.2352 26.8107C26.2352 26.3289 26.6272 25.9369 27.1091 25.9369C27.5909 25.9369 27.9829 26.3289 27.9829 26.8107C27.9829 27.3447 28.4158 27.7775 28.9497 27.7775C29.4836 27.7775 29.9165 27.3447 29.9165 26.8107C29.9166 25.2627 28.6572 24.0033 27.1091 24.0033ZM49.9156 33.3156C49.0505 32.6771 46.8227 31.5581 45.6418 31.2444C45.1259 31.1079 44.5962 31.4147 44.4592 31.9307C44.3222 32.4467 44.6295 32.9763 45.1455 33.1133C46.0621 33.3567 48.0867 34.3688 48.7673 34.8712C48.9401 34.9987 49.1413 35.0602 49.3407 35.0602C49.6372 35.0602 49.9297 34.9243 50.1193 34.6675C50.4364 34.238 50.3453 33.6327 49.9156 33.3156ZM45.1965 29.5113C45.2665 30.0406 45.752 30.4131 46.2817 30.3431C47.2215 30.2189 49.4793 30.3832 50.3 30.5884C50.3786 30.6082 50.4575 30.6176 50.5353 30.6176C50.9684 30.6174 51.3627 30.3243 51.4724 29.885C51.602 29.3671 51.2869 28.8422 50.769 28.7126C49.726 28.4518 47.2398 28.2663 46.0284 28.4262C45.4989 28.4962 45.1265 28.982 45.1965 29.5113Z" fill="#151515"/>
</g>
<defs>
<clipPath id="clip0_716_16892">
<rect width="66" height="66" fill="white"/>
</clipPath>
</defs>
</svg>
