<svg width="66" height="66" viewBox="0 0 66 66" fill="none" xmlns="http://www.w3.org/2000/svg">
<g clip-path="url(#clip0_716_16084)">
<path d="M49.275 60.4613H38.7639C37.0649 60.4613 35.6875 59.0841 35.6875 57.3849C35.6875 55.6858 37.0649 54.3086 38.7639 54.3086H49.275C50.974 54.3086 52.3513 55.686 52.3513 57.3849C52.3513 59.0842 50.9741 60.4613 49.275 60.4613Z" fill="#EDA751"/>
<path opacity="0.2" d="M49.275 60.4613H38.7639C37.0649 60.4613 35.6875 59.0841 35.6875 57.3849C35.6875 55.6858 37.0649 54.3086 38.7639 54.3086H49.275C50.974 54.3086 52.3513 55.686 52.3513 57.3849C52.3513 59.0842 50.9741 60.4613 49.275 60.4613Z" fill="#A35F00"/>
<path d="M12.6589 59.5068C11.2164 59.5068 9.99978 59.0267 9.07114 58.4661C6.16559 56.7118 5.49025 53.8549 4.89432 51.3345C4.27827 48.7289 3.80661 47.0793 1.94984 46.0381C1.02365 45.5189 0.693907 44.3469 1.2134 43.4207C1.7325 42.4946 2.904 42.1644 3.83084 42.6842C7.25459 44.604 8.02081 47.8454 8.63647 50.4499C9.19424 52.8091 9.60971 54.2995 11.0586 55.1741C11.958 55.7169 13.1398 56.0896 15.0878 54.7387C16.7271 53.6016 18.2627 51.7072 19.6176 50.0358C19.7764 49.8398 19.9317 49.6484 20.0833 49.4625C20.7556 48.6401 21.9668 48.5184 22.7888 49.1899C23.6112 49.8617 23.7332 51.0731 23.0615 51.8954C22.9126 52.0775 22.7605 52.2653 22.6049 52.4573C21.1633 54.2357 19.3692 56.4489 17.2796 57.8981C15.5736 59.0818 14.0162 59.5068 12.6589 59.5068Z" fill="#EDA751"/>
<path opacity="0.2" d="M22.789 49.1902C21.9671 48.5187 20.7557 48.6404 20.0835 49.4629C19.9318 49.6486 19.7764 49.8402 19.6176 50.0361C18.2627 51.7075 16.7271 53.6019 15.0878 54.739C14.7725 54.9577 14.4775 55.1306 14.2002 55.2656C14.8959 56.3659 15.7303 57.38 16.6813 58.2861C16.8786 58.1669 17.0779 58.0385 17.2795 57.8986C19.3691 56.4492 21.1632 54.236 22.6048 52.4577C22.7603 52.2658 22.9126 52.078 23.0613 51.8958C23.7333 51.0733 23.6114 49.8621 22.789 49.1902Z" fill="#C18F00"/>
<path d="M3.83133 42.684C2.90449 42.1641 1.73299 42.4944 1.21389 43.4204C0.694396 44.3466 1.02414 45.5187 1.95033 46.0379C2.39132 46.2851 2.75342 46.5673 3.05867 46.8879C3.92066 46.3242 4.89609 45.325 5.42358 43.8278C4.96764 43.4121 4.44247 43.0266 3.83133 42.684Z" fill="#FCD79D"/>
<path d="M28.56 60.4616C36.3961 60.4616 42.7485 54.5587 42.7485 47.2772C42.7485 39.9956 36.3961 34.0928 28.56 34.0928C20.724 34.0928 14.3716 39.9956 14.3716 47.2772C14.3716 54.5587 20.724 60.4616 28.56 60.4616Z" fill="#FCD690"/>
<path opacity="0.1" d="M26.4882 60.3211C20.0043 56.0641 22.0137 47.3392 23.1143 43.5236V35.0986C17.9809 37.0831 14.3711 41.7878 14.3711 47.2767C14.3712 53.9044 19.6341 59.3892 26.4882 60.3211Z" fill="#C18F00"/>
<path d="M19.925 24.4144C22.7015 22.0847 24.5553 18.1738 20.639 12.3923C16.6917 6.56517 10.8152 5.10454 6.22725 5.64504C5.0961 5.77833 4.14709 6.57471 3.81941 7.66552C2.49039 12.09 2.90843 18.131 7.96168 23.03C12.9751 27.8906 17.1484 26.7442 19.925 24.4144Z" fill="#EDA751"/>
<path d="M3.63508 8.34253C2.54556 12.6927 3.1616 18.3761 7.96194 23.03C12.3076 27.2431 16.0212 26.942 18.7419 25.2702C16.8705 12.5679 8.69684 9.19976 3.63508 8.34253Z" fill="#FF91AB"/>
<path d="M37.195 24.4144C34.4185 22.0847 32.5648 18.1738 36.481 12.3923C40.4282 6.56517 46.3048 5.10454 50.8927 5.64504C52.0238 5.77833 52.9728 6.57471 53.3005 7.66552C54.6295 12.09 54.2115 18.131 49.1583 23.03C44.1448 27.8906 39.9715 26.7442 37.195 24.4144Z" fill="#EDA751"/>
<path d="M53.4852 8.34253C54.5747 12.6927 53.9587 18.3761 49.1583 23.03C44.8126 27.2431 41.0991 26.942 38.3784 25.2702C40.2497 12.5679 48.4234 9.19976 53.4852 8.34253Z" fill="#FF91AB"/>
<path d="M52.7168 27.9308C52.7168 38.9759 41.9016 43.8133 28.5603 43.8133C15.219 43.8133 4.40381 38.9759 4.40381 27.9308C4.40381 16.8857 15.219 7.93188 28.5603 7.93188C41.9016 7.93188 52.7168 16.8857 52.7168 27.9308Z" fill="#FCD690"/>
<path opacity="0.1" d="M15.6615 11.0198C8.89622 14.5639 4.40332 20.8127 4.40332 27.9309C4.40332 37.4256 12.3955 42.3329 23.1141 43.5236C7.72781 34.333 9.7345 21.9706 15.6615 11.0198Z" fill="#C18F00"/>
<path d="M18.3983 32.033C20.814 32.033 22.7723 30.4736 22.7723 28.5499C22.7723 26.6263 20.814 25.0669 18.3983 25.0669C15.9827 25.0669 14.0244 26.6263 14.0244 28.5499C14.0244 30.4736 15.9827 32.033 18.3983 32.033Z" fill="#FF91AB"/>
<path d="M42.1054 32.033C44.521 32.033 46.4793 30.4736 46.4793 28.5499C46.4793 26.6263 44.521 25.0669 42.1054 25.0669C39.6897 25.0669 37.7314 26.6263 37.7314 28.5499C37.7314 30.4736 39.6897 32.033 42.1054 32.033Z" fill="#FF91AB"/>
<path d="M39.0715 60.4613H28.5602C26.8613 60.4613 25.4839 59.0841 25.4839 57.3849C25.4839 55.6858 26.8613 54.3086 28.5602 54.3086H39.0715C40.7706 54.3086 42.1479 55.686 42.1479 57.3849C42.1479 59.0842 40.7705 60.4613 39.0715 60.4613Z" fill="#EDA751"/>
<path d="M16.4075 48.9392C16.0791 48.8798 15.7549 48.7653 15.4476 48.5925C13.9667 47.7596 13.4415 45.8839 14.2746 44.403C15.685 41.8957 19.2504 40.1031 22.7526 40.1405C26.2761 40.1786 29.276 42.0323 30.9845 45.2272C31.7857 46.7255 31.2205 48.5895 29.7223 49.3906C28.2241 50.1919 26.36 49.6268 25.5588 48.1284C24.9263 46.9456 24.0688 46.3633 22.8606 46.2983C21.3053 46.2138 19.8979 47.0506 19.6295 47.4322C18.9673 48.5972 17.6574 49.1656 16.4075 48.9392ZM19.6369 47.4194C19.6369 47.4197 19.6366 47.4199 19.6364 47.4203C19.6366 47.4199 19.6369 47.4197 19.6369 47.4194Z" fill="#EDA751"/>
<path d="M65.0331 49.0919H28.7866V30.2101C28.7866 28.8619 29.8796 27.769 31.2277 27.769H62.5922C63.9404 27.769 65.0333 28.862 65.0333 30.2101L65.0331 49.0919Z" fill="#DEE2E5"/>
<path d="M65.0331 49.0918H28.7866V54.6243H63.363C64.2855 54.6243 65.0331 53.8765 65.0331 52.9542V49.0918Z" fill="#7694E4"/>
<path d="M16.0441 49.0918H28.7865V54.6243H16.0441C15.1217 54.6243 14.374 53.8765 14.374 52.9542V50.7619C14.3742 49.8396 15.1219 49.0918 16.0441 49.0918Z" fill="#7694E4"/>
<path opacity="0.1" d="M16.0441 49.0918H28.7865V54.6243H16.0441C15.1217 54.6243 14.374 53.8765 14.374 52.9542V50.7619C14.3742 49.8396 15.1219 49.0918 16.0441 49.0918Z" fill="#151515"/>
<path d="M46.9095 42.1651C48.9721 42.1651 50.6441 40.4931 50.6441 38.4305C50.6441 36.3679 48.9721 34.6958 46.9095 34.6958C44.8469 34.6958 43.1748 36.3679 43.1748 38.4305C43.1748 40.4931 44.8469 42.1651 46.9095 42.1651Z" fill="white"/>
<path d="M17.9801 30.1593C16.6177 30.5212 14.0469 31.8124 13.0491 32.5492C12.6194 32.8665 12.5283 33.4717 12.8454 33.9012C13.035 34.158 13.3275 34.294 13.624 34.294C13.8235 34.294 14.0246 34.2325 14.1974 34.1049C15.0193 33.4981 17.371 32.3216 18.4764 32.0282C18.9924 31.8912 19.2997 31.3618 19.1627 30.8456C19.0257 30.3296 18.4963 30.0224 17.9801 30.1593ZM40.5235 25.0758V23.5312C40.5235 22.9972 40.0908 22.5644 39.5567 22.5644C39.0227 22.5644 38.5899 22.9972 38.5899 23.5312V25.0758C38.5899 25.6098 39.0227 26.0426 39.5567 26.0426C40.0908 26.0426 40.5235 25.6098 40.5235 25.0758ZM21.9141 25.0758V23.5312C21.9141 22.9972 21.4813 22.5644 20.9473 22.5644C20.4132 22.5644 19.9805 22.9972 19.9805 23.5312V25.0758C19.9805 25.6098 20.4132 26.0426 20.9473 26.0426C21.4813 26.0426 21.9141 25.6098 21.9141 25.0758ZM62.5921 26.8022H53.6451C53.5157 24.7514 53.0344 22.7567 52.2269 20.8662C54.8849 16.8946 55.6166 12.0152 54.2265 7.38738C53.7871 5.92455 52.5229 4.86378 51.0059 4.68499C46.3953 4.14088 41.8565 5.58334 38.4534 8.64809C35.3666 7.54555 32.0153 6.96521 28.5601 6.96521C25.1032 6.96521 21.7522 7.54529 18.6662 8.64757C15.263 5.58321 10.7253 4.14191 6.1143 4.68499C4.5972 4.86378 3.33315 5.92455 2.89371 7.38751C1.5041 12.0141 2.235 16.8919 4.89137 20.863C3.9354 23.1 3.43692 25.4826 3.43692 27.9309C3.43692 32.7412 5.33919 36.6541 9.09049 39.5607C9.2667 39.6972 9.47502 39.7633 9.68204 39.7632C9.97066 39.7632 10.2564 39.6344 10.447 39.3886C10.774 38.9666 10.6969 38.3593 10.2749 38.0321C7.02051 35.5109 5.37051 32.1122 5.37051 27.9309C5.37051 17.4367 15.7734 8.89881 28.5604 8.89881C31.9587 8.89881 35.2449 9.49693 38.2437 10.6303C38.3018 10.6592 38.362 10.6817 38.4238 10.6981C40.3277 11.4341 42.1128 12.3877 43.7334 13.543C43.7407 13.5483 43.748 13.554 43.7554 13.559C44.1686 13.8544 44.5715 14.1622 44.9625 14.4834C47.2908 16.3969 49.0629 18.648 50.2116 21.1006C50.2276 21.1441 50.2475 21.1863 50.2697 21.2274C51.0818 22.9991 51.5704 24.874 51.7075 26.8021H32.0964C32.6004 26.5568 33.057 26.2121 33.4342 25.7793C33.7851 25.3768 33.7429 24.7661 33.3405 24.4153C32.9376 24.0644 32.327 24.1064 31.9764 24.509C31.5411 25.0085 30.9125 25.295 30.252 25.295C29.5915 25.295 28.9631 25.0085 28.5277 24.509C28.1767 24.1065 27.5661 24.0646 27.1637 24.4153C26.7612 24.7661 26.7192 25.3768 27.0699 25.7793C27.7414 26.5498 28.6631 27.0439 29.6602 27.1853C28.5678 27.7537 27.8197 28.8956 27.8197 30.21V40.5372C26.3121 39.6614 24.5953 39.1935 22.7628 39.1736C20.431 39.1504 18.0692 39.8799 16.2211 41.0826C15.4469 40.8244 14.7016 40.5387 14.0044 40.2274C13.5169 40.0098 12.9452 40.2286 12.7276 40.7162C12.51 41.2037 12.7287 41.7754 13.2164 41.993C13.6258 42.1757 14.0507 42.3496 14.4855 42.5159C14.0692 42.9569 13.7127 43.4297 13.4321 43.9286C12.9026 44.87 12.7713 45.9612 13.0625 47.001C13.149 47.3099 13.2703 47.6027 13.4217 47.8763C13.4493 48.4888 13.5193 49.1005 13.631 49.7036C13.4883 50.0279 13.4076 50.3855 13.4076 50.7619V52.9542C13.4076 53.477 13.5624 53.9635 13.8259 54.3738C12.7236 54.9303 12.1007 54.6734 11.5588 54.3465C10.4949 53.7042 10.1381 52.598 9.57776 50.2273C8.95333 47.5859 8.09804 43.9683 4.30433 41.8408C3.63067 41.4628 2.85091 41.3702 2.10764 41.5794C1.36488 41.7885 0.747935 42.2744 0.370497 42.9476C-0.00694024 43.6207 -0.0997527 44.4006 0.109333 45.1436C0.31829 45.8867 0.804267 46.5037 1.47742 46.8812C2.91498 47.6873 3.31729 48.8641 3.95383 51.557C4.56201 54.1288 5.31869 57.3293 8.5719 59.2935C9.86883 60.0764 11.244 60.4733 12.6593 60.4733C14.3875 60.4733 16.1275 59.8741 17.8309 58.6926C18.1218 58.4908 18.4126 58.2695 18.7075 58.0296C21.4208 60.198 24.8993 61.4281 28.5604 61.4281H49.2751C51.5045 61.4281 53.3182 59.6144 53.3182 57.3851C53.3182 56.7467 53.1697 56.1369 52.9003 55.591H63.3634C64.8173 55.591 66.0003 54.408 66.0003 52.9541V30.2101C65.9999 28.3309 64.4712 26.8022 62.5921 26.8022ZM10.8623 13.0447C8.79787 14.7539 7.13447 16.7091 5.90883 18.8317C3.8792 15.2276 3.98039 11.7052 4.38258 9.47296C6.40447 9.91936 8.95359 10.8355 11.2827 12.705C11.1413 12.8169 11.001 12.9298 10.8623 13.0447ZM12.8977 11.5325C10.2146 9.23912 7.23617 8.13414 4.88544 7.60446C5.17316 7.05906 5.71263 6.6793 6.3404 6.60518C10.0702 6.16651 13.7444 7.20163 16.636 9.46522C15.3262 10.0556 14.0756 10.7464 12.8977 11.5325ZM44.222 11.5327C43.0441 10.7468 41.7931 10.0565 40.4829 9.466C43.3748 7.20176 47.0491 6.16625 50.7795 6.60531C51.4074 6.67943 51.9469 7.05906 52.2346 7.60459C49.8838 8.13414 46.9053 9.23912 44.222 11.5327ZM51.2109 18.8327C49.9716 16.6856 48.2842 14.7107 46.19 12.9896C46.0733 12.8937 45.955 12.7998 45.8364 12.7061C48.166 10.8359 50.7153 9.91962 52.7376 9.47309C53.1399 11.7056 53.2409 15.2284 51.2109 18.8327ZM15.1174 44.8769C16.3326 42.7165 19.5568 41.1068 22.6476 41.1068C22.679 41.1068 22.7107 41.1069 22.742 41.1073C24.6452 41.1278 26.3913 41.7369 27.8198 42.8715V48.125H26.7401C26.6122 47.9896 26.5007 47.8395 26.4115 47.6724C25.6143 46.1818 24.4698 45.4167 22.9131 45.333C21.0571 45.2337 19.3272 46.1815 18.8388 46.8763C18.821 46.9014 18.8045 46.9276 18.7893 46.9544C18.3472 47.7317 17.4599 48.1473 16.5798 47.988C16.3497 47.9463 16.1281 47.8661 15.9214 47.7496C15.6175 47.5788 15.3665 47.3408 15.183 47.056C15.1787 47.0495 15.175 47.0426 15.1706 47.0362C15.0635 46.8658 14.98 46.6792 14.9243 46.48C14.7724 45.9374 14.841 45.3681 15.1174 44.8769ZM24.4209 48.1251H20.3354C20.3636 48.0821 20.3934 48.0403 20.4201 47.9959C20.6378 47.7976 21.6488 47.2002 22.8088 47.2639C23.5121 47.3017 24.006 47.5587 24.4209 48.1251ZM16.7287 57.1041C15.3551 58.057 13.9858 58.5401 12.659 58.5401C11.6009 58.5401 10.562 58.2368 9.57105 57.6385C7.01317 56.0942 6.4144 53.5615 5.83535 51.1121C5.24986 48.6355 4.74416 46.4964 2.42281 45.1949C2.20032 45.0702 2.03945 44.866 1.97035 44.6203C1.90113 44.3745 1.93181 44.1164 2.05685 43.8935C2.18176 43.6708 2.38582 43.51 2.63138 43.4408C2.87682 43.3717 3.13502 43.4022 3.35816 43.5275C6.41169 45.2397 7.09399 48.126 7.69585 50.6724C8.22862 52.9261 8.68869 54.8726 10.5592 56.0019C11.566 56.6095 13.1834 57.2218 15.6103 55.5524C15.7518 55.576 15.8961 55.5912 16.0442 55.5912H16.2952C16.5988 55.9813 16.9222 56.3536 17.2625 56.709C17.0832 56.8486 16.9054 56.9815 16.7287 57.1041ZM16.0442 53.6576C15.6563 53.6576 15.3409 53.3422 15.3409 52.9543V50.762C15.3409 50.6229 15.382 50.4935 15.452 50.3842C15.4554 50.3792 15.4582 50.3739 15.4614 50.3687C15.588 50.1817 15.802 50.0586 16.0442 50.0586H27.8197V53.6576H16.0442ZM39.0714 59.4946H28.5601C25.089 59.4946 21.8106 58.2431 19.3691 56.0597C19.3606 56.0516 19.3519 56.0437 19.3432 56.036C19.1827 55.8917 19.0257 55.7435 18.8727 55.5911H40.1792C40.8013 55.9743 41.1809 56.6441 41.1809 57.3852C41.1809 58.5485 40.2345 59.4946 39.0714 59.4946ZM49.2748 59.4946H42.519C42.8964 58.8801 43.1145 58.1578 43.1145 57.3852C43.1145 56.7469 42.966 56.137 42.6966 55.5911H50.3828C51.0049 55.9743 51.3845 56.6441 51.3845 57.3852C51.3844 58.5485 50.4381 59.4946 49.2748 59.4946ZM64.0663 48.1251H61.5311C60.997 48.1251 60.5643 48.5578 60.5643 49.0919C60.5643 49.626 60.997 50.0587 61.5311 50.0587H64.0663V52.9545C64.0663 53.3423 63.7509 53.6578 63.363 53.6578H29.7534V50.0587H57.0348C57.5689 50.0587 58.0016 49.626 58.0016 49.0919C58.0016 48.5578 57.5689 48.1251 57.0348 48.1251H29.7534V30.2101C29.7534 29.3971 30.4148 28.7357 31.2278 28.7357H62.5921C63.4051 28.7357 64.0666 29.3971 64.0666 30.2101V48.1251H64.0663ZM17.4668 26.8757C16.0697 26.6914 13.2007 26.9056 11.9969 27.2063C11.4789 27.3359 11.1641 27.8608 11.2935 28.3789C11.4035 28.818 11.7975 29.1114 12.2308 29.1114C12.3085 29.1114 12.3874 29.102 12.466 29.0823C13.4571 28.8344 16.0795 28.6427 17.2135 28.7927C17.741 28.8624 18.2287 28.4904 18.2987 27.9608C18.3686 27.4315 17.9962 26.9457 17.4668 26.8757Z" fill="#151515"/>
</g>
<defs>
<clipPath id="clip0_716_16084">
<rect width="66" height="66" fill="white"/>
</clipPath>
</defs>
</svg>
