<svg width="34" height="35" viewBox="0 0 34 35" fill="none" xmlns="http://www.w3.org/2000/svg">
<rect y="0.5" width="34" height="34" rx="17" fill="white"/>
<g clip-path="url(#clip0_147_14682)">
<path d="M25.4727 14.8635H24.9453V14.3362C24.9453 14.0447 24.7094 13.8088 24.418 13.8088C24.1265 13.8088 23.8906 14.0447 23.8906 14.3362V14.8635H23.3633C23.0718 14.8635 22.8359 15.0994 22.8359 15.3909C22.8359 15.6823 23.0718 15.9182 23.3633 15.9182H23.8906V16.4456C23.8906 16.737 24.1265 16.9729 24.418 16.9729C24.7094 16.9729 24.9453 16.737 24.9453 16.4456V15.9182H25.4727C25.7641 15.9182 26 15.6823 26 15.3909C26 15.0994 25.7641 14.8635 25.4727 14.8635Z" fill="#052A8C"/>
<path d="M23.3281 12.7542C23.6194 12.7542 23.8555 12.5181 23.8555 12.2268C23.8555 11.9356 23.6194 11.6995 23.3281 11.6995C23.0369 11.6995 22.8008 11.9356 22.8008 12.2268C22.8008 12.5181 23.0369 12.7542 23.3281 12.7542Z" fill="#052A8C"/>
<path d="M21.2188 15.9182C21.51 15.9182 21.7461 15.6821 21.7461 15.3909C21.7461 15.0996 21.51 14.8635 21.2188 14.8635C20.9275 14.8635 20.6914 15.0996 20.6914 15.3909C20.6914 15.6821 20.9275 15.9182 21.2188 15.9182Z" fill="#052A8C"/>
<path d="M22.2734 16.9729H18.582V22.7736C18.582 22.9868 18.2565 23.2608 18.2565 23.2608L18.0546 23.301L17.7665 23.0724L17 22.4646L18.0546 23.301L18.2565 23.2608C18.2565 23.2608 18.582 22.9868 18.582 22.7736V16.9729H15.1222L11.1992 19.2379V25.9728C11.1992 26.2643 11.4351 26.5002 11.7266 26.5002H22.2734C22.5649 26.5002 22.8007 26.2643 22.8007 25.9728V17.5002C22.8007 17.2088 22.5649 16.9729 22.2734 16.9729Z" fill="#052A8C"/>
<path d="M15.519 24.7422C15.6443 24.7422 15.7546 24.6914 15.8918 24.5999L19.4135 22.2864C19.67 22.117 19.7773 21.9849 19.7773 21.7715C19.7773 21.5581 19.67 21.4294 19.4135 21.2566L15.8918 18.943C15.7546 18.8516 15.6443 18.8008 15.519 18.8008C15.2745 18.8008 15.1016 19.0142 15.1016 19.3495V24.1934C15.1016 24.5322 15.2745 24.7422 15.519 24.7422Z" fill="white"/>
<path d="M21.0347 11.7325L19.9801 9.90583C19.9101 9.78483 19.7947 9.69623 19.6598 9.6602C19.5254 9.62466 19.3807 9.64322 19.2596 9.71272L17.6373 10.6494C17.6386 10.2815 17.5513 9.88249 17.3624 9.55554C17.0807 9.06733 16.626 8.71819 16.0817 8.57244C15.5384 8.42773 14.9693 8.50188 14.4811 8.78306C13.805 9.17392 13.4007 9.90158 13.4275 10.6823L13.4311 10.7935C13.4311 10.7976 13.4311 10.8013 13.4316 10.8054L13.4831 12.363L12.1828 11.5528C12.1823 11.5522 12.1813 11.5517 12.1807 11.5512L12.086 11.492C11.4227 11.0795 10.5915 11.064 9.91432 11.4549C9.42611 11.7366 9.07698 12.1913 8.93122 12.7356C8.78546 13.28 8.86017 13.8485 9.14184 14.3367C9.33432 14.6695 9.60527 14.9282 9.91682 15.107L8.26427 16.0408C8.01199 16.1865 7.92561 16.509 8.07123 16.7613L9.16089 18.5881C9.30651 18.8403 9.629 18.9268 9.88128 18.7812L20.8417 12.4529C21.0939 12.3073 21.1803 11.9848 21.0347 11.7325ZM11.4957 14.1953C10.9916 14.4853 10.3457 14.3129 10.0554 13.8094C9.76442 13.3058 9.93795 12.6589 10.4416 12.3685C10.7799 12.1723 11.1966 12.1805 11.5277 12.387L13.0184 13.3162L11.4957 14.1953ZM16.5545 10.9183C16.4819 11.1899 16.3074 11.4174 16.0637 11.558L14.5405 12.4374L14.4811 10.6462C14.4683 10.2554 14.6707 9.89177 15.0085 9.69658C15.2515 9.55498 15.5358 9.51841 15.8088 9.59101C16.0807 9.66414 16.3083 9.83872 16.4489 10.0828C16.59 10.327 16.6276 10.6459 16.5545 10.9183Z" fill="#052A8C"/>
</g>
<defs>
<clipPath id="clip0_147_14682">
<rect width="18" height="18" fill="white" transform="translate(8 8.5)"/>
</clipPath>
</defs>
</svg>
