<svg width="68" height="68" viewBox="0 0 68 68" fill="none" xmlns="http://www.w3.org/2000/svg">
<g clip-path="url(#clip0_20_647)">
<path d="M16.4952 60.0547C16.317 60.0547 16.1512 60.0492 15.9995 60.0406C12.035 59.8127 8.5987 57.0616 7.64311 53.3503C7.37935 52.3258 7.996 51.2815 9.02038 51.0177C10.0445 50.7538 11.0891 51.3706 11.3528 52.395C11.8891 54.4779 13.9356 56.0848 16.2192 56.216C19.6055 56.4124 22.7128 53.5022 24.7359 48.2364C25.1154 47.2489 26.2234 46.7556 27.2109 47.1355C28.1984 47.5148 28.6914 48.623 28.3119 49.6104C24.7681 58.8351 19.19 60.0547 16.4952 60.0547Z" fill="#EDA751"/>
<path d="M11.3529 52.3948C11.0891 51.3703 10.0445 50.7537 9.02043 51.0176C7.99592 51.2813 7.37927 52.3258 7.64317 53.3501C7.76389 53.8191 7.92446 54.2725 8.12049 54.7076C9.18804 54.5788 10.5492 54.1481 11.7456 53.3984C11.5764 53.0801 11.4429 52.7444 11.3529 52.3948Z" fill="#FCD79D"/>
<path d="M28.6856 67.0038C28.58 67.0038 28.4735 66.9982 28.3664 66.9872C26.6828 66.8128 25.4592 65.3068 25.6336 63.6232C25.9959 60.1229 25.9428 57.0498 25.471 54.2284C25.1919 52.5591 26.3189 50.9794 27.9884 50.7003C29.6585 50.4207 31.2375 51.5483 31.5165 53.2177C32.0802 56.589 32.1502 60.1993 31.7304 64.2544C31.5671 65.8308 30.2364 67.0038 28.6856 67.0038Z" fill="#EDA751"/>
<path d="M38.3416 67.0038C38.236 67.0038 38.1295 66.9982 38.0224 66.9872C36.3388 66.8128 35.1152 65.3068 35.2896 63.6232C35.6519 60.1226 35.5988 57.0496 35.1272 54.2284C34.848 52.5591 35.975 50.9794 37.6445 50.7003C39.3146 50.4207 40.8936 51.5483 41.1727 53.2177C41.7363 56.5889 41.8063 60.199 41.3864 64.2544C41.2231 65.8308 39.8924 67.0038 38.3416 67.0038Z" fill="#EDA751"/>
<path d="M14.8573 48.5478C12.4256 48.5478 10.0511 47.9941 7.78847 46.8841C6.26896 46.1386 5.64142 44.3022 6.38703 42.7828C7.13264 41.2633 8.96891 40.6361 10.4883 41.3814C13.7081 42.9611 17.0992 42.758 20.8556 40.7609C22.3502 39.9663 24.206 40.5338 25.0003 42.0282C25.7949 43.5227 25.2274 45.3784 23.733 46.1729C20.758 47.7547 17.7669 48.5478 14.8573 48.5478Z" fill="#EDA751"/>
<path d="M44.9485 45.9819C44.4937 45.9819 44.056 45.9406 43.6425 45.8546C41.9854 45.51 40.9215 43.8872 41.2661 42.2301C41.6101 40.5768 43.2258 39.5132 44.8788 39.8511C45.7169 39.9554 48.533 38.9074 49.7071 37.1075C50.3035 36.1936 50.2824 35.3886 49.6341 34.3294C48.7505 32.8858 49.2046 30.9993 50.6483 30.1156C52.0917 29.2318 53.9785 29.6859 54.8621 31.1297C56.7985 34.2934 56.7194 37.7984 54.645 40.7456C52.5159 43.7703 48.2797 45.9819 44.9485 45.9819Z" fill="#EDA751"/>
<path opacity="0.2" d="M41.6501 58.6554C41.6216 56.7607 41.4633 54.9571 41.1725 53.218C40.8935 51.5485 39.3145 50.4209 37.6444 50.7005C35.9749 50.9798 34.8479 52.5594 35.127 54.2287C35.4611 56.227 35.5842 58.3524 35.4993 60.6657C37.7172 60.3779 39.7973 59.6798 41.6501 58.6554Z" fill="#A35F00"/>
<path opacity="0.2" d="M27.9884 50.7005C26.3189 50.9798 25.1919 52.5594 25.471 54.2287C25.7343 55.8033 25.867 57.4565 25.87 59.2184C27.7367 60.0791 29.7975 60.6221 31.973 60.7717C32.0647 58.0874 31.9136 55.5929 31.5165 53.218C31.2374 51.5485 29.6585 50.4209 27.9884 50.7005Z" fill="#A35F00"/>
<path opacity="0.2" d="M27.2111 47.1355C26.2236 46.7556 25.1155 47.2489 24.7361 48.2364C23.542 51.3446 21.9699 53.6313 20.1857 54.9436C21.0249 55.9227 21.9862 56.8055 23.0478 57.5715C24.9182 56.023 26.8003 53.5455 28.3121 49.6103C28.6916 48.623 28.1986 47.5149 27.2111 47.1355Z" fill="#A35F00"/>
<path opacity="0.2" d="M20.8558 40.7612C19.4443 41.5115 18.0844 42.0085 16.7658 42.2529C16.5852 43.1769 16.49 44.1285 16.49 45.1008C16.49 46.2398 16.6208 47.3505 16.8668 48.4214C19.1353 48.1417 21.439 47.3929 23.7331 46.1731C25.2276 45.3786 25.795 43.523 25.0003 42.0285C24.206 40.534 22.3502 39.9665 20.8558 40.7612Z" fill="#A35F00"/>
<path d="M33.2044 58.2354C41.0111 58.2354 47.3397 52.3546 47.3397 45.1002C47.3397 37.8459 41.0111 31.9651 33.2044 31.9651C25.3978 31.9651 19.0692 37.8459 19.0692 45.1002C19.0692 52.3546 25.3978 58.2354 33.2044 58.2354Z" fill="#FCD690"/>
<path opacity="0.15" d="M31.1398 58.0961C24.6803 53.8551 26.6822 45.1631 27.7787 41.3618V32.9688C22.6645 34.9457 19.0685 39.6328 19.0685 45.1008C19.0685 51.7035 24.3115 57.1676 31.1398 58.0961Z" fill="#C17A00"/>
<path d="M24.6017 22.3247C27.3676 20.0038 29.2144 16.1074 25.313 10.3479C21.3807 4.54279 15.5262 3.08756 10.9554 3.62612C9.82865 3.75893 8.88316 4.55222 8.55671 5.63889C7.2327 10.0467 7.6492 16.0649 12.6833 20.9455C17.6779 25.7877 21.8356 24.6456 24.6017 22.3247Z" fill="#EDA751"/>
<path d="M8.37264 6.31323C7.28716 10.647 7.90089 16.309 12.6832 20.9453C17.0125 25.1425 20.7121 24.8426 23.4224 23.1771C21.5584 10.5229 13.4155 7.16722 8.37264 6.31323Z" fill="#FF91AB"/>
<path d="M41.8063 22.3247C39.0403 20.0038 37.1935 16.1074 41.095 10.3479C45.0273 4.54279 50.8818 3.08756 55.4525 3.62612C56.5793 3.75893 57.5248 4.55222 57.8512 5.63889C59.1753 10.0467 58.7588 16.0649 53.7248 20.9455C48.7299 25.7877 44.5723 24.6456 41.8063 22.3247Z" fill="#EDA751"/>
<path d="M58.0353 6.31323C59.1207 10.647 58.507 16.309 53.7247 20.9453C49.3955 25.1425 45.6958 24.8426 42.9855 23.1771C44.8495 10.5229 52.9925 7.16722 58.0353 6.31323Z" fill="#FF91AB"/>
<path d="M57.2694 25.8278C57.2694 36.8311 46.4949 41.6505 33.2039 41.6505C19.913 41.6505 9.13843 36.8311 9.13843 25.8278C9.13843 14.8244 19.913 5.9043 33.2039 5.9043C46.4949 5.9043 57.2694 14.8242 57.2694 25.8278Z" fill="#FFDC9C"/>
<path opacity="0.15" d="M20.3542 8.98047C13.6143 12.5112 9.13843 18.7365 9.13843 25.8279C9.13843 35.2868 17.1005 40.1757 27.7787 41.362C12.4504 32.2059 14.4495 19.8902 20.3542 8.98047Z" fill="#C17A00"/>
<path d="M21.3948 29.7618C23.8013 29.7618 25.7521 28.2081 25.7521 26.2914C25.7521 24.3748 23.8013 22.821 21.3948 22.821C18.9883 22.821 17.0375 24.3748 17.0375 26.2914C17.0375 28.2081 18.9883 29.7618 21.3948 29.7618Z" fill="#FF91AB"/>
<path d="M45.0128 29.7618C47.4193 29.7618 49.3701 28.2081 49.3701 26.2914C49.3701 24.3748 47.4193 22.821 45.0128 22.821C42.6064 22.821 40.6555 24.3748 40.6555 26.2914C40.6555 28.2081 42.6064 29.7618 45.0128 29.7618Z" fill="#FF91AB"/>
<path d="M36.5289 25.9268C36.5289 24.0905 35.0404 22.6018 33.204 22.6018C31.3677 22.6018 29.879 24.0905 29.879 25.9268V26.605C29.879 27.1129 30.2907 27.5245 30.7986 27.5245H35.6095C36.1174 27.5245 36.5289 27.1128 36.5289 26.605V25.9268Z" fill="#FF91AB"/>
<path d="M62.5789 19.1419C61.5645 19.3208 60.5972 18.6435 60.4183 17.6291L59.4876 12.351C59.3087 11.3365 59.986 10.3693 61.0004 10.1904C62.4951 9.92672 63.4968 8.49633 63.2332 7.00166C62.9697 5.50699 61.5391 4.50545 60.0445 4.76895C58.9085 4.96923 58.0108 5.86651 57.8104 7.00166C57.6314 8.01608 56.6637 8.6929 55.6497 8.51426C54.6353 8.33523 53.9581 7.36783 54.1371 6.3534C54.6088 3.68002 56.7224 1.56697 59.3967 1.09549C62.9169 0.474724 66.286 2.83374 66.9066 6.35393C67.4148 9.2361 65.9259 12.0167 63.4374 13.2708L64.0917 16.9815C64.2707 17.9957 63.5933 18.963 62.5789 19.1419Z" fill="#BD4568"/>
<path d="M63.3396 24.7058C64.2932 24.7058 65.0662 23.9328 65.0662 22.9792C65.0662 22.0257 64.2932 21.2527 63.3396 21.2527C62.386 21.2527 61.613 22.0257 61.613 22.9792C61.613 23.9328 62.386 24.7058 63.3396 24.7058Z" fill="#BD4568"/>
<path d="M3.86593 24.258C2.88364 23.9005 2.3771 22.8144 2.73463 21.8321L4.59493 16.7209C4.95246 15.7386 6.0386 15.2321 7.02089 15.5896C8.46828 16.1165 10.0744 15.3674 10.6012 13.92C11.128 12.4728 10.3791 10.8667 8.93166 10.3398C7.83171 9.93938 6.58739 10.2725 5.83527 11.1686C5.16324 11.9693 3.96925 12.0731 3.16866 11.4015C2.36793 10.7295 2.26368 9.5355 2.93571 8.73477C4.70689 6.62452 7.63674 5.83999 10.2264 6.78256C13.6353 8.0233 15.3992 11.8059 14.1585 15.2148C13.1427 18.0057 10.4231 19.6941 7.59968 19.5336L6.29188 23.1267C5.93435 24.1091 4.84821 24.6156 3.86593 24.258Z" fill="#BD4568"/>
<path d="M2.75086 29.4849C3.71865 29.4849 4.50319 28.7003 4.50319 27.7326C4.50319 26.7648 3.71865 25.9802 2.75086 25.9802C1.78308 25.9802 0.998535 26.7648 0.998535 27.7326C0.998535 28.7003 1.78308 29.4849 2.75086 29.4849Z" fill="#BD4568"/>
<path d="M25.3672 14.2997C23.5282 13.4144 21.3116 14.1899 20.426 16.0291C20.1873 16.5246 20.3955 17.12 20.8912 17.3587C21.0305 17.4259 21.1778 17.4576 21.3227 17.4576C21.6934 17.4576 22.0493 17.2499 22.2209 16.8934C22.6298 16.0441 23.6537 15.6856 24.503 16.0948C24.9986 16.3333 25.594 16.1251 25.8326 15.6294C26.0713 15.1338 25.863 14.5384 25.3672 14.2997ZM50.3618 30.2489C49.3649 29.5131 46.7981 28.2238 45.438 27.8627C44.9066 27.722 44.3609 28.0381 44.2197 28.5698C44.0785 29.1015 44.3952 29.647 44.9269 29.7882C46.0249 30.0796 48.3617 31.2487 49.1787 31.8517C49.3566 31.983 49.564 32.0464 49.7694 32.0464C50.0749 32.0464 50.3762 31.9064 50.5716 31.6418C50.8983 31.1992 50.8044 30.5756 50.3618 30.2489ZM45.9366 24.5908C45.3913 24.6629 45.0076 25.1636 45.0797 25.709C45.1518 26.2542 45.6528 26.6383 46.1977 26.5659C47.3239 26.4165 49.93 26.6075 50.9149 26.8537C50.9961 26.8739 51.0774 26.8837 51.1573 26.8837C51.6036 26.8836 52.0097 26.5816 52.1229 26.1289C52.2563 25.5952 51.9319 25.0543 51.3981 24.9209C50.1963 24.6203 47.3316 24.4061 45.9366 24.5908ZM20.2103 26.5659C20.7556 26.6377 21.2563 26.2543 21.3283 25.709C21.4004 25.1636 21.0167 24.6629 20.4714 24.5908C19.0763 24.4063 16.2118 24.6206 15.0099 24.9209C14.4761 25.0543 14.1518 25.5952 14.2851 26.1289C14.3983 26.5814 14.8044 26.8837 15.2507 26.8837C15.3307 26.8837 15.4119 26.874 15.493 26.8537C16.4781 26.6073 19.084 26.4169 20.2103 26.5659ZM62.7518 20.1229C63.5045 19.9902 64.1605 19.5724 64.5987 18.9464C65.0371 18.3203 65.2054 17.5609 65.0727 16.8083L64.54 13.7873C67.0516 12.1798 68.4123 9.15602 67.8877 6.18089C67.1717 2.11988 63.2854 -0.601848 59.2238 0.11441C57.5043 0.417621 55.9864 1.30946 54.8846 2.5733C50.5265 2.24578 46.2753 3.68667 43.0532 6.57959C39.9803 5.48455 36.6446 4.90828 33.204 4.90828C29.7672 4.90828 26.4287 5.49053 23.359 6.58344C19.9628 3.53075 15.4369 2.09531 10.839 2.63692C9.3146 2.81635 8.04425 3.8823 7.60278 5.35227C7.59773 5.36914 7.59295 5.3876 7.5879 5.4046C5.52918 5.5135 3.54775 6.45647 2.173 8.09458C1.67682 8.6856 1.44054 9.43453 1.50775 10.2032C1.57482 10.9721 1.93739 11.6686 2.52854 12.1649C3.74896 13.1886 5.5746 13.0291 6.59818 11.8092C6.71068 11.6752 6.84083 11.5617 6.98254 11.4682C7.08308 12.5794 7.30023 13.6689 7.632 14.727C7.54089 14.709 7.45031 14.6861 7.36159 14.6537C6.6363 14.3896 5.85191 14.424 5.15265 14.7501C4.45326 15.0763 3.92281 15.6552 3.65891 16.3802L1.79861 21.4914C1.53471 22.2165 1.56884 23.0009 1.89503 23.7004C2.15853 24.2654 2.58897 24.7174 3.12647 25.0104C2.60664 24.9376 2.07632 25.0144 1.58929 25.2415C0.924035 25.5517 0.419215 26.1024 0.168199 26.7923C-0.0829491 27.4822 -0.0502772 28.2284 0.259973 28.8938C0.570223 29.5592 1.121 30.0639 1.81096 30.3149C2.11775 30.4266 2.43557 30.4821 2.7526 30.4821C3.14851 30.4821 3.54296 30.3955 3.91245 30.2231C4.57784 29.9129 5.08253 29.3622 5.33368 28.6723C5.58482 27.9825 5.55215 27.2362 5.2419 26.5708C4.99474 26.0406 4.59298 25.6149 4.09148 25.3359C4.23226 25.357 4.37384 25.3698 4.51529 25.3698C4.93139 25.3698 5.34603 25.2787 5.73437 25.0976C6.43376 24.7715 6.96421 24.1925 7.22811 23.4675L8.29619 20.5327C8.52343 20.5226 8.74868 20.5009 8.97194 20.4704C8.4217 22.21 8.14253 24.0045 8.14253 25.8276C8.14253 30.3185 9.81172 34.0375 13.1037 36.8814C14.7126 38.2712 16.6737 39.4167 18.9632 40.3136C18.9269 40.4075 18.8924 40.5018 18.8582 40.5962C16.0114 41.7429 13.4129 41.7068 10.9272 40.4871C8.91696 39.5013 6.47918 40.3341 5.49292 42.3441C5.01506 43.3178 4.94507 44.4193 5.29582 45.4458C5.64658 46.4722 6.37599 47.3007 7.34977 47.7784C9.73747 48.9498 12.2634 49.5439 14.8574 49.5439C16.1199 49.5439 17.4069 49.3981 18.6953 49.1146C19.153 50.5549 19.8501 51.8995 20.7438 53.1086C19.6849 54.2394 18.1616 55.3295 16.2766 55.2215C14.4139 55.1143 12.749 53.8213 12.3178 52.1466C12.1238 51.3934 11.6482 50.7609 10.9785 50.3655C10.3087 49.97 9.52497 49.8591 8.77206 50.053C7.21735 50.4535 6.27824 52.0441 6.67853 53.5985C7.7409 57.7244 11.5502 60.7825 15.9434 61.0351C16.1267 61.0455 16.3124 61.0506 16.4952 61.0506C18.3018 61.0506 21.6575 60.5344 24.8126 57.2903C24.9316 59.2174 24.8762 61.2654 24.6428 63.5207C24.4122 65.748 26.0365 67.7474 28.2646 67.9783C28.4055 67.9926 28.547 68.0001 28.6857 68.0001C30.7714 68.0001 32.5062 66.4339 32.7211 64.3571C32.9074 62.5581 32.9961 60.8707 32.9933 59.2294C33.0635 59.2303 33.1335 59.2319 33.2038 59.2319C33.6502 59.2319 34.092 59.2127 34.5287 59.1771C34.5333 60.5489 34.4581 61.9794 34.2986 63.5207C34.0681 65.748 35.6924 67.7474 37.9204 67.9783C38.0613 67.9926 38.2029 68.0001 38.3416 68.0001C39.9757 68.0001 41.4429 67.0267 42.079 65.5201C42.293 65.0134 42.0558 64.4289 41.549 64.2149C41.0424 64.0012 40.4579 64.2383 40.2438 64.745C39.9199 65.5121 39.1731 66.0079 38.3416 66.0079C38.2708 66.0079 38.1975 66.004 38.1248 65.9966C36.9902 65.879 36.1628 64.8605 36.2802 63.7259C36.458 62.0088 36.5359 60.4182 36.5188 58.8894C37.9738 58.5844 39.35 58.0833 40.6143 57.4173C40.6658 58.5042 40.673 59.6254 40.6332 60.7685C40.6141 61.3184 41.0443 61.7795 41.5941 61.7986C41.606 61.7992 41.6177 61.7993 41.6295 61.7993C42.1635 61.7993 42.6056 61.3759 42.6244 60.8379C42.6796 59.2497 42.6499 57.6982 42.5367 56.2167C45.7177 53.8824 47.8751 50.3847 48.2694 46.4168C51.152 45.4988 53.8608 43.5903 55.4594 41.319C57.325 38.6685 57.7523 35.5997 56.6838 32.6294C57.7283 30.6086 58.2656 28.327 58.2656 25.8276C58.2656 23.3905 57.7706 21.019 56.8216 18.7917C57.794 17.3409 58.4408 15.8904 58.8546 14.4976L59.4372 17.8017C59.5699 18.5545 59.9879 19.2103 60.6138 19.6487C61.1003 19.9893 61.6672 20.1668 62.2489 20.1668C62.4158 20.1671 62.5841 20.1525 62.7518 20.1229ZM18.236 47.1764C17.0987 47.4245 15.9658 47.5518 14.8574 47.5518C12.5702 47.5518 10.3395 47.0264 8.22726 45.99C7.73121 45.7467 7.3596 45.3246 7.18096 44.8018C7.00233 44.2789 7.03793 43.7178 7.28137 43.2219C7.7838 42.1979 9.02586 41.7738 10.0496 42.2759C12.6698 43.5614 15.3683 43.7749 18.2513 42.9184C18.1326 43.6351 18.0723 44.3634 18.0723 45.1009C18.0724 45.8059 18.1287 46.4988 18.236 47.1764ZM53.6553 4.51874C53.4276 5.04428 53.2584 5.60076 53.1563 6.18022C53.1227 6.37054 53.1086 6.56113 53.113 6.74999C51.5308 7.45137 50.087 8.35622 48.8045 9.4498C47.6505 8.68135 46.4267 8.00467 45.1457 7.42414C47.5735 5.5406 50.5571 4.52166 53.6553 4.51874ZM11.072 4.61529C12.8855 4.40173 17.2706 4.30358 21.2664 7.42481C19.9809 8.00613 18.7561 8.68414 17.604 9.45033C14.9465 7.18535 12.0015 6.08646 9.66735 5.55547C9.95356 5.04162 10.4718 4.68595 11.072 4.61529ZM15.9398 10.6605C15.7345 10.8236 15.5316 10.9894 15.3322 11.1588C15.2258 10.7304 15.0795 10.3088 14.8968 9.89725C15.2476 10.1315 15.596 10.386 15.9398 10.6605ZM3.46142 27.991C3.39236 28.1809 3.25343 28.3323 3.07042 28.4178C2.88727 28.5031 2.68207 28.5122 2.49215 28.4429C2.30236 28.3737 2.15082 28.2351 2.06543 28.0519C1.98003 27.8689 1.97113 27.6636 2.04019 27.4738C2.10925 27.2839 2.24804 27.1325 2.43119 27.0469C2.53293 26.9995 2.6413 26.9757 2.75034 26.9757C2.8376 26.9757 2.92512 26.991 3.00946 27.0218C3.19925 27.0909 3.35079 27.2297 3.43618 27.4128C3.52158 27.596 3.53061 27.8012 3.46142 27.991ZM7.65617 18.5392C7.21709 18.5153 6.814 18.78 6.66366 19.1931L5.35586 22.7862C5.27391 23.0113 5.10936 23.191 4.89221 23.2923C4.67519 23.3934 4.43161 23.404 4.20663 23.3222C4.20663 23.3222 4.20663 23.3222 4.2065 23.3222C3.98151 23.2404 3.80182 23.0757 3.70061 22.8587C3.59941 22.6417 3.58879 22.3981 3.67073 22.1731L5.53103 17.062C5.61298 16.8368 5.77754 16.6571 5.99468 16.5558C6.11514 16.4996 6.24384 16.4713 6.37307 16.4713C6.47653 16.4713 6.58025 16.4895 6.68026 16.5259C7.6304 16.8716 8.65917 16.8263 9.5773 16.3983C10.4956 15.97 11.1915 15.2111 11.5372 14.2609C11.8831 13.3109 11.8378 12.2822 11.4096 11.3639C10.9814 10.4458 10.2224 9.74982 9.2725 9.40398C8.8374 9.24567 8.38597 9.17435 7.93893 9.17939C7.93043 9.17913 7.92219 9.17807 7.91369 9.17807H7.90386C7.89722 9.1782 7.89071 9.17913 7.88407 9.17926C6.81759 9.20689 5.78311 9.68156 5.07243 10.5282C4.75461 10.9069 4.1879 10.9564 3.80912 10.6385C3.62571 10.4845 3.51322 10.2683 3.49236 10.0298C3.47151 9.79113 3.54482 9.55871 3.69889 9.37516C4.84931 8.00453 6.576 7.29399 8.30841 7.39439C8.3112 7.39453 8.31399 7.39479 8.31691 7.39493C8.84484 7.4264 9.37317 7.53225 9.88582 7.71886C11.2845 8.22793 12.4022 9.25364 13.0333 10.6069C13.425 11.4468 13.599 12.3492 13.5533 13.2473C13.5533 13.248 13.5533 13.2485 13.5533 13.2492C13.5253 13.7976 13.4154 14.3443 13.2226 14.8743C12.3867 17.1707 10.0981 18.6808 7.65617 18.5392ZM8.98469 11.4792C9.25018 11.6591 9.46454 11.9067 9.60413 12.2058C9.80733 12.6416 9.82911 13.1294 9.66522 13.5795C9.61701 13.7119 9.55286 13.8353 9.47743 13.9504C9.2373 13.1454 9.07248 12.3199 8.98469 11.4792ZM16.4952 59.0586C16.3497 59.0586 16.2017 59.0545 16.0568 59.0462C12.5198 58.8428 9.45657 56.3985 8.6079 53.1018C8.48146 52.6109 8.77804 52.1085 9.26904 51.9821C9.50691 51.9211 9.75394 51.956 9.96551 52.0807C10.1771 52.2056 10.3273 52.4053 10.3885 52.6432C11.0299 55.1341 13.4581 57.0548 16.1617 57.2102C18.2716 57.3331 20.2862 56.4451 22.0439 54.6331C22.4733 55.0712 22.9319 55.4835 23.4165 55.8683C20.7553 58.6208 17.9821 59.0586 16.4952 59.0586ZM30.7396 64.1521C30.6229 65.2807 29.6329 66.1146 28.4691 65.9967C27.3345 65.8792 26.507 64.8606 26.6244 63.726C26.8395 61.6499 26.9109 59.7345 26.8401 57.9196C28.1385 58.484 29.5361 58.8814 31.0014 59.0818C31.0099 60.7003 30.9244 62.3675 30.7396 64.1521ZM53.8302 40.1727C52.6104 41.9057 50.5294 43.4369 48.3106 44.289C48.2284 42.9217 47.9381 41.5898 47.4435 40.3102C48.6255 39.847 49.7241 39.3177 50.7287 38.7225C52.5366 37.6513 54.0306 36.3728 55.1995 34.9119C55.4344 36.7352 54.9714 38.5514 53.8302 40.1727ZM54.7374 32.0674C54.7282 32.0829 54.7192 32.0983 54.711 32.1144C53.6157 34.0477 51.9479 35.6844 49.7131 37.0085C48.5442 37.701 47.2326 38.2981 45.795 38.7978C45.7848 38.8012 45.7747 38.8044 45.7646 38.8083C42.2569 40.0224 37.9977 40.6546 33.204 40.6546C32.2059 40.6546 31.2142 40.6265 30.2565 40.571C29.7085 40.5364 29.2362 40.9585 29.2045 41.5078C29.1726 42.057 29.592 42.5281 30.1412 42.5598C31.1372 42.6176 32.1676 42.6468 33.204 42.6468C37.8353 42.6468 42.0137 42.074 45.5617 40.9697C46.0802 42.2899 46.3434 43.6757 46.3434 45.1011C46.3434 45.2695 46.3386 45.4367 46.3313 45.6034C46.3312 45.6064 46.331 45.6095 46.3309 45.6125C46.0396 52.0696 40.2635 57.24 33.204 57.24C25.9589 57.24 20.0646 51.7944 20.0646 45.1011C20.0646 43.9249 20.2432 42.7756 20.597 41.668C20.6035 41.6491 20.6104 41.6303 20.6159 41.6111C20.6855 41.397 20.762 41.1847 20.8447 40.9739C22.241 41.4071 23.7415 41.7598 25.3439 42.0292C25.3998 42.0385 25.4554 42.043 25.5103 42.043C25.9877 42.043 26.4096 41.6985 26.4914 41.212C26.5826 40.6695 26.2168 40.1558 25.6743 40.0644C23.8727 39.7613 22.2143 39.3504 20.7042 38.834C20.6524 38.8107 20.5997 38.7914 20.5464 38.7775C18.0946 37.9209 16.0382 36.7841 14.4058 35.374C11.5716 32.9257 10.1344 29.7139 10.1344 25.8278C10.1344 23.737 10.5478 21.6865 11.362 19.727C13.0542 18.875 14.4216 17.4045 15.0945 15.5557C15.3169 14.9443 15.4573 14.3164 15.5181 13.6849C16.309 12.9101 17.1643 12.1946 18.0762 11.5425C18.0877 11.535 18.0988 11.5269 18.1101 11.5188C19.7219 10.3706 21.507 9.41912 23.4162 8.6844C23.4563 8.67245 23.4955 8.65704 23.534 8.63978C26.523 7.50636 29.8096 6.90047 33.2038 6.90047C45.9244 6.90047 56.2733 15.3913 56.2733 25.8278C56.2734 28.1628 55.7581 30.246 54.7374 32.0674ZM55.7696 16.6972C54.5493 14.5984 52.8998 12.6644 50.8561 10.9725C50.7291 10.8674 50.6007 10.7642 50.4715 10.6617C51.4954 9.84332 52.6273 9.1515 53.8577 8.5998C54.2817 9.0685 54.8442 9.38353 55.4769 9.49536C56.1922 9.6214 56.8931 9.46813 57.4682 9.11498C57.6075 11.2288 57.3166 13.9314 55.7696 16.6972ZM59.4906 9.83297C59.4718 8.52264 59.2975 7.37195 59.0933 6.46046C59.356 6.09363 59.7556 5.83119 60.2176 5.74978C60.6789 5.66876 61.1444 5.77222 61.5293 6.04183C61.9142 6.31131 62.1711 6.7136 62.2522 7.17446C62.3335 7.63532 62.2299 8.10122 61.9603 8.48611C61.6907 8.871 61.2884 9.12786 60.8275 9.20914C60.3266 9.2976 59.8702 9.51461 59.4906 9.83297ZM61.7567 18.017C61.5665 17.8838 61.4397 17.6846 61.3993 17.4559L60.4685 12.1778C60.4282 11.9492 60.4793 11.7186 60.6125 11.5285C60.7457 11.3383 60.9448 11.2113 61.1734 11.1711C62.1583 10.9973 63.0173 10.4496 63.592 9.62883C64.1668 8.80792 64.3877 7.81342 64.2141 6.82861C64.0404 5.84368 63.4927 4.98464 62.6719 4.40983C62.0337 3.96305 61.2908 3.7301 60.5288 3.7301C60.3107 3.7301 60.0909 3.74936 59.8717 3.78787C58.6665 4.00024 57.6606 4.79034 57.145 5.85961C57.1385 5.87263 57.1321 5.88564 57.1262 5.89893C56.9896 6.19085 56.8874 6.50176 56.8297 6.82835C56.7465 7.3001 56.2948 7.61619 55.8229 7.53318C55.5943 7.49281 55.3951 7.36584 55.262 7.17579C55.2281 7.12744 55.1999 7.07644 55.1767 7.02372C55.1734 7.01429 55.1709 7.00486 55.1673 6.99543C55.1645 6.98852 55.1611 6.98201 55.1582 6.97524C55.106 6.83313 55.0911 6.67946 55.1182 6.52633C55.5174 4.26374 57.3064 2.47542 59.5699 2.07618C62.5493 1.55091 65.4007 3.54735 65.9259 6.52686C66.3431 8.89225 65.1354 11.2996 62.9894 12.3812C62.5969 12.579 62.3805 13.0108 62.4567 13.4437L63.111 17.1543C63.1513 17.383 63.1002 17.6135 62.9671 17.8037C62.8339 17.9938 62.6347 18.1207 62.4061 18.161C62.1777 18.2012 61.9467 18.1501 61.7567 18.017ZM64.9009 20.7491C64.3051 20.3319 63.5827 20.1712 62.8665 20.2981C62.1502 20.4242 61.526 20.8217 61.1088 21.4177C60.6917 22.0133 60.5315 22.736 60.6578 23.4522C60.7841 24.1685 61.1817 24.7927 61.7775 25.2097C62.2405 25.5338 62.7799 25.7029 63.3334 25.7029C63.4923 25.7029 63.6523 25.6889 63.8121 25.6608C65.2906 25.4001 66.2813 23.9852 66.0206 22.5066C65.8942 21.7905 65.4965 21.1661 64.9009 20.7491ZM63.466 23.699C63.0686 23.7681 62.6896 23.503 62.6197 23.1064C62.5858 22.9142 62.6287 22.7203 62.7407 22.5604C62.8526 22.4006 63.0201 22.294 63.2123 22.26C63.2551 22.2524 63.2976 22.2488 63.3395 22.2488C63.6872 22.2488 63.9963 22.4986 64.0587 22.8527C64.1286 23.2493 63.8627 23.6289 63.466 23.699ZM44.8144 18.4457C44.8144 17.8955 44.3685 17.4496 43.8184 17.4496H41.7045C41.1544 17.4496 40.7084 17.8955 40.7084 18.4457C40.7084 18.996 41.1544 19.4418 41.7045 19.4418H43.8184C44.3685 19.4418 44.8144 18.996 44.8144 18.4457ZM20.97 27.8627C19.6098 28.2238 17.0432 29.5131 16.0462 30.2489C15.6037 30.5756 15.5096 31.1992 15.8364 31.6418C16.0317 31.9064 16.3331 32.0464 16.6385 32.0464C16.844 32.0464 17.0513 31.983 17.2293 31.8517C18.0462 31.2487 20.3832 30.0796 21.481 29.7882C22.0127 29.647 22.3293 29.1015 22.1882 28.5698C22.0472 28.0382 21.5019 27.7219 20.97 27.8627ZM42.4736 20.2955C41.9235 20.2955 41.4775 20.7414 41.4775 21.2916V22.8304C41.4775 23.3806 41.9235 23.8265 42.4736 23.8265C43.0237 23.8265 43.4697 23.3806 43.4697 22.8304V21.2916C43.4697 20.7414 43.0237 20.2955 42.4736 20.2955ZM23.9343 20.2955C23.3842 20.2955 22.9382 20.7414 22.9382 21.2916V22.8304C22.9382 23.3806 23.3842 23.8265 23.9343 23.8265C24.4844 23.8265 24.9304 23.3806 24.9304 22.8304V21.2916C24.9304 20.7414 24.4844 20.2955 23.9343 20.2955ZM33.204 21.6057C30.8213 21.6057 28.8829 23.5441 28.8829 25.9268V26.6049C28.8829 27.6612 29.7424 28.5206 30.7986 28.5206H35.6095C36.6657 28.5206 37.525 27.6612 37.525 26.6049V25.9268C37.525 23.5441 35.5866 21.6057 33.204 21.6057ZM35.5328 26.5284H30.8751V25.9268C30.8751 24.6426 31.9198 23.5979 33.204 23.5979C34.488 23.5979 35.5328 24.6426 35.5328 25.9268V26.5284Z" fill="#151515"/>
</g>
<defs>
<clipPath id="clip0_20_647">
<rect width="68" height="68" fill="white"/>
</clipPath>
</defs>
</svg>
