<svg width="66" height="66" viewBox="0 0 66 66" fill="none" xmlns="http://www.w3.org/2000/svg">
<g clip-path="url(#clip0_716_17381)">
<path d="M16.2531 51.2225C19.932 50.839 23.1276 49.2055 25.1361 46.5949C26.0127 45.4555 25.7997 43.8212 24.6603 42.9446C23.5209 42.0679 21.8866 42.2811 21.01 43.4204C19.8699 44.9024 17.3131 46.3748 13.5579 46.0618C12.1259 45.9422 10.8673 47.0071 10.7479 48.4398C10.6285 49.8723 11.6932 51.1304 13.1258 51.2498C14.1949 51.3389 15.2425 51.3278 16.2531 51.2225Z" fill="#EDA751"/>
<path d="M1.36142 48.7206C2.7558 50.1737 5.51325 52.5662 8.84471 52.9466C11.5403 53.2543 14.0261 51.3481 14.2534 48.6446C14.4754 46.0037 12.4956 43.6991 9.86024 43.5126C6.37434 43.2659 3.1491 45.3406 1.50953 46.6257C0.849656 47.1427 0.780949 48.1155 1.36142 48.7206Z" fill="#78CFC0"/>
<path d="M12.5618 58.4158C11.9939 58.4158 11.4426 58.1182 11.1435 57.5885C10.7019 56.8061 10.978 55.8137 11.7603 55.372C13.6955 54.2795 15.6232 54.2235 17.324 54.1743C20.2942 54.0882 22.8596 54.0138 25.8923 48.3513C26.3165 47.5592 27.3026 47.261 28.0944 47.6853C28.8865 48.1095 29.1847 49.0954 28.7604 49.8874C24.8379 57.2113 20.7239 57.3307 17.4182 57.4265C15.9029 57.4704 14.5942 57.5083 13.36 58.2052C13.1073 58.348 12.8326 58.4158 12.5618 58.4158Z" fill="#EDA751"/>
<path d="M13.7768 54.5645C13.1118 54.7371 12.4367 54.9902 11.7604 55.3721C10.978 55.8138 10.7019 56.8061 11.1436 57.5886C11.4427 58.1183 11.994 58.4159 12.5618 58.4159C12.8327 58.4159 13.1074 58.3481 13.3602 58.2056C13.8561 57.9256 14.3645 57.7531 14.893 57.6426C14.8346 56.2682 14.2592 55.1454 13.7768 54.5645Z" fill="#FCD79D"/>
<path d="M28.0273 64.843C26.7518 64.843 25.6378 63.9048 25.4534 62.6055C24.998 59.3969 25.3566 56.6412 25.6186 54.629C25.7002 54.0013 25.7708 53.4591 25.8063 52.9968C25.9164 51.5634 27.1678 50.4914 28.601 50.601C30.0343 50.7111 31.107 51.9624 30.997 53.3957C30.9509 53.9947 30.8683 54.6292 30.7809 55.3009C30.5329 57.2065 30.2517 59.3665 30.6078 61.874C30.8098 63.2974 29.8198 64.6149 28.3964 64.8169C28.2724 64.8345 28.149 64.843 28.0273 64.843Z" fill="#EDA751"/>
<path d="M37.973 64.8428C37.8512 64.8428 37.7281 64.8343 37.6039 64.8166C36.1807 64.6146 35.1905 63.2971 35.3925 61.8737C35.7485 59.3662 35.4674 57.2062 35.2194 55.3006C35.132 54.6288 35.0495 53.9945 35.0034 53.3953C34.8933 51.962 35.9659 50.7107 37.3992 50.6006C38.832 50.4898 40.0838 51.5632 40.1941 52.9965C40.2296 53.4588 40.3002 54.0009 40.3818 54.6287C40.6436 56.6408 41.0022 59.3965 40.5469 62.6052C40.3625 63.9046 39.2485 64.8428 37.973 64.8428Z" fill="#EDA751"/>
<path opacity="0.2" d="M28.0945 47.6853C27.3027 47.261 26.3165 47.5592 25.8924 48.3513C24.1459 51.6124 22.5543 53.0198 20.9512 53.6437C21.6211 54.5622 22.4061 55.4005 23.2867 56.1403C25.0862 55.1256 26.944 53.2797 28.7607 49.8875C29.1848 49.0954 28.8865 48.1094 28.0945 47.6853Z" fill="#A35F00"/>
<path opacity="0.2" d="M40.3818 54.6287C40.3 54.0009 40.2295 53.4588 40.1941 52.9965C40.084 51.5631 38.8321 50.4898 37.3993 50.6006C35.9659 50.7107 34.8932 51.962 35.0034 53.3953C35.0494 53.9944 35.132 54.6289 35.2194 55.3006C35.3826 56.5545 35.559 57.9193 35.5599 59.4201C37.4161 59.1098 39.152 58.4677 40.6967 57.5623C40.6201 56.4663 40.4926 55.4803 40.3818 54.6287Z" fill="#A35F00"/>
<path opacity="0.2" d="M28.6005 50.6007C27.1673 50.4913 25.9159 51.5633 25.8058 52.9966C25.7703 53.4588 25.6997 54.001 25.6181 54.6288C25.5073 55.4803 25.3797 56.4663 25.3032 57.5622C26.8479 58.4676 28.5836 59.1097 30.44 59.42C30.4409 57.9194 30.6173 56.5544 30.7805 55.3005C30.8679 54.6288 30.9504 53.9944 30.9965 53.3953C31.1066 51.9621 30.0338 50.7108 28.6005 50.6007Z" fill="#A35F00"/>
<path d="M33 57.028C39.631 57.028 45.0064 52.0334 45.0064 45.8724C45.0064 39.7113 39.631 34.7168 33 34.7168C26.3691 34.7168 20.9937 39.7113 20.9937 45.8724C20.9937 52.0334 26.3691 57.028 33 57.028Z" fill="#FCD690"/>
<path opacity="0.15" d="M31.2467 56.91C25.7605 53.3081 27.4607 45.9256 28.3921 42.6971V35.5686C24.0485 37.2477 20.9941 41.2285 20.9941 45.8728C20.9941 51.4806 25.4472 56.1214 31.2467 56.91Z" fill="#C18F00"/>
<path opacity="0.2" d="M24.6602 42.9444C23.5208 42.0677 21.8865 42.2809 21.0099 43.4202C19.9518 44.7953 17.6735 46.1611 14.3506 46.1012C15.2136 48.0281 16.593 49.6751 18.3123 50.8649C21.1143 50.1755 23.5128 48.7043 25.136 46.5946C26.0127 45.4553 25.7996 43.8211 24.6602 42.9444Z" fill="#A35F00"/>
<path d="M49.7467 51.2225C46.0679 50.839 42.8723 49.2055 40.8638 46.5949C39.9872 45.4555 40.2002 43.8212 41.3396 42.9446C42.479 42.0679 44.1133 42.2811 44.9898 43.4204C46.13 44.9024 48.6867 46.3748 52.4419 46.0618C53.874 45.9422 55.1326 47.0071 55.252 48.4398C55.3713 49.8723 54.3067 51.1304 52.874 51.2498C51.805 51.3389 50.7574 51.3278 49.7467 51.2225Z" fill="#EDA751"/>
<path d="M64.6385 48.7206C63.2441 50.1737 60.4866 52.5662 57.1552 52.9466C54.4596 53.2543 51.9738 51.3481 51.7465 48.6446C51.5244 46.0037 53.5043 43.6991 56.1396 43.5126C59.6255 43.2659 62.8508 45.3406 64.4903 46.6257C65.1504 47.1427 65.2189 48.1155 64.6385 48.7206Z" fill="#78CFC0"/>
<path opacity="0.2" d="M41.3396 42.9444C42.479 42.0677 44.1133 42.2809 44.9899 43.4202C46.048 44.7953 48.3263 46.1611 51.6492 46.1012C50.7862 48.0281 49.4067 49.6751 47.6875 50.8649C44.8855 50.1755 42.487 48.7043 40.8638 46.5946C39.9871 45.4553 40.2002 43.8211 41.3396 42.9444Z" fill="#A35F00"/>
<path d="M56.1405 23.0166C58.2585 21.1466 59.5856 18.4011 59.5543 15.3461C59.4993 9.97214 55.1717 5.54239 49.8002 5.36862C47.2489 5.28612 44.9031 6.15289 43.0849 7.64061C42.8227 7.85523 42.4305 7.75185 42.3036 7.43758C40.8187 3.75587 37.2136 1.15698 33.0002 1.15698C28.7867 1.15698 25.1816 3.75587 23.6966 7.43758C23.5699 7.75185 23.1776 7.85523 22.9153 7.64073C21.097 6.15302 18.7513 5.28612 16.2 5.36875C10.8286 5.54252 6.50105 9.97227 6.44601 15.3463C6.41469 18.4012 7.74165 21.1466 9.85972 23.0166C10.1325 23.2574 10.0581 23.7054 9.72295 23.8468C6.41159 25.2446 4.10983 28.5641 4.21592 32.4081C4.34625 37.1315 8.17839 40.9938 12.9006 41.1605C13.7264 41.1896 14.5281 41.1071 15.2925 40.9274C15.6097 40.8529 15.907 41.0964 15.9067 41.4223C15.9067 41.4246 15.9067 41.4268 15.9067 41.4291C15.9067 46.3532 19.8986 50.3451 24.8227 50.3451C28.1272 50.3451 31.0109 48.5467 32.5508 45.8756C32.7489 45.5318 33.2438 45.5442 33.429 45.8951C34.9276 48.7329 37.9063 50.6677 41.3389 50.6677C46.2776 50.6677 50.2811 46.6642 50.2811 41.7255C50.2811 41.6412 50.28 41.5571 50.2777 41.4735C50.2685 41.1466 50.5631 40.8964 50.8827 40.9651C51.6392 41.1276 52.4303 41.1961 53.2447 41.1539C57.9391 40.9111 61.6982 37.0266 61.7866 32.3266C61.8581 28.5172 59.5656 25.2347 56.2779 23.8468C55.9423 23.7054 55.8676 23.2575 56.1405 23.0166Z" fill="#7694E4"/>
<g opacity="0.1">
<path d="M33 15.0731C32.4661 15.0731 32.0332 14.6403 32.0332 14.1063V7.61524C32.0332 7.08131 32.4661 6.64844 33 6.64844C33.5339 6.64844 33.9668 7.08131 33.9668 7.61524V14.1063C33.9668 14.6403 33.5339 15.0731 33 15.0731Z" fill="#151515"/>
<path d="M9.48725 34.0609C9.05103 34.0609 8.65503 33.7635 8.54817 33.3206C8.423 32.8015 8.74217 32.2792 9.26128 32.154L19.0427 29.794C19.5621 29.6689 20.0842 29.988 20.2093 30.5071C20.3345 31.0262 20.0153 31.5485 19.4962 31.6737L9.71477 34.0337C9.63859 34.0522 9.56228 34.0609 9.48725 34.0609Z" fill="#151515"/>
<path d="M23.6691 46.176C23.5991 46.176 23.5281 46.1684 23.4569 46.1524C22.9359 46.0356 22.6081 45.5187 22.7247 44.9976L24.1833 38.4857C24.3001 37.9646 24.8175 37.6371 25.3381 37.7535C25.8591 37.8703 26.1869 38.3872 26.0703 38.9082L24.6115 45.4202C24.511 45.8702 24.1116 46.176 23.6691 46.176Z" fill="#151515"/>
<path d="M42.3311 46.1759C41.8884 46.1759 41.4893 45.8701 41.3885 45.4202L39.9298 38.9083C39.8132 38.3872 40.141 37.8703 40.662 37.7535C41.1828 37.637 41.7 37.9647 41.8168 38.4857L43.2753 44.9977C43.392 45.5187 43.0642 46.0356 42.5431 46.1524C42.4721 46.1683 42.4011 46.1759 42.3311 46.1759Z" fill="#151515"/>
<path d="M56.513 34.0609C56.4379 34.0609 56.3617 34.0521 56.2854 34.0337L46.5039 31.6736C45.985 31.5483 45.6657 31.0261 45.7908 30.507C45.9161 29.9881 46.4387 29.669 46.9574 29.7939L56.7389 32.154C57.2579 32.2792 57.5772 32.8015 57.452 33.3206C57.3453 33.7634 56.9494 34.0609 56.513 34.0609Z" fill="#151515"/>
</g>
<path d="M25.6936 26.5281C28.0429 24.5569 29.6113 21.2477 26.2978 16.3559C22.9579 11.4253 17.9855 10.1895 14.1035 10.6468C13.1465 10.7596 12.3434 11.4334 12.0661 12.3564C10.9416 16.1 11.2952 21.2115 15.5709 25.3568C19.813 29.4695 23.3443 28.4995 25.6936 26.5281Z" fill="#EDA751"/>
<path d="M11.9099 12.9292C10.988 16.61 11.5093 21.419 15.571 25.3568C19.2479 28.9216 22.3902 28.6669 24.6922 27.2524C23.1089 16.5047 16.1928 13.6546 11.9099 12.9292Z" fill="#FF91AB"/>
<path d="M40.3062 26.5281C37.957 24.5569 36.3884 21.2477 39.702 16.3559C43.0418 11.4253 48.0143 10.1895 51.8963 10.6468C52.8533 10.7596 53.6564 11.4334 53.9337 12.3564C55.0581 16.1 54.7045 21.2115 50.4288 25.3568C46.1868 29.4695 42.6555 28.4995 40.3062 26.5281Z" fill="#EDA751"/>
<path d="M54.0899 12.9292C55.0118 16.61 54.4905 21.419 50.4288 25.3568C46.7519 28.9216 43.6096 28.6669 41.3076 27.2524C42.8908 16.5047 49.807 13.6546 54.0899 12.9292Z" fill="#FF91AB"/>
<path d="M53.4394 29.5035C53.4394 38.8491 44.2883 42.9423 32.9998 42.9423C21.7113 42.9423 12.5601 38.8491 12.5601 29.5035C12.5601 20.1579 21.7111 12.5818 32.9998 12.5818C44.2884 12.5818 53.4394 20.1579 53.4394 29.5035Z" fill="#FFDC9C"/>
<path opacity="0.15" d="M22.086 15.1943C16.3616 18.1931 12.5601 23.4805 12.5601 29.5034C12.5601 37.5371 19.3225 41.6896 28.3919 42.697C15.3731 34.9205 17.0709 24.4604 22.086 15.1943Z" fill="#C18F00"/>
<path d="M22.9698 32.8443C25.0137 32.8443 26.6706 31.5248 26.6706 29.8971C26.6706 28.2695 25.0137 26.95 22.9698 26.95C20.9259 26.95 19.269 28.2695 19.269 29.8971C19.269 31.5248 20.9259 32.8443 22.9698 32.8443Z" fill="#FF91AB"/>
<path d="M43.0304 32.8443C45.0743 32.8443 46.7312 31.5248 46.7312 29.8971C46.7312 28.2695 45.0743 26.95 43.0304 26.95C40.9865 26.95 39.3296 28.2695 39.3296 29.8971C39.3296 31.5248 40.9865 32.8443 43.0304 32.8443Z" fill="#FF91AB"/>
<path d="M60.7713 46.9708L54.8898 47.3871C54.3571 47.4247 53.9558 47.8871 53.9936 48.4197C54.0297 48.9292 54.4541 49.3183 54.9571 49.3183C54.98 49.3183 55.0031 49.3176 55.0263 49.3159L60.9078 48.8997C61.4404 48.8619 61.8417 48.3996 61.8039 47.867C61.7662 47.3345 61.3027 46.9337 60.7713 46.9708ZM65.9941 47.5715C65.9466 46.9013 65.616 46.2792 65.0868 45.8645C63.3586 44.51 59.8895 42.2781 56.0715 42.548C54.5353 42.6567 53.1378 43.3609 52.1361 44.5306C51.9717 44.7226 51.8228 44.9239 51.6869 45.1318C51.3345 45.1401 50.9889 45.1311 50.6511 45.1049C51.0039 44.1355 51.2122 43.0973 51.2433 42.0149C51.9201 42.1199 52.6076 42.155 53.294 42.1198C58.4999 41.8505 62.6546 37.5569 62.7526 32.3452C62.8253 28.4767 60.705 24.982 57.297 23.2548C59.384 21.1601 60.5512 18.3125 60.5207 15.3363C60.4914 12.4866 59.3697 9.78586 57.3619 7.7316C55.3537 5.67696 52.6791 4.49463 49.8312 4.40246C47.359 4.32241 44.9416 5.07032 42.9571 6.51795C41.15 2.65435 37.3052 0.19043 33 0.19043C28.6948 0.19043 24.85 2.65448 23.0426 6.51795C21.0582 5.07045 18.6412 4.32215 16.1686 4.40246C13.3206 4.49463 10.6461 5.67696 8.6379 7.7316C6.63017 9.78586 5.5083 12.4865 5.47916 15.3363C5.44874 18.3124 6.61586 21.1598 8.70274 23.2547C5.2617 24.9972 3.14144 28.5271 3.24933 32.4348C3.3941 37.6844 7.6185 41.9415 12.8663 42.1268C13.5683 42.1515 14.2685 42.1033 14.9551 41.9832C15.0154 43.0707 15.2547 44.1109 15.6401 45.0776C15.2105 45.1241 14.7674 45.1423 14.313 45.1318C14.1771 44.9239 14.0283 44.7227 13.8639 44.5307C12.8622 43.361 11.4647 42.6568 9.92851 42.5482C6.11184 42.2771 2.64141 44.5101 0.913157 45.8647C0.383995 46.2794 0.0534782 46.9015 0.00591158 47.5717C-0.0415261 48.242 0.19824 48.9047 0.663723 49.3899C2.1107 50.898 5.08342 53.4903 8.73496 53.9072C8.95823 53.9327 9.18188 53.9452 9.40502 53.9452C10.7695 53.9452 12.1101 53.4748 13.1639 52.611C13.3048 52.4955 13.4386 52.3741 13.5664 52.2479C13.8988 52.2662 14.2305 52.276 14.5604 52.276C15.1656 52.276 15.7653 52.2453 16.3536 52.1839C18.0837 52.0036 19.7052 51.566 21.1859 50.8824C21.3808 51.2843 21.5984 51.6741 21.8373 52.0513C20.4022 53.1176 19.0061 53.1582 17.2957 53.2078C15.5728 53.2579 13.4286 53.32 11.2853 54.53C10.04 55.2331 9.59889 56.8183 10.302 58.0638C10.7612 58.8772 11.6272 59.3825 12.5621 59.3825C13.0067 59.3825 13.4471 59.2665 13.8355 59.0472C14.8616 58.4679 16.0023 58.4349 17.4466 58.3929C19.4683 58.3342 21.8949 58.2628 24.4141 56.5829C24.2446 58.3236 24.1642 60.4016 24.4963 62.741C24.7445 64.4903 26.2627 65.8094 28.0274 65.8094C28.1951 65.8094 28.3649 65.7974 28.5322 65.7737C30.4809 65.497 31.8414 63.6865 31.565 61.7376C31.3635 60.3186 31.3841 59.0096 31.4651 57.911C31.9716 57.9667 32.4837 57.9954 33.0001 57.9954C33.5177 57.9954 34.0298 57.9655 34.5351 57.9097C34.6162 59.0087 34.6368 60.3181 34.4354 61.7379C34.1589 63.6868 35.5195 65.4973 37.4684 65.7738C37.6356 65.7975 37.8054 65.8095 37.9731 65.8095C39.3833 65.8095 40.6635 64.9757 41.2344 63.6854C41.4505 63.1971 41.2298 62.6262 40.7415 62.4101C40.2533 62.1942 39.6824 62.4146 39.4662 62.9031C39.2047 63.4941 38.6185 63.8759 37.9731 63.8759C37.8957 63.8759 37.8172 63.8702 37.7399 63.8594C36.8467 63.7327 36.2232 62.9028 36.3499 62.0096C36.5887 60.3265 36.5494 58.8052 36.4475 57.56C37.5643 57.2729 38.6281 56.8489 39.6133 56.3037C39.7119 57.2094 39.7922 58.2203 39.7979 59.3153C39.8006 59.8476 40.2329 60.2771 40.7646 60.2771H40.7697C41.3036 60.2743 41.7342 59.8392 41.7315 59.3053C41.7231 57.7033 41.5627 56.25 41.4172 55.0994C42.7983 53.9995 43.9412 52.6233 44.7421 51.0313C44.8165 51.0039 44.8898 50.9745 44.9633 50.9455C46.409 51.5923 47.9813 52.0103 49.6466 52.1839C50.2351 52.2453 50.8345 52.276 51.4398 52.276C51.7697 52.276 52.1014 52.2661 52.4338 52.2479C52.5616 52.3741 52.6954 52.4955 52.8363 52.611C53.8901 53.4748 55.2306 53.9452 56.5952 53.9452C56.8182 53.9452 57.042 53.9327 57.2653 53.9072C60.9168 53.4903 63.8895 50.898 65.3365 49.3899C65.8017 48.9047 66.0415 48.242 65.9941 47.5715ZM13.2899 48.5635C13.2058 49.5637 12.7258 50.47 11.9382 51.1156C11.1139 51.7912 10.0266 52.1081 8.95423 51.9859C5.90584 51.6379 3.32565 49.3712 2.05888 48.0511C1.93848 47.9255 1.92933 47.7823 1.93449 47.708C1.93977 47.6339 1.96903 47.4935 2.10567 47.3863C3.61504 46.2033 6.62025 44.252 9.79174 44.4767C10.8078 44.5487 11.7323 45.0144 12.3949 45.7881C12.5957 46.0226 12.7642 46.2768 12.9001 46.5452C12.9029 46.5502 12.9052 46.5555 12.9082 46.5604C13.2151 47.1739 13.3489 47.8614 13.2899 48.5635ZM16.153 50.2608C15.7207 50.3059 15.2807 50.3314 14.8365 50.3392C15.04 49.8295 15.1695 49.2874 15.2167 48.7255C15.2643 48.1582 15.2283 47.5972 15.114 47.0562C15.6196 47.0335 16.1137 46.98 16.5935 46.8944C17.2976 47.9509 18.1998 48.8636 19.2463 49.5816C18.2735 49.9196 17.2392 50.1476 16.153 50.2608ZM17.39 56.4603C15.8149 56.5061 14.3272 56.5492 12.8846 57.3635C12.7842 57.4203 12.6755 57.449 12.5617 57.449C12.3231 57.449 12.1023 57.3204 11.9853 57.1133C11.8064 56.7964 11.9187 56.3929 12.2356 56.214C13.9624 55.239 15.6852 55.189 17.3519 55.1407C19.1857 55.0874 21.0743 55.0321 22.999 53.5966C23.2916 53.927 23.6037 54.2427 23.9336 54.5433C21.6633 56.3349 19.4948 56.3992 17.39 56.4603ZM28.2606 63.8594C28.183 63.8704 28.1044 63.8759 28.0271 63.8759C27.2193 63.8759 26.5242 63.2712 26.4104 62.4694C26.0779 60.1272 26.1989 58.0292 26.3869 56.3043C27.3826 56.8573 28.4456 57.2792 29.5524 57.5633C29.4505 58.8079 29.4116 60.3279 29.6502 62.0093C29.7771 62.9028 29.1535 63.7327 28.2606 63.8594ZM39.8634 53.8556C39.8268 53.8792 39.7918 53.9047 39.7589 53.9328C37.8648 55.2862 35.504 56.062 32.9999 56.062C29.1522 56.062 25.6045 54.1839 23.6161 51.236C24.0118 51.2844 24.4138 51.3121 24.8224 51.3121C28.0804 51.3121 31.1334 49.6878 32.967 47.0259C34.7771 49.8873 37.9175 51.6348 41.3386 51.6348C41.6055 51.6348 41.8694 51.6213 42.1312 51.6004C41.4975 52.462 40.731 53.22 39.8634 53.8556ZM41.3386 49.7012C38.3736 49.7012 35.6704 48.0699 34.2836 45.444C34.0332 44.9694 33.5451 44.6684 33.0102 44.6585C33.001 44.6584 32.9919 44.6582 32.9828 44.6582C32.46 44.6582 31.9753 44.938 31.7129 45.393C30.2956 47.8514 27.6554 49.3785 24.8224 49.3785C20.4392 49.3785 16.8732 45.8126 16.8732 41.4234C16.8736 40.9683 16.6702 40.5456 16.3149 40.2639C15.9626 39.9846 15.5093 39.8835 15.0711 39.9864C14.3753 40.15 13.6562 40.2198 12.9346 40.1945C8.70415 40.045 5.29895 36.6133 5.18216 32.3815C5.08987 29.0378 7.01973 26.0374 10.0988 24.7376C10.5647 24.5409 10.8917 24.1247 10.9734 23.624C11.0552 23.1241 10.8779 22.6261 10.4994 22.292C8.51053 20.536 7.38544 18.0079 7.41251 15.3563C7.43661 13.0071 8.36294 10.7793 10.0205 9.08332C11.6784 7.38704 13.884 6.41108 16.2311 6.33516C18.4389 6.26336 20.5967 6.9931 22.3029 8.38916C22.6622 8.68319 23.1452 8.78993 23.5942 8.67481C24.0451 8.55931 24.4185 8.23202 24.5929 7.79941C25.9835 4.35167 29.2835 2.12403 33 2.12403C36.7165 2.12403 40.0164 4.3518 41.4069 7.79941C41.5814 8.23202 41.9547 8.55919 42.4057 8.67481C42.855 8.79006 43.3377 8.68306 43.697 8.38916C45.4031 6.9931 47.5594 6.26361 49.7688 6.33516C52.116 6.41108 54.3214 7.38704 55.9794 9.08332C57.6372 10.7793 58.5634 13.0071 58.5875 15.3563C58.6147 18.0081 57.4894 20.5362 55.5005 22.2921V22.292C55.1222 22.6261 54.9449 23.124 55.0265 23.6239C55.1084 24.1247 55.4354 24.541 55.9016 24.7379C58.9514 26.0254 60.8819 28.9972 60.8196 32.3088C60.7406 36.5104 57.3913 39.9717 53.1944 40.1888C52.4862 40.2258 51.7767 40.1688 51.0855 40.0202C50.6423 39.9249 50.1889 40.0364 49.8411 40.3257C49.4914 40.6165 49.2982 41.045 49.3109 41.5008C49.313 41.5756 49.314 41.6507 49.314 41.726C49.314 46.1235 45.7362 49.7012 41.3386 49.7012ZM49.8469 50.2608C48.9231 50.1645 48.0346 49.9816 47.1871 49.7198C48.209 48.97 49.0816 48.0289 49.7536 46.9503C50.1233 47.0038 50.501 47.0395 50.8857 47.0568C50.7715 47.5976 50.7355 48.1583 50.7832 48.7254C50.8304 49.2874 50.9598 49.8293 51.1633 50.339C50.7192 50.3314 50.2794 50.3059 49.8469 50.2608ZM63.941 48.0512C62.6742 49.3713 60.0941 51.6379 57.0456 51.9861C55.9736 52.1085 54.8859 51.7913 54.0617 51.1157C53.274 50.4701 52.794 49.5638 52.71 48.5636C52.6509 47.8613 52.7847 47.1737 53.0916 46.5605C53.0942 46.5561 53.0963 46.5515 53.0989 46.547C53.2349 46.2779 53.4037 46.0232 53.605 45.7884C54.2675 45.0145 55.1919 44.5488 56.2081 44.477C56.3779 44.465 56.5471 44.4592 56.7157 44.4592C59.6967 44.4592 62.4656 46.2669 63.8943 47.3867C64.0309 47.4938 64.0602 47.6342 64.0655 47.7083C64.0705 47.7824 64.0614 47.9258 63.941 48.0512ZM23.0743 32.9841C23.5903 32.847 23.8976 32.3176 23.7606 31.8015C23.6236 31.2854 23.094 30.9784 22.578 31.1152C21.4114 31.4249 19.2102 32.5306 18.3555 33.1614C17.9259 33.4784 17.8347 34.0838 18.1517 34.5134C18.3414 34.7703 18.6338 34.9062 18.9303 34.9062C19.1297 34.9062 19.331 34.8447 19.5037 34.7172C20.1748 34.2218 22.1708 33.2238 23.0743 32.9841ZM11.1102 47.3871L5.2287 46.9708C4.69786 46.9337 4.2338 47.3343 4.19603 47.867C4.15838 48.3996 4.55954 48.8619 5.09219 48.8997L10.9737 49.3159C10.9969 49.3176 11.02 49.3183 11.0429 49.3183C11.5458 49.3183 11.9703 48.929 12.0064 48.4197C12.044 47.8871 11.6427 47.4247 11.1102 47.3871ZM54.4064 29.5036C54.4064 27.4382 53.9908 25.4283 53.1948 23.5388C55.4308 20.1538 56.0406 16.01 54.8597 12.0782C54.4707 10.7836 53.352 9.84477 52.0096 9.6866C48.0951 9.22576 44.2421 10.4367 41.3382 13.0176C38.734 12.0984 35.911 11.615 33 11.615C30.0891 11.615 27.266 12.0984 24.6618 13.0176C21.758 10.4367 17.9051 9.2255 13.9904 9.6866C12.6479 9.84477 11.5291 10.7835 11.1402 12.0782C9.95932 16.01 10.569 20.1538 12.8052 23.5388C12.0092 25.4283 11.5936 27.4382 11.5936 29.5036C11.5936 33.2395 12.9443 36.3573 15.608 38.7699C16.0038 39.1284 16.6152 39.098 16.9735 38.7022C17.332 38.3065 17.3017 37.6951 16.906 37.3367C14.6639 35.306 13.5272 32.6705 13.5272 29.5034C13.5272 20.7058 22.2627 13.5485 33.0001 13.5485C43.7375 13.5485 52.4729 20.7058 52.4729 29.5034C52.4729 33.5684 50.6182 36.7284 46.9602 38.8957C43.5596 40.9105 38.7322 41.9756 33 41.9756C28.1042 41.9756 23.796 41.1821 20.541 39.6811C20.0563 39.4574 19.4819 39.6694 19.2583 40.1542C19.0346 40.639 19.2464 41.2135 19.7314 41.437C23.2384 43.0542 27.8266 43.9092 33 43.9092C39.0788 43.9092 44.247 42.7508 47.9458 40.5593C52.1723 38.0551 54.4064 34.2321 54.4064 29.5036ZM17.9304 16.7934C16.2439 18.1895 14.8711 19.7788 13.839 21.5019C12.3177 18.653 12.3574 15.8874 12.6618 14.0656C14.2875 14.4415 16.2907 15.1795 18.1426 16.6219C18.0718 16.6789 18.0004 16.7354 17.9304 16.7934ZM19.7582 15.4425C17.5648 13.597 15.1517 12.6696 13.2031 12.2062C13.4376 11.8785 13.8019 11.6558 14.2165 11.6069C15.7167 11.4299 19.3102 11.3485 22.6253 13.8458C21.6251 14.3098 20.6667 14.8431 19.7582 15.4425ZM43.3744 13.8458C46.6894 11.3485 50.2826 11.4301 51.7832 11.6069C52.1978 11.6558 52.5621 11.8785 52.7966 12.2062C50.848 12.6696 48.4349 13.597 46.2417 15.4425C45.3331 14.8431 44.3747 14.3097 43.3744 13.8458ZM52.1608 21.5018C51.1289 19.7787 49.7561 18.1896 48.0694 16.7932C47.9994 16.7352 47.928 16.6788 47.8573 16.6218C49.7091 15.1793 51.7123 14.4413 53.338 14.0654C53.6425 15.8873 53.6822 18.6528 52.1608 21.5018ZM21.948 30.2501C22.4781 30.3195 22.9633 29.9475 23.0333 29.4182C23.1032 28.8889 22.7309 28.4031 22.2015 28.3331C21.0043 28.1748 18.5481 28.3584 17.5178 28.616C16.9997 28.7455 16.6848 29.2705 16.8143 29.7885C16.9242 30.2278 17.3183 30.521 17.7515 30.521C17.8291 30.521 17.908 30.5116 17.9867 30.4919C18.7957 30.2898 21.0215 30.1276 21.948 30.2501ZM33 28.928C34.0749 28.928 35.0972 28.4625 35.8045 27.6508C36.1554 27.2483 36.1135 26.6376 35.7109 26.2868C35.3082 25.9359 34.6976 25.978 34.3468 26.3804C34.0066 26.7706 33.5157 26.9945 32.9999 26.9945C32.484 26.9945 31.9931 26.7707 31.6529 26.3804C31.302 25.9778 30.6914 25.9359 30.2888 26.2868C29.8862 26.6376 29.8443 27.2483 30.1952 27.6508C30.9028 28.4625 31.925 28.928 33 28.928ZM26.0937 26.9577V25.6508C26.0937 25.1169 25.6608 24.684 25.1269 24.684C24.5929 24.684 24.1601 25.1169 24.1601 25.6508V26.9577C24.1601 27.4916 24.5929 27.9245 25.1269 27.9245C25.6608 27.9245 26.0937 27.4916 26.0937 26.9577ZM41.8398 26.9577V25.6508C41.8398 25.1169 41.4069 24.684 40.873 24.684C40.339 24.684 39.9062 25.1169 39.9062 25.6508V26.9577C39.9062 27.4916 40.339 27.9245 40.873 27.9245C41.4069 27.9245 41.8398 27.4916 41.8398 26.9577ZM42.2392 31.8015C42.1022 32.3175 42.4095 32.847 42.9255 32.9841C43.8291 33.2239 45.825 34.2218 46.4961 34.7171C46.6689 34.8446 46.87 34.9061 47.0695 34.9061C47.366 34.9061 47.6586 34.7702 47.8481 34.5133C48.1652 34.0836 48.074 33.4784 47.6443 33.1613C46.7897 32.5304 44.5884 31.4249 43.4218 31.115C42.9054 30.9784 42.3763 31.2854 42.2392 31.8015ZM44.0518 30.2501C44.9786 30.1276 47.2041 30.2896 48.0132 30.4919C48.0919 30.5116 48.1708 30.521 48.2485 30.521C48.6816 30.5209 49.0758 30.2278 49.1856 29.7885C49.3152 29.2705 49.0003 28.7456 48.4822 28.616C47.4516 28.3584 44.995 28.1749 43.7984 28.3331C43.2691 28.4031 42.8967 28.8889 42.9665 29.4182C43.0365 29.9477 43.5223 30.3203 44.0518 30.2501Z" fill="#151515"/>
</g>
<defs>
<clipPath id="clip0_716_17381">
<rect width="66" height="66" fill="white"/>
</clipPath>
</defs>
</svg>
