<svg width="58" height="56" viewBox="0 0 58 56" fill="none" xmlns="http://www.w3.org/2000/svg">
<path d="M27.4627 54.0425H9.36694C8.95536 54.0425 8.62163 53.7088 8.62159 53.2972L8.62043 39.9751C8.62036 39.1816 9.26353 38.5383 10.0571 38.5383H26.0246C26.8181 38.5383 27.4614 39.1816 27.4615 39.9751L27.4627 54.0425Z" fill="#495059"/>
<path d="M27.4619 44.3269H8.62073L8.62151 53.2972C8.62155 53.7088 8.95528 54.0425 9.36686 54.0425H27.4626L27.4619 44.3269Z" fill="#7694E4"/>
<g opacity="0.1">
<path d="M18.0421 52.6727C17.589 52.6727 17.2217 52.3055 17.2217 51.8524L17.2212 46.5171C17.2212 46.0639 17.5884 45.6968 18.0414 45.6968C18.4945 45.6968 18.8618 46.0639 18.8618 46.5171L18.8623 51.8524C18.8623 52.3055 18.4951 52.6727 18.0421 52.6727Z" fill="#151515"/>
<path d="M14.1608 52.6727C13.7077 52.6727 13.3404 52.3055 13.3404 51.8524L13.3399 46.5171C13.3399 46.0639 13.7071 45.6968 14.1602 45.6968C14.6132 45.6968 14.9805 46.0639 14.9805 46.5171L14.981 51.8524C14.981 52.3055 14.6138 52.6727 14.1608 52.6727Z" fill="#151515"/>
<path d="M21.9235 52.6727C21.4704 52.6727 21.1031 52.3055 21.1031 51.8524L21.1026 46.5171C21.1026 46.0639 21.4698 45.6968 21.9229 45.6968C22.3759 45.6968 22.7432 46.0639 22.7432 46.5171L22.7437 51.8524C22.7437 52.3055 22.3765 52.6727 21.9235 52.6727Z" fill="#151515"/>
</g>
<path d="M7.82201 50.9642C7.49585 50.9642 7.16793 50.8531 6.89951 50.6259C6.29735 50.1158 6.22246 49.2145 6.73221 48.6124C8.50871 46.5138 11.7208 46.0479 16.2788 47.2271C18.2525 47.7379 19.3167 46.3659 21.1 42.8872C21.6842 41.7475 22.236 40.671 22.9124 39.8429C23.4115 39.2319 24.3116 39.1413 24.9227 39.6403C25.5338 40.1396 25.6245 41.0396 25.1254 41.6507C24.6406 42.2442 24.1559 43.1898 23.6427 44.1909C22.9038 45.6325 22.0662 47.2664 20.9052 48.4507C19.3875 49.9988 17.5899 50.5178 15.5633 49.9935C12.2537 49.1372 9.89189 49.3026 8.91287 50.4587C8.63049 50.7924 8.22757 50.9642 7.82201 50.9642Z" fill="#EDA751"/>
<path d="M6.73216 48.6125C6.22242 49.2146 6.2972 50.1159 6.89946 50.626C7.16789 50.8532 7.49581 50.9643 7.82196 50.9643C8.22753 50.9643 8.63045 50.7924 8.91293 50.4587C9.04089 50.3076 9.19313 50.1739 9.36735 50.0567C9.07543 48.7676 8.04232 48.0644 7.45048 47.9146C7.18964 48.1228 6.95002 48.3552 6.73216 48.6125Z" fill="#FCD79D"/>
<path d="M28.3552 55.1796C27.1858 55.1796 26.1888 54.2871 26.0811 53.1001C25.8252 50.2804 24.8676 47.0779 23.8534 45.6506C23.1222 44.6213 23.3637 43.1944 24.3927 42.4633C25.4218 41.7323 26.8488 41.9737 27.5801 43.0029C29.3025 45.4272 30.355 49.6138 30.634 52.6873C30.7481 53.9446 29.8214 55.0561 28.5642 55.1701C28.4941 55.1765 28.4243 55.1796 28.3552 55.1796Z" fill="#EDA751"/>
<path d="M14.9764 44.5581C14.1175 44.5581 13.2945 44.0718 12.9054 43.2427C11.8863 41.0714 12.0221 38.8087 13.2777 37.0352C14.806 34.8764 17.7563 33.7357 20.9779 34.0601C22.2339 34.1862 23.15 35.3069 23.0239 36.5629C22.8978 37.8191 21.777 38.7353 20.5212 38.6088C18.753 38.4313 17.4613 39.0382 17.009 39.6771C16.8895 39.8459 16.5718 40.2947 17.0439 41.301C17.5803 42.4438 17.0887 43.805 15.9459 44.3413C15.632 44.4884 15.3016 44.5581 14.9764 44.5581Z" fill="#EDA751"/>
<path opacity="0.2" d="M20.9779 34.06C19.6062 33.9218 18.2843 34.0502 17.0998 34.4088C16.7406 35.5121 16.5467 36.6829 16.5468 37.8956C16.5469 38.7027 16.634 39.4909 16.7972 40.2533C16.8192 39.947 16.9435 39.7694 17.0091 39.6768C17.4614 39.0379 18.7531 38.4311 20.5212 38.6085C21.7771 38.7351 22.8979 37.8189 23.024 36.5627C23.1501 35.3067 22.234 34.1862 20.9779 34.06Z" fill="#A35F00"/>
<path d="M35.2377 54.5469C34.6872 54.5469 34.1352 54.3493 33.6966 53.9488C32.7645 53.0974 32.6988 51.6516 33.5501 50.7194C34.0103 50.2155 34.2034 49.669 34.1577 48.9997C34.0718 47.7431 33.1606 46.4544 32.8204 46.1655C31.8121 45.4209 31.5906 44.0012 32.3278 42.9846C33.069 41.9628 34.4983 41.7351 35.5202 42.4765C36.6722 43.3119 38.4195 45.7133 38.6972 48.4363C38.9029 50.453 38.2903 52.3086 36.9259 53.8027C36.4751 54.2963 35.8574 54.5469 35.2377 54.5469ZM32.8293 46.1719C32.8317 46.1737 32.8342 46.1755 32.8365 46.1772C32.8341 46.1754 32.8317 46.1737 32.8293 46.1719Z" fill="#EDA751"/>
<path d="M41.7938 41.4372C38.7504 41.4372 36.2842 39.0082 35.5631 38.2177C34.7123 37.2849 34.7788 35.8391 35.7114 34.9884C36.6441 34.1378 38.09 34.2043 38.9408 35.137C39.932 36.2236 41.1859 36.9467 41.9225 36.8578C42.5254 36.7844 43.0443 36.0461 43.3733 35.4396C43.9753 34.3301 45.363 33.9186 46.4726 34.521C47.5821 35.1231 47.9936 36.5108 47.3915 37.6203C45.8657 40.4321 43.8757 41.2255 42.475 41.3959C42.2453 41.4239 42.0178 41.4372 41.7938 41.4372Z" fill="#EDA751"/>
<path opacity="0.2" d="M24.9226 39.6403C24.3116 39.1413 23.4116 39.2319 22.9123 39.8429C22.2359 40.671 21.6841 41.7475 21.0999 42.8872C20.4903 44.0764 19.9648 45.0191 19.4581 45.7248C20.1058 46.423 20.8382 47.0497 21.6404 47.5907C22.4367 46.5409 23.0697 45.3085 23.6427 44.1908C24.1559 43.1898 24.6406 42.2441 25.1254 41.6505C25.6245 41.0396 25.5338 40.1396 24.9226 39.6403Z" fill="#A35F00"/>
<path opacity="0.2" d="M30.1902 49.763C29.6785 47.3058 28.7967 44.715 27.5803 43.0029C26.8491 41.9737 25.4219 41.7323 24.393 42.4633C23.3638 43.1944 23.1225 44.6214 23.8537 45.6506C24.4191 46.4464 24.9669 47.7944 25.3854 49.32C26.532 49.6421 27.7458 49.8159 29.002 49.8159C29.4027 49.816 29.7988 49.7975 30.1902 49.763Z" fill="#A35F00"/>
<path opacity="0.2" d="M35.5203 42.4765C34.4984 41.7351 33.0691 41.9628 32.328 42.9846C31.5907 44.0012 31.8122 45.4209 32.8205 46.1655C33.1419 46.4385 33.9723 47.6042 34.1353 48.792C35.6428 48.1606 36.9959 47.2601 38.1253 46.1555C37.4454 44.4401 36.3345 43.0669 35.5203 42.4765Z" fill="#A35F00"/>
<path opacity="0.2" d="M41.6672 37.8956C41.6672 37.5442 41.65 37.1966 41.6182 36.8529C40.8714 36.7567 39.806 36.0855 38.9406 35.1368C38.0898 34.2041 36.6441 34.1376 35.7113 34.9882C34.7786 35.839 34.7121 37.2847 35.5629 38.2175C36.2292 38.9478 38.3856 41.0754 41.1101 41.3951C41.4722 40.2881 41.6674 39.113 41.6672 37.8956Z" fill="#A35F00"/>
<path d="M29.0017 47.693C34.8243 47.693 39.544 43.3069 39.5435 37.8963C39.543 32.4858 34.8225 28.0996 29 28.0996C23.1774 28.0996 18.4577 32.4858 18.4582 37.8963C18.4587 43.3069 23.1792 47.693 29.0017 47.693Z" fill="#FCD690"/>
<path opacity="0.15" d="M27.4622 47.5882C22.644 44.4251 24.1366 37.9421 24.9542 35.107L24.9536 28.8469C21.1393 30.3215 18.4575 33.8173 18.4579 37.8957C18.4583 42.8203 22.3692 46.8958 27.4622 47.5882Z" fill="#C17A00"/>
<path d="M22.5833 20.908C24.6462 19.1769 26.0234 16.271 23.1131 11.975C20.1799 7.64521 15.8131 6.55989 12.4041 6.96151C11.5637 7.0605 10.8585 7.65221 10.6151 8.46279C9.62784 11.7503 9.93886 16.2391 13.6939 19.8792C17.4194 23.4909 20.5205 22.6391 22.5833 20.908Z" fill="#EDA751"/>
<path d="M10.4779 8.96582C9.66858 12.1982 10.1267 16.4213 13.6938 19.8793C16.9231 23.0098 19.6825 22.786 21.7039 21.5438C20.3127 12.1056 14.2391 9.60282 10.4779 8.96582Z" fill="#FF91AB"/>
<path d="M35.4154 20.908C33.3523 19.1769 31.9745 16.271 34.8841 11.975C37.8166 7.64521 42.1832 6.55989 45.5922 6.96151C46.4327 7.0605 47.138 7.65221 47.3815 8.46279C48.3693 11.7503 48.0591 16.2391 44.3047 19.8792C40.5798 23.4909 37.4786 22.6391 35.4154 20.908Z" fill="#EDA751"/>
<path d="M47.5188 8.96582C48.3287 12.1982 47.8713 16.4213 44.3048 19.8793C41.0761 23.0098 38.3167 22.786 36.295 21.5438C37.6845 12.1056 43.7577 9.60282 47.5188 8.96582Z" fill="#FF91AB"/>
<path d="M46.9489 23.5209C46.9496 31.7279 38.9137 35.3224 29.0007 35.3224C19.0876 35.3224 11.051 31.7279 11.0503 23.5209C11.0496 15.314 19.0851 8.66089 28.9983 8.66089C38.9115 8.66089 46.9482 15.314 46.9489 23.5209Z" fill="#FFDC9C"/>
<path opacity="0.15" d="M19.4144 10.9553C14.3878 13.5887 11.0497 18.2318 11.0502 23.521C11.0508 30.576 16.9896 34.2224 24.9541 35.1072C13.5209 28.2781 15.0111 19.0924 19.4144 10.9553Z" fill="#C17A00"/>
<path d="M20.1919 26.4548C21.9868 26.4548 23.4418 25.2961 23.4416 23.8667C23.4415 22.4373 21.9863 21.2786 20.1914 21.2786C18.3965 21.2786 16.9416 22.4373 16.9417 23.8667C16.9418 25.2961 18.397 26.4548 20.1919 26.4548Z" fill="#FF91AB"/>
<path d="M37.8079 26.4548C39.6028 26.4548 41.0577 25.2961 41.0576 23.8667C41.0575 22.4373 39.6023 21.2786 37.8074 21.2786C36.0125 21.2786 34.5575 22.4373 34.5577 23.8667C34.5578 25.2961 36.0129 26.4548 37.8079 26.4548Z" fill="#FF91AB"/>
<path d="M12.6155 12.1093C12.3397 12.1093 12.06 12.0448 11.7985 11.9086C10.9307 11.4566 10.5936 10.3868 11.0456 9.51902C12.5713 6.58962 15.0984 4.33573 18.5566 2.81991C21.541 1.51178 25.1515 0.820312 28.9976 0.820312C32.8438 0.820312 36.4544 1.51178 39.4391 2.81991C42.8976 4.33573 45.4251 6.58962 46.9512 9.51902C47.4033 10.3868 47.0665 11.4566 46.1987 11.9086C45.3311 12.3606 44.2611 12.0236 43.8091 11.1559C42.6655 8.96109 40.7169 7.24817 38.0171 6.06495C35.4773 4.95173 32.3585 4.36341 28.998 4.36341C25.6374 4.36341 22.5187 4.95184 19.9792 6.06495C17.2796 7.24817 15.3311 8.96109 14.188 11.1559C13.8723 11.7621 13.2549 12.1093 12.6155 12.1093Z" fill="#495059"/>
<path d="M10.6034 19.9035C7.26099 18.687 5.53736 14.9914 6.75364 11.6492L6.97322 11.0458C8.18939 7.70356 11.8848 5.98025 15.2272 7.19682C16.2531 7.57023 16.782 8.70445 16.4088 9.73028L13.1367 18.7223C12.7634 19.7479 11.6292 20.2769 10.6034 19.9035Z" fill="#7694E4"/>
<path d="M47.3952 19.9035C50.7373 18.687 52.4603 14.9914 51.2435 11.6492L51.0238 11.0458C49.807 7.70356 46.1113 5.98025 42.7691 7.19682C41.7433 7.57023 41.2146 8.70445 41.588 9.73028L44.8616 18.7223C45.2351 19.7479 46.3694 20.2769 47.3952 19.9035Z" fill="#7694E4"/>
<path d="M42.5885 22.7694C41.6857 22.5436 39.534 22.3828 38.4861 22.5215C38.037 22.5809 37.721 22.9932 37.7805 23.4423C37.8399 23.8913 38.2521 24.2078 38.7013 24.148C39.5177 24.04 41.4781 24.1828 42.1908 24.361C42.2575 24.3776 42.3244 24.3857 42.3904 24.3857C42.7579 24.3857 43.0923 24.1369 43.1855 23.7641C43.2954 23.3247 43.028 22.8793 42.5885 22.7694ZM52.0143 11.3685L51.7947 10.7651C51.1313 8.94283 49.7978 7.48781 48.0401 6.66827C47.2138 6.28294 46.34 6.06189 45.4568 6.0025C43.9549 4.38856 42.0434 3.06567 39.7682 2.06839C36.6805 0.715312 32.956 0 28.9976 0C25.0392 0 21.3148 0.715313 18.2272 2.0685C15.9521 3.06578 14.0409 4.38867 12.5393 6.00261C11.6561 6.062 10.7825 6.28305 9.95618 6.66838C8.19859 7.48792 6.86544 8.94294 6.20235 10.7652L5.98277 11.3687C5.31968 13.1911 5.40593 15.1627 6.22563 16.9202C7.04544 18.6779 8.50047 20.0111 10.3229 20.6744C10.3901 20.6988 10.458 20.7193 10.526 20.7385C10.3297 21.6549 10.2299 22.587 10.23 23.5209C10.2303 26.8166 11.4297 29.5618 13.7949 31.6805C14.6376 32.4354 15.6171 33.0964 16.7237 33.6649C15.0021 34.2128 13.5637 35.2116 12.6082 36.5611C12.347 36.93 12.1286 37.3171 11.9522 37.718H10.0569C8.81231 37.718 7.79991 38.7305 7.80002 39.975L7.80061 46.6974C7.15106 47.0555 6.58509 47.5164 6.10607 48.0822C5.30477 49.0285 5.42291 50.4504 6.3694 51.2518C6.76963 51.5907 7.27726 51.7785 7.80105 51.7835L7.80119 53.2971C7.80126 54.1604 8.50362 54.8627 9.36692 54.8627H25.949C26.5185 55.5616 27.385 56 28.3553 56C28.4498 56 28.5453 55.9956 28.6383 55.9872C30.3439 55.8325 31.6058 54.319 31.4511 52.6132C31.3286 51.2636 31.0699 49.7967 30.7135 48.3925C31.4984 48.2813 32.2568 48.0943 32.9807 47.8406C33.1476 48.1857 33.3095 48.6209 33.3392 49.0556C33.3699 49.5039 33.2554 49.8256 32.9444 50.1662C32.3849 50.7789 32.0974 51.5726 32.1351 52.4016C32.1727 53.2304 32.5308 53.995 33.1434 54.5546C33.7172 55.0786 34.4609 55.3673 35.2377 55.3673C36.1084 55.3673 36.9445 54.9987 37.5317 54.356C37.6692 54.2054 37.8022 54.0485 37.9269 53.89C38.2071 53.534 38.1456 53.0182 37.7896 52.7381C37.4335 52.4578 36.9177 52.5194 36.6377 52.8754C36.5376 53.0026 36.4306 53.1285 36.3203 53.2495C36.0392 53.5572 35.6548 53.7266 35.2376 53.7266C34.8713 53.7266 34.5205 53.5905 34.2498 53.3432C33.9608 53.0793 33.7919 52.7185 33.7741 52.3274C33.7563 51.9364 33.892 51.5619 34.156 51.2727C34.7691 50.6014 35.0375 49.8397 34.9761 48.9439C34.9318 48.2949 34.7197 47.6836 34.4883 47.1907C35.3783 46.7303 36.1954 46.1614 36.9194 45.5034C37.3302 46.271 37.7592 47.3228 37.8813 48.5195C37.9418 49.1124 37.9227 49.6951 37.8246 50.251C37.7459 50.6972 38.0437 51.1227 38.4899 51.2015C38.5381 51.21 38.586 51.2141 38.6335 51.2141C39.024 51.2141 39.3701 50.9341 39.4403 50.5363C39.5647 49.8312 39.5894 49.0968 39.5135 48.3532C39.3741 46.9867 38.8756 45.5517 38.0966 44.2538C38.6797 43.5274 39.165 42.729 39.5353 41.876C40.2945 42.129 41.0512 42.2575 41.7939 42.2575C42.0549 42.2575 42.3176 42.2417 42.5743 42.2103C44.1666 42.0164 46.4201 41.1308 48.1126 38.0115C48.5083 37.2823 48.5963 36.4427 48.3605 35.6472C48.1246 34.8518 47.5931 34.1958 46.864 33.7999C46.1346 33.4042 45.2952 33.316 44.4995 33.5519C43.704 33.7877 43.048 34.3192 42.6524 35.0485C42.2211 35.8434 41.8887 36.0356 41.8242 36.0434C41.584 36.0728 40.7994 35.7803 39.9249 34.9642C39.8632 34.7635 39.7954 34.5644 39.7207 34.3668C40.5793 34.0265 41.3783 33.639 42.1108 33.205C45.8131 31.0114 47.7697 27.6627 47.7694 23.521C47.7693 22.587 47.6693 21.6549 47.4728 20.7386C47.5408 20.7195 47.6088 20.6989 47.6759 20.6745C49.4983 20.0111 50.9531 18.678 51.7726 16.9203C52.5918 15.1625 52.6778 13.1911 52.0143 11.3685ZM40.3443 37.271C40.9097 37.5639 41.4936 37.736 42.0215 37.6721C42.7844 37.5793 43.4817 36.9598 44.0943 35.8309C44.281 35.4868 44.5905 35.236 44.9659 35.1249C45.3412 35.0135 45.7374 35.0552 46.0815 35.2419C46.4255 35.4286 46.6763 35.7382 46.7876 36.1134C46.8989 36.4888 46.8574 36.8851 46.6707 37.2291C45.3118 39.7334 43.5852 40.4346 42.3759 40.5816C41.6337 40.672 40.8569 40.5845 40.0646 40.3226C40.2604 39.5429 40.3644 38.7305 40.3643 37.8957C40.3643 37.6865 40.3571 37.4782 40.3443 37.271ZM18.8859 3.57109C21.7675 2.30825 25.2641 1.64062 28.9977 1.64062C32.7312 1.64062 36.2279 2.30825 39.1098 3.57109C40.7152 4.2747 42.1157 5.15134 43.2931 6.1857C43.0226 6.25056 42.7539 6.32931 42.4885 6.42578C42.0727 6.57716 41.7149 6.81789 41.4278 7.11791C41.3188 7.03391 41.2074 6.95166 41.0946 6.87028C41.0644 6.84556 41.0332 6.82216 41.0001 6.80203C40.2046 6.23853 39.3179 5.73923 38.3463 5.31344C35.7034 4.15516 32.4707 3.54287 28.9979 3.54287C25.5251 3.54287 22.2925 4.15516 19.6497 5.31344C18.678 5.73934 17.7913 6.23875 16.9958 6.80225C16.963 6.82227 16.9321 6.84534 16.9023 6.86973C16.7893 6.95122 16.6776 7.03369 16.5686 7.1178C16.2816 6.81778 15.9236 6.57705 15.5077 6.42567C15.2423 6.32909 14.9736 6.25034 14.7031 6.18559C15.8802 5.15145 17.2807 4.27481 18.8859 3.57109ZM17.3132 8.61984C17.3925 8.55477 17.4747 8.49155 17.5566 8.42811C18.4081 8.76487 19.2048 9.21473 19.9386 9.77255C18.7233 10.3321 17.5813 11.0064 16.5329 11.7881L17.1796 10.0108C17.3473 9.54986 17.3854 9.07298 17.3132 8.61984ZM19.1885 7.36717C19.5462 7.17194 19.9184 6.98709 20.3084 6.81614C22.7452 5.74809 25.75 5.18361 28.998 5.18361C32.246 5.18361 35.2508 5.74809 37.6879 6.81614C38.0778 6.98709 38.4502 7.17194 38.8079 7.36717C37.9194 7.82261 37.0916 8.39289 36.3315 9.07156C34.0523 8.26711 31.5701 7.84066 28.9982 7.84066C26.4264 7.84066 23.9443 8.26722 21.6653 9.07167C20.9051 8.39289 20.0771 7.82261 19.1885 7.36717ZM40.44 8.42811C40.5219 8.49155 40.6041 8.55487 40.6834 8.61984C40.6114 9.07298 40.6495 9.54986 40.8173 10.0108L41.4643 11.7881C40.4156 11.0064 39.2736 10.332 38.0583 9.77255C38.7919 9.21463 39.5886 8.76487 40.44 8.42811ZM11.446 19.1907C11.444 19.1909 11.4421 19.1914 11.4403 19.1917C11.255 19.218 11.0649 19.1986 10.884 19.1326C10.884 19.1326 10.884 19.1326 10.8839 19.1326C7.97191 18.0729 6.46498 14.8416 7.52457 11.9299L7.74414 11.3264C8.25743 9.91594 9.28928 8.7897 10.6496 8.15522C11.3678 7.82042 12.1319 7.64575 12.901 7.62902C12.9051 7.62913 12.9093 7.62956 12.9134 7.62956C12.9258 7.62956 12.9382 7.62825 12.9505 7.6277C12.9741 7.62737 12.9977 7.62573 13.0213 7.62573C13.6694 7.62573 14.3195 7.73938 14.9466 7.96764C15.5458 8.18573 15.8558 8.85052 15.6378 9.44956L13.8593 14.3371C13.8587 14.3388 13.858 14.3405 13.8575 14.3422L12.3659 18.4415C12.2602 18.7318 12.048 18.9635 11.7681 19.094C11.6644 19.1424 11.556 19.1745 11.446 19.1907ZM13.9472 37.5092C14.8413 36.2463 16.3023 35.3697 18.0625 35.0097C17.7806 35.9426 17.6374 36.9082 17.6375 37.8957C17.6375 37.9988 17.6395 38.1017 17.6426 38.2041C17.0772 38.4555 16.6255 38.799 16.3395 39.2027C15.866 39.8711 15.8531 40.6944 16.3012 41.6491C16.6424 42.3762 16.332 43.244 15.61 43.5916C15.6029 43.5951 15.5957 43.5982 15.5887 43.6019C15.394 43.6917 15.1881 43.7378 14.9761 43.7378C14.4097 43.7378 13.8882 43.4067 13.6478 42.894C12.758 40.9978 12.867 39.0351 13.9472 37.5092ZM17.7865 40.9524C17.5173 40.3786 17.6302 40.2193 17.6785 40.1511C17.7159 40.0983 17.777 40.0369 17.8567 39.973C18.1284 41.2473 18.6451 42.4399 19.3588 43.5064H17.8227C18.1643 42.717 18.1799 41.7905 17.7865 40.9524ZM9.44065 39.975C9.44062 39.6352 9.71709 39.3586 10.057 39.3586H11.4785C11.2782 40.6965 11.491 42.1188 12.1245 43.5064H9.44096L9.44065 39.975ZM9.4411 45.147H13.8091C14.1745 45.296 14.5696 45.3784 14.9765 45.3784C15.3815 45.3784 15.7753 45.3004 16.1495 45.147H18.861C17.9282 46.487 17.3016 46.6444 16.4843 46.433C13.6655 45.7035 11.3124 45.5805 9.44129 46.0581L9.44121 45.147H9.4411ZM8.28685 49.9286C8.25491 49.9662 8.2186 49.999 8.17945 50.0275C8.16796 50.0348 8.1567 50.0425 8.14554 50.0504C8.04963 50.1106 7.93807 50.1438 7.82191 50.1438C7.72052 50.1438 7.57002 50.1188 7.42957 49.9999C7.1735 49.7831 7.14153 49.3985 7.3584 49.1424C8.9141 47.3046 11.8463 46.9275 16.0734 48.0213C18.2994 48.5977 19.6254 47.1423 20.7713 45.209C21.0663 45.4987 21.379 45.7725 21.7071 46.0297C21.2337 46.8052 20.7851 47.4016 20.3197 47.8764C19.0039 49.2185 17.5152 49.6513 15.7689 49.1993C12.0853 48.2461 9.49805 48.4984 8.28685 49.9286ZM9.44181 53.2222L9.44162 51.096C9.47498 51.0613 9.50768 51.0258 9.53895 50.9889C10.2814 50.112 12.4567 50.037 15.3578 50.7875C17.6564 51.3824 19.7772 50.7729 21.491 49.025C22.0313 48.4738 22.5421 47.802 23.0685 46.9474C23.3205 47.0921 23.5787 47.2281 23.8431 47.3546C24.533 48.9451 25.084 51.1895 25.2641 53.1743C25.2655 53.1904 25.2679 53.2062 25.2696 53.2222H9.44181ZM28.4896 54.3532C28.4453 54.3573 28.4001 54.3594 28.3551 54.3594C27.8347 54.3594 27.3777 54.0915 27.1183 53.6795C27.1025 53.6476 27.0853 53.6165 27.0657 53.5871C26.9757 53.4181 26.9164 53.229 26.898 53.026C26.7516 51.4114 26.3738 49.6304 25.874 48.1038C26.868 48.37 27.9173 48.513 29.0017 48.513C29.0183 48.513 29.0349 48.5124 29.0516 48.5124C29.4251 49.9178 29.694 51.4045 29.8171 52.7614C29.8903 53.5662 29.2949 54.2802 28.4896 54.3532ZM41.2743 31.7936C40.4069 32.3075 39.4335 32.7506 38.3664 33.1215C38.3583 33.1242 38.3502 33.1267 38.3421 33.1298C35.7345 34.0322 32.567 34.502 29.0005 34.502C28.1854 34.502 27.377 34.4769 26.5976 34.427C26.1463 34.397 25.7556 34.7411 25.7267 35.1933C25.6979 35.6454 26.041 36.0353 26.4932 36.0642C27.3073 36.1163 28.1509 36.1426 29.0006 36.1426C32.4327 36.1426 35.5329 35.7212 38.1719 34.909C38.2629 35.1466 38.3423 35.3872 38.4109 35.6302C38.4123 35.6354 38.4135 35.6404 38.415 35.6455C38.6195 36.3751 38.7234 37.1276 38.7234 37.8957C38.7239 42.8454 34.3626 46.8722 29.0014 46.8722C23.6403 46.8722 19.2783 42.8454 19.2779 37.8957C19.2778 36.8668 19.4627 35.8657 19.8283 34.9106C20.7024 35.1788 21.6294 35.4061 22.6111 35.5895C22.662 35.599 22.7127 35.6036 22.7627 35.6036C23.1499 35.6036 23.4944 35.3283 23.5681 34.9339C23.6513 34.4886 23.3577 34.0601 22.9123 33.9769C21.7435 33.7585 20.6618 33.4757 19.6662 33.133C19.6514 33.1273 19.6365 33.1224 19.6217 33.1175C17.7122 32.455 16.1262 31.5665 14.8892 30.4584C12.8863 28.6643 11.8705 26.3302 11.8703 23.5208C11.8702 22.5649 11.9896 21.6108 12.224 20.6778C12.3039 20.6489 12.3832 20.6172 12.4612 20.5809C13.1382 20.2651 13.6518 19.7046 13.9073 19.0026L15.3461 15.0485C16.8908 13.3802 18.8966 11.9943 21.1593 11.0366C23.5979 10.0044 26.2354 9.48106 28.9981 9.48106C31.7608 9.48106 34.3984 10.0044 36.8371 11.0366C39.0999 11.9943 41.106 13.3802 42.651 15.0485L44.0905 19.0026C44.346 19.7046 44.8597 20.2651 45.5369 20.5809C45.6149 20.6173 45.6941 20.6489 45.7741 20.6778C46.0088 21.6108 46.1282 22.5649 46.1283 23.5208C46.1289 27.1014 44.4958 29.8846 41.2743 31.7936ZM47.1146 19.1326C47.1145 19.1326 47.1145 19.1326 47.1146 19.1326C46.9341 19.1984 46.7447 19.2178 46.5598 19.1919C46.5561 19.1914 46.5524 19.1906 46.5487 19.1901C46.44 19.1737 46.3329 19.1419 46.2305 19.094C45.9505 18.9635 45.7382 18.7318 45.6326 18.4415L44.1403 14.3422C44.1397 14.3405 44.1389 14.3388 44.1384 14.3371L42.3591 9.44956C42.1409 8.85052 42.451 8.18573 43.05 7.96764C43.6824 7.73752 44.3295 7.62836 44.9665 7.62836C47.2627 7.62836 49.4234 9.04684 50.2533 11.3264L50.473 11.9299C51.5327 14.8415 50.0264 18.0728 47.1146 19.1326ZM22.9911 19.6032C22.7199 19.8132 22.5407 19.952 22.0855 19.952C21.6303 19.952 21.4511 19.8132 21.1798 19.6032C20.8217 19.3259 20.3064 19.3914 20.0291 19.7497C19.7518 20.1078 19.8174 20.6231 20.1757 20.9005C20.5316 21.1761 21.0697 21.5925 22.0857 21.5925C23.1018 21.5925 23.6397 21.176 23.9956 20.9005C24.3538 20.6231 24.4194 20.1078 24.1419 19.7497C23.8646 19.3914 23.3493 19.3258 22.9911 19.6032ZM19.8551 24.9639C18.8331 25.2351 16.9053 26.2035 16.1568 26.7562C15.7922 27.0254 15.715 27.5389 15.9842 27.9033C16.1451 28.1212 16.3932 28.2365 16.6447 28.2365C16.8139 28.2365 16.9846 28.1843 17.1313 28.0761C17.7222 27.6398 19.4802 26.7609 20.2761 26.5496C20.7141 26.4333 20.9748 25.9841 20.8585 25.5463C20.7422 25.1085 20.2932 24.8479 19.8551 24.9639ZM19.298 24.148C19.7474 24.2072 20.1594 23.8914 20.2188 23.4423C20.2781 22.9932 19.9622 22.5809 19.513 22.5215C18.4648 22.3829 16.3135 22.5436 15.4106 22.7694C14.971 22.8793 14.7039 23.3247 14.8138 23.7642C14.907 24.1369 15.2415 24.3858 15.609 24.3858C15.6749 24.3858 15.7418 24.3778 15.8086 24.3611C16.5213 24.1828 18.4816 24.0399 19.298 24.148ZM37.9696 19.7496C37.6923 19.3914 37.177 19.3258 36.8187 19.6031C36.5475 19.8131 36.3683 19.9519 35.9131 19.9519C35.4579 19.9519 35.2787 19.8131 35.0075 19.6031C34.6493 19.3258 34.1341 19.3913 33.8566 19.7496C33.5793 20.1077 33.645 20.623 34.0032 20.9004C34.3591 21.176 34.8972 21.5924 35.9132 21.5924C36.9292 21.5924 37.4671 21.1759 37.8231 20.9004C38.1814 20.6231 38.247 20.1078 37.9696 19.7496ZM41.843 26.7562C41.0944 26.2035 39.1663 25.2351 38.1444 24.9639C37.7067 24.8479 37.2574 25.1085 37.1411 25.5463C37.0249 25.9841 37.2857 26.4333 37.7236 26.5496C38.5196 26.7609 40.2777 27.6398 40.8687 28.0761C41.0153 28.1843 41.186 28.2365 41.3554 28.2365C41.6068 28.2365 41.8551 28.1212 42.016 27.9033C42.285 27.5389 42.2076 27.0254 41.843 26.7562ZM31.3611 20.7177C31.0194 20.4201 30.5014 20.4556 30.2037 20.7972C29.8997 21.1461 29.4607 21.3463 28.9993 21.3463C28.538 21.3463 28.099 21.1462 27.7948 20.7972C27.4971 20.4557 26.9789 20.4202 26.6374 20.7177C26.2959 21.0154 26.2604 21.5335 26.5581 21.8751C27.1739 22.5816 28.0638 22.9868 28.9994 22.9868C29.9351 22.9868 30.8248 22.5816 31.4404 21.8751C31.7383 21.5335 31.7027 21.0154 31.3611 20.7177Z" fill="#151515"/>
</svg>
