<svg width="66" height="66" viewBox="0 0 66 66" fill="none" xmlns="http://www.w3.org/2000/svg">
<path d="M23.6187 56.8594C21.8299 56.8596 20.0033 56.0476 18.4681 54.5149C16.4044 52.4545 14.6041 52.0069 13.6081 52.2746C12.8683 52.4735 12.3465 53.1245 12.0569 54.2093C11.8138 55.1202 10.8784 55.6615 9.96705 55.4184C9.05607 55.1752 8.51467 54.2396 8.75791 53.3286C9.36725 51.046 10.7749 49.5007 12.7215 48.9774C15.2415 48.2998 18.2151 49.4376 20.8807 52.0986C22.0338 53.2498 23.3682 53.6974 24.45 53.2962C25.5792 52.8774 26.3073 51.5791 26.4477 49.7339C26.5192 48.7937 27.3393 48.0887 28.2796 48.1611C29.2198 48.2327 29.924 49.0528 29.8523 49.993C29.6101 53.177 28.0344 55.6087 25.6373 56.4977C24.9823 56.7405 24.3031 56.8593 23.6187 56.8594Z" fill="#EDA751"/>
<path d="M12.0565 54.2093C12.1944 53.6925 12.3857 53.2755 12.6275 52.9576C11.5057 51.8538 10.262 51.6897 9.37291 51.7365C9.11922 52.2167 8.9122 52.7485 8.75738 53.3286C8.51426 54.2396 9.05554 55.1753 9.96652 55.4184C10.878 55.6616 11.8134 55.1201 12.0565 54.2093Z" fill="#FCD79D"/>
<path d="M30.864 64.9064C30.7515 64.9064 30.6378 64.8994 30.5232 64.8851C29.0261 64.6989 27.9635 63.3341 28.1499 61.837C28.639 57.9078 28.4357 55.6788 27.9492 53.3556C27.6399 51.879 28.5862 50.4313 30.0629 50.122C31.5393 49.8128 32.9872 50.7591 33.2965 52.2357C33.8814 55.0292 34.1521 57.8457 33.5714 62.5117C33.3992 63.8944 32.2222 64.9064 30.864 64.9064Z" fill="#EDA751"/>
<path d="M21.5599 47.5274C19.7787 47.5274 17.9338 47.0057 16.3544 45.9536C13.0404 43.7458 11.865 39.8533 13.287 35.7951C13.786 34.3713 15.3447 33.6217 16.7684 34.1204C18.1921 34.6193 18.9418 36.1779 18.443 37.6018C17.8438 39.3117 18.1602 40.5919 19.3835 41.4068C20.6741 42.2666 22.3933 42.2302 23.0684 41.6231C24.19 40.6143 25.9172 40.7059 26.9261 41.8276C27.935 42.9492 27.8434 44.6764 26.7218 45.6854C25.3603 46.9097 23.4979 47.5274 21.5599 47.5274Z" fill="#EDA751"/>
<path opacity="0.1" d="M16.7682 34.1205C15.6755 33.7378 14.505 34.0923 13.7935 34.9209C14.8293 36.6439 16.2911 38.141 18.1582 39.3758C18.1194 38.8487 18.2134 38.2571 18.443 37.6019C18.9417 36.178 18.192 34.6194 16.7682 34.1205Z" fill="#C18F00"/>
<path d="M47.951 47.5276C46.0129 47.5276 44.1507 46.9099 42.7893 45.6854C41.6676 44.6765 41.576 42.9494 42.5849 41.8276C43.5939 40.7059 45.3212 40.6145 46.4426 41.6232C47.1176 42.2303 48.8371 42.2668 50.1277 41.4069C51.3509 40.592 51.6673 39.3118 51.0682 37.6019C50.5693 36.1781 51.319 34.6195 52.7428 34.1205C54.1664 33.6216 55.7252 34.3713 56.2242 35.7951C57.6461 39.8532 56.4707 43.7458 53.1567 45.9537C51.5773 47.0058 49.7319 47.5276 47.951 47.5276Z" fill="#EDA751"/>
<path opacity="0.1" d="M52.7431 34.1204C51.3193 34.6193 50.5696 36.1779 51.0685 37.6018C51.2981 38.257 51.392 38.8487 51.3532 39.3757C53.2203 38.1409 54.6821 36.6438 55.718 34.9207C55.0063 34.0921 53.8358 33.7374 52.7431 34.1204Z" fill="#C18F00"/>
<path d="M40.55 65.0331C40.3694 65.0331 40.1865 65.0152 40.0025 64.9778C38.5242 64.677 37.5696 63.2348 37.8702 61.7565C38.5447 58.4404 38.0938 56.9232 37.3021 54.722C36.7915 53.3024 37.5284 51.7377 38.948 51.227C40.3677 50.7168 41.9323 51.4533 42.443 52.8728C43.4247 55.6024 44.1612 58.237 43.2238 62.8454C42.9607 64.14 41.8218 65.0331 40.55 65.0331Z" fill="#EDA751"/>
<path opacity="0.2" d="M28.2791 48.1609C27.3388 48.0885 26.5187 48.7935 26.4472 49.7336C26.3068 51.5787 25.5787 52.8771 24.4495 53.296C23.6537 53.591 22.7209 53.4253 21.8242 52.8591C22.7905 54.2845 24.0155 55.5397 25.4356 56.567C25.5029 56.5448 25.5701 56.5222 25.6367 56.4975C28.0339 55.6084 29.6096 53.1767 29.8518 49.9927C29.9235 49.0525 29.2193 48.2324 28.2791 48.1609Z" fill="#C18F00"/>
<path opacity="0.2" d="M49.6475 41.6772C48.4398 42.2491 47.0368 42.1576 46.4426 41.6231C45.3212 40.6145 43.5939 40.7058 42.5849 41.8276C41.576 42.9492 41.6676 44.6764 42.7893 45.6854C44.1508 46.9098 46.0129 47.5276 47.951 47.5276C48.5999 47.5276 49.2573 47.4574 49.9074 47.3185C50.0252 46.5984 50.0864 45.8611 50.0864 45.1104C50.0866 43.9277 49.9337 42.7781 49.6475 41.6772Z" fill="#A35F00"/>
<path opacity="0.2" d="M23.0681 41.6232C22.4738 42.1575 21.0711 42.249 19.8634 41.6772C19.5772 42.778 19.4243 43.9276 19.4243 45.1103C19.4243 45.8609 19.4855 46.5983 19.6034 47.3184C20.2533 47.4573 20.9107 47.5274 21.5596 47.5274C23.4975 47.5274 25.3601 46.9096 26.7214 45.6852C27.843 44.6763 27.9346 42.9492 26.9257 41.8275C25.9169 40.7059 24.1897 40.6145 23.0681 41.6232Z" fill="#A35F00"/>
<path opacity="0.2" d="M30.0629 50.1223C28.5862 50.4315 27.6399 51.8793 27.9492 53.3559C28.2655 54.8661 28.4618 56.3372 28.4263 58.2609C30.0951 58.9762 31.9232 59.417 33.8452 59.5236C34.008 56.5329 33.7448 54.3772 33.2965 52.2358C32.9872 50.7595 31.5393 49.813 30.0629 50.1223Z" fill="#A35F00"/>
<path opacity="0.2" d="M43.5263 56.9467C43.3251 55.4603 42.9126 54.1773 42.4435 52.8732C41.9329 51.4535 40.3683 50.7169 38.9484 51.2273C37.5289 51.7379 36.792 53.3027 37.3026 54.7223C37.8558 56.2607 38.2422 57.4657 38.1946 59.1836C40.1381 58.7624 41.9413 57.9918 43.5263 56.9467Z" fill="#A35F00"/>
<path d="M34.7561 56.8173C41.7146 56.8173 47.3555 51.5758 47.3555 45.11C47.3555 38.6442 41.7146 33.4026 34.7561 33.4026C27.7977 33.4026 22.1567 38.6442 22.1567 45.11C22.1567 51.5758 27.7977 56.8173 34.7561 56.8173Z" fill="#FCD690"/>
<path opacity="0.15" d="M32.9158 56.6935C27.1583 52.9135 28.9426 45.166 29.92 41.7779V34.2969C25.3616 36.059 22.1562 40.2366 22.1562 45.1105C22.1562 50.9956 26.8296 55.8659 32.9158 56.6935Z" fill="#C17A00"/>
<path d="M27.0879 24.8093C29.5533 22.7406 31.1993 19.2677 27.7218 14.1339C24.2169 8.95964 18.9985 7.66271 14.9246 8.14263C13.9201 8.26096 13.0775 8.96814 12.7865 9.93661C11.6064 13.8653 11.9776 19.2297 16.4646 23.5798C20.9165 27.8961 24.6223 26.878 27.0879 24.8093Z" fill="#EDA751"/>
<path d="M12.6225 10.5378C11.6551 14.4006 12.2021 19.4474 16.4645 23.5799C20.3232 27.3209 23.621 27.0537 26.0368 25.5692C24.3753 14.29 17.1173 11.299 12.6225 10.5378Z" fill="#FF91AB"/>
<path d="M42.4229 24.8093C39.9576 22.7406 38.3115 19.2677 41.789 14.1339C45.2939 8.95964 50.5123 7.66271 54.5862 8.14263C55.5907 8.26096 56.4333 8.96814 56.7243 9.93661C57.9044 13.8653 57.5332 19.2297 53.0462 23.5798C48.5942 27.8961 44.8883 26.878 42.4229 24.8093Z" fill="#EDA751"/>
<path d="M56.8885 10.5378C57.8559 14.4006 57.309 19.4474 53.0464 23.5799C49.1877 27.3209 45.8899 27.0537 43.4741 25.5692C45.1357 14.29 52.3936 11.299 56.8885 10.5378Z" fill="#FF91AB"/>
<path d="M56.2059 27.9317C56.2059 37.7394 46.6022 42.035 34.7555 42.035C22.9088 42.035 13.3052 37.7394 13.3052 27.9317C13.3052 18.124 22.9088 10.1733 34.7555 10.1733C46.6022 10.1733 56.2059 18.1241 56.2059 27.9317Z" fill="#FFDC9C"/>
<path d="M36.4937 37.3426C37.4712 36.4576 38.9575 36.4484 39.9459 37.3211L40.9491 38.2068C42.0696 39.1963 43.793 39.0341 44.7094 37.853L45.3267 37.0572C45.8818 36.3418 46.7702 35.9681 47.6697 36.072C50.0238 36.3436 51.9003 34.1389 51.2559 31.8584L51.2333 31.7788C50.9724 30.8553 51.2434 29.8632 51.9378 29.2008L52.8949 28.2875C54.337 26.9115 54.0634 24.5384 52.3462 23.5266L50.5954 22.4951C49.9165 22.0951 49.4567 21.4079 49.346 20.6279L48.9535 17.8636C48.737 16.3397 47.2472 15.3397 45.7548 15.7168L41.8443 16.7053C41.0564 16.9044 40.2207 16.7222 39.5873 16.2131L36.3778 13.6336C35.4303 12.8721 34.0807 12.8721 33.1331 13.6336L29.9235 16.2131C29.29 16.7222 28.4543 16.9044 27.6665 16.7053L23.756 15.7168C22.2636 15.3397 20.7737 16.3396 20.5573 17.8636L20.1648 20.6279C20.054 21.4079 19.5942 22.0951 18.9154 22.4951L17.1646 23.5266C15.4473 24.5384 15.1739 26.9115 16.6159 28.2875L17.573 29.2008C18.2673 29.8632 18.5384 30.8553 18.2775 31.7788L18.2549 31.8584C17.6105 34.1389 19.4869 36.3436 21.8411 36.072C22.7406 35.9682 23.629 36.3418 24.1841 37.0572L24.8014 37.853C25.7178 39.0341 27.441 39.1963 28.5617 38.2068L29.5649 37.3211C30.5533 36.4484 32.0396 36.4576 33.0171 37.3426C34.004 38.2358 35.507 38.2358 36.4937 37.3426Z" fill="#B77866"/>
<path opacity="0.15" d="M23.3021 12.9153C17.2947 16.0623 13.3052 21.6112 13.3052 27.9318C13.3052 36.3628 20.4021 40.7206 29.9197 41.7777C16.2574 33.6169 18.0391 22.6396 23.3021 12.9153Z" fill="#C17A00"/>
<path d="M26.4931 27.8749C28.5065 27.8749 30.1386 26.2428 30.1386 24.2294C30.1386 22.2161 28.5065 20.584 26.4931 20.584C24.4798 20.584 22.8477 22.2161 22.8477 24.2294C22.8477 26.2428 24.4798 27.8749 26.4931 27.8749Z" fill="#78CFC0"/>
<path opacity="0.5" d="M26.4932 26.6421C27.8256 26.6421 28.9058 25.5619 28.9058 24.2295C28.9058 22.8971 27.8256 21.8169 26.4932 21.8169C25.1607 21.8169 24.0806 22.8971 24.0806 24.2295C24.0806 25.5619 25.1607 26.6421 26.4932 26.6421Z" fill="white"/>
<path d="M43.018 27.8749C45.0314 27.8749 46.6635 26.2428 46.6635 24.2294C46.6635 22.2161 45.0314 20.584 43.018 20.584C41.0047 20.584 39.3726 22.2161 39.3726 24.2294C39.3726 26.2428 41.0047 27.8749 43.018 27.8749Z" fill="#78CFC0"/>
<path opacity="0.5" d="M43.0181 26.6421C44.3505 26.6421 45.4307 25.5619 45.4307 24.2295C45.4307 22.8971 44.3505 21.8169 43.0181 21.8169C41.6856 21.8169 40.6055 22.8971 40.6055 24.2295C40.6055 25.5619 41.6856 26.6421 43.0181 26.6421Z" fill="white"/>
<path d="M42.1532 8.32098H27.3578C25.8081 8.32098 24.5518 7.06466 24.5518 5.51496C24.5518 4.11001 25.5909 2.92162 26.9833 2.73407L39.8044 1.00776C42.5327 0.640375 44.9593 2.76204 44.9593 5.51496C44.9591 7.06466 43.7029 8.32098 42.1532 8.32098Z" fill="#DEE2E5"/>
<path d="M47.2115 12.9151H22.2997C20.2562 12.9151 18.5996 11.2586 18.5996 9.21501C18.5996 7.17146 20.2562 5.51489 22.2997 5.51489H47.2116C49.2551 5.51489 50.9117 7.17146 50.9117 9.21501C50.9117 11.2586 49.255 12.9151 47.2115 12.9151Z" fill="#DEE2E5"/>
<path opacity="0.1" d="M47.2115 12.9151H22.2997C20.2562 12.9151 18.5996 11.2586 18.5996 9.21501C18.5996 7.17146 20.2562 5.51489 22.2997 5.51489H47.2116C49.2551 5.51489 50.9117 7.17146 50.9117 9.21501C50.9117 11.2586 49.255 12.9151 47.2115 12.9151Z" fill="#151515"/>
<path d="M49.9636 18.1976H19.5473C17.5037 18.1976 15.8472 16.541 15.8472 14.4975C15.8472 12.4539 17.5037 10.7974 19.5473 10.7974H49.9636C52.0071 10.7974 53.6637 12.4539 53.6637 14.4975C53.6638 16.5409 52.0071 18.1976 49.9636 18.1976Z" fill="#DEE2E5"/>
<path d="M23.8307 29.6694C22.6107 29.9934 20.3091 31.1494 19.4155 31.8091C18.9859 32.1262 18.8948 32.7316 19.2119 33.1611C19.4015 33.418 19.694 33.5537 19.9905 33.5537C20.1899 33.5537 20.3911 33.4922 20.5638 33.3648C21.2709 32.8428 23.3744 31.7912 24.3269 31.5383C24.8429 31.4013 25.1502 30.8718 25.0132 30.3557C24.8763 29.8396 24.347 29.5328 23.8307 29.6694ZM50.0958 31.809C49.2022 31.1494 46.9006 29.9934 45.6807 29.6693C45.1645 29.5328 44.6352 29.8396 44.4981 30.3556C44.3611 30.8716 44.6684 31.4011 45.1844 31.5382C46.137 31.7911 48.2405 32.8427 48.9474 33.3646C49.1201 33.4921 49.3214 33.5536 49.5208 33.5536C49.8171 33.5536 50.1097 33.4177 50.2994 33.161C50.6166 32.7314 50.5253 32.1261 50.0958 31.809ZM55.891 33.7602C56.7381 32.016 57.1729 30.0621 57.1729 27.9319C57.1729 25.7686 56.7374 23.6599 55.8932 21.6703C58.2451 18.1255 58.8886 13.7806 57.6506 9.65882C57.248 8.31845 56.0898 7.3465 54.6997 7.18266C53.6076 7.05414 52.5038 7.05273 51.4076 7.17364C50.6488 5.62071 49.0534 4.54821 47.2118 4.54821H45.8395C45.6211 3.32245 44.9935 2.19568 44.0417 1.36359C42.844 0.316228 41.2525 -0.162786 39.6758 0.0496506L26.8547 1.77609C25.3209 1.9826 24.0982 3.1082 23.7131 4.54834H22.3001C20.4585 4.54834 18.8631 5.62084 18.1043 7.17377C17.0078 7.05273 15.9039 7.05414 14.8121 7.18292C13.4221 7.34663 12.2637 8.31858 11.8611 9.65895C10.6231 13.7807 11.2666 18.1256 13.6184 21.6704C12.7743 23.6601 12.3387 25.7687 12.3387 27.932C12.3387 30.0786 12.7652 32.0285 13.6101 33.7684C13.0473 34.2007 12.6152 34.7892 12.3747 35.4756C10.7996 39.9705 12.1193 44.2939 15.8186 46.7585C17.4991 47.878 19.5381 48.4945 21.5602 48.4945C21.5995 48.4945 21.6406 48.4919 21.6804 48.4915C22.1092 49.9368 22.8051 51.2793 23.7162 52.4689C23.0649 52.5039 22.2766 52.126 21.5638 51.4143C18.6471 48.5026 15.3327 47.2741 12.4703 48.0437C10.1761 48.6605 8.52583 50.4488 7.82368 53.0793C7.4434 54.5038 8.29302 55.9722 9.71782 56.3526C11.1421 56.7328 12.6107 55.883 12.9909 54.4586C13.1849 53.7318 13.477 53.3112 13.8589 53.2083C14.4243 53.0567 15.8874 53.3047 17.785 55.1991C19.4819 56.8933 21.5537 57.8263 23.6187 57.8262C24.4259 57.8262 25.218 57.6842 25.9733 57.404C26.4912 57.212 26.9772 56.9578 27.429 56.6454C27.5133 58.1294 27.4353 59.7494 27.1903 61.7176C26.9384 63.7413 28.3799 65.5927 30.4034 65.8446C30.5557 65.8635 30.7107 65.8732 30.8638 65.8732C32.7242 65.8732 34.3006 64.4794 34.5304 62.6313C34.752 60.8513 34.8589 59.2563 34.8581 57.7837C35.6311 57.7783 36.389 57.7128 37.1265 57.5908C37.2931 58.6057 37.2846 59.7851 36.9228 61.5637C36.5163 63.5621 37.8115 65.5186 39.8098 65.9251C40.0537 65.9748 40.3026 65.9999 40.5498 65.9999C41.9497 65.9999 43.2523 65.1871 43.8684 63.9293C44.1032 63.4497 43.9048 62.8707 43.4252 62.6358C42.9459 62.4012 42.3666 62.5994 42.1317 63.079C41.8381 63.6788 41.217 64.0664 40.5498 64.0664C40.4316 64.0664 40.3124 64.0543 40.1952 64.0305C39.2417 63.8365 38.6236 62.9028 38.8176 61.9493C39.2021 60.0589 39.2662 58.5973 39.0102 57.1459C40.1842 56.7826 41.2877 56.2737 42.2958 55.6415C42.5257 56.5846 42.6983 57.6871 42.6891 59.0091C42.6854 59.543 43.1153 59.9788 43.6492 59.9826H43.6561C44.1869 59.9826 44.619 59.5541 44.6227 59.0225C44.636 57.123 44.3101 55.594 43.9662 54.4065C45.7891 52.8288 47.1485 50.7905 47.8304 48.4915C47.8701 48.492 47.9114 48.4945 47.9507 48.4945C49.9727 48.4945 52.0117 47.8779 53.6923 46.7585C57.3915 44.2939 58.7113 39.9705 57.1361 35.4756C56.8948 34.7848 56.4589 34.1932 55.891 33.7602ZM54.8634 19.6376C54.4472 18.9358 53.9761 18.2536 53.4518 17.5938C54.1846 16.7693 54.6309 15.6848 54.6309 14.4974C54.6309 13.699 54.429 12.9468 54.074 12.2889C54.7381 12.0402 55.4275 11.8346 56.1378 11.6735C56.4691 13.6089 56.5245 16.5816 54.8634 19.6376ZM51.8749 9.06856C52.7412 8.9907 53.6117 9.0014 54.4733 9.10285C54.9464 9.15866 55.3594 9.42318 55.6105 9.8099C54.6117 10.0423 53.648 10.3536 52.7307 10.7418C52.4362 10.5242 52.1156 10.3401 51.7742 10.1958C51.8426 9.87615 51.8786 9.54886 51.8786 9.215C51.8785 9.16601 51.8763 9.11741 51.8749 9.06856ZM27.1127 3.69228L39.9336 1.96584C40.9578 1.82752 41.991 2.13896 42.7688 2.81907C43.298 3.28184 43.6731 3.88473 43.8592 4.54821H25.7964C26.0786 4.09433 26.5529 3.76756 27.1127 3.69228ZM22.2998 6.4818H47.2115C48.7187 6.4818 49.9449 7.70796 49.9449 9.21512C49.9449 9.42498 49.9217 9.63059 49.8756 9.83039H19.6357C19.5897 9.63046 19.5665 9.42485 19.5665 9.21512C19.5665 7.70796 20.7926 6.4818 22.2998 6.4818ZM19.5475 11.764H49.9638C51.471 11.764 52.6971 12.9901 52.6971 14.4973C52.6971 16.0045 51.471 17.2306 49.9638 17.2306H19.5475C18.0404 17.2306 16.8142 16.0045 16.8142 14.4973C16.8142 12.9901 18.0404 11.764 19.5475 11.764ZM15.0382 9.10298C15.8996 9.00153 16.77 8.9907 17.6366 9.06856C17.6351 9.11741 17.6329 9.16601 17.6329 9.21512C17.6329 9.54899 17.6689 9.87628 17.7373 10.196C17.3958 10.3402 17.0753 10.5244 16.7808 10.7419C15.8634 10.3538 14.8997 10.0423 13.9008 9.8099C14.1521 9.42318 14.5651 9.15866 15.0382 9.10298ZM13.3737 11.6735C14.084 11.8346 14.7734 12.0401 15.4375 12.2889C15.0825 12.9468 14.8806 13.6989 14.8806 14.4974C14.8806 15.6847 15.327 16.7691 16.0597 17.5936C15.5353 18.2534 15.0643 18.9357 14.6481 19.6374C12.9869 16.5816 13.0423 13.609 13.3737 11.6735ZM21.2782 46.5555C19.7269 46.5017 18.179 46.0075 16.8905 45.1492C13.9618 43.198 12.9305 39.7363 14.1995 36.115C14.287 35.865 14.4279 35.6423 14.6092 35.459C15.1946 36.2877 15.8924 37.0584 16.7019 37.769C16.8868 37.9313 17.0784 38.0888 17.2738 38.2437C16.9636 39.9263 17.5084 41.3193 18.8475 42.2113C19.5906 42.7064 20.5011 42.9849 21.3722 43.0248C21.2512 43.7088 21.1896 44.4049 21.1896 45.1103C21.1896 45.5991 21.2204 46.0811 21.2782 46.5555ZM21.8902 41.0807C21.3248 41.1551 20.5449 41.0191 19.9194 40.6023C19.5932 40.385 19.2607 40.075 19.1532 39.5266C20.0157 40.0345 20.9509 40.4899 21.9604 40.8894C21.9364 40.9529 21.9132 41.0167 21.8902 41.0807ZM25.3011 55.5912C24.7618 55.7913 24.1958 55.8926 23.6188 55.8928C22.0697 55.8929 20.4831 55.1606 19.1513 53.8308C17.1514 51.834 14.9848 50.9037 13.3571 51.3411C12.6025 51.544 11.6026 52.163 11.1229 53.9599C11.0177 54.3544 10.6109 54.5898 10.2164 54.4843C9.82185 54.379 9.58659 53.9723 9.69191 53.5779C10.2084 51.6431 11.3735 50.3408 12.9724 49.9109C15.1497 49.3258 17.7831 50.3722 20.1976 52.7826C21.6251 54.2078 23.3401 54.7387 24.7862 54.2027C24.908 54.1576 25.0264 54.1041 25.1421 54.0441C25.5204 54.3995 25.9213 54.734 26.3422 55.0458C26.0182 55.2712 25.6707 55.454 25.3011 55.5912ZM32.6122 62.3926C32.5023 63.2746 31.7509 63.9397 30.8642 63.9397C30.7909 63.9397 30.7165 63.9351 30.6429 63.9259C30.1751 63.8677 29.7579 63.6309 29.4684 63.2588C29.1788 62.8869 29.0513 62.4244 29.1095 61.9566C29.3583 59.9586 29.4437 58.2865 29.3704 56.7425C30.4861 57.1951 31.6789 57.5116 32.9252 57.6692C32.9317 59.0921 32.8296 60.6451 32.6122 62.3926ZM34.7557 55.8514C34.4845 55.8514 34.2156 55.8421 33.9489 55.8251C33.9421 55.8246 33.9353 55.8242 33.9284 55.8239C27.8988 55.4308 23.1231 50.7762 23.1231 45.1104C23.1231 43.8749 23.3461 42.6728 23.7869 41.5262C24.9359 41.8793 26.1609 42.1736 27.4653 42.4035C27.5222 42.4136 27.5786 42.4183 27.6343 42.4183C28.0947 42.4183 28.5026 42.0883 28.5854 41.6193C28.6781 41.0933 28.3271 40.592 27.8011 40.4992C26.2865 40.2321 24.8901 39.877 23.6125 39.4382C23.5697 39.4208 23.5264 39.4057 23.4827 39.3947C21.7396 38.7845 20.2251 38.0138 18.9486 37.0883C18.9283 37.0727 18.9074 37.0577 18.8855 37.0436C18.5679 36.8107 18.2651 36.5681 17.9776 36.3158C15.519 34.1578 14.2723 31.3371 14.2723 27.9318C14.2723 25.8868 14.7178 23.893 15.5794 22.0203C15.5953 21.9901 15.6096 21.9592 15.622 21.9277C16.1416 20.8182 16.808 19.7522 17.6155 18.744C18.2047 19.0131 18.8587 19.1645 19.5477 19.1645H49.9639C50.6529 19.1645 51.3069 19.0131 51.8961 18.744C52.7035 19.7522 53.3699 20.8183 53.8895 21.9277C53.902 21.9593 53.9163 21.9901 53.9321 22.0203C54.7935 23.8929 55.2392 25.8868 55.2392 27.9318C55.2392 30.0591 54.7567 31.9509 53.7995 33.5964C53.7769 33.6299 53.7555 33.6647 53.7369 33.7017C52.9792 34.969 51.9357 36.0876 50.6103 37.0531C50.6018 37.0588 50.5938 37.0653 50.5855 37.0712C50.2212 37.3353 49.8372 37.5885 49.4307 37.8294C48.3932 38.444 47.2291 38.974 45.9528 39.4175C45.9431 39.4208 45.9336 39.4239 45.924 39.4275C42.8064 40.5065 39.0194 41.0682 34.7559 41.0682C33.9026 41.0682 33.0546 41.0451 32.2354 40.9995C31.7048 40.971 31.2462 41.3779 31.2164 41.9111C31.1867 42.4443 31.5948 42.9005 32.128 42.9301C32.9828 42.9777 33.8669 43.0018 34.7559 43.0018C38.8613 43.0018 42.569 42.4971 45.7242 41.5245C46.1653 42.6715 46.3885 43.8741 46.3885 45.1102C46.3884 51.033 41.17 55.8514 34.7557 55.8514ZM47.6212 41.0807C47.5978 41.0155 47.5742 40.9502 47.5495 40.8854C48.5571 40.4866 49.4955 40.0333 50.3581 39.5266C50.2506 40.075 49.9182 40.385 49.5918 40.6023C48.9665 41.0191 48.1865 41.1549 47.6212 41.0807ZM52.621 45.1492C51.3325 46.0075 49.7846 46.5017 48.2333 46.5555C48.2911 46.0811 48.3219 45.5991 48.3219 45.1104C48.3219 44.4049 48.2603 43.7089 48.1393 43.025C49.0103 42.985 49.9209 42.7067 50.664 42.2116C52.0036 41.3192 52.5483 39.9256 52.2375 38.2423C53.2865 37.4092 54.1734 36.4756 54.8936 35.451C55.0788 35.6358 55.2231 35.8613 55.312 36.115C56.581 39.7361 55.5497 43.198 52.621 45.1492ZM26.4935 19.6171C23.9503 19.6171 21.8814 21.686 21.8814 24.2291C21.8814 25.1351 22.1451 25.9803 22.5982 26.6939C21.2601 26.6598 19.3965 26.8277 18.5198 27.0469C18.0018 27.1764 17.6869 27.7014 17.8165 28.2193C17.9263 28.6587 18.3205 28.9519 18.7536 28.9519C18.8312 28.9519 18.9101 28.9425 18.9889 28.9228C19.8413 28.7097 22.1869 28.5388 23.164 28.6679C23.5653 28.7212 23.9414 28.5193 24.1304 28.1879C24.822 28.6023 25.6304 28.8413 26.4936 28.8413C29.0367 28.8413 31.1056 26.7724 31.1056 24.2292C31.1055 21.686 29.0366 19.6171 26.4935 19.6171ZM26.4935 26.9076C25.0166 26.9076 23.815 25.7061 23.815 24.2291C23.815 22.7522 25.0165 21.5507 26.4935 21.5507C27.9704 21.5507 29.1719 22.7522 29.1719 24.2291C29.1719 25.7061 27.9704 26.9076 26.4935 26.9076ZM34.7556 27.2801C35.8699 27.2801 36.9295 26.7975 37.6628 25.9561C38.0136 25.5536 37.9717 24.9429 37.5691 24.5921C37.1665 24.2413 36.5558 24.2832 36.205 24.6858C35.8391 25.1058 35.3107 25.3466 34.7556 25.3466C34.2004 25.3466 33.6722 25.1056 33.3062 24.6858C32.9553 24.2833 32.3447 24.2414 31.9421 24.5921C31.5395 24.9429 31.4976 25.5536 31.8484 25.9561C32.5819 26.7975 33.6415 27.2801 34.7556 27.2801ZM43.0181 28.8412C43.8814 28.8412 44.6898 28.6022 45.3813 28.1878C45.5704 28.5192 45.9467 28.7209 46.3478 28.6678C47.3249 28.5385 49.6703 28.7094 50.5229 28.9227C50.6016 28.9424 50.6805 28.9518 50.7581 28.9518C51.1913 28.9518 51.5855 28.6585 51.6953 28.2192C51.8248 27.7011 51.5099 27.1762 50.9918 27.0468C50.115 26.8276 48.2514 26.6597 46.9134 26.6937C47.3665 25.9801 47.6302 25.135 47.6302 24.2289C47.6302 21.6859 45.5613 19.6169 43.0181 19.6169C40.475 19.6169 38.4061 21.6859 38.4061 24.2289C38.4059 26.7722 40.475 28.8412 43.0181 28.8412ZM43.0181 21.5507C44.495 21.5507 45.6966 22.7522 45.6966 24.2291C45.6966 25.7061 44.4951 26.9076 43.0181 26.9076C41.5412 26.9076 40.3397 25.7061 40.3397 24.2291C40.3396 22.7522 41.5412 21.5507 43.0181 21.5507Z" fill="#151515"/>
</svg>
