<svg width="68" height="68" viewBox="0 0 68 68" fill="none" xmlns="http://www.w3.org/2000/svg">
<g clip-path="url(#clip0_19_729)">
<path d="M13.1106 58.1094C8.97056 58.1094 4.99177 55.8298 3.14767 52.3764C2.64537 51.4358 3.00078 50.2662 3.94135 49.7639C4.8818 49.2617 6.05161 49.6168 6.55391 50.5575C7.74829 52.7942 10.5169 54.3112 13.2839 54.246C16.8965 54.1611 20.0965 51.5665 22.2944 46.9401C22.752 45.9768 23.9037 45.5671 24.8668 46.0247C25.8299 46.4822 26.2398 47.6339 25.7822 48.597C21.9289 56.708 16.3544 58.0364 13.3746 58.1063C13.2867 58.1083 13.1984 58.1094 13.1106 58.1094Z" fill="#EDA751"/>
<path d="M7.66076 47.9658L3.29056 47.0255C2.47376 46.8497 1.6814 47.4103 1.57555 48.2391L1.00844 52.6732C0.850928 53.9051 2.23364 54.736 3.24753 54.0186L3.89765 53.5585C4.2488 54.0346 4.64153 54.4821 5.07197 54.8953C5.86394 54.5583 7.05035 53.8443 8.00169 52.3427C7.64615 52.0339 7.32633 51.6938 7.04982 51.3281L8.1851 50.5247C9.19859 49.8075 8.87506 48.227 7.66076 47.9658Z" fill="#BD4568"/>
<path d="M23.203 65.9935C22.8611 65.9935 22.5138 65.9364 22.1734 65.816C20.5649 65.2473 19.7218 63.4824 20.2905 61.874C21.3396 58.9065 22.3001 55.649 21.4696 53.988C20.7068 52.462 21.3253 50.6065 22.8512 49.8436C24.3773 49.0807 26.2327 49.6991 26.9956 51.2251C28.7519 54.7379 27.914 58.8458 26.1153 63.9332C25.6672 65.2011 24.4753 65.9935 23.203 65.9935Z" fill="#EDA751"/>
<path d="M14.44 48.1053C14.384 48.1053 14.328 48.1048 14.2719 48.1039C10.4202 48.0381 7.06359 45.7567 5.0625 41.8446C4.28568 40.3256 4.88719 38.4645 6.40604 37.6877C7.92528 36.9107 9.78625 37.5125 10.5629 39.0312C11.5184 40.8992 12.8372 41.9003 14.377 41.9266C15.558 41.9448 16.595 41.3539 16.9197 40.7693C17.748 39.2778 19.6287 38.7402 21.1199 39.5683C22.6114 40.3965 23.1492 42.2771 22.321 43.7685C20.8513 46.4156 17.7708 48.1053 14.44 48.1053Z" fill="#EDA751"/>
<path d="M40.1148 64.8608C39.7729 64.8608 39.4256 64.8037 39.0851 64.6834C37.4766 64.1147 36.6336 62.3497 37.2022 60.7414C38.3015 57.6319 36.3779 55.415 35.9537 55.1073C34.5726 54.1056 34.2652 52.174 35.2668 50.793C36.2686 49.4119 38.2001 49.1043 39.5811 50.1061C42.0226 51.8769 45.117 56.8893 43.0271 62.8007C42.579 64.0684 41.3871 64.8608 40.1148 64.8608Z" fill="#EDA751"/>
<path d="M49.3683 48.6258C48.4015 48.6258 47.4308 48.5347 46.4731 48.3503C43.3831 47.7557 40.7696 46.2771 39.1138 44.1871C38.0544 42.8498 38.2796 40.9069 39.617 39.8475C40.9543 38.7881 42.8971 39.0135 43.9566 40.3508C45.4527 42.2394 49.6166 43.2154 52.9498 41.6946C54.5019 40.9863 56.3343 41.6705 57.0424 43.2228C57.7506 44.775 57.0665 46.6074 55.5142 47.3155C53.6156 48.1815 51.5026 48.6258 49.3683 48.6258Z" fill="#EDA751"/>
<path d="M65.9434 29.489C64.9919 29.008 63.8305 29.3886 63.349 30.3402L61.1693 34.6482C60.8613 35.2571 60.2576 35.6491 59.5995 35.7064C59.4142 35.7224 59.2665 35.5518 59.302 35.3692L60.5689 28.8376C60.7666 27.8178 60.1541 26.788 59.1451 26.5412C58.0668 26.2775 56.9977 26.9705 56.7885 28.0485L55.5111 34.634C55.4747 34.8217 55.2681 34.9173 55.0982 34.8297C54.5151 34.5287 54.1065 33.9426 54.0487 33.267L53.6423 28.5109C53.5538 27.475 52.6815 26.6517 51.6428 26.6915C50.5337 26.7338 49.6968 27.6921 49.7903 28.7854L50.2014 33.5958C50.4025 35.9506 52.0316 37.942 54.2497 38.6398C54.5104 38.7219 54.6667 38.988 54.6146 39.2564L51.5975 54.8116C51.3947 55.8576 52.0737 56.9318 53.1202 57.1315C53.2424 57.1549 53.3641 57.1661 53.4843 57.1661C54.3902 57.1661 55.1986 56.5251 55.3775 55.6026L58.4052 39.9925C58.4569 39.7258 58.6989 39.5339 58.9697 39.5561C59.1216 39.5686 59.2734 39.5748 59.4246 39.5748C61.5802 39.5748 63.6172 38.3633 64.6149 36.3914L66.7946 32.0834C67.276 31.1319 66.8949 29.9703 65.9434 29.489Z" fill="#BD4568"/>
<path opacity="0.2" d="M47.5046 42.2505C45.9715 41.9336 44.6649 41.2446 43.9565 40.3505C42.8971 39.0132 40.9543 38.7879 39.6171 39.8473C38.2798 40.9067 38.0545 42.8497 39.1139 44.1868C40.7697 46.277 43.383 47.7556 46.4732 48.3501C46.615 48.3774 46.7574 48.402 46.8998 48.4253C47.3531 46.9953 47.5977 45.4817 47.5977 43.9152C47.5977 43.3531 47.5658 42.7979 47.5046 42.2505Z" fill="#A35F00"/>
<path opacity="0.2" d="M21.1203 39.5681C19.6289 38.74 17.7482 39.2777 16.9201 40.7691C16.5953 41.3538 15.5583 41.9447 14.3774 41.9265C14.2772 41.9247 14.1782 41.9185 14.0799 41.9085C13.9909 42.566 13.9451 43.2357 13.9451 43.9155C13.9451 45.365 14.1546 46.7691 14.5448 48.1036C17.8354 48.0685 20.8669 46.3876 22.3213 43.7686C23.1494 42.277 22.6117 40.3963 21.1203 39.5681Z" fill="#A35F00"/>
<path opacity="0.2" d="M24.8668 46.0245C23.9036 45.5668 22.7519 45.9767 22.2945 46.9399C20.9128 49.8481 19.1351 51.9527 17.1082 53.1364C17.908 54.1807 18.8398 55.1298 19.8802 55.9624C21.9332 54.5587 24.0347 52.2753 25.7823 48.5969C26.2398 47.6338 25.83 46.4821 24.8668 46.0245Z" fill="#A35F00"/>
<path opacity="0.2" d="M22.8512 49.8434C21.3252 50.6064 20.7068 52.4619 21.4697 53.9878C21.8598 54.7679 21.8546 55.9004 21.6308 57.1896C23.3818 58.2588 25.3563 59.0303 27.4728 59.4274C28.1843 56.3295 28.2017 53.6369 26.9956 51.2249C26.2328 49.6989 24.3774 49.0805 22.8512 49.8434Z" fill="#A35F00"/>
<path opacity="0.2" d="M42.9665 54.8027C42.1446 52.6372 40.784 50.9778 39.5812 50.1056C38.2001 49.1038 36.2686 49.4114 35.267 50.7925C34.2653 52.1737 34.5727 54.1053 35.9539 55.1068C36.2617 55.3301 37.3581 56.5594 37.5169 58.4048C39.5826 57.5518 41.4328 56.3201 42.9665 54.8027Z" fill="#A35F00"/>
<path d="M30.7707 57.1549C38.6396 57.1549 45.0185 51.2273 45.0185 43.9151C45.0185 36.603 38.6396 30.6753 30.7707 30.6753C22.9018 30.6753 16.5228 36.603 16.5228 43.9151C16.5228 51.2273 22.9018 57.1549 30.7707 57.1549Z" fill="#FCD690"/>
<path opacity="0.15" d="M28.6907 57.014C22.1798 52.7394 24.1976 43.9782 25.3028 40.1467V31.6868C20.1479 33.6795 16.5232 38.4038 16.5232 43.9153C16.5233 50.5706 21.8081 56.0781 28.6907 57.014Z" fill="#C17A00"/>
<path d="M22.1005 20.9581C24.8885 18.6186 26.7499 14.6915 22.8176 8.8861C18.8539 3.03451 12.9528 1.56787 8.34565 2.11054C7.20984 2.24441 6.25678 3.04408 5.9278 4.13938C4.5933 8.58209 5.01299 14.6484 10.0871 19.5678C15.1216 24.4487 19.3125 23.2973 22.1005 20.9581Z" fill="#EDA751"/>
<path d="M5.7425 4.81934C4.64839 9.18754 5.26703 14.8946 10.0872 19.5679C14.4507 23.7984 18.18 23.4961 20.9119 21.8175C19.033 9.06243 10.8254 5.68023 5.7425 4.81934Z" fill="#FF91AB"/>
<path d="M39.4421 20.9581C36.6541 18.6186 34.7927 14.6915 38.725 8.88612C42.6886 3.0348 48.5898 1.56802 53.1967 2.11082C54.3325 2.2447 55.2856 3.04436 55.6145 4.13966C56.949 8.58238 56.5294 14.6487 51.4553 19.5681C46.4209 24.4487 42.2302 23.2973 39.4421 20.9581Z" fill="#EDA751"/>
<path d="M55.8002 4.81934C56.8943 9.18754 56.2757 14.8946 51.4555 19.5679C47.0919 23.7984 43.3627 23.4961 40.6307 21.8175C42.5096 9.06243 50.7173 5.68023 55.8002 4.81934Z" fill="#FF91AB"/>
<path d="M55.0282 24.4891C55.0282 35.5802 44.1679 40.4378 30.7711 40.4378C17.3743 40.4378 6.5144 35.5802 6.5144 24.4891C6.5144 13.3981 17.3745 4.40723 30.7711 4.40723C44.1678 4.40723 55.0282 13.3982 55.0282 24.4891Z" fill="#FFDC9C"/>
<path opacity="0.15" d="M17.8193 7.50757C11.0258 11.0664 6.51416 17.3411 6.51416 24.489C6.51416 34.0232 14.5396 38.9511 25.3027 40.1466C9.85267 30.9178 11.8677 18.5042 17.8193 7.50757Z" fill="#C17A00"/>
<path d="M18.9141 5.75356C18.1122 7.73831 18.0668 9.87765 18.6051 11.3084C18.8122 11.8592 19.2552 12.2825 19.8167 12.4585C21.1617 12.88 22.9381 12.6331 24.1978 11.8676C25.058 11.345 25.2078 10.1576 24.5427 9.40205C23.5859 8.31538 22.5008 6.95551 21.4336 5.4619C20.7711 4.53461 19.3411 4.69677 18.9141 5.75356Z" fill="#BD4568"/>
<path d="M42.6286 5.75356C43.4305 7.73831 43.4759 9.87765 42.9376 11.3084C42.7304 11.8592 42.2875 12.2825 41.726 12.4585C40.381 12.88 38.6046 12.6331 37.3449 11.8676C36.4847 11.345 36.3349 10.1576 37 9.40205C37.9568 8.31538 39.0418 6.95551 40.1091 5.4619C40.7715 4.53461 42.2016 4.69677 42.6286 5.75356Z" fill="#BD4568"/>
<path d="M21.3812 17.018C20.9922 16.629 20.3615 16.629 19.9726 17.018C19.5836 17.407 19.5836 18.0378 19.9726 18.4266L20.7419 19.1959C20.5513 19.3773 20.4319 19.6328 20.4319 19.9168V21.4678C20.4319 22.0179 20.8779 22.4639 21.428 22.4639C21.9781 22.4639 22.4241 22.0179 22.4241 21.4678V20.6836C22.5064 20.705 22.5909 20.7169 22.6755 20.7169C22.9304 20.7169 23.1854 20.6196 23.3798 20.4251C23.7688 20.0361 23.7688 19.4053 23.3798 19.0163L21.3812 17.018ZM17.6752 25.2252C18.2213 25.2973 18.7213 24.9135 18.7934 24.3681C18.8654 23.8228 18.4818 23.3221 17.9363 23.2501C16.5306 23.0642 13.6451 23.28 12.4344 23.5827C11.9007 23.716 11.5762 24.257 11.7097 24.7906C11.8228 25.2432 12.229 25.5454 12.6752 25.5454C12.7552 25.5454 12.8365 25.5357 12.9176 25.5154C13.911 25.267 16.5391 25.0747 17.6752 25.2252ZM43.8675 25.2252C45.0034 25.075 47.6317 25.267 48.6252 25.5154C48.7063 25.5357 48.7875 25.5454 48.8676 25.5454C49.3139 25.5454 49.72 25.2432 49.8332 24.7906C49.9667 24.257 49.6422 23.7162 49.1084 23.5827C47.8976 23.28 45.0123 23.0646 43.6065 23.2501C43.0611 23.3222 42.6775 23.8228 42.7495 24.3681C42.8216 24.9136 43.3218 25.297 43.8675 25.2252ZM67.8528 30.2994C67.6091 29.5566 67.0907 28.9531 66.3929 28.6001C64.953 27.872 63.1888 28.4508 62.4604 29.8905L60.7074 33.3552L61.5467 29.0273C61.8503 27.4619 60.8994 25.9449 59.3818 25.5738C58.5948 25.3815 57.7867 25.5156 57.1057 25.9518C56.4344 26.3817 55.9624 27.0768 55.8105 27.859L54.9607 32.2406L54.8148 30.535C55.6143 28.7046 56.0244 26.6801 56.0244 24.4891C56.0244 22.063 55.5225 19.6674 54.5591 17.4069C57.2311 13.4128 57.9665 8.50647 56.5686 3.85312C56.1245 2.37438 54.8467 1.30219 53.3133 1.12156C50.9407 0.842125 46.403 0.866031 42.0741 3.98726C41.9155 3.9336 41.7502 3.89548 41.5801 3.8753C40.7743 3.7798 39.981 4.08979 39.4527 4.69077C36.6751 3.84209 33.7586 3.41125 30.7711 3.41125C27.7837 3.41125 24.8673 3.84209 22.0897 4.69077C21.5615 4.08979 20.7683 3.77994 19.9623 3.8753C19.7921 3.89548 19.6268 3.9336 19.4682 3.98712C15.1396 0.866164 10.6017 0.841859 8.22904 1.12156C6.69585 1.30219 5.41806 2.37438 4.9738 3.85298C3.57595 8.50634 4.31133 13.4128 6.98353 17.4068C6.0201 19.6672 5.5182 22.0629 5.5182 24.489C5.5182 29.0224 7.20625 32.7746 10.5356 35.6414C12.155 37.0358 14.127 38.185 16.4274 39.0856C16.2683 39.4968 16.1307 39.9134 16.0136 40.3349C15.8405 40.5452 15.2254 40.9425 14.3942 40.9306C13.593 40.917 12.4318 40.4975 11.4496 38.5776C10.4239 36.5721 7.95771 35.7749 5.95237 36.8008C4.98084 37.2977 4.261 38.1432 3.92538 39.1815C3.58976 40.2198 3.67861 41.3267 4.17547 42.2982C5.20622 44.3134 6.57459 45.9296 8.17911 47.0807C8.0791 47.0453 7.9763 47.0151 7.87005 46.9922L3.49985 46.0519C2.8387 45.9095 2.1429 46.052 1.59093 46.4426C1.03883 46.8332 0.673059 47.442 0.587129 48.113L0.0201518 52.5471C-0.10363 53.515 0.339035 54.4285 1.17536 54.9311C1.97184 55.4096 2.92981 55.3982 3.70717 54.909C3.91157 55.1417 4.12606 55.3656 4.34825 55.5805C4.35954 55.5925 4.37004 55.6048 4.38199 55.6163C6.6932 57.8337 9.87459 59.1055 13.1104 59.1055C13.2058 59.1055 13.3017 59.1044 13.3979 59.1022C15.3226 59.0569 18.0045 58.5481 20.7164 56.594C20.4749 58.362 19.7131 60.5181 19.3512 61.5418C18.6004 63.6656 19.7173 66.0042 21.8413 66.755C22.2813 66.9105 22.7394 66.9894 23.2029 66.9894C24.9306 66.9894 26.4784 65.8945 27.0543 64.265C27.9488 61.7348 28.4898 59.7592 28.7571 58.0265C29.4163 58.1082 30.0884 58.151 30.7711 58.151C32.6862 58.151 34.5196 57.8186 36.2096 57.2137C36.5245 57.9777 36.7321 59.0817 36.2629 60.4091C35.5122 62.5329 36.6292 64.8714 38.753 65.6222C39.1931 65.7777 39.6512 65.8566 40.1146 65.8566C41.5612 65.8566 42.9123 65.0817 43.641 63.8342C43.9185 63.3591 43.7583 62.7491 43.2834 62.4716C42.8083 62.1941 42.1983 62.3544 41.9209 62.8293C41.5479 63.4677 40.8558 63.8643 40.1146 63.8643C39.8779 63.8643 39.6432 63.8237 39.4169 63.7439C38.3288 63.3591 37.7565 62.1609 38.1411 61.0727C38.8227 59.1452 38.5069 57.5341 38.0411 56.425C39.3216 55.7734 40.4913 54.9552 41.5171 54.0022C42.2942 55.4987 42.7169 57.1768 42.7213 58.836C42.7228 59.3852 43.1685 59.8295 43.7174 59.8295H43.7202C44.2703 59.828 44.7151 59.3808 44.7136 58.8307C44.7078 56.6266 44.0826 54.3976 42.9448 52.4735C43.7915 51.4259 44.4865 50.2659 45.0001 49.0224C45.4241 49.1414 45.8532 49.245 46.285 49.3281C47.2965 49.5228 48.3339 49.6215 49.3683 49.6215C50.1235 49.6215 50.8764 49.568 51.6202 49.464L50.6198 54.6214C50.4696 55.3959 50.6403 56.2194 51.088 56.8806C51.5277 57.5298 52.1832 57.9662 52.9336 58.1093C53.1152 58.1441 53.3007 58.1616 53.4843 58.1616C54.8817 58.1616 56.0892 57.165 56.3556 55.7917L59.308 40.5693C59.3471 40.5701 59.386 40.5703 59.4246 40.5703C61.9713 40.5703 64.3575 39.1063 65.5038 36.8406L67.6835 32.5326C68.0361 31.8355 68.0964 31.0422 67.8528 30.2994ZM53.5102 15.3134C53.2134 14.8007 52.8944 14.2963 52.5471 13.8041C51.3475 12.1037 49.8649 10.5554 48.1581 9.20267C50.4776 7.34795 53.0121 6.43327 55.0291 5.98489C55.4275 8.21827 55.5214 11.7239 53.5102 15.3134ZM53.0803 3.10007C53.6914 3.17205 54.2184 3.53596 54.507 4.06097C52.1513 4.59567 49.1759 5.70466 46.4927 7.99421C45.6765 7.45167 44.8199 6.9507 43.9269 6.49516C43.8234 6.11903 43.6997 5.74636 43.5527 5.38245C47.2427 2.87349 51.0581 2.86207 53.0803 3.10007ZM40.9194 6.0412C41.035 5.87944 41.1917 5.85035 41.2895 5.85035C41.3115 5.85035 41.3305 5.85181 41.3454 5.85354C41.4014 5.86018 41.4831 5.88103 41.5589 5.93602C41.5677 5.94292 41.5766 5.94983 41.5856 5.95647C41.632 5.99658 41.6748 6.05103 41.7053 6.12673C41.8709 6.53646 42.0024 6.96146 42.0994 7.38859C42.1015 7.39868 42.1033 7.40877 42.1059 7.41887C42.3921 8.70077 42.3662 9.99902 42.0053 10.9581C41.9053 11.2241 41.6949 11.4246 41.4283 11.5082C40.3574 11.8438 38.8909 11.6416 37.8621 11.0165C37.6613 10.8944 37.6047 10.7029 37.589 10.5995C37.5593 10.4052 37.6171 10.2086 37.7476 10.0605C38.7894 8.87702 39.8862 7.487 40.9194 6.0412ZM19.437 7.4186C19.4394 7.40877 19.4412 7.39881 19.4434 7.38885C19.5403 6.96159 19.6719 6.53659 19.8375 6.12673C19.8682 6.05077 19.9111 5.99605 19.9576 5.95594C19.9658 5.94983 19.9741 5.94345 19.9822 5.93708C20.0584 5.88116 20.1409 5.86018 20.1972 5.85341C20.2121 5.85168 20.2311 5.85022 20.253 5.85022C20.3507 5.85022 20.5076 5.8793 20.623 6.04107C20.717 6.17255 20.812 6.30311 20.907 6.43353C20.908 6.43512 20.9092 6.43659 20.9103 6.43818C21.8584 7.74094 22.8492 8.98632 23.795 10.0605C23.9254 10.2086 23.9832 10.4052 23.9535 10.5995C23.9377 10.7028 23.8813 10.8944 23.6805 11.0165C22.6516 11.6416 21.1852 11.8438 20.1142 11.5082C19.8475 11.4246 19.6371 11.2239 19.537 10.9579C19.1765 9.99888 19.1508 8.70051 19.437 7.4186ZM8.46226 3.10007C10.4842 2.86141 14.2998 2.87323 17.9899 5.38245C17.8428 5.74636 17.7192 6.11916 17.6157 6.49529C16.7227 6.95084 15.866 7.4518 15.0499 7.99434C12.3667 5.70466 9.39129 4.59567 7.03559 4.06097C7.32432 3.53596 7.85119 3.17205 8.46226 3.10007ZM6.51363 5.98502C8.53066 6.4334 11.0651 7.34821 13.3846 9.20294C11.6777 10.5556 10.1951 12.104 8.99564 13.8042C8.64833 14.2964 8.32932 14.8009 8.03248 15.3135C6.02116 11.724 6.1152 8.21827 6.51363 5.98502ZM16.4936 48.9029C16.8482 49.7854 17.2942 50.6264 17.8205 51.4161C16.4195 52.5953 14.8888 53.2121 13.2605 53.2503C11.6228 53.2892 9.90541 52.6726 8.66573 51.6016C8.66188 51.5981 8.65856 51.5944 8.65458 51.591C8.61699 51.5583 8.5798 51.5252 8.54328 51.4919L8.76043 51.3382C9.5569 50.7746 9.93011 49.8305 9.73434 48.8747C9.63978 48.4128 9.4233 48.0065 9.11796 47.686C10.6725 48.5795 12.4112 49.0686 14.2558 49.1001C14.3173 49.101 14.3787 49.1017 14.44 49.1017C15.1309 49.1014 15.8184 49.0337 16.4936 48.9029ZM5.94945 41.391C5.69484 40.8932 5.64929 40.3261 5.82128 39.794C5.99314 39.2621 6.36196 38.8289 6.85961 38.5744C7.88705 38.0489 9.15076 38.4571 9.6763 39.4847C11.1083 42.2844 13.014 42.8995 14.3621 42.9226C14.7734 42.9296 15.1843 42.8752 15.5753 42.7732C15.5434 43.1513 15.5272 43.5322 15.5272 43.9155C15.5272 44.9705 15.6518 45.9988 15.8861 46.9889C15.4093 47.0683 14.9259 47.1092 14.44 47.1092C14.3894 47.1092 14.3387 47.1088 14.2889 47.1079C10.817 47.0487 7.77735 44.9648 5.94945 41.391ZM5.27701 53.6761C5.07275 53.4489 4.87951 53.2121 4.69915 52.9674C4.50418 52.7029 4.20256 52.5625 3.89669 52.5625C3.6976 52.5625 3.49666 52.622 3.32214 52.7455L2.67189 53.2056C2.47241 53.347 2.29165 53.2773 2.2016 53.2231C2.11155 53.1691 1.96533 53.0421 1.99641 52.7996L2.56338 48.3655C2.58424 48.2023 2.68411 48.1094 2.74175 48.0687C2.79952 48.0279 2.92052 47.9651 3.08096 47.9992L7.45116 48.9395C7.69022 48.9909 7.76128 49.1711 7.78239 49.2741C7.80338 49.3769 7.80896 49.5705 7.60934 49.7118L6.47406 50.5152C6.25398 50.6709 6.1063 50.9092 6.06499 51.1757C6.02369 51.4421 6.09222 51.714 6.25478 51.929C6.39131 52.1095 6.53727 52.2852 6.692 52.4551C6.22317 53.021 5.72406 53.41 5.27701 53.6761ZM13.3518 57.1105C11.0022 57.165 8.67689 56.4188 6.80768 55.0519C7.26974 54.721 7.75025 54.2964 8.20713 53.749C9.64762 54.7103 11.3768 55.2442 13.109 55.2442C13.175 55.2442 13.2413 55.2435 13.3073 55.2419C15.3471 55.1939 17.3089 54.4192 19.0369 52.9924C19.455 53.463 19.9053 53.9075 20.3838 54.3243C17.7928 56.5295 15.1694 57.0678 13.3518 57.1105ZM25.1764 63.6011C24.8811 64.4362 24.0881 64.9973 23.203 64.9973C22.9662 64.9973 22.7315 64.9568 22.5055 64.8769C21.9784 64.6905 21.5553 64.3102 21.3144 63.8056C21.0735 63.3012 21.0434 62.733 21.2297 62.206C22.0003 60.0264 22.674 57.836 22.7667 56.0256C24.0044 56.7417 25.3594 57.2967 26.798 57.6598C26.5544 59.2791 26.0406 61.1564 25.1764 63.6011ZM27.6524 41.3442C28.6661 41.4037 29.7156 41.4339 30.7714 41.4339C35.4417 41.4339 39.6552 40.8559 43.232 39.7416C43.4279 40.2394 43.5875 40.7463 43.7109 41.2614C43.7138 41.2744 43.717 41.2873 43.7203 41.3003C43.9213 42.1527 44.0231 43.0264 44.0231 43.9156C44.0231 50.6667 38.0784 56.1591 30.7712 56.1591C23.464 56.1591 17.5193 50.6667 17.5193 43.9156C17.5193 42.9394 17.6413 41.9817 17.8835 41.0506C17.8932 41.0208 17.9013 40.9909 17.908 40.9608C18.0183 40.5504 18.152 40.1455 18.3089 39.7462C19.7357 40.1893 21.2709 40.5484 22.9112 40.8217C22.9666 40.831 23.0217 40.8354 23.076 40.8354C23.5542 40.8354 23.9763 40.4901 24.0574 40.0028C24.1478 39.4603 23.7812 38.947 23.2386 38.8566C21.3978 38.55 19.7051 38.1315 18.165 37.6045C18.1163 37.5827 18.0667 37.5648 18.0167 37.5514C15.5505 36.6905 13.4806 35.5486 11.8354 34.132C8.96549 31.6607 7.51039 28.4165 7.51039 24.4893C7.51039 21.1372 8.58684 17.8395 10.6234 14.9527C12.2883 12.5926 14.5596 10.5478 17.2543 8.96387C17.2372 9.93766 17.3741 10.8655 17.673 11.6594C17.9904 12.5032 18.6632 13.141 19.5189 13.4092C20.0511 13.5761 20.6368 13.6568 21.2371 13.6568C22.4441 13.6568 23.7096 13.3301 24.7154 12.7191C25.3671 12.3232 25.8073 11.6601 25.9233 10.9001C26.0422 10.1216 25.8116 9.33575 25.2906 8.7442C24.6612 8.02927 24.0097 7.23399 23.3648 6.39488C25.7448 5.73733 28.2295 5.40344 30.7714 5.40344C33.3134 5.40344 35.7981 5.73746 38.1779 6.39502C37.5331 7.23399 36.8817 8.02927 36.2521 8.74434C35.7313 9.33601 35.5006 10.1219 35.6194 10.9003C35.7354 11.6602 36.1756 12.3232 36.8275 12.7193C37.8333 13.3304 39.0984 13.6569 40.3056 13.6569C40.9058 13.6569 41.4919 13.5761 42.0239 13.4094C42.8798 13.1412 43.5526 12.5033 43.8699 11.6597C44.1686 10.8658 44.3056 9.93779 44.2885 8.96401C46.9833 10.5479 49.2545 12.5928 50.9195 14.9528C52.956 17.8396 54.0325 21.1373 54.0325 24.4894C54.0325 26.4714 53.6655 28.2739 52.9357 29.8901C52.913 29.9301 52.8937 29.972 52.8767 30.0149C52.1751 31.5206 51.1548 32.8624 49.8195 34.0346C49.7959 34.0535 49.7733 34.0734 49.7516 34.0941C49.0565 34.6966 48.2786 35.2545 47.4159 35.7657C46.2363 36.4646 44.9125 37.067 43.4618 37.571C43.4531 37.5739 43.4445 37.5767 43.436 37.5799C39.899 38.8046 35.6047 39.442 30.7714 39.442C29.7543 39.442 28.7442 39.413 27.7691 39.3558C27.2189 39.3248 26.7486 39.7426 26.7163 40.2918C26.6842 40.8407 27.1032 41.3121 27.6524 41.3442ZM45.1138 39.0822C46.3078 38.6147 47.4172 38.0805 48.4315 37.4795C49.0016 37.1416 49.5395 36.7824 50.0475 36.4045C50.8216 37.7934 52.0603 38.8802 53.5618 39.4544L53.3562 40.5144C53.0758 40.576 52.8019 40.6671 52.5367 40.7883C50.1226 41.8898 47.1895 41.4846 45.5589 40.4432C45.4351 39.9836 45.287 39.5296 45.1138 39.0822ZM46.6613 47.3723C46.3128 47.3052 45.9662 47.2234 45.6234 47.1297C45.8797 46.0964 46.0153 45.0205 46.0153 43.9155C46.0153 43.5537 46.0005 43.194 45.9719 42.8369C46.9926 43.2079 48.1795 43.4316 49.4176 43.4316C50.572 43.4316 51.7697 43.2375 52.9147 42.79L52.0246 47.3794C50.2665 47.7122 48.4232 47.7113 46.6613 47.3723ZM65.9058 31.6336L63.7261 35.9417C62.9156 37.5435 61.2271 38.5787 59.4246 38.5787C59.3022 38.5787 59.1764 38.5735 59.051 38.5631C58.2758 38.4995 57.577 39.0324 57.4274 39.8027L54.3998 55.4128C54.3147 55.8515 53.9297 56.17 53.4843 56.17C53.4256 56.17 53.366 56.1642 53.307 56.153C53.0803 56.1097 52.878 55.9715 52.7374 55.7639C52.5844 55.5379 52.5253 55.2599 52.5755 55.0012L55.1729 41.6092C55.1733 41.6069 55.1738 41.6048 55.1742 41.6025L55.5925 39.4462C55.7414 38.6787 55.2926 37.9235 54.5486 37.6896C53.2372 37.2771 52.1736 36.3247 51.6097 35.0872C52.1437 34.5756 52.631 34.0362 53.0702 33.47C53.1915 34.4196 53.7842 35.2723 54.6413 35.7148C54.9999 35.8998 55.4299 35.9054 55.7922 35.73C56.1521 35.5555 56.4126 35.2168 56.489 34.8237L57.7662 28.2383C57.8154 27.985 57.9624 27.7687 58.1801 27.6292C58.3976 27.4899 58.6561 27.447 58.9083 27.5087C59.3839 27.6251 59.6901 28.136 59.5908 28.6477L58.3239 35.1795C58.2478 35.5721 58.3623 35.9842 58.6302 36.2817C58.9003 36.5816 59.2856 36.7339 59.6858 36.6986C60.6939 36.6108 61.6029 35.9975 62.0581 35.0978L64.2378 30.7898C64.4703 30.33 65.0339 30.1451 65.4938 30.3776C65.7165 30.4904 65.882 30.683 65.9598 30.9202C66.0377 31.1576 66.0184 31.4109 65.9058 31.6336ZM18.4419 26.548C17.0716 26.9118 14.486 28.2107 13.4818 28.9519C13.0393 29.2786 12.9452 29.9023 13.2719 30.3448C13.4673 30.6094 13.7687 30.7494 14.0741 30.7494C14.2796 30.7494 14.4869 30.686 14.6649 30.5547C15.4889 29.9465 17.8457 28.7674 18.9531 28.4735C19.4849 28.3323 19.8016 27.7869 19.6604 27.2552C19.5192 26.7236 18.9739 26.4069 18.4419 26.548ZM30.7712 23.6549C32.0032 23.6549 33.1749 23.1213 33.9856 22.1911C34.3469 21.7763 34.3038 21.1472 33.889 20.7856C33.4742 20.4243 32.845 20.4674 32.4836 20.8822C32.0513 21.3783 31.427 21.6627 30.7712 21.6627C30.1153 21.6627 29.4912 21.3783 29.0587 20.8822C28.6972 20.4674 28.068 20.4243 27.6534 20.7858C27.2387 21.1473 27.1955 21.7764 27.557 22.1911C28.3678 23.1213 29.5395 23.6549 30.7712 23.6549ZM42.5894 28.4735C43.697 28.7675 46.054 29.9465 46.8777 30.5547C47.0557 30.686 47.263 30.7494 47.4684 30.7494C47.7738 30.7494 48.0754 30.6094 48.2706 30.3448C48.5974 29.9022 48.5033 29.2786 48.0608 28.9519C47.0566 28.2107 44.4709 26.9119 43.1006 26.548C42.5691 26.4072 42.0234 26.7234 41.8822 27.2551C41.7412 27.7867 42.0578 28.3323 42.5894 28.4735ZM38.8672 20.717C38.9518 20.717 39.0362 20.7053 39.1186 20.6838V21.4679C39.1186 22.018 39.5646 22.464 40.1147 22.464C40.6648 22.464 41.1108 22.018 41.1108 21.4679V19.9169C41.1108 19.633 40.9914 19.3774 40.8008 19.196L41.5701 18.4268C41.9591 18.0378 41.9591 17.407 41.5701 17.0182C41.1811 16.6291 40.5504 16.6291 40.1615 17.0182L38.1631 19.0166C37.774 19.4056 37.774 20.0363 38.1631 20.4253C38.3574 20.6198 38.6124 20.717 38.8672 20.717Z" fill="#151515"/>
</g>
<defs>
<clipPath id="clip0_19_729">
<rect width="68" height="68" fill="white"/>
</clipPath>
</defs>
</svg>
