<svg width="24" height="36" viewBox="0 0 24 36" fill="none" xmlns="http://www.w3.org/2000/svg">
<path d="M12 23.3633C15.3037 23.3633 17.5283 20.8896 17.5283 17.3535V6.24707C17.5283 2.69434 15.3037 0.237305 12 0.237305C8.67968 0.237305 6.45507 2.69434 6.45507 6.24707V17.3535C6.45507 20.8896 8.67968 23.3633 12 23.3633ZM0.113277 17.6191C0.113277 24.127 4.41308 28.6924 10.7383 29.2236V33.0918H4.5791C3.88183 33.0918 3.31738 33.6562 3.31738 34.3535C3.31738 35.0508 3.88183 35.5986 4.5791 35.5986H19.4043C20.1016 35.5986 20.666 35.0508 20.666 34.3535C20.666 33.6562 20.1016 33.0918 19.4043 33.0918H13.2451V29.2236C19.5869 28.6924 23.8701 24.127 23.8701 17.6191V14.249C23.8701 13.5518 23.3223 13.0039 22.625 13.0039C21.9277 13.0039 21.3633 13.5518 21.3633 14.249V17.5195C21.3633 23.1807 17.6777 26.9326 12 26.9326C6.30566 26.9326 2.62011 23.1807 2.62011 17.5195V14.249C2.62011 13.5518 2.07226 13.0039 1.35839 13.0039C0.661129 13.0039 0.113277 13.5518 0.113277 14.249V17.6191Z" fill="#333333"/>
</svg>
