<svg width="48" height="48" viewBox="0 0 48 48" fill="none" xmlns="http://www.w3.org/2000/svg">
<path d="M33.7393 8.59227C33.7393 8.59227 37.4803 4.43077 44.3055 5.14514C45.3285 5.25214 46.1751 5.99377 46.3933 6.99889C47.0052 9.81652 47.6578 15.9309 43.7867 21.7285L33.7393 8.59227Z" fill="#BABABD"/>
<path d="M40.6184 19.6128C43.2569 15.661 43.2616 11.5069 42.8659 8.87429C42.8343 8.87392 42.8028 8.87392 42.7713 8.87392C38.8015 8.87392 36.5949 11.1142 36.5726 11.139L40.6184 19.6128Z" fill="#9F9F9F"/>
<path d="M14.2438 8.59227C14.2438 8.59227 10.5028 4.43077 3.67772 5.14514C2.65472 5.25214 1.80809 5.99377 1.58984 6.99889C0.97797 9.81652 0.325345 15.9309 4.19647 21.7285L14.2438 8.59227Z" fill="#BABABD"/>
<path d="M7.36485 19.6128C4.72635 15.661 4.7216 11.5069 5.11735 8.87429C5.14897 8.87392 5.18047 8.87392 5.21197 8.87392C9.18172 8.87392 11.3882 11.1142 11.4106 11.139L7.36485 19.6128Z" fill="#9F9F9F"/>
<path d="M23.9916 43.0068C34.6915 43.0068 44.649 40.7732 44.649 28.8567C44.649 13.3965 33.9054 6.14684 23.9916 6.14684C14.0779 6.14684 3.33423 13.3965 3.33423 28.8567C3.33423 40.7732 13.2917 43.0068 23.9916 43.0068Z" fill="#BABABD"/>
<path d="M34.6557 30.4915H32.1617C31.6439 30.4915 31.2242 30.0717 31.2242 29.554C31.2242 29.0362 31.6439 28.6165 32.1617 28.6165H34.6557C35.1734 28.6165 35.5932 29.0362 35.5932 29.554C35.5932 30.0717 35.1734 30.4915 34.6557 30.4915Z" fill="#9F9F9F"/>
<path d="M15.8215 30.4915H13.3275C12.8097 30.4915 12.39 30.0717 12.39 29.554C12.39 29.0362 12.8097 28.6165 13.3275 28.6165H15.8215C16.3392 28.6165 16.759 29.0362 16.759 29.554C16.759 30.0717 16.3392 30.4915 15.8215 30.4915Z" fill="#9F9F9F"/>
<path d="M33.4088 25.0315V26.8625" stroke="#7D7D7D" stroke-width="2" stroke-miterlimit="10" stroke-linecap="round" stroke-linejoin="round"/>
<path d="M14.5745 25.0315V26.8625" stroke="#7D7D7D" stroke-width="2" stroke-miterlimit="10" stroke-linecap="round" stroke-linejoin="round"/>
<path d="M22.3072 28.7053C22.7046 29.1599 23.3114 29.4506 23.9916 29.4506C24.6716 29.4506 25.2784 29.1599 25.6758 28.7053" stroke="#7D7D7D" stroke-width="1.5" stroke-miterlimit="10" stroke-linecap="round" stroke-linejoin="round"/>
<path d="M10.9922 10.7759C10.1771 10.1356 8.19096 8.87402 5.21183 8.87402C5.18033 8.87402 5.14883 8.87415 5.11721 8.8744C4.80808 10.9314 4.74333 13.917 5.98821 17.0093C7.29546 14.4824 9.01583 12.4088 10.9922 10.7759Z" stroke="#7D7D7D" stroke-width="2" stroke-miterlimit="10" stroke-linecap="round" stroke-linejoin="round"/>
<path d="M4.19778 21.7266C5.84078 15.3895 9.66628 11.0514 14.243 8.59298L14.2439 8.59185C14.2439 8.59185 10.5029 4.43035 3.67778 5.14473C2.65478 5.25173 1.80816 5.99335 1.58991 6.99848C0.978031 9.8161 0.325406 15.9305 4.19653 21.7282L4.19778 21.7266Z" stroke="#7D7D7D" stroke-width="2" stroke-miterlimit="10" stroke-linecap="round" stroke-linejoin="round"/>
<path d="M43.7856 21.7268L43.7869 21.7285C47.658 15.9307 47.0054 9.81635 46.3935 6.99872C46.1753 5.9936 45.3286 5.25197 44.3056 5.14497C37.4805 4.4306 33.7395 8.5921 33.7395 8.5921L33.7404 8.59322C38.3171 11.0516 42.1426 15.3897 43.7856 21.7268Z" stroke="#7D7D7D" stroke-width="2" stroke-miterlimit="10" stroke-linecap="round" stroke-linejoin="round"/>
<path d="M41.9948 17.0092C43.2397 13.9169 43.175 10.9312 42.8658 8.87428C42.8342 8.8739 42.8027 8.87378 42.7712 8.87378C39.7921 8.87378 37.8061 10.1355 36.9908 10.7758C38.9672 12.4085 40.6876 14.4823 41.9948 17.0092Z" stroke="#7D7D7D" stroke-width="2" stroke-miterlimit="10" stroke-linecap="round" stroke-linejoin="round"/>
<path d="M23.9916 43.0067C34.6915 43.0067 44.649 40.7731 44.649 28.8566C44.649 13.3964 33.9054 6.14673 23.9916 6.14673C14.0779 6.14673 3.33423 13.3964 3.33423 28.8566C3.33423 40.7731 13.2917 43.0067 23.9916 43.0067Z" stroke="#7D7D7D" stroke-width="2" stroke-miterlimit="10" stroke-linecap="round" stroke-linejoin="round"/>
</svg>
