<svg width="66" height="66" viewBox="0 0 66 66" fill="none" xmlns="http://www.w3.org/2000/svg">
<g clip-path="url(#clip0_716_17328)">
<path d="M15.9054 54.0892C14.8511 54.0892 13.7558 53.8703 12.6085 53.4332C9.4422 52.227 8.301 50.1679 7.46762 48.6643C6.5814 47.0654 6.13654 46.2627 3.44564 46.112C2.37959 46.0523 1.564 45.1398 1.62368 44.0739C1.68337 43.0078 2.59898 42.1916 3.66181 42.2519C8.4834 42.5218 9.79515 44.8886 10.8491 46.79C11.5697 48.0901 12.1388 49.117 13.9847 49.8202C17.2173 51.0517 18.7947 49.3506 21.7777 45.698L21.8875 45.5635C22.5629 44.7367 23.7808 44.614 24.6074 45.2895C25.4341 45.9649 25.557 47.1827 24.8815 48.0095L24.7722 48.1434C23.2684 49.985 21.8481 51.7242 20.0152 52.8656C18.7043 53.682 17.343 54.0892 15.9054 54.0892Z" fill="#EDA751"/>
<path d="M1.62368 44.074C1.564 45.1399 2.37971 46.0524 3.44564 46.1121C4.22358 46.1557 4.81294 46.2541 5.28035 46.4102C5.84896 45.1479 5.95118 43.6869 5.86958 42.5699C5.22724 42.4102 4.49841 42.299 3.66168 42.2522C2.59898 42.1917 1.68337 43.0081 1.62368 44.074Z" fill="#FCD79D"/>
<path d="M37.3091 65.0329C37.207 65.0329 37.1041 65.0279 37.0006 65.0177C35.3007 64.8494 34.0592 63.3349 34.2276 61.6352C34.6393 57.4771 34.146 54.2056 33.5984 52.6679C33.0256 51.0587 33.8658 49.2898 35.4749 48.7168C37.0842 48.144 38.8529 48.9841 39.426 50.5933C40.4602 53.4981 40.8179 57.8539 40.3831 62.2448C40.2252 63.8407 38.8799 65.0329 37.3091 65.0329Z" fill="#EDA751"/>
<path d="M26.342 65.0328C26.2401 65.0328 26.1371 65.0278 26.0334 65.0176C24.3336 64.8493 23.0923 63.3348 23.2607 61.6349C23.6725 57.477 23.1792 54.2057 22.6316 52.6677C22.0588 51.0584 22.8988 49.2896 24.5081 48.7166C26.117 48.1437 27.8862 48.9838 28.4591 50.5931C29.4934 53.4981 29.8511 57.8539 29.4162 62.2447C29.258 63.8407 27.913 65.0328 26.342 65.0328Z" fill="#EDA751"/>
<path opacity="0.2" d="M24.5082 48.7168C22.8989 49.2897 22.0587 51.0588 22.6317 52.6679C22.9729 53.6262 23.2928 55.2575 23.386 57.3565C25.2974 58.1482 27.3942 58.6141 29.5972 58.6785C29.6044 55.5799 29.2105 52.7036 28.4591 50.5932C27.8863 48.9841 26.1169 48.144 24.5082 48.7168Z" fill="#A35F00"/>
<path opacity="0.2" d="M39.426 50.5928C38.8529 48.9835 37.084 48.1435 35.4749 48.7164C33.8658 49.2892 33.0256 51.0583 33.5984 52.6674C33.9827 53.7465 34.3396 55.6797 34.3765 58.1731C36.6006 57.625 38.6456 56.6575 40.41 55.3661C40.2314 53.5614 39.9 51.9244 39.426 50.5928Z" fill="#A35F00"/>
<path d="M30.126 56.1836C38.0046 56.1836 44.3916 50.2491 44.3916 42.9285C44.3916 35.6079 38.0046 29.6733 30.126 29.6733C22.2473 29.6733 15.8604 35.6079 15.8604 42.9285C15.8604 50.2491 22.2473 56.1836 30.126 56.1836Z" fill="#FCD690"/>
<path opacity="0.15" d="M28.0425 56.0433C21.5236 51.7635 23.5439 42.9914 24.6506 39.1554V30.6853C19.4894 32.6805 15.8604 37.4106 15.8604 42.9288C15.8602 49.592 21.1514 55.1062 28.0425 56.0433Z" fill="#C18F00"/>
<path d="M21.4444 19.9434C24.2358 17.601 26.0995 13.6691 22.1623 7.85652C18.1939 1.99814 12.2855 0.529644 7.67291 1.07311C6.5357 1.20704 5.58154 2.00768 5.25206 3.10441C3.91595 7.55256 4.33619 13.6262 9.41649 18.5516C14.4571 23.4383 18.6531 22.2857 21.4444 19.9434Z" fill="#EDA751"/>
<path d="M5.0663 3.78516C3.97086 8.15867 4.59025 13.8727 9.41635 18.5516C13.7854 22.7873 17.519 22.4846 20.2542 20.8039C18.3731 8.03337 10.1554 4.64702 5.0663 3.78516Z" fill="#FF91AB"/>
<path d="M38.8071 19.9434C36.0157 17.601 34.1519 13.6691 38.0892 7.85652C42.0576 1.99801 47.9659 0.529649 52.5785 1.07312C53.7157 1.20705 54.6699 2.00768 54.9993 3.10441C56.3356 7.55256 55.9152 13.6262 50.8349 18.5516C45.7944 23.4383 41.5984 22.2857 38.8071 19.9434Z" fill="#EDA751"/>
<path d="M55.185 3.78516C56.2804 8.15867 55.6611 13.8727 50.8349 18.5516C46.4659 22.7873 42.7323 22.4846 39.9971 20.8039C41.8782 8.03337 50.0959 4.64702 55.185 3.78516Z" fill="#FF91AB"/>
<path d="M54.4123 23.4786C54.4123 34.5831 43.5389 39.4467 30.1257 39.4467C16.7126 39.4467 5.83936 34.5831 5.83936 23.4786C5.83936 12.3742 16.7128 3.37231 30.126 3.37231C43.5391 3.37231 54.4123 12.3742 54.4123 23.4786Z" fill="#FFDC9C"/>
<path opacity="0.15" d="M17.1581 6.47656C10.3563 10.0396 5.83936 16.3221 5.83936 23.4785C5.83936 33.0242 13.8746 37.9581 24.6508 39.1552C9.18175 29.9152 11.1993 17.4865 17.1581 6.47656Z" fill="#C18F00"/>
<path d="M18.2079 27.4498C20.6362 27.4498 22.6047 25.8818 22.6047 23.9476C22.6047 22.0133 20.6362 20.4453 18.2079 20.4453C15.7796 20.4453 13.811 22.0133 13.811 23.9476C13.811 25.8818 15.7796 27.4498 18.2079 27.4498Z" fill="#FF91AB"/>
<path d="M42.0433 27.4498C44.4716 27.4498 46.4402 25.8818 46.4402 23.9476C46.4402 22.0133 44.4716 20.4453 42.0433 20.4453C39.615 20.4453 37.6465 22.0133 37.6465 23.9476C37.6465 25.8818 39.615 27.4498 42.0433 27.4498Z" fill="#FF91AB"/>
<path d="M33.6205 19.8059H26.6315C25.0916 19.8059 23.8433 21.0542 23.8433 22.5941V23.8789C23.8433 27.3488 26.6562 30.1617 30.126 30.1617C33.5959 30.1617 36.4087 27.3488 36.4087 23.8789V22.5941C36.4087 21.0544 35.1605 19.8059 33.6205 19.8059Z" fill="white"/>
<path opacity="0.1" d="M27.0933 29.3817C27.6696 29.6999 28.3014 29.9294 28.9703 30.0539V19.806H27.0933V29.3817ZM31.2817 19.8059V30.0538C31.9506 29.9294 32.5822 29.6999 33.1585 29.3817V19.8059H31.2817Z" fill="#151515"/>
<path d="M57.4526 28.058L45.4744 32.4177C43.9827 32.9607 42.3117 32.5881 41.1919 31.463C40.3466 30.6139 39.9179 29.4359 40.0196 28.2423C40.1543 26.6606 41.195 25.3012 42.6867 24.7583L50.0014 22.0958C51.9903 21.3719 53.7681 20.1653 55.1752 18.5844C56.5172 17.0766 59.0051 17.7569 59.3935 19.7376L59.571 20.6433C59.851 22.0717 59.9304 23.532 59.807 24.9823C59.688 26.3785 58.7693 27.5787 57.4526 28.058Z" fill="#82C7E6"/>
<g opacity="0.3">
<path d="M55.6965 22.8758C56.203 22.8758 56.6136 22.4652 56.6136 21.9587C56.6136 21.4521 56.203 21.0415 55.6965 21.0415C55.1899 21.0415 54.7793 21.4521 54.7793 21.9587C54.7793 22.4652 55.1899 22.8758 55.6965 22.8758Z" fill="white"/>
<path d="M43.4738 27.9764C43.9803 27.9764 44.391 27.5658 44.391 27.0593C44.391 26.5527 43.9803 26.1421 43.4738 26.1421C42.9673 26.1421 42.5566 26.5527 42.5566 27.0593C42.5566 27.5658 42.9673 27.9764 43.4738 27.9764Z" fill="white"/>
<path d="M49.9343 27.0599C50.4408 27.0599 50.8514 26.6493 50.8514 26.1427C50.8514 25.6362 50.4408 25.2256 49.9343 25.2256C49.4277 25.2256 49.0171 25.6362 49.0171 26.1427C49.0171 26.6493 49.4277 27.0599 49.9343 27.0599Z" fill="white"/>
</g>
<path opacity="0.1" d="M44.114 24.2383L42.6866 24.7578C41.1949 25.3007 40.1543 26.6603 40.0196 28.2418C39.918 29.4355 40.3467 30.6136 41.1918 31.4625C42.3116 32.5876 43.9827 32.9602 45.4744 32.4172L47.6076 31.6408C42.92 31.3967 43.2746 26.5643 44.114 24.2383Z" fill="#151515"/>
<path d="M27.1934 46.4508C27.8022 46.921 28.6094 47.0467 29.3323 46.7836L41.8364 42.2326C42.5593 41.9695 43.097 41.3544 43.261 40.6029L43.608 39.0131L62.4051 32.1714L64.1896 37.0738C64.7837 38.7061 63.9421 40.5108 62.3097 41.1049L6.9669 61.2481C5.33457 61.8423 3.52989 61.0006 2.93576 59.3683L2.22717 57.4213C1.63304 55.789 2.47466 53.9843 4.107 53.3902L24.3768 46.0125C25.3285 45.666 26.3917 45.8315 27.1934 46.4508Z" fill="#7694E4"/>
<path d="M58.4801 26.0428L56.3168 25.8005C55.2971 25.6862 54.2829 26.0554 53.5753 26.7983L51.9711 28.4825C51.2634 29.2253 50.2492 29.5945 49.2296 29.4803L46.9182 29.2214C45.8986 29.1071 44.8844 29.4763 44.1768 30.2192L42.6753 31.7955C41.9243 32.5839 41.6848 33.7296 42.0572 34.7527L43.6081 39.0134L62.4052 32.1717L60.8544 27.9112C60.482 26.8878 59.5621 26.164 58.4801 26.0428Z" fill="#DEE2E5"/>
<g opacity="0.1">
<path d="M55.6961 32.0823C55.3012 32.0823 54.9304 31.8385 54.7875 31.4459L54.2715 30.028C54.0888 29.5263 54.3476 28.9715 54.8492 28.7888C55.3514 28.6061 55.9059 28.865 56.0884 29.3667L56.6044 30.7846C56.7871 31.2863 56.5282 31.8411 56.0266 32.0237C55.9176 32.0634 55.8057 32.0823 55.6961 32.0823Z" fill="#151515"/>
<path d="M48.8031 35.0867C48.4081 35.0867 48.0374 34.8428 47.8944 34.4502L47.5356 33.4638C47.353 32.962 47.6118 32.4073 48.1135 32.2247C48.6157 32.0417 49.17 32.3009 49.3525 32.8026L49.7114 33.789C49.8939 34.2907 49.6352 34.8455 49.1335 35.0281C49.0244 35.0679 48.9128 35.0867 48.8031 35.0867Z" fill="#151515"/>
</g>
<path d="M11.0104 55.2877L23.5045 50.7403C24.7692 50.28 25.4213 48.8816 24.961 47.6171L24.377 46.0127L7.30322 52.227L7.88717 53.8313C8.34749 55.0959 9.74573 55.748 11.0104 55.2877Z" fill="#82C7E6"/>
<path d="M22.8558 51.7758C20.47 51.7758 18.0301 50.6017 16.4342 48.6711C14.6536 46.5166 14.048 43.6899 14.7289 40.7113C15.1096 39.0461 16.7682 38.0052 18.4333 38.3855C20.0985 38.7661 21.1397 40.4248 20.7591 42.0898C20.5091 43.1836 20.6582 44.0719 21.2022 44.7302C21.7092 45.3437 22.4332 45.6044 22.8917 45.5895C24.6 45.5268 26.0316 46.864 26.0918 48.5711C26.1523 50.2782 24.8172 51.7108 23.1102 51.7712C23.0257 51.7743 22.9406 51.7758 22.8558 51.7758Z" fill="#EDA751"/>
<path d="M49.5548 49.7474C49.1055 49.7474 48.6492 49.649 48.217 49.4413C46.6775 48.7013 46.0295 46.8533 46.7694 45.3139C46.9669 44.9027 47.0372 44.619 47.2113 43.8588C47.2391 43.7374 47.268 43.6109 47.299 43.4782C47.6879 41.8149 49.3523 40.782 51.0146 41.1704C52.678 41.5591 53.7112 43.2227 53.3225 44.8859C53.2937 45.0093 53.2669 45.1267 53.2409 45.2395C53.041 46.1127 52.852 46.9375 52.3443 47.9937C51.8124 49.101 50.7065 49.7474 49.5548 49.7474Z" fill="#EDA751"/>
<path d="M17.0177 24.1852C17.5468 24.2551 18.0329 23.8828 18.1028 23.3534C18.1728 22.824 17.8002 22.3383 17.271 22.2683C15.8665 22.0828 12.9837 22.2982 11.7738 22.6007C11.2557 22.7302 10.9408 23.2552 11.0703 23.7731C11.1802 24.2124 11.5744 24.5057 12.0075 24.5057C12.0851 24.5057 12.164 24.4963 12.2427 24.4766C13.2397 24.2273 15.8776 24.0343 17.0177 24.1852ZM18.9716 26.2559C18.8346 25.7398 18.3053 25.4328 17.7892 25.5694C16.42 25.9328 13.8366 27.2306 12.8332 27.9713C12.4036 28.2884 12.3125 28.8938 12.6296 29.3233C12.8192 29.5801 13.1117 29.7159 13.4082 29.7159C13.6076 29.7159 13.8088 29.6545 13.9815 29.527C14.8085 28.9166 17.1738 27.7334 18.2853 27.4382C18.8013 27.3013 19.1085 26.7719 18.9716 26.2559ZM38.3245 20.892C38.8585 20.892 39.2913 20.4591 39.2913 19.9252C39.2913 19.504 39.6338 19.1615 40.0549 19.1615C40.476 19.1615 40.8186 19.5042 40.8186 19.9252C40.8186 20.4591 41.2513 20.892 41.7853 20.892C42.3194 20.892 42.7521 20.4591 42.7521 19.9252C42.7521 18.4379 41.5421 17.2281 40.0549 17.2281C38.5677 17.2281 37.3577 18.4381 37.3577 19.9252C37.3577 20.4591 37.7906 20.892 38.3245 20.892ZM65.0977 36.7432L63.3133 31.8408L61.7625 27.5802C61.5235 26.9235 61.1206 26.3639 60.6079 25.9386C60.6904 25.6536 60.7448 25.3615 60.7701 25.0641C60.9012 23.5238 60.8169 21.9739 60.5196 20.4572L60.3421 19.5513C60.0912 18.272 59.1542 17.2636 57.8966 16.9199C56.6541 16.5802 55.3519 16.9592 54.4851 17.9074C54.3159 17.3892 54.1252 16.879 53.9115 16.3788C56.5862 12.3861 57.3227 7.47958 55.9251 2.82608C55.4839 1.3572 54.2147 0.292178 52.6917 0.112741C48.0524 -0.43369 43.4864 1.01869 40.0648 4.10547C36.9979 3.00874 33.6328 2.40507 30.1257 2.40507C26.6499 2.40507 23.2803 2.98863 20.1774 4.09722C16.7567 1.01637 12.1952 -0.433046 7.55971 0.112999C6.03656 0.292436 4.76723 1.35733 4.32611 2.82621C2.92903 7.477 3.66418 12.3807 6.33524 16.3723C5.37373 18.6213 4.87241 21.0169 4.87241 23.4786C4.87241 29.0293 7.49603 33.5176 12.4598 36.4586C13.4141 37.024 14.4517 37.5311 15.5653 37.9785C14.6954 38.5322 14.034 39.414 13.7865 40.4961C13.1279 43.3766 13.5703 46.1367 15.0285 48.3864L13.9768 48.7692C12.7431 48.2098 12.335 47.4774 11.6944 46.3216C10.5869 44.3233 9.0701 41.5866 3.71626 41.2869C2.94334 41.2423 2.20033 41.5033 1.62218 42.0197C1.04378 42.5364 0.701281 43.2468 0.657969 44.0201C0.614656 44.7935 0.875175 45.5374 1.39131 46.1148C1.90758 46.6923 2.61785 47.0342 3.39129 47.0775C5.5493 47.1983 5.77656 47.6082 6.62166 49.1331C6.93413 49.6969 7.29649 50.3494 7.79471 51.0194L6.9719 51.3189L3.77607 52.4821C2.74392 52.8577 1.91983 53.6129 1.45564 54.6084C0.991448 55.6038 0.942721 56.7205 1.31835 57.7524L2.02708 59.6996C2.40284 60.7316 3.15784 61.5557 4.15338 62.0199C4.70625 62.2777 5.29638 62.4073 5.88871 62.4073C6.36295 62.4073 6.83861 62.3242 7.29752 62.1573L22.3764 56.669C22.4689 57.9183 22.4936 59.5694 22.2984 61.5402C22.1914 62.6194 22.5111 63.6755 23.1986 64.5141C23.886 65.3527 24.8589 65.8734 25.9374 65.9802C26.0711 65.9936 26.2071 66.0003 26.3418 66.0003C28.4361 66.0003 30.1712 64.4269 30.3778 62.3407C30.5495 60.6077 30.6005 58.8327 30.5323 57.1448C31.4934 57.1212 32.4372 57.0143 33.3544 56.8297C33.4352 58.0359 33.4533 59.6386 33.2649 61.5403C33.1581 62.6195 33.4778 63.6756 34.1652 64.5142C34.8528 65.3527 35.8258 65.8735 36.9043 65.9802C37.0379 65.9936 37.174 66.0003 37.3087 66.0003C39.2228 66.0003 40.8929 64.6397 41.28 62.7653C41.3881 62.2423 41.0516 61.731 40.5288 61.623C40.0058 61.5152 39.4943 61.8514 39.3865 62.3742C39.184 63.3549 38.31 64.0669 37.3087 64.0669C37.2377 64.0669 37.1663 64.0634 37.0955 64.0563C36.5302 64.0004 36.0207 63.7276 35.6606 63.2884C35.3006 62.8492 35.1332 62.2962 35.1892 61.731C35.3728 59.8763 35.3939 58.0253 35.255 56.3249C36.7124 55.84 38.076 55.1518 39.3025 54.2878C39.4773 55.4983 39.5782 56.818 39.5946 58.1856C39.6009 58.7155 40.0324 59.1409 40.561 59.1409C40.5649 59.1409 40.5687 59.1409 40.5729 59.1409C41.1068 59.1346 41.5344 58.6965 41.5279 58.1626C41.5055 56.2753 41.332 54.4608 41.026 52.8717C42.2433 51.7067 43.2564 50.3357 44.002 48.798L45.7854 48.149C46.1482 49.0655 46.8422 49.8536 47.7985 50.3134C48.3528 50.5797 48.9439 50.7148 49.555 50.7148C51.1072 50.7148 52.5441 49.8113 53.2161 48.4132C53.7707 47.2594 53.9807 46.3426 54.1839 45.4559L54.1889 45.4337C54.2129 45.329 54.2376 45.2203 54.2642 45.1066C54.2679 45.0909 54.2705 45.0751 54.274 45.0593L62.6401 42.0143C64.7705 41.2381 65.8732 38.8738 65.0977 36.7432ZM58.9802 27.1777C58.9921 27.1837 59.0043 27.1884 59.0163 27.1939C59.4412 27.407 59.7759 27.7755 59.9456 28.2414L61.1657 31.5936L44.1856 37.7738L42.9655 34.4218C42.7169 33.739 42.874 32.988 43.3751 32.4619L44.8765 30.8856C45.3139 30.4265 45.9275 30.1676 46.5564 30.1676C46.6408 30.1676 46.7258 30.1723 46.8103 30.1818L49.1219 30.4407C50.4323 30.5875 51.7605 30.1049 52.6709 29.1489L54.2752 27.4649C54.7712 26.944 55.494 26.6807 56.209 26.761L58.3723 27.0034C58.5854 27.0272 58.7875 27.0861 58.9738 27.1738C58.976 27.175 58.978 27.1764 58.9802 27.1777ZM54.6057 20.4954C54.6179 20.4854 54.6302 20.4755 54.6418 20.4648C55.0857 20.0797 55.5058 19.6667 55.8973 19.2268C56.2778 18.7992 56.8344 18.6338 57.3871 18.785C57.9392 18.9359 58.3348 19.3615 58.4447 19.9232L58.6224 20.8291C58.8851 22.1693 58.9596 23.5389 58.8438 24.9C58.8376 24.9723 58.8269 25.044 58.8148 25.1152C58.7397 25.1023 58.6641 25.0903 58.5876 25.0817L56.4243 24.8393C55.113 24.6929 53.7856 25.1754 52.8752 26.1312L51.271 27.8152C50.775 28.336 50.0518 28.5994 49.3372 28.5191L47.0256 28.2602C45.7149 28.1129 44.3869 28.596 43.4766 29.552L42.1085 30.9882C42.0283 30.9226 41.9505 30.8542 41.8773 30.7806C41.2313 30.1317 40.9054 29.2362 40.9829 28.3238C41.0853 27.1218 41.8838 26.0786 43.0173 25.6661L50.3321 23.0037C51.8961 22.4348 53.3474 21.5793 54.6057 20.4954ZM52.8951 14.3474C51.5482 12.008 49.7044 9.92144 47.4862 8.17231C49.8325 6.28694 52.4011 5.36449 54.4374 4.91551C54.8432 7.16311 54.9461 10.715 52.8951 14.3474ZM52.4653 2.03318C53.1007 2.10794 53.646 2.49337 53.9351 3.04651C51.5694 3.57876 48.57 4.6907 45.8695 7.00121C44.6904 6.21746 43.4268 5.52137 42.0942 4.92247C45.005 2.63672 48.7071 1.59 52.4653 2.03318ZM7.78594 2.03318C11.5398 1.5909 15.2381 2.6344 18.1475 4.91474C16.8266 5.50951 15.5658 6.20586 14.3787 6.9985C11.6786 4.68967 8.68055 3.5785 6.31603 3.04651C6.60516 2.49337 7.15056 2.10794 7.78594 2.03318ZM5.81381 4.91538C7.84962 5.36423 10.4176 6.28642 12.7635 8.17103C12.6196 8.28472 12.4769 8.3997 12.3359 8.51662C10.2584 10.2366 8.5849 12.2045 7.35243 14.3411C5.30502 10.7109 5.40815 7.16182 5.81381 4.91538ZM13.4453 34.795C9.03968 32.1849 6.806 28.3775 6.806 23.4786C6.806 12.9249 17.2672 4.33892 30.1257 4.33892C33.6001 4.33892 36.9221 4.96836 39.9145 6.1048C39.9251 6.10931 39.9359 6.11266 39.9466 6.11678C41.89 6.85773 43.6934 7.81331 45.3089 8.94949C45.3636 8.99809 45.4224 9.03998 45.4844 9.07401C48.297 11.0925 50.5232 13.6652 51.8995 16.6131C51.9159 16.6573 51.9364 16.6999 51.9592 16.7416C52.3488 17.5944 52.6668 18.4783 52.9081 19.3888C51.932 20.1519 50.8378 20.7623 49.6706 21.1872L46.5723 22.3149C45.4638 22.2103 43.9404 22.1417 42.9804 22.2684C42.4511 22.3384 42.0787 22.8241 42.1486 23.3535C42.1735 23.5421 42.2521 23.7101 42.3659 23.846L42.356 23.8496C40.5176 24.5187 39.2226 26.2106 39.0565 28.1602C38.9305 29.64 39.4592 31.0923 40.507 32.1449C40.6871 32.3259 40.8809 32.4915 41.0862 32.6426C40.8442 33.4246 40.8554 34.2771 41.1488 35.0833L41.8222 36.9336C38.4521 37.9593 34.5243 38.4804 30.1258 38.4804C25.2831 38.4804 20.9801 37.8415 17.4354 36.6143C17.4267 36.6111 17.4179 36.6083 17.409 36.6053C15.9547 36.0995 14.6277 35.4957 13.4453 34.795ZM15.6715 40.9267C15.9327 39.784 17.0755 39.0668 18.218 39.3279C18.3527 39.3587 18.4843 39.4024 18.6093 39.4577C18.9773 39.6209 19.3926 39.5355 19.6674 39.2743C22.781 40.0262 26.3003 40.4134 30.1256 40.4134C34.757 40.4134 38.9079 39.8543 42.4843 38.7529L42.6035 39.0806L42.3163 40.3967C42.2223 40.8268 41.9193 41.1736 41.5055 41.3242L29.0015 45.8753C28.5878 46.0259 28.1328 45.9551 27.7842 45.6859C26.8787 44.9864 25.7166 44.7234 24.6072 44.9489C24.0622 44.7139 23.468 44.6011 22.8599 44.6234C22.7101 44.631 22.2716 44.5071 21.9473 44.1146C21.5996 43.694 21.5193 43.1023 21.7014 42.3055C21.8204 41.785 21.4949 41.2665 20.9744 41.1476C20.4542 41.0287 19.9356 41.3541 19.8165 41.8746C19.4172 43.6206 19.9443 44.7262 20.4569 45.3463C21.2233 46.2736 22.2662 46.5777 22.9272 46.5558C23.4935 46.5347 24.0339 46.7363 24.4489 47.1225C24.8653 47.51 25.1057 48.0367 25.1258 48.6055C25.1459 49.1731 24.9437 49.7144 24.5566 50.13C24.1695 50.5454 23.6437 50.7853 23.0758 50.8054C22.5281 50.8249 21.9734 50.7705 21.4266 50.651C21.4184 50.6488 21.4102 50.6469 21.402 50.645C19.7949 50.2874 18.2595 49.3625 17.1793 48.0555C15.5945 46.1374 15.0589 43.6058 15.6715 40.9267ZM16.3176 49.9746C16.9478 50.6015 17.6586 51.1349 18.4222 51.5611L10.6795 54.3792C10.3106 54.5135 9.91134 54.4961 9.55543 54.3301C9.19952 54.1642 8.92959 53.8695 8.79527 53.5006L8.54197 52.8048L16.3176 49.9746ZM3.49944 45.1467C3.24176 45.1323 3.00508 45.0183 2.83312 44.826C2.66103 44.6336 2.57428 44.3857 2.58872 44.1279C2.60316 43.8706 2.71737 43.634 2.91034 43.4615C3.10305 43.2893 3.34913 43.2023 3.60759 43.2171C7.89641 43.4572 8.96749 45.3897 10.0034 47.2586C10.4676 48.0962 10.916 48.9049 11.7042 49.596L9.71179 50.3213C9.09627 49.6073 8.6839 48.8645 8.31304 48.1954C7.29765 46.3635 6.57345 45.3187 3.49944 45.1467ZM28.4539 62.1493C28.3456 63.242 27.4378 64.0661 26.3419 64.0661C26.2709 64.0661 26.1992 64.0626 26.1286 64.0555C25.5635 63.9995 25.054 63.7268 24.694 63.2876C24.334 62.8485 24.1665 62.2953 24.2226 61.7301C24.4551 59.3812 24.3944 57.4456 24.2662 56.059C25.6534 56.6 27.1027 56.9415 28.5953 57.0797C28.6688 58.7203 28.6216 60.4552 28.4539 62.1493ZM39.4166 51.7297C39.3584 51.7702 39.3056 51.8168 39.2581 51.8683C37.7738 53.1648 35.9811 54.1324 34.0125 54.6854C33.9936 54.6894 33.9756 54.6949 33.9573 54.6999C32.7356 55.0377 31.448 55.2176 30.1256 55.2176C29.9309 55.2176 29.7373 55.2127 29.5441 55.2051C29.5424 55.2051 29.5407 55.205 29.539 55.205C28.7414 55.1734 27.9565 55.0772 27.1881 54.917L41.1195 49.8464C40.6172 50.5301 40.0468 51.1608 39.4166 51.7297ZM52.3814 44.6659C52.3541 44.7827 52.3287 44.8942 52.3041 45.0016L52.299 45.0234C52.1032 45.8779 51.9342 46.6159 51.4734 47.5747C51.1215 48.3071 50.3684 48.7803 49.5549 48.7803C49.2358 48.7803 48.9267 48.7094 48.6359 48.5697C47.5794 48.0618 47.1331 46.789 47.6409 45.7326C47.8854 45.2238 47.9749 44.8566 48.1541 44.0737C48.1814 43.9537 48.2101 43.8288 48.2406 43.6981C48.4695 42.7185 49.3458 42.0556 50.3112 42.0556C50.4709 42.0556 50.6329 42.0738 50.795 42.1115C51.9367 42.3784 52.6481 43.5242 52.3814 44.6659ZM61.9788 40.1965L54.2033 43.0265C54.101 42.6837 53.9534 42.3521 53.7595 42.0398C53.1873 41.1186 52.2908 40.4755 51.2348 40.2286C49.0551 39.7189 46.8672 41.0785 46.3576 43.2583C46.3264 43.3927 46.2969 43.5206 46.2692 43.6427C46.0963 44.3975 46.0454 44.5883 45.8982 44.8946C45.6974 45.3125 45.5758 45.7481 45.5255 46.1848L22.8987 54.4203C22.8983 54.4205 22.8979 54.4206 22.8976 54.4207L6.6361 60.3396C6.08941 60.5386 5.49786 60.5128 4.97051 60.2669C4.44316 60.0209 4.04316 59.5844 3.84413 59.0376L3.13541 57.0906C2.93638 56.5438 2.96216 55.9523 3.20811 55.4249C3.45406 54.8976 3.89054 54.4976 4.43736 54.2985L6.72492 53.4659L6.97822 54.1618C7.48069 55.5425 8.78921 56.4015 10.1798 56.4015C10.5655 56.4015 10.9577 56.3354 11.3405 56.196L21.2473 52.5903C21.778 52.69 22.3163 52.7425 22.8557 52.7425C22.952 52.7425 23.0485 52.7408 23.1444 52.7374C24.2281 52.6991 25.232 52.2411 25.9712 51.4476C26.7105 50.6542 27.0964 49.6204 27.0581 48.537C27.0442 48.1406 26.9734 47.755 26.8514 47.3891C27.3693 47.7172 27.9605 47.8877 28.56 47.8877C28.9298 47.8877 29.3026 47.8232 29.6629 47.6921L42.1669 43.141C43.2073 42.7622 43.9694 41.8904 44.2054 40.8088L44.4389 39.7393L61.8272 33.4104L63.2809 37.4043C63.6915 38.5332 63.1076 39.7857 61.9788 40.1965ZM18.466 20.892C19 20.892 19.4328 20.4591 19.4328 19.9252C19.4328 19.504 19.7753 19.1615 20.1965 19.1615C20.6176 19.1615 20.9601 19.5042 20.9601 19.9252C20.9601 20.4591 21.393 20.892 21.9269 20.892C22.4608 20.892 22.8937 20.4591 22.8937 19.9252C22.8937 18.4379 21.6837 17.2281 20.1965 17.2281C18.7093 17.2281 17.4992 18.4381 17.4992 19.9252C17.4992 20.4591 17.9321 20.892 18.466 20.892ZM22.8762 23.8791C22.8762 27.8765 26.1282 31.1286 30.1257 31.1286C34.1232 31.1286 37.3752 27.8765 37.3752 23.8791V22.5943C37.3752 20.5237 35.6907 18.8393 33.6202 18.8393H26.6312C24.5606 18.8393 22.8762 20.5238 22.8762 22.5943V23.8791ZM24.8097 22.5943C24.8097 21.5899 25.6269 20.7727 26.6313 20.7727H33.6203C34.6248 20.7727 35.4419 21.5899 35.4419 22.5943V23.8791C35.4419 26.8103 33.0571 29.195 30.1259 29.195C27.1948 29.195 24.81 26.8102 24.81 23.8791V22.5943H24.8097Z" fill="#151515"/>
</g>
<defs>
<clipPath id="clip0_716_17328">
<rect width="66" height="66" fill="white"/>
</clipPath>
</defs>
</svg>
