<svg width="66" height="66" viewBox="0 0 66 66" fill="none" xmlns="http://www.w3.org/2000/svg">
<path d="M12.9487 47.3819C11.9096 47.3819 10.8194 47.3532 9.67849 47.2956C8.0049 47.211 6.71674 45.7857 6.8013 44.112C6.88586 42.4382 8.30667 41.1501 9.9849 41.2348C14.436 41.4598 18.124 41.1828 20.3706 40.4551C21.9649 39.9386 23.6758 40.8127 24.1922 42.4069C24.7084 44.0011 23.8347 45.7121 22.2404 46.2283C19.8711 46.9958 16.7547 47.3819 12.9487 47.3819Z" fill="#EDA751"/>
<path d="M47.3251 53.7167C43.0518 53.7167 40.5629 50.6699 38.3219 47.9269C37.6593 47.116 37.7796 45.9211 38.5908 45.2586C39.4017 44.596 40.5963 44.7161 41.2591 45.5275C44.2433 49.1802 45.7956 50.5757 49.1861 49.6468C50.4077 49.312 50.8678 48.6357 51.7119 47.2596C52.6289 45.7645 53.7704 43.9038 56.5024 42.6281C57.4513 42.1848 58.5799 42.595 59.0229 43.5441C59.4661 44.493 59.0559 45.6216 58.1069 46.0646C56.4074 46.8582 55.7296 47.963 54.9448 49.2425C54.0388 50.7199 52.9108 52.5587 50.1882 53.3046C49.1503 53.5889 48.2002 53.7167 47.3251 53.7167Z" fill="#EDA751"/>
<path d="M59.0232 43.5436C58.58 42.5944 57.4515 42.1843 56.5027 42.6276C56.0006 42.8621 55.5525 43.1164 55.1494 43.3846C55.3325 44.2556 55.8963 45.7888 57.0876 46.6583C57.3835 46.4452 57.7175 46.2462 58.1072 46.0643C59.0562 45.6211 59.4662 44.4925 59.0232 43.5436Z" fill="#FCD79D"/>
<path d="M28.0403 65.0333C26.4263 65.0333 25.0836 63.7617 25.0114 62.1333C24.8293 58.0206 25.0588 54.5703 25.3669 52.9753C25.6848 51.3301 27.2772 50.2537 28.9217 50.5718C30.5669 50.8896 31.6431 52.4812 31.3251 54.1266C31.1908 54.8221 30.8836 57.5682 31.0739 61.8649C31.148 63.539 29.8508 64.9564 28.1768 65.0304C28.1312 65.0324 28.0857 65.0333 28.0403 65.0333Z" fill="#EDA751"/>
<path d="M37.2707 65.0335C35.6567 65.0335 34.314 63.7618 34.2418 62.1335C34.0599 58.0219 34.2892 54.5716 34.5972 52.976C34.9149 51.3305 36.5072 50.2545 38.1515 50.5719C39.7969 50.8896 40.8732 52.481 40.5556 54.1262C40.4213 54.8223 40.1141 57.5694 40.3042 61.865C40.3784 63.5391 39.0812 64.9564 37.4072 65.0304C37.3616 65.0326 37.3161 65.0335 37.2707 65.0335Z" fill="#EDA751"/>
<path opacity="0.2" d="M47.2984 49.9234C45.0967 49.9036 43.6289 48.428 41.2591 45.5271C40.5963 44.7158 39.4017 44.5956 38.5908 45.2582C37.7796 45.9209 37.6593 47.1156 38.3219 47.9266C40.0826 50.0819 41.9971 52.4238 44.8093 53.3289C45.7912 52.3076 46.6307 51.163 47.2984 49.9234Z" fill="#A35F00"/>
<path opacity="0.2" d="M38.1516 50.5716C36.5073 50.2542 34.915 51.3302 34.5973 52.9757C34.3893 54.0526 34.2175 55.9751 34.1836 58.3748C36.3791 58.1736 38.4495 57.5659 40.309 56.6334C40.3788 55.3297 40.4887 54.473 40.5557 54.1259C40.8733 52.4807 39.7969 50.8894 38.1516 50.5716Z" fill="#A35F00"/>
<path opacity="0.2" d="M28.9216 50.5716C27.2772 50.2535 25.6849 51.3298 25.3668 52.975C25.2093 53.7904 25.0724 55.0915 25.0005 56.7174C26.8339 57.6111 28.8673 58.1904 31.0196 58.3799C31.055 56.084 31.2317 54.6096 31.325 54.1262C31.643 52.4811 30.5669 50.8894 28.9216 50.5716Z" fill="#A35F00"/>
<path opacity="0.2" d="M20.3705 40.4551C19.2847 40.8067 17.8615 41.0528 16.179 41.1882C16.1096 41.7641 16.0728 42.3492 16.0728 42.9422C16.0728 44.4316 16.2978 45.8722 16.7168 47.2366C18.8596 47.0606 20.7072 46.7248 22.2401 46.2283C23.8345 45.712 24.7082 44.0009 24.1919 42.4069C23.6756 40.8128 21.9648 39.9387 20.3705 40.4551Z" fill="#A35F00"/>
<path d="M32.5707 55.9466C40.2994 55.9466 46.5648 50.1245 46.5648 42.9425C46.5648 35.7606 40.2994 29.9385 32.5707 29.9385C24.842 29.9385 18.5767 35.7606 18.5767 42.9425C18.5767 50.1245 24.842 55.9466 32.5707 55.9466Z" fill="#FCD690"/>
<path opacity="0.15" d="M30.5268 55.8081C24.1317 51.6094 26.1136 43.004 27.1993 39.2406V30.9312C22.1361 32.8885 18.5757 37.5288 18.5757 42.9424C18.5758 49.4793 23.7666 54.889 30.5268 55.8081Z" fill="#C17A00"/>
<path d="M24.0536 20.3929C26.7921 18.095 28.6205 14.2376 24.7578 8.53532C20.8647 2.78803 15.0684 1.34738 10.5433 1.8804C9.42763 2.01189 8.49164 2.79731 8.16847 3.87317C6.85763 8.23703 7.27 14.1953 12.2539 19.0274C17.1989 23.8215 21.3151 22.6908 24.0536 20.3929Z" fill="#EDA751"/>
<path d="M7.98624 4.54102C6.91155 8.83166 7.51921 14.4373 12.2538 19.0275C16.5399 23.1829 20.2027 22.8859 22.8861 21.2371C21.0406 8.70868 12.9788 5.38651 7.98624 4.54102Z" fill="#FF91AB"/>
<path d="M41.0872 20.3929C38.3487 18.095 36.5203 14.2376 40.383 8.53532C44.2761 2.78803 50.0723 1.34738 54.5974 1.8804C55.713 2.01189 56.6491 2.79731 56.9723 3.87317C58.2831 8.23703 57.8708 14.1953 52.8869 19.0274C47.9419 23.8215 43.8255 22.6908 41.0872 20.3929Z" fill="#EDA751"/>
<path d="M57.1543 4.54102C58.2288 8.83166 57.6213 14.4373 52.8867 19.0275C48.6006 23.1829 44.9378 22.8859 42.2544 21.2371C44.0998 8.70868 52.1617 5.38651 57.1543 4.54102Z" fill="#FF91AB"/>
<path d="M56.3964 23.8612C56.3964 34.7551 45.7292 39.5264 32.5705 39.5264C19.4119 39.5264 8.74463 34.7551 8.74463 23.8612C8.74463 12.9673 19.4119 4.13623 32.5705 4.13623C45.7291 4.13623 56.3964 12.9673 56.3964 23.8612Z" fill="#FFDC9C"/>
<path opacity="0.15" d="M19.8486 7.18164C13.1759 10.6772 8.74463 16.8405 8.74463 23.8612C8.74463 33.2259 16.6274 38.0662 27.1992 39.2406C12.0236 30.1758 14.0028 17.9828 19.8486 7.18164Z" fill="#C17A00"/>
<path d="M39.6203 22.3993C41.1591 22.3993 42.4066 21.1518 42.4066 19.613C42.4066 18.0741 41.1591 16.8267 39.6203 16.8267C38.0815 16.8267 36.834 18.0741 36.834 19.613C36.834 21.1518 38.0815 22.3993 39.6203 22.3993Z" fill="#78CFC0"/>
<path d="M21.5749 22.3993C23.1137 22.3993 24.3612 21.1518 24.3612 19.613C24.3612 18.0741 23.1137 16.8267 21.5749 16.8267C20.036 16.8267 18.7886 18.0741 18.7886 19.613C18.7886 21.1518 20.036 22.3993 21.5749 22.3993Z" fill="#78CFC0"/>
<path d="M30.4462 20.1606C32.6303 20.1606 35.063 21.5194 35.4482 23.7685C35.6549 24.9757 34.7303 26.1086 33.4867 26.1086C31.6045 26.1086 31.0915 24.7662 29.1846 24.7662C27.5701 24.7662 26.2832 24.1691 26.2832 22.7858C26.2833 21.8186 27.4247 20.1606 30.4462 20.1606Z" fill="#FF91AB"/>
<path d="M35.1083 25.0119C34.1895 23.7424 31.6264 23.9911 30.9815 25.488C30.3097 27.0471 31.3859 29.0602 31.9336 30.5199C32.1978 31.2237 32.8697 31.6897 33.6214 31.6897C34.509 31.6897 35.2625 31.0439 35.4025 30.1674C35.6604 28.5515 35.8855 26.0859 35.1083 25.0119Z" fill="white"/>
<path d="M31.5245 5.31313C31.6727 3.10252 33.4728 1.30853 35.6838 1.16557C36.3613 1.12174 37.0086 1.22989 37.5959 1.45845C37.8243 1.54726 38.0762 1.54507 38.3008 1.4471C39.0085 1.13876 39.7895 0.966797 40.6107 0.966797C43.3444 0.966797 45.6346 2.85991 46.2451 5.40633C46.3019 5.64339 46.4512 5.84474 46.6581 5.97352C48.0753 6.85627 48.9771 8.48835 48.8066 10.3164C48.6024 12.5053 46.8255 14.2663 44.635 14.453C43.3156 14.5655 42.1007 14.1194 41.199 13.3257C40.6714 12.8612 40.0203 12.5693 39.3345 12.4152C38.2873 12.1798 37.3475 11.6611 36.5997 10.9435C36.1011 10.465 35.489 10.1115 34.8215 9.93287C32.823 9.39804 31.377 7.51201 31.5245 5.31313Z" fill="#FF91AB"/>
<path d="M36.7154 47.3819C35.6763 47.3819 34.586 47.3532 33.4451 47.2956C31.7715 47.211 30.4833 45.7857 30.5679 44.112C30.6525 42.4382 32.0757 41.1501 33.7515 41.2348C38.2028 41.4598 41.8906 41.1828 44.1372 40.4551C45.7315 39.9386 47.4424 40.8127 47.9586 42.4069C48.4749 44.0011 47.6012 45.7121 46.0069 46.2283C43.6377 46.9958 40.5213 47.3819 36.7154 47.3819Z" fill="#EDA751"/>
<g opacity="0.1">
<path d="M47.144 6.32305C46.9898 6.19659 46.8277 6.07941 46.6578 5.97358C46.451 5.84468 46.3017 5.64332 46.2448 5.40639C46.1876 5.16766 46.1157 4.93473 46.0299 4.7085C44.439 5.26344 42.9046 6.32575 42.3457 7.74656C42.1559 8.22893 42.3931 8.77368 42.8754 8.96356C42.9883 9.00791 43.1044 9.02892 43.2188 9.02892C43.5932 9.02892 43.9469 8.80333 44.0924 8.43376C44.405 7.63905 45.6376 6.70577 47.144 6.32305Z" fill="#151515"/>
<path d="M37.5761 4.77478C37.0801 4.92495 36.7997 5.44883 36.9497 5.94499C37.148 6.5997 37.57 8.80683 34.79 9.92368C34.8005 9.92651 34.8108 9.92999 34.8212 9.93283C35.4888 10.1115 36.1008 10.4651 36.5994 10.9435C36.6338 10.9765 36.6707 11.0069 36.7058 11.0391C38.9881 9.54959 39.2824 7.17346 38.7462 5.40126C38.596 4.9051 38.0724 4.62486 37.5761 4.77478Z" fill="#151515"/>
</g>
<g opacity="0.1">
<path d="M41.7708 4.95854C42.2973 4.95854 42.7242 4.53169 42.7242 4.00515C42.7242 3.47861 42.2973 3.05176 41.7708 3.05176C41.2442 3.05176 40.8174 3.47861 40.8174 4.00515C40.8174 4.53169 41.2442 4.95854 41.7708 4.95854Z" fill="#151515"/>
<path d="M34.7376 5.91191C35.2641 5.91191 35.691 5.48506 35.691 4.95852C35.691 4.43197 35.2641 4.00513 34.7376 4.00513C34.211 4.00513 33.7842 4.43197 33.7842 4.95852C33.7842 5.48506 34.211 5.91191 34.7376 5.91191Z" fill="#151515"/>
<path d="M44.7859 12.0743C45.3125 12.0743 45.7393 11.6474 45.7393 11.1209C45.7393 10.5943 45.3125 10.1675 44.7859 10.1675C44.2594 10.1675 43.8325 10.5943 43.8325 11.1209C43.8325 11.6474 44.2594 12.0743 44.7859 12.0743Z" fill="#151515"/>
</g>
<path d="M59.8989 43.1347C59.5753 42.4417 59.0013 41.9162 58.2825 41.655C57.5635 41.3937 56.7861 41.4281 56.0933 41.7517C53.098 43.1503 51.8206 45.2329 50.8876 46.7537C50.0365 48.1411 49.754 48.4883 48.9305 48.7141C47.8026 49.0232 46.9624 49.0464 46.1766 48.7618C46.4706 48.1611 46.7209 47.5356 46.9243 46.8882C47.6568 46.5077 48.2523 45.9116 48.6354 45.1617C49.1216 44.2098 49.2078 43.1257 48.8786 42.1092C48.5843 41.2 47.9885 40.443 47.1854 39.9452C47.0458 39.3491 46.8631 38.7625 46.6411 38.189C47.8179 37.7289 48.9113 37.2029 49.9106 36.6108C54.786 33.7223 57.363 29.3135 57.363 23.8613C57.363 21.4742 56.862 19.1247 55.9162 16.913C58.5468 12.9903 59.2718 8.1684 57.8981 3.59545C57.4633 2.14745 56.212 1.09751 54.7105 0.920648C51.6521 0.560098 48.53 1.10189 45.8209 2.44419C44.57 0.931605 42.6858 0 40.6104 0C39.6823 0 38.7816 0.185883 37.9334 0.552621C37.1958 0.267609 36.4177 0.149402 35.6211 0.200836C33.6465 0.328453 31.9547 1.52032 31.1143 3.20616C28.2229 3.34563 25.4236 3.90006 22.8175 4.82934C19.4584 1.80623 14.9796 0.38427 10.4301 0.92052C8.92871 1.09738 7.67742 2.14732 7.24249 3.59532C5.87093 8.16144 6.59177 12.9756 9.21269 16.8951C8.27 19.1027 7.77758 21.4521 7.77758 23.8613C7.77758 30.5213 11.5379 35.4847 18.4952 38.1951C18.2644 38.7906 18.0777 39.3974 17.9367 40.0142C15.8401 40.3368 13.1281 40.4258 10.0334 40.2693C7.83082 40.1571 5.94711 41.86 5.83574 44.0631C5.72436 46.2666 7.42631 48.1498 9.6297 48.2611C10.7798 48.3192 11.8965 48.3487 12.9487 48.3487C15.0355 48.3487 16.9398 48.2322 18.6248 48.003C19.7347 50.6608 21.6916 52.9258 24.1845 54.5072C23.9768 56.6227 23.924 59.4293 24.0457 62.1763C24.1407 64.3204 25.8954 66 28.0404 66C28.1007 66 28.1614 65.9987 28.2197 65.9961C29.2873 65.9488 30.2728 65.4888 30.9942 64.7002C31.7157 63.912 32.0871 62.8897 32.0397 61.822C31.9481 59.7538 31.9752 58.1011 32.033 56.9035C32.2114 56.9094 32.3902 56.9134 32.5701 56.9134C32.8 56.9134 33.0285 56.9076 33.2562 56.8979C33.2027 58.2319 33.181 60.0265 33.2763 62.1761C33.3713 64.3204 35.1259 66 37.2709 66C37.3313 66 37.3916 65.9987 37.4502 65.9961C38.9164 65.9313 40.2273 65.0708 40.8712 63.7507C41.1051 63.2707 40.906 62.6919 40.4259 62.4579C39.946 62.2241 39.3673 62.4234 39.1332 62.903C38.8003 63.586 38.1226 64.0308 37.3626 64.0645C37.3319 64.066 37.3014 64.0665 37.2711 64.0665C36.1633 64.0665 35.257 63.1987 35.2079 62.0908C35.1088 59.8482 35.1403 58.0083 35.2003 56.6955C36.6919 56.4479 38.1144 55.9922 39.4294 55.3592C39.3461 56.295 39.276 57.6061 39.2775 59.2578C39.278 59.7915 39.7108 60.2236 40.2443 60.2236H40.2453C40.7793 60.2231 41.2116 59.7898 41.2111 59.2558C41.2084 56.463 41.4226 54.7384 41.5053 54.3098C41.5169 54.2499 41.5269 54.1895 41.5357 54.1288C41.8862 53.8841 42.2255 53.6256 42.5517 53.3531C44.0416 54.2471 45.6101 54.6834 47.3249 54.6834C48.3129 54.6834 49.3622 54.5333 50.4435 54.2369C53.535 53.39 54.8262 51.285 55.769 49.7479C56.5297 48.5076 57.0794 47.6113 58.5159 46.9407C59.2089 46.6171 59.7344 46.043 59.9957 45.3243C60.2567 44.605 60.2223 43.8276 59.8989 43.1347ZM12.9487 46.415C11.9289 46.415 10.8452 46.3863 9.72742 46.3299C8.58879 46.2724 7.70939 45.2992 7.76688 44.1607C7.82437 43.0225 8.79671 42.1441 9.93599 42.2003C12.8789 42.3492 15.5099 42.282 17.6425 42.0081C17.6207 42.3177 17.6086 42.629 17.6086 42.9422C17.6086 44.0394 17.7453 45.1074 18.0026 46.1323C16.4933 46.3191 14.8009 46.415 12.9487 46.415ZM47.0391 42.705C47.2091 43.2301 47.1646 43.7904 46.9134 44.2821C46.6629 44.7724 46.2373 45.1359 45.7143 45.3068C45.712 45.3076 45.7097 45.3085 45.7073 45.3093C45.7072 45.3093 45.707 45.3094 45.7068 45.3095C43.4401 46.0431 40.4151 46.4151 36.7154 46.4151C35.6954 46.4151 34.6117 46.3864 33.494 46.3301C32.9424 46.3021 32.4348 46.0612 32.0644 45.6515C31.6942 45.2417 31.5056 44.7124 31.5335 44.161C31.5614 43.609 31.8021 43.1012 32.2114 42.7311C32.5944 42.3849 33.0823 42.1977 33.5954 42.1977C33.631 42.1977 33.6669 42.1986 33.7026 42.2004C38.2675 42.4316 42.0789 42.1382 44.435 41.375C44.9605 41.2051 45.5207 41.2496 46.0125 41.5007C46.5042 41.7518 46.8689 42.1795 47.0391 42.705ZM36.5217 40.3446C39.5558 40.1103 42.3411 39.6004 44.8154 38.8286C44.882 38.9976 44.9449 39.1679 45.0031 39.3395C44.6128 39.3467 44.2213 39.4118 43.8395 39.5354C42.168 40.0766 39.624 40.3538 36.5217 40.3446ZM54.899 14.882C53.6204 12.6649 51.8701 10.6349 49.7083 8.90807C49.7019 8.87159 49.6952 8.83523 49.6881 8.79888C51.9661 6.99149 54.4538 6.10526 56.4063 5.67226C56.8006 7.87295 56.8955 11.3374 54.899 14.882ZM54.4841 2.84071C55.0933 2.91251 55.6175 3.27809 55.9012 3.80415C53.8737 4.26319 51.3387 5.16502 48.9492 6.93C48.5103 6.22798 47.9136 5.61889 47.1797 5.1596C47.0906 4.79299 46.9724 4.44018 46.829 4.10244C49.1692 2.97902 51.852 2.53082 54.4841 2.84071ZM32.4889 5.37784C32.509 5.0771 32.5684 4.78693 32.6606 4.51146C32.6736 4.47923 32.6854 4.44649 32.695 4.41272C33.1615 3.14634 34.343 2.22105 35.746 2.13043C36.2637 2.09743 36.7685 2.174 37.245 2.3595C37.7155 2.54268 38.2276 2.53327 38.6868 2.33359C39.2957 2.06817 39.9428 1.93359 40.6104 1.93359C42.2929 1.93359 43.7999 2.79018 44.6678 4.13815C44.6736 4.14923 44.6785 4.16071 44.6849 4.17166C44.7035 4.20441 44.7242 4.23521 44.746 4.26499C44.9956 4.68059 45.1866 5.13936 45.3048 5.6323C45.4209 6.11583 45.7201 6.52846 46.1467 6.79426C46.8791 7.25046 47.4075 7.93289 47.6707 8.71729C47.6746 8.73069 47.6786 8.74397 47.6831 8.75712C47.8327 9.22092 47.8911 9.71889 47.8437 10.2266C47.6839 11.9406 46.269 13.3435 44.5529 13.4898C43.5502 13.5741 42.5865 13.2592 41.8376 12.5999C41.2169 12.0535 40.4459 11.6739 39.5463 11.4719C38.6923 11.2801 37.9048 10.8561 37.2689 10.246C36.6457 9.64799 35.886 9.21693 35.0712 8.99882C33.4629 8.56866 32.3771 7.04563 32.4889 5.37784ZM10.6564 2.84071C12.4579 2.62827 16.8204 2.53146 20.7889 5.64648C19.5039 6.22617 18.2774 6.90241 17.1238 7.67095C14.4837 5.41677 11.555 4.32777 9.23938 3.80402C9.52297 3.27796 10.0474 2.91251 10.6564 2.84071ZM8.73432 5.672C10.7215 6.11235 13.2225 7.01314 15.5095 8.84529C15.2804 9.02666 15.054 9.211 14.8321 9.40049C12.9291 11.0259 11.3852 12.8706 10.2313 14.8644C8.24474 11.3257 8.34051 7.86895 8.73432 5.672ZM29.5679 63.3948C29.195 63.8021 28.6859 64.04 28.1317 64.0643C28.1012 64.0659 28.0706 64.0664 28.0404 64.0664C26.9327 64.0664 26.0265 63.1986 25.9773 62.0905C25.8746 59.7705 25.8993 57.4169 26.0391 55.5101C27.3056 56.0863 28.6717 56.4999 30.1061 56.7227C30.043 57.9765 30.0113 59.7214 30.1081 61.9075C30.1325 62.4592 29.9406 62.9875 29.5679 63.3948ZM41.879 51.3708C41.8338 51.4048 41.7918 51.4435 41.7525 51.4861C41.2487 51.9478 40.7055 52.3704 40.128 52.7499C40.0948 52.7691 40.0628 52.7903 40.0322 52.8131C37.9005 54.1877 35.3175 54.9798 32.5702 54.9798C25.3866 54.9798 19.5423 49.5798 19.5423 42.9423C19.5423 42.3094 19.5947 41.6843 19.6984 41.0693C19.7036 41.0467 19.7072 41.0238 19.7107 41.0008C19.8402 40.2614 20.0449 39.537 20.3231 38.8315C21.4159 39.1707 22.5747 39.4618 23.7997 39.7016C23.8624 39.714 23.9249 39.7198 23.9864 39.7198C24.4395 39.7198 24.8439 39.3999 24.9341 38.9386C25.0367 38.4146 24.695 37.9067 24.171 37.8041C22.732 37.5224 21.3928 37.1673 20.1543 36.7418C20.1269 36.7305 20.0993 36.7208 20.0716 36.7124C17.4797 35.8118 15.3352 34.5988 13.6723 33.0838C11.0439 30.6888 9.71117 27.5861 9.71117 23.8616C9.71117 21.5768 10.2108 19.3475 11.1665 17.2617C11.1852 17.2275 11.202 17.1925 11.2164 17.1565C12.2968 14.8416 13.9396 12.7056 16.0878 10.8708C16.5716 10.4576 17.0755 10.0656 17.5962 9.69388C17.5974 9.69311 17.5984 9.6922 17.5996 9.69143C19.2046 8.54597 20.9775 7.59993 22.8711 6.87057C22.9145 6.85768 22.9571 6.84131 22.9987 6.82223C25.3663 5.92492 27.9192 5.36495 30.5661 5.17649C30.5642 5.20059 30.5612 5.22444 30.5596 5.24855C30.3862 7.8357 32.0733 10.1985 34.5713 10.8669C35.0717 11.0009 35.5414 11.2686 35.9299 11.6414C36.8203 12.4957 37.9242 13.0894 39.1223 13.3586C39.7019 13.4887 40.1855 13.7218 40.5599 14.0514C41.5854 14.9543 42.8723 15.4374 44.2276 15.4374C44.3898 15.4374 44.5531 15.4305 44.717 15.4165C47.0694 15.216 48.9943 13.5652 49.5967 11.3537C51.2102 12.8288 52.52 14.4905 53.4992 16.3128C53.6549 16.6027 53.8011 16.8951 53.9381 17.1895C53.9444 17.2038 53.9509 17.2181 53.958 17.2322C54.9347 19.3456 55.4292 21.5708 55.4292 23.8613C55.4292 28.6604 53.2407 32.3901 48.9247 34.9473C47.7657 35.6339 46.4652 36.2257 45.0399 36.721C45.031 36.724 45.0221 36.7268 45.0132 36.7302C41.538 37.9334 37.3188 38.5596 32.5701 38.5596C31.1861 38.5596 29.8249 38.5051 28.5248 38.3976C27.9927 38.353 27.5255 38.7492 27.4815 39.2813C27.4376 39.8135 27.8333 40.2805 28.3653 40.3246C29.6227 40.4285 30.9344 40.4828 32.2668 40.4901C31.7732 40.664 31.3142 40.9355 30.9146 41.2968C30.1223 42.0133 29.6562 42.9956 29.6023 44.0631C29.5483 45.1305 29.9132 46.155 30.63 46.9479C31.3465 47.7407 32.3289 48.2072 33.3963 48.2611C34.5464 48.3192 35.6631 48.3487 36.7154 48.3487C39.7653 48.3487 42.3997 48.1011 44.5802 47.6132C44.4228 47.9597 44.2506 48.298 44.061 48.6256C44.055 48.6343 44.0484 48.6421 44.0428 48.651C44.0234 48.6811 44.0063 48.712 43.9907 48.7432C43.415 49.7123 42.7028 50.5948 41.879 51.3708ZM58.1782 44.6634C58.0934 44.8968 57.9228 45.0833 57.6977 45.1882C55.7348 46.1046 54.9507 47.3831 54.1205 48.7366C53.261 50.1382 52.2866 51.7267 49.9326 52.3716C49.0177 52.6222 48.1403 52.7495 47.3249 52.7495C46.1492 52.7495 45.0561 52.4869 44.0108 51.9514C44.4389 51.4779 44.8334 50.9761 45.1927 50.4493C46.4456 50.9949 47.7937 51.0302 49.4415 50.5787C51.0861 50.1279 51.7258 49.0849 52.5358 47.7645C53.4296 46.3076 54.4424 44.6565 56.9114 43.5034C57.1363 43.3985 57.3886 43.3873 57.622 43.4721C57.8555 43.5568 58.0417 43.7274 58.1468 43.9526C58.2519 44.1777 58.2629 44.4301 58.1782 44.6634ZM29.8725 25.824C29.5819 27.3009 30.2159 28.8536 30.7406 30.1367C30.8455 30.3935 30.9447 30.6361 31.0285 30.8595C31.4319 31.9342 32.4738 32.6563 33.6214 32.6563C34.9902 32.6563 36.1408 31.6737 36.3571 30.3198C36.7259 28.0087 36.6916 26.2706 36.2566 25.1347C36.4373 24.6475 36.4895 24.1199 36.4013 23.6051C36.1781 22.3017 35.3817 21.1339 34.1589 20.3172C33.0903 19.6033 31.737 19.1938 30.4463 19.1938C26.7093 19.1938 25.3166 21.3969 25.3166 22.7856C25.3166 24.6036 26.7987 25.7328 29.1848 25.7328C29.4421 25.7329 29.6625 25.7655 29.8725 25.824ZM34.4476 30.0149C34.3822 30.4251 34.0346 30.7227 33.6214 30.7227C33.2751 30.7227 32.9606 30.5048 32.8388 30.18C32.745 29.9305 32.6408 29.6752 32.5303 29.4049C32.0564 28.2463 31.4669 26.8041 31.8693 25.8703C32.0251 25.5087 32.4854 25.2353 33.0423 25.1741C33.1186 25.1657 33.1943 25.1615 33.2685 25.1615C33.7282 25.1615 34.1365 25.3182 34.325 25.5786C34.6541 26.0333 34.8591 27.4374 34.4476 30.0149ZM27.2502 22.7857C27.2502 22.3429 28.0076 21.1275 30.4463 21.1275C31.9724 21.1275 33.7503 21.9757 34.3343 23.381C33.8699 23.2422 33.3576 23.194 32.8303 23.2521C32.0502 23.3381 31.3501 23.6451 30.828 24.1062C30.3694 23.9271 29.841 23.7993 29.1848 23.7993C27.5015 23.7993 27.2502 23.1642 27.2502 22.7857ZM17.7361 24.4209C18.2651 24.4914 18.7514 24.1185 18.8214 23.5892C18.8914 23.0599 18.519 22.5739 17.9897 22.5039C16.61 22.3215 13.7782 22.5335 12.5896 22.8303C12.0716 22.9599 11.7568 23.4848 11.8862 24.0029C11.9962 24.442 12.3902 24.7354 12.8235 24.7354C12.9012 24.7354 12.9801 24.726 13.0587 24.7063C14.0355 24.4622 16.6195 24.2732 17.7361 24.4209ZM18.4907 25.7428C17.1457 26.1 14.6081 27.3747 13.6226 28.1022C13.1929 28.4194 13.1018 29.0247 13.4189 29.4542C13.6085 29.711 13.901 29.8468 14.1975 29.8468C14.3969 29.8468 14.5981 29.7853 14.7709 29.6578C15.5808 29.0599 17.8979 27.9007 18.9869 27.6117C19.5029 27.4747 19.8102 26.9453 19.6732 26.4291C19.5363 25.9131 19.0071 25.6061 18.4907 25.7428ZM39.6208 23.3664C41.6902 23.3664 43.3738 21.6827 43.3738 19.6133C43.3738 17.544 41.6901 15.8604 39.6208 15.8604C37.5513 15.8604 35.8677 17.544 35.8677 19.6133C35.8677 21.6827 37.5513 23.3664 39.6208 23.3664ZM39.6208 17.7938C40.6239 17.7938 41.4402 18.6101 41.4402 19.6132C41.4402 20.6165 40.6239 21.4327 39.6208 21.4327C38.6175 21.4327 37.8013 20.6165 37.8013 19.6132C37.8013 18.6101 38.6175 17.7938 39.6208 17.7938ZM21.5753 15.8602C19.5059 15.8602 17.8222 17.5439 17.8222 19.6132C17.8222 21.6825 19.506 23.3663 21.5753 23.3663C23.6448 23.3663 25.3284 21.6825 25.3284 19.6132C25.3284 17.5439 23.6447 15.8602 21.5753 15.8602ZM21.5753 21.4329C20.572 21.4329 19.7558 20.6166 19.7558 19.6133C19.7558 18.6102 20.572 17.794 21.5753 17.794C22.5786 17.794 23.3948 18.6102 23.3948 19.6133C23.3948 20.6166 22.5786 21.4329 21.5753 21.4329ZM47.5734 28.1022C46.5878 27.3747 44.0501 26.1 42.7052 25.7428C42.1892 25.6061 41.6597 25.913 41.5227 26.4291C41.3856 26.9453 41.6929 27.4746 42.209 27.6117C43.2977 27.9007 45.615 29.0599 46.425 29.6578C46.5978 29.7853 46.7988 29.8468 46.9983 29.8468C47.2948 29.8468 47.5873 29.711 47.7769 29.4542C48.0942 29.0245 48.003 28.4193 47.5734 28.1022ZM42.3746 23.5892C42.4446 24.1185 42.9303 24.4913 43.4599 24.4209C44.5767 24.273 47.1605 24.462 48.1372 24.7063C48.216 24.7259 48.2949 24.7354 48.3725 24.7354C48.8056 24.7353 49.1998 24.4422 49.3098 24.0029C49.4392 23.4848 49.1243 22.9599 48.6063 22.8303C47.4178 22.5331 44.5859 22.3215 43.2063 22.5039C42.677 22.5739 42.3046 23.0599 42.3746 23.5892Z" fill="#151515"/>
</svg>
