<svg width="66" height="66" viewBox="0 0 66 66" fill="none" xmlns="http://www.w3.org/2000/svg">
<g clip-path="url(#clip0_716_15420)">
<path d="M11.7579 53.4041C11.5519 53.4041 11.3423 53.3698 11.1367 53.2978C10.1608 52.9546 9.64775 51.8853 9.99076 50.9093C10.5839 49.2219 11.8852 47.9224 13.6546 47.25C16.2204 46.2748 19.4885 46.6563 22.3971 48.2702C23.6567 48.9692 24.6306 48.9674 25.7578 48.2648C27.0029 47.4888 28.2449 45.9612 29.4457 44.4841L29.8132 44.0328C30.468 43.2315 31.6482 43.1131 32.4491 43.7671C33.2503 44.4217 33.3691 45.6018 32.7147 46.403L32.3528 46.8474C30.9579 48.5633 29.5153 50.3376 27.7394 51.4443C25.4442 52.8744 23.0354 52.9088 20.5796 51.5463C18.6823 50.4937 16.4867 50.1816 14.9853 50.7523C14.2437 51.0339 13.7525 51.5049 13.5251 52.1519C13.2544 52.9221 12.5308 53.4041 11.7579 53.4041Z" fill="#EDA751"/>
<path opacity="0.2" d="M32.449 43.7669C31.6482 43.1127 30.4681 43.2313 29.8131 44.0326L29.4456 44.4839C28.2447 45.9612 27.0027 47.4887 25.7577 48.2646C24.6303 48.9671 23.6566 48.969 22.397 48.27C20.9636 47.4746 19.4429 46.9793 17.9619 46.7974L24.691 52.5169C25.7249 52.4223 26.7428 52.0648 27.7391 51.4439C29.5152 50.3371 30.9575 48.5629 32.3525 46.847L32.7145 46.4025C33.369 45.6015 33.2502 44.4215 32.449 43.7669Z" fill="#A35F00"/>
<path d="M10.7697 49.4182C10.4432 49.8705 10.1804 50.3698 9.99076 50.9093C9.64774 51.8853 10.1608 52.9546 11.1369 53.2977C11.3425 53.3699 11.5521 53.4041 11.7581 53.4041C12.5308 53.4041 13.2544 52.922 13.5254 52.1517C13.6325 51.8469 13.8003 51.5828 14.0231 51.3575C13.2476 50.1655 11.8161 49.61 10.7697 49.4182Z" fill="#FCD79D"/>
<path d="M30.6034 63.0498C30.2717 63.0498 29.9349 62.9944 29.6045 62.8776C28.0439 62.3259 27.2259 60.6135 27.7777 59.053C28.7956 56.1738 29.7276 53.0133 28.9218 51.4019C28.1817 49.9213 28.7816 48.1212 30.2622 47.381C31.7431 46.6408 33.5428 47.2409 34.2831 48.7214C35.9871 52.1294 35.1741 56.115 33.4291 61.0509C32.9942 62.2811 31.8378 63.0498 30.6034 63.0498Z" fill="#EDA751"/>
<path opacity="0.2" d="M30.2619 47.3808C28.7813 48.1209 28.1814 49.9213 28.9215 51.4017C29.4419 52.4424 29.2371 54.1295 28.7528 55.9692L33.7246 60.195C35.26 55.6509 35.8873 51.9297 34.2829 48.721C33.5427 47.2406 31.7428 46.6406 30.2619 47.3808Z" fill="#A35F00"/>
<path d="M47.0112 63C46.6798 63 46.3426 62.9445 46.0122 62.8278C44.4516 62.276 43.6337 60.5637 44.1854 59.0031C44.738 57.4399 44.4882 55.8956 44.1813 54.8752C43.7882 53.5683 43.1732 52.6837 42.9382 52.4616C41.6289 51.4825 41.3443 49.6299 42.3075 48.3022C43.2792 46.9622 45.1536 46.6638 46.4933 47.6356C48.7981 49.3072 51.8864 55.2031 49.8367 61.0012C49.4019 62.2313 48.2458 63 47.0112 63ZM42.9729 52.4868C42.9733 52.4871 42.9738 52.4875 42.9742 52.4877C42.9738 52.4875 42.9733 52.4871 42.9729 52.4868Z" fill="#EDA751"/>
<path d="M37.9466 54.4743C45.5812 54.4743 51.7702 48.7233 51.7702 41.6291C51.7702 34.5349 45.5812 28.7839 37.9466 28.7839C30.3121 28.7839 24.123 34.5349 24.123 41.6291C24.123 48.7233 30.3121 54.4743 37.9466 54.4743Z" fill="#FCD690"/>
<path opacity="0.15" d="M35.9275 54.3379C29.6105 50.1906 31.5683 41.6903 32.6406 37.9731V29.7651C27.6394 31.6986 24.1226 36.2821 24.1226 41.6295C24.1226 48.0863 29.2499 53.4299 35.9275 54.3379Z" fill="#C17A00"/>
<path d="M29.534 19.3559C32.2391 17.0861 34.0449 13.2759 30.2296 7.64338C26.3841 1.96638 20.6588 0.543261 16.1891 1.06984C15.0871 1.19965 14.1624 1.97553 13.8433 3.03823C12.5485 7.3487 12.9557 13.2341 17.8786 18.0071C22.7631 22.7425 26.8291 21.6255 29.534 19.3559Z" fill="#EDA751"/>
<path d="M13.6628 3.69775C12.6013 7.93578 13.2016 13.4729 17.8781 18.007C22.1118 22.1115 25.7299 21.8183 28.3803 20.1897C26.5576 7.81461 18.5943 4.53293 13.6628 3.69775Z" fill="#FF91AB"/>
<path d="M46.3586 19.3559C43.6536 17.0861 41.8477 13.2759 45.663 7.64338C49.5084 1.96638 55.2337 0.543261 59.7036 1.06984C60.8057 1.19965 61.7303 1.97553 62.0495 3.03823C63.3442 7.3487 62.937 13.2341 58.0141 18.0071C53.1295 22.7425 49.0635 21.6255 46.3586 19.3559Z" fill="#EDA751"/>
<path d="M62.2297 3.69775C63.2913 7.93578 62.6911 13.4729 58.0144 18.007C53.7808 22.1115 50.1626 21.8183 47.5122 20.1897C49.3351 7.81461 57.2983 4.53293 62.2297 3.69775Z" fill="#FF91AB"/>
<path d="M61.4809 22.7817C61.4809 33.5422 50.9442 38.2552 37.9465 38.2552C24.9488 38.2552 14.4121 33.5422 14.4121 22.7817C14.4121 12.0211 24.9487 3.29785 37.9465 3.29785C50.9442 3.29785 61.4809 12.0211 61.4809 22.7817Z" fill="#FFDC9C"/>
<path opacity="0.15" d="M25.3803 6.30615C18.7892 9.75889 14.4121 15.8467 14.4121 22.7817C14.4121 32.0318 22.1985 36.8129 32.641 37.9729C17.651 29.019 19.606 16.9751 25.3803 6.30615Z" fill="#C17A00"/>
<path d="M29.1179 28.6326C31.4715 28.6326 33.3794 27.1133 33.3794 25.2393C33.3794 23.3652 31.4715 21.8459 29.1179 21.8459C26.7644 21.8459 24.8564 23.3652 24.8564 25.2393C24.8564 27.1133 26.7644 28.6326 29.1179 28.6326Z" fill="#FF91AB"/>
<path d="M52.2146 28.6326C54.5682 28.6326 56.4761 27.1133 56.4761 25.2393C56.4761 23.3652 54.5682 21.8459 52.2146 21.8459C49.8611 21.8459 47.9531 23.3652 47.9531 25.2393C47.9531 27.1133 49.8611 28.6326 52.2146 28.6326Z" fill="#FF91AB"/>
<path d="M11.8058 38.9946L22.4512 26.3088L17.5074 22.1602L6.86196 34.8459L11.8058 38.9946Z" fill="#495059"/>
<path d="M17.5066 22.1584L6.86129 34.8451L3.69704 32.1899C2.136 30.8799 1.93233 28.5527 3.24226 26.9916L9.14407 19.958C10.454 18.397 12.7813 18.1933 14.3423 19.5033L17.5066 22.1584Z" fill="#FF91AB"/>
<path d="M11.8057 38.9939L38.4065 61.6032C39.6406 62.6387 41.1413 63.306 42.7368 63.5284L53.4204 65.0182C54.495 65.1681 55.3563 64.1418 55.022 63.1095L51.6999 52.847C51.2037 51.3143 50.286 49.9521 49.0519 48.9168L22.4509 26.3074L11.8057 38.9939Z" fill="#F5D141"/>
<path opacity="0.1" d="M16.506 33.3911L45.1348 57.4153L46.3776 55.9343L17.7488 31.91L16.506 33.3911Z" fill="#151515"/>
<path d="M40.5288 62.91C41.2307 63.2123 41.9728 63.4221 42.7372 63.5287L53.4208 65.0184C54.4955 65.1683 55.3567 64.142 55.0224 63.1097L51.7001 52.8473C51.4624 52.1131 51.127 51.4186 50.7074 50.7798L40.5288 62.91Z" fill="#FFDC9C"/>
<path d="M48.4922 64.3312L53.4204 65.0184C54.4951 65.1683 55.3563 64.1419 55.022 63.1097L53.4895 58.3757L48.4922 64.3312Z" fill="#495059"/>
<path opacity="0.1" d="M53.4207 65.0183C53.9087 65.0863 54.3511 64.9105 54.659 64.6031C26.4732 52.2405 8.89039 30.3027 5.89991 23.8245L3.24226 26.9917C1.93233 28.5527 2.136 30.88 3.69704 32.1899L6.86129 34.8451L11.8058 38.9939L38.4067 61.6033C39.6408 62.6388 41.1415 63.306 42.737 63.5285L53.4207 65.0183Z" fill="#151515"/>
<path d="M17.0181 45.3474C16.5434 45.3474 16.0618 45.2342 15.6133 44.9959C14.1519 44.2184 13.5972 42.4037 14.3745 40.9424C14.5542 40.6046 15.5168 38.8389 16.8174 37.2606C17.8701 35.9832 19.759 35.801 21.0362 36.8537C22.3137 37.9063 22.4958 39.7952 21.4432 41.0725C20.6669 42.0145 19.9613 43.2033 19.6667 43.7572C19.1281 44.7701 18.0906 45.3474 17.0181 45.3474Z" fill="#EDA751"/>
<path d="M42.0816 46.2272C42.0754 46.2272 42.0694 46.2272 42.0632 46.2272C40.4079 46.2227 39.0698 44.8772 39.0742 43.2219C39.0787 41.5695 40.4199 40.233 42.0712 40.233C42.0757 40.2331 42.0799 40.2331 42.0846 40.233C43.282 40.233 46.5906 39.0802 48.1175 37.7607C49.3699 36.6784 51.2624 36.8163 52.3448 38.0688C53.427 39.3212 53.2892 41.2137 52.0367 42.2961C49.6097 44.3938 44.9638 46.2272 42.0816 46.2272Z" fill="#EDA751"/>
<path d="M40.6667 23.9764C41.8621 23.9764 42.9989 23.4586 43.7854 22.556C44.1363 22.1534 44.0941 21.5428 43.6917 21.1919C43.2889 20.8411 42.6784 20.8831 42.3276 21.2856C41.9083 21.7669 41.3028 22.0428 40.6664 22.0428C40.03 22.0428 39.4245 21.7669 39.0051 21.2856C38.6543 20.8829 38.0436 20.8412 37.6411 21.1921C37.2385 21.5429 37.1968 22.1536 37.5475 22.556C38.3345 23.4589 39.4713 23.9764 40.6667 23.9764ZM63.6185 62.73H55.9154L52.6197 52.5495C52.1826 51.1993 51.453 49.9723 50.4899 48.9492C51.6877 47.1612 52.4306 45.1399 52.659 43.0364C52.6622 43.0337 52.6657 43.0308 52.6689 43.0281C54.3225 41.599 54.5053 39.091 53.0763 37.4371C52.8468 37.1717 52.5894 36.9447 52.3124 36.7556C53.7716 36.1521 55.0907 35.4432 56.249 34.6337C60.304 31.8001 62.4473 27.7019 62.4473 22.782C62.4473 20.3976 61.9626 18.0776 61.0336 15.8988C63.6197 12.0255 64.3301 7.2704 62.9754 2.76012C62.5444 1.32528 61.3046 0.28501 59.817 0.109698C55.3226 -0.419588 50.8993 0.983033 47.5797 3.96642C44.5743 2.89483 41.3117 2.33087 37.9464 2.33087C34.6124 2.33087 31.3398 2.89883 28.321 3.97364C25.0003 0.985353 20.5722 -0.420361 16.0756 0.109827C14.5878 0.28501 13.348 1.32541 12.917 2.76038C11.5611 7.27427 12.2739 12.0336 14.8654 15.9085C14.5492 16.6483 14.2834 17.4043 14.071 18.1737C13.3041 17.7846 12.4425 17.6148 11.565 17.6912C10.3259 17.7997 9.20327 18.3841 8.40393 19.337L2.50199 26.3707C0.851485 28.3377 1.10904 31.2805 3.07588 32.931L11.1799 39.7311L13.1666 41.4197C13.0006 42.1022 13.0194 42.8193 13.23 43.5087C13.5395 44.5212 14.2248 45.3528 15.1597 45.85C15.1689 45.8549 15.1784 45.859 15.1877 45.8638C14.5367 45.9604 13.9075 46.1204 13.3116 46.3469C11.2712 47.1224 9.76814 48.6291 9.07901 50.5893C8.5599 52.0666 9.3394 53.6909 10.817 54.2106C11.1213 54.3173 11.438 54.3714 11.7583 54.3714C12.9615 54.3714 14.0384 53.6084 14.4376 52.4729C14.5209 52.236 14.7039 51.8937 15.3292 51.6562C16.5559 51.1902 18.4775 51.4856 20.111 52.392C22.3723 53.6465 24.6164 53.8495 26.7915 53L28.1556 54.1594C27.9256 55.621 27.356 57.3472 26.8668 58.731C26.514 59.7293 26.5708 60.8052 27.0272 61.7607C27.4836 62.716 28.2846 63.4366 29.2833 63.7897C29.7105 63.9405 30.1549 64.017 30.604 64.017C32.2804 64.017 33.7822 62.9547 34.3413 61.3735C34.5304 60.8387 34.7013 60.3349 34.8565 59.8548L37.7859 62.3446C39.1605 63.4981 40.8268 64.2389 42.6041 64.4868L53.2878 65.9765C53.4023 65.9925 53.5163 66.0004 53.6297 66.0004C54.3444 66.0004 55.0223 65.6879 55.4909 65.1294C55.6126 64.9845 55.7143 64.828 55.7977 64.6643H63.6192C64.1532 64.6643 64.586 64.2315 64.586 63.6975C64.586 63.1634 64.1526 62.73 63.6185 62.73ZM51.4045 41.5648C49.1663 43.4992 44.7225 45.2605 42.0814 45.2605H42.0655C40.9459 45.2574 40.0376 44.3443 40.0407 43.2247C40.0438 42.1107 40.9504 41.204 42.0631 41.1999C42.0735 41.2001 42.0841 41.1999 42.0948 41.1999C43.4966 41.1938 47.0241 39.983 48.7494 38.4922C49.5965 37.7602 50.8813 37.8539 51.6133 38.7008C52.3452 39.5481 52.2517 40.8327 51.4045 41.5648ZM50.3922 44.6077C50.0953 45.6686 49.64 46.6878 49.0375 47.6357L47.22 46.0908C48.3187 45.6793 49.4061 45.173 50.3922 44.6077ZM60.0141 13.8678C58.8204 11.8116 57.2055 9.91709 55.204 8.26001C55.0767 8.15469 54.948 8.05118 54.8184 7.94844C57.0676 6.15085 59.525 5.26398 61.481 4.82919C61.8671 6.99351 61.9586 10.3893 60.0141 13.8678ZM59.5908 2.03C60.1833 2.09987 60.6943 2.45268 60.9743 2.96173C58.69 3.48032 55.8052 4.55539 53.2031 6.77437C52.0696 6.01924 50.8672 5.35448 49.6084 4.78484C53.5201 1.72488 57.8146 1.82066 59.5908 2.03ZM37.9462 4.26458C50.39 4.26458 60.5137 12.5712 60.5137 22.7815C60.5137 27.1029 58.7062 30.5573 55.1415 33.0481C51.842 35.3539 47.0617 36.781 41.3176 37.1754C40.7849 37.2121 40.3827 37.6734 40.4193 38.2062C40.4542 38.7164 40.879 39.1067 41.3829 39.1067C41.4052 39.1067 41.4276 39.1059 41.45 39.1044C42.2597 39.0488 43.0515 38.9726 43.8255 38.8776C43.0777 39.1214 42.4302 39.2662 42.0842 39.2662C42.0795 39.266 42.0751 39.266 42.0708 39.2662C41.2839 39.2662 40.5497 39.4983 39.932 39.8964L27.491 29.322C28.1729 29.0061 28.7983 28.7579 29.2004 28.6512C29.7165 28.5142 30.0238 27.9847 29.8868 27.4687C29.7498 26.9527 29.2205 26.6458 28.7044 26.7823C27.9108 26.9929 26.7906 27.4943 25.8815 27.9541L23.3286 25.7842C23.3339 25.7829 23.3393 25.7825 23.3446 25.7812C24.3082 25.54 26.8579 25.3534 27.9604 25.4994C28.4895 25.5684 28.9756 25.1969 29.0456 24.6676C29.1154 24.1383 28.743 23.6525 28.2137 23.5825C26.85 23.4025 24.0501 23.6115 22.8756 23.9053C22.4549 24.0106 22.1681 24.3765 22.1446 24.7879L18.1283 21.4179C18.1282 21.4178 18.128 21.4176 18.1279 21.4175C18.1278 21.4174 18.1277 21.4174 18.1275 21.4173L15.7509 19.4231C16.667 15.3328 19.2649 11.5874 23.1173 8.82784C23.1316 8.81752 23.1463 8.80773 23.1608 8.79741C23.1623 8.79638 23.1639 8.79522 23.1655 8.79406C27.2664 5.87332 32.5127 4.26458 37.9462 4.26458ZM16.3018 2.03C18.0789 1.82053 22.3778 1.72501 26.2914 4.7909C25.0289 5.36002 23.8233 6.02324 22.6907 6.77553C20.0882 4.55578 17.2029 3.48058 14.9182 2.96186C15.1983 2.45268 15.7093 2.09987 16.3018 2.03ZM14.4113 4.82906C16.3675 5.26398 18.8252 6.15098 21.0744 7.9487C18.9177 9.65837 17.164 11.6706 15.8843 13.8778C13.9337 10.396 14.0249 6.99557 14.4113 4.82906ZM4.31853 31.4495C3.1683 30.4843 3.01774 28.7633 3.98286 27.6132L9.8848 20.5795C10.3523 20.0224 11.0089 19.6805 11.7334 19.6172C12.457 19.5533 13.1639 19.7762 13.721 20.2438L16.1448 22.2776L6.74247 33.4831L4.31853 31.4495ZM8.22333 34.726L17.6257 23.5206L21.089 26.4267L11.6865 37.632L8.22333 34.726ZM15.0789 42.9431C14.9205 42.4245 14.9733 41.8751 15.2281 41.3961C15.4 41.0728 16.3204 39.3837 17.5634 37.8754C17.9084 37.4568 18.3955 37.1976 18.9354 37.1457C19.0019 37.1392 19.0682 37.1361 19.134 37.1361C19.6036 37.1361 20.0547 37.2973 20.4215 37.5998C21.2855 38.3117 21.4091 39.594 20.6973 40.4579C19.8719 41.4597 19.1246 42.718 18.8134 43.3033C18.6578 43.5958 18.4374 43.8395 18.1752 44.0206C18.1697 44.0241 18.1641 44.0277 18.1586 44.0313C17.8282 44.2549 17.4332 44.3807 17.018 44.3807C16.6847 44.3807 16.3647 44.3006 16.0672 44.1423C15.5883 43.8876 15.2373 43.4616 15.0789 42.9431ZM21.0485 50.7007C18.8799 49.4975 16.4251 49.1707 14.6421 49.8484C13.6363 50.2303 12.9348 50.916 12.6131 51.8311C12.4856 52.1937 12.1418 52.4375 11.7578 52.4375C11.6561 52.4375 11.5549 52.4199 11.4573 52.3859C10.9859 52.2201 10.737 51.7014 10.9028 51.23C11.3996 49.8159 12.499 48.7236 13.998 48.1539C16.3008 47.2788 19.2651 47.6382 21.9278 49.1156C22.1597 49.2443 22.3823 49.3511 22.6035 49.4407L25.0233 51.4975C23.7323 51.7246 22.4202 51.4616 21.0485 50.7007ZM32.5176 60.7284C32.2312 61.5386 31.4618 62.0829 30.6033 62.0829C30.3741 62.0829 30.1462 62.0435 29.9266 61.966C28.8712 61.5928 28.3158 60.4305 28.689 59.375C29.0882 58.2458 29.539 56.8958 29.8417 55.5926L33.2557 58.4945C33.048 59.1801 32.8048 59.9163 32.5176 60.7284ZM42.8704 62.5712C42.6387 62.5389 42.4096 62.4951 42.1832 62.4419L42.5348 62.0231C42.878 61.6141 42.8247 61.0044 42.4156 60.6611C42.0066 60.3178 41.3969 60.3712 41.0536 60.7802L40.2719 61.7117C39.8338 61.4723 39.4182 61.1903 39.0326 60.8669L29.8051 53.0237C29.8044 53.0232 29.8038 53.0226 29.8031 53.0221L27.599 51.1487C27.5985 51.1483 27.5981 51.1479 27.5976 51.1475L20.1324 44.8024C20.2769 44.6187 20.4081 44.4221 20.5204 44.211C20.7978 43.6893 21.4615 42.5705 22.1893 41.6873C23.5792 40.0004 23.3378 37.4974 21.651 36.1075C20.8339 35.4341 19.803 35.1184 18.7496 35.221C17.6956 35.3226 16.7444 35.8286 16.0711 36.6458C15.2005 37.7023 14.4769 38.8352 14.0193 39.6069L13.1636 38.8796L22.566 27.6742L38.6065 41.308C38.2903 41.8749 38.1087 42.5264 38.1067 43.2194C38.1008 45.4052 39.8741 47.188 42.0624 47.1941H42.0809C42.9601 47.1941 43.9758 47.0432 45.0396 46.7758L48.43 49.6575C48.8176 49.9827 49.169 50.3444 49.4817 50.7355L43.7603 57.5541C43.417 57.9633 43.4703 58.573 43.8794 58.9161C44.0605 59.0682 44.281 59.1424 44.5003 59.1424C44.7763 59.1424 45.0502 59.0249 45.2414 58.797L50.533 52.4907C50.6245 52.7044 50.7075 52.9223 50.7795 53.1449L52.4044 58.1642L48.0952 63.2998L42.8704 62.5712ZM54.009 63.8858C53.9551 63.95 53.8017 64.0945 53.5541 64.0609L50.3555 63.6149L53.1078 60.3349L54.1026 63.4073C54.1798 63.6466 54.0628 63.8218 54.009 63.8858ZM31.6015 22.8209C32.1356 22.8209 32.5683 22.3882 32.5683 21.8541V20.3493C32.5683 19.8152 32.1356 19.3825 31.6015 19.3825C31.0674 19.3825 30.6347 19.8152 30.6347 20.3493V21.8541C30.6347 22.3882 31.0674 22.8209 31.6015 22.8209ZM49.7317 22.8209C50.2657 22.8209 50.6985 22.3882 50.6985 21.8541V20.3493C50.6985 19.8152 50.2657 19.3825 49.7317 19.3825C49.1978 19.3825 48.7649 19.8152 48.7649 20.3493V21.8541C48.7649 22.3882 49.1976 22.8209 49.7317 22.8209ZM52.1328 28.6514C53.2074 28.9367 55.4938 30.0806 56.293 30.6706C56.4657 30.7981 56.6668 30.8596 56.8663 30.8596C57.1628 30.8596 57.4553 30.7237 57.6449 30.4669C57.962 30.0374 57.8709 29.4322 57.4413 29.115C56.4671 28.3958 53.9584 27.1356 52.6288 26.7826C52.1119 26.6461 51.5833 26.953 51.4463 27.4689C51.3094 27.985 51.6167 28.5144 52.1328 28.6514ZM53.3726 25.5C54.4753 25.3543 57.0248 25.5408 57.9885 25.7817C58.0671 25.8013 58.1461 25.8109 58.2237 25.8109C58.6568 25.8109 59.051 25.5177 59.161 25.0783C59.2905 24.5602 58.9755 24.0355 58.4576 23.9058C57.283 23.6121 54.4835 23.403 53.1194 23.583C52.5902 23.653 52.2177 24.1387 52.2876 24.6681C52.3575 25.1975 52.8446 25.5688 53.3726 25.5Z" fill="#151515"/>
</g>
<defs>
<clipPath id="clip0_716_15420">
<rect width="66" height="66" fill="white"/>
</clipPath>
</defs>
</svg>
