<svg width="14" height="18" viewBox="0 0 14 18" fill="none" xmlns="http://www.w3.org/2000/svg">
<path d="M2.56761 18H11.4324C12.2774 18 12.9166 17.7796 13.35 17.3388C13.7833 16.8981 14 16.2562 14 15.4132V7.76033C14 6.91185 13.7833 6.26997 13.35 5.83471C12.9166 5.39394 12.2774 5.17355 11.4324 5.17355H9.37667V6.82645H11.3105C11.6518 6.82645 11.9145 6.91736 12.0987 7.09917C12.2828 7.27548 12.3749 7.54821 12.3749 7.91736V15.2479C12.3749 15.6116 12.2828 15.8843 12.0987 16.0661C11.9145 16.2479 11.6518 16.3388 11.3105 16.3388H2.6895C2.34823 16.3388 2.08551 16.2479 1.90133 16.0661C1.72258 15.8843 1.6332 15.6116 1.6332 15.2479V7.91736C1.6332 7.54821 1.72258 7.27548 1.90133 7.09917C2.08551 6.91736 2.34823 6.82645 2.6895 6.82645H4.64771V5.17355H2.56761C1.72799 5.17355 1.0888 5.39118 0.650029 5.82645C0.216676 6.26171 0 6.90634 0 7.76033V15.4132C0 16.2562 0.216676 16.8981 0.650029 17.3388C1.0888 17.7796 1.72799 18 2.56761 18ZM7.00406 11.719C7.20991 11.719 7.38595 11.6446 7.53221 11.4959C7.68388 11.3416 7.75972 11.1653 7.75972 10.9669V3.14876L7.69472 1.99174L8.14974 2.57851L9.18979 3.70248C9.32521 3.85124 9.49313 3.92562 9.69356 3.92562C9.87773 3.92562 10.0348 3.86501 10.1648 3.7438C10.2948 3.61708 10.3598 3.46006 10.3598 3.27273C10.3598 3.09091 10.2921 2.92837 10.1567 2.78512L7.58096 0.264463C7.48346 0.165289 7.38595 0.0964187 7.28845 0.0578512C7.19636 0.0192837 7.10157 0 7.00406 0C6.90114 0 6.80093 0.0192837 6.70342 0.0578512C6.61134 0.0964187 6.51654 0.165289 6.41904 0.264463L3.85142 2.78512C3.71058 2.92837 3.64016 3.09091 3.64016 3.27273C3.64016 3.46006 3.70517 3.61708 3.83517 3.7438C3.96518 3.86501 4.11956 3.92562 4.29832 3.92562C4.50416 3.92562 4.67479 3.85124 4.81021 3.70248L5.85026 2.57851L6.30528 1.99174L6.24028 3.14876V10.9669C6.24028 11.1653 6.31341 11.3416 6.45966 11.4959C6.61134 11.6446 6.7928 11.719 7.00406 11.719Z" fill="white"/>
</svg>
