<svg width="68" height="68" viewBox="0 0 68 68" fill="none" xmlns="http://www.w3.org/2000/svg">
<g clip-path="url(#clip0_20_650)">
<path d="M37.6361 63.5273C37.2754 63.5273 36.8952 63.5047 36.4925 63.4565C34.2493 63.1878 32.3893 61.8592 30.9645 59.5078C29.866 57.6947 29.1388 55.49 28.4973 53.5446C28.3241 53.0197 28.1607 52.5239 27.9956 52.0507C27.6606 51.0915 28.1666 50.0427 29.1255 49.7078C30.0848 49.3729 31.1337 49.8791 31.4685 50.8379C31.6442 51.3414 31.8126 51.8519 31.9908 52.3926C33.3174 56.4154 34.5234 59.5154 36.9301 59.8039C39.1157 60.0657 39.7718 59.2004 40.9628 57.6292C42.0788 56.1574 43.4679 54.3255 46.3314 53.7122C47.3251 53.4985 48.3023 54.1323 48.5151 55.1254C48.7278 56.1187 48.095 57.0965 47.1018 57.3091C45.5739 57.6364 44.8326 58.614 43.8943 59.8517C42.7005 61.4261 41.1069 63.5273 37.6361 63.5273Z" fill="#EDA751"/>
<path d="M48.515 55.1256C48.3022 54.1324 47.3249 53.4987 46.3313 53.7123C45.5411 53.8815 44.8637 54.144 44.2728 54.4657C44.2808 55.4453 44.6308 57.0267 45.8581 57.8024C46.2149 57.5814 46.619 57.4128 47.1017 57.3093C48.095 57.0967 48.7279 56.119 48.515 55.1256Z" fill="#FCD79D"/>
<path d="M23.0167 67.0049C21.9247 67.0049 20.8759 66.3946 20.367 65.3464C19.1468 62.8326 19.2114 59.9208 20.5442 57.3577C21.8656 54.8168 24.264 53.0405 26.9604 52.6058C28.5657 52.3473 30.0756 53.4381 30.3342 55.0427C30.5928 56.6474 29.5017 58.158 27.8972 58.4166C27.0294 58.5564 26.2328 59.1757 25.7663 60.0731C25.5459 60.4968 25.0949 61.6081 25.662 62.7763C26.3718 64.2385 25.7619 65.9992 24.2998 66.709C23.8856 66.9095 23.4476 67.0049 23.0167 67.0049Z" fill="#EDA751"/>
<path d="M23.0167 67.0049C21.9247 67.0049 20.8759 66.3946 20.367 65.3464C19.1468 62.8326 19.2114 59.9208 20.5442 57.3577C21.8656 54.8168 24.264 53.0405 26.9604 52.6058C28.5657 52.3473 30.0756 53.4381 30.3342 55.0427C30.5928 56.6474 29.5017 58.158 27.8972 58.4166C27.0294 58.5564 26.2328 59.1757 25.7663 60.0731C25.5459 60.4968 25.0949 61.6081 25.662 62.7763C26.3718 64.2385 25.7619 65.9992 24.2998 66.709C23.8856 66.9095 23.4476 67.0049 23.0167 67.0049Z" fill="#EDA751"/>
<path d="M10.7785 61.6842C10.7692 61.6842 10.76 61.6842 10.7507 61.6841C9.12549 61.6692 7.82008 60.3394 7.83509 58.7142C7.89007 52.7412 12.2936 49.2625 15.0561 48.4726C16.6189 48.0256 18.2478 48.9306 18.6945 50.4932C19.1413 52.0559 18.2365 53.6848 16.6739 54.1316C16.1938 54.2688 13.7495 55.6269 13.7205 58.7685C13.7058 60.3844 12.3911 61.6842 10.7785 61.6842Z" fill="#EDA751"/>
<path opacity="0.2" d="M34.6374 58.3635C33.5913 57.0292 32.8142 54.8889 31.9911 52.3926C31.8128 51.852 31.6444 51.3415 31.4687 50.8379C31.1339 49.879 30.0851 49.373 29.1258 49.7078C28.1668 50.0427 27.6607 51.0916 27.9957 52.0507C28.1608 52.5239 28.3243 53.0197 28.4975 53.5446C29.1389 55.4899 29.8661 57.6947 30.9646 59.5079C31.085 59.7067 31.2099 59.8955 31.3366 60.0797C32.4089 59.6764 33.4343 59.158 34.3954 58.5289C34.4773 58.475 34.5566 58.4185 34.6374 58.3635Z" fill="#A35F00"/>
<path opacity="0.2" d="M26.9602 52.6058C24.2639 53.0405 21.8653 54.8169 20.5441 57.3577C20.0969 58.2177 19.7933 59.1169 19.6322 60.0271C19.6763 60.0436 19.72 60.0607 19.7643 60.0769C21.5994 60.7447 23.5028 61.0916 25.4248 61.1107C25.4972 60.6504 25.6588 60.2797 25.7661 60.0732C26.2327 59.1758 27.0294 58.5565 27.8971 58.4166C29.5016 58.1579 30.5927 56.6474 30.3341 55.0428C30.0754 53.438 28.5654 52.3472 26.9602 52.6058Z" fill="#A35F00"/>
<path opacity="0.2" d="M15.0565 48.4726C13.6662 48.87 11.8607 49.9492 10.4027 51.6839C10.4651 51.8144 10.529 51.9447 10.5954 52.0742C11.4927 53.8273 12.697 55.3878 14.1439 56.7005C14.8716 55.0131 16.3168 54.2337 16.6742 54.1316C18.2369 53.6848 19.1416 52.0559 18.6948 50.4932C18.2482 48.9306 16.6193 48.0256 15.0565 48.4726Z" fill="#A35F00"/>
<path d="M37.7161 50.4438C40.0985 43.8979 36.3192 36.513 29.275 33.9493C22.2307 31.3856 14.5889 34.6138 12.2065 41.1597C9.82411 47.7057 13.6033 55.0905 20.6476 57.6543C27.6919 60.218 35.3337 56.9898 37.7161 50.4438Z" fill="#FCD690"/>
<path opacity="0.15" d="M18.8296 56.8497C14.3938 50.9015 19.0549 43.7159 21.2928 40.6461L24.0493 33.0728C18.7853 33.177 14.0011 36.2253 12.2054 41.1592C10.0368 47.1171 12.9731 53.7694 18.8296 56.8497Z" fill="#C17A00"/>
<path d="M24.6781 22.4247C27.9363 21.2388 30.8823 18.3297 29.2535 11.8512C27.6118 5.32152 22.807 2.08582 18.506 1.0706C17.4456 0.820248 16.3318 1.22572 15.6804 2.09896C13.0379 5.64147 11.4372 11.2087 14.3768 17.266C17.2934 23.2756 21.4201 23.6106 24.6781 22.4247Z" fill="#EDA751"/>
<path d="M15.2928 2.64697C12.8901 6.20103 11.5843 11.5115 14.3768 17.2657C16.9048 22.4749 20.3417 23.4193 23.3342 22.8065C25.8081 10.776 19.5626 5.07372 15.2928 2.64697Z" fill="#FF91AB"/>
<path d="M40.2024 28.0751C38.4688 25.0724 38.082 20.9503 43.4941 17.0344C48.9489 13.0877 54.7094 13.6974 58.6568 15.6844C59.6301 16.1742 60.2227 17.2007 60.1603 18.2884C59.9074 22.7006 57.555 27.9942 51.4098 30.7448C45.3127 33.4738 41.936 31.0777 40.2024 28.0751Z" fill="#EDA751"/>
<path d="M60.1049 18.9575C59.661 23.2245 57.2477 28.1319 51.4099 30.7448C46.1251 33.1104 42.8854 31.6246 40.9866 29.2316C46.8245 18.4256 55.2741 18.0719 60.1049 18.9575Z" fill="#FF91AB"/>
<path d="M53.0048 36.3144C49.391 46.2431 38.0861 47.0532 26.0932 42.6882C14.1002 38.3232 5.96095 30.4357 9.57478 20.5071C13.1886 10.5785 25.8403 6.06815 37.8331 10.4332C49.8259 14.7982 56.6186 26.3856 53.0048 36.3144Z" fill="#FFDC9C"/>
<path opacity="0.15" d="M25.2281 8.98877C17.987 9.96122 11.9037 14.1083 9.57484 20.5072C6.46837 29.0422 12.0471 36.0687 21.2927 40.6459C10.4687 27.3502 16.3172 16.8938 25.2281 8.98877Z" fill="#C17A00"/>
<path d="M24.4143 26.381C25.0437 24.6516 23.7936 22.609 21.6221 21.8187C19.4506 21.0284 17.18 21.7897 16.5506 23.5191C15.9212 25.2484 17.1713 27.2911 19.3428 28.0814C21.5143 28.8717 23.7849 28.1104 24.4143 26.381Z" fill="#FF91AB"/>
<path d="M37.861 31.2772C37.2316 33.0066 38.4817 35.0492 40.6532 35.8395C42.8247 36.6298 45.0952 35.8685 45.7246 34.1391C46.354 32.4098 45.1039 30.3671 42.9324 29.5768C40.761 28.7865 38.4904 29.5478 37.861 31.2772Z" fill="#FF91AB"/>
<path d="M27.4505 34.1488C27.4744 34.1684 27.4982 34.1876 27.5218 34.2066C28.3533 34.8772 29.383 35.252 30.4511 35.2728C30.4815 35.2734 30.5121 35.2739 30.5429 35.2744C32.3048 35.2991 33.8855 34.1937 34.4881 32.538L35.7518 29.0659C35.9611 28.4909 35.7267 27.8489 35.1962 27.544C33.2314 26.4144 31.086 25.6336 28.8548 25.236C28.2525 25.1286 27.6602 25.4698 27.451 26.0448L26.1873 29.5169C25.5845 31.1724 26.0849 33.0352 27.4505 34.1488Z" fill="#FF91AB"/>
<path d="M13.5322 18.3079C15.8388 17.909 17.1753 18.4905 18.067 19.2377C18.7161 19.7816 19.712 19.2378 19.6103 18.3971C19.1379 14.4907 15.8758 11.983 12.5055 12.5732C10.7673 12.8776 9.66068 14.6646 10.2579 16.4069C10.7196 17.7538 12.1291 18.5505 13.5322 18.3079Z" fill="#82C7E6"/>
<path d="M51.387 32.0861C49.8764 30.2979 48.4788 29.8842 47.3155 29.8834C46.4687 29.8828 46.0552 28.8262 46.6735 28.2474C49.5463 25.5587 53.6571 25.7345 55.8596 28.353C56.9955 29.7036 56.6945 31.7837 55.117 32.7345C53.8977 33.4695 52.3058 33.1737 51.387 32.0861Z" fill="#82C7E6"/>
<path d="M31.6689 57.4544C29.9851 57.4544 27.9005 56.871 25.4366 55.1199C24.1119 54.1782 23.8011 52.3409 24.7428 51.0162C25.6844 49.6914 27.5219 49.3809 28.8464 50.3224C30.5389 51.5254 31.6335 51.7076 32.0921 51.4763C32.6402 51.2008 33.0672 50.1529 33.0831 49.4C33.1172 47.7752 34.4628 46.4819 36.0872 46.5199C37.7121 46.5539 39.0016 47.8989 38.9673 49.5239C38.9136 52.0811 37.5844 55.3025 34.7362 56.7346C33.9384 57.1359 32.9131 57.4544 31.6689 57.4544Z" fill="#EDA751"/>
<path opacity="0.1" d="M31.6689 57.4544C29.9851 57.4544 27.9005 56.871 25.4366 55.1199C24.1119 54.1782 23.8011 52.3409 24.7428 51.0162C25.6844 49.6914 27.5219 49.3809 28.8464 50.3224C30.5389 51.5254 31.6335 51.7076 32.0921 51.4763C32.6402 51.2008 33.0672 50.1529 33.0831 49.4C33.1172 47.7752 34.4628 46.4819 36.0872 46.5199C37.7121 46.5539 39.0016 47.8989 38.9673 49.5239C38.9136 52.0811 37.5844 55.3025 34.7362 56.7346C33.9384 57.1359 32.9131 57.4544 31.6689 57.4544Z" fill="#C18F00"/>
<path d="M15.2515 50.6526C15.0852 50.6526 14.9168 50.6385 14.7475 50.6093C12.4032 50.2046 10.3921 48.6267 9.36768 46.3884C8.28393 44.0205 8.43946 41.272 9.78365 39.0367C10.6213 37.6435 12.4298 37.1936 13.8222 38.0313C15.215 38.8689 15.6652 40.677 14.8276 42.0698C14.4851 42.6396 14.4446 43.3383 14.7194 43.9389C14.8229 44.1651 15.1303 44.7027 15.7486 44.8092C17.3502 45.0857 18.4244 46.6083 18.148 48.2099C17.9009 49.6421 16.6572 50.6526 15.2515 50.6526Z" fill="#EDA751"/>
<path opacity="0.15" d="M15.2515 50.6526C15.0852 50.6526 14.9168 50.6385 14.7475 50.6093C12.4032 50.2046 10.3921 48.6267 9.36768 46.3884C8.28393 44.0205 8.43946 41.272 9.78365 39.0367C10.6213 37.6435 12.4298 37.1936 13.8222 38.0313C15.215 38.8689 15.6652 40.677 14.8276 42.0698C14.4851 42.6396 14.4446 43.3383 14.7194 43.9389C14.8229 44.1651 15.1303 44.7027 15.7486 44.8092C17.3502 45.0857 18.4244 46.6083 18.148 48.2099C17.9009 49.6421 16.6572 50.6526 15.2515 50.6526Z" fill="#C18F00"/>
<path d="M35.6925 26.6804C33.6221 25.4901 31.3802 24.6742 29.0296 24.2552C27.9474 24.0629 26.8905 24.6719 26.5148 25.7039L25.2509 29.176C24.5015 31.2352 25.1323 33.5438 26.8206 34.9208C26.8208 34.9208 26.8208 34.9208 26.8208 34.921L26.8961 34.9819C27.8942 35.7869 29.1496 36.2439 30.4338 36.2688L30.5286 36.2703C30.5525 36.2707 30.5762 36.2709 30.6001 36.2709C32.75 36.2709 34.6825 34.9151 35.4237 32.8786L36.6875 29.4063C37.0632 28.3743 36.6448 27.228 35.6925 26.6804ZM34.8155 28.7251L33.5517 32.1973C33.0968 33.447 31.9144 34.2788 30.6027 34.2788C30.5884 34.2788 30.5738 34.2788 30.5594 34.2786L30.4702 34.277C29.6279 34.2606 28.8027 33.9603 28.1476 33.4318L28.0797 33.3769C27.0477 32.5351 26.6632 31.1208 27.123 29.8575L28.3869 26.3853C28.4307 26.2651 28.5544 26.1935 28.6799 26.2165C30.8037 26.595 32.8291 27.3321 34.6996 28.4073C34.8106 28.4712 34.8594 28.605 34.8155 28.7251ZM19.5858 26.1898C18.2356 26.0685 15.4888 26.3898 14.3445 26.7274C13.8169 26.883 13.5154 27.4369 13.671 27.9645C13.7989 28.3982 14.1956 28.6791 14.6259 28.6791C14.7192 28.6791 14.8141 28.6658 14.9082 28.638C15.8198 28.3692 18.3469 28.0795 19.4076 28.1738C19.9552 28.2239 20.4397 27.819 20.4888 27.2709C20.5381 26.723 20.1338 26.2389 19.5858 26.1898ZM59.1048 14.7946C55.1281 12.793 50.5671 12.5996 46.4929 14.2368C44.0893 12.2506 41.2731 10.6254 38.1738 9.49726C35.0744 8.36915 31.8723 7.80403 28.7544 7.78052C26.686 3.90759 23.0675 1.12398 18.7346 0.101188C17.2848 -0.240936 15.7725 0.309172 14.8817 1.50355C13.5637 3.27049 11.4994 6.86638 11.843 11.7126C10.9239 11.9992 10.1378 12.6153 9.64137 13.4557C9.05885 14.4417 8.94012 15.6353 9.31545 16.7301C9.43099 17.067 9.59183 17.3794 9.78945 17.6626C9.33869 18.4663 8.95207 19.3054 8.6385 20.1666C7.19682 24.1275 7.4331 27.9517 9.34055 31.5335C10.3392 33.4084 11.7762 35.1716 13.6287 36.809C13.6214 36.8175 13.6142 36.8262 13.6069 36.8348C12.8881 36.5815 12.1107 36.5426 11.3542 36.7311C10.3332 36.9851 9.47203 37.6218 8.92989 38.5235C7.41623 41.041 7.24118 44.1362 8.46199 46.803C9.01317 48.0076 9.81841 49.0432 10.7972 49.8487C9.15009 51.3494 6.88047 54.2262 6.83916 58.7053C6.82947 59.7573 7.23003 60.7502 7.96714 61.5011C8.70424 62.252 9.68971 62.6708 10.7369 62.6803L10.7785 62.6806C12.9302 62.6806 14.697 60.9299 14.7168 58.778C14.7287 57.4789 15.2463 56.5791 15.7606 56.0025C16.7746 56.8366 17.9061 57.5459 19.1299 58.1069C18.1951 60.6382 18.3067 63.3834 19.4708 65.7815C20.1254 67.1297 21.517 68.0009 23.0165 68.0009C23.6151 68.0009 24.1932 67.8676 24.7346 67.6047C25.4792 67.2432 26.081 66.6687 26.4749 65.943C26.7375 65.4596 26.5583 64.8549 26.0748 64.5924C25.5915 64.3296 24.9866 64.5089 24.7242 64.9926C24.5299 65.3503 24.2327 65.6338 23.8644 65.8126C23.5962 65.9427 23.3111 66.0089 23.0164 66.0089C22.2633 66.0089 21.5913 65.5884 21.2628 64.9116C20.3422 63.0149 20.2536 60.838 20.9903 58.8211C22.2887 59.2281 23.6136 59.4612 24.9343 59.5197C24.917 59.551 24.8988 59.5815 24.8824 59.6134C24.6968 59.9706 24.386 60.7031 24.391 61.5988C24.3939 62.1472 24.8393 62.5895 25.3869 62.5895H25.3925C25.9427 62.5864 26.3861 62.1381 26.3831 61.5879C26.3804 61.1036 26.5687 60.6887 26.65 60.5326C26.972 59.9133 27.4976 59.4899 28.0555 59.4C28.3466 59.3532 28.631 59.2718 28.9043 59.1615C29.1191 59.1122 29.3325 59.0573 29.5451 58.9984C29.7301 59.3628 29.9181 59.7029 30.1129 60.0245C31.7045 62.6514 33.8113 64.1389 36.3741 64.4458C36.8052 64.4977 37.2299 64.5239 37.6366 64.5239C41.6026 64.5239 43.4596 62.0748 44.6883 60.454C45.5652 59.2975 46.1444 58.5335 47.3106 58.2837C48.8394 57.9563 49.8168 56.4461 49.4894 54.9172C49.3307 54.1766 48.8934 53.5422 48.2579 53.1306C47.6216 52.7186 46.8629 52.5793 46.123 52.7385C42.8981 53.4293 41.3212 55.509 40.1692 57.0282C39.0153 58.55 38.6666 59.0089 37.0489 58.8154C36.6197 58.764 36.007 58.5649 35.2886 57.5696C38.4343 55.9262 39.9044 52.3696 39.9636 49.5455C39.9798 48.7793 39.777 48.0426 39.3849 47.4051C39.4163 47.0036 39.4284 46.5993 39.4219 46.1942C40.6289 46.1629 41.7834 46.046 42.8756 45.8407C48.2989 44.8212 52.1252 41.6449 53.9413 36.6552C54.2547 35.7942 54.4978 34.9029 54.6692 33.9974C55.0026 33.9075 55.3267 33.7716 55.6316 33.5879C56.623 32.9905 57.2992 31.9999 57.4868 30.8701C57.6467 29.9068 57.4405 28.929 56.9201 28.1185C60.2993 24.6267 61.0292 20.5459 61.1551 18.3457C61.24 16.8582 60.4354 15.4644 59.1048 14.7946ZM18.277 2.04011C19.9723 2.44028 23.9267 3.77836 26.5 7.85862C25.1755 7.96168 23.8757 8.16661 22.6145 8.46863C20.9706 5.57996 18.6985 3.6316 16.7768 2.38489C17.1905 2.04848 17.7425 1.91381 18.277 2.04011ZM15.6151 4.00587C17.2502 5.05442 19.1805 6.67154 20.6333 9.03387C18.6928 9.68333 16.8742 10.5839 15.2361 11.7254C14.7751 11.6003 14.3031 11.525 13.8255 11.5013C13.6164 8.29477 14.6208 5.72061 15.6151 4.00587ZM11.3566 14.4688C11.6426 13.9846 12.1239 13.6515 12.6771 13.5545C13.4759 13.4146 14.2813 13.4839 15.0363 13.7475C15.058 13.7561 15.0798 13.7642 15.1018 13.7713C15.5435 13.9328 15.9677 14.1604 16.3621 14.453C17.5831 15.3595 18.3764 16.754 18.6049 18.3909C17.5934 17.5818 16.3876 17.1814 14.9488 17.1814C14.4488 17.1814 13.9203 17.2299 13.3624 17.3263H13.3625C12.7435 17.4336 12.1275 17.234 11.6948 16.8347C11.6905 16.8307 11.6861 16.8269 11.6819 16.823C11.4677 16.6217 11.2989 16.3718 11.2001 16.0838C11.0112 15.5332 11.0668 14.9597 11.3566 14.4688ZM10.2734 45.9739C9.3266 43.9051 9.46273 41.5035 10.6373 39.5499C10.9053 39.1043 11.3309 38.7897 11.8354 38.664C11.9925 38.625 12.1514 38.6056 12.309 38.6056C12.6582 38.6056 13.0019 38.7001 13.3087 38.8849C13.7543 39.1529 14.0691 39.5783 14.1946 40.083C14.3202 40.5877 14.2418 41.1108 13.9738 41.5567C13.4618 42.4083 13.4018 43.4538 13.8138 44.3537C13.9831 44.7234 14.4943 45.6037 15.5791 45.7907C16.637 45.9733 17.349 46.9826 17.1665 48.0404C17.0047 48.9769 16.1995 49.6565 15.2515 49.6565C15.1398 49.6565 15.027 49.6468 14.9167 49.6278C14.181 49.5008 13.484 49.2375 12.851 48.8621C12.8483 48.8605 12.8453 48.8588 12.8425 48.8574C11.7411 48.2019 10.8363 47.2038 10.2734 45.9739ZM12.7246 58.7594C12.7149 59.823 11.8418 60.6881 10.7785 60.6881L10.7599 60.688C10.24 60.6834 9.75306 60.4763 9.38876 60.1051C9.02445 59.734 8.82656 59.2434 8.83135 58.7234C8.86495 55.0673 10.6719 52.6912 12.0366 51.4153C12.6427 52.5873 13.4082 53.6691 14.3077 54.6359C13.5338 55.4854 12.7425 56.8248 12.7246 58.7594ZM36.8117 60.7931C39.5641 61.123 40.5318 59.8469 41.7568 58.2311C42.8262 56.8208 44.0384 55.2223 46.5409 54.6862C46.7605 54.6391 46.9858 54.6802 47.1746 54.8026C47.3639 54.9252 47.4939 55.114 47.5412 55.3343C47.6386 55.7891 47.348 56.2383 46.8933 56.3355C45.0037 56.7403 44.0792 57.9595 43.1005 59.2502C41.9344 60.7881 40.6127 62.5314 37.6362 62.5314C37.3087 62.5314 36.964 62.5099 36.6109 62.4674C34.6875 62.2373 33.0742 61.0677 31.8164 58.9919C31.7108 58.8176 31.6072 58.6362 31.5045 58.4468C31.5592 58.4479 31.6142 58.4508 31.6687 58.4508C32.2467 58.4508 32.811 58.3881 33.3596 58.2686C34.3276 59.8033 35.4621 60.6314 36.8117 60.7931ZM34.2888 55.845C33.4792 56.2521 32.5978 56.4586 31.6688 56.4586C29.9238 56.4586 28.0211 55.7352 26.0135 54.3081C25.5897 54.0069 25.3084 53.5586 25.2218 53.0457C25.1351 52.5331 25.2533 52.0172 25.5547 51.5933C25.8559 51.1696 26.3043 50.8883 26.817 50.8017C26.9268 50.7831 27.0366 50.774 27.1458 50.774C27.5463 50.774 27.9363 50.8978 28.2693 51.1344C30.0663 52.4115 31.583 52.8484 32.5393 52.3664C33.5692 51.8488 34.0596 50.3325 34.079 49.421C34.09 48.8995 34.3037 48.4136 34.6807 48.053C35.0557 47.6943 35.5453 47.5068 36.0664 47.5156C36.5862 47.5264 37.0708 47.7392 37.4306 48.1145C37.7905 48.4899 37.9826 48.983 37.9717 49.503C37.9241 51.7621 36.7672 54.599 34.2888 55.845ZM52.0688 35.9738C50.4843 40.327 47.2673 42.9879 42.5072 43.8826C41.2261 44.1234 39.8474 44.231 38.3871 44.2095C38.3791 44.2093 38.3712 44.2089 38.3632 44.2091C34.8032 44.153 30.7561 43.3255 26.4339 41.7522C25.3303 41.3507 24.255 40.916 23.2374 40.4606C22.7353 40.236 22.146 40.4606 21.9213 40.9629C21.6966 41.4649 21.9215 42.0542 22.4236 42.2789C23.4844 42.7537 24.6045 43.2062 25.7524 43.6242C28.772 44.7232 31.6759 45.4733 34.4004 45.8703C34.0009 46.0517 33.6303 46.3013 33.3036 46.6138C32.5415 47.3428 32.1095 48.325 32.0873 49.3792C32.0779 49.8245 31.8296 50.3937 31.6612 50.5663C31.4934 50.5657 30.8058 50.4931 29.4235 49.5108C28.5659 48.9013 27.5224 48.6619 26.4849 48.8377C25.4475 49.013 24.5404 49.582 23.9309 50.4394C23.3213 51.297 23.0821 52.3406 23.2577 53.3782C23.433 54.4157 24.002 55.3227 24.8595 55.9321C25.7069 56.5344 26.5462 57.028 27.375 57.4151C25.2687 57.7088 23.0809 57.4799 20.9869 56.7177C18.2375 55.717 15.9403 53.8928 14.4238 51.5618C14.4752 51.5718 14.5265 51.582 14.5781 51.591C14.8002 51.6292 15.0268 51.6487 15.2514 51.6487C17.1714 51.6487 18.8024 50.2737 19.1295 48.3794C19.4988 46.2391 18.0582 44.1972 15.9177 43.8278C15.7552 43.7997 15.6377 43.5522 15.6248 43.5244C15.487 43.2229 15.5078 42.8711 15.681 42.5833C16.2231 41.6816 16.3817 40.6227 16.1275 39.6018C16.0182 39.1627 15.8379 38.7537 15.5965 38.3864C16.4109 38.9808 17.2825 39.5569 18.2171 40.1117C18.3764 40.2064 18.5517 40.2514 18.7245 40.2514C19.0645 40.2514 19.3959 40.0771 19.582 39.7636C19.8627 39.2906 19.7068 38.6794 19.2339 38.3987C17.9355 37.6279 16.7673 36.8187 15.7262 35.9756C15.7119 35.9632 15.6972 35.9515 15.6825 35.9399C13.6486 34.2853 12.1113 32.4981 11.099 30.5971C9.46845 27.5353 9.27029 24.2552 10.5105 20.8482C10.7445 20.2054 11.0251 19.5765 11.3465 18.9682C12.0616 19.304 12.8812 19.4317 13.7016 19.2899C13.7016 19.2899 13.7016 19.2899 13.7017 19.2899C15.8379 18.9204 16.8512 19.5191 17.4271 20.0016C17.7825 20.2994 18.2192 20.452 18.6613 20.452C18.9783 20.452 19.2983 20.3735 19.5929 20.2137C20.2999 19.8303 20.6948 19.0705 20.5989 18.278C20.3282 16.0389 19.2453 14.1126 17.5494 12.8537C17.4871 12.8075 17.4234 12.7642 17.3601 12.7202C22.9243 9.35541 30.4746 8.81526 37.4924 11.3695C44.5099 13.9236 49.9467 19.1907 52.0462 25.3449C51.9694 25.3379 51.8928 25.3301 51.8154 25.3256C49.708 25.1991 47.6393 25.9793 45.9926 27.5204C45.4097 28.066 45.2239 28.9019 45.5191 29.6502C45.8137 30.3966 46.5184 30.8791 47.3145 30.8796C48.0658 30.8803 49.2266 31.0726 50.6259 32.729C51.1631 33.3651 51.8731 33.7938 52.6368 33.9962C52.4922 34.6688 52.3028 35.331 52.0688 35.9738ZM55.5211 30.5435C55.4277 31.1055 55.1017 31.5809 54.6028 31.8813C54.3445 32.0371 54.0572 32.1201 53.7662 32.1376C53.7568 32.138 53.7474 32.138 53.7381 32.1387C53.1513 32.1653 52.5526 31.9223 52.1479 31.4432C50.7316 29.7667 49.1931 28.9299 47.4474 28.8888C48.6742 27.7818 50.1785 27.2233 51.6969 27.314C52.1952 27.3438 52.674 27.4443 53.1225 27.6094C53.1366 27.6147 53.1503 27.6204 53.1646 27.6251C53.9131 27.9085 54.5751 28.3732 55.0973 28.9941C55.4588 29.424 55.6133 29.9887 55.5211 30.5435ZM55.5366 26.6824C55.1559 26.3939 54.7461 26.1483 54.3128 25.948C53.7916 24.0205 52.9775 22.1617 51.9083 20.4169C54.54 19.5413 57.058 19.5433 58.9843 19.7909C58.644 21.7433 57.7584 24.3604 55.5366 26.6824ZM50.7542 18.7106C49.9822 17.6685 49.1181 16.676 48.1697 15.7457C52.7638 14.2742 56.653 15.7908 58.2089 16.5742C58.6994 16.8211 59.0357 17.2789 59.1362 17.8024C56.8629 17.5222 53.87 17.5544 50.7542 18.7106ZM41.6833 34.2326C41.2318 33.9182 40.6109 34.0291 40.2966 34.4803C39.9821 34.9317 40.093 35.5525 40.5443 35.867C41.4188 36.4763 43.1674 38.323 43.6928 39.1148C43.8845 39.4038 44.201 39.5602 44.5237 39.5602C44.7128 39.5602 44.9041 39.5064 45.0735 39.394C45.5319 39.0898 45.6571 38.4717 45.3529 38.0132C44.6932 37.0194 42.7953 35.0074 41.6833 34.2326ZM48.027 33.5352C47.0385 32.8676 44.5171 31.7304 43.1936 31.4377C42.6566 31.3191 42.1247 31.6582 42.006 32.1953C41.8871 32.7324 42.2263 33.2641 42.7635 33.3829C43.8041 33.6129 46.1245 34.654 46.9118 35.1859C47.0827 35.3013 47.2766 35.3567 47.4684 35.3567C47.7881 35.3567 48.1022 35.2031 48.2948 34.918C48.6028 34.4622 48.4828 33.8431 48.027 33.5352ZM20.2253 23.0778C19.0228 22.4514 16.3606 21.7018 15.1746 21.578C14.6263 21.5193 14.1376 21.9181 14.0806 22.4653C14.0234 23.0124 14.4207 23.5023 14.9679 23.5593C15.9126 23.658 18.3593 24.3519 19.3048 24.8446C19.4518 24.9213 19.6092 24.9577 19.7643 24.9577C20.1237 24.9577 20.4709 24.7624 20.6484 24.4216C20.9025 23.9335 20.7131 23.332 20.2253 23.0778ZM26.205 23.4886C26.4496 22.8166 26.4178 22.0897 26.1157 21.4416C25.8135 20.7936 25.277 20.3021 24.6051 20.0574C23.2178 19.5529 21.6789 20.2703 21.1737 21.6573C20.9855 22.1743 21.2521 22.7458 21.7689 22.9341C22.2862 23.1218 22.8574 22.8558 23.0457 22.339C23.1749 21.984 23.569 21.8003 23.9235 21.9295C24.0955 21.9921 24.2327 22.1179 24.3099 22.2836C24.3872 22.4494 24.3955 22.6353 24.3328 22.8072C24.1446 23.3242 24.4113 23.8957 24.9281 24.0839C25.0406 24.1248 25.1556 24.1442 25.2687 24.1442C25.6759 24.1443 26.0579 23.893 26.205 23.4886ZM40.5749 28.2033C40.7406 28.1262 40.9266 28.1177 41.0983 28.1805C41.4534 28.3097 41.637 28.7035 41.5078 29.0582C41.3196 29.5753 41.5863 30.1468 42.1031 30.335C42.2156 30.3759 42.3306 30.3953 42.4436 30.3953C42.8507 30.3953 43.2326 30.144 43.3798 29.7396C43.8846 28.3526 43.1668 26.8133 41.7798 26.3082C41.1079 26.0639 40.3809 26.0952 39.7328 26.3977C39.0848 26.6999 38.5931 27.2365 38.3486 27.9085C38.1605 28.4255 38.4271 28.997 38.944 29.1851C39.4612 29.3734 40.0324 29.1065 40.2206 28.5897C40.2834 28.418 40.4092 28.2806 40.5749 28.2033Z" fill="#151515"/>
</g>
<defs>
<clipPath id="clip0_20_650">
<rect width="68" height="68" fill="white" transform="translate(0 0.000976562)"/>
</clipPath>
</defs>
</svg>
