<svg width="30" height="22" viewBox="0 0 30 22" fill="none" xmlns="http://www.w3.org/2000/svg">
<g clip-path="url(#clip0_235_2229)">
<path d="M10.3437 11.0888C11.8409 9.84254 12.8406 7.75055 10.7287 4.65792C8.60024 1.54092 5.43119 0.75957 2.95713 1.04869C2.34716 1.11996 1.8354 1.54598 1.65873 2.12943C0.94205 4.49608 1.16744 7.72753 3.89235 10.3482C6.59593 12.9482 8.84645 12.335 10.3437 11.0888Z" fill="#EDA751"/>
<path d="M1.55913 2.4917C0.971625 4.81865 1.30379 7.85883 3.89239 10.3483C6.23578 12.6019 8.23831 12.4408 9.70547 11.5466C8.69643 4.75202 4.28875 2.95022 1.55913 2.4917Z" fill="#FF91AB"/>
<path d="M19.6564 11.0888C18.1592 9.84254 17.1595 7.75055 19.2713 4.65792C21.3998 1.54092 24.5689 0.75957 27.0429 1.04869C27.6529 1.11996 28.1647 1.54598 28.3413 2.12943C29.058 4.49608 28.8326 7.72753 26.1077 10.3482C23.4041 12.9482 21.1535 12.335 19.6564 11.0888Z" fill="#EDA751"/>
<path d="M28.4409 2.4917C29.0284 4.81865 28.6962 7.85883 26.1076 10.3483C23.7642 12.6019 21.7617 12.4408 20.2946 11.5466C21.3037 4.75202 25.7113 2.95022 28.4409 2.4917Z" fill="#FF91AB"/>
<path d="M28.0265 12.9696C28.0265 18.8778 22.1943 21.4655 15 21.4655C7.80576 21.4655 1.97363 18.8778 1.97363 12.9696C1.97363 7.06143 7.80576 2.27197 15 2.27197C22.1943 2.27197 28.0265 7.0615 28.0265 12.9696Z" fill="#FFDC9C"/>
<path opacity="0.15" d="M8.04455 3.92383C4.39634 5.81963 1.97363 9.16218 1.97363 12.9698C1.97363 18.0487 6.28339 20.6737 12.0634 21.3106C3.76639 16.3944 4.84847 9.78169 8.04455 3.92383Z" fill="#C17A00"/>
<path d="M8.60787 15.0817C9.91056 15.0817 10.9666 14.2477 10.9666 13.2188C10.9666 12.19 9.91056 11.356 8.60787 11.356C7.30518 11.356 6.24915 12.19 6.24915 13.2188C6.24915 14.2477 7.30518 15.0817 8.60787 15.0817Z" fill="#FF91AB"/>
<path d="M21.3922 15.0817C22.6949 15.0817 23.7509 14.2477 23.7509 13.2188C23.7509 12.19 22.6949 11.356 21.3922 11.356C20.0895 11.356 19.0334 12.19 19.0334 13.2188C19.0334 14.2477 20.0895 15.0817 21.3922 15.0817Z" fill="#FF91AB"/>
<path d="M15 15.1328C16.0474 15.1328 16.8964 14.0898 16.8964 12.8033C16.8964 11.5168 16.0474 10.4739 15 10.4739C13.9526 10.4739 13.1035 11.5168 13.1035 12.8033C13.1035 14.0898 13.9526 15.1328 15 15.1328Z" fill="#FF91AB"/>
<path d="M22.0323 13.3656C22.6427 13.2856 24.055 13.388 24.5887 13.5203C24.632 13.531 24.6753 13.5362 24.718 13.5362C24.958 13.5362 25.1763 13.3736 25.2368 13.1304C25.3079 12.8438 25.1331 12.554 24.8464 12.4828C24.1964 12.3216 22.6475 12.2068 21.8931 12.3058C21.6002 12.3442 21.3938 12.6125 21.4323 12.9052C21.4708 13.1978 21.7391 13.4036 22.0323 13.3656ZM17.4314 12.8035C17.4314 11.2243 16.3407 9.93946 15 9.93946C13.6593 9.93946 12.5686 11.2242 12.5686 12.8035C12.5686 14.3827 13.6593 15.6673 15 15.6673C16.3407 15.6673 17.4314 14.3826 17.4314 12.8035ZM13.6385 12.8035C13.6385 11.8137 14.2493 11.0084 15 11.0084C15.7508 11.0084 16.3615 11.8137 16.3615 12.8035C16.3615 13.7932 15.7508 14.5984 15 14.5984C14.2493 14.5984 13.6385 13.7932 13.6385 12.8035ZM20.5525 11.3601V10.534C20.5525 10.2387 20.313 9.99946 20.0176 9.99946C19.7222 9.99946 19.4827 10.2387 19.4827 10.534V11.3601C19.4827 11.6554 19.7222 11.8946 20.0176 11.8946C20.313 11.8946 20.5525 11.6554 20.5525 11.3601ZM20.9666 14.4429C20.8913 14.7284 21.0619 15.0207 21.3475 15.096C21.9424 15.2526 23.2084 15.8809 23.651 16.205C23.7463 16.2747 23.857 16.3084 23.9667 16.3084C24.1314 16.3084 24.2938 16.2325 24.3987 16.0897C24.5733 15.8516 24.5217 15.5172 24.2834 15.3427C23.7441 14.9479 22.3559 14.2561 21.6203 14.0624C21.3345 13.9873 21.0419 14.1576 20.9666 14.4429ZM28.8534 1.97464C28.6145 1.18588 27.9283 0.613975 27.1051 0.517838C24.6179 0.226862 22.17 0.997595 20.3329 2.63591C18.6692 2.04726 16.863 1.73747 15.0001 1.73747C13.1371 1.73747 11.331 2.04726 9.66725 2.63591C7.83005 0.997738 5.38188 0.227717 2.89506 0.517838C2.07189 0.614046 1.3856 1.18588 1.14673 1.97464C0.396535 4.45204 0.789465 7.06355 2.22032 9.19103C1.70671 10.3871 1.43874 11.6607 1.43874 12.9696C1.43874 16.4249 4 19.9999 9.39072 21.3946C9.6624 21.5106 8.87875 21.0218 8.99501 20.7504C9.22108 20.2227 9.91139 20.4712 9.63979 20.355C8.11799 19.7044 5.14806 18.3594 4.5 17.4999C3.64873 16.371 2.50869 14.5189 2.50869 12.9695C2.50869 7.3655 8.11236 2.80638 15.0002 2.80638C21.888 2.80638 27.4916 7.36557 27.4916 12.9695C27.4916 15.5676 26.2967 17.5873 23.94 18.9723C21.7597 20.2537 18.6684 20.931 15 20.931C13.0411 20.931 11.2377 20.7372 9.63979 20.355C9.35263 20.2864 9.06376 20.4634 8.99501 20.7504C8.92625 21.0375 9.10342 21.3259 9.39072 21.3946C11.0701 21.7964 12.9573 22 15 22C18.8589 22 22.1379 21.2716 24.4823 19.8938C27.1508 18.3254 28.5613 15.9311 28.5613 12.9696C28.5613 11.6607 28.2933 10.3871 27.7797 9.19103C29.2106 7.06355 29.6035 4.45196 28.8534 1.97464ZM5.44929 4.99237C4.34068 5.90278 3.44626 6.94383 2.78529 8.07381C1.70963 6.16625 1.75942 4.30387 1.97268 3.11617C3.05433 3.35455 4.41336 3.84058 5.65756 4.82539C5.58766 4.88048 5.51804 4.93586 5.44929 4.99237ZM6.55504 4.17781C5.11577 2.95981 3.52022 2.36931 2.2562 2.08425C2.41169 1.80852 2.69321 1.6176 3.01924 1.57948C4.00153 1.46467 6.37601 1.41172 8.54002 3.08731C7.84496 3.39973 7.18099 3.76404 6.55504 4.17781ZM21.46 3.08738C23.624 1.412 25.9984 1.46481 26.9807 1.57955C27.3068 1.61767 27.5883 1.80852 27.7438 2.08432C26.4799 2.36931 24.8843 2.95981 23.4449 4.17781C22.819 3.76404 22.1551 3.39973 21.46 3.08738ZM27.2147 8.07374C26.5537 6.94382 25.6594 5.90278 24.5507 4.9923C24.4819 4.93586 24.4123 4.88041 24.3423 4.82532C25.5867 3.84044 26.9456 3.35441 28.0272 3.1161C28.2406 4.30387 28.2903 6.16625 27.2147 8.07374ZM7.96771 13.3656C8.26029 13.4035 8.52918 13.1978 8.5677 12.9052C8.60614 12.6125 8.3998 12.3441 8.10686 12.3057C7.35246 12.207 5.80356 12.3216 5.15357 12.4828C4.86684 12.5539 4.6921 12.8437 4.76321 13.1303C4.82362 13.3735 5.04195 13.5361 5.28196 13.5361C5.32461 13.5361 5.36798 13.531 5.41127 13.5203C5.94507 13.388 7.35738 13.2856 7.96771 13.3656ZM9.98243 11.8946C10.2779 11.8946 10.5174 11.6554 10.5174 11.3601V10.534C10.5174 10.2387 10.2779 9.99946 9.98243 9.99946C9.687 9.99946 9.44749 10.2387 9.44749 10.534V11.3601C9.44749 11.6554 9.687 11.8946 9.98243 11.8946ZM9.03345 14.4429C8.95813 14.1575 8.66548 13.9871 8.37983 14.0624C7.64425 14.2561 6.25597 14.9478 5.71676 15.3426C5.47846 15.5171 5.42682 15.8516 5.60142 16.0897C5.7062 16.2326 5.86868 16.3083 6.03337 16.3083C6.14314 16.3083 6.25384 16.2746 6.34913 16.2049C6.79177 15.8808 8.05779 15.2526 8.65257 15.0959C8.93823 15.0207 9.10877 14.7284 9.03345 14.4429Z" fill="#151515"/>
</g>
<defs>
<clipPath id="clip0_235_2229">
<rect width="29" height="22" fill="white" transform="translate(0.5)"/>
</clipPath>
</defs>
</svg>
