<svg width="66" height="66" viewBox="0 0 66 66" fill="none" xmlns="http://www.w3.org/2000/svg">
<g clip-path="url(#clip0_716_15369)">
<path d="M7.3037 56.8014C7.0892 56.8014 6.87135 56.7656 6.65775 56.6898C5.65151 56.3331 5.12505 55.2281 5.48174 54.2219C6.24628 52.0655 7.65664 50.4608 9.56059 49.5805C11.8716 48.5117 14.6783 48.5927 17.9019 49.8205C21.135 51.0518 22.712 49.351 25.6949 45.6985L25.8048 45.5638C26.4803 44.7371 27.6981 44.614 28.5248 45.2897C29.3516 45.9652 29.4743 47.183 28.7988 48.0096L28.6892 48.1439C27.1856 49.9854 25.7651 51.7246 23.9322 52.866C21.6604 54.2809 19.2378 54.4669 16.5258 53.4336C14.3428 52.6019 12.4951 52.4832 11.1829 53.0898C9.99848 53.6373 9.41028 54.7103 9.12527 55.5139C8.84451 56.3065 8.09931 56.8014 7.3037 56.8014Z" fill="#EDA751"/>
<path opacity="0.2" d="M28.4693 48.4131V45.249C27.6443 44.622 26.4655 44.7552 25.8048 45.5639L25.6948 45.6986C22.7119 49.351 21.135 51.0519 17.9018 49.8206C17.7921 49.7789 17.6839 49.7417 17.5751 49.7025C17.5276 51.235 17.5057 52.6278 17.4956 53.7541C19.8206 54.4036 21.9346 54.1101 23.9322 52.866C25.6754 51.7804 27.0456 50.1537 28.4693 48.4131Z" fill="#A35F00"/>
<path d="M6.07831 52.8862C5.85002 53.3044 5.64944 53.7493 5.48174 54.2223C5.12505 55.2286 5.65151 56.3334 6.65775 56.6903C6.87122 56.7661 7.0892 56.8019 7.3037 56.8019C8.09931 56.8019 8.84464 56.307 9.12566 55.5142C9.21512 55.2621 9.33449 54.9834 9.49265 54.7028C8.61725 53.7499 6.99948 53.1571 6.07831 52.8862Z" fill="#FCD79D"/>
<path d="M16.9255 46.2105C15.6827 46.2105 14.4732 46.0169 13.3344 45.6238C10.6353 44.692 8.61402 42.7225 7.64297 40.0775C7.05426 38.4741 7.87694 36.697 9.4804 36.1084C11.0833 35.5195 12.861 36.3422 13.4496 37.9459C13.7771 38.838 14.4175 39.454 15.3529 39.7769C16.992 40.3424 19.197 39.9219 21.2511 38.6508C22.7036 37.7522 24.6096 38.2008 25.5086 39.6533C26.4075 41.1058 25.9586 43.0119 24.5061 43.9108C22.0543 45.4276 19.4235 46.2105 16.9255 46.2105Z" fill="#EDA751"/>
<path d="M25.5089 39.6532C24.6099 38.2007 22.7039 37.7521 21.2514 38.6507C19.1974 39.9218 16.9923 40.3424 15.3532 39.7768C14.8976 39.6195 14.5126 39.3921 14.1991 39.0978C12.8376 40.9012 10.6031 42.1381 9.01562 42.5631C10.0969 43.9589 11.5694 45.0145 13.3346 45.6237C14.4735 46.0169 15.683 46.2104 16.9257 46.2104C19.4236 46.2104 22.0545 45.4276 24.5064 43.9103C25.9589 43.0118 26.4078 41.1056 25.5089 39.6532Z" fill="#82C7E6"/>
<path d="M39.3541 65.0334C39.2848 65.0334 39.2152 65.0311 39.1451 65.0265C37.4408 64.9126 36.1514 63.4387 36.2651 61.7345C36.5845 56.9491 36.0621 54.1144 35.5677 52.579C35.0441 50.953 35.9377 49.2106 37.5636 48.687C39.19 48.1631 40.932 49.0568 41.4556 50.6828C42.4157 53.6639 42.746 57.521 42.4372 62.1466C42.3279 63.7806 40.9682 65.0334 39.3541 65.0334Z" fill="#EDA751"/>
<path d="M28.7322 65.0335C27.1177 65.0335 25.7583 63.7808 25.6491 62.1465C25.3404 57.521 25.6706 53.664 26.6307 50.6827C27.1545 49.0569 28.8973 48.1638 30.5228 48.6869C32.1487 49.2105 33.0421 50.9529 32.5188 52.579C32.0243 54.1144 31.502 56.9491 31.8214 61.7344C31.9351 63.4388 30.6455 64.9126 28.9414 65.0264C28.871 65.031 28.8013 65.0335 28.7322 65.0335Z" fill="#EDA751"/>
<path d="M49.2697 45.3013C47.4293 45.3013 45.6095 44.8911 43.8863 44.077C42.3417 43.3473 41.6812 41.504 42.4108 39.9594C43.1405 38.4148 44.9838 37.7542 46.5285 38.4839C49.4594 39.8689 52.9014 38.894 55.0921 36.0578C56.136 34.706 58.0784 34.4566 59.4305 35.5008C60.7823 36.5451 61.0316 38.4874 59.9875 39.8393C58.1203 42.2565 55.5464 44.0234 52.7397 44.8148C51.5878 45.1396 50.4247 45.3013 49.2697 45.3013Z" fill="#EDA751"/>
<path d="M53.8911 37.325C51.7598 39.1535 48.9677 39.6365 46.5285 38.4839C44.9838 37.7542 43.1405 38.415 42.4108 39.9594C41.6812 41.504 42.3417 43.3473 43.8863 44.0771C45.6095 44.8911 47.4293 45.3013 49.2697 45.3013C50.4247 45.3013 51.5879 45.1398 52.7397 44.8149C54.7701 44.2424 56.677 43.1572 58.2845 41.6869C55.5187 41.0091 54.3039 38.872 53.8911 37.325Z" fill="#82C7E6"/>
<path opacity="0.2" d="M41.4556 50.6826C40.932 49.0566 39.1898 48.1629 37.5635 48.6866C35.9376 49.2103 35.0442 50.9528 35.5677 52.5787C35.9399 53.735 36.3279 55.6282 36.3607 58.5361C38.5645 58.2485 40.6324 57.5573 42.4773 56.544C42.3382 54.3247 41.9971 52.3642 41.4556 50.6826Z" fill="#A35F00"/>
<path opacity="0.2" d="M30.5227 48.6871C28.897 48.164 27.1543 49.0571 26.6306 50.6831C26.0891 52.3647 25.7481 54.325 25.6089 56.5447C27.4538 57.558 29.5217 58.2493 31.7255 58.5369C31.7581 55.6291 32.1461 53.7356 32.5185 52.5795C33.0421 50.9531 32.1486 49.2108 30.5227 48.6871Z" fill="#A35F00"/>
<path d="M34.0435 56.1837C41.9222 56.1837 48.3092 50.2492 48.3092 42.9286C48.3092 35.6081 41.9222 29.6736 34.0435 29.6736C26.1648 29.6736 19.7778 35.6081 19.7778 42.9286C19.7778 50.2492 26.1648 56.1837 34.0435 56.1837Z" fill="#FCD690"/>
<path opacity="0.15" d="M31.96 56.0437C25.4411 51.7638 27.4614 42.992 28.5681 39.1557V30.6855C23.4069 32.6808 19.7778 37.4108 19.7778 42.9292C19.7778 49.5925 25.069 55.1067 31.96 56.0437Z" fill="#C18F00"/>
<path opacity="0.1" d="M21.2511 38.6507C19.8987 39.4876 18.4819 39.953 17.2031 40.0138C17.0286 41.8501 16.8938 43.9399 16.8022 46.2083C16.8434 46.2087 16.8844 46.2108 16.9256 46.2108C19.4236 46.2108 22.0544 45.428 24.5062 43.9107C25.9587 43.0118 26.4076 41.1057 25.5087 39.6532C24.6096 38.2007 22.7036 37.7521 21.2511 38.6507Z" fill="#151515"/>
<path d="M30.1448 28.7498V56.2043C30.1448 57.4282 28.9214 58.2725 27.7765 57.8402C25.6934 57.0536 22.8607 55.7887 20.9907 54.9136C19.8706 54.3893 19.1594 53.2623 19.169 52.0257C19.2135 46.3645 19.5519 33.2755 22.1255 30.6858L30.1448 28.7498Z" fill="#82C7E6"/>
<path opacity="0.1" d="M46.5285 38.4841C44.9838 37.7544 43.1405 38.4152 42.4108 39.9596C41.6812 41.5041 42.3417 43.3475 43.8863 44.0772C45.6095 44.8913 47.4293 45.3015 49.2697 45.3015C49.924 45.3015 50.5808 45.2477 51.2368 45.1437C51.1473 43.2653 51.0275 41.5226 50.8784 39.9655C50.8444 39.6101 50.8092 39.2665 50.7727 38.9339C49.3657 39.2612 47.8919 39.1284 46.5285 38.4841Z" fill="#151515"/>
<path d="M37.9414 28.7498V56.2043C37.9414 57.4282 39.1647 58.2725 40.3097 57.8402C42.3928 57.0536 45.2255 55.7887 47.0954 54.9136C48.2156 54.3893 48.9268 53.2623 48.9171 52.0257C48.8727 46.3645 48.5343 33.2755 45.9607 30.6858L37.9414 28.7498Z" fill="#82C7E6"/>
<path d="M44.6271 44.3315H41.9492C41.4152 44.3315 40.9824 43.8988 40.9824 43.3647C40.9824 42.8307 41.4152 42.3979 41.9492 42.3979H44.627C45.161 42.3979 45.5938 42.8307 45.5938 43.3647C45.5938 43.8988 45.161 44.3315 44.6271 44.3315Z" fill="white"/>
<path d="M30.144 57.3156C31.7137 57.3156 32.9863 56.0431 32.9863 54.4734C32.9863 52.9036 31.7137 51.6311 30.144 51.6311C28.5743 51.6311 27.3018 52.9036 27.3018 54.4734C27.3018 56.0431 28.5743 57.3156 30.144 57.3156Z" fill="#DEE2E5"/>
<path opacity="0.1" d="M30.1439 55.506C30.7141 55.506 31.1764 55.0437 31.1764 54.4735C31.1764 53.9032 30.7141 53.4409 30.1439 53.4409C29.5736 53.4409 29.1113 53.9032 29.1113 54.4735C29.1113 55.0437 29.5736 55.506 30.1439 55.506Z" fill="#151515"/>
<path d="M25.3618 19.9438C28.1532 17.6014 30.0169 13.6695 26.0797 7.85687C22.1113 1.99847 16.2031 0.529972 11.5904 1.07331C10.4532 1.20725 9.49903 2.00801 9.16954 3.10462C7.83343 7.55278 8.25366 13.6265 13.334 18.5518C18.3746 23.4387 22.5705 22.286 25.3618 19.9438Z" fill="#EDA751"/>
<path d="M8.98378 3.7854C7.88834 8.15893 8.50773 13.873 13.3339 18.552C17.7029 22.7877 21.4364 22.4851 24.1718 20.8044C22.2905 8.03363 14.0729 4.64714 8.98378 3.7854Z" fill="#FF91AB"/>
<path d="M42.7246 19.9438C39.9332 17.6015 38.0694 13.6696 42.0067 7.85692C45.9751 1.99839 51.8834 0.529886 56.496 1.07335C57.6332 1.20729 58.5874 2.00805 58.9169 3.10466C60.253 7.55283 59.8327 13.6265 54.7524 18.5519C49.7119 23.4387 45.5159 22.286 42.7246 19.9438Z" fill="#EDA751"/>
<path d="M59.1025 3.7854C60.198 8.15893 59.5786 13.873 54.7525 18.552C50.3835 22.7877 46.6499 22.4851 43.9146 20.8044C45.7957 8.03363 54.0135 4.64714 59.1025 3.7854Z" fill="#FF91AB"/>
<path d="M58.3299 23.4792C58.3299 34.5837 47.4564 39.4473 34.0433 39.4473C20.6302 39.4473 9.75684 34.5837 9.75684 23.4792C9.75684 12.3747 20.6302 3.3728 34.0434 3.3728C47.4566 3.3728 58.3299 12.3747 58.3299 23.4792Z" fill="#FFDC9C"/>
<path opacity="0.15" d="M21.0751 6.47705C14.2734 10.0401 9.75635 16.3227 9.75635 23.4793C9.75635 33.025 17.7915 37.9589 28.5678 39.1561C13.0988 29.9158 15.1161 17.4871 21.0751 6.47705Z" fill="#C18F00"/>
<path d="M54.4314 12.5509C53.0524 10.7912 51.3504 9.2215 49.3944 7.89893H18.6924C16.7364 9.2215 15.0343 10.7912 13.6553 12.5509H54.4314Z" fill="#495059"/>
<path d="M22.1249 27.4501C24.5532 27.4501 26.5218 25.8821 26.5218 23.9478C26.5218 22.0136 24.5532 20.4456 22.1249 20.4456C19.6966 20.4456 17.728 22.0136 17.728 23.9478C17.728 25.8821 19.6966 27.4501 22.1249 27.4501Z" fill="#FF91AB"/>
<path d="M45.9603 27.4501C48.3887 27.4501 50.3572 25.8821 50.3572 23.9478C50.3572 22.0136 48.3887 20.4456 45.9603 20.4456C43.532 20.4456 41.5635 22.0136 41.5635 23.9478C41.5635 25.8821 43.532 27.4501 45.9603 27.4501Z" fill="#FF91AB"/>
<path d="M34.0435 14.6012C37.4387 14.6012 40.1911 11.8489 40.1911 8.45369C40.1911 5.0585 37.4387 2.30615 34.0435 2.30615C30.6483 2.30615 27.896 5.0585 27.896 8.45369C27.896 11.8489 30.6483 14.6012 34.0435 14.6012Z" fill="#DEE2E5"/>
<path opacity="0.1" d="M34.0434 10.8599C35.3723 10.8599 36.4495 9.78266 36.4495 8.45377C36.4495 7.12488 35.3723 6.04761 34.0434 6.04761C32.7145 6.04761 31.6372 7.12488 31.6372 8.45377C31.6372 9.78266 32.7145 10.8599 34.0434 10.8599Z" fill="#151515"/>
<path d="M45.1975 26.2564C45.0605 26.7726 45.3678 27.3019 45.8838 27.439C46.9953 27.7341 49.3608 28.9174 50.1876 29.5277C50.3604 29.6552 50.5615 29.7168 50.7609 29.7168C51.0574 29.7168 51.3499 29.5808 51.5395 29.324C51.8566 28.8944 51.7654 28.2891 51.3359 27.972C50.3325 27.2315 47.7491 25.9335 46.3801 25.5701C45.8633 25.433 45.3344 25.7404 45.1975 26.2564ZM44.3649 20.4542V18.9013C44.3649 18.3672 43.9321 17.9345 43.3981 17.9345C42.864 17.9345 42.4313 18.3672 42.4313 18.9013V20.4542C42.4313 20.9883 42.864 21.421 43.3981 21.421C43.932 21.421 44.3649 20.9883 44.3649 20.4542ZM34.0432 22.6135C35.2678 22.6135 36.4325 22.0832 37.2384 21.1583C37.5892 20.7559 37.5474 20.1451 37.1447 19.7942C36.7421 19.4433 36.1316 19.4854 35.7806 19.8879C35.342 20.3913 34.7086 20.6801 34.0431 20.6801C33.3776 20.6801 32.7442 20.3914 32.3054 19.8879C31.9544 19.4855 31.3438 19.4436 30.9414 19.7942C30.5388 20.1451 30.497 20.7559 30.8476 21.1583C31.6539 22.0832 32.8186 22.6135 34.0432 22.6135ZM47.1512 24.1859C48.2917 24.0349 50.9293 24.228 51.9261 24.4773C52.0049 24.4969 52.0838 24.5064 52.1614 24.5064C52.5945 24.5064 52.9887 24.2131 53.0985 23.7738C53.228 23.2557 52.9132 22.7308 52.3951 22.6013C51.1853 22.2989 48.3023 22.0833 46.8979 22.269C46.3685 22.339 45.9961 22.8247 46.066 23.3541C46.1362 23.8838 46.6241 24.2555 47.1512 24.1859ZM60.0217 34.7359C59.1634 34.073 58.0983 33.7844 57.023 33.922C55.9474 34.06 54.99 34.6088 54.3275 35.4669C54.0125 35.8748 53.6682 36.2391 53.3018 36.5587C53.2729 36.581 53.2457 36.6049 53.2197 36.63C52.0184 37.6466 50.5845 38.18 49.1332 38.1368C49.1183 38.0168 49.1031 37.8974 49.0876 37.7787C50.0193 37.3819 50.8947 36.9417 51.7093 36.4591C56.673 33.5182 59.2965 29.0297 59.2965 23.4791C59.2965 21.0409 58.7901 18.6437 57.8246 16.3862C60.5029 12.3923 61.2411 7.48278 59.8426 2.82668C59.4015 1.35767 58.1323 0.292902 56.6093 0.113465C51.9709 -0.433613 47.4056 1.01877 43.9842 4.10453C42.1434 3.44621 40.206 2.9699 38.2106 2.69339C37.0384 1.84287 35.5989 1.33962 34.0432 1.33962C32.4876 1.33962 31.0481 1.843 29.8758 2.69339C27.8805 2.96977 25.943 3.44621 24.1022 4.10453C20.6811 1.01916 16.1161 -0.433097 11.4775 0.113594C9.954 0.292902 8.68492 1.35793 8.24367 2.82681C6.84517 7.48291 7.58341 12.3923 10.2617 16.3862C9.29619 18.6437 8.78985 21.0409 8.78985 23.4793C8.78985 27.6624 10.2363 31.1916 13.0889 33.9686C13.2768 34.1515 13.5201 34.2427 13.763 34.2427C14.0148 34.2427 14.2664 34.1448 14.4559 33.9502C14.8285 33.5676 14.8201 32.9556 14.4375 32.5831C11.9729 30.1839 10.7234 27.1209 10.7234 23.4793C10.7234 19.948 11.9183 16.5014 14.1358 13.5179H29.0524C30.3376 14.7849 32.1003 15.5686 34.0432 15.5686C35.9862 15.5686 37.7489 14.7849 39.0341 13.5179H53.9505C56.168 16.5014 57.3629 19.948 57.3629 23.4793C57.3629 28.3781 55.1291 32.1855 50.7234 34.7958C49.8015 35.3421 48.7914 35.8294 47.7023 36.2574C47.6975 36.259 47.6927 36.2611 47.6879 36.2629C45.2421 37.2221 42.3936 37.879 39.2245 38.2162C39.2202 38.2166 39.216 38.2171 39.2116 38.2176C38.7738 38.264 38.3303 38.3048 37.8805 38.3389C37.8627 38.3401 37.8449 38.3411 37.8273 38.3432C36.6076 38.4345 35.3448 38.4809 34.0431 38.4809C32.7371 38.4809 31.4704 38.4334 30.2455 38.3411C30.2428 38.3409 30.2402 38.3407 30.2375 38.3405C25.2843 37.9664 21.0323 36.8462 17.7959 35.0449C17.3292 34.785 16.7405 34.9527 16.481 35.4193C16.2213 35.8858 16.389 36.4746 16.8555 36.7342C17.5312 37.1103 18.2465 37.4588 18.9988 37.779C18.9589 38.0847 18.9207 38.395 18.8845 38.7094C17.683 39.1131 16.5567 39.1696 15.6685 38.8632C15.0119 38.6366 14.5829 38.2276 14.3573 37.6131C13.9836 36.595 13.2358 35.7834 12.2515 35.3278C11.2672 34.8723 10.1648 34.8273 9.14717 35.2011C7.04587 35.9725 5.96409 38.3097 6.73547 40.4112C7.80835 43.3338 10.04 45.5097 13.019 46.5381C14.2484 46.9625 15.5627 47.1778 16.9255 47.1778C17.38 47.1778 17.8411 47.1526 18.3048 47.1043C18.2833 47.7218 18.2657 48.3284 18.2514 48.9196C18.2495 48.9189 18.2478 48.9183 18.2459 48.9176C14.7693 47.5935 11.7103 47.5214 9.15478 48.7036C7.00901 49.6957 5.42398 51.4924 4.57062 53.8996C4.31164 54.6296 4.35276 55.4168 4.68586 56.1159C5.01908 56.8152 5.6047 57.3428 6.33444 57.6015C6.64704 57.7124 6.97317 57.7687 7.30382 57.7687C8.52894 57.7687 9.62722 56.9926 10.0368 55.8374C10.2598 55.2088 10.71 54.374 11.5889 53.9678C12.6445 53.4797 14.2755 53.611 16.1818 54.3374C17.3191 54.7706 18.4289 55.0103 19.4998 55.0498C19.8146 55.3477 20.1768 55.6001 20.5812 55.7895C21.7313 56.3278 23.1785 56.9821 24.5941 57.5885C24.5466 59.0415 24.5766 60.5928 24.6846 62.2112C24.8266 64.3357 26.6044 66.0002 28.7322 66.0002C28.8206 66.0002 28.912 65.9972 29.0057 65.9911C31.2391 65.8419 32.9348 63.9034 32.7859 61.6702C32.6798 60.0805 32.663 58.6018 32.7338 57.2644C32.7875 57.2145 32.8396 57.1629 32.8904 57.11C33.2762 57.1371 33.6622 57.1518 34.0432 57.1518C34.478 57.1518 34.9111 57.1326 35.3423 57.0985C35.4239 58.4801 35.4112 60.0113 35.3006 61.6702C35.1517 63.9035 36.8474 65.8419 39.0813 65.9911C39.1718 65.9972 39.2635 66.0002 39.3543 66.0002C40.7398 66.0002 42.0154 65.303 42.7668 64.1353C43.0558 63.6863 42.926 63.088 42.477 62.7991C42.0282 62.51 41.4298 62.6398 41.1409 63.0889C40.7207 63.7418 39.9843 64.1144 39.2095 64.0618C38.0398 63.9835 37.1515 62.9684 37.2297 61.7986C37.3325 60.2571 37.3542 58.815 37.298 57.4874C37.4987 57.8617 37.7865 58.1892 38.1459 58.4376C38.6062 58.7559 39.1464 58.9196 39.6911 58.9196C40.0148 58.9196 40.3402 58.8617 40.6515 58.7443C40.9452 58.6333 41.256 58.5117 41.5766 58.3835C41.5823 58.7958 41.5824 59.215 41.5756 59.6395C41.5671 60.1735 41.9929 60.6132 42.5268 60.6217C42.5321 60.6218 42.5374 60.6218 42.5425 60.6218C43.0694 60.6218 43.5006 60.1991 43.5089 59.6705C43.5203 58.9607 43.5149 58.2628 43.4927 57.5876C44.9082 56.9814 46.3553 56.327 47.5054 55.7888C48.963 55.1067 49.8966 53.6264 49.884 52.0177C49.8706 50.319 49.8331 48.332 49.7494 46.2589C50.8379 46.2197 51.9299 46.0475 53.0021 45.745C56.007 44.8977 58.7596 43.0102 60.7526 40.43C62.1211 38.659 61.7931 36.1043 60.0217 34.7359ZM56.3831 2.03378C57.0183 2.10868 57.5637 2.49398 57.8528 3.04711C55.4874 3.57937 52.4884 4.69118 49.7878 7.00131C48.6042 6.21395 47.3404 5.51837 46.0133 4.9218C48.924 2.6368 52.6256 1.59073 56.3831 2.03378ZM11.7035 2.03378C15.4604 1.59099 19.1624 2.63706 22.073 4.9218C20.7458 5.51837 19.4822 6.21395 18.2986 7.00131C15.598 4.69105 12.5989 3.57937 10.2335 3.04711C10.5226 2.49398 11.0681 2.10868 11.7035 2.03378ZM12.9138 11.9309C12.9022 11.9447 12.8918 11.9593 12.8809 11.9737C12.2837 12.7388 11.7477 13.5335 11.2764 14.3531C9.22271 10.7187 9.32532 7.16476 9.73138 4.91587C11.7676 5.36498 14.3366 6.28743 16.6829 8.17281C16.0894 8.64126 15.5204 9.13407 14.9804 9.65201C14.2266 10.375 13.5371 11.1368 12.9138 11.9309ZM15.7813 11.5843C15.9566 11.4032 16.1351 11.2238 16.3189 11.0475C17.1423 10.2577 18.038 9.52942 18.9937 8.86581H26.9418C26.9975 9.83661 27.2487 10.7554 27.6566 11.5842H15.7813V11.5843ZM27.0947 6.93235H22.3302C24.0463 6.11212 25.8863 5.47248 27.807 5.03459C27.4837 5.62176 27.2419 6.25946 27.0947 6.93235ZM34.0432 13.635C31.1867 13.635 28.8625 11.3108 28.8625 8.45421C28.8625 5.59765 31.1865 3.2736 34.0432 3.2736C36.8998 3.2736 39.2238 5.59765 39.2238 8.45421C39.224 11.3108 36.8999 13.635 34.0432 13.635ZM45.7563 6.93235H40.9919C40.8447 6.25946 40.6029 5.62176 40.2796 5.03459C42.2002 5.47248 44.0403 6.11199 45.7563 6.93235ZM40.4299 11.5843C40.8377 10.7554 41.089 9.83661 41.1447 8.86594H49.0928C50.0486 9.52942 50.9442 10.2579 51.7674 11.0477C51.9513 11.2239 52.1297 11.4033 52.305 11.5844H40.4299V11.5843ZM56.8099 14.3531C56.3399 13.5358 55.8054 12.7432 55.2103 11.9801C55.1978 11.963 55.1854 11.946 55.1719 11.9299C54.5489 11.1362 53.8595 10.3748 53.106 9.65201C52.566 9.13407 51.997 8.64126 51.4035 8.17281C53.7499 6.2873 56.3187 5.36498 58.3549 4.91587C58.7611 7.16476 58.8639 10.7187 56.8099 14.3531ZM8.55085 39.7445C8.14673 38.6439 8.71341 37.42 9.81401 37.016C10.3472 36.8202 10.9243 36.8439 11.4396 37.0824C11.9551 37.3211 12.3468 37.746 12.5426 38.2793C12.6492 38.5698 12.7832 38.8397 12.9431 39.0879C11.9144 40.1811 10.5319 40.9978 9.39081 41.4259C9.05372 40.9076 8.77154 40.3457 8.55085 39.7445ZM16.8701 52.5303C14.4384 51.604 12.3315 51.4938 10.7775 52.2126C9.28781 52.901 8.56142 54.2123 8.21441 55.1908C8.07777 55.576 7.7118 55.8347 7.30369 55.8347C7.19399 55.8347 7.08558 55.8159 6.98078 55.7787C6.73753 55.6924 6.5425 55.5167 6.43138 55.2837C6.32039 55.0506 6.3066 54.7884 6.39296 54.5452C7.0683 52.6399 8.304 51.2267 9.96637 50.4582C12.0321 49.5027 14.5861 49.5923 17.5578 50.7239C17.7826 50.8096 17.9999 50.8802 18.2139 50.9413C18.209 51.3106 18.2052 51.6708 18.2024 52.0178C18.1999 52.3374 18.2362 52.6514 18.3051 52.9556C17.837 52.8573 17.358 52.7162 16.8701 52.5303ZM18.3859 45.1484C16.7204 45.3611 15.1043 45.212 13.6501 44.71C12.525 44.3216 11.5337 43.7303 10.7055 42.9731C11.9518 42.4104 13.3031 41.5298 14.3663 40.3961C14.5766 40.5098 14.8004 40.6087 15.0379 40.6907C16.1063 41.0592 17.3628 41.083 18.6762 40.7749C18.5502 42.2122 18.4559 43.6924 18.3859 45.1484ZM21.4006 54.038C20.6254 53.6753 20.1291 52.8883 20.1358 52.0332C20.1635 48.4907 20.2963 43.6829 20.741 39.5076C20.741 39.5072 20.7411 39.5068 20.7411 39.5066C20.7779 39.1619 20.8169 38.8221 20.858 38.487C23.0602 39.2353 25.5228 39.771 28.1951 40.0848C28.504 40.5914 28.8357 41.0612 29.1779 41.4937V50.7887C27.544 51.2177 26.3353 52.707 26.3353 54.4735C26.3353 55.1981 26.5387 55.876 26.8914 56.4532C25.0778 55.7167 22.9623 54.7691 21.4006 54.038ZM28.879 64.0619C27.7027 64.1369 26.6913 63.2435 26.6138 62.0822C26.5281 60.7971 26.4941 59.5595 26.5102 58.3841C26.8307 58.5122 27.1413 58.6338 27.435 58.7447C27.7503 58.8638 28.0763 58.9211 28.3984 58.9211C29.0323 58.9211 29.6505 58.6976 30.143 58.2829C30.1437 58.2829 30.1442 58.2829 30.1448 58.2829C30.3561 58.2829 30.5633 58.2649 30.7653 58.2316C30.7434 59.3497 30.773 60.5426 30.8568 61.7988C30.9347 62.9687 30.0466 63.9838 28.879 64.0619ZM30.1447 56.3495C29.1104 56.3495 28.2687 55.508 28.2687 54.4735C28.2687 53.4391 29.1102 52.5975 30.1447 52.5975C31.1792 52.5975 32.0207 53.439 32.0207 54.4735C32.0206 55.508 31.1791 56.3495 30.1447 56.3495ZM31.6548 50.977C31.4801 50.9012 31.2986 50.8379 31.1114 50.7888V43.5275C31.9038 44.2274 32.6156 44.7221 33.0708 45.012C33.0334 46.7666 32.783 48.8922 31.6548 50.977ZM36.9751 54.9181C35.9664 55.1281 34.9295 55.23 33.8808 55.2175C33.9286 54.9769 33.9543 54.7282 33.9543 54.4736C33.9543 53.6175 33.6703 52.8266 33.1918 52.1898C34.7901 49.4028 34.9835 46.5403 35.0068 45.0177C35.4614 44.7287 36.1773 44.2323 36.9752 43.5275L36.9751 54.9181ZM36.9751 40.791C35.8515 42.0713 34.6718 42.9268 34.0434 43.3362C33.4142 42.9265 32.2347 42.071 31.1116 40.791V40.3341C32.0676 40.3867 33.045 40.4141 34.0434 40.4141C35.0424 40.4141 36.0197 40.3867 36.9751 40.3343V40.791ZM46.6858 54.038C44.7543 54.9422 41.9753 56.1781 39.9685 56.9357C39.724 57.0281 39.4604 56.996 39.2456 56.8475C39.0315 56.6996 38.9087 56.465 38.9087 56.2043V41.4937C39.2505 41.0616 39.5819 40.5923 39.8904 40.0864C42.565 39.7729 45.0259 39.2361 47.2284 38.487C47.7672 42.879 47.9205 48.1973 47.9507 52.033C47.9572 52.8883 47.4608 53.6754 46.6858 54.038ZM52.4775 43.8845C51.5464 44.1472 50.5999 44.2957 49.6584 44.3279C49.5809 42.8998 49.4788 41.4612 49.3454 40.0736C50.78 40.0658 52.1841 39.6442 53.4406 38.8591C53.9289 39.87 54.8183 41.1491 56.3813 41.9883C55.1836 42.8458 53.8611 43.4944 52.4775 43.8845ZM59.2226 39.2486C58.8514 39.7293 58.4488 40.1804 58.0222 40.6028C56.1923 39.9696 55.3632 38.5626 55.0017 37.618C55.3024 37.3197 55.5889 36.997 55.8576 36.6492C56.2045 36.1999 56.7058 35.9125 57.269 35.8402C57.8326 35.7676 58.3903 35.9194 58.8398 36.2665C59.7675 36.9828 59.9392 38.3209 59.2226 39.2486ZM21.1886 22.269C19.7841 22.0833 16.9009 22.2987 15.6914 22.6013C15.1733 22.7308 14.8584 23.2557 14.9878 23.7737C15.0977 24.213 15.4918 24.5064 15.9251 24.5064C16.0028 24.5064 16.0816 24.497 16.1602 24.4773C17.1573 24.228 19.7951 24.035 20.9354 24.1859C21.4638 24.2557 21.9505 23.8836 22.0205 23.3541C22.0903 22.8248 21.7179 22.339 21.1886 22.269ZM25.6552 20.4542V18.9013C25.6552 18.3672 25.2224 17.9345 24.6884 17.9345C24.1543 17.9345 23.7216 18.3672 23.7216 18.9013V20.4542C23.7216 20.9883 24.1543 21.421 24.6884 21.421C25.2224 21.421 25.6552 20.9883 25.6552 20.4542ZM21.7065 25.5701C20.3375 25.9335 17.7541 27.2315 16.7507 27.972C16.3212 28.2891 16.2299 28.8944 16.547 29.324C16.7367 29.5808 17.0291 29.7168 17.3256 29.7168C17.525 29.7168 17.7263 29.6552 17.899 29.5277C18.7258 28.9174 21.0912 27.7341 22.2028 27.439C22.7188 27.302 23.0261 26.7726 22.8891 26.2564C22.7522 25.7404 22.2227 25.433 21.7065 25.5701ZM34.0432 5.08125C32.1834 5.08125 30.6704 6.59423 30.6704 8.45396C30.6704 10.3137 32.1835 11.8268 34.0432 11.8268C35.9031 11.8268 37.4159 10.3137 37.4159 8.45396C37.4159 6.59436 35.903 5.08125 34.0432 5.08125ZM34.0432 9.89332C33.2495 9.89332 32.6039 9.24763 32.6039 8.45396C32.6039 7.66041 33.2495 7.01472 34.0432 7.01472C34.8368 7.01472 35.4825 7.66041 35.4825 8.45396C35.4823 9.24789 34.8369 9.89332 34.0432 9.89332Z" fill="#151515"/>
</g>
<defs>
<clipPath id="clip0_716_15369">
<rect width="66" height="66" fill="white"/>
</clipPath>
</defs>
</svg>
