<svg width="312" height="156" viewBox="0 0 312 156" fill="none" xmlns="http://www.w3.org/2000/svg">
<g clip-path="url(#clip0_145_10498)">
<path d="M57.6654 122.842C54.5502 125.941 49.7798 129.317 43.8763 129.164C41.5929 129.104 39.7903 127.215 39.85 124.944C39.9099 122.673 41.809 120.88 44.0926 120.94C46.0346 120.99 50.7242 119.541 54.5759 113.696C55.8279 111.797 58.3915 111.265 60.3021 112.51C62.2127 113.756 62.7466 116.305 61.4945 118.205C61.0088 118.942 59.6847 120.834 57.6654 122.842Z" fill="#EDA751"/>
<path d="M93.7421 105.15C93.5395 105.351 93.3249 105.542 93.0984 105.723C90.4858 107.802 86.6212 108.269 82.2169 107.036C80.8427 106.651 80.0422 105.231 80.4292 103.865C80.8159 102.497 82.2436 101.702 83.6177 102.087C86.2932 102.836 88.6296 102.694 89.8678 101.709C90.6944 101.05 91.0746 99.9518 90.9937 98.4451C90.6213 91.5352 95.3841 85.1671 102.072 83.6318C103.463 83.3124 104.851 84.1753 105.171 85.5587C105.492 86.9422 104.625 88.3224 103.234 88.6417C99.5482 89.4877 95.8925 93.2829 96.1559 98.17C96.3087 101 95.4561 103.445 93.7421 105.15Z" fill="#EDA751"/>
<path d="M103.234 88.6419C104.626 88.3225 105.493 86.9423 105.172 85.5589C104.851 84.1753 103.463 83.3126 102.072 83.632C101.11 83.8528 100.19 84.1765 99.3172 84.5845C99.1502 86.3007 100.192 88.313 101.063 89.4878C101.765 89.0988 102.499 88.8107 103.234 88.6419Z" fill="#FCD79D"/>
<path d="M97.4512 118.408C96.6917 119.163 95.6391 119.625 94.4799 119.612C90.0042 119.562 86.559 118.521 83.9466 116.428C81.3015 114.309 80.1603 111.572 79.5321 109.698C78.8098 107.543 79.9807 105.213 82.1478 104.495C84.3149 103.776 86.6569 104.941 87.3794 107.096C88.0431 109.077 88.7954 111.321 94.5733 111.386C96.8572 111.412 98.688 113.274 98.6622 115.546C98.6496 116.664 98.1887 117.674 97.4512 118.408Z" fill="#EDA751"/>
<path d="M80.9617 134.807C79.757 136.006 77.8788 136.382 76.2539 135.61C68.6786 132.011 66.8632 124.378 67.4984 120.412C67.858 118.169 69.9776 116.64 72.2331 116.997C74.4889 117.355 76.0262 119.463 75.6671 121.706C75.5567 122.396 75.8344 126.294 79.8189 128.186C81.8801 129.166 82.7528 131.621 81.7684 133.671C81.56 134.105 81.2852 134.486 80.9617 134.807Z" fill="#EDA751"/>
<path opacity="0.2" d="M54.5758 113.696C53.3176 115.605 51.9703 117.043 50.6585 118.115C51.5009 119.552 52.5351 120.9 53.7646 122.123C54.5339 122.888 55.3522 123.578 56.2107 124.192C56.7287 123.744 57.2148 123.29 57.6651 122.842C59.6844 120.834 61.0086 118.942 61.4942 118.205C62.7463 116.305 62.2123 113.755 60.3018 112.51C58.3916 111.265 55.8276 111.797 54.5758 113.696Z" fill="#A35F00"/>
<path opacity="0.2" d="M67.4985 120.412C67.1879 122.352 67.4642 125.169 68.7129 127.962C71.5701 127.899 74.4484 127.28 77.168 126.11C75.7059 124.264 75.5896 122.191 75.6671 121.706C76.0262 119.463 74.4889 117.355 72.2332 116.997C69.9776 116.64 67.858 118.169 67.4985 120.412Z" fill="#A35F00"/>
<path opacity="0.2" d="M82.1481 104.495C79.981 105.213 78.8099 107.543 79.5323 109.698C80.1607 111.572 81.3016 114.309 83.9469 116.428C84.8505 117.152 85.8564 117.747 86.9675 118.222C88.6306 115.914 89.8148 113.384 90.5165 110.775C88.3409 109.961 87.8386 108.466 87.3796 107.096C86.6572 104.941 84.315 103.776 82.1481 104.495Z" fill="#A35F00"/>
<path opacity="0.2" d="M89.8679 101.709C88.6296 102.694 86.2931 102.836 83.6177 102.087C82.2436 101.702 80.8158 102.498 80.4291 103.865C80.0423 105.232 80.8427 106.651 82.2168 107.036C85.6539 107.998 88.7618 107.925 91.2032 106.859C91.3852 104.685 91.2404 102.508 90.7669 100.406C90.5783 100.946 90.2782 101.382 89.8679 101.709Z" fill="#A35F00"/>
<path d="M82.1173 118.855C89.5666 111.447 89.9939 99.8598 83.0715 92.9752C76.1492 86.0907 64.4987 86.5155 57.0494 93.9242C49.6001 101.333 49.1729 112.92 56.0952 119.804C63.0175 126.689 74.668 126.264 82.1173 118.855Z" fill="#FCD690"/>
<path opacity="0.15" d="M80.0145 120.683C69.8036 122.788 63.4198 112.639 60.8387 107.991L52.8296 100.025C49.8361 106.755 50.8771 114.616 56.0949 119.806C62.3955 126.072 72.6127 126.282 80.0145 120.683Z" fill="#C17A00"/>
<path d="M39.641 92.9389C40.0656 88.1112 38.11 82.6608 28.8909 80.8973C19.5991 79.1202 12.6239 83.2951 8.77621 88.1441C7.82752 89.3395 7.68241 90.9898 8.40797 92.331C11.3506 97.7706 17.4908 103.087 26.9519 102.941C36.3386 102.796 39.2163 97.7669 39.641 92.9389Z" fill="#EDA751"/>
<path d="M8.8758 93.1454C11.9755 98.2885 17.9642 103.079 26.9517 102.941C35.0881 102.816 38.3321 99.0199 39.3294 94.8671C25.4751 84.6269 14.5027 89.1702 8.8758 93.1454Z" fill="#FF91AB"/>
<path d="M56.0583 76.6112C51.2041 77.0335 45.7238 75.0885 43.9507 65.9197C42.1635 56.6784 46.3615 49.7413 51.2369 45.9146C52.4388 44.9711 54.0982 44.8267 55.4466 45.5485C60.916 48.4751 66.2616 54.5818 66.1151 63.9913C65.9699 73.3268 60.9127 76.1889 56.0583 76.6112Z" fill="#EDA751"/>
<path d="M56.2659 46.0137C61.4372 49.0965 66.2544 55.0525 66.1152 63.9911C65.9892 72.083 62.1726 75.3094 57.997 76.3013C47.7005 62.5226 52.2689 51.61 56.2659 46.0137Z" fill="#FF91AB"/>
<path d="M74.1567 65.2605C84.6567 75.7032 78.9739 90.5024 66.2911 103.116C53.6083 115.73 38.7281 121.381 28.2281 110.939C17.7281 100.496 19.4977 81.8051 32.1805 69.1915C44.8633 56.5779 63.6569 54.818 74.1567 65.2605Z" fill="#FFDC9C"/>
<path opacity="0.15" d="M22.8542 84.3057C19.7918 94.0529 21.4611 104.209 28.2281 110.939C37.2542 119.916 49.5171 116.999 60.8387 107.991C37.4748 113.849 27.6301 100.263 22.8542 84.3057Z" fill="#C17A00"/>
<path d="M42.1627 104.547C44.459 102.263 44.8381 98.937 43.0094 97.1183C41.1807 95.2995 37.8367 95.6766 35.5403 97.9604C33.244 100.244 32.8648 103.57 34.6935 105.389C36.5223 107.208 39.8663 106.83 42.1627 104.547Z" fill="#FF91AB"/>
<path d="M64.7006 82.1316C66.9969 79.8478 67.376 76.522 65.5473 74.7032C63.7186 72.8845 60.3746 73.2615 58.0782 75.5454C55.7819 77.8292 55.4027 81.155 57.2315 82.9738C59.0602 84.7925 62.4042 84.4155 64.7006 82.1316Z" fill="#FF91AB"/>
<path d="M32.785 90.3998C30.7429 90.3998 29.0829 92.0268 29.044 94.0485C29.004 96.1346 30.7608 97.8423 32.8588 97.8423L37.8903 97.8423C39.2034 97.8423 40.268 96.7834 40.2679 95.4776L40.268 90.4734C40.268 88.3868 38.5512 86.6395 36.4535 86.6794C34.4209 86.7178 32.785 88.3688 32.785 90.3998Z" fill="#BD4568"/>
<path d="M69.7526 106.559C66.9937 106.559 64.7512 108.757 64.6985 111.488C64.6444 114.307 67.0179 116.613 69.8523 116.613L76.6499 116.613C78.4239 116.613 79.8622 115.183 79.862 113.419L79.862 106.658C79.862 103.839 77.5425 101.479 74.7086 101.533C71.9627 101.585 69.7528 103.815 69.7526 106.559Z" fill="#BD4568"/>
<path d="M50.4762 72.8051C50.4762 70.7741 52.112 69.1234 54.1449 69.0846C56.2426 69.0446 57.9594 70.7919 57.9594 72.8785V77.8826C57.9594 79.1885 56.8948 80.2474 55.5817 80.2474L50.5501 80.2475C48.452 80.2475 46.6951 78.54 46.7353 76.4537C46.774 74.4321 48.434 72.8051 50.4762 72.8051Z" fill="#BD4568"/>
<path d="M85.5496 106.477C83.9989 108.019 81.9464 109.118 79.5635 109.59C77.3236 110.035 75.1456 108.589 74.6988 106.361C74.2518 104.133 75.7054 101.967 77.9459 101.523C79.9036 101.134 80.3161 99.882 80.3876 99.1703C80.485 98.2026 80.0741 96.9543 78.6296 96.3535C76.5222 95.4773 75.5284 93.0677 76.4095 90.9719C77.2911 88.8756 79.7137 87.8875 81.8208 88.764C86.3712 90.6563 89.103 95.1671 88.6184 99.9884C88.3635 102.528 87.2629 104.773 85.5496 106.477Z" fill="#EDA751"/>
<path d="M104.698 82.8831C103.824 82.3398 102.789 82.1677 101.785 82.3983C95.1103 83.9303 90.1999 89.8797 89.7391 96.6489C88.9916 92.6669 86.2691 89.2412 82.312 87.5956C81.2043 87.1347 80.028 87.07 78.9426 87.3351C79.4375 86.106 79.8419 84.8885 80.1507 83.688C82.0616 76.2618 80.3001 69.5798 75.0569 64.3652C72.7284 62.0494 69.9881 60.2682 66.9508 59.0581C65.7054 52.794 61.7663 47.4921 56.0499 44.4333C54.2509 43.4706 52.0521 43.6619 50.4485 44.9206C45.5512 48.7641 42.6098 54.4175 42.2923 60.5308C38.308 62.4056 34.5684 65.0261 31.2805 68.2961C27.9926 71.566 25.3577 75.2853 23.4727 79.2478C17.3261 79.5635 11.6427 82.4881 7.77685 87.3596C6.51118 88.9545 6.3189 91.1414 7.28679 92.9306C10.3621 98.616 15.6931 102.534 21.9918 103.772C23.2085 106.793 24.9994 109.518 27.3279 111.834C31.6331 116.116 36.8028 118.051 42.6934 117.585C45.5258 117.361 48.4576 116.582 51.4634 115.269C51.4983 115.348 51.5339 115.427 51.5699 115.506C48.503 118.856 45.3972 119.707 44.1258 119.674C41.1445 119.597 38.6554 121.946 38.5771 124.911C38.4993 127.876 40.8615 130.352 43.8428 130.429C50.2816 130.597 55.4029 126.883 58.5653 123.738C58.6509 123.653 58.7361 123.567 58.8212 123.48C61.2191 124.87 63.892 125.673 66.6404 125.895C67.4 128.726 69.5818 133.844 75.705 136.752C77.77 137.733 80.244 137.312 81.8615 135.703C82.2956 135.271 82.6506 134.771 82.9168 134.217C84.2022 131.54 83.0584 128.322 80.3672 127.044C78.5818 126.196 77.7228 124.883 77.3098 123.829C79.3609 122.823 81.2963 121.464 83.0176 119.752C83.4917 119.28 83.9398 118.788 84.364 118.279C87.0271 119.979 90.346 120.832 94.4655 120.878C95.9333 120.895 97.3134 120.335 98.3511 119.303C99.3564 118.303 99.9189 116.974 99.9347 115.56C99.9682 112.594 97.5692 110.154 94.5871 110.12C91.5449 110.086 90.2204 109.417 89.5611 108.701C91.2113 108.356 92.6638 107.69 93.8932 106.711C94.1544 106.503 94.4063 106.279 94.6418 106.045C96.6083 104.089 97.5972 101.269 97.4268 98.1028C97.1992 93.8804 100.346 90.6044 103.52 89.8759C105.593 89.4003 106.89 87.3361 106.412 85.2746C106.18 84.2754 105.572 83.4262 104.698 82.8831ZM55.1946 120.701C55.6712 121.175 56.1691 121.616 56.6852 122.026C53.8705 124.803 49.393 128.041 43.9095 127.898C42.3314 127.857 41.0811 126.547 41.1224 124.977C41.164 123.408 42.4817 122.164 44.0592 122.206C45.3066 122.238 46.9177 121.813 48.4792 121.039C50.0376 120.267 51.5039 119.192 52.8564 117.835C53.5293 118.862 54.3093 119.82 55.1946 120.701ZM64.1135 58.1179C60.9211 57.2615 57.4688 56.982 53.8681 57.3193C53.616 57.3429 53.3643 57.3695 53.1126 57.399C53.5465 53.3959 55.1146 50.0962 56.6228 47.7517C59.1393 49.4855 62.6167 52.742 64.1135 58.1179ZM52.0258 46.9085C52.7095 46.372 53.6075 46.2226 54.4165 46.4835C52.6789 49.2096 50.8862 53.0842 50.5182 57.8094C48.6317 58.1824 46.7669 58.7178 44.9422 59.4073C45.5301 54.5095 48.0449 50.0333 52.0258 46.9085ZM9.77565 88.9283C12.9163 84.9699 17.4181 82.4682 22.3431 81.8832C21.6496 83.6981 21.1116 85.5525 20.7364 87.4287C15.9852 87.7944 12.0893 89.5777 9.34824 91.3058C9.08586 90.5012 9.23601 89.6082 9.77565 88.9283ZM10.6235 93.5002C12.9808 92.0002 16.2988 90.441 20.3237 90.0092C20.294 90.2595 20.2671 90.51 20.2435 90.7605C19.9044 94.3415 20.1853 97.7749 21.0465 100.95C15.641 99.4615 12.3665 96.0032 10.6235 93.5002ZM79.2703 129.329C80.6948 130.005 81.3002 131.708 80.6196 133.125C80.4784 133.419 80.2906 133.684 80.0616 133.912C79.2055 134.763 77.8959 134.987 76.8027 134.467C72.0597 132.214 70.1003 128.405 69.3027 125.93C71.2056 125.827 73.1134 125.454 74.9614 124.81C75.5572 126.305 76.7759 128.144 79.2703 129.329ZM94.5589 112.652C96.1375 112.67 97.4072 113.961 97.3892 115.531C97.3807 116.28 97.083 116.983 96.5509 117.512C96.0016 118.059 95.271 118.355 94.4942 118.346C90.9424 118.306 88.109 117.612 85.8746 116.232C86.9371 114.597 87.7652 112.836 88.3372 111.009C89.7158 112.108 91.7169 112.62 94.5589 112.652ZM84.6495 105.581C83.2454 106.978 81.4006 107.935 79.3148 108.349C77.7669 108.655 76.2561 107.653 75.9475 106.113C75.7979 105.367 75.9493 104.608 76.3737 103.976C76.7986 103.343 77.4451 102.913 78.1952 102.764C80.183 102.37 81.476 101.073 81.6545 99.2964C81.7908 97.9428 81.209 96.0538 79.1209 95.1851C78.9311 95.1062 78.7511 95.0081 78.5854 94.8933C78.0086 94.4934 77.2157 94.6335 76.813 95.2076C76.4108 95.7812 76.5523 96.5703 77.129 96.9704C77.4428 97.1881 77.7826 97.3735 78.1388 97.5215C79.1227 97.9308 79.1536 98.7227 79.1212 99.0446C79.0555 99.6997 78.5894 100.104 77.6975 100.281C76.2805 100.562 75.0582 101.375 74.2562 102.57C73.4541 103.765 73.1682 105.2 73.451 106.609C74.0343 109.518 76.8881 111.412 79.8132 110.832C82.3942 110.32 84.6894 109.124 86.4505 107.372C86.4931 107.33 86.5334 107.285 86.5753 107.242C86.0587 111.192 84.1841 115.011 81.218 117.961C74.2765 124.865 63.4104 125.29 56.9954 118.91C55.876 117.797 54.9511 116.541 54.2307 115.159C54.2196 115.136 54.2076 115.113 54.195 115.091C54.04 114.79 53.8953 114.482 53.7596 114.169C55.6117 113.203 57.4884 112.042 59.3858 110.681C59.9553 110.272 60.0846 109.48 59.6732 108.913C59.2618 108.346 58.4661 108.218 57.8959 108.627C55.7829 110.144 53.7067 111.394 51.6741 112.382C51.6218 112.403 51.5714 112.427 51.5235 112.454C48.3968 113.956 45.3755 114.832 42.4921 115.06C37.3788 115.465 32.8827 113.777 29.1289 110.043C19.1421 100.111 20.9153 82.1864 33.0815 70.0865C45.2477 57.9867 63.2705 56.2232 73.2572 66.1555C77.8947 70.7677 79.3842 76.455 77.6849 83.0601C76.1163 89.1568 71.8653 95.7822 65.3916 102.221C64.4045 103.202 63.3964 104.148 62.3956 105.03C61.868 105.494 61.821 106.294 62.2876 106.817C62.754 107.341 63.5585 107.389 64.0847 106.925C65.1237 106.009 66.1692 105.028 67.1921 104.011C70.971 100.253 74.033 96.4116 76.2973 92.6178C76.8314 92.6071 77.3224 92.2608 77.4882 91.7249C77.5158 91.6354 77.5482 91.5463 77.5845 91.46C78.194 90.0116 79.8742 89.3259 81.3304 89.9317C85.3608 91.6076 87.781 95.5984 87.3524 99.8623C87.2772 100.61 87.1178 101.331 86.8824 102.019C86.8747 102.04 86.8671 102.061 86.8605 102.082C86.8143 102.214 86.7653 102.344 86.7135 102.474C86.7008 102.502 86.6894 102.532 86.6788 102.561C86.213 103.684 85.5311 104.704 84.6495 105.581ZM103.931 85.8435C104.094 86.5446 103.653 87.2465 102.948 87.4081C98.7499 88.3714 94.5855 92.6857 94.8847 98.2376C95.018 100.712 94.3116 102.792 92.8419 104.254C92.6725 104.423 92.4911 104.584 92.3027 104.734C91.4379 105.422 90.4084 105.905 89.2312 106.178C89.2852 105.276 89.2771 104.37 89.2037 103.468C89.7619 103.281 90.2517 103.024 90.6634 102.697C91.4659 102.058 92.3943 100.79 92.2647 98.3771C91.9251 92.0732 96.2636 86.2641 102.358 84.8653C102.699 84.7869 103.051 84.8454 103.348 85.0301C103.645 85.2152 103.852 85.5039 103.931 85.8435ZM64.6079 82.1778C65.9395 81.4091 69.2989 80.2962 70.6594 80.0924C70.939 80.0504 71.1835 79.9211 71.3692 79.7364C71.6453 79.4619 71.7911 79.0652 71.7286 78.6518C71.6238 77.9603 70.9752 77.4842 70.2801 77.5885C68.6326 77.8353 64.9664 79.0432 63.3299 79.9878C62.7213 80.3395 62.515 81.1139 62.8679 81.7186C63.2209 82.3232 63.9999 82.5288 64.6079 82.1778ZM40.007 103.183C39.0572 104.811 37.8427 108.457 37.5943 110.096C37.4897 110.787 37.9682 111.432 38.6635 111.536C39.0792 111.599 39.478 111.453 39.7541 111.179C39.9398 110.994 40.0699 110.751 40.112 110.473C40.3169 109.12 41.4361 105.779 42.209 104.454C42.5619 103.85 42.3551 103.075 41.747 102.724C41.1392 102.373 40.361 102.578 40.007 103.183ZM37.9397 102.582C38.4957 102.158 38.6032 101.362 38.1755 100.806C37.7477 100.252 36.9485 100.146 36.3906 100.572C34.8886 101.717 32.3693 104.628 31.5119 106.049C31.15 106.648 31.3458 107.426 31.9486 107.786C32.46 108.091 33.1 107.998 33.5034 107.596C33.5758 107.524 33.6404 107.443 33.6953 107.352C34.403 106.178 36.718 103.513 37.9397 102.582ZM62.7247 77.9318C63.6616 76.7161 66.3412 74.4142 67.5208 73.7102C67.6124 73.6556 67.6946 73.5913 67.7669 73.5194C68.17 73.1182 68.2641 72.4817 67.9575 71.9731C67.5957 71.3736 66.8136 71.1793 66.2107 71.5389C64.7824 72.3915 61.8556 74.8972 60.7039 76.3912C60.2762 76.946 60.3819 77.7409 60.9398 78.1663C61.4978 78.5917 62.2968 78.4855 62.7247 77.9318ZM50.4849 84.4199C50.4367 83.7222 49.8291 83.1956 49.1275 83.2434C48.4259 83.2912 47.8967 83.8956 47.9446 84.5933C48.0061 85.4849 47.6782 86.3575 47.0448 86.9874C46.4115 87.6173 45.5341 87.9435 44.6378 87.8822C43.9364 87.8342 43.3286 88.3611 43.2806 89.0585C43.2323 89.7561 43.7618 90.3605 44.4632 90.4085C46.094 90.5201 47.6913 89.9256 48.8451 88.7781C49.999 87.6302 50.5968 86.0419 50.4849 84.4199Z" fill="#151515"/>
</g>
<g clip-path="url(#clip1_145_10498)">
<path d="M128.029 69.9388C127.757 69.9388 127.481 69.8939 127.211 69.7996C125.926 69.3502 125.25 67.9498 125.702 66.6715C126.483 64.4617 128.196 62.7599 130.526 61.8793C133.905 60.6022 138.208 61.1018 142.038 63.2154C143.697 64.1309 144.979 64.1285 146.464 63.2083C148.103 62.192 149.739 60.1915 151.32 58.257L151.804 57.666C152.666 56.6166 154.22 56.4615 155.275 57.3181C156.33 58.1753 156.486 59.7208 155.625 60.77L155.148 61.3521C153.311 63.5992 151.412 65.9228 149.073 67.3723C146.051 69.2452 142.879 69.2902 139.645 67.5058C137.147 66.1273 134.255 65.7186 132.278 66.4659C131.302 66.8348 130.655 67.4517 130.356 68.2989C129.999 69.3076 129.046 69.9388 128.029 69.9388Z" fill="#EDA751"/>
<path opacity="0.2" d="M155.275 57.3181C154.22 56.4614 152.666 56.6167 151.804 57.6661L151.32 58.2571C149.739 60.1917 148.103 62.1922 146.464 63.2083C144.979 64.1284 143.697 64.1309 142.039 63.2154C140.151 62.1738 138.149 61.5251 136.198 61.2869L145.059 68.7773C146.421 68.6534 147.761 68.1852 149.073 67.372C151.412 65.9226 153.311 63.599 155.148 61.3519L155.625 60.7698C156.486 59.7207 156.33 58.1754 155.275 57.3181Z" fill="#A35F00"/>
<path d="M126.727 64.719C126.297 65.3114 125.951 65.9652 125.702 66.6717C125.25 67.95 125.926 69.3503 127.211 69.7997C127.482 69.8942 127.758 69.939 128.029 69.939C129.046 69.939 129.999 69.3076 130.356 68.2988C130.497 67.8997 130.718 67.5538 131.011 67.2587C129.99 65.6976 128.105 64.9702 126.727 64.719Z" fill="#FCD79D"/>
<path d="M152.844 82.5711C152.408 82.5711 151.964 82.4986 151.529 82.3456C149.474 81.6231 148.397 79.3805 149.124 77.3368C150.464 73.5661 151.691 69.4271 150.63 67.3168C149.656 65.3778 150.445 63.0203 152.395 62.0509C154.345 61.0816 156.715 61.8674 157.69 63.8063C159.934 68.2695 158.863 73.4891 156.565 79.9533C155.993 81.5643 154.47 82.5711 152.844 82.5711Z" fill="#EDA751"/>
<path opacity="0.2" d="M152.395 62.0507C150.445 63.02 149.655 65.3779 150.63 67.3166C151.315 68.6795 151.046 70.8889 150.408 73.2983L156.955 78.8324C158.976 72.8815 159.803 68.0081 157.69 63.8059C156.715 61.8672 154.345 61.0813 152.395 62.0507Z" fill="#A35F00"/>
<path d="M174.451 82.5057C174.014 82.5057 173.57 82.4331 173.135 82.2801C171.08 81.5576 170.003 79.315 170.729 77.2713C171.457 75.2241 171.128 73.2017 170.724 71.8653C170.206 70.1538 169.397 68.9953 169.087 68.7044C167.363 67.4222 166.988 64.996 168.257 63.2572C169.536 61.5023 172.004 61.1115 173.768 62.3842C176.803 64.5734 180.87 72.2948 178.171 79.888C177.599 81.499 176.076 82.5057 174.451 82.5057ZM169.133 68.7375C169.133 68.7378 169.134 68.7383 169.135 68.7386C169.134 68.7383 169.133 68.7378 169.133 68.7375Z" fill="#EDA751"/>
<path d="M162.514 71.3406C172.567 71.3406 180.717 63.809 180.717 54.5183C180.717 45.2276 172.567 37.696 162.514 37.696C152.461 37.696 144.311 45.2276 144.311 54.5183C144.311 63.809 152.461 71.3406 162.514 71.3406Z" fill="#FCD690"/>
<path opacity="0.15" d="M159.855 71.1619C151.537 65.7305 154.115 54.5984 155.527 49.7302V38.981C148.942 41.513 144.311 47.5157 144.311 54.5187C144.311 62.9748 151.062 69.9727 159.855 71.1619Z" fill="#C17A00"/>
<path d="M151.436 25.3488C154.998 22.3763 157.376 17.3864 152.352 10.0099C147.288 2.57522 139.749 0.711477 133.863 1.40109C132.412 1.57109 131.195 2.5872 130.774 3.97893C129.069 9.624 129.606 17.3317 136.088 23.5825C142.52 29.784 147.874 28.3212 151.436 25.3488Z" fill="#EDA751"/>
<path d="M130.537 4.84277C129.139 10.393 129.93 17.6445 136.088 23.5825C141.663 28.9578 146.427 28.5737 149.917 26.4409C147.517 10.2343 137.031 5.93654 130.537 4.84277Z" fill="#FF91AB"/>
<path d="M173.591 25.3488C170.029 22.3763 167.651 17.3864 172.675 10.0099C177.739 2.57522 185.278 0.711477 191.164 1.40109C192.615 1.57109 193.833 2.5872 194.253 3.97893C195.958 9.624 195.422 17.3317 188.939 23.5825C182.507 29.784 177.153 28.3212 173.591 25.3488Z" fill="#EDA751"/>
<path d="M194.49 4.84277C195.887 10.393 195.097 17.6445 188.939 23.5825C183.364 28.9578 178.6 28.5737 175.11 26.4409C177.51 10.2343 187.996 5.93654 194.49 4.84277Z" fill="#FF91AB"/>
<path d="M193.504 29.8352C193.504 43.9274 179.629 50.0997 162.514 50.0997C145.398 50.0997 131.523 43.9274 131.523 29.8352C131.523 15.743 145.398 4.31885 162.514 4.31885C179.629 4.31885 193.504 15.743 193.504 29.8352Z" fill="#FFDC9C"/>
<path opacity="0.15" d="M145.966 8.2583C137.287 12.7801 131.523 20.7528 131.523 29.835C131.523 41.9491 141.777 48.2105 155.527 49.7297C135.788 38.0035 138.363 22.2306 145.966 8.2583Z" fill="#C17A00"/>
<path d="M150.888 37.4977C153.988 37.4977 156.5 35.5081 156.5 33.0538C156.5 30.5995 153.988 28.6099 150.888 28.6099C147.789 28.6099 145.277 30.5995 145.277 33.0538C145.277 35.5081 147.789 37.4977 150.888 37.4977Z" fill="#FF91AB"/>
<path d="M181.302 37.4977C184.401 37.4977 186.914 35.5081 186.914 33.0538C186.914 30.5995 184.401 28.6099 181.302 28.6099C178.203 28.6099 175.691 30.5995 175.691 33.0538C175.691 35.5081 178.203 37.4977 181.302 37.4977Z" fill="#FF91AB"/>
<path d="M128.092 51.0681L142.11 34.4546L135.6 29.0214L121.582 45.6349L128.092 51.0681Z" fill="#495059"/>
<path d="M135.599 29.0191L121.581 45.6337L117.414 42.1564C115.359 40.4409 115.091 37.3931 116.816 35.3487L124.587 26.1374C126.312 24.093 129.377 23.8263 131.432 25.5418L135.599 29.0191Z" fill="#FF91AB"/>
<path d="M128.092 51.0671L163.12 80.6768C164.745 82.0329 166.721 82.9067 168.822 83.198L182.89 85.1491C184.305 85.3454 185.439 84.0013 184.999 82.6494L180.624 69.2094C179.971 67.2021 178.763 65.4182 177.138 64.0623L142.109 34.4526L128.092 51.0671Z" fill="#F5D141"/>
<path opacity="0.1" d="M134.281 43.7296L171.979 75.1921L173.616 73.2526L135.918 41.79L134.281 43.7296Z" fill="#151515"/>
<path d="M165.914 82.3882C166.838 82.7841 167.815 83.0588 168.822 83.1984L182.89 85.1494C184.305 85.3457 185.439 84.0016 184.999 82.6497L180.624 69.2099C180.311 68.2483 179.87 67.3389 179.317 66.5022L165.914 82.3882Z" fill="#FFDC9C"/>
<path d="M176.401 84.2491L182.89 85.149C184.305 85.3454 185.439 84.0012 184.999 82.6493L182.981 76.4497L176.401 84.2491Z" fill="#495059"/>
<path opacity="0.1" d="M182.89 85.1491C183.533 85.2382 184.115 85.008 184.521 84.6054C147.406 68.4151 124.253 39.685 120.315 31.2009L116.815 35.3488C115.09 37.3931 115.359 40.441 117.414 42.1565L121.581 45.6338L128.092 51.0671L163.12 80.6768C164.745 82.0329 166.721 82.9067 168.822 83.1981L182.89 85.1491Z" fill="#151515"/>
<path d="M134.955 59.3875C134.33 59.3875 133.696 59.2393 133.105 58.9272C131.181 57.909 130.451 55.5324 131.474 53.6187C131.711 53.1762 132.978 50.864 134.691 48.797C136.077 47.124 138.564 46.8854 140.246 48.264C141.928 49.6426 142.168 52.1162 140.782 53.7891C139.76 55.0228 138.831 56.5796 138.443 57.305C137.734 58.6316 136.367 59.3875 134.955 59.3875Z" fill="#EDA751"/>
<path d="M167.959 60.5398C167.95 60.5398 167.942 60.5398 167.934 60.5398C165.755 60.5339 163.993 58.7718 163.998 56.604C164.004 54.4399 165.77 52.6896 167.945 52.6896C167.951 52.6898 167.956 52.6898 167.962 52.6896C169.539 52.6896 173.896 51.1799 175.907 49.4519C177.556 48.0345 180.048 48.2151 181.473 49.8554C182.898 51.4956 182.717 53.974 181.067 55.3916C177.871 58.1387 171.754 60.5398 167.959 60.5398Z" fill="#EDA751"/>
<path d="M166.096 31.4C167.67 31.4 169.167 30.7218 170.203 29.5398C170.665 29.0126 170.609 28.2129 170.079 27.7534C169.549 27.2938 168.745 27.3489 168.283 27.8761C167.731 28.5063 166.933 28.8677 166.095 28.8677C165.257 28.8677 164.46 28.5063 163.908 27.8761C163.446 27.3487 162.642 27.294 162.112 27.7535C161.582 28.213 161.527 29.0127 161.989 29.5398C163.025 30.7222 164.522 31.4 166.096 31.4ZM196.319 82.1525H186.175L181.836 68.8198C181.26 67.0516 180.299 65.4446 179.031 64.1047C180.608 61.7632 181.587 59.116 181.887 56.3613C181.892 56.3577 181.896 56.354 181.9 56.3505C184.078 54.4788 184.319 51.1943 182.437 49.0284C182.135 48.6808 181.796 48.3835 181.431 48.1358C183.352 47.3454 185.089 46.4171 186.615 45.3569C191.954 41.646 194.777 36.279 194.777 29.8357C194.777 26.7131 194.138 23.6747 192.915 20.8214C196.32 15.7488 197.256 9.52145 195.472 3.61471C194.904 1.73561 193.272 0.373254 191.313 0.143663C185.395 -0.5495 179.57 1.2874 175.199 5.1945C171.241 3.79112 166.945 3.05255 162.514 3.05255C158.123 3.05255 153.814 3.79636 149.839 5.20395C145.466 1.29044 139.635 -0.550513 133.714 0.143832C131.755 0.373254 130.123 1.73578 129.555 3.61505C127.77 9.52652 128.708 15.7594 132.121 20.8341C131.704 21.8029 131.354 22.793 131.075 23.8007C130.065 23.291 128.93 23.0687 127.775 23.1688C126.143 23.3108 124.665 24.0762 123.612 25.3241L115.841 34.5356C113.667 37.1116 114.006 40.9655 116.596 43.127L127.268 52.0326L129.884 54.244C129.665 55.1378 129.69 56.077 129.967 56.9798C130.375 58.3059 131.277 59.3949 132.508 60.046C132.52 60.0524 132.533 60.0578 132.545 60.0641C131.688 60.1905 130.859 60.4002 130.075 60.6968C127.388 61.7124 125.409 63.6856 124.501 66.2528C123.818 68.1874 124.844 70.3147 126.79 70.9952C127.19 71.1349 127.608 71.2059 128.029 71.2059C129.614 71.2059 131.032 70.2066 131.557 68.7195C131.667 68.4092 131.908 67.961 132.732 67.6499C134.347 67.0396 136.877 67.4265 139.028 68.6135C142.006 70.2564 144.961 70.5223 147.825 69.4098L149.621 70.9282C149.318 72.8424 148.568 75.103 147.924 76.9152C147.46 78.2226 147.534 79.6317 148.135 80.8829C148.736 82.1341 149.791 83.0777 151.106 83.5401C151.669 83.7376 152.254 83.8379 152.845 83.8379C155.053 83.8379 157.03 82.4467 157.767 80.3758C158.016 79.6756 158.241 79.0157 158.445 78.387L162.302 81.6477C164.113 83.1583 166.307 84.1285 168.647 84.4531L182.715 86.4041C182.866 86.425 183.016 86.4353 183.165 86.4353C184.107 86.4353 184.999 86.0261 185.616 85.2946C185.777 85.1049 185.911 84.9 186.02 84.6856H196.32C197.023 84.6856 197.593 84.1188 197.593 83.4194C197.593 82.72 197.022 82.1525 196.319 82.1525ZM180.235 54.434C177.288 56.9673 171.437 59.274 167.959 59.274H167.938C166.463 59.27 165.267 58.0741 165.272 56.6079C165.276 55.149 166.469 53.9615 167.935 53.9561C167.948 53.9565 167.962 53.9561 167.976 53.9561C169.822 53.9482 174.467 52.3625 176.739 50.4101C177.855 49.4514 179.546 49.5741 180.51 50.6833C181.474 51.7929 181.351 53.4753 180.235 54.434ZM178.902 58.4191C178.511 59.8085 177.912 61.1432 177.119 62.3847L174.725 60.3614C176.172 59.8225 177.604 59.1594 178.902 58.4191ZM191.572 18.1615C190.001 15.4687 187.874 12.9876 185.239 10.8175C185.071 10.6795 184.901 10.544 184.731 10.4094C187.692 8.05527 190.928 6.89381 193.504 6.32439C194.013 9.15883 194.133 13.606 191.572 18.1615ZM191.015 2.65853C191.795 2.75003 192.468 3.21208 192.837 3.87874C189.829 4.55789 186.03 5.96583 182.604 8.87184C181.111 7.88291 179.528 7.01232 177.87 6.26632C183.021 2.25894 188.676 2.38437 191.015 2.65853ZM162.514 5.58497C178.899 5.58497 192.23 16.4635 192.23 29.835C192.23 35.4945 189.85 40.0184 185.156 43.2805C180.811 46.3001 174.517 48.1691 166.953 48.6857C166.251 48.7336 165.722 49.3378 165.77 50.0355C165.816 50.7037 166.375 51.2149 167.039 51.2149C167.068 51.2149 167.098 51.2139 167.127 51.2118C168.193 51.1391 169.236 51.0393 170.255 50.9149C169.271 51.2341 168.418 51.4237 167.962 51.4237C167.956 51.4235 167.95 51.4235 167.945 51.4237C166.909 51.4237 165.942 51.7277 165.128 52.2491L148.746 38.4006C149.644 37.9869 150.468 37.6619 150.997 37.5221C151.677 37.3427 152.081 36.6493 151.901 35.9736C151.72 35.2978 151.024 34.8958 150.344 35.0746C149.299 35.3505 147.824 36.007 146.627 36.6092L143.265 33.7675C143.272 33.7658 143.279 33.7653 143.286 33.7636C144.555 33.4477 147.912 33.2033 149.364 33.3945C150.061 33.4849 150.701 32.9983 150.793 32.3052C150.885 31.612 150.395 30.9757 149.698 30.8841C147.902 30.6484 144.215 30.9221 142.669 31.3068C142.115 31.4447 141.737 31.924 141.706 32.4627L136.417 28.0493C136.417 28.0491 136.417 28.049 136.417 28.0488C136.417 28.0486 136.416 28.0486 136.416 28.0484L133.287 25.4368C134.493 20.0801 137.914 15.1751 142.987 11.5611C143.006 11.5476 143.025 11.5348 143.044 11.5213C143.046 11.5199 143.048 11.5184 143.05 11.5169C148.45 7.69181 155.359 5.58497 162.514 5.58497ZM134.012 2.65853C136.352 2.3842 142.013 2.25911 147.166 6.27425C145.504 7.01958 143.917 7.88815 142.425 8.87336C138.998 5.96633 135.199 4.55823 132.19 3.87891C132.559 3.21208 133.232 2.75003 134.012 2.65853ZM131.523 6.32422C134.099 6.89381 137.335 8.05544 140.297 10.4098C137.457 12.6488 135.147 15.284 133.462 18.1747C130.894 13.6148 131.014 9.16153 131.523 6.32422ZM118.233 41.1868C116.718 39.9229 116.52 37.669 117.791 36.1628L125.562 26.9513C126.178 26.2217 127.042 25.774 127.997 25.6911C128.949 25.6074 129.88 25.8992 130.614 26.5117L133.806 29.1751L121.424 43.8501L118.233 41.1868ZM123.374 45.4778L135.756 30.803L140.316 34.6088L127.935 49.2836L123.374 45.4778ZM132.402 56.239C132.193 55.5599 132.263 54.8404 132.598 54.2131C132.825 53.7897 134.037 51.5777 135.674 49.6023C136.128 49.0542 136.769 48.7147 137.48 48.6467C137.568 48.6382 137.655 48.6342 137.742 48.6342C138.36 48.6342 138.954 48.8452 139.437 49.2414C140.575 50.1738 140.737 51.853 139.8 52.9844C138.713 54.2965 137.729 55.9443 137.32 56.7109C137.115 57.0939 136.824 57.413 136.479 57.6502C136.472 57.6547 136.465 57.6595 136.457 57.6642C136.022 57.9571 135.502 58.1219 134.955 58.1219C134.516 58.1219 134.095 58.0168 133.703 57.8095C133.073 57.476 132.611 56.9182 132.402 56.239ZM140.263 66.3986C137.407 64.8229 134.175 64.3949 131.827 65.2824C130.502 65.7826 129.579 66.6805 129.155 67.879C128.987 68.3539 128.534 68.6731 128.029 68.6731C127.895 68.6731 127.761 68.6501 127.633 68.6056C127.012 68.3885 126.684 67.7091 126.903 67.0918C127.557 65.2399 129.005 63.8093 130.979 63.0633C134.011 61.9172 137.914 62.3879 141.42 64.3227C141.726 64.4913 142.019 64.6311 142.31 64.7484L145.497 67.4421C143.797 67.7395 142.069 67.3951 140.263 66.3986ZM155.365 79.5311C154.988 80.5921 153.975 81.305 152.844 81.305C152.543 81.305 152.242 81.2533 151.953 81.1519C150.564 80.6632 149.832 79.1409 150.324 77.7587C150.849 76.2798 151.443 74.5118 151.841 72.8051L156.337 76.6055C156.064 77.5034 155.743 78.4675 155.365 79.5311ZM168.998 81.9445C168.693 81.9021 168.391 81.8447 168.093 81.7752L168.556 81.2267C169.008 80.691 168.937 79.8925 168.399 79.4429C167.86 78.9934 167.057 79.0633 166.605 79.5989L165.576 80.8188C164.999 80.5053 164.452 80.1359 163.944 79.7124L151.793 69.4409C151.792 69.4402 151.792 69.4394 151.791 69.4387L148.888 66.9853C148.888 66.9847 148.887 66.9842 148.886 66.9837L139.056 58.6741C139.247 58.4335 139.419 58.176 139.567 57.8995C139.933 57.2163 140.807 55.7512 141.765 54.5944C143.595 52.3853 143.277 49.1074 141.056 47.287C139.98 46.4051 138.623 45.9917 137.235 46.1261C135.848 46.2591 134.595 46.9219 133.708 47.992C132.562 49.3756 131.609 50.8593 131.007 51.8699L129.88 50.9174L142.261 36.2427L163.383 54.0978C162.967 54.8402 162.727 55.6934 162.725 56.601C162.717 59.4634 165.052 61.7984 167.934 61.8063H167.958C169.116 61.8063 170.453 61.6086 171.854 61.2585L176.319 65.0324C176.829 65.4583 177.292 65.932 177.703 66.4442L170.169 75.3739C169.717 75.9098 169.788 76.7083 170.326 77.1577C170.565 77.3569 170.855 77.4539 171.144 77.4539C171.507 77.4539 171.868 77.3001 172.12 77.0017L179.088 68.7428C179.208 69.0227 179.318 69.308 179.412 69.5996L181.552 76.173L175.878 82.8986L168.998 81.9445ZM183.665 83.6661C183.594 83.7501 183.392 83.9394 183.066 83.8953L178.854 83.3112L182.478 79.0157L183.788 83.0394C183.89 83.3528 183.736 83.5822 183.665 83.6661ZM154.159 29.8867C154.862 29.8867 155.432 29.32 155.432 28.6206V26.6498C155.432 25.9504 154.862 25.3837 154.159 25.3837C153.456 25.3837 152.886 25.9504 152.886 26.6498V28.6206C152.886 29.32 153.456 29.8867 154.159 29.8867ZM178.033 29.8867C178.736 29.8867 179.306 29.32 179.306 28.6206V26.6498C179.306 25.9504 178.736 25.3837 178.033 25.3837C177.33 25.3837 176.76 25.9504 176.76 26.6498V28.6206C176.76 29.32 177.329 29.8867 178.033 29.8867ZM181.194 37.5225C182.609 37.8961 185.62 39.3941 186.673 40.1668C186.9 40.3338 187.165 40.4143 187.428 40.4143C187.818 40.4143 188.203 40.2364 188.453 39.9001C188.87 39.3376 188.75 38.545 188.185 38.1295C186.902 37.1877 183.598 35.5373 181.848 35.075C181.167 34.8962 180.471 35.2981 180.29 35.9737C180.11 36.6497 180.515 37.343 181.194 37.5225ZM182.827 33.3952C184.279 33.2045 187.636 33.4487 188.905 33.7643C189.009 33.7899 189.113 33.8024 189.215 33.8024C189.785 33.8024 190.304 33.4185 190.449 32.843C190.62 32.1645 190.205 31.4773 189.523 31.3075C187.976 30.9229 184.29 30.6491 182.494 30.8847C181.797 30.9764 181.306 31.6125 181.398 32.3058C181.49 32.9992 182.132 33.4854 182.827 33.3952Z" fill="#151515"/>
</g>
<g clip-path="url(#clip2_145_10498)">
<path d="M204.459 93.127C204.259 92.9283 204.089 92.6934 203.961 92.4254C203.356 91.1633 203.895 89.6525 205.164 89.051C207.884 87.7622 210.691 87.5821 213.283 88.5301C216.43 89.6805 218.968 92.3545 220.827 96.4766C222.69 100.611 225.742 100.496 231.921 99.8761L232.149 99.8532C233.547 99.7132 234.796 100.727 234.936 102.118C235.077 103.509 234.058 104.751 232.659 104.891L232.432 104.914C229.317 105.226 226.375 105.522 223.606 104.881C220.173 104.088 217.744 102.017 216.181 98.5482C214.923 95.7565 213.313 93.9356 211.526 93.2821C209.914 92.6923 208.367 93.1413 207.353 93.6215C206.354 94.0955 205.199 93.8637 204.459 93.127Z" fill="#EDA751"/>
<path opacity="0.2" d="M231.977 104.959L234.923 102.029C234.739 100.685 233.517 99.7166 232.149 99.8535L231.921 99.8764C225.743 100.496 222.691 100.611 220.827 96.4769C220.763 96.3367 220.697 96.2021 220.633 96.0651C219.161 97.4401 217.844 98.7097 216.786 99.7433C218.346 102.498 220.588 104.184 223.606 104.881C226.24 105.49 229.031 105.253 231.977 104.959Z" fill="#A35F00"/>
<path d="M206.963 88.3665C206.361 88.5423 205.76 88.7686 205.164 89.0513C203.895 89.6529 203.356 91.1635 203.961 92.4257C204.089 92.6936 204.259 92.9287 204.458 93.1273C205.199 93.8641 206.354 94.096 207.354 93.6221C207.672 93.4714 208.042 93.3239 208.451 93.2105C208.523 91.5174 207.569 89.4703 206.963 88.3665Z" fill="#FCD79D"/>
<path d="M223.279 92.2297C222.122 91.0788 221.176 89.7795 220.482 88.361C218.836 84.9985 218.788 81.303 220.346 77.9544C221.291 75.9244 223.712 75.0406 225.753 75.9804C227.794 76.9195 228.683 79.3274 227.738 81.3576C227.212 82.487 227.235 83.6505 227.805 84.8157C228.805 86.8573 231.249 88.5097 234.346 89.2348C236.535 89.7477 237.892 91.9282 237.376 94.1058C236.861 96.2832 234.668 97.6327 232.479 97.12C228.783 96.2542 225.605 94.5429 223.279 92.2297Z" fill="#EDA751"/>
<path d="M237.377 94.1055C237.892 91.9279 236.535 89.7475 234.346 89.2345C231.25 88.5096 228.805 86.8571 227.805 84.8154C227.528 84.2479 227.381 83.6807 227.363 83.1179C224.416 83.5271 221.184 82.6033 219.31 81.5268C219.017 83.8207 219.405 86.1618 220.482 88.3606C221.176 89.7793 222.122 91.0786 223.279 92.2293C225.605 94.5425 228.783 96.2539 232.479 97.1194C234.668 97.6324 236.861 96.2828 237.377 94.1055Z" fill="#82C7E6"/>
<path d="M226.636 130.43C226.572 130.366 226.509 130.299 226.448 130.23C224.967 128.546 225.139 125.987 226.832 124.514C231.585 120.379 233.738 117.27 234.707 115.39C235.734 113.4 238.188 112.614 240.19 113.634C242.192 114.655 242.982 117.096 241.955 119.087C240.073 122.737 236.79 126.614 232.195 130.612C230.572 132.024 228.139 131.925 226.636 130.43Z" fill="#EDA751"/>
<path d="M216.746 120.594C215.243 119.099 215.144 116.68 216.564 115.065C220.583 110.496 224.482 107.23 228.152 105.358C230.153 104.338 232.607 105.125 233.634 107.114C234.66 109.105 233.87 111.546 231.868 112.567C229.978 113.531 226.853 115.672 222.694 120.399C221.213 122.083 218.64 122.253 216.948 120.781C216.878 120.72 216.81 120.658 216.746 120.594Z" fill="#EDA751"/>
<path d="M254.242 121.339C252.528 119.635 251.216 117.57 250.369 115.22C249.61 113.114 250.712 110.796 252.829 110.041C254.947 109.286 257.278 110.382 258.037 112.488C259.477 116.485 263.589 118.769 268.27 118.171C270.501 117.886 272.541 119.454 272.828 121.673C273.114 123.892 271.538 125.921 269.307 126.206C265.318 126.716 261.276 125.968 257.926 124.102C256.551 123.336 255.317 122.409 254.242 121.339Z" fill="#EDA751"/>
<path d="M265.972 118.233C262.285 117.952 259.235 115.814 258.037 112.488C257.278 110.382 254.947 109.287 252.829 110.041C250.712 110.796 249.61 113.114 250.369 115.221C251.216 117.57 252.528 119.635 254.242 121.339C255.317 122.409 256.551 123.337 257.926 124.102C260.349 125.452 263.135 126.213 266.001 126.34C264.057 123.151 264.916 120.047 265.972 118.233Z" fill="#82C7E6"/>
<path opacity="0.2" d="M241.955 119.087C242.982 117.096 242.192 114.655 240.19 113.634C238.188 112.613 235.734 113.4 234.707 115.39C233.977 116.806 232.576 118.918 229.899 121.641C232.219 123.416 234.788 124.691 237.449 125.461C239.386 123.277 240.894 121.145 241.955 119.087Z" fill="#A35F00"/>
<path opacity="0.2" d="M233.633 107.115C232.607 105.125 230.153 104.338 228.151 105.359C226.081 106.414 223.938 107.914 221.742 109.841C222.516 112.487 223.798 115.043 225.582 117.35C228.32 114.687 230.444 113.293 231.868 112.567C233.87 111.546 234.66 109.105 233.633 107.115Z" fill="#A35F00"/>
<path d="M229.931 117.317C237.267 124.613 248.74 125.032 255.556 118.253C262.373 111.474 261.951 100.064 254.615 92.7676C247.279 85.4717 235.807 85.0527 228.99 91.8318C222.174 98.6109 222.595 110.021 229.931 117.317Z" fill="#FCD690"/>
<path opacity="0.15" d="M228.122 115.258C226.037 105.258 236.086 99.0058 240.688 96.4781L248.575 88.6345C241.912 85.7027 234.128 86.7222 228.99 91.8324C222.786 98.0029 222.578 108.009 228.122 115.258Z" fill="#C18F00"/>
<path opacity="0.1" d="M234.346 89.2347C232.307 88.7574 230.555 87.8764 229.308 86.7485C227.435 88.2874 225.364 90.0978 223.166 92.1136C223.204 92.152 223.241 92.1919 223.279 92.2301C225.605 94.5433 228.783 96.2547 232.479 97.12C234.668 97.6327 236.861 96.2832 237.377 94.1058C237.892 91.9281 236.535 89.7476 234.346 89.2347Z" fill="#151515"/>
<path d="M251.845 88.3017L226.282 113.726C225.143 114.859 223.217 114.508 222.554 113.047C221.347 110.39 219.887 106.595 218.961 104.053C218.406 102.531 218.793 100.828 219.953 99.6921C225.266 94.4909 237.768 82.6833 242.576 82.6684L251.845 88.3017Z" fill="#82C7E6"/>
<path opacity="0.1" d="M258.037 112.488C257.278 110.382 254.947 109.287 252.829 110.041C250.712 110.796 249.61 113.115 250.369 115.221C251.216 117.57 252.528 119.635 254.242 121.34C254.851 121.946 255.512 122.504 256.22 123.015C257.886 121.193 259.397 119.468 260.708 117.888C261.007 117.527 261.294 117.177 261.57 116.835C259.955 115.835 258.707 114.347 258.037 112.488Z" fill="#151515"/>
<path d="M259.105 95.522L233.542 120.946C232.403 122.079 232.755 123.994 234.224 124.654C236.896 125.854 240.711 127.306 243.267 128.228C244.798 128.779 246.51 128.394 247.652 127.24C252.882 121.957 264.754 109.522 264.77 104.741L259.105 95.522Z" fill="#82C7E6"/>
<path d="M250.822 116.142L248.328 113.662C247.831 113.168 247.831 112.366 248.328 111.872C248.826 111.377 249.631 111.377 250.129 111.872L252.622 114.351C253.119 114.846 253.119 115.647 252.622 116.142C252.125 116.636 251.319 116.636 250.822 116.142Z" fill="white"/>
<path d="M225.247 114.754C226.709 116.208 229.078 116.208 230.54 114.754C232.001 113.301 232.001 110.944 230.54 109.49C229.078 108.037 226.709 108.037 225.247 109.49C223.785 110.944 223.785 113.301 225.247 114.754Z" fill="#DEE2E5"/>
<path opacity="0.1" d="M226.932 113.078C227.463 113.606 228.324 113.606 228.855 113.078C229.386 112.55 229.386 111.694 228.855 111.166C228.324 110.638 227.463 110.638 226.932 111.166C226.401 111.694 226.401 112.55 226.932 113.078Z" fill="#151515"/>
<path d="M255.591 75.7179C260.371 76.1337 265.768 74.2185 267.514 65.1898C269.274 56.0898 265.14 49.2587 260.339 45.4903C259.155 44.5613 257.521 44.4192 256.194 45.1296C250.808 48.0115 245.544 54.0251 245.688 63.2907C245.831 72.4839 250.811 75.302 255.591 75.7179Z" fill="#EDA751"/>
<path d="M255.387 45.5882C250.295 48.6238 245.551 54.4888 245.688 63.2909C245.812 71.2592 249.57 74.4363 253.682 75.413C263.821 61.8447 259.323 51.0989 255.387 45.5882Z" fill="#FF91AB"/>
<path d="M271.758 91.7966C271.34 87.0426 273.265 81.6755 282.344 79.9389C291.494 78.1886 298.362 82.3 302.151 87.0747C303.085 88.2518 303.228 89.877 302.514 91.1976C299.616 96.554 293.57 101.789 284.253 101.646C275.01 101.504 272.176 96.5504 271.758 91.7966Z" fill="#EDA751"/>
<path d="M302.053 91.9999C299.001 97.0644 293.104 101.782 284.253 101.646C276.241 101.523 273.047 97.7849 272.065 93.6955C285.707 83.6113 296.512 88.0852 302.053 91.9999Z" fill="#FF91AB"/>
<path d="M282.996 109.521C272.657 119.804 258.004 114.239 245.515 101.818C233.026 89.397 227.43 74.824 237.77 64.5409C248.109 54.2577 266.615 55.9907 279.104 68.4118C291.594 80.833 293.336 99.238 282.996 109.521Z" fill="#FFDC9C"/>
<path opacity="0.15" d="M264.139 59.2777C254.488 56.2786 244.433 57.9135 237.769 64.5408C228.881 73.3805 231.769 85.3902 240.688 96.4781C234.888 73.5964 248.339 63.9552 264.139 59.2777Z" fill="#C18F00"/>
<path d="M289.542 95.7912C289.896 92.8846 289.773 89.8549 289.183 86.8188L260.596 58.3877C257.544 57.8011 254.497 57.6785 251.575 58.031L289.542 95.7912Z" fill="#495059"/>
<path d="M245.588 79.6716C247.849 81.9203 251.142 82.2912 252.943 80.5C254.744 78.7089 254.371 75.4339 252.11 73.1852C249.849 70.9365 246.556 70.5656 244.755 72.3567C242.954 74.1479 243.327 77.4229 245.588 79.6716Z" fill="#FF91AB"/>
<path d="M267.782 101.744C270.043 103.993 273.336 104.364 275.137 102.573C276.938 100.781 276.565 97.5064 274.304 95.2577C272.043 93.009 268.75 92.6381 266.949 94.4292C265.148 96.2204 265.521 99.4954 267.782 101.744Z" fill="#FF91AB"/>
<path d="M268.649 78.8099C271.811 81.954 276.936 81.954 280.098 78.8099C283.259 75.6659 283.259 70.5683 280.098 67.4243C276.936 64.2802 271.811 64.2802 268.649 67.4243C265.488 70.5683 265.488 75.6659 268.649 78.8099Z" fill="#DEE2E5"/>
<path opacity="0.1" d="M272.133 75.3455C273.37 76.5761 275.377 76.5761 276.614 75.3455C277.851 74.1149 277.851 72.1197 276.614 70.8891C275.377 69.6585 273.37 69.6585 272.133 70.8891C270.896 72.1197 270.896 74.1149 272.133 75.3455Z" fill="#151515"/>
<path d="M268.183 99.9319C267.575 100.283 267.368 101.058 267.721 101.663C268.481 102.965 269.582 106.251 269.783 107.582C269.826 107.86 269.955 108.104 270.141 108.288C270.417 108.563 270.816 108.708 271.232 108.646C271.927 108.541 272.406 107.896 272.301 107.205C272.056 105.59 270.859 101.996 269.923 100.392C269.57 99.7859 268.791 99.5809 268.183 99.9319ZM272.81 93.7879L274.256 92.3498C274.753 91.8553 274.753 91.0538 274.256 90.5592C273.759 90.0647 272.953 90.0647 272.456 90.5592L271.01 91.9973C270.512 92.4919 270.512 93.2933 271.01 93.7879C271.507 94.2823 272.313 94.2824 272.81 93.7879ZM261.189 86.2293C262.329 87.3633 263.907 87.9507 265.519 87.8405C266.22 87.7927 266.75 87.1884 266.702 86.4906C266.654 85.7928 266.046 85.2664 265.345 85.3142C264.467 85.3741 263.609 85.055 262.989 84.4387C262.369 83.8224 262.048 82.9686 262.109 82.096C262.157 81.3983 261.627 80.794 260.926 80.7461C260.224 80.6982 259.617 81.2251 259.569 81.9225C259.458 83.5256 260.049 85.0952 261.189 86.2293ZM271.93 99.8238C273.133 100.74 275.409 103.361 276.105 104.515C276.16 104.606 276.224 104.688 276.297 104.76C276.7 105.161 277.34 105.255 277.851 104.95C278.454 104.59 278.65 103.812 278.288 103.212C277.443 101.812 274.959 98.9427 273.479 97.814C272.921 97.3886 272.122 97.4935 271.694 98.0486C271.266 98.6041 271.374 99.4001 271.93 99.8238ZM274.091 121.512C273.909 120.103 273.186 118.85 272.056 117.981C270.926 117.113 269.524 116.735 268.108 116.916C267.435 117.002 266.775 117.02 266.136 116.977C266.089 116.971 266.041 116.968 265.994 116.967C263.928 116.796 262.097 115.962 260.786 114.578C260.883 114.453 260.98 114.329 261.077 114.204C262.313 114.7 263.538 115.103 264.746 115.41C272.106 117.283 278.728 115.556 283.897 110.416C286.167 108.158 287.927 105.47 289.13 102.485C295.343 101.267 300.602 97.4039 303.635 91.7971C304.592 90.0283 304.402 87.8669 303.151 86.2904C299.341 81.4884 293.738 78.6058 287.679 78.295C286.578 75.9807 285.218 73.7455 283.617 71.6417C283.318 69.7685 282.446 67.9695 280.997 66.5289C279.549 65.0883 277.74 64.2214 275.857 63.9234C273.741 62.3315 271.494 60.9786 269.167 59.8836C268.854 53.8583 265.956 48.2861 261.128 44.4969C259.542 43.2521 257.369 43.0632 255.59 44.0148C249.953 47.0314 246.069 52.2613 244.844 58.44C241.843 59.6365 239.14 61.3874 236.869 63.6455C232.974 67.5192 231.035 72.1268 231.105 77.34C231.11 77.6835 231.252 77.9931 231.478 78.2181C231.712 78.4513 232.038 78.5937 232.395 78.5889C233.098 78.5796 233.661 78.005 233.651 77.3059C233.59 72.8019 235.279 68.8083 238.67 65.436C241.958 62.166 246.279 60.0808 251.122 59.3715L265.011 73.1847C265.028 75.5481 265.94 77.9062 267.749 79.7054C269.558 81.5047 271.929 82.4113 274.305 82.4281L288.194 96.2412C287.481 101.058 285.384 105.356 282.096 108.626C277.535 113.162 271.91 114.619 265.377 112.957C264.01 112.609 262.616 112.125 261.203 111.513C261.197 111.51 261.191 111.507 261.185 111.505C258.014 110.128 254.75 108.098 251.485 105.476C251.481 105.472 251.477 105.469 251.472 105.465C251.021 105.103 250.57 104.73 250.12 104.345C250.102 104.33 250.085 104.314 250.066 104.3C248.846 103.255 247.627 102.128 246.415 100.923C245.199 99.7135 244.063 98.4965 243.009 97.2768C243.006 97.274 243.004 97.2715 243.002 97.2688C238.738 92.3355 235.822 87.3607 234.486 82.6955C234.293 82.0227 233.589 81.6329 232.913 81.8247C232.237 82.0162 231.845 82.7166 232.037 83.3891C232.316 84.3631 232.658 85.3482 233.06 86.3414C232.738 86.5875 232.414 86.8395 232.087 87.0971C230.593 86.3583 229.492 85.3676 228.95 84.2614C228.549 83.4435 228.531 82.6675 228.893 81.8895C229.493 80.6007 229.552 79.1566 229.06 77.8232C228.568 76.4899 227.583 75.4273 226.288 74.8312C223.613 73.5996 220.429 74.7622 219.191 77.4226C217.468 81.1226 217.52 85.2041 219.337 88.9151C220.086 90.4466 221.109 91.863 222.378 93.125C222.802 93.5459 223.254 93.9496 223.731 94.3343C223.136 94.8861 222.555 95.4316 221.991 95.9658C221.99 95.9634 221.989 95.9613 221.988 95.9589C219.984 91.5133 217.203 88.6138 213.722 87.3421C210.801 86.2737 207.652 86.4697 204.616 87.9086C203.695 88.3448 203 89.1119 202.66 90.0677C202.319 91.0238 202.373 92.0547 202.811 92.9701C202.999 93.3622 203.25 93.7164 203.558 94.0226C204.699 95.1571 206.444 95.4554 207.901 94.7649C208.694 94.3893 209.891 94.0332 211.087 94.4709C212.525 94.9965 213.921 96.6283 215.02 99.0664C215.675 100.521 216.485 101.77 217.446 102.799C217.461 103.366 217.564 103.935 217.764 104.485C218.333 106.049 219.072 107.995 219.825 109.867C218.428 111.169 217.012 112.633 215.605 114.232C213.759 116.331 213.865 119.518 215.846 121.489C215.928 121.57 216.016 121.652 216.109 121.734C218.328 123.664 221.711 123.439 223.652 121.233C225.034 119.662 226.395 118.278 227.706 117.105C227.802 117.108 227.899 117.109 227.996 117.107C228.33 117.489 228.675 117.86 229.03 118.213C229.435 118.616 229.856 118.999 230.289 119.367C229.079 120.722 227.641 122.128 225.994 123.561C223.776 125.492 223.55 128.857 225.491 131.064C225.569 131.153 225.652 131.241 225.736 131.325C227.026 132.608 228.863 133.144 230.65 132.758C231.337 132.61 231.774 131.936 231.625 131.253C231.476 130.569 230.798 130.135 230.111 130.284C229.111 130.499 228.079 130.162 227.406 129.396C226.39 128.24 226.508 126.478 227.67 125.467C229.201 124.135 230.564 122.819 231.748 121.538C231.586 122.07 231.549 122.64 231.653 123.203C231.785 123.924 232.136 124.576 232.643 125.08C232.944 125.38 233.301 125.628 233.7 125.807C234.077 125.976 234.48 126.152 234.898 126.33C234.519 126.717 234.129 127.105 233.727 127.492C233.222 127.978 233.209 128.78 233.698 129.282C233.703 129.287 233.708 129.292 233.713 129.297C234.203 129.785 234.998 129.793 235.498 129.311C236.17 128.664 236.815 128.013 237.423 127.367C239.305 128.116 241.262 128.851 242.834 129.417C244.826 130.135 247.074 129.629 248.56 128.128C250.129 126.542 251.944 124.667 253.797 122.67C254.847 123.642 256.024 124.494 257.304 125.206C260.891 127.204 265.211 128.006 269.469 127.462C272.392 127.089 274.466 124.42 274.091 121.512ZM301.152 87.8592C301.674 88.5168 301.823 89.3787 301.577 90.1586C298.879 88.461 295.051 86.7134 290.386 86.3519C290.017 84.5267 289.488 82.7122 288.807 80.9308C293.645 81.5103 298.066 83.9693 301.152 87.8592ZM259.55 46.4844C263.461 49.5533 265.934 53.9502 266.516 58.7613C264.725 58.0847 262.901 57.5587 261.066 57.1918C260.702 52.5515 258.945 48.7448 257.238 46.0614C258.022 45.8169 258.889 45.9653 259.55 46.4844ZM251.462 56.7703C251.438 56.7723 251.415 56.7761 251.391 56.7794C250.123 56.9349 248.884 57.1744 247.682 57.497C249.154 52.2296 252.558 49.0335 255.03 47.327C256.508 49.6285 258.041 52.8617 258.471 56.7804C257.482 56.6646 256.493 56.5941 255.508 56.5736C254.133 56.5451 252.782 56.612 251.462 56.7703ZM254.455 59.1047C254.786 59.0993 255.12 59.0984 255.455 59.1054C256.957 59.1366 258.469 59.2915 259.977 59.562L267.377 66.9222C266.525 67.8728 265.904 68.9563 265.512 70.1014L254.455 59.1046L254.455 59.1047ZM269.32 65.2733L264.884 60.8612C267.245 61.6909 269.554 62.8025 271.75 64.1756C270.903 64.4199 270.084 64.7865 269.32 65.2733ZM269.549 77.9148C266.889 75.2695 266.889 70.965 269.549 68.3197C272.209 65.6744 276.537 65.6744 279.197 68.3198C281.856 70.9651 281.856 75.2694 279.197 77.9147C276.537 80.5601 272.209 80.5602 269.549 77.9148ZM286.696 82.5547L282.26 78.1427C282.749 77.3832 283.118 76.5688 283.364 75.7256C284.744 77.9097 285.862 80.2059 286.696 82.5547ZM277.405 81.9301C278.557 81.5402 279.646 80.922 280.602 80.0747L288.002 87.4349C288.275 88.9345 288.43 90.4384 288.461 91.9321C288.468 92.2655 288.467 92.5969 288.462 92.927L277.405 81.9302L277.405 81.9301ZM290.079 99.6625C290.402 98.4705 290.642 97.2415 290.799 95.9837C290.803 95.9564 290.807 95.9292 290.81 95.9017C290.969 94.5898 291.036 93.2463 291.007 91.8792C290.987 90.8996 290.916 89.9163 290.799 88.9329C294.74 89.3597 297.99 90.8844 300.304 92.3541C298.589 94.8128 295.375 98.199 290.079 99.6625ZM221.502 78.4863C222.15 77.0929 223.818 76.4842 225.219 77.1293C225.897 77.4417 226.413 77.9981 226.67 78.6962C226.928 79.3946 226.897 80.1507 226.583 80.8259C226.412 81.1937 226.285 81.5678 226.203 81.9456C224.227 82.0054 222.18 81.4814 220.718 80.8211C220.887 80.0291 221.148 79.2475 221.502 78.4863ZM217.343 98.0304C215.941 94.9207 214.082 92.8677 211.966 92.0941C209.938 91.3521 208.041 91.8938 206.806 92.4786C206.32 92.7088 205.739 92.6094 205.359 92.2315C205.257 92.1299 205.173 92.0121 205.11 91.8806C204.964 91.5755 204.946 91.2321 205.06 90.9134C205.173 90.5948 205.405 90.3392 205.712 90.194C208.114 89.055 210.581 88.8907 212.844 89.7184C215.657 90.7465 217.952 93.1946 219.665 96.9943C219.795 97.2819 219.931 97.5486 220.074 97.8033C219.725 98.1408 219.386 98.4707 219.061 98.7896C218.761 99.0831 218.502 99.4075 218.283 99.753C217.939 99.2285 217.624 98.6543 217.343 98.0304ZM225.628 92.5981C223.879 91.2528 222.513 89.6181 221.626 87.8066C220.94 86.4051 220.568 84.9396 220.502 83.4714C222.186 84.1045 224.264 84.5403 226.31 84.4751C226.4 84.7751 226.516 85.0739 226.661 85.3698C227.313 86.7004 228.46 87.8859 229.97 88.8169C228.515 90.0313 227.049 91.3146 225.628 92.5981ZM220.158 103.622C219.773 102.568 220.044 101.38 220.847 100.594C224.171 97.3393 228.771 93.0101 233.073 89.5554C233.073 89.5551 233.074 89.5548 233.074 89.5546C233.429 89.2694 233.782 88.9909 234.132 88.7188C235.486 91.4509 237.28 94.2274 239.476 96.9928C239.292 97.7479 239.163 98.4901 239.079 99.2075L230.425 107.815C228.504 106.699 225.992 106.959 224.347 108.595C223.672 109.266 223.23 110.082 223.021 110.943C222.018 108.582 220.931 105.745 220.158 103.622ZM217.787 119.83C216.622 118.81 216.512 117.046 217.522 115.899C218.638 114.629 219.759 113.452 220.868 112.378C221.048 112.794 221.224 113.194 221.394 113.568C221.577 113.971 221.827 114.326 222.127 114.624C222.717 115.211 223.501 115.577 224.345 115.649C224.346 115.649 224.346 115.65 224.347 115.65C224.544 115.846 224.753 116.021 224.972 116.177C223.911 117.192 222.828 118.325 221.736 119.565C220.719 120.721 218.947 120.839 217.787 119.83ZM226.147 113.86C225.184 112.902 225.184 111.343 226.147 110.385C227.11 109.427 228.677 109.427 229.641 110.385C230.604 111.343 230.604 112.902 229.641 113.86C228.677 114.818 227.11 114.818 226.147 113.86ZM232.556 110.283C232.463 110.051 232.353 109.824 232.225 109.606L238.986 102.881C239.072 104.263 239.274 105.381 239.428 106.071C237.76 107.661 235.547 109.397 232.556 110.283ZM233.84 118.859C232.705 118.12 231.645 117.254 230.68 116.271C230.948 116.093 231.204 115.886 231.441 115.65C232.238 114.858 232.71 113.862 232.857 112.829C236.941 111.729 239.786 109.257 241.225 107.869C241.918 108.022 243.047 108.225 244.446 108.311L233.84 118.859ZM246.994 105.777C244.755 105.922 242.86 105.622 241.894 105.419C241.69 104.457 241.388 102.573 241.534 100.347L241.959 99.9244C242.801 100.858 243.685 101.789 244.615 102.713C245.545 103.638 246.48 104.518 247.419 105.354L246.994 105.777ZM243.701 127.037C241.061 126.086 237.322 124.657 234.748 123.5C234.435 123.359 234.219 123.085 234.157 122.749C234.096 122.413 234.2 122.082 234.442 121.841L248.14 108.218C248.86 108.135 249.606 108.007 250.364 107.824C253.146 110.011 255.938 111.793 258.686 113.139C255.098 117.705 250.289 122.772 246.746 126.352C245.955 127.15 244.76 127.419 243.701 127.037ZM258.548 122.998C257.436 122.379 256.417 121.64 255.51 120.798C256.768 119.403 258.012 117.977 259.18 116.568C260.523 117.889 262.223 118.799 264.124 119.236C263.637 120.624 263.274 122.632 263.948 124.857C262.035 124.542 260.199 123.918 258.548 122.998ZM269.145 124.951C268.351 125.052 267.557 125.097 266.766 125.093C265.652 122.812 266.19 120.742 266.733 119.532C267.291 119.534 267.858 119.501 268.432 119.428C269.173 119.333 269.908 119.531 270.499 119.986C271.092 120.44 271.47 121.097 271.565 121.835C271.762 123.357 270.676 124.755 269.145 124.951ZM249.541 74.0063C248.406 72.5339 245.521 70.0634 244.113 69.2235C243.51 68.8637 242.728 69.0581 242.366 69.6576C242.059 70.1663 242.153 70.8029 242.556 71.2041C242.629 71.2761 242.711 71.3403 242.803 71.3948C243.963 72.0873 246.599 74.3513 247.52 75.5471C247.947 76.1009 248.747 76.2072 249.305 75.7816C249.863 75.3561 249.968 74.5613 249.541 74.0063ZM255.389 76.462L256.835 75.024C257.333 74.5294 257.333 73.728 256.835 73.2334C256.338 72.7388 255.532 72.7388 255.035 73.2334L253.589 74.6715C253.092 75.166 253.092 75.9675 253.589 76.462C254.086 76.9566 254.892 76.9566 255.389 76.462ZM246.949 77.543C245.336 76.6117 241.722 75.4214 240.098 75.178C239.403 75.0739 238.755 75.5498 238.65 76.2413C238.587 76.6547 238.733 77.0515 239.009 77.3261C239.195 77.5107 239.44 77.64 239.719 77.6819C241.057 77.8824 244.361 78.9771 245.671 79.7332C246.279 80.0841 247.058 79.8785 247.411 79.2736C247.764 78.669 247.557 77.8939 246.949 77.543ZM277.513 69.9938C275.782 68.2715 272.964 68.2715 271.233 69.9936C269.501 71.7158 269.501 74.5182 271.233 76.2404C272.964 77.9627 275.782 77.9624 277.513 76.2403C279.245 74.5182 279.245 71.7159 277.513 69.9938ZM273.033 74.4499C272.294 73.7149 272.294 72.5191 273.033 71.7841C273.772 71.0493 274.974 71.0493 275.713 71.7842C276.452 72.5191 276.452 73.7149 275.713 74.4498C274.974 75.1849 273.772 75.1849 273.033 74.4499Z" fill="#151515"/>
</g>
<defs>
<clipPath id="clip0_145_10498">
<rect width="86.6716" height="86.6716" fill="white" transform="matrix(0.709037 -0.705171 0.709037 0.705171 0 94.8816)"/>
</clipPath>
<clipPath id="clip1_145_10498">
<rect width="86.9087" height="86.4348" fill="white" transform="translate(112.546)"/>
</clipPath>
<clipPath id="clip2_145_10498">
<rect width="86.6716" height="86.6716" fill="white" transform="matrix(0.709037 0.705171 -0.709037 0.705171 250.547 33.7634)"/>
</clipPath>
</defs>
</svg>
