<svg width="80" height="120" viewBox="0 0 80 120" fill="none" xmlns="http://www.w3.org/2000/svg">
<g clip-path="url(#clip0_717_21347)">
<rect width="80" height="120" rx="6" fill="#7694E4"/>
<g clip-path="url(#clip1_717_21347)">
<path d="M56.5701 42.5123C56.587 42.4411 58.2466 35.3597 56.2695 33.2479C54.696 31.5693 50.991 34.382 49.8256 35.3431C51.2049 36.0477 51.9698 36.8246 52.0047 36.8604C52.1221 36.9813 52.1191 37.1744 51.9982 37.2917C51.8771 37.4092 51.6841 37.406 51.5671 37.2853C51.5544 37.2725 50.6805 36.3885 49.1461 35.6912C48.9744 35.6912 45.6464 33.6869 40.7331 35.831C41.423 36.4268 41.8457 36.8336 41.8661 36.8533C42.0628 37.0432 41.9275 37.3778 41.6543 37.3778C41.4302 37.3778 41.5341 37.3 39.9741 35.9851C39.9741 35.9851 39.9741 35.9851 39.974 35.9851C38.7972 34.9939 37.0216 33.6184 35.247 32.6931C32.4192 31.2191 28.3769 37.3348 33.5987 45.0176C33.7372 45.2213 33.5885 45.494 33.3468 45.494C33.2492 45.494 33.1533 45.4473 33.0944 45.3604C32.8099 44.9418 32.547 44.5191 32.3063 44.0955C32.4449 48.0791 33.4903 52.3785 35.424 55.9384C35.424 55.9385 35.4241 55.9386 35.4242 55.9387C36.0868 57.1619 36.8563 58.3042 37.7114 59.3334C37.8769 59.5327 37.7327 59.8333 37.4769 59.8333C37.3893 59.8333 37.3024 59.7958 37.2422 59.7233C36.3851 58.6914 35.6126 57.5497 34.9436 56.3292C34.2401 56.0673 32.2018 55.4776 29.7585 56.283C29.6969 56.3102 28.7551 56.5786 27.5962 57.34C27.5446 57.3739 27.4865 57.3902 27.4289 57.3902C27.1276 57.3902 27.0084 56.9965 27.2612 56.8303C27.6326 56.5863 28.015 56.368 28.4024 56.1791C27.6843 55.273 26.5056 52.6996 27.9233 46.2514C29.172 40.5706 28.7994 35.7758 26.9261 33.4256C26.1799 32.4895 25.2335 32.0099 24.113 32.0003C20.6415 31.9689 20.7567 34.4754 23.0951 35.3033C22.7189 34.652 22.3889 34.3919 22.3848 34.3888C22.2498 34.2883 22.2217 34.0971 22.3224 33.9621C22.4229 33.8269 22.6141 33.7991 22.7491 33.8996C22.7755 33.9191 23.4002 34.3943 23.9536 35.6516C23.9536 35.6518 23.9538 35.6519 23.9539 35.652C26.9485 42.4565 20.9877 51.7892 25.2625 58.3226C25.3325 58.4296 25.3275 58.5671 25.2548 58.668C25.0779 58.9449 23.8287 60.9681 22.8676 64.3356C22.1423 66.8853 21.768 69.5477 21.7557 72.2485C21.7201 80.596 21.8904 84.0365 23.7492 84.4459C25.5022 84.8319 28.3729 84.5782 27.9606 82.8332C27.1602 79.4922 25.8897 73.5607 27.891 70.7319C28.3181 70.128 28.885 69.6973 29.5753 69.4658C28.183 68.8446 26.8954 68.9481 26.8803 68.9494C26.713 68.9621 26.5644 68.8406 26.5493 68.673C26.5343 68.5054 26.6575 68.3573 26.825 68.3419C26.9048 68.3346 28.8005 68.1756 30.6122 69.3317C30.6123 69.3317 30.6124 69.3317 30.6124 69.3318C32.2556 70.3787 33.2732 72.1317 33.6369 74.5423C34.5874 80.8431 33.6589 87.0378 36.5042 87.7246C38.1273 88.1164 39.083 88.0906 39.5112 87.6427C39.9357 87.199 39.9284 86.2431 39.4887 84.7203C39.0939 83.3518 37.3101 76.3928 40.991 73.7787C41.9749 73.0798 43.2706 72.7642 44.8388 72.8426C45.007 72.8509 45.1366 72.9941 45.1283 73.1624C45.12 73.3306 44.9761 73.4587 44.8085 73.4519C43.5007 73.387 42.4158 73.6143 41.5746 74.1258C42.008 74.9299 42.8486 76.8864 42.6791 79.72C42.6396 80.3795 42.5705 81.0304 42.5037 81.6598C42.1721 84.7862 42.0978 86.5673 44.4241 86.8174C45.8905 86.9749 46.7553 86.9918 47.126 86.6296C47.5341 86.2308 47.5281 85.2359 47.3647 83.2927C47.0373 79.3998 48.8912 70.4435 49.3705 65.8049C49.617 63.4123 50.3818 61.7258 51.0361 60.6772C49.5941 61.1257 48.0289 61.3153 47.266 61.2906C47.0976 61.2872 46.9641 61.1479 46.9675 60.9795C46.971 60.8112 47.1104 60.6745 47.2786 60.6809C47.2994 60.6797 49.3727 60.7108 51.7179 59.7928C51.718 59.7928 51.7181 59.7928 51.7182 59.7927C55.061 58.4862 57.2928 55.9701 58.2132 52.317C59.0383 49.0345 58.4978 45.8131 56.6069 42.7425C56.5646 42.6742 56.5513 42.5911 56.5701 42.5123V42.5123Z" fill="white" fill-opacity="0.4"/>
<path d="M33.0337 74.6336C32.7042 72.4503 31.8098 70.86 30.3743 69.905C29.717 69.9915 29.1814 70.2424 28.7495 70.6628C29.2045 72.2842 29.5229 74.8556 29.3495 77.8117C29.2069 80.2708 29.0943 82.213 30.0804 83.1073C30.7503 83.7147 31.9336 83.879 33.7873 83.6206C33.5067 81.1247 33.5273 77.9061 33.0337 74.6336Z" fill="white" fill-opacity="0.4"/>
</g>
<g clip-path="url(#clip2_717_21347)">
<path d="M64.9253 10.4598C64.8841 10.5313 64.805 10.5723 64.7228 10.5646C64.6401 10.5587 64.569 10.5034 64.5429 10.4246C64.3124 9.76554 63.7252 9.06827 62.9116 8.92056C62.8611 8.91139 62.8096 8.90446 62.7575 8.89971C62.2002 8.84736 61.645 9.01882 61.2141 9.37621C60.7834 9.73361 60.5124 10.2477 60.461 10.805C60.2326 13.2715 63.3407 15.9545 64.1005 16.5709L64.0953 16.559C64.0844 16.5356 64.0734 16.5121 64.0627 16.4872C64.0357 16.4278 64.0085 16.3684 63.9819 16.3073C63.9679 16.2752 63.9542 16.2421 63.9402 16.2092C63.9174 16.1553 63.8954 16.1016 63.8719 16.0466C63.8572 16.0095 63.8427 15.9712 63.8281 15.9334C63.8077 15.8814 63.7872 15.8293 63.7673 15.7764C63.7531 15.7363 63.7379 15.6951 63.7232 15.6545C63.7047 15.6027 63.6862 15.551 63.6683 15.4986C63.6545 15.456 63.6408 15.4132 63.6272 15.3701C63.6104 15.3184 63.5941 15.2667 63.5783 15.2143C63.5648 15.1702 63.5514 15.1257 63.5395 15.0813C63.5247 15.0293 63.5103 14.9773 63.4965 14.9249C63.4845 14.8797 63.4734 14.8349 63.4623 14.7886C63.4503 14.7362 63.4383 14.6838 63.4263 14.6319C63.4164 14.5862 63.4069 14.5403 63.3978 14.4943C63.3873 14.4414 63.3779 14.3882 63.3686 14.335C63.3607 14.2889 63.3532 14.2429 63.3464 14.1966C63.3385 14.1432 63.3318 14.0902 63.3255 14.0366C63.3198 13.9906 63.3144 13.9447 63.3102 13.8987C63.3051 13.8448 63.3016 13.7909 63.2981 13.7369C63.2954 13.6918 63.293 13.6465 63.2907 13.6012C63.2886 13.5466 63.2891 13.4922 63.2887 13.4375C63.2888 13.3934 63.2882 13.3491 63.2896 13.3052C63.2911 13.2494 63.2953 13.1944 63.2983 13.1389C63.3011 13.0966 63.3032 13.054 63.3074 13.0118C63.3132 12.9541 63.322 12.8971 63.3305 12.8399C63.3363 12.8009 63.3406 12.7615 63.3477 12.7227C63.359 12.6604 63.3741 12.5975 63.389 12.5354C63.3966 12.5031 63.4025 12.4704 63.4111 12.4385C63.4363 12.3449 63.4652 12.2523 63.499 12.161C63.9864 10.851 65.4412 10.1816 66.7531 10.6637C67.6208 10.9844 68.1277 11.7951 68.2988 12.569C68.3693 12.5159 68.4433 12.4665 68.519 12.4193C68.5432 12.4044 68.567 12.3911 68.5911 12.3768C68.63 12.354 68.6682 12.3303 68.7083 12.3093C68.792 12.0754 68.8464 11.832 68.87 11.5847C68.9752 10.4236 68.1216 9.39618 66.9609 9.28676C66.068 9.20469 65.295 9.81675 64.9253 10.4598V10.4598Z" fill="white" fill-opacity="0.4"/>
<path d="M64.6077 16.6551C64.9966 17.4336 65.4499 18.1782 65.9628 18.8812C66.7536 18.6978 70.9294 17.6241 71.8126 15.2355C72.2141 14.1418 71.6566 12.9292 70.5651 12.5219C70.0384 12.3425 69.461 12.3883 68.969 12.6484C68.8432 12.7097 68.7226 12.781 68.6084 12.8619C68.4966 12.941 68.3918 13.0297 68.2951 13.1268C68.2369 13.1855 68.1499 13.2048 68.0723 13.1762C67.9947 13.1476 67.941 13.0764 67.9347 12.994C67.8794 12.2544 67.447 11.3693 66.6053 11.0576C65.5121 10.6549 64.2991 11.2135 63.8944 12.306C63.3883 13.675 63.9981 15.4143 64.5995 16.633C64.6027 16.6401 64.6054 16.6475 64.6077 16.6551V16.6551Z" fill="white" fill-opacity="0.4"/>
<path d="M61.3103 15.5609C61.2937 15.5385 61.2732 15.5194 61.2496 15.5048C61.2029 15.4746 61.1461 15.4643 61.0917 15.4761C61.0362 15.4855 60.9876 15.5192 60.9592 15.5679C60.9121 15.6392 60.9131 15.732 60.9617 15.8022C61.0104 15.8726 61.097 15.9061 61.1803 15.887C61.2073 15.881 61.2331 15.8704 61.2567 15.8558C61.327 15.8071 61.3605 15.7206 61.3414 15.6373C61.336 15.6101 61.3254 15.5841 61.3103 15.5609Z" fill="white" fill-opacity="0.4"/>
<path d="M72.1429 10.5997C72.198 10.6102 72.2552 10.5982 72.3013 10.5662C72.3475 10.5343 72.3788 10.485 72.3884 10.4297C72.3975 10.3746 72.3856 10.3179 72.3549 10.2713C72.3464 10.26 72.3367 10.2496 72.3261 10.2403C72.317 10.2301 72.3062 10.2217 72.2942 10.2152C72.2829 10.2066 72.2703 10.2 72.2569 10.1956C72.2314 10.1844 72.2037 10.1794 72.176 10.1809C72.1626 10.1807 72.1492 10.1827 72.1363 10.1866C72.1222 10.1887 72.1085 10.1927 72.0954 10.1984C72.0832 10.2041 72.0714 10.2106 72.0599 10.2177C72.0146 10.2506 71.9836 10.2993 71.9729 10.3543C71.9623 10.4094 71.9744 10.4665 72.0063 10.5126C72.0384 10.5588 72.0876 10.5902 72.1429 10.5997V10.5997Z" fill="white" fill-opacity="0.4"/>
<path d="M70.9488 11.6079C70.9973 11.6786 71.0838 11.7129 71.1677 11.6947C71.2515 11.6765 71.3159 11.6094 71.3308 11.5249C71.34 11.4698 71.3281 11.4132 71.2974 11.3665C71.2884 11.3563 71.2796 11.3461 71.2686 11.3355C71.2595 11.3254 71.2486 11.3169 71.2367 11.3105C71.2254 11.3018 71.2128 11.2952 71.1993 11.2908C71.1611 11.275 71.1189 11.2719 71.0788 11.2818C71.0516 11.2872 71.0256 11.2978 71.0023 11.313C70.9571 11.3458 70.926 11.3945 70.9154 11.4495C70.9048 11.5047 70.9168 11.5617 70.9488 11.6079Z" fill="white" fill-opacity="0.4"/>
<path d="M62.4064 18.9781C62.3898 18.9557 62.3693 18.9367 62.3457 18.9221C62.2743 18.8755 62.1818 18.8765 62.1114 18.9246C62.0894 18.9414 62.0704 18.962 62.0553 18.9852C62.0401 19.0082 62.0297 19.034 62.0244 19.0611C62.0187 19.0882 62.0196 19.1163 62.0267 19.143C62.0327 19.1701 62.0432 19.1959 62.0578 19.2195C62.1252 19.3147 62.2563 19.3385 62.3528 19.2731C62.3748 19.2561 62.3937 19.2356 62.4089 19.2124C62.4401 19.1661 62.4505 19.1088 62.4375 19.0546C62.4316 19.0275 62.421 19.0016 62.4064 18.9781Z" fill="white" fill-opacity="0.4"/>
<path d="M60.9099 16.9277L60.7022 16.89L60.7399 16.6823C60.7607 16.5676 60.6846 16.4577 60.5699 16.4369C60.4551 16.416 60.3453 16.4922 60.3245 16.6069L60.2868 16.8146L60.0791 16.7769C59.9643 16.756 59.8545 16.8321 59.8336 16.9468C59.8128 17.0616 59.8888 17.1714 60.0036 17.1923L60.2114 17.23L60.1736 17.4377C60.1528 17.5524 60.2288 17.6623 60.3436 17.6831C60.4583 17.7039 60.5682 17.6278 60.5891 17.5131L60.6268 17.3054L60.8345 17.3431C60.9492 17.3639 61.0591 17.2878 61.0799 17.1731C61.1007 17.0584 61.0246 16.9485 60.9099 16.9277Z" fill="white" fill-opacity="0.4"/>
<path d="M70.1789 9.59925L70.3866 9.63696L70.3489 9.84466C70.3281 9.95937 70.4041 10.0692 70.5189 10.0901C70.6336 10.1109 70.7435 10.0348 70.7643 9.92008L70.8021 9.71238L71.0098 9.75009C71.1245 9.77091 71.2344 9.6948 71.2552 9.58009C71.276 9.46539 71.1999 9.3555 71.0852 9.33467L70.8775 9.29696L70.9152 9.08926C70.936 8.97455 70.8599 8.86467 70.7452 8.84384C70.6304 8.823 70.5206 8.89913 70.4998 9.01384L70.4621 9.22155L70.2544 9.18384C70.1396 9.16299 70.0298 9.23913 70.0089 9.35383C69.9881 9.46854 70.0641 9.5784 70.1789 9.59925Z" fill="white" fill-opacity="0.4"/>
</g>
<g clip-path="url(#clip3_717_21347)">
<path d="M11.7565 103.053C11.7431 103.135 11.6834 103.201 11.6037 103.222C11.5242 103.246 11.4383 103.219 11.3861 103.155C10.9387 102.619 10.1438 102.172 9.33022 102.32C9.27971 102.329 9.22912 102.341 9.17863 102.355C8.63853 102.502 8.17899 102.857 7.90129 103.343C7.62369 103.829 7.55069 104.406 7.69846 104.946C8.35161 107.335 12.2045 108.754 13.1325 109.064L13.1235 109.055C13.105 109.037 13.0864 109.019 13.0677 108.999C13.0216 108.953 12.9752 108.907 12.9288 108.859C12.9044 108.834 12.88 108.808 12.8553 108.782C12.815 108.74 12.7755 108.697 12.7342 108.654C12.7074 108.624 12.6804 108.593 12.6534 108.563C12.616 108.522 12.5785 108.48 12.5413 108.438C12.5139 108.405 12.4852 108.372 12.4571 108.339C12.4216 108.297 12.3861 108.255 12.3509 108.212C12.3231 108.177 12.2952 108.142 12.2673 108.107C12.2334 108.064 12.2 108.021 12.1667 107.978C12.1386 107.941 12.1104 107.904 12.0837 107.867C12.0515 107.823 12.0198 107.78 11.9884 107.736C11.9613 107.698 11.9351 107.659 11.9085 107.62C11.8789 107.575 11.8493 107.53 11.8197 107.486C11.7944 107.447 11.7694 107.407 11.7447 107.367C11.7163 107.321 11.6888 107.275 11.6614 107.228C11.6378 107.188 11.6145 107.148 11.5919 107.107C11.5657 107.059 11.5408 107.012 11.5161 106.964C11.4946 106.923 11.4734 106.882 11.4533 106.84C11.4296 106.792 11.4073 106.743 11.3851 106.693C11.3667 106.652 11.3486 106.61 11.3305 106.569C11.3093 106.518 11.2906 106.467 11.2711 106.416C11.2556 106.375 11.2395 106.334 11.2254 106.292C11.2072 106.239 11.1918 106.186 11.1751 106.133C11.1628 106.093 11.1499 106.052 11.139 106.011C11.1241 105.955 11.1123 105.899 11.1001 105.842C11.0918 105.803 11.0821 105.765 11.075 105.726C11.0637 105.664 11.0557 105.6 11.0479 105.536C11.0436 105.503 11.0376 105.471 11.0345 105.438C11.0251 105.341 11.0197 105.245 11.0192 105.147C11.015 103.749 12.1417 102.611 13.5393 102.602C14.4643 102.597 15.2239 103.178 15.6561 103.842C15.7034 103.767 15.7554 103.695 15.8097 103.624C15.8271 103.602 15.8447 103.581 15.8622 103.559C15.8906 103.524 15.9181 103.489 15.9482 103.455C15.9444 103.206 15.9097 102.96 15.8449 102.72C15.5352 101.596 14.3749 100.934 13.2498 101.239C12.3851 101.477 11.8766 102.321 11.7565 103.053V103.053Z" fill="white" fill-opacity="0.4"/>
<path d="M13.6371 108.965C14.2748 109.557 14.961 110.095 15.6882 110.573C16.364 110.123 19.896 107.65 19.8832 105.103C19.8746 103.938 18.9264 102.999 17.7614 103.001C17.2052 103.019 16.6808 103.264 16.3117 103.681C16.2154 103.782 16.1276 103.892 16.0491 104.007C15.9723 104.121 15.9053 104.241 15.8489 104.366C15.815 104.441 15.7404 104.49 15.6577 104.49C15.575 104.491 15.4997 104.443 15.4648 104.368C15.1531 103.695 14.4371 103.018 13.5396 103.022C12.3746 103.03 11.4354 103.979 11.4405 105.144C11.448 106.604 12.6303 108.018 13.6216 108.947C13.6271 108.953 13.6323 108.959 13.6371 108.965V108.965Z" fill="white" fill-opacity="0.4"/>
<path d="M10.1653 109.099C10.1419 109.084 10.116 109.074 10.0889 109.068C10.0345 109.056 9.97774 109.067 9.93094 109.097C9.88224 109.125 9.84862 109.174 9.83914 109.229C9.82011 109.313 9.85362 109.399 9.92384 109.448C9.99419 109.497 10.087 109.498 10.1582 109.45C10.1815 109.435 10.2019 109.416 10.2189 109.394C10.2675 109.324 10.2685 109.231 10.2214 109.16C10.2067 109.136 10.1877 109.116 10.1653 109.099Z" fill="white" fill-opacity="0.4"/>
<path d="M18.5625 100.647C18.6178 100.638 18.6671 100.606 18.6991 100.56C18.731 100.514 18.7431 100.457 18.7325 100.402C18.7217 100.347 18.6907 100.298 18.6455 100.265C18.6336 100.258 18.6209 100.251 18.6077 100.246C18.5956 100.24 18.5825 100.236 18.569 100.234C18.5554 100.23 18.5413 100.228 18.5271 100.229C18.4994 100.227 18.4717 100.232 18.4463 100.243C18.4337 100.248 18.4218 100.255 18.4111 100.263C18.3987 100.27 18.3872 100.278 18.377 100.288C18.3675 100.298 18.3588 100.308 18.3505 100.319C18.3197 100.365 18.3077 100.422 18.3171 100.477C18.3265 100.532 18.3579 100.582 18.404 100.614C18.4503 100.646 18.5074 100.658 18.5625 100.647V100.647Z" fill="white" fill-opacity="0.4"/>
<path d="M17.7995 102.011C17.8698 102.06 17.9628 102.061 18.0349 102.015C18.1069 101.968 18.1437 101.883 18.128 101.799C18.1172 101.744 18.0861 101.695 18.0409 101.662C18.029 101.656 18.0171 101.649 18.0031 101.643C17.991 101.637 17.9779 101.633 17.9645 101.631C17.9508 101.627 17.9367 101.625 17.9225 101.626C17.8812 101.624 17.8407 101.636 17.8066 101.66C17.783 101.674 17.7624 101.693 17.7459 101.716C17.7151 101.762 17.7032 101.819 17.7125 101.874C17.722 101.929 17.7533 101.979 17.7995 102.011Z" fill="white" fill-opacity="0.4"/>
<path d="M12.3925 111.913C12.3691 111.898 12.3432 111.888 12.316 111.882C12.2327 111.864 12.1465 111.897 12.0975 111.967C12.0829 111.99 12.0723 112.016 12.0663 112.043C12.0602 112.07 12.0595 112.098 12.0641 112.125C12.0682 112.153 12.0789 112.179 12.0949 112.201C12.1102 112.224 12.1291 112.245 12.151 112.262C12.2475 112.327 12.3787 112.303 12.446 112.208C12.4606 112.185 12.4711 112.159 12.4772 112.132C12.4902 112.077 12.4798 112.02 12.4485 111.974C12.4334 111.951 12.4144 111.93 12.3925 111.913Z" fill="white" fill-opacity="0.4"/>
<path d="M10.2712 110.52L10.0635 110.558L10.0258 110.35C10.0049 110.235 9.89505 110.159 9.78035 110.18C9.66554 110.201 9.58952 110.311 9.61035 110.425L9.64806 110.633L9.44035 110.671C9.32554 110.692 9.24953 110.801 9.27035 110.916C9.29118 111.031 9.40096 111.107 9.51577 111.086L9.72348 111.048L9.76119 111.256C9.78201 111.371 9.89179 111.447 10.0066 111.426C10.1213 111.405 10.1974 111.295 10.1766 111.181L10.1389 110.973L10.3466 110.935C10.4613 110.914 10.5374 110.805 10.5166 110.69C10.4958 110.575 10.3859 110.499 10.2712 110.52Z" fill="white" fill-opacity="0.4"/>
<path d="M16.3722 100.401L16.5799 100.363L16.6176 100.571C16.6385 100.686 16.7482 100.762 16.863 100.741C16.9778 100.72 17.0539 100.61 17.033 100.496L16.9953 100.288L17.203 100.25C17.3177 100.229 17.3939 100.119 17.373 100.005C17.3522 99.8901 17.2423 99.814 17.1276 99.8348L16.9199 99.8725L16.8822 99.6648C16.8614 99.5501 16.7515 99.474 16.6368 99.4948C16.522 99.5156 16.446 99.6255 16.4668 99.7402L16.5045 99.9479L16.2968 99.9856C16.182 100.006 16.106 100.116 16.1268 100.231C16.1476 100.346 16.2574 100.422 16.3722 100.401Z" fill="white" fill-opacity="0.4"/>
</g>
</g>
<defs>
<clipPath id="clip0_717_21347">
<rect width="80" height="120" fill="white"/>
</clipPath>
<clipPath id="clip1_717_21347">
<rect width="56" height="56" fill="white" transform="translate(12 32)"/>
</clipPath>
<clipPath id="clip2_717_21347">
<rect width="12" height="12" fill="white" transform="translate(61.1436 7) rotate(10.2902)"/>
</clipPath>
<clipPath id="clip3_717_21347">
<rect width="12" height="12" fill="white" transform="translate(7 101.144) rotate(-10.29)"/>
</clipPath>
</defs>
</svg>
