<svg width="66" height="66" viewBox="0 0 66 66" fill="none" xmlns="http://www.w3.org/2000/svg">
<path d="M13.9363 17.0508C17.417 17.0508 20.2388 14.2291 20.2388 10.7483C20.2388 7.26752 17.417 4.4458 13.9363 4.4458C10.4555 4.4458 7.63379 7.26752 7.63379 10.7483C7.63379 14.2291 10.4555 17.0508 13.9363 17.0508Z" fill="#F5D141"/>
<path d="M50.6122 56.3195C48.0868 56.3195 45.3282 55.1437 42.841 50.3817C42.425 49.5854 42.7333 48.6026 43.5297 48.1868C44.3262 47.7705 45.309 48.0791 45.7246 48.8755C46.9564 51.2335 48.2196 52.5633 49.5865 52.9407C50.7869 53.2725 52.157 52.9068 53.6072 52.52C55.7146 51.9579 58.3368 51.2586 60.9321 52.8311C61.7003 53.2968 61.9458 54.2971 61.4802 55.0655C61.0146 55.8339 60.0142 56.0792 59.2458 55.6136C57.904 54.8004 56.5477 55.1029 54.4458 55.6635C53.2913 55.9714 51.9862 56.3194 50.6122 56.3195Z" fill="#EDA751"/>
<path d="M61.4805 55.0654C61.9461 54.297 61.7007 53.2967 60.9324 52.8311C60.528 52.5861 60.123 52.3963 59.7194 52.2524C59.2026 52.8338 58.5355 53.8554 58.4233 55.2518C58.7022 55.3321 58.9747 55.4491 59.2462 55.6135C60.0146 56.0792 61.0149 55.8337 61.4805 55.0654Z" fill="#FCD79D"/>
<path d="M42.6538 65.0331C41.3515 65.0331 40.2269 64.0574 40.072 62.7323C39.7416 59.9061 39.7537 56.5104 40.1046 53.6483C40.2796 52.2215 41.5775 51.2066 43.0048 51.3817C44.4316 51.5568 45.4463 52.8552 45.2714 54.282C44.9725 56.7193 44.9612 59.7258 45.242 62.1278C45.4091 63.5556 44.3868 64.8483 42.9591 65.0151C42.8567 65.0273 42.7546 65.0331 42.6538 65.0331Z" fill="#EDA751"/>
<path d="M34.5888 65.0331C33.2864 65.0331 32.1618 64.0574 32.007 62.7323C31.6766 59.9061 31.6888 56.5104 32.0396 53.6483C32.2146 52.2215 33.5129 51.2066 34.9399 51.3817C36.3666 51.5568 37.3814 52.8552 37.2065 54.282C36.9075 56.7193 36.8963 59.7258 37.1771 62.1278C37.344 63.5556 36.3219 64.8483 34.8941 65.0151C34.7917 65.0273 34.6897 65.0331 34.5888 65.0331Z" fill="#EDA751"/>
<path d="M25.7263 58.4991C25.334 58.4991 24.9358 58.4101 24.5612 58.2222C23.2764 57.5777 22.7572 56.0135 23.402 54.7287C24.6389 52.2636 24.9487 50.3291 25.2221 48.6226C25.5161 46.7867 25.8202 44.8883 27.2739 43.261C28.2315 42.1888 29.877 42.0962 30.9489 43.0539C32.0208 44.0116 32.1136 45.6569 31.1559 46.7289C30.7382 47.1965 30.5964 47.982 30.3619 49.4459C30.0622 51.3172 29.6518 53.8801 28.0546 57.0631C27.5981 57.9733 26.6797 58.4991 25.7263 58.4991Z" fill="#EDA751"/>
<path opacity="0.2" d="M49.5866 52.9407C48.2197 52.5632 46.9566 51.2334 45.7246 48.8755C45.3089 48.0791 44.3261 47.7706 43.5297 48.1867C42.7333 48.6027 42.425 49.5855 42.841 50.3816C44.7443 54.0254 46.8062 55.5682 48.8011 56.0924C49.7721 55.1892 50.6083 54.158 51.2796 53.0286C50.6871 53.0974 50.12 53.0881 49.5866 52.9407Z" fill="#C18F00"/>
<path opacity="0.2" d="M43.0046 51.3817C41.5772 51.2066 40.2794 52.2216 40.1044 53.6483C39.8616 55.628 39.7813 57.863 39.864 59.9884C41.709 59.839 43.4562 59.3632 45.0403 58.6225C45.03 57.1336 45.1068 55.6218 45.2712 54.282C45.4461 52.8552 44.4312 51.5567 43.0046 51.3817Z" fill="#A35F00"/>
<path opacity="0.2" d="M34.9395 51.3817C33.5125 51.2066 32.214 52.2216 32.0392 53.6483C31.8555 55.1463 31.7657 56.7905 31.7681 58.4228C33.3613 59.2283 35.1315 59.7614 37.0088 59.9564C36.9266 58.0598 36.9923 56.0257 37.2062 54.282C37.381 52.8552 36.3662 51.5567 34.9395 51.3817Z" fill="#A35F00"/>
<path opacity="0.2" d="M30.9486 43.0539C29.8768 42.0962 28.2313 42.1888 27.2737 43.261C25.8199 44.8881 25.5159 46.7865 25.2219 48.6226C25.1176 49.2737 25.0075 49.9581 24.8433 50.6923C25.5833 52.7818 26.8461 54.648 28.4849 56.1535C29.7274 53.3898 30.0913 51.1352 30.3619 49.4459C30.5963 47.9821 30.7381 47.1966 31.1558 46.729C32.1134 45.6569 32.0206 44.0114 30.9486 43.0539Z" fill="#A35F00"/>
<path d="M38.61 57.5374C45.2402 57.5374 50.6151 52.5429 50.6151 46.3819C50.6151 40.2208 45.2402 35.2263 38.61 35.2263C31.9798 35.2263 26.605 40.2208 26.605 46.3819C26.605 52.5429 31.9798 57.5374 38.61 57.5374Z" fill="#FCD690"/>
<path opacity="0.15" d="M36.8566 57.4186C31.3708 53.817 33.0709 46.4352 34.0023 43.2069V36.0789C29.659 37.7579 26.605 41.7384 26.605 46.3822C26.6049 51.9896 31.0577 56.6301 36.8566 57.4186Z" fill="#C17A00"/>
<path d="M31.3043 27.0394C33.6534 25.0683 35.2218 21.7594 31.9084 16.8679C28.5688 11.9377 23.5968 10.7019 19.715 11.1593C18.758 11.2721 17.955 11.9459 17.6779 12.8687C16.5534 16.612 16.9072 21.7231 21.1825 25.8681C25.4243 29.9804 28.9553 29.0105 31.3043 27.0394Z" fill="#EDA751"/>
<path d="M17.5217 13.4414C16.5999 17.1219 17.121 21.9305 21.1825 25.868C24.8592 29.4325 28.0011 29.1778 30.303 27.7633C28.7199 17.0165 21.8043 14.1666 17.5217 13.4414Z" fill="#FF91AB"/>
<path d="M45.9158 27.0394C43.5668 25.0683 41.9984 21.7594 45.3118 16.8679C48.6514 11.9377 53.6234 10.7019 57.5051 11.1593C58.4621 11.2721 59.2651 11.9459 59.5423 12.8687C60.6667 16.612 60.313 21.7231 56.0377 25.8681C51.7959 29.9804 48.2649 29.0105 45.9158 27.0394Z" fill="#EDA751"/>
<path d="M59.6983 13.4414C60.6201 17.1219 60.0989 21.9305 56.0375 25.868C52.3608 29.4325 49.2189 29.1778 46.917 27.7633C48.5001 17.0165 55.4157 14.1666 59.6983 13.4414Z" fill="#FF91AB"/>
<path d="M59.0479 30.0145C59.0479 39.3593 49.8975 43.4522 38.61 43.4522C27.3224 43.4522 18.1719 39.3593 18.1719 30.0145C18.1719 20.6697 27.3223 13.0942 38.6098 13.0942C49.8974 13.0942 59.0479 20.6697 59.0479 30.0145Z" fill="#FFDC9C"/>
<path opacity="0.15" d="M27.697 15.7065C21.9731 18.705 18.1719 23.992 18.1719 30.0144C18.1719 38.0474 24.9338 42.1996 34.0023 43.2069C20.9846 35.4311 22.6824 24.9719 27.697 15.7065Z" fill="#C17A00"/>
<path d="M25.4549 34.8887C27.4986 34.8887 29.1554 33.5693 29.1554 31.9418C29.1554 30.3143 27.4986 28.9949 25.4549 28.9949C23.4112 28.9949 21.7544 30.3143 21.7544 31.9418C21.7544 33.5693 23.4112 34.8887 25.4549 34.8887Z" fill="#FF91AB"/>
<path d="M45.5125 34.8887C47.5563 34.8887 49.213 33.5693 49.213 31.9418C49.213 30.3143 47.5563 28.9949 45.5125 28.9949C43.4688 28.9949 41.812 30.3143 41.812 31.9418C41.812 33.5693 43.4688 34.8887 45.5125 34.8887Z" fill="#FF91AB"/>
<path d="M39.1664 32.6767C39.1664 30.643 37.5177 28.9944 35.4841 28.9944C33.4503 28.9944 31.8018 30.6431 31.8018 32.6767C31.8018 34.7103 33.4505 33.8629 35.4841 33.8629C37.5178 33.8629 39.1664 34.7105 39.1664 32.6767Z" fill="#FF91AB"/>
<path d="M48.137 47.3381C47.1725 47.3381 46.2459 46.7999 45.7951 45.8743C45.1657 44.582 45.703 43.0241 46.9954 42.3946C47.5271 42.1357 49.1107 40.7983 50.3617 38.8809C51.3217 37.4088 52.3482 35.2066 51.7852 33.0741C51.4182 31.6842 52.2473 30.26 53.637 29.893C55.0275 29.526 56.4512 30.3553 56.818 31.7449C58.7065 38.8965 52.1033 45.6967 49.2747 47.0744C48.9078 47.2534 48.5193 47.3381 48.137 47.3381Z" fill="#EDA751"/>
<path d="M49.5272 20.8316C50.231 21.6075 51.263 23.0154 51.339 24.6636C51.4046 26.0872 50.3017 27.3232 48.8766 27.3234C47.5137 27.3237 46.4087 26.219 46.4087 24.856C46.4087 23.1293 47.4889 21.6443 48.22 20.8371C48.5698 20.4508 49.177 20.4455 49.5272 20.8316Z" fill="#82C7E6"/>
<path d="M34.4564 17.4422C35.1602 18.2181 36.1922 19.626 36.2682 21.2742C36.3338 22.6978 35.2309 23.9338 33.8058 23.934C32.4429 23.9343 31.3379 22.8295 31.3379 21.4666C31.3379 19.7399 32.4181 18.2549 33.1492 17.4477C33.499 17.0614 34.1062 17.0561 34.4564 17.4422Z" fill="#82C7E6"/>
<path d="M9.58719 18.4188C7.25837 17.0953 5.67333 14.8281 5.23866 12.198C5.15165 11.6712 4.65433 11.3145 4.12723 11.4018C3.60039 11.4888 3.24384 11.9863 3.33098 12.5132C3.86117 15.7217 5.79335 18.4868 8.63199 20.0997C8.78281 20.1854 8.94678 20.226 9.10869 20.226C9.44513 20.226 9.77204 20.0502 9.95006 19.7367C10.2139 19.2728 10.0514 18.6825 9.58719 18.4188ZM5.20901 6.21973C5.37208 6.32607 5.55538 6.37699 5.7365 6.37699C6.05219 6.37699 6.36169 6.22256 6.54706 5.93845C7.27087 4.82909 8.25236 3.88111 9.38558 3.19662C10.7542 2.37046 12.3273 1.93359 13.9352 1.93359C16.7304 1.93359 19.299 3.21608 20.9824 5.45235C21.3036 5.8789 21.9097 5.96436 22.3363 5.64326C22.763 5.32215 22.8484 4.71604 22.5272 4.28936C20.4751 1.56338 17.3435 0 13.9352 0C11.975 0 10.0563 0.533027 8.38604 1.54146C7.00545 2.37536 5.80946 3.53036 4.92761 4.88168C4.6359 5.32886 4.76184 5.92788 5.20901 6.21973ZM4.17441 9.57967C4.24441 9.59514 4.31428 9.60261 4.38311 9.60261C4.82706 9.60261 5.22706 9.29478 5.32632 8.84336C5.38355 8.58348 5.45368 8.32257 5.53489 8.06786C5.69692 7.55919 5.41591 7.01534 4.90712 6.85317C4.39884 6.69127 3.8546 6.97215 3.69243 7.48095C3.59343 7.79161 3.50784 8.11014 3.43797 8.42763C3.32324 8.94919 3.65286 9.46494 4.17441 9.57967ZM45.409 35.0274C46.3125 35.2672 48.3082 36.2652 48.9791 36.7603C49.152 36.8878 49.3531 36.9493 49.5525 36.9493C49.849 36.9493 50.1415 36.8134 50.3311 36.5567C50.6482 36.127 50.5569 35.5218 50.1274 35.2047C49.2727 34.5739 47.0716 33.4682 45.9051 33.1586C45.3888 33.0214 44.8596 33.3286 44.7225 33.8448C44.5858 34.361 44.8931 34.8903 45.409 35.0274ZM36.8005 34.9234C37.1796 34.9644 37.5507 35.0046 37.9039 35.0046C38.4873 35.0046 39.0222 34.8949 39.4634 34.4989C39.9142 34.0943 40.1333 33.4982 40.1333 32.6767C40.1333 30.1131 38.0476 28.0276 35.4842 28.0276C32.9206 28.0276 30.8351 30.1133 30.8351 32.6767C30.8351 33.4982 31.0542 34.0943 31.505 34.4989C32.2135 35.1351 33.1629 35.0325 34.1679 34.9234C34.5932 34.8774 35.0329 34.8297 35.4842 34.8297C35.9355 34.8297 36.3752 34.8774 36.8005 34.9234ZM33.9599 33.001C33.5784 33.0423 33.0156 33.103 32.8082 33.0529C32.7925 33.0008 32.7685 32.8873 32.7685 32.6767C32.7685 31.1793 33.9867 29.9612 35.4841 29.9612C36.9814 29.9612 38.1996 31.1793 38.1996 32.6767C38.1996 32.8873 38.1758 33.0008 38.1599 33.0529C37.9524 33.1029 37.3897 33.0423 37.0083 33.001C36.5542 32.9518 36.0394 32.8961 35.4839 32.8961C34.9287 32.8961 34.414 32.9518 33.9599 33.001ZM61.4329 52.0044C58.4855 50.2185 55.522 51.0087 53.3556 51.5863C52.1382 51.9112 50.9839 52.218 50.0686 52.0579C50.9854 50.448 51.5255 48.6237 51.5771 46.6877C52.8966 45.6115 54.3964 44.0254 55.6299 42.0958C56.4404 40.828 57.2678 39.203 57.7359 37.3508C59.2464 35.2717 60.0144 32.8056 60.0144 30.0145C60.0144 27.9493 59.5988 25.9397 58.803 24.0503C61.0388 20.6657 61.6487 16.522 60.4677 12.5907C60.0789 11.2961 58.9602 10.3575 57.6179 10.1992C53.7034 9.73771 49.8508 10.9492 46.9473 13.5297C44.3434 12.6108 41.5205 12.1274 38.6098 12.1274C35.6991 12.1274 32.8763 12.6108 30.2724 13.5297C28.6525 12.0901 26.7373 11.077 24.6806 10.5427C24.6634 9.63742 24.535 8.74075 24.295 7.8745C24.1527 7.36003 23.6204 7.058 23.1053 7.20096C22.5909 7.3434 22.2892 7.87604 22.4317 8.39064C22.5934 8.97458 22.6936 9.57606 22.7321 10.1849C22.2176 10.1287 21.6977 10.1011 21.1743 10.1034C20.8464 6.39646 17.7259 3.47944 13.9353 3.47944C9.92698 3.47944 6.66591 6.74051 6.66591 10.7488C6.66591 14.7572 9.92698 18.0181 13.9353 18.0181C14.7095 18.0181 15.4754 17.8935 16.2042 17.654C16.2458 18.1758 16.3179 18.6941 16.4196 19.2066C15.6145 19.4438 14.7821 19.564 13.9353 19.564C13.4013 19.564 12.9685 19.9967 12.9685 20.5308C12.9685 21.0648 13.4013 21.4976 13.9353 21.4976C14.9561 21.4976 15.9598 21.3544 16.9312 21.0717C17.2978 22.1095 17.7946 23.109 18.4165 24.0503C17.6205 25.9397 17.2049 27.9493 17.2049 30.0147C17.2049 35.7503 20.4169 40.0316 26.36 42.3877C26.2606 42.6533 26.1708 42.9213 26.0918 43.1918C24.8432 44.8924 24.5363 46.7894 24.267 48.4699C24.0047 50.1074 23.7074 51.9637 22.5376 54.2952C22.1099 55.1475 22.0398 56.1152 22.34 57.0203C22.6404 57.9252 23.2751 58.659 24.1272 59.0865C24.6293 59.3384 25.1671 59.4661 25.7259 59.4661C27.0857 59.4661 28.309 58.7115 28.9184 57.497C29.279 56.7782 29.5951 56.0625 29.8738 55.3355C30.189 55.6042 30.5181 55.8588 30.8605 56.0978C30.7394 58.3953 30.8037 60.7703 31.0463 62.8448C31.2565 64.6435 32.7792 66 34.5883 66C34.728 66 34.8688 65.9916 35.0061 65.9755C35.953 65.8648 36.8002 65.3919 37.3916 64.644C37.983 63.896 38.2477 62.9626 38.1368 62.0156C38.0131 60.9576 37.9471 59.7336 37.9426 58.4884C38.1635 58.4989 38.386 58.5042 38.6097 58.5042C38.6959 58.5042 38.7817 58.5027 38.8675 58.5011C38.8722 60.0175 38.9542 61.5019 39.1112 62.8446C39.3216 64.6435 40.8442 66 42.6533 66C42.7931 66 42.9338 65.9916 43.0711 65.9755C44.3388 65.8274 45.4381 65.0056 45.9403 63.8308C46.1502 63.3398 45.9222 62.7717 45.4312 62.5618C44.9405 62.3517 44.372 62.58 44.1623 63.0709C43.9319 63.61 43.4278 63.987 42.8458 64.0551C42.7825 64.0625 42.7176 64.0663 42.6533 64.0663C41.8254 64.0663 41.1282 63.4446 41.0318 62.6199C40.8774 61.2999 40.7993 59.8315 40.8005 58.3303C41.9544 58.1461 43.0565 57.8191 44.0856 57.3693C44.0687 58.0313 44.0681 58.7009 44.0851 59.3575C44.0985 59.8828 44.5286 60.2994 45.051 60.2994C45.0594 60.2994 45.068 60.2992 45.0764 60.299C45.6103 60.2853 46.0317 59.8414 46.0179 59.3077C45.9921 58.308 46.0084 57.277 46.0642 56.297C46.1734 56.225 46.2814 56.1518 46.388 56.0771C47.6689 56.889 49.0574 57.2863 50.6122 57.2863C52.1147 57.2862 53.4854 56.9202 54.6947 56.5974C56.7753 56.0428 57.7872 55.8602 58.7447 56.4403C59.3374 56.7994 60.034 56.9064 60.7069 56.7411C61.3797 56.576 61.9479 56.1588 62.3069 55.5665C63.048 54.3435 62.656 52.7457 61.4329 52.0044ZM57.769 22.0133C56.7371 20.2905 55.3644 18.7013 53.678 17.3051C53.608 17.2473 53.5367 17.1908 53.466 17.1338C55.3176 15.6915 57.3205 14.9536 58.946 14.5777C59.2505 16.3995 59.2902 19.1648 57.769 22.0133ZM57.3916 12.1194C57.8061 12.1682 58.1703 12.391 58.4048 12.7185C56.4563 13.182 54.0436 14.1093 51.8505 15.9546C50.9421 15.3553 49.9838 14.8219 48.9836 14.3581C52.2982 11.8611 55.8911 11.943 57.3916 12.1194ZM28.2359 14.358C27.2357 14.8219 26.2773 15.3552 25.3689 15.9545C23.176 14.1092 20.7631 13.1818 18.8148 12.7184C19.0493 12.3909 19.4135 12.1681 19.828 12.1193C21.3281 11.9429 24.9211 11.8609 28.2359 14.358ZM16.7518 12.5905C16.4552 13.5777 16.2728 14.5784 16.1993 15.577C15.4935 15.9083 14.7207 16.0843 13.9352 16.0843C10.993 16.0843 8.59938 13.6907 8.59938 10.7486C8.59938 7.80643 10.9929 5.41277 13.9352 5.41277C16.7131 5.41277 19.001 7.54707 19.2477 10.262C18.0656 10.5302 17.1058 11.4118 16.7518 12.5905ZM18.2734 14.5777C19.8989 14.9536 21.9019 15.6915 23.7533 17.1338C23.6826 17.1909 23.6113 17.2473 23.5413 17.3053C21.8549 18.7015 20.4822 20.2905 19.4503 22.0133C17.9292 19.1646 17.9689 16.3993 18.2734 14.5777ZM27.1901 56.6295C26.9108 57.1864 26.3496 57.5324 25.726 57.5324C25.471 57.5324 25.2249 57.4738 24.9944 57.3581C24.6039 57.1622 24.3129 56.8257 24.1754 56.4111C24.0378 55.9962 24.0699 55.5528 24.2659 55.1621C25.4039 52.8941 25.7939 51.0725 26.064 49.4652C26.515 51.0669 27.3088 52.5399 28.3674 53.8115C28.0453 54.7694 27.6586 55.6961 27.1901 56.6295ZM35.8749 63.4448C35.6038 63.7876 35.2157 64.0044 34.7809 64.0552C34.7176 64.0627 34.6528 64.0664 34.5884 64.0664C33.7603 64.0664 33.0632 63.4447 32.9669 62.6201C32.7714 60.9478 32.6984 59.0663 32.7513 57.1956C33.7678 57.6785 34.8609 58.0402 36.0088 58.2594C36.0046 59.6639 36.0746 61.026 36.2165 62.2404C36.2672 62.6743 36.1459 63.1022 35.8749 63.4448ZM38.6097 56.5708C32.5232 56.5708 27.5717 52.0003 27.5717 46.3824C27.5717 45.5256 27.6856 44.686 27.9098 43.8713C27.9101 43.8701 27.9104 43.869 27.9107 43.8678C27.9892 43.5832 28.0806 43.3014 28.1862 43.0232C29.0944 43.3001 30.0527 43.5404 31.0655 43.7384C31.1282 43.7508 31.1907 43.7566 31.2521 43.7566C31.7052 43.7566 32.1097 43.4366 32.1998 42.9752C32.3023 42.4511 31.9605 41.9433 31.4365 41.8408C30.206 41.6002 29.0614 41.2967 28.0034 40.9331C27.9815 40.9244 27.9594 40.9166 27.9373 40.9096C25.7308 40.1435 23.9062 39.1123 22.4929 37.8251C22.1775 37.5378 21.8866 37.237 21.6153 36.9258C21.7464 36.8981 21.8743 36.8451 21.9891 36.7603C22.66 36.2651 24.6558 35.2673 25.5593 35.0274C26.0753 34.8904 26.3826 34.361 26.2456 33.8448C26.1086 33.3288 25.5798 33.022 25.063 33.1586C23.8962 33.4683 21.6952 34.5739 20.8407 35.2047C20.7297 35.2865 20.6418 35.3879 20.5772 35.5003C19.6229 33.9097 19.1382 32.0754 19.1382 30.0144C19.1382 21.2176 27.8731 14.0608 38.6095 14.0608C49.346 14.0608 58.0807 21.2176 58.0807 30.0144C58.0807 30.7458 58.0184 31.4494 57.8971 32.1246C57.8548 31.9167 57.8082 31.7081 57.7526 31.4981C57.2503 29.5955 55.2932 28.4554 53.39 28.9584C52.4682 29.2019 51.6962 29.7897 51.2166 30.6137C51.1945 30.6516 51.174 30.69 51.1535 30.7284C51.0942 30.6997 51.0313 30.6763 50.9649 30.6597C49.9346 30.4023 47.4788 30.219 46.2818 30.3768C45.7525 30.4468 45.3801 30.9326 45.4499 31.4619C45.5199 31.9912 46.0063 32.3627 46.5351 32.2937C47.4619 32.1716 49.687 32.3336 50.4962 32.5357C50.5749 32.5553 50.6538 32.5647 50.7314 32.5647C50.7326 32.5647 50.7338 32.5644 50.7351 32.5644C50.7466 32.8171 50.7842 33.0705 50.8503 33.321C51.3228 35.1101 50.405 37.0449 49.552 38.3528C48.3175 40.245 46.8544 41.3881 46.5719 41.5255C46.4279 41.5956 46.2907 41.6751 46.1593 41.7621C43.8712 42.2408 41.3337 42.4854 38.6097 42.4854C37.6614 42.4854 36.7218 42.4555 35.8173 42.3962C35.289 42.3617 34.8243 42.765 34.7894 43.2979C34.7545 43.8307 35.1582 44.2909 35.6911 44.3258C36.6375 44.3877 37.6194 44.4192 38.6097 44.4192C40.733 44.4192 42.7526 44.2754 44.6435 43.9951C44.4776 44.7704 44.5732 45.5739 44.9258 46.298C45.1595 46.778 45.7383 46.9778 46.2183 46.7439C46.6984 46.51 46.8979 45.9312 46.6642 45.4513C46.4729 45.0584 46.446 44.6146 46.5884 44.2014C46.7309 43.7884 47.0257 43.4555 47.4185 43.2642C48.1503 42.9077 49.849 41.4363 51.1714 39.4095C52.2385 37.7733 53.3736 35.3032 52.7199 32.8274C52.6084 32.405 52.668 31.9644 52.8878 31.5867C53.1076 31.209 53.4615 30.9396 53.8839 30.8281C54.7559 30.5978 55.6531 31.12 55.8835 31.992C56.3201 33.6454 56.2453 35.2445 55.903 36.7C55.9009 36.7081 55.8993 36.7161 55.8974 36.7242C55.4974 38.4083 54.7398 39.8985 54.0008 41.0545C52.2008 43.8704 49.9351 45.6777 48.8513 46.2058C48.7859 46.2375 48.7176 46.2655 48.6478 46.2887C48.1412 46.4574 47.8672 47.0049 48.0359 47.5114C48.1709 47.9168 48.5482 48.173 48.9531 48.173C49.0543 48.173 49.1573 48.1571 49.2586 48.1233C49.3403 48.0961 49.4212 48.0651 49.5008 48.0321C48.644 52.8678 44.0875 56.5708 38.6097 56.5708ZM60.6531 54.5643C60.4644 54.8755 60.058 54.9753 59.7467 54.7868C57.9849 53.7191 56.2292 54.1873 54.1961 54.7293C53.1016 55.0216 51.8608 55.3527 50.612 55.3529C49.661 55.3529 48.7916 55.1561 47.9802 54.756C48.3124 54.4316 48.625 54.0895 48.9174 53.7323C49.0542 53.7859 49.1912 53.8347 49.3287 53.8726C50.7818 54.2744 52.3436 53.8578 53.8563 53.4541C55.8866 52.9128 58.1878 52.2989 60.4307 53.6581C60.5815 53.7495 60.6876 53.894 60.7296 54.0653C60.7717 54.2363 60.7445 54.4135 60.6531 54.5643ZM43.3568 29.9683C43.8908 29.9683 44.3236 29.5355 44.3236 29.0015V27.6946C44.3236 27.1605 43.8908 26.7278 43.3568 26.7278C42.8227 26.7278 42.39 27.1605 42.39 27.6946V29.0015C42.39 29.5355 42.8227 29.9683 43.3568 29.9683ZM27.6118 26.7279C27.0777 26.7279 26.645 27.1607 26.645 27.6947V29.0016C26.645 29.5356 27.0777 29.9684 27.6118 29.9684C28.1458 29.9684 28.5786 29.5356 28.5786 29.0016V27.6947C28.5786 27.1607 28.1458 26.7279 27.6118 26.7279ZM24.6866 30.3766C23.4896 30.2186 21.0339 30.4022 20.0035 30.6596C19.4854 30.7891 19.1705 31.3139 19.2999 31.832C19.4098 32.2713 19.8039 32.5647 20.2372 32.5647C20.3148 32.5647 20.3937 32.5553 20.4723 32.5357C21.2814 32.3336 23.507 32.1714 24.4334 32.2937C24.9608 32.3641 25.4485 31.9913 25.5186 31.4619C25.5883 30.9325 25.2159 30.4466 24.6866 30.3766Z" fill="#151515"/>
</svg>
