<svg width="68" height="68" viewBox="0 0 68 68" fill="none" xmlns="http://www.w3.org/2000/svg">
<g clip-path="url(#clip0_20_641)">
<path d="M3.00242 60.7894C2.42017 60.7894 1.8431 60.5371 1.44679 60.0505C0.747528 59.1919 0.876622 57.9291 1.73512 57.2298C5.19502 54.4118 11.0204 53.8154 18.1381 55.55C22.118 56.5201 25.6872 54.4412 26.8177 50.4949C27.1228 49.4304 28.2329 48.8151 29.2972 49.1196C30.3617 49.4246 30.9774 50.5346 30.6724 51.5991C28.9451 57.6289 23.2744 60.9288 17.1889 59.4458C11.4051 58.0361 6.69527 58.3617 4.26759 60.3389C3.89545 60.6418 3.44734 60.7894 3.00242 60.7894Z" fill="#EDA751"/>
<path d="M3.4415 56.1174C2.82259 56.4388 2.2519 56.8091 1.73512 57.2301C0.876622 57.9294 0.747528 59.1922 1.44679 60.0508C1.8431 60.5374 2.4203 60.7896 3.00242 60.7896C3.44747 60.7896 3.89545 60.6421 4.26733 60.3391C4.6392 60.0362 5.06513 59.7726 5.5398 59.5474C5.22424 57.9111 4.18206 56.7114 3.4415 56.1174Z" fill="#FCD79D"/>
<path d="M17.3963 49.5152C14.8326 49.5152 12.0776 49.0232 9.48666 47.4975C7.96012 46.5985 7.45131 44.6322 8.35032 43.1056C9.24933 41.5791 11.2156 41.0704 12.7422 41.9693C16.1673 43.9864 20.6391 42.8547 23.5981 42.1059C23.9902 42.0067 24.3545 41.9147 24.6868 41.8363C26.4111 41.4305 28.1383 42.4984 28.5447 44.2227C28.9511 45.947 27.8828 47.6742 26.1582 48.0806C25.8571 48.1516 25.527 48.2354 25.1718 48.3253C23.2688 48.8071 20.4704 49.5152 17.3963 49.5152Z" fill="#EDA751"/>
<path d="M51.0661 48.6898C49.7123 48.6898 48.3781 48.4673 47.1035 47.8059C45.531 46.9899 44.9177 45.0538 45.7335 43.4813C46.5495 41.9089 48.4855 41.2954 50.0582 42.1113C50.7578 42.4743 52.537 42.1735 54.2574 41.8825C57.1505 41.3931 60.7506 40.7838 64.7154 41.9725C66.4124 42.4813 67.3757 44.2694 66.8669 45.9662C66.3581 47.6633 64.5702 48.6264 62.8731 48.1177C60.3436 47.3593 57.7936 47.7909 55.3275 48.2079C53.9162 48.4469 52.4804 48.6898 51.0661 48.6898Z" fill="#EDA751"/>
<path opacity="0.2" d="M54.578 48.3331C54.479 46.2372 54.2726 44.2689 54.091 42.5384C54.0689 42.3287 54.0474 42.1232 54.0264 41.9215C52.3799 42.1989 50.7265 42.458 50.0581 42.1114C48.4853 41.2954 46.5495 41.9089 45.7335 43.4814C44.9175 45.0539 45.5309 46.99 47.1034 47.806C48.3782 48.4674 49.7124 48.6899 51.066 48.6899C52.2308 48.6897 53.4099 48.5245 54.578 48.3331Z" fill="#A35F00"/>
<path opacity="0.2" d="M29.297 49.1199C28.2328 48.8153 27.1226 49.4307 26.8176 50.4952C25.8778 53.7759 23.2519 55.7642 20.1064 55.7847C19.9504 57.1423 19.7487 58.4861 19.4896 59.7833C24.6564 60.0419 29.1651 56.8601 30.6722 51.5994C30.9772 50.5348 30.3615 49.4249 29.297 49.1199Z" fill="#A35F00"/>
<path opacity="0.2" d="M28.545 44.2228C28.1386 42.4985 26.4112 41.4304 24.6869 41.8364C24.3546 41.9147 23.9903 42.0068 23.5982 42.106C22.7101 42.3307 21.6852 42.5896 20.5936 42.7877C20.6192 44.6837 20.6301 46.9162 20.5562 49.2857C22.3546 49.0372 23.9486 48.6351 25.1719 48.3255C25.5272 48.2356 25.8574 48.1519 26.1583 48.081C27.8829 47.6744 28.9514 45.9471 28.545 44.2228Z" fill="#A35F00"/>
<path d="M23.1173 38.6348C23.1173 43.0415 23.6618 53.0037 21.8246 61.2088C21.6716 61.892 21.8715 62.6065 22.3479 63.1197L22.5993 63.3905C23.3988 64.2516 24.6687 64.4862 25.7231 63.9676L26.6302 63.5213C27.6213 63.0338 28.8107 63.2093 29.6186 63.9626L29.7022 64.0407C30.5666 64.8466 31.8591 64.9858 32.875 64.3821L33.7267 63.876C34.6459 63.3299 35.8029 63.3872 36.6636 64.0215L37.0895 64.3353C37.9284 64.9534 39.0508 65.0249 39.9612 64.5183L41.3544 63.7431C42.303 63.2153 43.4772 63.3168 44.3211 63.9994C45.3233 64.8101 46.7625 64.7857 47.7365 63.9414C49.3039 62.5827 50.4582 60.8061 51.0383 58.8146C53.229 51.2949 51.2022 42.6056 51.2022 38.6348H23.1173Z" fill="#FCD690"/>
<path opacity="0.15" d="M21.8245 61.2088C21.6715 61.892 21.8714 62.6066 22.3478 63.1197L22.5992 63.3905C23.3987 64.2516 24.6685 64.4862 25.7229 63.9676L26.63 63.5213C27.6212 63.0338 28.8106 63.2093 29.6185 63.9626L29.7021 64.0406C30.1241 64.434 30.6482 64.6672 31.1922 64.734C28.5412 59.34 30.5341 46.928 31.3234 42.7549V38.6348H23.1173C23.1173 43.0415 23.6618 53.0036 21.8245 61.2088Z" fill="#C17A00"/>
<path d="M27.9978 22.8293C30.893 20.4 32.8258 16.322 28.7424 10.2935C24.6266 4.21744 18.4988 2.69434 13.7148 3.25787C12.5353 3.39679 11.5457 4.22727 11.2041 5.36467C9.81831 9.97805 10.2542 16.2772 15.5231 21.3856C20.751 26.454 25.1028 25.2587 27.9978 22.8293Z" fill="#EDA751"/>
<path d="M11.0116 6.0708C9.8755 10.6067 10.5179 16.533 15.5232 21.3858C20.0544 25.7788 23.9268 25.4649 26.7637 23.7218C24.8127 10.4769 16.2897 6.96476 11.0116 6.0708Z" fill="#FF91AB"/>
<path d="M46.0056 22.8293C43.1104 20.4 41.1776 16.322 45.261 10.2935C49.3768 4.21744 55.5046 2.69434 60.2886 3.25787C61.4681 3.39679 62.4577 4.22727 62.7993 5.36467C64.1851 9.97805 63.7492 16.2772 58.4803 21.3856C53.2524 26.454 48.9006 25.2587 46.0056 22.8293Z" fill="#EDA751"/>
<path d="M62.9918 6.0708C64.1279 10.6067 63.4855 16.533 58.4802 21.3858C53.949 25.7788 50.0766 25.4649 47.2397 23.7218C49.1908 10.4769 57.7136 6.96476 62.9918 6.0708Z" fill="#FF91AB"/>
<path d="M62.1902 26.4957C62.1902 38.0127 50.913 43.0569 37.0017 43.0569C23.0904 43.0569 11.8131 38.0128 11.8131 26.4957C11.8131 14.9786 23.0904 5.64258 37.0017 5.64258C50.913 5.64258 62.1902 14.9788 62.1902 26.4957Z" fill="#FFDC9C"/>
<path opacity="0.15" d="M23.5522 8.86206C16.4978 12.5576 11.813 19.0732 11.813 26.4956C11.813 36.3958 20.1467 41.5131 31.3231 42.7545C15.2795 33.1715 17.372 20.281 23.5522 8.86206Z" fill="#C17A00"/>
<path d="M26.5115 30.6136C29.0302 30.6136 31.0721 28.9876 31.0721 26.9817C31.0721 24.9759 29.0302 23.3499 26.5115 23.3499C23.9927 23.3499 21.9508 24.9759 21.9508 26.9817C21.9508 28.9876 23.9927 30.6136 26.5115 30.6136Z" fill="#FF91AB"/>
<path d="M51.2313 30.6136C53.7501 30.6136 55.7919 28.9876 55.7919 26.9817C55.7919 24.9759 53.7501 23.3499 51.2313 23.3499C48.7125 23.3499 46.6707 24.9759 46.6707 26.9817C46.6707 28.9876 48.7125 30.6136 51.2313 30.6136Z" fill="#FF91AB"/>
<path d="M38.8707 27.9899C40.5665 27.9899 41.9412 26.6152 41.9412 24.9194C41.9412 23.2236 40.5665 21.8489 38.8707 21.8489C37.1749 21.8489 35.8002 23.2236 35.8002 24.9194C35.8002 26.6152 37.1749 27.9899 38.8707 27.9899Z" fill="#FF91AB"/>
<path d="M28.173 21.748V23.3586C28.173 23.9087 28.619 24.3547 29.1691 24.3547C29.7192 24.3547 30.1652 23.9087 30.1652 23.3586V21.748C30.1652 21.1979 29.7192 20.7519 29.1691 20.7519C28.619 20.7519 28.173 21.1979 28.173 21.748ZM21.5327 32.9583C21.7382 32.9583 21.9455 32.8949 22.1235 32.7636C22.9815 32.1303 25.4358 30.9025 26.5893 30.5962C27.121 30.455 27.4376 29.9096 27.2966 29.3779C27.1554 28.8463 26.61 28.5298 26.0783 28.6707C24.6589 29.0475 21.9806 30.3929 20.9405 31.1608C20.4979 31.4875 20.404 32.1112 20.7307 32.5537C20.9259 32.8183 21.2274 32.9583 21.5327 32.9583ZM25.2774 27.2222C25.823 27.2947 26.3233 26.9107 26.3954 26.3652C26.4674 25.8199 26.0837 25.3193 25.5384 25.2472C24.0825 25.0549 21.0937 25.2781 19.8395 25.5918C19.3057 25.7252 18.9813 26.266 19.1148 26.7997C19.2279 27.2524 19.6341 27.5545 20.0803 27.5545C20.1603 27.5545 20.2415 27.5448 20.3227 27.5245C21.3572 27.2659 24.0942 27.0658 25.2774 27.2222ZM42.9374 24.9201C42.9374 22.678 41.1133 20.854 38.8715 20.854C36.6294 20.854 34.8054 22.678 34.8054 24.9201C34.8054 27.1621 36.6294 28.9861 38.8715 28.9861C41.1135 28.986 42.9374 27.1619 42.9374 24.9201ZM36.7975 24.9201C36.7975 23.7765 37.7278 22.8461 38.8715 22.8461C40.015 22.8461 40.9453 23.7764 40.9453 24.9201C40.9453 26.0636 40.015 26.9941 38.8715 26.9941C37.7279 26.9938 36.7975 26.0634 36.7975 24.9201ZM49.5698 23.3586V21.748C49.5698 21.1979 49.1238 20.7519 48.5737 20.7519C48.0236 20.7519 47.5776 21.1979 47.5776 21.748V23.3586C47.5776 23.9087 48.0236 24.3547 48.5737 24.3547C49.1238 24.3547 49.5698 23.9087 49.5698 23.3586ZM67.4954 43.0514C66.9628 42.0628 66.0772 41.3409 65.0016 41.0184C60.814 39.7629 57.0863 40.3934 54.0915 40.9003C53.8032 40.9491 53.5123 40.9979 53.2252 41.0442C53.9603 40.7072 54.6604 40.3436 55.3207 39.9523C60.4667 36.9033 63.1867 32.2502 63.1867 26.4959C63.1867 23.9423 62.6665 21.4576 61.6686 19.1248C64.4394 14.9861 65.2021 9.90109 63.7535 5.07827C63.2968 3.55743 61.9825 2.45469 60.4055 2.26888C55.5994 1.70231 50.868 3.20614 47.3213 6.40241C44.1028 5.25198 40.6076 4.64649 37.002 4.64649C33.3964 4.64649 29.9011 5.25198 26.6827 6.40241C23.1362 3.20614 18.4046 1.70257 13.5986 2.26888C12.0215 2.45469 10.7072 3.55743 10.2506 5.07827C8.80198 9.90095 9.56486 14.9858 12.3356 19.1246C11.3378 21.4575 10.8175 23.9422 10.8175 26.4959C10.8175 31.2002 12.5721 35.0922 16.0326 38.0632C17.6441 39.4468 19.5917 40.5968 21.8527 41.5103C19.438 42.0739 15.8798 42.6606 13.248 41.1107C11.2505 39.9345 8.66864 40.6028 7.49258 42.5999C6.92268 43.5675 6.76384 44.699 7.04513 45.7861C7.32643 46.8733 8.01414 47.7857 8.98181 48.3555C11.4104 49.7857 14.2416 50.5109 17.3968 50.5109C18.8826 50.5109 20.4062 50.3603 22.1139 50.0417C22.058 51.5078 21.9678 53.0181 21.8277 54.531C20.7561 54.8549 19.5744 54.8745 18.3746 54.5821C10.9462 52.7718 4.81388 53.4378 1.10641 56.4574C0.484846 56.9637 0.0976972 57.6816 0.0161502 58.479C-0.0653969 59.2764 0.168486 60.0579 0.674636 60.6793C1.24693 61.3821 2.0956 61.7852 3.00271 61.7852C3.69015 61.7852 4.36285 61.5458 4.89675 61.1111C7.04819 59.3587 11.5553 59.0979 16.9532 60.4134C18.2804 60.7369 19.6028 60.8543 20.9011 60.7669C20.8849 60.8415 20.8695 60.9168 20.8529 60.991C20.629 61.9908 20.915 63.0399 21.6181 63.7972L21.8696 64.068C22.9771 65.2609 24.7025 65.5797 26.163 64.8612L27.0701 64.415C27.6865 64.112 28.4375 64.223 28.9396 64.691L29.0233 64.7691C30.2036 65.8697 31.9969 66.0627 33.384 65.2383L34.2359 64.7323C34.8123 64.3899 35.5335 64.4257 36.0731 64.8233L36.499 65.1371C37.139 65.6088 37.9029 65.8485 38.6697 65.8485C39.2803 65.8485 39.8927 65.6964 40.4458 65.3887L41.8392 64.6135C42.4355 64.2814 43.1642 64.3444 43.6949 64.7738C45.0745 65.8897 47.0486 65.8562 48.3893 64.6939C49.4617 63.7644 50.3487 62.6671 51.0258 61.4326C51.2904 60.9502 51.1137 60.3447 50.6314 60.0802C50.1488 59.8156 49.5435 59.9923 49.2789 60.4746C48.7159 61.5013 47.9775 62.4145 47.0843 63.1887C46.4742 63.7174 45.5757 63.7328 44.9476 63.2249C43.7814 62.2815 42.1807 62.1432 40.8704 62.8727L39.4771 63.6479C38.9092 63.964 38.2041 63.919 37.6808 63.5336L37.2549 63.2196C36.069 62.3458 34.4846 62.2675 33.2184 63.0197L32.3666 63.5257C31.7353 63.9011 30.9189 63.813 30.3818 63.3123L30.2981 63.2342C29.195 62.2054 27.5443 61.9617 26.1908 62.6275L25.2836 63.0736C24.6191 63.4009 23.8337 63.2559 23.3296 62.7126L23.078 62.4418C22.8214 62.1655 22.7164 61.7859 22.7969 61.4264C22.9143 60.9019 23.021 60.3694 23.12 59.8322C23.1266 59.8037 23.1317 59.7748 23.1358 59.7456C23.3945 58.3266 23.5928 56.8716 23.7428 55.4149C23.7489 55.3779 23.7527 55.3406 23.7546 55.3029C23.9745 53.1302 24.089 50.9586 24.144 48.9055C24.1478 48.864 24.1488 48.8221 24.1473 48.7797C24.2081 46.403 24.1899 44.1918 24.1624 42.3299C25.6336 42.7819 27.215 43.1484 28.9039 43.4273C29.4461 43.5167 29.9592 43.1496 30.049 42.6068C30.1386 42.064 29.7713 41.5514 29.2285 41.4617C27.1416 41.1171 25.2394 40.6327 23.5232 40.0163C23.49 40.0025 23.456 39.9902 23.4211 39.9799C21.0063 39.1014 18.9669 37.9569 17.3302 36.5516C14.3304 33.9761 12.8096 30.5929 12.8096 26.4959C12.8096 15.5467 23.6623 6.63868 37.0022 6.63868C50.3421 6.63868 61.1948 15.5465 61.1948 26.4959C61.1948 31.5791 58.8768 35.5299 54.3055 38.2384C53.2952 38.8369 52.1829 39.3671 50.9796 39.8287C50.9622 39.835 50.9449 39.8414 50.9281 39.8486C47.1128 41.3023 42.3777 42.061 37.0022 42.061C35.9206 42.061 34.8482 42.0295 33.8145 41.9673C33.2668 41.9343 32.7934 42.3528 32.7605 42.9019C32.7275 43.4511 33.1459 43.923 33.6951 43.9559C34.7685 44.0205 35.8812 44.0532 37.0022 44.0532C42.0788 44.0532 46.6346 43.3952 50.4551 42.1288C50.4815 42.3848 50.5086 42.6445 50.5367 42.912C50.9254 46.6144 51.4577 51.6852 50.5894 56.3853C50.4894 56.9263 50.8469 57.4458 51.3879 57.5458C51.4491 57.5571 51.5099 57.5626 51.57 57.5626C52.0409 57.5626 52.4597 57.2271 52.5482 56.7472C52.9916 54.3477 53.0934 51.8902 53.0358 49.5594C53.8886 49.4613 54.7292 49.3196 55.4963 49.1898C57.8488 48.7918 60.2815 48.3803 62.5877 49.0719C64.8083 49.7374 67.1559 48.4726 67.8216 46.2523C68.1437 45.1766 68.028 44.0399 67.4954 43.0514ZM21.291 58.7307C20.0298 58.8807 18.7324 58.7968 17.4247 58.4781C11.3347 56.9939 6.30988 57.3905 3.63849 59.5665C3.40832 59.7539 3.16554 59.7932 3.00245 59.7932C2.69698 59.7932 2.41156 59.6577 2.21912 59.4214C2.04885 59.2125 1.97022 58.9498 1.99772 58.6818C2.02508 58.4138 2.15523 58.1725 2.36415 58.0023C5.57649 55.3859 11.0946 54.8589 17.9022 56.5179C19.1611 56.8247 20.4141 56.8629 21.597 56.6374C21.5084 57.3408 21.4067 58.0398 21.291 58.7307ZM22.1718 48.0018C20.411 48.3536 18.8773 48.5188 17.3966 48.5188C14.6016 48.5188 12.1106 47.8864 9.99251 46.6389C9.48344 46.3391 9.12166 45.859 8.97371 45.2871C8.82575 44.7151 8.90929 44.1198 9.20905 43.6108C9.82796 42.5599 11.1864 42.2084 12.2372 42.8273C15.4655 44.7285 19.4759 44.1044 22.1849 43.4786C22.1995 44.8571 22.2029 46.3859 22.1718 48.0018ZM18.5556 10.9832C16.3983 12.7692 14.6611 14.8129 13.3828 17.0319C11.2506 13.2582 11.3596 9.56786 11.7818 7.23541C13.8968 7.70105 16.5673 8.65889 19.0056 10.6197C18.8542 10.7393 18.7041 10.8604 18.5556 10.9832ZM20.6695 9.41194C17.8661 7.01334 14.7523 5.86066 12.2981 5.30949C12.598 4.72977 13.1677 4.32562 13.8316 4.24739C17.7303 3.78852 21.5713 4.87347 24.5913 7.2443C23.2167 7.86255 21.9046 8.58704 20.6695 9.41194ZM49.4124 7.24404C52.4324 4.8732 56.2727 3.78799 60.1722 4.24713C60.8363 4.32548 61.4059 4.72963 61.7057 5.30923C59.2516 5.8604 56.1376 7.01321 53.3342 9.41167C52.0991 8.58704 50.7873 7.86255 49.4124 7.24404ZM60.6211 17.0319C59.3427 14.8129 57.6054 12.7692 55.4482 10.9832C55.2997 10.8604 55.1497 10.7393 54.9984 10.6197C57.4367 8.65876 60.107 7.70078 62.2222 7.23541C62.6445 9.56786 62.7533 13.2582 60.6211 17.0319ZM65.9129 45.6801C65.5627 46.8483 64.3271 47.5137 63.1593 47.1636C60.4077 46.3386 57.7418 46.7895 55.1615 47.2258C54.4352 47.3486 53.6919 47.4736 52.9492 47.5635C52.8535 45.9819 52.7043 44.4912 52.5648 43.1556C53.1653 43.0773 53.8011 42.9698 54.4236 42.8645C57.2142 42.3922 60.6874 41.8046 64.4294 42.9265C64.9953 43.0961 65.4612 43.476 65.7415 43.996C66.0217 44.5161 66.0827 45.1143 65.9129 45.6801ZM50.4462 29.3779C50.305 29.9096 50.6217 30.455 51.1535 30.5962C52.3068 30.9023 54.7612 32.1302 55.6193 32.7636C55.7972 32.8949 56.0046 32.9583 56.21 32.9583C56.5155 32.9583 56.8168 32.8183 57.0122 32.5537C57.3389 32.1111 57.245 31.4875 56.8024 31.1608C55.7621 30.3929 53.0839 29.0475 51.6645 28.6707C51.1329 28.5302 50.5874 28.8463 50.4462 29.3779ZM52.4654 27.2222C53.6486 27.0658 56.3856 27.2659 57.4202 27.5244C57.5014 27.5447 57.5825 27.5544 57.6626 27.5544C58.1089 27.5543 58.515 27.2522 58.6282 26.7996C58.7616 26.2658 58.4372 25.7252 57.9034 25.5917C56.6491 25.2781 53.66 25.0547 52.2044 25.247C51.6589 25.3192 51.2752 25.8197 51.3474 26.3651C51.4195 26.9106 51.9207 27.2941 52.4654 27.2222Z" fill="#151515"/>
</g>
<defs>
<clipPath id="clip0_20_641">
<rect width="68" height="68" fill="white"/>
</clipPath>
</defs>
</svg>
